<svg width="28" height="34" viewBox="0 0 28 34" fill="none" xmlns="http://www.w3.org/2000/svg">
<g clip-path="url(#clip0_263_6832)">
<path d="M21.1831 18.6809C17.903 20.8188 15.0661 22.1256 12.6659 22.7856L12.6593 20.9671L9.18692 22.0228L9.1804 23.3231C1.73205 23.4162 0.72503 15.4301 5.81227 10.1392C2.40502 18.0275 14.0167 16.7386 19.0094 17.4734C20.326 17.6674 21.1831 18.0014 21.1831 18.6809Z" fill="#FECC0B"/>
<path d="M24.4828 23.7896V24.7509L22.3203 25.4089L22.3218 24.447L24.4828 23.7896Z" fill="#22297C"/>
<path d="M13.1588 26.8999V27.9527L12.6602 28.1043L10.9492 28.6255V27.573L12.6602 27.0516L13.1588 26.8999Z" fill="#22297C"/>
<path d="M10.5924 27.7856V28.8383L9.18777 29.2668L8.38281 29.5113V28.4586L9.18777 28.2142L10.5924 27.7856Z" fill="#22297C"/>
<path d="M25.4606 19.3618V21.3082C25.4606 21.6749 25.1347 22.1367 24.3938 22.4036L22.2017 23.0705L21.3869 23.3184V26.2478C21.3665 26.8182 20.9184 27.1033 20.5521 27.2469L18.0564 28.0065L16.9368 28.3471C16.9368 28.3471 14.4686 29.1001 14.4466 29.1048C13.9423 29.215 13.7455 28.9669 13.7188 28.733V26.729L16.937 25.7513V26.9268C16.937 27.2799 18.0468 27.1951 18.0566 26.7062V21.6157L21.3333 20.6186V21.9092C21.5365 22.2929 22.3174 22.1844 22.324 21.6613V20.317L24.4831 19.6603L25.4606 19.3618Z" fill="#22297C"/>
<path d="M21.4275 18.3678C26.3159 14.62 29.4119 7.50409 0.460938 4.84315C25.7733 -6.56321 34.5725 9.24274 21.4275 18.3678Z" fill="#22297C"/>
<path d="M16.9368 21.9562V24.1951C16.9368 24.4298 16.7166 24.7557 16.3045 24.8648L13.7185 25.6519L13.158 25.823L12.6594 25.9745L10.9484 26.4943L10.5916 26.6035L9.18696 27.0304L8.382 27.2765L8.26956 27.3107L5.97037 28.0097C5.44405 28.0961 4.92913 27.9136 4.84766 27.5209V25.6356L8.26956 24.5943V26.0544C8.32659 26.2857 9.13482 26.2238 9.16578 25.8507L9.18044 23.3233L9.18696 22.023L12.6594 20.9673L12.6659 22.7858L12.674 24.6189C12.6903 24.9235 13.5344 24.7363 13.5312 24.3696L13.5246 22.9942L13.7185 22.9357L16.9368 21.9562Z" fill="#22297C"/>
<path d="M3.57422 32.7243L4.11439 31.1436H4.3769L4.91707 32.7243H4.6922L4.54686 32.2826H3.93466L3.78931 32.7243H3.57422ZM4.48787 32.1032L4.24035 31.3578L3.99397 32.1032H4.48787Z" fill="#22297C"/>
<path d="M6.50506 32.7243H5.57642V31.1436H5.78955V32.5376H6.50522V32.7243H6.50506Z" fill="#22297C"/>
<path d="M7.68732 32.7551C7.57407 32.7551 7.47027 32.738 7.37641 32.7041C7.28239 32.6702 7.20173 32.6186 7.13427 32.5492C7.06681 32.4791 7.01516 32.3924 6.97931 32.2889C6.94346 32.1856 6.92554 32.0668 6.92554 31.9323C6.92554 31.805 6.94362 31.6909 6.9798 31.5899C7.01597 31.489 7.06779 31.403 7.13525 31.3313C7.20043 31.2619 7.28093 31.2084 7.37625 31.1711C7.47158 31.1336 7.57603 31.1147 7.68927 31.1147C7.74321 31.1147 7.7947 31.1187 7.84424 31.1263C7.89377 31.1343 7.94103 31.1447 7.98633 31.1583C8.02218 31.1688 8.06226 31.1835 8.10626 31.2024C8.15042 31.2211 8.1861 31.2373 8.21331 31.2506V31.5045H8.19506C8.1685 31.4811 8.14113 31.4591 8.11278 31.4382C8.08442 31.4173 8.0445 31.3947 7.99285 31.3707C7.94983 31.3496 7.90029 31.3318 7.84424 31.3178C7.78835 31.3034 7.72806 31.2964 7.66353 31.2964C7.50922 31.2964 7.38472 31.3538 7.28956 31.4685C7.1944 31.5832 7.14698 31.7357 7.14698 31.9261C7.14698 32.0323 7.15953 32.125 7.18462 32.2042C7.20972 32.2836 7.24589 32.3509 7.29331 32.4059C7.33926 32.4605 7.39466 32.5021 7.45968 32.5308C7.5247 32.5594 7.59753 32.5738 7.67868 32.5738C7.73897 32.5738 7.79878 32.5697 7.85841 32.5611C7.91789 32.5526 7.96808 32.5399 8.00898 32.5229V32.1143H7.63892V31.9293H8.22V32.6196C8.19278 32.6315 8.15628 32.6468 8.11082 32.665C8.06519 32.6834 8.02267 32.6979 7.98323 32.7087C7.93076 32.7243 7.88351 32.7359 7.84114 32.7437C7.79878 32.7516 7.74761 32.7551 7.68732 32.7551Z" fill="#22297C"/>
<path d="M9.25789 31.3305V31.7636H9.99295V31.9504H9.25789V32.5376H10.0467V32.7244H9.04492V31.1438H9.3568L9.51845 30.7998L9.65011 30.8818L9.51568 31.1438H10.0467V31.3305H9.25789Z" fill="#22297C"/>
<path d="M11.7526 32.7243H11.476L10.9681 32.0958H10.7249V32.7243H10.5117V31.1436H10.925C11.0167 31.1436 11.0938 31.1483 11.1559 31.1584C11.2179 31.1683 11.2769 31.1913 11.3328 31.2273C11.3887 31.2628 11.433 31.3085 11.4656 31.3643C11.4982 31.4202 11.5147 31.4897 11.5147 31.5724C11.5147 31.6885 11.4848 31.7856 11.4254 31.8633C11.3659 31.941 11.2847 31.9989 11.1821 32.0363L11.7526 32.7243ZM11.2919 31.5882C11.2919 31.5423 11.2836 31.5014 11.2671 31.4655C11.2505 31.4299 11.2251 31.4007 11.1907 31.378C11.1606 31.3583 11.1254 31.3443 11.0853 31.336C11.045 31.328 10.9952 31.3239 10.9357 31.3239H10.7249V31.9207H10.9121C10.973 31.9207 11.0279 31.9153 11.0767 31.9045C11.1254 31.8938 11.1671 31.8719 11.2015 31.8389C11.2323 31.8089 11.2551 31.7737 11.2698 31.7326C11.2846 31.6915 11.2919 31.6435 11.2919 31.5882Z" fill="#22297C"/>
<path d="M12.4153 32.7243H12.2031V32.563V31.3049L12.2039 31.1436H12.4179L12.4163 31.3049V32.563L12.4153 32.7243Z" fill="#22297C"/>
<path d="M13.1621 32.7243V31.1436H14.1639V31.3303H13.3751V31.7634H14.1101V31.9501H13.3751V32.5374H14.1639V32.7242H13.1621V32.7243Z" fill="#22297C"/>
<path d="M17.0547 31.5325C17.0547 31.6114 17.0396 31.6865 17.0093 31.7579C16.9786 31.8291 16.935 31.8886 16.8778 31.9365C16.8426 31.966 16.8041 31.9932 16.7622 32.0183C16.7202 32.0432 16.6738 32.0644 16.6231 32.082C16.5721 32.0994 16.5172 32.1131 16.4575 32.123C16.3979 32.133 16.3316 32.1377 16.2576 32.1377H15.9863V32.6916H15.4688V30.998H16.2687C16.3875 30.998 16.4901 31.007 16.5765 31.0248C16.6628 31.0425 16.741 31.0707 16.811 31.1097C16.8885 31.152 16.9485 31.2086 16.9908 31.2796C17.0335 31.3505 17.0547 31.4347 17.0547 31.5325ZM16.5235 31.5428C16.5235 31.495 16.5095 31.454 16.4818 31.4194C16.4541 31.3849 16.421 31.3614 16.3822 31.3482C16.3334 31.3309 16.2866 31.3208 16.2419 31.3181C16.1971 31.3153 16.1365 31.3142 16.0599 31.3142H15.9866V31.8214H16.0226C16.0715 31.8214 16.1176 31.8209 16.161 31.8201C16.2043 31.8195 16.2421 31.8167 16.2744 31.8121C16.3021 31.8084 16.3314 31.8011 16.3622 31.79C16.393 31.7789 16.4169 31.7665 16.4336 31.7528C16.4686 31.7248 16.4924 31.6956 16.5049 31.6653C16.5172 31.6353 16.5235 31.5943 16.5235 31.5428Z" fill="#22297C"/>
<path d="M19.3719 31.8454C19.3719 32.1192 19.2828 32.3344 19.1047 32.4913C18.9266 32.6484 18.6825 32.7266 18.3727 32.7266C18.0618 32.7266 17.8179 32.6474 17.6406 32.4886C17.4636 32.3295 17.375 32.1153 17.375 31.8454C17.375 31.5731 17.4636 31.358 17.6406 31.2C17.8179 31.0418 18.0618 30.9629 18.3727 30.9629C18.6825 30.9629 18.9266 31.0414 19.1047 31.1987C19.2828 31.3562 19.3719 31.5717 19.3719 31.8454ZM18.8376 31.8441C18.8376 31.7434 18.8251 31.6574 18.7998 31.5867C18.7744 31.5156 18.7405 31.4574 18.698 31.412C18.6538 31.3659 18.6038 31.3328 18.5479 31.3126C18.492 31.2925 18.4342 31.2824 18.3744 31.2824C18.3106 31.2824 18.253 31.2917 18.2011 31.3103C18.1497 31.3289 18.0998 31.362 18.0519 31.4097C18.0092 31.4537 17.975 31.5122 17.9487 31.5849C17.9223 31.6575 17.9093 31.7444 17.9093 31.8454C17.9093 31.9492 17.9217 32.0354 17.9466 32.1042C17.9716 32.1728 18.0058 32.2301 18.0491 32.2764C18.0933 32.3235 18.1436 32.3569 18.2 32.3771C18.2564 32.3972 18.3142 32.4073 18.3744 32.4073C18.4351 32.4073 18.4941 32.3965 18.5513 32.3748C18.6087 32.3533 18.6579 32.3198 18.6994 32.2743C18.7438 32.2249 18.7778 32.1677 18.8018 32.1021C18.8257 32.0362 18.8376 31.9505 18.8376 31.8441Z" fill="#22297C"/>
<path d="M20.4773 32.7222C20.3194 32.7222 20.1809 32.7099 20.0613 32.6848C19.942 32.6598 19.8308 32.6287 19.7285 32.5915V32.1889H19.7754C19.8789 32.2608 19.9928 32.3162 20.1173 32.3551C20.242 32.3936 20.3627 32.413 20.4799 32.413C20.5095 32.413 20.5485 32.4104 20.597 32.405C20.6454 32.3996 20.6842 32.3913 20.7139 32.3799C20.7499 32.3672 20.7803 32.3491 20.8053 32.3259C20.8302 32.3028 20.8426 32.2723 20.8426 32.2344C20.8426 32.1918 20.8224 32.1573 20.7816 32.1309C20.7411 32.1043 20.6927 32.0851 20.6365 32.0729C20.5661 32.0577 20.4913 32.0432 20.4114 32.0297C20.3316 32.016 20.2571 31.9992 20.188 31.9795C20.0285 31.9332 19.9139 31.8712 19.845 31.7929C19.7756 31.7149 19.7411 31.6171 19.7411 31.4995C19.7411 31.3409 19.8227 31.2127 19.986 31.1146C20.1492 31.0162 20.3533 30.9673 20.5977 30.9673C20.7204 30.9673 20.8424 30.9776 20.9637 30.9979C21.0849 31.0183 21.1934 31.0462 21.2896 31.081V31.4677H21.2439C21.1673 31.4138 21.0738 31.3683 20.9637 31.3311C20.8533 31.294 20.7403 31.2754 20.6239 31.2754C20.5788 31.2754 20.5382 31.2782 20.5022 31.2834C20.4662 31.2886 20.4284 31.2989 20.3886 31.314C20.3565 31.3261 20.3285 31.3443 20.3049 31.3681C20.2814 31.3919 20.2697 31.4188 20.2697 31.4483C20.2697 31.4915 20.2882 31.5257 20.3257 31.5511C20.3632 31.5765 20.4354 31.5995 20.5423 31.6199C20.6115 31.6329 20.6782 31.6453 20.7422 31.6574C20.8066 31.6694 20.8749 31.6864 20.9479 31.7076C21.0908 31.7501 21.197 31.807 21.2667 31.8787C21.3365 31.9503 21.3714 32.045 21.3714 32.1625C21.3714 32.3308 21.2909 32.4661 21.13 32.5684C20.9687 32.6709 20.7512 32.7222 20.4773 32.7222Z" fill="#22297C"/>
<path d="M22.1928 32.6914V31.321H21.584V30.998H23.3192V31.321H22.7104V32.6914H22.1928Z" fill="#22297C"/>
<path d="M23.6953 32.6916V30.998H25.0888V31.321H24.2101V31.6177H25.0196V31.9407H24.2101V32.3683H25.0888V32.6912H23.6953V32.6916Z" fill="#22297C"/>
</g>
<defs>
<clipPath id="clip0_263_6832">
<rect width="28" height="33.4043" fill="white" transform="translate(0 0.227051)"/>
</clipPath>
</defs>
</svg>
