<svg width="328" height="203" viewBox="0 0 328 203" fill="none" xmlns="http://www.w3.org/2000/svg">
<g style="mix-blend-mode:luminosity" opacity="0.7">
<path d="M138.111 16.1651C153.273 24.2752 159.268 30.9748 162.088 47.5475C173.725 47.5475 211.291 45.8924 221.634 46.3332V37.4105C232.903 37.1329 263.46 37.4105 263.46 37.4105V49.1223L288.027 53.8403V36.3954L320.106 39.0348L323.654 50.8108L321.998 99.3814L313.535 96.0875H286.264V110.3H307.721V175.325H257.572L258.181 185.23H236.253V175.325H147.455L147.631 149.805C110.431 229.848 48.9001 191.413 43.4347 176.251C25.9804 182.421 13.105 178.243 5 159.678C13.3666 151.446 18.4969 148.182 30.7405 151.921C27.6911 141.763 32.3815 134.302 40.0848 126.356C64.7677 135.171 61.0652 161.67 55.2471 163.38C85.2191 169.198 86.0952 145.685 86.8059 124.593C70.9386 119.7 64.8636 114.877 55.2471 105.376L47.3134 112.252C37.847 110.447 35.3307 107.892 36.3824 100.263L65.4729 73.1119C65.4729 73.1119 64.8813 72.2945 63.1809 68.1753C57.8629 52.1508 59.1266 43.3481 68.4787 31.6133C70.834 28.658 73.7484 26.1659 77.0548 24.3359C86.7079 18.9933 93.8571 18.1827 105.847 20.2201L126.298 12.9916L135.444 4.35447C135.606 4.20129 135.873 4.28809 135.914 4.50732L138.111 16.1651Z" fill="white"/>
<path d="M59.0214 162.203C59.636 161.175 60.134 159.938 60.5047 158.577C61.3571 155.447 61.599 151.433 60.8389 147.22C59.3057 138.721 53.6716 129.336 40.6778 124.696L39.609 124.314L38.819 125.129C34.9226 129.148 31.6411 133.188 29.7578 137.619C28.2002 141.285 27.6201 145.167 28.3475 149.443C23.4258 148.283 19.4783 148.345 15.8236 149.65C11.5615 151.171 7.94424 154.308 3.76345 158.421L2.89895 159.272L3.38422 160.383C7.54946 169.924 13.0675 176.05 20.0503 178.875C26.6119 181.528 34.1483 181.136 42.4834 178.435C43.4235 180.22 44.8759 182.111 46.6905 183.979C49.0774 186.437 52.1869 188.955 55.85 191.263C63.1712 195.875 72.8128 199.715 83.5052 200.488C94.2245 201.264 105.97 198.953 117.406 191.303C127.468 184.571 137.211 173.759 145.815 157.446L145.692 175.313L145.68 177.088H147.455H234.49V185.23V186.993H236.253H258.181H260.056L259.94 185.122L259.446 177.088H307.721H309.484V175.325V110.3V108.537H307.721H288.027V97.8505H313.204L321.358 101.024L323.675 101.926L323.76 99.4415L325.416 50.8709L325.426 50.5805L325.342 50.3022L321.794 38.5262L321.448 37.3762L320.251 37.2777L288.171 34.6382L286.264 34.4813V36.3954V51.7064L265.223 47.6656V37.4105V35.6634L263.476 35.6475L263.46 37.4105C263.476 35.6475 263.476 35.6475 263.475 35.6475L263.474 35.6475L263.47 35.6475L263.453 35.6473L263.387 35.6467L263.129 35.6445L262.139 35.6361C261.281 35.6291 260.043 35.6193 258.522 35.6085C255.48 35.5868 251.306 35.5607 246.779 35.5434C237.737 35.5087 227.255 35.5085 221.591 35.648L219.871 35.6904V37.4105V44.5189C213.965 44.412 203.148 44.6921 192.294 45.0128C190.007 45.0804 187.716 45.1498 185.466 45.2181C176.685 45.4843 168.52 45.7319 163.562 45.7771C162.112 38.0793 159.871 32.3668 156.113 27.5924C152.27 22.709 146.954 18.9554 139.688 15.012L137.647 4.1809C137.348 2.5915 135.409 1.96215 134.233 3.0727L125.359 11.4537L105.689 18.4059C99.8123 17.4324 94.9594 17.1299 90.3352 17.7637C85.5739 18.4164 81.1648 20.0461 76.2011 22.7934C72.6862 24.7387 69.595 27.3837 67.1 30.5145C62.3149 36.5187 59.4649 41.9403 58.5836 48.0333C57.7064 54.0978 58.8124 60.6095 61.5076 68.7306L61.5273 68.7901L61.5512 68.848C62.3323 70.74 62.891 71.9655 63.2757 72.7508L35.1795 98.974L34.7214 99.4015L34.6359 100.022C34.0905 103.978 34.3721 107.219 36.6091 109.638C38.721 111.923 42.258 113.083 46.9832 113.984L47.8225 114.144L48.4681 113.584L55.1722 107.774C59.4959 111.995 63.2616 115.341 67.7333 118.198C72.3466 121.145 77.6443 123.529 84.9982 125.874C84.8309 130.721 84.6252 135.583 84.041 140.146C83.4021 145.136 82.3245 149.636 80.4357 153.264C78.5682 156.851 75.9197 159.569 72.0703 161.103C68.8193 162.397 64.5807 162.898 59.0214 162.203Z" stroke="white" stroke-opacity="0.1" stroke-width="3.52612"/>
<path d="M138.111 16.1651C153.273 24.2752 159.268 29.5643 162.088 46.1371C173.725 46.1371 211.291 44.482 221.635 44.9228V37.4105C232.903 37.1329 263.46 37.4105 263.46 37.4105V47.3592L288.027 52.0772V36.3954L320.106 39.0348L323.301 50.8108L321.645 98.8525L312.83 96.0875H288.027V110.3H307.721V174.62H257.572L258.181 184.525H236.253V174.62H147.631L146.926 151.921C107.963 227.203 48.9001 191.413 43.4347 176.251C25.9804 182.421 13.105 178.243 5 159.678C13.3666 151.446 18.4969 148.182 30.7405 151.921C27.6911 141.763 32.3815 134.302 40.0848 126.356C64.7677 135.172 61.0652 161.67 55.2471 163.38C85.2191 169.199 86.0952 145.685 86.8059 124.593C70.9386 119.7 64.8636 114.877 55.2471 105.376L47.3134 112.252C37.847 110.447 35.3307 107.892 36.3824 100.263L65.4729 73.1119C65.4729 73.1119 64.8813 72.2945 63.1809 68.1753C57.8629 52.1509 59.1266 43.3481 68.4787 31.6133C70.834 28.658 73.7484 26.1659 77.0548 24.3359C86.7079 18.9933 93.8571 18.1827 105.847 20.2201L126.298 12.9916L135.444 4.35447C135.606 4.20129 135.873 4.28809 135.914 4.50732L138.111 16.1651Z" fill="#012246"/>
<path d="M59.0214 162.203C59.636 161.175 60.134 159.938 60.5047 158.577C61.3571 155.447 61.599 151.433 60.8389 147.22C59.3057 138.721 53.6716 129.337 40.6778 124.696L39.609 124.314L38.819 125.129C34.9226 129.148 31.6412 133.188 29.7578 137.619C28.2002 141.285 27.6201 145.167 28.3475 149.443C23.4258 148.283 19.4783 148.345 15.8236 149.65C11.5615 151.171 7.94424 154.308 3.76345 158.421L2.89895 159.272L3.38422 160.383C7.54946 169.924 13.0675 176.05 20.0503 178.875C26.6113 181.528 34.1469 181.136 42.4811 178.435C43.4062 180.202 44.8209 182.053 46.5871 183.874C48.9125 186.271 51.9354 188.707 55.4989 190.928C62.6223 195.37 72.0092 199.022 82.4946 199.761C93.0032 200.502 104.587 198.313 116.026 191.106C126.26 184.658 136.304 174.242 145.366 158.466L145.869 174.674L145.922 176.383H147.631H234.49V184.525V186.288H236.253H258.181H260.056L259.94 184.417L259.446 176.383H307.721H309.484V174.62V110.3V108.537H307.721H289.79V97.8505H312.56L321.118 100.535L323.327 101.228L323.407 98.9133L325.063 50.8716L325.072 50.6058L325.003 50.3492L321.808 38.5731L321.484 37.3791L320.251 37.2777L288.171 34.6382L286.264 34.4813V36.3954V49.9434L265.223 45.9025V37.4105V35.6634L263.476 35.6475L263.46 37.4105C263.476 35.6475 263.476 35.6475 263.475 35.6475L263.474 35.6475L263.47 35.6475L263.453 35.6473L263.387 35.6468L263.129 35.6445L262.139 35.6361C261.281 35.6291 260.043 35.6193 258.522 35.6085C255.48 35.5868 251.306 35.5607 246.779 35.5434C237.737 35.5087 227.255 35.5085 221.591 35.648L219.871 35.6904V37.4105V43.1084C213.965 43.0015 203.148 43.2817 192.294 43.6024C190.007 43.6699 187.716 43.7394 185.466 43.8076C176.685 44.0739 168.519 44.3214 163.562 44.3667C162.109 36.6955 159.859 31.2918 156.071 26.8357C152.221 22.3065 146.899 18.9023 139.687 15.0107L137.647 4.1809C137.348 2.5915 135.409 1.96215 134.233 3.0727L125.359 11.4537L105.689 18.406C99.8123 17.4324 94.9595 17.1299 90.3352 17.7638C85.5739 18.4164 81.1648 20.0461 76.2011 22.7934C72.6862 24.7387 69.595 27.3838 67.1 30.5145C62.3149 36.5187 59.4649 41.9403 58.5836 48.0333C57.7064 54.0978 58.8124 60.6095 61.5076 68.7306L61.5273 68.7901L61.5512 68.848C62.3323 70.74 62.891 71.9655 63.2757 72.7509L35.1795 98.9741L34.7214 99.4016L34.6359 100.022C34.0905 103.978 34.3721 107.219 36.6091 109.638C38.721 111.923 42.258 113.083 46.9832 113.984L47.8225 114.144L48.4681 113.584L55.1722 107.774C59.4959 111.995 63.2616 115.341 67.7333 118.198C72.3466 121.145 77.6443 123.529 84.9982 125.874C84.8309 130.721 84.6252 135.583 84.041 140.146C83.4021 145.136 82.3245 149.636 80.4357 153.264C78.5682 156.851 75.9197 159.569 72.0703 161.103C68.8193 162.397 64.5807 162.898 59.0214 162.203Z" stroke="white" stroke-opacity="0.1" stroke-width="3.52612"/>
<path d="M306.741 40.6592L315.525 41.9141L316.78 50.6983H306.741V40.6592Z" fill="white"/>
<path d="M315.142 42.2971L316.281 50.265H307.175V41.1589L315.142 42.2971Z" stroke="white" stroke-opacity="0.1" stroke-width="0.866788"/>
<path d="M306.741 40.6592V45.6788L308.624 42.5415L315.525 41.9141L306.741 40.6592Z" fill="#012246" fill-opacity="0.3"/>
<path d="M308.609 42.3798L308.527 42.3872L308.484 42.458L306.904 45.0923V40.8465L314.126 41.8782L308.609 42.3798Z" stroke="white" stroke-opacity="0.1" stroke-width="0.324855"/>
<path d="M184.089 93.9668L192.873 95.2217L194.128 104.006H184.089V93.9668Z" fill="white"/>
<path d="M192.49 95.6048L193.628 103.573H184.522V94.4665L192.49 95.6048Z" stroke="white" stroke-opacity="0.1" stroke-width="0.866788"/>
<path d="M184.089 93.9668V98.9864L185.971 95.8491L192.873 95.2217L184.089 93.9668Z" fill="#012246" fill-opacity="0.3"/>
<path d="M185.957 95.6874L185.874 95.6948L185.832 95.7656L184.251 98.4V94.1541L191.474 95.1858L185.957 95.6874Z" stroke="white" stroke-opacity="0.1" stroke-width="0.324855"/>
<path d="M295.039 40.6592L303.823 41.9141L305.078 50.6983H295.039V40.6592Z" fill="white"/>
<path d="M303.44 42.2971L304.579 50.265H295.472V41.1589L303.44 42.2971Z" stroke="white" stroke-opacity="0.1" stroke-width="0.866788"/>
<path d="M295.039 40.6592V45.6788L296.921 42.5415L303.823 41.9141L295.039 40.6592Z" fill="#012246" fill-opacity="0.3"/>
<path d="M296.907 42.3798L296.825 42.3872L296.782 42.458L295.201 45.0923V40.8465L302.424 41.8782L296.907 42.3798Z" stroke="white" stroke-opacity="0.1" stroke-width="0.324855"/>
<path d="M172.387 93.9668L181.171 95.2217L182.426 104.006H172.387V93.9668Z" fill="white"/>
<path d="M180.788 95.6048L181.926 103.573H172.82V94.4665L180.788 95.6048Z" stroke="white" stroke-opacity="0.1" stroke-width="0.866788"/>
<path d="M172.387 93.9668V98.9864L174.269 95.8491L181.171 95.2217L172.387 93.9668Z" fill="#012246" fill-opacity="0.3"/>
<path d="M174.254 95.6874L174.172 95.6948L174.13 95.7656L172.549 98.4V94.1541L179.771 95.1858L174.254 95.6874Z" stroke="white" stroke-opacity="0.1" stroke-width="0.324855"/>
<path d="M316.55 91.0952L312.83 89.3487H295.594V79.1392H305.982V56.9292H316.64L316.55 91.0952Z" fill="white"/>
<path d="M316.366 91.4875L316.982 91.7765L316.983 91.0963L317.073 56.9303L317.074 56.4958H316.64H305.982H305.549V56.9292V78.7058H295.594H295.16V79.1392V89.3487V89.7821H295.594H312.733L316.366 91.4875Z" stroke="white" stroke-opacity="0.1" stroke-width="0.866788"/>
<path d="M301.5 79.1387V89.3482H255.199V79.1387H283.986L279.002 68.1792L263.833 65.3621V56.4775L288.537 60.8115L294.335 79.1387H301.5Z" fill="white"/>
<path d="M301.933 79.1387V78.7053H301.5H294.653L288.95 60.6807L288.871 60.43L288.612 60.3846L263.908 56.0507L263.4 55.9615V56.4775V65.3621V65.7224L263.754 65.7882L278.701 68.5641L283.313 78.7053H255.199H254.766V79.1387V89.3482V89.7816H255.199H301.5H301.933V89.3482V79.1387Z" stroke="white" stroke-opacity="0.1" stroke-width="0.866788"/>
<path d="M288.368 60.5928L264.07 56.3291L286.404 62.4201L291.886 70.1354L288.368 60.5928Z" fill="#012246" fill-opacity="0.3" stroke="white" stroke-opacity="0.1" stroke-width="0.864926"/>
<path d="M255.368 79.1391H262.801V89.3486H226.173V79.1391H245.159V53.4951H230.507V43.2856H255.368V79.1391Z" fill="white"/>
<path d="M263.235 79.1391V78.7057H262.801H255.802V43.2856V42.8523H255.368H230.507H230.073V43.2856V53.4951V53.9285H230.507H244.725V78.7057H226.173H225.739V79.1391V89.3486V89.7819H226.173H262.801H263.235V89.3486V79.1391Z" stroke="white" stroke-opacity="0.1" stroke-width="0.866788"/>
<path d="M216.856 56.3916V89.3484H206.378V67.3175H199.482V89.3484H171.093V56.3916H181.571V79.139H188.915V56.3916H216.856Z" fill="white"/>
<path d="M217.29 56.3916V55.9582H216.856H188.915H188.481V56.3916V78.7056H182.004V56.3916V55.9582H181.571H171.093H170.659V56.3916V89.3484V89.7818H171.093H199.482H199.916V89.3484V67.7509H205.945V89.3484V89.7818H206.378H216.856H217.29V89.3484V56.3916Z" stroke="white" stroke-opacity="0.1" stroke-width="0.866788"/>
<path d="M216.772 56.5317V65.0966L214.742 59.1712L204.782 56.5317H216.772Z" fill="#012246" fill-opacity="0.3"/>
<path d="M214.888 58.6192L215.183 58.6974L215.282 58.9861L216.201 61.6687V57.1027H209.166L214.888 58.6192Z" stroke="white" stroke-opacity="0.1" stroke-width="1.14198"/>
<path d="M255.788 42.9517H231.085L253.51 45.3655L255.788 52.2696V42.9517Z" fill="#012246" fill-opacity="0.3"/>
<path d="M316.492 88.9825V75.0083L314.625 86.9873L302.646 88.9825H316.492Z" fill="#012147" fill-opacity="0.3" stroke="white" stroke-opacity="0.1" stroke-width="0.324855"/>
<path d="M298.969 114.313V166.76H288.213V114.313H298.969Z" fill="white"/>
<path d="M298.565 114.716V166.357H288.616V114.716H298.565Z" stroke="white" stroke-opacity="0.1" stroke-width="0.80701"/>
<path d="M298.801 114.6V123.165L297.165 116.224L289.043 114.6H298.801Z" fill="#012246" fill-opacity="0.3"/>
<path d="M297.277 115.664L297.636 115.736L297.72 116.093L298.23 118.254V115.171H294.81L297.277 115.664Z" stroke="white" stroke-opacity="0.1" stroke-width="1.14198"/>
<path d="M298.969 114.313V166.76H288.213V114.313H298.969Z" stroke="white" stroke-opacity="0.1" stroke-width="0.80701"/>
<path d="M270.089 156.626V99.6865H280.934V166.76H261.645V156.626H270.089Z" fill="white"/>
<path d="M270.089 157.029H270.493V156.626V100.09H280.531V166.357H262.048V157.029H270.089Z" stroke="white" stroke-opacity="0.1" stroke-width="0.80701"/>
<path d="M270.089 156.626V99.6865H280.934V166.76H261.645V156.626H270.089Z" stroke="white" stroke-opacity="0.1" stroke-width="0.80701"/>
<path d="M266.975 156.626V166.76H241.106V156.626H248.752V134.58C248.752 134.403 259.33 134.491 259.33 134.669V156.626H266.975Z" fill="white"/>
<path d="M259.33 157.029H266.571V166.357H241.51V157.029H248.752H249.156V156.626V134.932C249.178 134.931 249.202 134.93 249.226 134.929C249.509 134.915 249.916 134.905 250.411 134.898C251.398 134.884 252.717 134.884 254.038 134.895C255.358 134.906 256.678 134.928 257.665 134.959C258.16 134.974 258.567 134.991 258.849 135.01C258.877 135.011 258.902 135.013 258.927 135.015V156.626V157.029H259.33Z" stroke="white" stroke-opacity="0.1" stroke-width="0.80701"/>
<path d="M266.975 156.626V166.76H241.106V156.626H248.752V134.58C248.752 134.403 259.33 134.491 259.33 134.669V156.626H266.975Z" stroke="white" stroke-opacity="0.1" stroke-width="0.80701"/>
<path d="M246.27 156.626V166.76H227.779V113.957H238.536L238.358 156.626H246.27Z" fill="white"/>
<path d="M238.358 157.029H245.866V166.356H228.183V114.361H238.131L237.954 156.624L237.952 157.029H238.358Z" stroke="white" stroke-opacity="0.1" stroke-width="0.80701"/>
<path d="M246.27 156.626V166.76H227.779V113.957H238.536L238.358 156.626H246.27Z" stroke="white" stroke-opacity="0.1" stroke-width="0.80701"/>
<path d="M220.977 166.76H157.009V140.665L167.765 134.292V156.626H210.398V97.8042H220.977H222.882V106.338H220.977V166.76Z" fill="white"/>
<path d="M157.412 140.895L167.361 135V156.626V157.03H167.765H210.398H210.801V156.626V98.2077H220.977H222.478V105.934H220.977H220.574V106.338V166.357H157.412V140.895Z" stroke="white" stroke-opacity="0.1" stroke-width="0.80701"/>
<path d="M157.273 140.589V149.154L158.898 141.604L167.628 134.701L157.273 140.589Z" fill="#012246" fill-opacity="0.3"/>
<path d="M158.544 141.156L158.383 141.283L158.339 141.484L157.844 143.785V140.921L161.393 138.903L158.544 141.156Z" stroke="white" stroke-opacity="0.1" stroke-width="1.14198"/>
<path d="M228.102 114.625H238.38L230.957 117.48L228.102 124.903V114.625Z" fill="#012246" fill-opacity="0.3"/>
<path d="M230.424 117.275L230.515 117.038L230.752 116.947L235.305 115.196H228.673V121.828L230.424 117.275Z" stroke="white" stroke-opacity="0.1" stroke-width="1.14198"/>
<path d="M210.874 98.3574V106.922L212.904 100.997L222.865 98.3574H210.874Z" fill="#012246" fill-opacity="0.3"/>
<path d="M212.758 100.445L212.463 100.523L212.364 100.812L211.445 103.494V98.9284H218.481L212.758 100.445Z" stroke="white" stroke-opacity="0.1" stroke-width="1.14198"/>
<path d="M220.977 166.76H157.009V140.47L167.765 134.292V156.626H210.398V97.8042H220.977H222.882V106.338H220.977V166.76Z" stroke="white" stroke-opacity="0.1" stroke-width="0.80701"/>
<path d="M190.571 139.776H199.389V147.615L191.603 147.342L190.571 139.776Z" fill="white"/>
<path d="M192.207 146.674L191.36 140.465H198.701V146.901L192.207 146.674Z" stroke="white" stroke-opacity="0.1" stroke-width="1.37772"/>
<path d="M190.978 140.182L191.587 144.446L193.136 141.529L199.099 140.182H190.978Z" fill="#012246" fill-opacity="0.3"/>
<path d="M193.127 141.489L193.109 141.493L193.1 141.51L191.609 144.317L191.024 140.223H198.735L193.127 141.489Z" stroke="white" stroke-opacity="0.1" stroke-width="0.0812137"/>
<path d="M199.291 122.481L188.82 122.517V117.464H199.006V109.485H181.279V130.496H190.597V136.746L199.291 136.711V122.481Z" fill="white"/>
<path d="M188.822 123.004L198.804 122.969V136.226L191.084 136.257V130.496V130.009H190.597H181.766V109.972H198.519V116.977H188.82H188.333V117.464V122.517V123.006L188.822 123.004Z" stroke="white" stroke-opacity="0.1" stroke-width="0.973604"/>
<path d="M181.903 110.353V117.205L183.616 112.066L189.897 110.353H181.903Z" fill="#012246" fill-opacity="0.3"/>
<path d="M183.466 111.515L183.171 111.596L183.075 111.885L182.474 113.686V110.924H185.633L183.466 111.515Z" stroke="white" stroke-opacity="0.1" stroke-width="1.14198"/>
<path d="M242.083 171.411L250.261 172.579L251.43 180.757H242.083V171.411Z" fill="white"/>
<path d="M249.905 172.936L250.965 180.354H242.487V171.876L249.905 172.936Z" stroke="white" stroke-opacity="0.1" stroke-width="0.80701"/>
<path d="M242.083 171.411V176.084L243.836 173.163L250.261 172.579L242.083 171.411Z" fill="#012246" fill-opacity="0.3"/>
<path d="M243.821 173.001L243.739 173.009L243.696 173.08L242.245 175.498V171.598L248.862 172.543L243.821 173.001Z" stroke="white" stroke-opacity="0.1" stroke-width="0.324855"/>
<path d="M280.972 166.602V136.541L278.35 163.576L251.92 166.602H280.972Z" fill="white" fill-opacity="0.4" stroke="white" stroke-opacity="0.1" stroke-width="0.80701"/>
<path d="M220.446 166.602V136.541L217.823 163.576L191.394 166.602H220.446Z" fill="white" fill-opacity="0.4" stroke="white" stroke-opacity="0.1" stroke-width="0.80701"/>
<path d="M147.06 115.016C161.881 123.099 143.019 127.686 140.11 133.551C138.921 135.926 139.483 136.56 146.854 135.765C172.611 133.016 180.457 106.024 153.07 95.3078C137.932 89.4087 143.437 113.052 147.06 115.016Z" fill="#51AEE0"/>
<path d="M147.152 114.846L147.153 114.846C150.863 116.87 152.54 118.711 152.826 120.466C153.114 122.232 151.981 123.809 150.363 125.259C149.158 126.338 147.643 127.382 146.153 128.408C145.634 128.766 145.118 129.121 144.619 129.475C143.648 130.164 142.739 130.85 141.983 131.545C141.225 132.24 140.632 132.934 140.283 133.637L140.283 133.638C139.985 134.233 139.818 134.68 139.819 135.01C139.819 135.167 139.858 135.289 139.932 135.388C140.009 135.491 140.136 135.586 140.342 135.666C140.762 135.83 141.453 135.91 142.521 135.895C143.583 135.88 144.993 135.771 146.834 135.572L146.834 135.572C159.652 134.205 167.966 126.813 169.702 118.485C171.435 110.174 166.636 100.823 153 95.4878C149.248 94.0257 146.844 94.4186 145.366 95.7652C143.87 97.1273 143.255 99.5214 143.223 102.215C143.192 104.9 143.742 107.834 144.526 110.218C144.917 111.41 145.366 112.459 145.825 113.268C146.29 114.085 146.75 114.628 147.152 114.846Z" stroke="white" stroke-opacity="0.1" stroke-width="0.386534"/>
<g opacity="0.6">
<path d="M147.06 115.016C144.507 113.655 142.192 104.242 143.77 98.9141C152.037 103.985 157.849 112.518 154.219 121.15C152.758 124.78 148.174 126.92 146.158 130.266C145.288 131.7 144.991 133.652 146.401 134.364C147.086 134.79 147.801 135.179 148.545 135.532C147.994 135.611 147.43 135.688 146.854 135.765C139.483 136.56 138.959 135.929 140.11 133.551C142.942 127.679 161.88 123.099 147.06 115.016Z" fill="#1C7FB3"/>
<path d="M147.151 114.846L147.151 114.846L147.152 114.847C150.863 116.87 152.535 118.711 152.815 120.466C153.097 122.231 151.956 123.808 150.333 125.257C149.135 126.326 147.634 127.36 146.157 128.379C145.625 128.745 145.097 129.109 144.587 129.472C143.617 130.161 142.711 130.848 141.961 131.542C141.209 132.238 140.623 132.932 140.284 133.635L140.284 133.635C139.995 134.232 139.833 134.68 139.835 135.011C139.836 135.168 139.874 135.29 139.949 135.39C140.025 135.492 140.152 135.588 140.357 135.668C140.773 135.831 141.461 135.911 142.526 135.895C143.584 135.88 144.991 135.771 146.831 135.573C147.191 135.525 147.546 135.477 147.896 135.428C147.35 135.15 146.82 134.851 146.306 134.533C145.523 134.133 145.224 133.388 145.231 132.584C145.238 131.784 145.545 130.904 145.992 130.166C146.916 128.634 148.366 127.352 149.79 126.094C149.95 125.952 150.11 125.811 150.268 125.67C151.852 124.26 153.328 122.845 154.039 121.078L154.039 121.078L154.041 121.075C155.829 116.821 155.295 112.591 153.285 108.787C151.308 105.046 147.904 101.721 143.887 99.2134C143.191 101.812 143.379 105.335 144.055 108.411C144.403 109.995 144.878 111.451 145.421 112.592C145.97 113.743 146.571 114.536 147.151 114.846Z" stroke="white" stroke-opacity="0.1" stroke-width="0.386534"/>
</g>
<path d="M159.087 102.035C160.744 103.003 162.304 104.195 163.527 105.666C164.578 106.889 165.741 108.588 165.589 110.243C165.532 110.858 164.93 111.075 164.461 110.682C163.343 109.764 162.624 108.3 161.677 107.203C160.59 105.939 159.286 104.926 157.849 104.094C156.485 103.309 157.727 101.211 159.087 102.035Z" fill="#A8E1FF"/>
<path d="M158.989 102.202L158.989 102.202L158.987 102.2C158.693 102.022 158.418 102.007 158.188 102.082C157.952 102.159 157.747 102.334 157.612 102.56C157.478 102.785 157.421 103.048 157.466 103.29C157.509 103.527 157.652 103.758 157.945 103.927L157.946 103.927C159.398 104.767 160.72 105.793 161.823 107.077C162.193 107.506 162.53 107.991 162.862 108.469C162.962 108.613 163.062 108.757 163.162 108.898C163.599 109.514 164.046 110.091 164.584 110.533L164.584 110.533L164.585 110.534C164.774 110.692 164.97 110.713 165.111 110.66C165.249 110.607 165.374 110.469 165.396 110.225C165.468 109.448 165.231 108.647 164.837 107.881C164.444 107.115 163.901 106.398 163.38 105.792L163.38 105.792L163.378 105.79C162.173 104.34 160.634 103.162 158.989 102.202Z" stroke="white" stroke-opacity="0.1" stroke-width="0.386534"/>
<path d="M166.926 114.248C167.246 115.83 167.503 117.678 166.598 119.07C166.332 119.433 165.674 119.411 165.601 118.939C165.305 117.514 165.633 116.069 165.456 114.617C165.349 113.675 166.746 113.261 166.926 114.248Z" fill="#A8E1FF"/>
<path d="M166.737 114.286L166.737 114.286L166.736 114.283C166.7 114.085 166.609 113.98 166.512 113.926C166.41 113.87 166.275 113.857 166.134 113.896C165.849 113.973 165.608 114.237 165.648 114.594C165.729 115.26 165.706 115.924 165.685 116.568C165.682 116.644 165.679 116.719 165.677 116.794C165.654 117.515 165.647 118.212 165.79 118.9L165.79 118.9L165.792 118.91C165.812 119.038 165.904 119.112 166.045 119.125C166.191 119.139 166.351 119.077 166.439 118.959C166.863 118.306 167.019 117.538 167.028 116.728C167.037 115.916 166.896 115.075 166.737 114.286Z" stroke="white" stroke-opacity="0.1" stroke-width="0.386534"/>
<path d="M79.526 189.838C131.621 191.926 145.257 134.569 150.451 96.7743C151.158 91.6379 151.675 86.8722 152.142 82.6454C152.574 78.8035 152.925 75.42 153.258 72.6558C153.258 72.6558 118.992 61.1882 98.6546 75.4604C96.1221 77.2453 93.785 79.4365 91.7938 82.0865C91.799 83.4326 91.8183 84.7671 91.8515 86.09C92.7181 158.759 89.0448 181.749 50.4824 166.78C33.8052 160.312 56.0104 188.911 79.526 189.838Z" fill="#51AEE0"/>
<path d="M79.5336 189.645L79.5337 189.645C105.489 190.685 121.862 176.926 132.408 158.167C142.959 139.398 147.663 115.641 150.259 96.7479L150.259 96.7479C150.922 91.9328 151.418 87.4435 151.863 83.4164C151.892 83.1503 151.921 82.8862 151.95 82.6242L151.95 82.6238C152.116 81.1448 152.271 79.7329 152.417 78.3978C152.643 76.3329 152.848 74.4517 153.047 72.7903C152.986 72.7706 152.907 72.7453 152.81 72.7148C152.555 72.6347 152.178 72.5189 151.691 72.3764C150.717 72.0915 149.302 71.7001 147.541 71.2748C144.017 70.4243 139.107 69.4387 133.564 68.8984C122.468 67.8168 108.876 68.5232 98.7659 75.6184C96.2651 77.381 93.957 79.5413 91.9873 82.1508C91.9929 83.4735 92.012 84.785 92.0447 86.0851L92.0448 86.0877C92.2614 104.255 92.1945 119.324 91.3689 131.473C90.5435 143.618 88.959 152.864 86.1301 159.376C83.2967 165.898 79.206 169.694 73.3757 170.895C67.5657 172.093 60.062 170.706 50.4124 166.96C48.3334 166.154 46.8987 165.911 46.0109 166.066C45.5734 166.142 45.2848 166.313 45.1083 166.544C44.9309 166.776 44.8466 167.097 44.8708 167.512C44.9198 168.353 45.4089 169.514 46.3045 170.883C47.1957 172.246 48.4742 173.792 50.0691 175.4C56.4561 181.838 67.8427 189.184 79.5336 189.645Z" stroke="white" stroke-opacity="0.1" stroke-width="0.386534"/>
<path d="M139.43 83.2586C139.174 110.446 129.964 155.168 106.965 170.942C83.9629 186.754 77.3784 180.285 88.3117 161.069C99.7009 141.12 96.3308 104.01 93.5446 85.8193C90.7236 67.5866 139.43 83.2586 139.43 83.2586Z" fill="#A8E1FF"/>
<path d="M106.856 170.782L106.856 170.782C118.301 162.933 126.336 147.86 131.542 131.322C136.727 114.849 139.092 96.9587 139.235 83.3995L139.232 83.3985C139.141 83.3695 139.004 83.3267 138.827 83.2717C138.471 83.1615 137.95 83.0023 137.288 82.8061C135.963 82.4137 134.074 81.8733 131.815 81.2817C127.296 80.0983 121.304 78.7111 115.403 77.8931C109.495 77.0742 103.703 76.8298 99.5732 77.9142C97.5098 78.4559 95.8828 79.3238 94.8568 80.5958C93.8357 81.8617 93.3896 83.5531 93.7356 85.7897L93.7357 85.79C95.1297 94.8917 96.6703 108.728 96.4372 122.788C96.2042 136.841 94.1992 151.146 88.4795 161.165C85.7507 165.961 84.1243 169.946 83.5692 172.977C83.0121 176.018 83.5434 178.024 85.0176 178.979C86.5126 179.947 89.0702 179.904 92.7439 178.59C96.4028 177.281 101.112 174.731 106.856 170.782Z" stroke="white" stroke-opacity="0.1" stroke-width="0.386534"/>
<g opacity="0.6">
<path d="M91.7933 82.0861C91.7985 83.4323 91.8177 84.7668 91.851 86.0897C96.9305 95.4086 105.971 102.608 116.295 105.152C128.14 108.03 141.254 104.737 150.45 96.7739C151.157 91.6376 151.674 86.8719 152.142 82.6451C150.44 83.4197 148.394 84.9778 147.121 84.4722C131.882 77.9815 115.228 75.4749 98.6541 75.4601C96.1216 77.245 93.7845 79.4361 91.7933 82.0861Z" fill="#1C7FB3"/>
<path d="M151.862 83.4161C151.879 83.2663 151.895 83.1171 151.912 82.9686C151.588 83.1286 151.253 83.3109 150.911 83.498C150.882 83.5141 150.852 83.5303 150.823 83.5465C150.401 83.7774 149.972 84.0128 149.554 84.213C149.107 84.4272 148.663 84.606 148.245 84.6978C147.826 84.7894 147.417 84.7977 147.05 84.6518L147.05 84.6519L147.045 84.65C131.855 78.1801 115.25 75.6744 98.7153 75.6534C96.2338 77.4095 93.9433 79.5584 91.9868 82.1504C91.9923 83.4573 92.0111 84.7532 92.043 86.0381C97.1019 95.2916 106.087 102.438 116.341 104.965C128.1 107.822 141.121 104.564 150.269 96.6754C150.926 91.8875 151.419 87.423 151.862 83.4161Z" stroke="white" stroke-opacity="0.1" stroke-width="0.386534"/>
</g>
<path d="M106.381 141.503C105.989 144.068 105.478 146.66 104.666 149.147C103.922 151.33 102.97 154.076 101.274 155.627C100.766 156.085 99.9788 155.779 99.9658 155.08C99.9828 152.791 101.075 150.213 101.777 148.065C102.582 145.655 103.274 143.196 103.81 140.761C104.204 139.012 106.649 139.858 106.381 141.503Z" fill="#E0F5FF"/>
<path d="M106.19 141.474L106.19 141.474L106.19 141.472C106.306 140.763 105.84 140.219 105.285 140.044C105.01 139.956 104.729 139.966 104.502 140.08C104.28 140.192 104.086 140.415 103.998 140.803C103.462 143.245 102.767 145.711 101.961 148.126C101.82 148.557 101.665 149 101.508 149.451C101.267 150.14 101.019 150.851 100.799 151.576C100.439 152.768 100.168 153.962 100.159 155.078C100.171 155.597 100.749 155.839 101.144 155.484C101.965 154.733 102.614 153.684 103.152 152.541C103.69 151.4 104.11 150.178 104.483 149.086C105.29 146.613 105.799 144.033 106.19 141.474Z" stroke="white" stroke-opacity="0.1" stroke-width="0.386534"/>
<path d="M99.9709 161.33C99.6198 162.19 99.2687 163.051 98.8057 163.862C98.3883 164.6 98.0514 165.306 97.3439 165.823C97.0075 166.103 96.4515 165.819 96.3715 165.423C96.1766 164.59 96.4366 163.876 96.6266 163.079C96.8202 162.242 97.1292 161.417 97.4382 160.592C98.0457 159.056 100.582 159.756 99.9709 161.33Z" fill="#E0F5FF"/>
<path d="M99.9709 161.33L99.7908 161.26C99.791 161.259 99.7911 161.259 99.7913 161.258C99.7916 161.258 99.7918 161.257 99.792 161.257L99.9709 161.33ZM97.6186 160.661C97.6184 160.662 97.6182 160.662 97.618 160.663L97.4382 160.592L97.6192 160.659C97.619 160.66 97.6188 160.66 97.6186 160.661ZM96.533 163.452C96.5646 163.329 96.5965 163.205 96.6266 163.079L98.8057 163.862C98.7569 163.948 98.7091 164.034 98.6618 164.119C98.3044 164.763 97.9686 165.367 97.3439 165.823C97.0075 166.103 96.4515 165.819 96.3715 165.423C96.2075 164.722 96.3656 164.105 96.533 163.452Z" stroke="white" stroke-opacity="0.1" stroke-width="0.386534"/>
<path d="M48.8513 166.358C51.3536 163.638 53.2089 157.832 52.405 151.818C51.3273 143.723 45.4544 136.271 41.5384 133.698C37.0343 139.182 35.208 146.777 36.2857 154.873C37.3634 162.969 40.6372 169.559 44.4104 169.053L48.8513 166.358Z" fill="#51AEE0"/>
<path d="M52.2134 151.844L52.2134 151.844C51.6794 147.832 49.9556 143.972 47.8744 140.793C45.8438 137.691 43.4829 135.252 41.5772 133.956C37.1938 139.381 35.4141 146.861 36.4773 154.848C37.014 158.88 38.0967 162.527 39.5067 165.096C40.2118 166.381 40.9933 167.386 41.8203 168.038C42.6324 168.678 43.48 168.971 44.3452 168.867L48.7275 166.207C51.1733 163.53 53.0096 157.799 52.2134 151.844Z" stroke="white" stroke-opacity="0.1" stroke-width="0.386534"/>
<path d="M41.6422 159.093C40.205 158.262 38.5682 157.49 36.7911 156.977C35.7604 156.649 34.67 156.406 33.52 156.248C25.4377 155.076 16.6807 158.693 13.1736 161.786C17.1799 167.59 24.0058 171.441 32.0882 172.614C38.4876 173.514 44.1597 171.359 46.4239 168.695L41.6422 159.093Z" fill="#51AEE0"/>
<path d="M36.7375 157.163L36.7375 157.163L36.7325 157.161C35.7131 156.837 34.6336 156.596 33.4938 156.44L33.4923 156.439C29.4871 155.858 25.3073 156.464 21.6891 157.602C18.1579 158.713 15.1792 160.325 13.4314 161.818C17.4145 167.49 24.1422 171.265 32.1157 172.422C35.2868 172.868 38.2761 172.557 40.7506 171.806C43.1675 171.073 45.0792 169.924 46.1934 168.666L41.4951 159.232C40.0799 158.417 38.4752 157.664 36.7375 157.163Z" stroke="white" stroke-opacity="0.1" stroke-width="0.386534"/>
<path d="M36.1136 160.952C34.5775 160.771 33.0657 160.748 31.5575 160.687C30.1648 160.636 28.7543 160.777 27.3935 160.38C26.9038 160.218 26.9186 159.638 27.2934 159.362C29.756 157.493 33.6211 158.936 36.2763 159.608C37.0355 159.794 36.8834 161.023 36.1136 160.952Z" fill="#A8E1FF"/>
<path d="M31.5646 160.493L31.5654 160.493C31.8615 160.506 32.1585 160.516 32.4563 160.527C33.6679 160.57 34.8935 160.614 36.1335 160.759C36.2682 160.771 36.3655 160.728 36.4355 160.66C36.5097 160.587 36.5612 160.477 36.5765 160.353C36.6076 160.099 36.4883 159.859 36.2302 159.796L36.2302 159.796L36.2289 159.795C35.875 159.706 35.5032 159.604 35.1184 159.498C34.0402 159.202 32.86 158.878 31.6874 158.724C30.0994 158.515 28.5808 158.627 27.4102 159.516L27.4102 159.516L27.408 159.517C27.2706 159.618 27.2052 159.771 27.2122 159.903C27.2187 160.025 27.2856 160.14 27.4511 160.196C28.1077 160.387 28.7808 160.45 29.4692 160.47C29.7964 160.48 30.1247 160.48 30.4564 160.48C30.4745 160.48 30.4926 160.48 30.5107 160.48C30.8598 160.48 31.2124 160.481 31.5646 160.493Z" stroke="white" stroke-opacity="0.1" stroke-width="0.386534"/>
<path d="M23.3801 162.223C23.0195 162.345 22.6169 162.502 22.2213 162.582C21.7417 162.732 21.3218 162.654 20.8529 162.688C19.8729 162.792 19.5459 161.287 20.3618 160.857C20.7716 160.624 21.1464 160.348 21.584 160.233C21.9831 160.114 22.3822 159.996 22.7777 159.916C24.2901 159.512 24.8575 161.777 23.3801 162.223Z" fill="#A8E1FF"/>
<path d="M23.3182 162.04L23.3181 162.04L23.3243 162.038C23.9439 161.851 24.1389 161.291 24.0128 160.798C23.9498 160.552 23.8079 160.336 23.6101 160.204C23.4164 160.074 23.1553 160.015 22.8276 160.102L22.8277 160.103L22.816 160.105C22.4304 160.183 22.0397 160.299 21.639 160.418L21.639 160.418L21.6331 160.42C21.4373 160.471 21.2508 160.56 21.0574 160.669C20.9608 160.723 20.8644 160.782 20.7645 160.842L20.7531 160.849C20.6576 160.907 20.5588 160.968 20.4577 161.025L20.4577 161.025L20.4518 161.028C20.1473 161.189 20.0329 161.565 20.1216 161.927C20.209 162.283 20.4693 162.535 20.8325 162.496L20.8325 162.496L20.8387 162.496C21.0007 162.484 21.1645 162.485 21.3172 162.485C21.3912 162.486 21.4626 162.486 21.5299 162.485C21.7451 162.482 21.9491 162.464 22.1637 162.397L22.1732 162.394L22.183 162.392C22.4797 162.332 22.7784 162.228 23.0727 162.125C23.1549 162.096 23.2368 162.067 23.3182 162.04Z" stroke="white" stroke-opacity="0.1" stroke-width="0.386534"/>
<path d="M133.452 15.5139C133.317 14.8803 133.111 14.1626 132.467 13.9868C131.827 13.7725 131.228 14.3771 130.793 14.8805C128.606 17.5512 126.674 20.4008 125.074 23.4362L133.96 25.5757C134.192 22.2199 134.039 18.8287 133.452 15.5139Z" fill="#51AEE0"/>
<path d="M130.941 15.0049C128.815 17.6015 126.932 20.3666 125.362 23.3067L133.783 25.3341C133.991 22.0688 133.833 18.7731 133.262 15.551C133.195 15.2364 133.114 14.9231 132.98 14.6692C132.847 14.4188 132.671 14.2427 132.416 14.1732L132.416 14.1735L132.406 14.1701C132.165 14.0893 131.918 14.1555 131.66 14.3259C131.4 14.4969 131.157 14.7551 130.941 15.0049Z" stroke="white" stroke-opacity="0.1" stroke-width="0.386534"/>
<path d="M158.317 78.8284C156.829 85.29 151.007 89.4888 142.798 91.3712C135.188 93.0759 124.879 95.4245 114.691 93.0874C104.657 90.7645 96.5647 84.2343 90.4854 79.4424C83.7173 74.1212 80.2333 67.7055 81.7292 61.1669C82.4964 57.8994 84.3899 55.0462 87.1681 52.7017C89.7746 50.5355 91.6367 47.6018 92.3689 44.2922C92.3831 44.1383 92.4102 43.9855 92.45 43.8339C96.1913 27.6816 113.555 17.8708 131.229 21.9465C148.903 26.0223 160.199 42.4359 156.493 58.6303C156.455 58.7562 156.418 58.8821 156.38 59.0081C155.567 62.349 155.787 65.8629 157.168 68.9792C158.613 72.2567 159.081 75.5994 158.317 78.8284Z" fill="#51AEE0"/>
<path d="M158.129 78.7839L158.129 78.785C156.664 85.1425 150.93 89.3081 142.755 91.1828L142.578 91.2224C134.98 92.9247 124.794 95.2068 114.735 92.8991C105 90.6454 97.0947 84.4098 91.0651 79.6534C90.9105 79.5315 90.7571 79.4105 90.605 79.2906L90.6048 79.2905C83.8644 73.991 80.4461 67.6441 81.9173 61.2111C82.6735 57.9903 84.5408 55.1718 87.2925 52.8497C87.2925 52.8496 87.2926 52.8495 87.2927 52.8494L87.1681 52.7017C89.7746 50.5355 91.6367 47.6018 92.3689 44.2922L158.129 78.7839ZM158.129 78.7839C158.881 75.6035 158.423 72.3041 156.992 69.0572C155.591 65.8983 155.371 62.3407 156.192 58.9624L156.192 58.9623L156.195 58.9529L156.251 58.764L156.306 58.5811L158.129 78.7839Z" stroke="white" stroke-opacity="0.1" stroke-width="0.386534"/>
<path d="M143.71 91.1452C143.419 91.2218 143.114 91.2972 142.797 91.3715C133.359 93.5287 124.153 95.2804 114.69 93.0877C105.227 90.895 97.6508 85.0724 90.4842 79.4427C90.2442 79.2394 90.003 79.0489 89.7606 78.8713C88.2083 75.0793 88.7415 71.402 90.4491 68.8811C91.8796 66.8393 94.2961 65.4706 96.805 65.6244C101.134 65.8296 104.904 70.4084 109.203 69.2523C112.983 68.2424 116.533 67.6381 120.44 68.6197C124.31 69.5976 127.394 71.5124 130.298 74.1094C133.521 77.0462 139.029 74.5653 143.023 76.2924C147.878 78.3705 149.45 85.7355 143.71 91.1452Z" fill="#A8E1FF"/>
<path d="M96.7959 65.8175L96.7932 65.8173C94.3622 65.6683 92.0067 66.9956 90.6084 68.9906C88.9474 71.4435 88.415 75.0304 89.919 78.748C90.1494 78.9184 90.3785 79.1 90.6064 79.2929C97.7761 84.925 105.319 90.7181 114.733 92.8994C124.149 95.081 133.315 93.3406 142.753 91.1832C143.051 91.1134 143.338 91.0426 143.614 90.9708C149.235 85.6356 147.632 78.4757 142.947 76.47L142.946 76.4698C141.978 76.0509 140.91 75.8843 139.793 75.8287C138.955 75.787 138.099 75.8079 137.24 75.829C136.951 75.836 136.663 75.8431 136.375 75.8478C134.101 75.885 131.843 75.7779 130.169 74.2528C127.281 71.6712 124.224 69.7754 120.393 68.8071C116.534 67.8378 113.024 68.4316 109.252 69.439C107.024 70.0381 104.946 69.1456 102.927 68.1212C102.67 67.9906 102.414 67.8579 102.158 67.7255C100.385 66.8074 98.6416 65.905 96.7959 65.8175Z" stroke="white" stroke-opacity="0.1" stroke-width="0.386534"/>
<path d="M104.663 49.4632C100.352 49.0655 96.5684 52.2101 96.1743 56.4825C95.7803 60.7549 98.9249 64.5385 103.236 64.9361C107.508 65.3302 111.292 62.1856 111.686 57.9133C112.08 53.6409 108.935 49.8572 104.663 49.4632Z" fill="white"/>
<path d="M104.645 49.6556C100.44 49.2677 96.751 52.3348 96.3668 56.5003C95.9826 60.6657 99.0483 64.3558 103.253 64.7437C107.42 65.128 111.109 62.0616 111.493 57.8955C111.878 53.7294 108.811 50.0399 104.645 49.6556Z" stroke="white" stroke-opacity="0.1" stroke-width="0.386534"/>
<path fill-rule="evenodd" clip-rule="evenodd" d="M103.199 65.321C107.202 65.6902 110.978 63.0496 111.893 59.0193C112.361 56.8887 112.018 54.7221 110.869 52.8693C109.681 51.013 107.898 49.7228 105.768 49.2546C103.641 48.7479 101.471 49.13 99.6179 50.2789C97.7651 51.4278 96.4714 53.2493 95.9682 55.3378C95.5 57.4684 95.8785 59.6771 97.0274 61.5299C98.1763 63.3826 99.9629 64.6343 102.09 65.1411C102.47 65.2279 102.84 65.2879 103.199 65.321ZM104.588 49.8445C104.921 49.8752 105.254 49.9188 105.585 49.9753C107.523 50.4258 109.163 51.5863 110.21 53.2744C111.258 54.9625 111.581 56.9332 111.134 58.8329C110.222 62.8246 106.23 65.29 102.276 64.3819C100.338 63.9314 98.737 62.7745 97.6858 61.1248C96.6382 59.4367 96.2769 57.4625 96.7273 55.5243C97.1743 53.6247 98.3348 51.9849 100.023 50.9373C101.424 50.0573 103.01 49.6989 104.588 49.8445Z" fill="black"/>
<path d="M105.726 49.4434L105.726 49.4434L105.723 49.4426C103.648 48.9482 101.53 49.3203 99.7197 50.4431C97.9114 51.5644 96.6483 53.3421 96.1565 55.3812C95.6997 57.462 96.0696 59.6186 97.1916 61.428C98.3124 63.2354 100.055 64.4573 102.134 64.9528C102.506 65.0378 102.867 65.0963 103.217 65.1285C107.125 65.489 110.811 62.9106 111.705 58.9772C112.162 56.8947 111.826 54.7804 110.705 52.9723C109.544 51.1574 107.804 49.8999 105.726 49.4434ZM105.617 49.7847L105.617 49.7844L105.629 49.787C107.616 50.2489 109.299 51.4399 110.375 53.1725C111.449 54.9036 111.781 56.9266 111.322 58.8765C110.386 62.973 106.289 65.502 102.233 64.5703L102.233 64.5702C100.244 64.108 98.6007 62.9202 97.5228 61.2287L97.5216 61.2267C96.4483 59.4973 96.0765 57.4709 96.5391 55.4806L96.5392 55.4801C96.9977 53.5313 98.1887 51.8483 99.9206 50.7734C101.358 49.8706 102.986 49.5026 104.605 49.652C104.944 49.6832 105.281 49.7275 105.617 49.7847Z" stroke="white" stroke-opacity="0.1" stroke-width="0.386534"/>
<path d="M110.883 59.4313C110.172 62.5099 107.121 64.4411 104.043 63.7302C100.964 63.0192 99.0364 59.9301 99.7474 56.8515C100.455 53.8113 103.505 51.8801 106.584 52.5911C108.218 52.9747 109.522 53.9877 110.29 55.3396C108.018 55.984 106.427 57.2347 106.689 58.1904C106.953 59.1076 108.829 59.3971 110.971 58.896C110.955 59.0756 110.925 59.254 110.883 59.4313Z" fill="black"/>
<path d="M110.695 59.3878L110.695 59.3878L110.695 59.3865C110.714 59.3058 110.731 59.2249 110.744 59.1437C109.756 59.3469 108.829 59.3845 108.095 59.2659C107.695 59.2012 107.343 59.0887 107.069 58.9237C106.793 58.758 106.586 58.5329 106.503 58.244L106.503 58.244L106.502 58.2414C106.42 57.9395 106.488 57.6292 106.653 57.3373C106.818 57.0467 107.083 56.7625 107.42 56.4966C108.046 56.0018 108.946 55.5491 109.996 55.2249C109.242 54.0249 108.035 53.1303 106.54 52.7793C103.566 52.0927 100.619 53.9583 99.9357 56.8949C99.2487 59.8697 101.112 62.8549 104.086 63.5419C107.06 64.2285 110.007 62.3637 110.695 59.3878Z" stroke="white" stroke-opacity="0.1" stroke-width="0.386534"/>
<path d="M146.706 67.083C145.739 71.2636 141.578 73.8688 137.397 72.9009C133.216 71.933 130.611 67.7722 131.579 63.5915C132.547 59.4109 136.711 56.7672 140.892 57.7351C145.073 58.703 147.674 62.9023 146.706 67.083Z" fill="white"/>
<path d="M137.441 72.7126C141.517 73.6563 145.574 71.1164 146.518 67.0394C147.462 62.962 144.924 58.867 140.849 57.9234C136.774 56.98 132.712 59.5567 131.767 63.6351C130.824 67.7114 133.364 71.7687 137.441 72.7126Z" stroke="white" stroke-opacity="0.1" stroke-width="0.386534"/>
<path fill-rule="evenodd" clip-rule="evenodd" d="M138.394 73.4584C140.165 73.6217 141.95 73.2041 143.473 72.2577C145.33 71.0704 146.62 69.2873 147.088 67.1567C148.112 62.7872 145.374 58.3812 140.966 57.3535C138.836 56.8853 136.666 57.2673 134.813 58.4162C132.96 59.5651 131.67 61.3482 131.202 63.4788C130.695 65.6058 131.073 67.8145 132.222 69.6673C133.375 71.4815 135.196 72.7753 137.323 73.282C137.678 73.3665 138.035 73.4252 138.394 73.4584ZM146.329 66.9702C145.878 68.9084 144.718 70.5481 143.068 71.5993C141.38 72.6469 139.409 72.9698 137.471 72.5193C135.572 72.0724 133.932 70.9119 132.884 69.2237C131.833 67.574 131.51 65.6034 131.961 63.6653C132.373 61.7236 133.568 60.1259 135.218 59.0747C136.906 58.0271 138.88 57.6657 140.818 58.1162C144.772 59.0243 147.237 63.017 146.329 66.9702Z" fill="black"/>
<path d="M146.899 67.1152L146.899 67.1152L146.9 67.1126C147.899 62.8481 145.228 58.5461 140.924 57.542C138.843 57.0851 136.725 57.458 134.915 58.5805C133.105 59.7027 131.847 61.4421 131.39 63.5203L131.39 63.5203L131.39 63.5236C130.895 65.599 131.264 67.7546 132.386 69.5645C133.511 71.3353 135.29 72.5988 137.368 73.094C137.714 73.1764 138.062 73.2336 138.412 73.2659C140.14 73.4253 141.883 73.0179 143.37 72.0943C145.185 70.933 146.443 69.1926 146.899 67.1152ZM146.517 67.0135L146.517 67.014C146.055 69.0009 144.865 70.6837 143.172 71.7623L143.17 71.7635C141.438 72.8382 139.415 73.1696 137.428 72.7075L137.427 72.7074C135.479 72.249 133.796 71.0582 132.721 69.3266C131.642 67.6326 131.311 65.6096 131.772 63.6233C132.196 61.6271 133.425 59.9877 135.114 58.9117L135.114 58.9117L135.116 58.9105C136.845 57.8372 138.872 57.4653 140.862 57.9279C144.92 58.8603 147.449 62.9577 146.517 67.0135Z" stroke="white" stroke-opacity="0.1" stroke-width="0.386534"/>
<path d="M143.039 66.8608C142.328 69.9394 139.277 71.8707 136.199 71.1597C133.12 70.4487 131.192 67.3596 131.9 64.3195C132.611 61.2408 135.7 59.3132 138.778 60.0241C140.374 60.4042 141.678 61.4173 142.446 62.7691C140.212 63.4171 138.583 64.6642 138.845 65.62C139.109 66.5372 140.985 66.8266 143.166 66.329C143.123 66.5063 143.081 66.6836 143.039 66.8608Z" fill="black"/>
<path d="M142.851 66.8173L142.851 66.8173L142.851 66.816L142.907 66.5818C141.913 66.7787 140.987 66.8138 140.256 66.6958C139.853 66.631 139.5 66.5184 139.225 66.3534C138.949 66.1877 138.742 65.9625 138.659 65.6735L138.659 65.6736L138.658 65.6709C138.575 65.3677 138.648 65.057 138.816 64.7658C138.983 64.4759 139.252 64.1923 139.59 63.927C140.22 63.4335 141.119 62.9812 142.153 62.6558C141.399 61.4547 140.193 60.56 138.734 60.2123C135.76 59.5258 132.775 61.3887 132.088 64.363L132.088 64.3633C131.405 67.2985 133.267 70.2843 136.242 70.9714C139.215 71.658 142.163 69.7933 142.851 66.8173Z" stroke="white" stroke-opacity="0.1" stroke-width="0.386534"/>
<path d="M111.975 40.0451C111.785 40.8427 110.27 40.4313 108.409 39.9879C106.509 39.5409 104.981 39.2834 105.171 38.4858C105.361 37.6882 107.203 36.6547 109.064 37.0981C110.963 37.5451 112.165 39.2474 111.975 40.0451Z" fill="#156894"/>
<path d="M108.453 39.7997L108.454 39.7999C108.555 39.8238 108.654 39.8477 108.752 39.8711C109.568 40.0666 110.285 40.2385 110.836 40.2894C111.146 40.318 111.379 40.3054 111.538 40.2518C111.683 40.2028 111.757 40.1244 111.787 40.0003C111.821 39.8565 111.797 39.6448 111.689 39.385C111.583 39.1293 111.404 38.8456 111.158 38.5681C110.667 38.013 109.926 37.4995 109.02 37.2863L109.019 37.2861C108.135 37.0754 107.251 37.2153 106.566 37.5046C106.223 37.6492 105.936 37.8288 105.725 38.0149C105.511 38.2041 105.393 38.3858 105.359 38.5306C105.329 38.6549 105.36 38.7533 105.464 38.8561C105.581 38.97 105.782 39.0796 106.073 39.187C106.537 39.3581 107.163 39.5022 107.886 39.6682C108.069 39.7104 108.259 39.754 108.453 39.7997Z" stroke="white" stroke-opacity="0.1" stroke-width="0.386534"/>
<path d="M143.704 49.1435C143.294 49.8044 141.979 48.9068 140.367 47.8653C138.717 46.8203 137.349 46.0731 137.802 45.3773C138.254 44.6815 140.305 44.3272 141.956 45.3723C143.568 46.4137 144.156 48.4477 143.704 49.1435Z" fill="#156894"/>
<path d="M143.54 49.0416L143.54 49.0416L143.542 49.0382C143.623 48.9127 143.671 48.7025 143.655 48.4178C143.64 48.1377 143.564 47.8065 143.425 47.4597C143.145 46.7657 142.619 46.0311 141.851 45.5351C141.065 45.0372 140.181 44.872 139.441 44.9149C139.07 44.9363 138.741 45.0095 138.482 45.115C138.22 45.222 138.047 45.3548 137.964 45.4826C137.892 45.5922 137.889 45.6961 137.953 45.8275C138.025 45.9736 138.178 46.1435 138.419 46.3411C138.801 46.656 139.349 46.9986 139.979 47.3931C140.138 47.4926 140.302 47.5955 140.47 47.702L140.47 47.702L140.472 47.703C140.548 47.7521 140.623 47.8008 140.698 47.849C141.418 48.3151 142.055 48.7277 142.568 48.9677C142.852 49.1007 143.077 49.1699 143.243 49.1759C143.396 49.1815 143.481 49.1354 143.54 49.0416Z" stroke="white" stroke-opacity="0.1" stroke-width="0.386534"/>
<path d="M130.757 75.4324C130.86 75.4419 130.953 75.4117 131.038 75.3418C131.206 75.202 131.227 74.9711 131.087 74.8029C128.516 71.538 124.848 69.22 120.783 68.2628C116.714 67.344 112.441 67.8038 108.662 69.6291C108.463 69.6883 108.399 69.9542 108.501 70.1188C108.598 70.3219 108.822 70.4202 109.025 70.3225C112.6 68.5949 116.72 68.1209 120.635 69.0255C124.511 69.9264 128.032 72.1533 130.499 75.2921C130.569 75.3762 130.642 75.4218 130.757 75.4324Z" fill="#1876A8"/>
<path d="M130.939 74.9265L130.939 74.9265C131.01 75.0125 131 75.1216 130.914 75.1932C130.867 75.2325 130.823 75.2444 130.775 75.24C130.74 75.2367 130.72 75.2291 130.705 75.2211C130.691 75.2129 130.673 75.1988 130.649 75.1704C128.155 71.9979 124.596 69.7479 120.679 68.8372L120.678 68.8371C116.72 67.9227 112.556 68.4018 108.941 70.1484M130.939 74.9265L109.025 70.3225M130.939 74.9265L130.935 74.9225C128.392 71.6927 124.762 69.3986 120.739 68.4511M130.939 74.9265L131.087 74.8029C128.516 71.538 124.848 69.22 120.783 68.2628M108.941 70.1484L109.025 70.3225M108.941 70.1484C108.941 70.1484 108.941 70.1484 108.941 70.1483L109.025 70.3225M108.941 70.1484C108.849 70.1925 108.734 70.1574 108.675 70.035L108.67 70.026L108.665 70.0175C108.647 69.9881 108.639 69.9385 108.654 69.8896C108.668 69.8429 108.693 69.8214 108.717 69.8144L108.732 69.8099L108.746 69.8031C112.484 67.9973 116.713 67.542 120.739 68.4511M109.025 70.3225C108.822 70.4202 108.598 70.3219 108.501 70.1188C108.399 69.9542 108.463 69.6883 108.662 69.6291C112.441 67.8038 116.714 67.344 120.783 68.2628M120.739 68.4511C120.739 68.451 120.739 68.4509 120.739 68.4509L120.783 68.2628M120.739 68.4511C120.74 68.4511 120.74 68.4512 120.74 68.4513L120.783 68.2628" stroke="white" stroke-opacity="0.1" stroke-width="0.386534"/>
<path d="M140.957 29.2489C143.439 30.9529 145.577 33.0263 147.37 35.469C148.233 36.6354 148.97 37.9067 149.461 39.3107C149.922 40.6341 150.609 42.0173 150.324 43.4273C150.179 44.1515 149.234 44.2972 148.773 43.8277C147.955 43.0147 147.603 41.7789 147.038 40.7563C146.367 39.6076 145.659 38.4553 144.904 37.3764C143.441 35.1453 141.641 33.1937 139.494 31.6371C138.117 30.5784 139.46 28.218 140.957 29.2489Z" fill="#A8E1FF"/>
<path d="M140.847 29.4082L140.847 29.408C140.516 29.18 140.211 29.1489 139.958 29.2236C139.699 29.3001 139.47 29.4946 139.314 29.7577C139.002 30.287 139.018 31.0257 139.61 31.4823C141.776 33.0532 143.59 35.0211 145.064 37.268C145.822 38.3522 146.533 39.5087 147.205 40.6589L147.205 40.6589L147.207 40.6628C147.391 40.9963 147.557 41.3596 147.719 41.7156C147.808 41.91 147.896 42.1022 147.985 42.2863C148.243 42.8194 148.524 43.3076 148.909 43.6906L148.909 43.6906L148.911 43.6922C149.089 43.8731 149.37 43.9424 149.626 43.8863C149.877 43.8314 150.08 43.6632 150.134 43.3895L150.134 43.3889C150.269 42.7262 150.176 42.0618 149.986 41.389C149.861 40.9458 149.7 40.5145 149.537 40.0801C149.449 39.8465 149.362 39.6121 149.279 39.3744C148.795 37.9931 148.069 36.7388 147.215 35.5839L147.214 35.5833C145.434 33.158 143.312 31.0999 140.847 29.4082Z" stroke="white" stroke-opacity="0.1" stroke-width="0.386534"/>
<path d="M151.331 47.6736C151.574 49.2487 152.093 51.1986 151.293 52.7163C151.11 53.0101 150.596 53.1179 150.39 52.8271C149.384 51.531 149.432 49.7498 149.147 48.2096C148.928 46.792 151.112 46.256 151.331 47.6736Z" fill="#A8E1FF"/>
<path d="M150.542 52.7086L150.543 52.7085L150.547 52.7154C150.594 52.7816 150.689 52.8202 150.821 52.7999C150.951 52.7798 151.068 52.7074 151.125 52.6195C151.498 51.9078 151.569 51.0851 151.51 50.2297C151.468 49.6196 151.363 49.0114 151.261 48.4236C151.218 48.1795 151.176 47.9388 151.14 47.703C151.094 47.4036 150.949 47.2255 150.774 47.1295C150.592 47.0301 150.357 47.0082 150.121 47.0661C149.647 47.1825 149.249 47.5936 149.337 48.1774C149.408 48.5604 149.458 48.957 149.508 49.3509L149.511 49.3742C149.563 49.7788 149.614 50.1809 149.688 50.5744C149.835 51.3616 150.067 52.0959 150.542 52.7086Z" stroke="white" stroke-opacity="0.1" stroke-width="0.386534"/>
<path d="M120.409 70.6348C122.508 71.0225 126.258 72.0284 126.937 74.3424C127.119 74.9026 126.628 75.5948 126.05 75.5416C124.934 75.4386 124.074 74.6606 123.151 74.1485C122.081 73.5451 121 73.0573 119.832 72.6778C118.51 72.2841 119.072 70.3951 120.409 70.6348Z" fill="#E0F5FF"/>
<path d="M126.754 74.4019L126.753 74.4019L126.752 74.3969C126.437 73.3241 125.398 72.5255 124.125 71.9419C122.861 71.3625 121.417 71.0177 120.374 70.825C119.817 70.7253 119.428 71.0621 119.309 71.4726C119.249 71.6783 119.261 71.8935 119.35 72.0736C119.437 72.25 119.604 72.4082 119.887 72.4926L119.887 72.4925L119.892 72.494C121.073 72.8778 122.166 73.371 123.246 73.9798C123.482 74.1112 123.714 74.2589 123.941 74.4052C123.957 74.4152 123.973 74.4253 123.988 74.4353C124.201 74.5724 124.411 74.7073 124.625 74.8311C125.085 75.0966 125.55 75.3014 126.068 75.3491C126.271 75.3679 126.478 75.2559 126.622 75.0582C126.766 74.8607 126.821 74.6111 126.754 74.4019Z" stroke="white" stroke-opacity="0.1" stroke-width="0.386534"/>
<path d="M123.251 84.0175C123.272 84.0712 123.293 84.1249 123.314 84.1786C124.044 85.5269 125.001 86.9349 126.55 87.3884C127.722 87.7294 129.116 87.3533 129.789 86.3673C130.42 85.4163 130.306 84.1248 129.779 83.1057C129.714 82.9703 129.636 82.8338 129.545 82.696C129.129 82.153 127.983 81.1157 126.77 80.3827C125.406 79.597 123.895 79.147 123.176 80.2064C122.461 81.2274 122.731 82.9215 123.251 84.0175Z" fill="#910B5B"/>
<path d="M123.426 83.9347L123.426 83.9345L123.431 83.9473L123.49 84.0972C124.218 85.4411 125.142 86.7748 126.605 87.2029C127.712 87.525 129.011 87.1625 129.628 86.2594C130.208 85.3857 130.114 84.174 129.607 83.1945L129.607 83.1946L129.605 83.1895C129.545 83.0645 129.472 82.9374 129.388 82.8081C128.987 82.2875 127.865 81.2704 126.671 80.5491C125.999 80.1617 125.307 79.868 124.707 79.7945C124.115 79.7218 123.641 79.8644 123.336 80.315L123.336 80.315L123.334 80.3173C123.011 80.7783 122.901 81.4072 122.943 82.0717C122.985 82.7336 123.176 83.4073 123.426 83.9347Z" stroke="white" stroke-opacity="0.1" stroke-width="0.386534"/>
<path fill-rule="evenodd" clip-rule="evenodd" d="M127.088 87.8653C128.281 87.9753 129.489 87.5045 130.117 86.5919C130.794 85.5675 130.802 84.2097 130.104 82.9419C130.016 82.7785 129.926 82.6279 129.835 82.4901C129.427 81.8702 128.28 80.8328 126.955 80.0507C125.039 78.9423 123.604 78.9264 122.847 79.9823C122.044 81.1116 122.3 82.9596 122.887 84.1783C122.933 84.2343 122.967 84.2892 122.988 84.3429C123.717 85.6911 124.737 87.2603 126.437 87.7664C126.666 87.8134 126.883 87.8463 127.088 87.8653ZM124.631 79.9916C125.286 80.052 126.066 80.4345 126.583 80.7151C127.723 81.4025 128.835 82.3978 129.212 82.9373C129.279 83.047 129.359 83.1708 129.449 83.3085C129.941 84.2855 129.954 85.4124 129.46 86.1431C128.92 86.9473 127.719 87.3412 126.662 87.0108C125.225 86.6065 124.306 85.202 123.681 83.9798C123.658 83.9518 123.636 83.9109 123.615 83.8573C123.091 82.7997 122.883 81.2667 123.465 80.4275C123.732 80.0639 124.169 79.949 124.631 79.9916Z" fill="black"/>
<path d="M129.935 83.0352L129.935 83.0352L129.934 83.0339C129.848 82.8748 129.761 82.7291 129.674 82.5965C129.288 82.0108 128.169 80.9919 126.857 80.2176C125.914 79.6718 125.109 79.408 124.463 79.3981C123.828 79.3885 123.342 79.623 123.004 80.0946C122.637 80.6114 122.503 81.3071 122.539 82.0373C122.574 82.7574 122.774 83.4903 123.051 84.0743C123.097 84.133 123.136 84.195 123.163 84.2605C123.892 85.6051 124.876 87.096 126.485 87.5788C126.704 87.6236 126.911 87.6549 127.106 87.6728C128.243 87.7778 129.376 87.3266 129.957 86.4839C130.586 85.5295 130.604 84.2505 129.935 83.0352ZM126.675 80.5452L126.675 80.545L126.683 80.5496C127.264 80.8997 127.835 81.3271 128.31 81.7352C128.781 82.1408 129.168 82.5369 129.37 82.8265L129.37 82.8263L129.376 82.836C129.443 82.9436 129.521 83.0656 129.611 83.2022L129.617 83.2115L129.622 83.2216C130.136 84.2413 130.164 85.4462 129.62 86.2512C129.027 87.134 127.734 87.5473 126.607 87.1961C125.09 86.7681 124.142 85.3019 123.517 84.084C123.485 84.0397 123.459 83.9882 123.438 83.9357C123.167 83.3864 122.979 82.7175 122.933 82.0744C122.887 81.4326 122.98 80.7882 123.307 80.3174L123.307 80.3173L123.31 80.3133C123.631 79.8747 124.149 79.7531 124.649 79.7992C125.348 79.8636 126.16 80.2659 126.675 80.5452Z" stroke="white" stroke-opacity="0.1" stroke-width="0.386534"/>
<path d="M123.252 84.0175C123.273 84.0712 123.293 84.1249 123.314 84.1786C124.044 85.5269 125.001 86.9349 126.551 87.3884C127.723 87.7294 129.116 87.3533 129.789 86.3673C130.42 85.4163 130.307 84.1248 129.779 83.1058C129.154 82.867 128.507 82.7296 127.838 82.6938C126.291 82.6287 124.656 83.099 123.252 84.0175Z" fill="#F137A6"/>
<path d="M127.829 82.8868C126.374 82.8259 124.832 83.2526 123.489 84.0949L123.49 84.0972C124.218 85.4411 125.142 86.7748 126.605 87.2029C127.712 87.525 129.011 87.1625 129.629 86.2594C130.195 85.4052 130.118 84.2277 129.641 83.2602C129.057 83.0448 128.453 82.9204 127.829 82.8868Z" stroke="white" stroke-opacity="0.1" stroke-width="0.386534"/>
<path fill-rule="evenodd" clip-rule="evenodd" d="M127.088 87.8653C128.281 87.9753 129.489 87.5045 130.117 86.5919C130.794 85.5675 130.802 84.2097 130.104 82.9419C130.016 82.7785 129.926 82.6279 129.835 82.4901C129.427 81.8702 128.28 80.8328 126.955 80.0507C125.039 78.9423 123.604 78.9264 122.847 79.9823C122.044 81.1116 122.3 82.9596 122.887 84.1783C122.933 84.2343 122.967 84.2892 122.988 84.3429C123.717 85.6911 124.737 87.2603 126.437 87.7664C126.666 87.8134 126.883 87.8463 127.088 87.8653ZM124.631 79.9916C125.286 80.052 126.066 80.4345 126.583 80.7151C127.723 81.4025 128.835 82.3978 129.212 82.9373C129.279 83.047 129.359 83.1708 129.449 83.3085C129.941 84.2855 129.954 85.4124 129.46 86.1431C128.92 86.9473 127.719 87.3412 126.662 87.0108C125.225 86.6065 124.306 85.202 123.681 83.9798C123.658 83.9518 123.636 83.9109 123.615 83.8573C123.091 82.7997 122.883 81.2667 123.465 80.4275C123.732 80.0639 124.169 79.949 124.631 79.9916Z" fill="black"/>
<path d="M129.935 83.0352L129.935 83.0352L129.934 83.0339C129.848 82.8748 129.761 82.7291 129.674 82.5965C129.288 82.0108 128.169 80.9919 126.857 80.2176C125.914 79.6718 125.109 79.408 124.463 79.3981C123.828 79.3885 123.342 79.623 123.004 80.0946C122.637 80.6114 122.503 81.3071 122.539 82.0373C122.574 82.7574 122.774 83.4903 123.051 84.0743C123.097 84.133 123.136 84.195 123.163 84.2605C123.892 85.6051 124.876 87.096 126.485 87.5788C126.704 87.6236 126.911 87.6549 127.106 87.6728C128.243 87.7778 129.376 87.3266 129.957 86.4839C130.586 85.5295 130.604 84.2505 129.935 83.0352ZM126.675 80.5452L126.675 80.545L126.683 80.5496C127.264 80.8997 127.835 81.3271 128.31 81.7352C128.781 82.1408 129.168 82.5369 129.37 82.8265L129.37 82.8263L129.376 82.836C129.443 82.9436 129.521 83.0656 129.611 83.2022L129.617 83.2115L129.622 83.2216C130.136 84.2413 130.164 85.4462 129.62 86.2512C129.027 87.134 127.734 87.5473 126.607 87.1961C125.09 86.7681 124.142 85.3019 123.517 84.084C123.485 84.0397 123.459 83.9882 123.438 83.9357C123.167 83.3864 122.979 82.7175 122.933 82.0744C122.887 81.4326 122.98 80.7882 123.307 80.3174L123.307 80.3173L123.31 80.3133C123.631 79.8747 124.149 79.7531 124.649 79.7992C125.348 79.8636 126.16 80.2659 126.675 80.5452Z" stroke="white" stroke-opacity="0.1" stroke-width="0.386534"/>
<path d="M127.951 89.8853C128.875 89.9705 129.869 89.7128 130.657 89.1644C131.621 88.3993 132.235 87.2138 132.194 85.9679C132.212 85.7754 132.034 85.6037 131.803 85.5824C131.607 85.6032 131.435 85.7814 131.456 85.9774C131.444 86.9468 130.963 87.9505 130.172 88.5374C129.38 89.1242 128.316 89.2978 127.375 88.9781C127.186 88.9219 126.941 89.0545 126.885 89.2434C126.828 89.4323 126.923 89.6739 127.15 89.7337C127.402 89.8087 127.669 89.8592 127.951 89.8853Z" fill="#1876A8"/>
<path d="M132.001 85.9742L132.001 85.9621L132.002 85.9501C132.006 85.9016 131.954 85.7992 131.805 85.7773C131.705 85.7972 131.641 85.8906 131.648 85.9571L131.649 85.9684L131.649 85.9798C131.637 87.0058 131.13 88.0676 130.287 88.6926C129.446 89.3159 128.318 89.5009 127.317 89.1626C127.283 89.1534 127.229 89.1581 127.172 89.1888C127.114 89.2203 127.08 89.2644 127.07 89.2986C127.039 89.4031 127.097 89.5199 127.199 89.5468L127.199 89.5467L127.205 89.5485C127.444 89.6196 127.698 89.6678 127.969 89.6928C128.845 89.7736 129.792 89.5293 130.542 89.0093C131.46 88.2779 132.039 87.1505 132.001 85.9742Z" stroke="white" stroke-opacity="0.1" stroke-width="0.386534"/>
<path d="M58.5109 88.5656C64.477 91.639 77.4881 97.0314 92.5984 94.8152C94.4609 96.9278 92.8896 110.175 92.8035 114.476C92.7668 115.714 92.5712 120.782 91.6373 120.385C87.0227 119.493 65.9219 110.482 54.1549 95.8108C55.6174 93.4226 57.0833 90.9959 58.5109 88.5656Z" fill="#51AEE0"/>
<path d="M91.674 120.195L91.6941 120.199L91.7129 120.207C91.7339 120.216 91.7433 120.214 91.749 120.212C91.7585 120.209 91.7801 120.199 91.8119 120.165C91.8788 120.092 91.9527 119.953 92.0255 119.74C92.1689 119.322 92.2802 118.704 92.3651 118.02C92.534 116.658 92.5919 115.09 92.6103 114.471C92.6315 113.411 92.7422 111.815 92.8691 109.986L92.8769 109.873C93.0072 107.993 93.1533 105.871 93.2386 103.817C93.3239 101.762 93.348 99.7825 93.2355 98.1872C93.1792 97.3893 93.0892 96.6932 92.9574 96.1345C92.8385 95.6307 92.6901 95.2582 92.5171 95.0223C77.5312 97.1855 64.6232 91.9076 58.585 88.8209C57.2091 91.1605 55.7985 93.4959 54.3908 95.7957C60.2473 103.057 68.3977 108.926 75.6744 113.098C82.9911 117.292 89.398 119.755 91.674 120.195Z" stroke="white" stroke-opacity="0.1" stroke-width="0.386534"/>
<g opacity="0.6">
<path d="M53.6663 95.2222C68.3582 113.114 90.5288 120.205 91.6379 120.385C92.5718 120.781 92.9599 115.732 92.804 114.476C76.6997 111.476 65.799 105.929 53.6663 95.2222Z" fill="#1C7FB3"/>
<path d="M55.4768 97.0422C62.4962 104.932 70.89 110.549 77.837 114.275C81.5884 116.287 84.9159 117.746 87.3738 118.713C88.6027 119.197 89.6138 119.557 90.3514 119.802C91.0961 120.05 91.5484 120.174 91.6689 120.194L91.692 120.198L91.7135 120.207C91.7339 120.216 91.7447 120.214 91.7534 120.212C91.7657 120.208 91.7898 120.197 91.8239 120.162C91.8955 120.088 91.9754 119.948 92.0552 119.737C92.2128 119.32 92.3416 118.704 92.4383 118.023C92.6182 116.754 92.6787 115.319 92.626 114.639C77.4241 111.788 66.843 106.653 55.4768 97.0422Z" stroke="white" stroke-opacity="0.1" stroke-width="0.386534"/>
</g>
<path d="M84.0768 100.085C81.2665 100.253 78.4389 100.186 75.6013 99.8076C74.2577 99.6449 72.9212 99.4052 71.5989 99.0115C70.3151 98.6213 68.9437 98.3396 67.9334 97.5088C67.2867 96.9446 67.5644 96.0386 68.352 95.9171C69.4966 95.7121 70.6998 96.1337 71.893 96.2437C73.2751 96.41 74.6466 96.6918 76.0287 96.8581C78.6703 97.257 81.3367 97.3865 83.9824 97.32C85.9667 97.2701 86.0261 99.9928 84.0768 100.085Z" fill="#A8E1FF"/>
<path d="M84.0653 99.8918L84.0653 99.8918L84.0677 99.8917C84.5074 99.871 84.8188 99.704 85.019 99.4786C85.2213 99.2508 85.3199 98.9524 85.3115 98.6546C85.3032 98.3569 85.1883 98.0674 84.973 97.8559C84.76 97.6466 84.4366 97.5019 83.9873 97.5132C81.3331 97.5799 78.6562 97.4502 76.0027 97.0496C75.3086 96.966 74.6179 96.8536 73.9318 96.742L73.9298 96.7417C73.2416 96.6297 72.5581 96.5185 71.8726 96.4359C71.4663 96.3983 71.0523 96.3242 70.6495 96.2522C70.4544 96.2172 70.2619 96.1828 70.0742 96.1532C69.4866 96.0605 68.9257 96.0107 68.386 96.1074L68.386 96.1074L68.3814 96.1081C68.0605 96.1576 67.8571 96.3618 67.791 96.5988C67.7254 96.8341 67.7892 97.1253 68.0584 97.3614C68.5386 97.7556 69.1097 98.0241 69.7281 98.2432C70.1386 98.3886 70.5588 98.5089 70.9844 98.6307C71.2066 98.6942 71.4301 98.7582 71.6546 98.8264C72.9632 99.216 74.2883 99.4539 75.6246 99.6157L75.6268 99.6161C78.4507 99.9924 81.2657 100.059 84.0653 99.8918Z" stroke="white" stroke-opacity="0.1" stroke-width="0.386534"/>
<path d="M45.9297 103.254L46.8873 104.235C48.2327 105.64 50.4793 105.692 51.888 104.308L80.1427 77.091L74.2995 71.0011L46.0413 98.2567C44.6362 99.6022 44.5842 101.849 45.9297 103.254Z" fill="#F137A6"/>
<path d="M74.2942 71.2748L46.1754 98.3959L46.1749 98.3963C44.8469 99.668 44.7979 101.792 46.0687 103.12C46.0689 103.12 46.0691 103.12 46.0693 103.12L47.0256 104.1L47.0268 104.101C48.2983 105.429 50.4213 105.478 51.7525 104.17L51.7539 104.169L79.8697 77.0856L74.2942 71.2748Z" stroke="white" stroke-opacity="0.1" stroke-width="0.386534"/>
<path fill-rule="evenodd" clip-rule="evenodd" d="M49.0446 105.324C49.1472 105.333 49.2499 105.343 49.3525 105.352C50.3988 105.371 51.4072 104.959 52.1326 104.25L80.3909 77.347C80.559 77.2072 80.5803 76.9763 80.4021 76.8046L74.5974 70.7183C74.524 70.6727 74.412 70.6235 74.2966 70.6129C74.1939 70.6034 74.1134 70.6348 74.055 70.707L45.7967 97.6101C45.0329 98.316 44.5906 99.3232 44.5717 100.37C44.5529 101.416 44.9295 102.382 45.6739 103.15L46.593 104.127C47.2675 104.81 48.1208 105.239 49.0446 105.324ZM79.6003 77.08L51.6014 103.696C50.3645 104.902 48.3523 104.833 47.1466 103.596L46.2275 102.618C45.6229 102.019 45.309 101.214 45.3486 100.364C45.3462 99.5482 45.6902 98.7648 46.3279 98.1637L74.2884 71.5437L79.6003 77.08Z" fill="#910B5B"/>
<path d="M51.9974 104.112L51.9993 104.11L80.2576 77.207L80.2573 77.2067L80.2673 77.1983C80.3137 77.1598 80.3317 77.1163 80.3333 77.0796C80.3348 77.0442 80.3218 76.9956 80.268 76.9438L80.2679 76.9439L80.2622 76.9379L74.476 70.871C74.421 70.8401 74.3475 70.8117 74.2788 70.8053C74.2322 70.801 74.2181 70.8127 74.2053 70.8286L74.1974 70.8383L74.1882 70.847L45.93 97.75L45.9279 97.752C45.2037 98.4212 44.7829 99.3781 44.765 100.373C44.747 101.368 45.1041 102.285 45.8127 103.015L45.8147 103.017L46.7306 103.991C46.7311 103.992 46.7317 103.993 46.7322 103.993C47.3774 104.646 48.1887 105.051 49.0623 105.131L49.063 105.131L49.0636 105.131L49.0642 105.131L49.0648 105.132L49.0654 105.132L49.066 105.132L49.0666 105.132L49.0672 105.132L49.0678 105.132L49.0684 105.132L49.069 105.132L49.0696 105.132L49.0702 105.132L49.0708 105.132L49.0714 105.132L49.072 105.132L49.0726 105.132L49.0732 105.132L49.0738 105.132L49.0744 105.132L49.075 105.132L49.0756 105.133L49.0762 105.133L49.0768 105.133L49.0774 105.133L49.078 105.133L49.0786 105.133L49.0792 105.133L49.0798 105.133L49.0804 105.133L49.081 105.133L49.0816 105.133L49.0822 105.133L49.0828 105.133L49.0834 105.133L49.084 105.133L49.0846 105.133L49.0852 105.133L49.0858 105.133L49.0864 105.134L49.087 105.134L49.0876 105.134L49.0882 105.134L49.0888 105.134L49.0894 105.134L49.09 105.134L49.0906 105.134L49.0912 105.134L49.0918 105.134L49.0924 105.134L49.093 105.134L49.0936 105.134L49.0942 105.134L49.0948 105.134L49.0954 105.134L49.096 105.134L49.0966 105.134L49.0972 105.135L49.0978 105.135L49.0984 105.135L49.099 105.135L49.0996 105.135L49.1002 105.135L49.1008 105.135L49.1014 105.135L49.102 105.135L49.1026 105.135L49.1032 105.135L49.1038 105.135L49.1044 105.135L49.105 105.135L49.1056 105.135L49.1063 105.135L49.1069 105.135L49.1075 105.135L49.1081 105.136L49.1087 105.136L49.1093 105.136L49.1099 105.136L49.1105 105.136L49.1111 105.136L49.1117 105.136L49.1123 105.136L49.1129 105.136L49.1135 105.136L49.1141 105.136L49.1147 105.136L49.1153 105.136L49.1159 105.136L49.1165 105.136L49.1171 105.136L49.1177 105.136L49.1183 105.136L49.1189 105.137L49.1195 105.137L49.1201 105.137L49.1207 105.137L49.1213 105.137L49.1219 105.137L49.1225 105.137L49.1231 105.137L49.1237 105.137L49.1243 105.137L49.1249 105.137L49.1255 105.137L49.1261 105.137L49.1267 105.137L49.1273 105.137L49.1279 105.137L49.1285 105.137L49.1291 105.137L49.1297 105.138L49.1303 105.138L49.1309 105.138L49.1315 105.138L49.1321 105.138L49.1327 105.138L49.1333 105.138L49.1339 105.138L49.1345 105.138L49.1351 105.138L49.1357 105.138L49.1363 105.138L49.1369 105.138L49.1375 105.138L49.1381 105.138L49.1387 105.138L49.1393 105.138L49.1399 105.138L49.1405 105.139L49.1411 105.139L49.1417 105.139L49.1423 105.139L49.1429 105.139L49.1435 105.139L49.1441 105.139L49.1447 105.139L49.1453 105.139L49.1459 105.139L49.1465 105.139L49.1471 105.139L49.1477 105.139L49.1483 105.139L49.149 105.139L49.1496 105.139L49.1502 105.139L49.1508 105.139L49.1514 105.14L49.152 105.14L49.1526 105.14L49.1532 105.14L49.1538 105.14L49.1544 105.14L49.155 105.14L49.1556 105.14L49.1562 105.14L49.1568 105.14L49.1574 105.14L49.158 105.14L49.1586 105.14L49.1592 105.14L49.1598 105.14L49.1604 105.14L49.161 105.14L49.1616 105.14L49.1622 105.141L49.1628 105.141L49.1634 105.141L49.164 105.141L49.1646 105.141L49.1652 105.141L49.1658 105.141L49.1664 105.141L49.167 105.141L49.1676 105.141L49.1682 105.141L49.1688 105.141L49.1694 105.141L49.17 105.141L49.1706 105.141L49.1712 105.141L49.1718 105.141L49.1724 105.141L49.173 105.142L49.1736 105.142L49.1742 105.142L49.1748 105.142L49.1754 105.142L49.176 105.142L49.1766 105.142L49.1772 105.142L49.1778 105.142L49.1784 105.142L49.179 105.142L49.1796 105.142L49.1802 105.142L49.1808 105.142L49.1814 105.142L49.182 105.142L49.1826 105.142L49.1832 105.142L49.1838 105.143L49.1844 105.143L49.185 105.143L49.1856 105.143L49.1862 105.143L49.1868 105.143L49.1874 105.143L49.188 105.143L49.1886 105.143L49.1892 105.143L49.1898 105.143L49.1904 105.143L49.191 105.143L49.1916 105.143L49.1923 105.143L49.1929 105.143L49.1935 105.143L49.1941 105.143L49.1947 105.144L49.1953 105.144L49.1959 105.144L49.1965 105.144L49.1971 105.144L49.1977 105.144L49.1983 105.144L49.1989 105.144L49.1995 105.144L49.2001 105.144L49.2007 105.144L49.2013 105.144L49.2019 105.144L49.2025 105.144L49.2031 105.144L49.2037 105.144L49.2043 105.144L49.2049 105.144L49.2055 105.145L49.2061 105.145L49.2067 105.145L49.2073 105.145L49.2079 105.145L49.2085 105.145L49.2091 105.145L49.2097 105.145L49.2103 105.145L49.2109 105.145L49.2115 105.145L49.2121 105.145L49.2127 105.145L49.2133 105.145L49.2139 105.145L49.2145 105.145L49.2151 105.145L49.2157 105.145L49.2163 105.146L49.2169 105.146L49.2175 105.146L49.2181 105.146L49.2187 105.146L49.2193 105.146L49.2199 105.146L49.2205 105.146L49.2211 105.146L49.2217 105.146L49.2223 105.146L49.2229 105.146L49.2235 105.146L49.2241 105.146L49.2247 105.146L49.2253 105.146L49.2259 105.146L49.2265 105.146L49.2271 105.147L49.2277 105.147L49.2283 105.147L49.2289 105.147L49.2295 105.147L49.2301 105.147L49.2307 105.147L49.2313 105.147L49.2319 105.147L49.2325 105.147L49.2331 105.147L49.2337 105.147L49.2343 105.147L49.2349 105.147L49.2356 105.147L49.2362 105.147L49.2368 105.147L49.2374 105.147L49.238 105.148L49.2386 105.148L49.2392 105.148L49.2398 105.148L49.2404 105.148L49.241 105.148L49.2416 105.148L49.2422 105.148L49.2428 105.148L49.2434 105.148L49.244 105.148L49.2446 105.148L49.2452 105.148L49.2458 105.148L49.2464 105.148L49.247 105.148L49.2476 105.148L49.2482 105.148L49.2488 105.149L49.2494 105.149L49.25 105.149L49.2506 105.149L49.2512 105.149L49.2518 105.149L49.2524 105.149L49.253 105.149L49.2536 105.149L49.2542 105.149L49.2548 105.149L49.2554 105.149L49.256 105.149L49.2566 105.149L49.2572 105.149L49.2578 105.149L49.2584 105.149L49.259 105.149L49.2596 105.15L49.2602 105.15L49.2608 105.15L49.2614 105.15L49.262 105.15L49.2626 105.15L49.2632 105.15L49.2638 105.15L49.2644 105.15L49.265 105.15L49.2656 105.15L49.2662 105.15L49.2668 105.15L49.2674 105.15L49.268 105.15L49.2686 105.15L49.2692 105.15L49.2698 105.15L49.2704 105.151L49.271 105.151L49.2716 105.151L49.2722 105.151L49.2728 105.151L49.2734 105.151L49.274 105.151L49.2746 105.151L49.2752 105.151L49.2758 105.151L49.2764 105.151L49.277 105.151L49.2776 105.151L49.2782 105.151L49.2789 105.151L49.2795 105.151L49.2801 105.151L49.2807 105.151L49.2813 105.152L49.2819 105.152L49.2825 105.152L49.2831 105.152L49.2837 105.152L49.2843 105.152L49.2849 105.152L49.2855 105.152L49.2861 105.152L49.2867 105.152L49.2873 105.152L49.2879 105.152L49.2885 105.152L49.2891 105.152L49.2897 105.152L49.2903 105.152L49.2909 105.152L49.2915 105.152L49.2921 105.153L49.2927 105.153L49.2933 105.153L49.2939 105.153L49.2945 105.153L49.2951 105.153L49.2957 105.153L49.2963 105.153L49.2969 105.153L49.2975 105.153L49.2981 105.153L49.2987 105.153L49.2993 105.153L49.2999 105.153L49.3005 105.153L49.3011 105.153L49.3017 105.153L49.3023 105.153L49.3029 105.154L49.3035 105.154L49.3041 105.154L49.3047 105.154L49.3053 105.154L49.3059 105.154L49.3065 105.154L49.3071 105.154L49.3077 105.154L49.3083 105.154L49.3089 105.154L49.3095 105.154L49.3101 105.154L49.3107 105.154L49.3113 105.154L49.3119 105.154L49.3125 105.154L49.3131 105.154L49.3137 105.155L49.3143 105.155L49.3149 105.155L49.3155 105.155L49.3161 105.155L49.3167 105.155L49.3173 105.155L49.3179 105.155L49.3185 105.155L49.3191 105.155L49.3197 105.155L49.3203 105.155L49.3209 105.155L49.3215 105.155L49.3222 105.155L49.3228 105.155L49.3234 105.155L49.324 105.155L49.3246 105.156L49.3252 105.156L49.3258 105.156L49.3264 105.156L49.327 105.156L49.3276 105.156L49.3282 105.156L49.3288 105.156L49.3294 105.156L49.33 105.156L49.3306 105.156L49.3312 105.156L49.3318 105.156L49.3324 105.156L49.333 105.156L49.3336 105.156L49.3342 105.156L49.3348 105.156L49.3354 105.156L49.336 105.157L49.3366 105.157L49.3372 105.157L49.3378 105.157L49.3384 105.157L49.339 105.157L49.3396 105.157L49.3402 105.157L49.3408 105.157L49.3414 105.157L49.342 105.157L49.3426 105.157L49.3432 105.157L49.3438 105.157L49.3444 105.157L49.345 105.157L49.3456 105.157L49.3462 105.157L49.3468 105.158L49.3474 105.158L49.348 105.158L49.3486 105.158L49.3492 105.158L49.3498 105.158L49.3504 105.158L49.351 105.158L49.3516 105.158L49.3522 105.158L49.3528 105.158L49.3534 105.158L49.354 105.158L49.3546 105.158L49.3552 105.158L49.3558 105.158L49.3564 105.158L49.357 105.158L49.3576 105.159L49.3582 105.159L49.3588 105.159L49.3594 105.159L49.36 105.159L49.3606 105.159L49.3612 105.159L49.3618 105.159L49.3624 105.159L49.363 105.159L49.3631 105.159C50.3546 105.175 51.3103 104.784 51.9974 104.112ZM79.7398 76.9462L79.8742 77.0863L79.7335 77.22L51.7363 103.835C51.736 103.835 51.7357 103.835 51.7355 103.836C50.4186 105.118 48.2847 105.04 47.0082 103.731L47.0082 103.731L47.0058 103.728L46.0891 102.753C45.4483 102.117 45.1146 101.261 45.1554 100.359C45.1541 99.4892 45.5223 98.6576 46.1951 98.0233C46.1952 98.0232 46.1953 98.0231 46.1953 98.023L74.1551 71.4038L74.2945 71.271L74.4278 71.4099L79.7398 76.9462Z" stroke="white" stroke-opacity="0.1" stroke-width="0.386534"/>
<path d="M116.002 39.2913C107.194 28.7356 91.5281 27.2907 80.976 36.0606C70.3819 44.8654 68.9369 60.5308 77.7453 71.0865C86.5116 81.6771 102.177 83.122 112.771 74.3172C123.323 65.5473 124.768 49.8819 116.002 39.2913Z" fill="#51AEE0"/>
<path d="M77.8937 70.9626L77.8942 70.9632C86.5921 81.4712 102.135 82.9053 112.648 74.1685C123.117 65.4671 124.552 49.9236 115.853 39.4148C107.113 28.941 91.5693 27.5078 81.0996 36.2092C70.5873 44.9459 69.154 60.4893 77.8937 70.9626Z" stroke="white" stroke-opacity="0.1" stroke-width="0.386534"/>
<path d="M103.264 39.7851C93.5262 38.8869 84.9079 46.0496 84.0097 55.7875C83.1115 65.5255 90.2706 74.1822 100.009 75.0805C109.747 75.9787 118.368 68.7775 119.267 59.0396C120.165 49.3016 113.002 40.6833 103.264 39.7851Z" fill="white"/>
<path d="M103.246 39.9776C93.6147 39.0892 85.0906 46.1736 84.2022 55.8053C83.3137 65.4375 90.3952 73.9996 100.026 74.888C109.657 75.7764 118.186 68.654 119.074 59.0218C119.963 49.3901 112.878 40.866 103.246 39.9776Z" stroke="white" stroke-opacity="0.1" stroke-width="0.386534"/>
<path fill-rule="evenodd" clip-rule="evenodd" d="M101.479 75.1383C104.814 75.1742 108.119 74.2757 111.043 72.4493C115.039 69.9454 117.848 66.0122 118.893 61.4117C119.977 56.8147 119.175 52.0438 116.671 48.0476C114.132 44.0093 110.234 41.243 105.637 40.1591C100.998 39.1102 96.2657 39.9158 92.2694 42.4197C88.2347 44.92 85.4264 48.8533 84.381 53.4538C83.3355 58.0543 84.0992 62.8216 86.603 66.8179C89.1454 70.8177 93.0402 73.6224 97.6792 74.6714C98.9456 74.9694 100.212 75.125 101.479 75.1383ZM101.822 40.7C103.012 40.7063 104.203 40.842 105.394 41.1072C109.764 42.1313 113.48 44.7643 115.848 48.5539C118.216 52.3435 118.966 56.8379 117.942 61.2075C116.96 65.5421 114.288 69.255 110.498 71.6227C106.709 73.9904 102.214 74.7404 97.8798 73.7583C93.5103 72.7342 89.8323 70.1047 87.4261 66.3115C85.0584 62.5219 84.3084 58.0276 85.3326 53.658C86.3146 49.3234 88.9862 45.6104 92.7758 43.2428C95.5357 41.5176 98.6444 40.6399 101.822 40.7Z" fill="black"/>
<path d="M101.481 74.9451L101.481 74.9451C104.78 74.9806 108.048 74.092 110.941 72.2855C114.894 69.8087 117.671 65.9188 118.705 61.3689L118.705 61.3673C119.777 56.821 118.984 52.103 116.507 48.1503C113.996 44.1555 110.141 41.4199 105.594 40.3474C101.004 39.31 96.3246 40.107 92.372 42.5835L92.3712 42.584C88.3803 45.0572 85.6033 48.9468 84.5694 53.4966C83.5351 58.0484 84.2907 62.763 86.7665 66.7147C89.2822 70.6724 93.1342 73.4455 97.7218 74.4829L97.7234 74.4833C98.9764 74.7781 100.229 74.9319 101.481 74.9451ZM105.436 40.9185L105.438 40.919C109.857 41.9546 113.617 44.6179 116.012 48.4515C118.407 52.2845 119.166 56.8314 118.13 61.2509C117.136 65.6364 114.433 69.3923 110.601 71.7866C106.768 74.1814 102.221 74.9401 97.8371 73.9468L97.8357 73.9464C93.4165 72.9107 89.6959 70.2505 87.2629 66.4151L87.2622 66.4139C84.8674 62.5809 84.1086 58.0341 85.1442 53.6146C86.1381 49.229 88.8411 45.4732 92.6733 43.0789C95.4636 41.3348 98.6085 40.4461 101.824 40.5068C103.028 40.5132 104.232 40.6505 105.436 40.9185Z" stroke="white" stroke-opacity="0.1" stroke-width="0.386534"/>
<path d="M117.466 62.5616C115.851 69.555 108.85 73.9166 101.856 72.3012C94.8593 70.7241 90.4592 63.7193 92.0782 56.6874C93.6937 49.694 100.695 45.3323 107.688 46.9478C111.414 47.7961 114.379 50.1657 116.117 53.1986C110.975 54.6651 107.328 57.5894 107.906 59.7389C108.491 61.8113 112.816 62.482 117.699 61.3021C117.636 61.7103 117.558 62.1301 117.466 62.5616Z" fill="black"/>
<path d="M101.899 72.1126L101.9 72.1128C108.789 73.7042 115.686 69.4079 117.278 62.5198C117.347 62.1916 117.409 61.8705 117.462 61.5563C115.107 62.0937 112.887 62.2042 111.161 61.931C110.263 61.789 109.489 61.5418 108.897 61.1894C108.305 60.8365 107.884 60.3706 107.72 59.7914L107.719 59.7891C107.558 59.1878 107.697 58.549 108.054 57.9208C108.411 57.2933 108.993 56.6626 109.746 56.0616C111.206 54.8962 113.338 53.8199 115.825 53.0823C114.097 50.1957 111.228 47.952 107.645 47.1363L107.645 47.1362C100.755 45.5446 93.858 49.8417 92.2665 56.7308C90.6714 63.6589 95.0068 70.5593 101.899 72.1126Z" stroke="white" stroke-opacity="0.1" stroke-width="0.386534"/>
<g opacity="0.4">
<path d="M74.4717 44.3108L106.805 77.9978C109.434 76.8429 111.911 75.2469 114.083 73.157C116.214 71.1021 117.907 68.7352 119.149 66.2102L86.7426 32.4776C84.1935 33.6011 81.7942 35.2042 79.6253 37.2556C77.4528 39.3454 75.7174 41.7473 74.4717 44.3108Z" fill="white"/>
<path d="M79.7587 37.3954C77.6369 39.4366 75.9358 41.7772 74.7047 44.2744L106.85 77.7662C109.415 76.6243 111.828 75.0579 113.949 73.0177C116.029 71.0118 117.689 68.7061 118.916 66.2461L86.6971 32.7093C84.2154 33.8204 81.8771 35.3919 79.7587 37.3954Z" stroke="white" stroke-opacity="0.1" stroke-width="0.386534"/>
</g>
<g opacity="0.4">
<path d="M72.1509 58.11L92.9375 79.7854C96.5342 80.35 100.244 80.11 103.794 79.0788L73.264 47.3049C72.0906 50.7679 71.7113 54.4594 72.1509 58.11Z" fill="white"/>
<path d="M73.3466 47.6699C72.2682 50.9969 71.9236 54.5279 72.3352 58.0229L93.0317 79.6044C96.476 80.1357 100.024 79.9239 103.432 78.9806L73.3466 47.6699Z" stroke="white" stroke-opacity="0.1" stroke-width="0.386534"/>
</g>
<path fill-rule="evenodd" clip-rule="evenodd" d="M74.1337 77.0031C86.1765 89.5262 106.088 89.9654 118.65 77.9261C131.173 65.8833 131.612 45.9716 119.573 33.41C107.53 20.8869 87.6184 20.4477 75.0567 32.487C62.5336 44.5298 62.0944 64.4415 74.1337 77.0031ZM74.6771 65.6409C73.5743 63.2878 72.8393 60.7356 72.5419 58.0686C72.0951 54.495 72.5129 50.8071 73.6407 47.4175C73.9675 46.3996 74.3678 45.4273 74.845 44.462C76.0907 41.8985 77.7805 39.5701 79.9074 37.5537C81.9537 35.5686 84.3145 33.962 86.9057 32.8035C90.7889 31.1044 95.0032 30.445 99.0831 30.8214C104.818 31.3503 110.365 33.9193 114.506 38.2607C121.625 45.6715 123.349 56.8548 118.812 66.063C117.57 68.588 115.88 70.9165 113.799 72.8595C111.711 74.8794 109.312 76.4825 106.643 77.6339C105.712 78.0526 104.707 78.4257 103.671 78.7183C100.24 79.7216 96.5302 79.9617 92.9719 79.4006C87.6923 78.5643 82.9188 76.0278 79.2004 72.1524C77.3202 70.2322 75.8148 68.0361 74.6771 65.6409Z" fill="#F137A6"/>
<path d="M74.5025 65.7238L74.5021 65.7229C73.3907 63.3514 72.6499 60.7793 72.3499 58.0913C71.8997 54.4881 72.3211 50.772 73.457 47.3575C73.7868 46.3304 74.1906 45.3497 74.6714 44.3771C75.927 41.7934 77.6302 39.4465 79.7736 37.4142C81.8357 35.414 84.215 33.7947 86.8268 32.6271L86.8282 32.6265C90.7415 30.9142 94.9885 30.2496 99.1009 30.6289C104.881 31.162 110.471 33.751 114.646 38.127C121.821 45.5966 123.559 56.8673 118.986 66.1483C117.734 68.6927 116.031 71.04 113.932 72.9996C111.828 75.0347 109.41 76.6503 106.721 77.8107C105.782 78.2327 104.769 78.6089 103.724 78.9041C100.266 79.9152 96.5279 80.157 92.9418 79.5915L92.9417 79.5915C87.6197 78.7484 82.8084 76.1916 79.0617 72.287C77.1661 70.351 75.6489 68.1372 74.5025 65.7238ZM74.2732 76.8694C86.2424 89.3156 106.032 89.7519 118.516 77.7866C130.962 65.8175 131.399 46.0281 119.434 33.544C107.465 21.0976 87.6752 20.6612 75.1907 32.6263C62.7442 44.5954 62.3079 64.3849 74.2732 76.8694Z" stroke="white" stroke-opacity="0.1" stroke-width="0.386534"/>
<path fill-rule="evenodd" clip-rule="evenodd" d="M65.1252 52.2213C65.0542 52.9912 65.0089 53.7633 64.9892 54.5379C64.824 63.0625 67.9629 71.1155 73.8795 77.2509C79.2264 82.8292 86.249 86.233 93.87 86.9359C94.6398 87.0069 95.412 87.0523 96.1865 87.072C104.711 87.2372 112.764 84.0982 118.9 78.1816C125.031 72.3035 128.52 64.3572 128.721 55.8747C128.886 47.3501 125.747 39.297 119.83 33.1616C107.686 20.4738 87.4631 20.0447 74.8102 32.2309C69.232 37.5778 65.8282 44.6003 65.1252 52.2213ZM75.3414 32.7845C82.111 26.3053 91.0665 23.4825 99.7268 24.2813C106.924 24.9452 113.895 28.0725 119.277 33.6928C125.054 39.6601 128.091 47.5485 127.947 55.8422C127.765 64.1323 124.371 71.8932 118.368 77.628C112.363 83.4013 104.513 86.4425 96.219 86.2986C87.8904 86.1127 80.1679 82.722 74.4331 76.7197C68.6563 70.7524 65.6186 62.864 65.7625 54.5704C65.9449 46.2803 69.3392 38.5193 75.3414 32.7845Z" fill="#910B5B"/>
<path d="M74.0186 77.1168L74.0191 77.1172C79.3341 82.6623 86.3136 86.0449 93.8878 86.7435C94.6532 86.8141 95.4211 86.8592 96.1913 86.8788C104.665 87.0427 112.667 83.923 118.765 78.0425L118.766 78.0421C124.861 72.1996 128.328 64.302 128.527 55.8705C128.692 47.3971 125.572 39.3939 119.691 33.2957L119.691 33.2952C107.62 20.6846 87.5199 20.2583 74.9443 32.3701L74.944 32.3704C69.3989 37.6855 66.0163 44.6649 65.3177 52.2391C65.2471 53.0046 65.202 53.7724 65.1824 54.5426C65.0185 63.0159 68.1382 71.0188 74.0186 77.1168ZM128.141 55.8455L128.141 55.8464C127.957 64.1874 124.542 71.9973 118.502 77.7678C112.459 83.5766 104.56 86.6367 96.2157 86.4919L96.2147 86.4918C87.8352 86.3048 80.064 82.8929 74.2936 76.8534C68.4807 70.8485 65.4245 62.9105 65.5693 54.567L65.5693 54.5661C65.7528 46.2251 69.1683 38.4154 75.2078 32.6449C82.0195 26.1254 91.0309 23.2851 99.7445 24.0889C106.986 24.7568 114 27.9035 119.416 33.5587C125.229 39.5637 128.285 47.5019 128.141 55.8455Z" stroke="white" stroke-opacity="0.1" stroke-width="0.386534"/>
<path fill-rule="evenodd" clip-rule="evenodd" d="M72.151 58.1099C72.7601 63.2899 75.0106 68.3497 78.9037 72.4353C82.8003 76.4824 87.7734 78.9596 92.9376 79.7853C96.5344 80.3499 100.244 80.1098 103.79 79.1172C104.803 78.7965 105.808 78.4234 106.805 77.9978C109.431 76.8814 111.872 75.2433 114.083 73.157C116.214 71.1021 117.907 68.7352 119.149 66.2102C123.676 57.1174 122.238 45.7666 114.805 37.9774C107.33 30.2231 96.0535 28.329 86.7428 32.4776C84.1937 33.6011 81.7559 35.2007 79.6255 37.2556C77.453 39.3454 75.7176 41.7473 74.4719 44.3108C74.0204 45.2784 73.6178 46.2764 73.2641 47.3048C72.0907 50.7678 71.7114 54.4593 72.151 58.1099ZM73.6419 47.4173C73.9687 46.3994 74.369 45.427 74.8462 44.4618C76.0919 41.8983 77.7817 39.5698 79.9086 37.5534C81.9549 35.5684 84.3157 33.9617 86.9069 32.8033C90.7901 31.1042 95.0043 30.4448 99.0843 30.8211C104.819 31.3501 110.366 33.9191 114.507 38.2604C121.626 45.6713 123.351 56.8545 118.814 66.0628C117.571 68.5878 115.882 70.9162 113.8 72.8592C111.712 74.8792 109.313 76.4823 106.645 77.6336C105.713 78.0523 104.708 78.4255 103.672 78.7181C100.241 79.7214 96.5314 79.9615 92.9731 79.4004C87.6934 78.564 82.9199 76.0276 79.2016 72.1522C77.3213 70.232 75.8159 68.0358 74.6783 65.6406C73.5755 63.2875 72.8405 60.7354 72.543 58.0684C72.0963 54.4948 72.5141 50.8068 73.6419 47.4173Z" fill="#FF9138"/>
<path d="M103.725 78.9039C100.766 79.7691 97.6018 80.071 94.5032 79.7857C97.5837 80.0712 100.719 79.7759 103.735 78.9319C104.316 78.7479 104.895 78.5464 105.471 78.3276C104.905 78.5416 104.32 78.7358 103.725 78.9039ZM103.725 78.9039C103.726 78.9038 103.726 78.9036 103.726 78.9035L103.672 78.7181L103.725 78.904C103.725 78.904 103.725 78.9039 103.725 78.9039ZM72.3429 58.0867L72.343 58.0873C72.3946 58.5265 72.4582 58.9649 72.5336 59.4019C72.4612 58.9683 72.4002 58.5313 72.3511 58.0911C71.9009 54.4879 72.3223 50.7718 73.4582 47.3573C73.501 47.224 73.545 47.0915 73.5903 46.9597C73.5417 47.0949 73.494 47.2307 73.4471 47.367C72.2831 50.8023 71.9067 54.4647 72.3429 58.0867ZM79.0629 72.2868C78.5062 71.7183 77.9822 71.1258 77.4906 70.5114C77.975 71.126 78.4924 71.7234 79.0429 72.3012C80.6737 73.9949 82.4943 75.4115 84.439 76.5449C82.4797 75.3938 80.673 73.9648 79.0629 72.2868ZM106.722 77.8105C106.39 77.9599 106.049 78.1035 105.7 78.2397C106.044 78.1061 106.387 77.9662 106.729 77.82L106.729 77.8199C109.332 76.7135 111.754 75.089 113.95 73.0171C114.415 72.5684 114.86 72.1046 115.283 71.6274C114.853 72.1027 114.403 72.5608 113.933 72.9993C111.829 75.0346 109.411 76.6502 106.722 77.8105ZM79.7595 37.3949C77.6036 39.4688 75.8819 41.8518 74.6463 44.3941C74.5173 44.6706 74.3923 44.9496 74.2713 45.2312C74.3986 44.9451 74.5323 44.6606 74.6726 44.3767C75.9282 41.7931 77.6314 39.4462 79.7748 37.414C80.9356 36.288 82.197 35.2827 83.5438 34.4108C82.2101 35.2627 80.9375 36.2586 79.7597 37.3947L79.7595 37.3949ZM114.647 38.1268C120.553 44.2749 122.775 52.9983 120.826 61.0677C122.761 53.1623 120.714 44.4489 114.666 38.1112C110.652 33.9479 105.534 31.4871 100.219 30.7576C105.598 31.5035 110.742 34.0333 114.647 38.1268Z" stroke="white" stroke-opacity="0.1" stroke-width="0.386534"/>
<path fill-rule="evenodd" clip-rule="evenodd" d="M71.7571 58.1512C72.4147 63.6463 74.7843 68.6783 78.6075 72.6797C80.5575 74.684 82.732 76.3597 85.1416 77.5912C87.5091 78.8576 90.1466 79.722 92.8616 80.1665C93.3981 80.2419 93.9486 80.3056 94.5131 80.3576C97.6308 80.6452 100.84 80.359 103.872 79.4741C104.947 79.1851 105.994 78.777 106.964 78.3618C109.674 77.1756 112.157 75.5026 114.326 73.4512C116.456 71.3963 118.188 69.0329 119.518 66.3995C124.199 56.894 122.429 45.3573 115.059 37.7291C107.731 30.066 96.2937 27.8077 86.6188 32.1169C83.9086 33.3032 81.5058 34.9448 79.3789 36.9612C77.2065 39.051 75.4326 41.4494 74.1377 44.1248C73.6569 45.1285 73.2532 46.1393 72.8879 47.1537C71.7109 50.6552 71.321 54.4621 71.7571 58.1512ZM72.5411 58.0683C72.0943 54.4947 72.5121 50.8067 73.6399 47.4172C73.9667 46.3993 74.367 45.4269 74.8442 44.4617C76.0899 41.8982 77.7797 39.5697 79.9066 37.5533C81.9529 35.5683 84.3137 33.9616 86.9049 32.8032C90.7881 31.104 95.0024 30.4447 99.0823 30.821C104.817 31.35 110.364 33.9189 114.505 38.2603C121.624 45.6712 123.349 56.8544 118.812 66.0626C117.569 68.5877 115.88 70.9161 113.798 72.8591C111.71 74.8791 109.311 76.4822 106.643 77.6335C105.711 78.0522 104.706 78.4253 103.67 78.7179C100.239 79.7213 96.5294 79.9614 92.9711 79.4002C87.6915 78.5639 82.9179 76.0275 79.1996 72.1521C77.3194 70.2319 75.814 68.0357 74.6763 65.6405C73.5735 63.2874 72.8385 60.7353 72.5411 58.0683Z" fill="#910B5B"/>
<path d="M85.2295 77.4191L85.2296 77.4191L85.2327 77.4208C87.5795 78.6761 90.1958 79.534 92.8908 79.9754C93.4234 80.0502 93.9701 80.1135 94.5309 80.1652C97.6252 80.4506 100.81 80.1664 103.818 79.2886L103.818 79.2885L103.822 79.2875C104.883 79.0019 105.921 78.598 106.887 78.1844C109.575 77.0077 112.039 75.3478 114.193 73.3114C116.307 71.2722 118.025 68.927 119.345 66.3133C123.99 56.8806 122.233 45.4323 114.92 37.8634L114.919 37.8627C107.647 30.2584 96.2976 28.0176 86.6975 32.2935L86.6963 32.294C84.0083 33.4705 81.6242 35.0989 79.5125 37.1009C77.3558 39.1756 75.5961 41.5552 74.3119 44.2084C73.8351 45.2039 73.434 46.2077 73.0704 47.2172C71.9032 50.6908 71.5163 54.4683 71.949 58.1285C72.6017 63.5818 74.9528 68.5746 78.7466 72.5456C80.6841 74.5368 82.8417 76.1987 85.2295 77.4191ZM86.826 32.6267L86.8274 32.6261C90.7406 30.9138 94.9877 30.2492 99.1 30.6286C104.88 31.1617 110.471 33.7506 114.645 38.1267C121.82 45.5962 123.558 56.8669 118.985 66.148C117.733 68.6923 116.03 71.0396 113.931 72.9992C111.827 75.0344 109.409 76.6501 106.72 77.8104C105.781 78.2324 104.768 78.6086 103.723 78.9037C100.265 79.9148 96.5271 80.1566 92.941 79.5912L92.9409 79.5911C87.6189 78.7481 82.8076 76.1913 79.0609 72.2867C77.1653 70.3507 75.648 68.1368 74.5017 65.7235L74.5013 65.7225C73.3899 63.3511 72.6491 60.779 72.3491 58.091C71.8989 54.4878 72.3203 50.7716 73.4562 47.3572C73.786 46.33 74.1898 45.3493 74.6706 44.3767C75.9261 41.7931 77.6294 39.4461 79.7728 37.4138C81.8349 35.4137 84.2142 33.7944 86.826 32.6267Z" stroke="white" stroke-opacity="0.1" stroke-width="0.386534"/>
<path d="M62.3341 97.1862C62.5863 96.9765 62.7908 96.7237 62.9475 96.4276C64.7474 92.906 60.5034 84.2076 57.9483 84.5541C55.5122 84.8729 52.3166 87.9553 50.7068 90.6793C50.1561 91.5989 49.805 92.4593 49.6991 93.1871C49.2789 96.0596 59.801 99.398 62.3341 97.1862Z" fill="#51AEE0"/>
<path d="M62.207 97.0406L62.2069 97.0406L62.2105 97.0375C62.4426 96.8447 62.631 96.6121 62.776 96.3384C63.199 95.5098 63.2759 94.3533 63.0936 93.065C62.912 91.7812 62.4766 90.3922 61.9047 89.1195C61.3326 87.8461 60.6285 86.6994 59.9159 85.8962C59.5595 85.4944 59.2062 85.1847 58.872 84.9867C58.5371 84.7882 58.2357 84.7102 57.9743 84.7457L57.9734 84.7458C56.8134 84.8976 55.4414 85.7165 54.1456 86.8597C52.8554 87.9978 51.6673 89.4339 50.8731 90.7776L50.8726 90.7785C50.3289 91.6866 49.9912 92.5221 49.8903 93.2149L49.8903 93.2151C49.8471 93.5103 49.9414 93.8276 50.176 94.1638C50.411 94.5007 50.7782 94.8431 51.2512 95.1769C52.1968 95.8442 53.5319 96.4542 54.9675 96.909C56.4021 97.3636 57.9241 97.6592 59.2389 97.7053C60.567 97.7518 61.633 97.5418 62.207 97.0406Z" stroke="white" stroke-opacity="0.1" stroke-width="0.386534"/>
<g opacity="0.6">
<path d="M62.3352 97.1866C62.5874 96.9769 62.7919 96.7241 62.9486 96.428C60.5409 96.4388 58.1445 95.9072 55.9866 94.893C54.9829 94.4122 54.0668 93.8231 53.1998 93.1221C52.426 92.5331 51.7107 91.8719 51.0537 91.1385C50.9373 90.9984 50.822 90.8454 50.7079 90.6796C50.1572 91.5993 49.8062 92.4597 49.7002 93.1874C49.28 96.06 59.8021 99.3984 62.3352 97.1866Z" fill="#1C7FB3"/>
<path d="M62.2081 97.041L62.208 97.0409L62.2117 97.0379C62.36 96.9146 62.4905 96.7752 62.6032 96.6191C60.2838 96.5801 57.9848 96.0457 55.9044 95.0679L55.9044 95.0679L55.9031 95.0673C54.8857 94.58 53.9577 93.9832 53.0805 93.2741C52.2977 92.6781 51.5741 92.0092 50.9098 91.2675L50.9097 91.2675L50.9051 91.262C50.8447 91.1893 50.7847 91.1134 50.7251 91.0344C50.2683 91.8436 49.9828 92.5879 49.8915 93.2153L49.8914 93.2154C49.8483 93.5106 49.9426 93.828 50.1771 94.1642C50.4121 94.5011 50.7793 94.8435 51.2524 95.1773C52.1979 95.8446 53.5331 96.4545 54.9686 96.9094C56.4032 97.364 57.9252 97.6596 59.24 97.7056C60.5681 97.7522 61.6341 97.5422 62.2081 97.041Z" stroke="white" stroke-opacity="0.1" stroke-width="0.386534"/>
</g>
</g>
</svg>
