<svg width="327" height="401" viewBox="0 0 327 401" fill="none" xmlns="http://www.w3.org/2000/svg">
<path d="M107.716 236.425C55.6961 236.245 45.7407 267.457 38.3862 260.192C34.7986 256.515 34.3502 251.134 36.3233 244.766C43.1397 222.433 78.8359 187.813 103.5 172.925C107.536 170.503 111.303 168.62 114.532 167.364C122.694 162.162 128.165 232.568 107.716 236.425Z" fill="#00C4F6"/>
<path d="M86.2792 193.017C81.6154 196.425 77.0412 199.923 72.7361 203.779C68.7001 207.367 64.4848 211.941 62.2425 216.964C61.7044 218.13 62.8704 219.475 64.0363 218.758C68.7898 216.246 73.0052 212.3 76.8619 208.623C81.0773 204.856 85.2029 200.999 89.5977 197.412C92.0193 195.438 88.7905 191.133 86.2792 193.017Z" fill="#A8E1FF"/>
<path opacity="0.6" d="M107.716 236.425C55.6961 236.245 45.7407 267.457 38.3862 260.192C34.7986 256.515 34.3502 251.134 36.3233 244.766C38.9243 244.317 41.9737 244.856 44.6644 244.945C52.3776 245.214 59.4631 241.178 65.5619 236.604C72.1092 231.761 78.0287 226.021 83.141 219.563C92.1996 208.352 98.7468 195.078 102.245 181.087C102.783 178.755 103.052 175.795 103.5 172.925C107.536 170.503 111.303 168.62 114.532 167.364C122.694 162.162 128.165 232.568 107.716 236.425Z" fill="#08BAE8"/>
<path d="M53.9919 223.509C52.9156 224.765 51.7496 226.021 50.7631 227.366C49.9559 228.532 48.7002 230.595 49.9559 231.85C51.2115 233.106 52.8259 231.671 53.8125 230.864C55.2475 229.877 56.3238 228.263 57.4001 226.918C58.2969 225.931 58.3866 224.496 57.4001 223.509C56.5929 222.613 54.8888 222.523 53.9919 223.509Z" fill="#A8E1FF"/>
<path d="M260.457 349.971C241.533 356.518 222.608 365.218 205.209 376.16C105.295 320.912 109.869 220.191 108.165 166.557C108.046 163.149 107.896 159.92 107.717 156.871C107.717 156.871 126.641 144.494 150.947 135.525C184.67 123.148 221.622 119.919 241.353 149.696C240.875 155.914 240.456 161.983 240.098 167.902C233.461 275.888 243.685 322.706 260.457 349.971Z" fill="#00C4F6"/>
<path d="M240.006 357.951C235.283 359.984 230.619 362.167 226.015 364.499C217.853 361.718 206.014 354.274 189.96 341.807C143.321 305.483 124.756 222.521 124.756 163.685C124.756 163.685 233.459 117.316 224.759 157.676C215.611 199.92 217.315 275.169 233.01 322.345C238.571 338.848 241.082 350.776 240.006 357.951Z" fill="#A8E1FF"/>
<path opacity="0.2" d="M241.353 149.694C240.875 155.913 240.456 161.982 240.098 167.901C224.94 185.749 202.339 197.409 178.93 198.485C152.113 199.831 125.027 187.364 108.165 166.556C108.046 163.148 107.896 159.919 107.717 156.87C107.717 156.87 126.641 144.493 150.947 135.524C178.93 133.371 207.361 135.972 234.896 141.622C237.228 143.954 239.38 146.645 241.353 149.694Z" fill="#1C7FB3"/>
<path d="M210.052 280.013C210.5 285.932 211.397 291.852 212.832 297.682C213.998 302.704 215.971 309.252 219.648 313.018C220.724 314.184 222.518 313.288 222.608 311.853C222.877 306.74 220.725 300.731 219.469 295.798C218.034 290.327 216.778 284.766 215.881 279.206C215.343 275.887 209.693 276.605 210.052 280.013Z" fill="#E0F5FF"/>
<path d="M221.8 326.024C222.428 327.908 223.056 329.701 223.953 331.495C224.76 333.11 225.298 334.903 226.733 336.069C227.63 336.787 228.975 336.607 229.334 335.442C229.782 333.648 229.334 331.944 228.975 330.15C228.616 328.177 228.078 326.383 227.451 324.5C226.285 320.912 220.634 322.437 221.8 326.024Z" fill="#E0F5FF"/>
<path d="M169.063 2.87383C168.525 1.61819 167.628 0.0934633 166.193 0.00377437C164.669 -0.0859146 163.682 1.43881 162.965 2.87383C159.556 9.77988 156.866 16.955 154.893 24.3992L175.342 24.5786C174.176 17.1344 172.113 9.77988 169.063 2.87383Z" fill="#00C4F6"/>
<path d="M228.167 163.509C212.382 171.132 191.126 181.536 167.717 181.626C144.667 181.626 123.68 171.581 107.894 164.137C77.1311 149.786 73.3642 125.75 87.1763 107.543C91.7505 101.534 94.2617 94.1793 94.1721 86.5557C93.3649 49.4245 126.012 18.1231 167.538 18.0334C209.422 17.9437 241.89 49.6039 241.262 86.0176C241.172 93.7309 243.504 101.265 248.078 107.364C261.442 125.212 258.303 148.8 228.167 163.509Z" fill="#00C4F6"/>
<path d="M219.7 114.1C219 114.1 218.3 113.7 217.9 113C213.5 104.3 208.1 100.1 201.9 99.9004C201.767 99.9004 201.667 99.9004 201.6 99.9004C195.5 99.9004 190.5 103.9 186.6 112.1C186.2 113.1 185 113.6 184 113.1C183 112.6 182.5 111.4 183 110.4C187.6 100.7 193.9 95.9004 201.6 95.9004C201.733 95.9004 201.833 95.9004 201.9 95.9004C209.7 96.1004 216.4 101.2 221.5 111.2C222 112.2 221.6 113.4 220.6 113.9C220.333 114.034 220.033 114.1 219.7 114.1Z" fill="black"/>
<path d="M230.053 162.609C229.395 162.908 228.767 163.207 228.169 163.506C208.617 173.013 189.513 181.534 167.719 181.623C146.014 181.623 126.91 173.103 107.896 164.134C107.298 163.895 106.7 163.596 106.102 163.237C100.721 155.703 100.004 147.452 102.515 141.174C104.578 135.972 109.152 131.756 114.713 130.77C124.22 129.066 134.803 137.138 143.592 132.384C151.306 128.259 158.84 125.209 167.808 125.299C176.777 125.478 184.401 127.989 192.024 132.295C200.635 137.048 211.397 128.797 220.994 130.501C232.654 132.564 239.739 147.9 230.053 162.609Z" fill="#A8E1FF"/>
<path d="M125.956 91C135.396 91 143 98.1753 143 107C143 115.825 135.396 123 125.956 123C116.604 123 109 115.825 109 107C109 98.1753 116.604 91 125.956 91Z" fill="white"/>
<path fill-rule="evenodd" clip-rule="evenodd" d="M125.923 123.093C121.08 123.093 116.506 122.21 113.098 118.801C109.6 115.304 107.627 113.729 107.627 108.797C107.627 103.953 109.51 99.3792 113.008 95.8813C116.416 92.3835 120.991 90.5 125.923 90.5C130.856 90.5 135.431 92.3835 138.839 95.7917C142.337 99.2895 144.22 103.864 144.31 108.707C144.31 118.842 136.148 123.093 126.013 123.093C126.013 123.093 125.983 123.093 125.923 123.093ZM125.923 92.2938C121.529 92.2938 117.403 93.9979 114.264 97.137C111.125 100.276 109.421 104.402 109.421 108.797C109.421 113.281 111.215 114.407 114.354 117.456C117.403 120.595 121.529 121.299 125.923 121.299C125.983 121.299 126.013 121.299 126.013 121.299C135.161 121.299 142.516 117.855 142.516 108.707C142.426 104.312 140.722 100.186 137.583 97.0473C134.534 93.9979 130.318 92.2938 125.923 92.2938Z" fill="black"/>
<path d="M142.246 110.144C142.246 117.229 136.596 122.97 129.51 122.97C122.425 122.97 116.685 117.319 116.685 110.234C116.595 103.148 122.335 97.4082 129.42 97.4082C133.187 97.4082 136.506 98.9329 138.838 101.534C134.264 104.045 131.394 107.633 132.47 109.606C133.546 111.489 137.762 111.131 142.246 108.888C142.246 109.307 142.246 109.725 142.246 110.144Z" fill="black"/>
<path d="M136.237 80.636C136.237 82.4298 128.5 81 128.5 81C128.5 81 120.541 82.5195 120.541 80.636C120.541 78.8422 124.039 75.7031 128.344 75.7031C132.739 75.7031 136.237 78.8422 136.237 80.636Z" fill="#00B0DF"/>
<path d="M208.948 84.4544C208.948 86.2482 205.45 86.1585 201.055 86.1585C196.75 86.1585 193.252 86.3379 193.252 84.5441C193.252 82.6606 196.75 79.5215 201.055 79.5215C205.36 79.5215 208.948 82.6606 208.948 84.4544Z" fill="#00B0DF"/>
<path d="M143.143 135.077C142.874 135.077 142.605 134.898 142.426 134.718C142.157 134.36 142.247 133.732 142.605 133.463C149.87 127.543 159.018 124.314 168.346 124.314C168.406 124.314 168.436 124.314 168.436 124.314C177.763 124.314 186.912 127.543 194.177 133.373C194.625 133.642 194.625 134.18 194.356 134.629C193.997 134.987 193.459 135.077 193.1 134.718C186.104 129.158 177.405 126.108 168.436 126.108C168.436 126.108 168.406 126.108 168.346 126.108C159.467 126.108 150.677 129.247 143.771 134.808C143.592 134.987 143.383 135.077 143.143 135.077Z" fill="#00B0DF"/>
<path d="M166.642 150.323C142.157 150.323 127.627 147.632 112.021 133.372C111.662 133.103 111.662 132.475 112.021 132.116C112.29 131.757 112.918 131.757 113.277 132.116C128.524 146.108 142.964 148.619 167.628 148.529C195.073 148.44 211.396 143.238 220.545 131.668C220.814 131.309 221.352 131.219 221.8 131.578C222.159 131.847 222.249 132.385 221.89 132.834C209.782 148.17 186.553 150.233 167.628 150.323C167.329 150.323 167 150.323 166.642 150.323Z" fill="black"/>
<path d="M228.168 135.794C227.929 135.794 227.72 135.734 227.541 135.614C224.94 133.103 217.854 130.502 211.755 132.296C211.307 132.475 210.769 132.206 210.589 131.668C210.5 131.22 210.769 130.681 211.217 130.592C218.034 128.529 225.837 131.399 228.796 134.269C229.155 134.628 229.155 135.256 228.796 135.525C228.617 135.704 228.348 135.794 228.168 135.794Z" fill="black"/>
<path d="M105.384 137.857C105.145 137.857 104.935 137.797 104.756 137.677C104.397 137.318 104.397 136.78 104.666 136.422C107.267 133.552 110.406 131.578 113.546 130.861C116.954 129.964 120.541 130.412 124.039 130.951C124.488 131.04 124.846 131.489 124.757 131.937C124.667 132.475 124.219 132.834 123.68 132.744C120.452 132.206 117.043 131.848 113.994 132.565C111.124 133.283 108.344 135.076 106.012 137.588C105.832 137.767 105.563 137.857 105.384 137.857Z" fill="black"/>
<path d="M167.629 174.898C163.324 174.898 159.109 174.181 155.073 172.656C154.624 172.477 154.355 171.938 154.535 171.49C154.714 171.042 155.252 170.773 155.701 170.952C163.683 174.001 172.831 173.822 180.724 170.503C181.172 170.324 181.71 170.593 181.89 171.042C182.069 171.49 181.8 172.028 181.352 172.208C177.047 174.001 172.293 174.898 167.629 174.898Z" fill="#00B0DF"/>
<path d="M195.252 146.914C181.53 154.358 180.992 163.417 167.628 164.045C154.354 164.583 150.587 154.179 137.852 146.914C146.91 148.618 157.404 149.425 167.628 149.425C177.853 149.336 186.194 148.618 195.252 146.914Z" fill="#961662"/>
<path fill-rule="evenodd" clip-rule="evenodd" d="M166.64 164.941C158.479 164.941 153.815 160.815 148.523 156.062C145.384 153.371 141.976 150.322 137.402 147.721C137.043 147.452 136.864 147.003 137.043 146.555C137.133 146.196 137.581 145.927 138.03 146.017C146.55 147.631 156.775 148.528 167.627 148.528C178.121 148.438 186.282 147.721 195.072 146.017C195.431 145.927 195.879 146.106 196.058 146.555C196.238 147.003 196.058 147.452 195.61 147.631C190.139 150.68 186.82 153.909 183.861 156.779C179.645 160.995 175.968 164.582 167.717 164.941C167.358 164.941 166.999 164.941 166.64 164.941ZM142.066 148.528C145.025 150.591 147.447 152.743 149.689 154.716C155.16 159.649 159.465 163.506 167.627 163.147C175.161 162.788 178.3 159.739 182.605 155.524C184.847 153.371 187.269 150.949 190.677 148.618C183.502 149.783 176.327 150.232 167.627 150.322C158.479 150.322 149.779 149.694 142.066 148.528Z" fill="black"/>
<mask id="mask0_369_2893" style="mask-type:luminance" maskUnits="userSpaceOnUse" x="137" y="146" width="59" height="19">
<path d="M195.206 146.869C181.51 154.385 181.017 163.453 167.671 164.036C154.316 164.61 150.603 154.179 137.85 146.905C146.926 148.654 157.42 149.416 167.635 149.389C177.842 149.362 186.174 148.654 195.206 146.869Z" fill="white"/>
</mask>
<g mask="url(#mask0_369_2893)">
<path d="M193.097 163.057C186.371 157.047 177.133 153.908 168.164 154.357C159.105 154.895 150.405 159.021 144.307 165.747C145.383 167.989 147.177 169.335 149.598 169.873C164.218 173.371 179.913 170.142 193.097 163.057Z" fill="#F037A5"/>
</g>
<path d="M189.96 34.6242C195.431 37.0458 200.544 40.2746 205.028 44.4002C207.091 46.3734 208.974 48.4363 210.948 50.4094C213.01 52.4723 214.535 55.3423 217.046 56.867C218.392 57.6742 220.186 56.598 220.096 55.0733C220.006 52.0238 217.943 49.3332 216.329 46.9116C214.445 43.9518 212.203 41.4405 209.513 39.1983C204.4 34.8035 198.66 31.3954 192.292 28.9738C189.063 27.6285 186.732 33.1892 189.96 34.6242Z" fill="#A8E1FF"/>
<path d="M220.097 66.2867C221.353 69.2465 222.16 73.3722 224.851 75.435C225.568 75.9732 226.645 75.8835 227.003 74.8072C228.08 71.399 225.927 67.4527 224.671 64.3136C223.326 60.9951 218.662 62.8786 220.097 66.2867Z" fill="#A8E1FF"/>
<path d="M168.615 134.446C171.306 134.626 173.727 135.164 176.239 135.881C178.481 136.509 180.723 137.855 183.055 137.585C184.58 137.406 185.835 135.881 184.849 134.446C181.889 129.783 173.548 129.513 168.615 129.693C165.566 129.872 165.566 134.267 168.615 134.446Z" fill="#E0F5FF"/>
<path d="M304.583 272.389C296.511 278.667 290.502 246.469 238.841 240.19C230.769 237.589 227.809 224.495 228.796 210.324C229.244 203.328 230.231 195.525 231.935 187.991C232.832 183.776 233.908 179.74 235.254 175.883C236.778 171.578 239.021 169.516 240.545 170.861C262.788 182.61 304.404 231.132 308.709 257.769C309.696 264.137 308.619 269.339 304.583 272.389Z" fill="#00C4F6"/>
<path d="M264.403 211.581C268.708 214.989 272.564 218.666 276.152 222.702C277.766 224.585 279.201 226.648 280.905 228.621C282.52 230.505 284.224 233.106 286.376 234.362C287.722 235.079 289.695 234.182 289.605 232.478C289.426 229.877 287.811 227.814 286.556 225.572C285.121 222.971 283.148 220.639 281.174 218.397C277.228 214.092 272.833 210.325 268.17 206.827C265.389 204.764 261.712 209.428 264.403 211.581Z" fill="#A8E1FF"/>
<path d="M291.129 244.676C292.205 246.291 293.192 248.174 293.999 249.968C294.358 250.685 295.344 251.134 296.151 251.134C296.6 251.134 296.959 251.044 297.407 250.775C298.394 250.237 298.752 249.161 298.483 248.084C298.124 245.753 297.317 243.779 296.151 241.806C294.178 238.577 289.156 241.627 291.129 244.676Z" fill="#A8E1FF"/>
<path d="M304.583 272.389C296.511 278.668 290.502 246.469 238.841 240.191C230.769 237.59 227.809 224.496 228.796 210.325C228.886 208.172 228.796 207.096 230.5 197.051C236.509 230.774 258.214 230.774 273.013 240.371C285.031 248.084 300.727 265.842 306.108 264.138C307.991 263.6 308.26 259.743 308.709 257.77C309.696 264.138 308.619 269.34 304.583 272.389Z" fill="#08BAE8"/>
<path d="M234.177 366.296C229.334 372.664 223.684 378.225 217.495 382.978C199.289 396.791 176.059 403.159 152.74 400.288C127.896 397.239 100.182 390.243 69.1498 378.225C34.2608 364.592 71.4818 372.754 110.586 364.144C118.838 362.35 126.91 360.287 135.251 356.7C144.13 352.933 153.368 347.462 163.234 338.852C175.969 354.906 267.452 322.528 234.177 366.296Z" fill="#00C4F6"/>
<path d="M234.177 366.296C229.334 372.664 223.683 378.225 217.495 382.978C217.495 380.377 216.957 377.777 215.88 375.534C213.459 369.974 208.616 365.938 203.414 362.798C192.741 356.52 180.184 354.099 167.807 353.83C156.865 353.65 146.013 355.085 135.25 356.7C144.129 352.933 153.367 347.462 163.233 338.852C175.969 354.906 267.451 322.528 234.177 366.296Z" fill="#08BAE8"/>
<path d="M301.085 263.602C308.619 263.602 314.718 269.7 314.718 277.234C314.718 284.678 308.619 290.777 301.085 290.777C293.551 290.777 287.452 284.678 287.452 277.234C287.452 269.7 293.551 263.602 301.085 263.602Z" fill="#B8E6FF"/>
<path fill-rule="evenodd" clip-rule="evenodd" d="M301.084 291.673C293.102 291.673 286.555 285.215 286.555 277.143C286.555 269.161 293.102 262.703 301.084 262.703C309.067 262.703 315.614 269.161 315.614 277.143C315.614 285.215 309.067 291.673 301.084 291.673ZM301.084 264.497C294.089 264.497 288.348 270.147 288.348 277.143C288.348 284.228 294.089 289.879 301.084 289.879C308.08 289.879 313.82 284.228 313.82 277.143C313.82 270.147 308.08 264.497 301.084 264.497Z" fill="#B8E6FF"/>
<path d="M321.175 365.13C318.035 368.269 312.923 368.269 309.784 365.13C306.645 361.99 306.645 356.878 309.784 353.739C312.923 350.6 318.035 350.6 321.175 353.739C324.314 356.878 324.314 361.99 321.175 365.13Z" fill="#B8E6FF"/>
<path d="M275.433 389.433C273.191 391.676 269.604 391.676 267.361 389.433C265.119 387.191 265.119 383.604 267.361 381.361C269.604 379.119 273.191 379.119 275.433 381.361C277.676 383.604 277.676 387.191 275.433 389.433Z" fill="#B8E6FF"/>
<path d="M326.109 307.816C326.109 310.955 323.508 313.467 320.369 313.467C317.23 313.467 314.719 310.955 314.719 307.816C314.719 304.677 317.23 302.076 320.369 302.076C323.508 302.076 326.109 304.677 326.109 307.816Z" fill="#B8E6FF"/>
<path fill-rule="evenodd" clip-rule="evenodd" d="M320.368 314.364C316.78 314.364 313.82 311.404 313.82 307.817C313.82 304.139 316.78 301.18 320.368 301.18C324.045 301.18 327.005 304.139 327.005 307.817C327.005 311.404 324.045 314.364 320.368 314.364ZM320.368 302.973C317.767 302.973 315.614 305.126 315.614 307.817C315.614 310.418 317.767 312.57 320.368 312.57C323.058 312.57 325.211 310.418 325.211 307.817C325.211 305.126 323.058 302.973 320.368 302.973Z" fill="#B8E6FF"/>
<path d="M43.0495 257.411C42.0629 245.572 42.6011 232.477 50.4937 223.598C56.8616 216.423 66.9068 213.553 76.5035 213.284C86.1002 212.925 95.6073 214.898 105.114 215.616C131.483 217.768 157.672 211.311 183.682 206.468C209.692 201.624 237.047 198.396 262.16 206.647C273.64 210.414 285.299 217.768 288.169 229.518C292.295 246.379 276.51 262.164 276.42 279.474C276.33 300.103 298.035 317.323 294.089 337.593C291.936 348.535 282.25 356.876 271.577 360.015C260.814 363.154 249.334 361.898 238.482 359.208C227.629 356.607 217.136 352.661 206.194 350.508C165.744 342.705 124.577 359.925 83.4095 358.311C66.9068 357.773 48.5205 352.661 40.4485 338.31C33.2734 325.754 36.0538 309.969 40.2691 296.874C44.5742 283.331 44.2155 271.671 43.0495 257.411Z" fill="white"/>
<path d="M100.808 249.391L103.806 249.243L104.381 260.943C104.415 261.642 104.947 261.887 105.33 261.868L106.435 261.814L106.583 264.835L104.464 264.939C102.864 265.017 101.517 263.818 101.437 262.195L100.808 249.391ZM106.139 264.856L105.991 261.836L110.477 261.615C110.86 261.596 111.343 261.302 111.308 260.603L110.979 253.908L114 253.759L114.383 261.559C114.463 263.182 113.24 264.508 111.639 264.586L106.139 264.856ZM108.854 270.44C107.907 270.487 107.033 269.716 106.985 268.747C106.939 267.8 107.732 266.925 108.679 266.878C109.648 266.831 110.501 267.625 110.547 268.572C110.595 269.541 109.823 270.393 108.854 270.44ZM113.678 270.203C112.709 270.251 111.857 269.479 111.81 268.51C111.763 267.563 112.534 266.689 113.503 266.641C114.472 266.594 115.325 267.388 115.371 268.335C115.419 269.304 114.647 270.156 113.678 270.203ZM126.603 260.823L129.037 260.703L129.186 263.724L117.441 264.301L117.293 261.28L123.605 260.97L123.442 257.657C123.378 256.349 122.432 255.492 121.102 255.557L118.126 255.703L117.978 252.682L120.953 252.536C123.929 252.39 126.294 254.534 126.44 257.509L126.603 260.823ZM137.504 260.287L139.691 260.18L139.839 263.201L137.225 263.329C136.165 263.381 135.193 262.909 134.412 262.202C133.75 262.98 132.738 263.55 131.251 263.623L128.861 263.74L127.53 263.331L127.43 261.28L128.713 260.719L131.125 260.601C132.5 260.533 132.752 259.685 132.703 258.693L132.565 255.875L132.394 252.855L135.437 252.706L135.664 257.327C135.675 257.553 135.686 257.778 135.677 258.05L135.701 258.546C135.75 259.538 136.129 260.355 137.504 260.287ZM131.648 265.727C132.595 265.681 133.446 266.452 133.493 267.399C133.541 268.391 132.769 269.22 131.822 269.267C130.852 269.314 130.002 268.565 129.953 267.573C129.907 266.626 130.678 265.775 131.648 265.727ZM136.449 265.491C137.419 265.444 138.27 266.215 138.317 267.162C138.365 268.154 137.593 268.983 136.623 269.031C135.654 269.078 134.804 268.329 134.755 267.337C134.708 266.39 135.48 265.539 136.449 265.491ZM140.797 247.426L143.818 247.278L144.447 260.082C144.527 261.705 143.326 263.029 141.703 263.109L139.562 263.214L138.231 262.805L138.13 260.754L139.413 260.194L140.54 260.138C140.924 260.119 141.406 259.825 141.372 259.126L140.797 247.426ZM170.283 258.677L171.275 258.628L171.424 261.649L170.004 261.719C168.944 261.771 167.949 261.3 167.19 260.569C166.506 261.371 165.495 261.94 164.007 262.013L156.433 262.386C153.57 262.526 151.299 260.468 151.159 257.605L151.001 254.404L154.022 254.256L154.179 257.457C154.238 258.652 155.09 259.423 156.284 259.365L163.881 258.992C165.234 258.925 165.532 258.097 165.507 257.126L164.95 246.239L167.97 246.091L168.503 256.934C168.552 257.926 168.908 258.745 170.283 258.677ZM161.851 252.154L161.929 253.755L156.947 253.999L156.869 252.399L157.658 252.36C157.324 252.015 157.077 251.575 157.047 250.966C156.986 249.726 157.753 248.785 159.196 248.714C160.548 248.648 161.54 249.503 161.662 251.079L160.197 251.151C160.147 250.588 159.703 250.294 159.297 250.313C158.914 250.332 158.565 250.598 158.589 251.071C158.604 251.387 158.79 251.943 159.461 252.271L161.851 252.154ZM179.838 258.208L182.025 258.1L182.173 261.121L179.558 261.249C178.499 261.301 177.527 260.829 176.746 260.122C176.084 260.9 175.072 261.47 173.584 261.543L171.195 261.66L169.864 261.251L169.763 259.2L171.047 258.64L173.459 258.521C174.834 258.453 175.086 257.605 175.037 256.613L174.899 253.795L174.728 250.776L177.771 250.626L177.998 255.247C178.009 255.473 178.02 255.698 178.011 255.97L178.035 256.466C178.084 257.458 178.463 258.275 179.838 258.208ZM173.982 263.647C174.928 263.601 175.78 264.373 175.826 265.319C175.875 266.311 175.102 267.14 174.156 267.187C173.186 267.234 172.336 266.485 172.287 265.493C172.241 264.547 173.012 263.695 173.982 263.647ZM178.783 263.412C179.753 263.364 180.604 264.136 180.651 265.082C180.699 266.074 179.926 266.903 178.957 266.951C177.988 266.998 177.137 266.249 177.089 265.257C177.042 264.311 177.814 263.459 178.783 263.412ZM181.58 261.15L181.432 258.129L183.528 258.026C183.911 258.007 184.394 257.713 184.36 257.014L184.031 250.319L187.051 250.17L187.435 257.97C187.514 259.593 186.291 260.919 184.691 260.997L181.58 261.15ZM185.494 267.217C184.524 267.265 183.673 266.493 183.625 265.524C183.579 264.577 184.349 263.703 185.319 263.655C186.288 263.608 187.14 264.402 187.187 265.349C187.235 266.318 186.463 267.17 185.494 267.217ZM194.017 244.811L197.015 244.664L197.59 256.364C197.624 257.063 198.156 257.308 198.539 257.289L199.644 257.235L199.792 260.255L197.673 260.359C196.073 260.438 194.726 259.239 194.646 257.616L194.017 244.811ZM206.977 256.874L208.285 256.81L208.433 259.831L206.72 259.915C205.66 259.967 204.665 259.496 203.884 258.766C203.223 259.567 202.211 260.136 200.723 260.21L199.484 260.27L198.153 259.861L198.052 257.81L199.335 257.25L200.62 257.187C201.995 257.119 202.247 256.271 202.198 255.279L202.06 252.461L201.889 249.441L204.932 249.292L205.159 253.913C205.171 254.138 205.182 254.364 205.171 254.613L205.197 255.131C205.245 256.123 205.625 256.941 206.977 256.874ZM204.055 262.712C205.002 262.666 205.853 263.437 205.9 264.384C205.949 265.376 205.176 266.205 204.229 266.252C203.26 266.299 202.409 265.55 202.361 264.558C202.314 263.611 203.086 262.76 204.055 262.712ZM218.591 253.569C219.912 256.081 220.571 256.161 220.934 256.189L221.083 259.209L207.873 259.858L206.542 259.449L206.441 257.398L207.724 256.838L216.719 256.396C216.384 256.028 215.864 255.104 215.298 254.16C213.608 251.487 211.802 250.152 208.461 251.604L208.325 248.831C212.466 247.114 216.085 249.015 218.591 253.569ZM229.797 255.753L229.946 258.774L228.03 258.868L228.037 259.026C228.178 261.889 226.12 264.159 223.257 264.3L222.153 264.354L222.004 261.333L223.109 261.279C224.304 261.22 225.075 260.369 225.017 259.174L224.474 248.128L227.495 247.98L227.881 255.847L229.797 255.753ZM236.647 246.784C239.555 246.642 241.873 248.742 242.017 251.673L242.08 252.958C242.219 255.776 240.078 258.208 237.328 258.343C235.953 258.411 234.623 258.024 233.57 257.285C232.911 258.131 231.876 258.679 230.659 258.739L229.667 258.788L228.336 258.378L228.234 256.304L229.519 255.767L230.51 255.718C231.232 255.683 231.703 255.162 231.667 254.418L231.557 252.187C231.413 249.256 233.491 246.939 236.422 246.795L236.647 246.784ZM239.059 253.106L238.996 251.821C238.933 250.536 238.058 249.743 236.796 249.805L236.57 249.816C235.308 249.878 234.492 250.754 234.555 252.039L234.668 254.339C235.267 255.032 236.21 255.37 237.18 255.323C238.262 255.269 239.117 254.278 239.059 253.106ZM104.882 297.934L105.03 300.954L103.114 301.048L103.122 301.206C103.262 304.069 101.205 306.34 98.3416 306.48L97.237 306.535L97.0886 303.514L98.1932 303.46C99.388 303.401 100.16 302.549 100.101 301.355L99.5582 290.309L102.579 290.16L102.966 298.028L104.882 297.934ZM113.327 297.519L115.514 297.411L115.662 300.432L113.047 300.56C111.988 300.613 111.015 300.141 110.235 299.433C109.572 300.211 108.561 300.781 107.073 300.854L104.684 300.971L103.353 300.562L103.252 298.511L104.535 297.951L106.947 297.832C108.322 297.765 108.574 296.916 108.526 295.924L108.387 293.106L108.216 290.087L111.26 289.937L111.487 294.558C111.498 294.784 111.509 295.009 111.5 295.281L111.524 295.777C111.573 296.769 111.952 297.586 113.327 297.519ZM107.47 302.959C108.417 302.912 109.269 303.684 109.315 304.631C109.364 305.622 108.591 306.451 107.644 306.498C106.675 306.545 105.825 305.796 105.776 304.804C105.729 303.858 106.501 303.006 107.47 302.959ZM112.272 302.723C113.241 302.675 114.093 303.447 114.139 304.394C114.188 305.385 113.415 306.214 112.446 306.262C111.477 306.31 110.626 305.56 110.577 304.569C110.531 303.622 111.303 302.77 112.272 302.723ZM134.51 296.478L135.795 296.415L135.943 299.436L134.658 299.499C133.668 299.57 132.811 299.16 132.259 298.487C131.662 299.217 130.804 299.688 129.519 299.751L128.143 299.819C127.129 299.869 126.247 299.392 125.765 298.783C125.239 299.577 124.311 300.007 123.049 300.069L121.786 300.131C120.749 300.182 119.847 299.752 119.362 299.075C118.836 299.869 117.999 300.317 116.151 300.408L115.407 300.445L114.076 300.035L113.975 297.984L115.258 297.424L115.754 297.399C116.791 297.348 117.261 296.783 117.217 295.904L116.993 291.328L119.946 291.183L120.193 295.758C120.24 296.705 120.804 297.151 121.615 297.111L122.314 297.077C123.148 297.036 123.663 296.469 123.62 295.589L123.395 291.013L126.325 290.869L126.55 295.445C126.593 296.325 127.184 296.838 128.04 296.796L128.762 296.76C129.641 296.717 130.11 296.152 130.067 295.273L129.731 288.442L132.662 288.298L132.997 295.129C133.041 296.008 133.586 296.523 134.51 296.478ZM144.433 295.99L146.62 295.883L146.768 298.904L144.153 299.032C143.094 299.084 142.122 298.612 141.341 297.905C140.679 298.683 139.667 299.253 138.18 299.326L135.79 299.443L134.459 299.034L134.359 296.983L135.642 296.422L138.054 296.304C139.429 296.236 139.681 295.388 139.632 294.396L139.494 291.578L139.323 288.558L142.366 288.409L142.593 293.03C142.604 293.256 142.615 293.481 142.606 293.753L142.63 294.249C142.679 295.241 143.058 296.058 144.433 295.99ZM138.577 301.43C139.524 301.384 140.375 302.155 140.422 303.102C140.47 304.094 139.697 304.923 138.751 304.97C137.781 305.017 136.931 304.268 136.882 303.276C136.836 302.329 137.607 301.478 138.577 301.43ZM143.378 301.194C144.348 301.147 145.199 301.918 145.246 302.865C145.294 303.857 144.522 304.686 143.552 304.734C142.583 304.781 141.733 304.032 141.684 303.04C141.637 302.093 142.409 301.242 143.378 301.194ZM148.305 286.626C147.335 286.673 146.484 285.902 146.436 284.932C146.39 283.986 147.16 283.112 148.13 283.064C149.099 283.016 149.952 283.811 149.998 284.757C150.046 285.727 149.274 286.578 148.305 286.626ZM153.129 286.389C152.16 286.436 151.308 285.665 151.26 284.695C151.214 283.749 151.985 282.875 152.954 282.827C153.901 282.78 154.753 283.575 154.8 284.521C154.847 285.491 154.076 286.342 153.129 286.389ZM146.333 298.925L146.184 295.904L149.701 295.732C150.084 295.713 150.567 295.418 150.533 294.719L150.204 288.024L153.224 287.875L153.608 295.675C153.687 297.298 152.487 298.623 150.864 298.703L146.333 298.925ZM181.843 294.153L184.503 294.022L184.651 297.043L178.971 297.322L178.551 288.778L177.131 288.848C175.958 288.905 175.209 289.756 175.267 290.928L175.544 296.564C175.733 300.418 172.967 303.447 169.112 303.636L168.977 303.643C165.1 303.833 162.072 301.09 161.883 297.235L161.669 292.884L164.69 292.736L164.904 297.086C165.012 299.295 166.598 300.754 168.83 300.645L168.965 300.638C171.174 300.529 172.632 298.921 172.523 296.712L172.246 291.076C172.107 288.236 174.166 285.988 176.983 285.85L181.424 285.631L181.843 294.153ZM166.346 304.834C167.293 304.788 168.146 305.582 168.192 306.529C168.24 307.498 167.468 308.349 166.521 308.396C165.552 308.443 164.701 307.672 164.653 306.702C164.606 305.756 165.377 304.882 166.346 304.834ZM171.148 304.598C172.117 304.551 172.97 305.345 173.016 306.292C173.064 307.261 172.292 308.112 171.323 308.16C170.354 308.208 169.502 307.436 169.455 306.467C169.408 305.52 170.179 304.646 171.148 304.598ZM190.439 283.426C189.492 283.472 188.642 282.723 188.573 281.778C188.525 280.808 189.296 279.934 190.265 279.887C191.235 279.839 192.086 280.611 192.133 281.557C192.181 282.549 191.41 283.401 190.439 283.426ZM190.614 285.135C193.499 284.993 195.84 287.115 195.983 290.023L196.068 291.736C196.195 294.329 194.159 296.575 191.544 296.704L184.51 297.049L183.178 296.618L183.078 294.566L184.362 294.029L186.368 293.93C185.934 293.364 185.604 292.634 185.564 291.823L185.501 290.538C185.358 287.63 187.48 285.289 190.366 285.147L190.614 285.135ZM193.031 291.569L192.963 290.171C192.901 288.909 191.979 288.096 190.762 288.155L190.514 288.168C189.297 288.227 188.46 289.127 188.522 290.39L188.585 291.675C188.642 292.847 189.614 293.771 190.651 293.72L191.102 293.698C192.229 293.642 193.087 292.696 193.031 291.569ZM202.729 280.427L205.727 280.279L206.302 291.979C206.337 292.678 206.868 292.923 207.252 292.904L208.356 292.85L208.505 295.871L206.386 295.975C204.785 296.053 203.438 294.854 203.358 293.231L202.729 280.427ZM211.589 283.539C210.619 283.587 209.769 282.838 209.72 281.846C209.674 280.899 210.446 280.048 211.415 280C212.384 279.952 213.236 280.724 213.282 281.671C213.331 282.663 212.558 283.492 211.589 283.539ZM207.948 295.898L207.799 292.877L209.896 292.774C210.279 292.755 210.762 292.461 210.727 291.762L210.398 285.067L213.419 284.918L213.802 292.718C213.882 294.341 212.659 295.667 211.059 295.745L207.948 295.898ZM215.938 279.778L218.936 279.63L219.511 291.33C219.545 292.029 220.077 292.274 220.46 292.255L221.565 292.201L221.713 295.222L219.594 295.326C217.994 295.404 216.647 294.205 216.567 292.582L215.938 279.778ZM233.654 291.607L236.292 291.477L236.44 294.498L231.819 294.725C230.76 294.777 229.661 294.492 228.824 293.562C227.903 294.579 226.747 294.974 225.8 295.021L221.494 295.232L220.186 294.822L220.086 292.771L221.346 292.212L224.885 292.038C225.133 292.026 226.525 291.844 226.764 291.652L222.782 286.944L222.675 284.757C224.821 283.838 226.63 283.388 228.523 283.295C231.792 283.134 234.132 284.307 234.239 286.494C234.258 286.877 234.171 287.401 234.014 287.883C233.526 289.444 232.684 290.254 231.611 291.414C232.252 291.585 232.933 291.642 233.654 291.607ZM230.589 287.622C230.709 287.3 230.747 287.163 230.736 286.937C230.708 286.374 230.103 286.019 228.548 286.096C227.714 286.137 226.775 286.341 225.955 286.675L225.961 286.788L228.955 290.233C229.66 289.408 230.259 288.723 230.589 287.622ZM243.334 282.499C246.242 282.356 248.56 284.457 248.704 287.388L248.767 288.673C248.905 291.49 246.765 293.923 244.015 294.058C242.64 294.126 241.31 293.739 240.257 293C239.598 293.846 238.563 294.394 237.346 294.454L236.354 294.502L235.023 294.093L234.921 292.019L236.205 291.482L237.197 291.433C237.919 291.397 238.39 290.877 238.354 290.133L238.244 287.902C238.1 284.971 240.178 282.654 243.109 282.51L243.334 282.499ZM245.746 288.821L245.683 287.536C245.62 286.251 244.745 285.458 243.482 285.52L243.257 285.531C241.995 285.593 241.179 286.469 241.242 287.754L241.355 290.054C241.954 290.747 242.897 291.085 243.867 291.037C244.949 290.984 245.804 289.993 245.746 288.821Z" fill="#012246"/>
<path opacity="0.4" d="M294.09 337.593C291.938 348.535 282.251 356.876 271.578 360.015C260.816 363.154 249.336 361.899 238.483 359.208C227.631 356.607 217.137 352.661 206.195 350.508C165.746 342.705 124.578 359.926 83.4111 358.311C66.9083 357.683 48.5221 352.661 40.4501 338.31C36.7728 331.943 35.7863 324.678 36.145 317.503C36.4141 322.615 37.6697 327.638 40.181 332.212C47.984 345.934 65.563 350.777 81.3483 351.405C120.632 352.84 160.005 336.427 198.572 343.871C209.065 345.934 219.11 349.701 229.514 352.212C239.829 354.724 250.86 355.979 261.085 353.019C271.309 349.97 280.637 341.988 282.61 331.494C286.377 312.211 268.708 296.874 268.888 277.143C268.978 261.716 288.53 243.958 287.902 228.531C288.021 228.83 288.111 229.159 288.171 229.518C292.297 246.379 276.511 262.165 276.422 279.564C276.332 300.103 298.037 317.323 294.09 337.593Z" fill="#05BEED"/>
<path fill-rule="evenodd" clip-rule="evenodd" d="M258.035 362.796C252.116 362.796 245.658 361.899 238.304 360.105C233.73 359.029 229.155 357.594 224.761 356.338C218.662 354.544 212.294 352.661 206.016 351.405C183.055 346.921 159.378 350.688 136.507 354.365C119.107 357.056 101.169 359.926 83.411 359.208C71.1236 358.76 49.1498 355.531 39.6428 338.669C33.7233 328.355 33.7233 314.633 39.3737 296.605C43.7684 282.793 43.2303 270.775 42.1541 257.501C41.2572 247.366 41.1675 232.747 49.7776 223.06C55.6074 216.513 65.0248 212.746 76.4153 212.387C82.8729 212.208 89.3305 212.925 95.519 213.733C98.7478 214.091 101.977 214.45 105.205 214.719C127.448 216.603 149.96 212.118 171.665 207.903C175.611 207.126 179.557 206.348 183.504 205.571C209.424 200.728 236.958 197.409 262.43 205.75C270.861 208.531 285.57 215.347 289.068 229.249C291.4 238.935 287.453 248.263 283.597 257.411C280.547 264.586 277.408 271.941 277.318 279.564C277.318 288.892 281.893 297.681 286.467 306.292C291.669 316.247 297.14 326.561 294.987 337.683C292.924 348.266 283.866 357.325 271.847 360.912C267.542 362.168 262.968 362.796 258.035 362.796ZM183.414 347.549C191.127 347.549 198.751 348.176 206.285 349.611C212.742 350.867 219.11 352.75 225.209 354.634C229.604 355.89 234.178 357.235 238.663 358.311C251.936 361.54 262.251 361.809 271.309 359.208C282.7 355.8 291.31 347.279 293.193 337.414C295.256 326.92 290.234 317.234 284.852 307.099C280.278 298.309 275.525 289.251 275.525 279.475C275.614 271.582 278.843 264.048 281.893 256.694C285.839 247.456 289.516 238.756 287.274 229.697C283.955 216.065 268.35 209.607 261.892 207.454C236.779 199.203 209.514 202.521 183.863 207.365C179.916 208.082 175.97 208.83 172.024 209.607C150.14 213.912 127.538 218.396 105.116 216.513C101.797 216.244 98.5684 215.885 95.3396 215.526C89.1511 214.719 82.7831 214.002 76.5049 214.181C70.2267 214.36 58.4775 215.975 51.123 224.226C42.9613 233.374 43.0509 247.545 43.8581 257.321C45.0241 270.775 45.5622 283.062 41.0778 297.143C35.5171 314.633 35.6067 327.907 41.1675 337.862C50.226 353.827 71.572 356.966 83.5006 357.414C101.08 358.132 118.928 355.262 136.238 352.571C151.754 350.06 167.629 347.549 183.414 347.549Z" fill="#99E7FA"/>
<path d="M89.1511 337.593C90.1377 351.136 85.2048 363.783 79.1956 369.523L68.8814 374.994C60.361 375.622 53.9034 360.464 52.6477 342.168C51.3921 323.871 56.594 307.099 67.4464 295.529C75.7875 301.808 87.8954 319.297 89.1511 337.593Z" fill="#00C4F6"/>
<path d="M64.8459 298.58C55.7873 309.881 51.4822 325.397 52.6482 342.169C52.9172 345.487 53.276 348.716 53.8141 351.766C54.5316 352.065 55.279 352.304 56.0563 352.483C58.3883 353.111 61.2583 353.111 62.9624 351.317C64.3077 349.792 64.4871 347.461 63.8593 345.577C63.2315 343.425 61.7068 341.9 61.1686 339.747C60.6305 337.774 60.3614 335.532 60.0923 333.469C59.4645 328.985 59.3748 324.411 59.6439 319.836C60.182 312.572 61.9758 305.307 64.8459 298.58Z" fill="#08BAE8"/>
<path d="M46.3702 344.858C48.8815 345.337 51.2732 346.024 53.5453 346.921C57.4916 348.356 60.9895 350.24 64.1286 352.303L73.4562 374.456C67.9852 380.106 54.9803 384.142 40.8094 381.182C22.8717 377.415 8.16267 367.908 0.000976562 354.365C8.34205 347.998 28.4324 341.091 46.3702 344.858Z" fill="#00C4F6"/>
<path d="M51.9298 352.66C46.1 350.867 37.6693 347.1 31.8395 350.956C30.9426 351.584 31.122 352.84 32.1086 353.199C34.889 354.275 37.9384 354.095 40.8084 354.454C44.2166 354.723 47.7145 355.082 51.1227 355.62C53.0061 355.889 53.8133 353.288 51.9298 352.66Z" fill="#A8E1FF"/>
<path d="M21.6152 351.495C20.7184 351.764 19.7318 351.854 18.8349 352.123C17.938 352.302 17.0411 352.93 16.1442 353.289C14.0814 354.276 15.1576 357.504 17.3102 357.504C18.2968 357.504 19.3731 357.594 20.3596 357.415C21.2565 357.146 22.1534 356.966 23.0503 356.697C24.4853 356.338 25.2925 354.814 24.9337 353.379C24.4853 351.944 23.0503 351.226 21.6152 351.495Z" fill="#A8E1FF"/>
<path d="M0.000976562 354.366C8.16267 367.909 22.8717 377.416 40.8094 381.183C54.4422 384.053 66.9986 380.375 72.7387 375.084C72.3799 374.456 71.9315 374.007 71.3934 373.559C69.2408 372.034 66.2811 372.034 63.5007 372.124C55.1597 372.393 46.7289 372.662 38.3878 371.586C30.1365 370.599 21.7954 367.998 15.0687 363.065C10.943 359.926 7.35548 355.801 5.11326 351.137C3.1401 352.213 1.436 353.289 0.000976562 354.366Z" fill="#08BAE8"/>
</svg>
