<svg width="26" height="27" viewBox="0 0 26 27" fill="none" xmlns="http://www.w3.org/2000/svg">
<g filter="url(#filter0_dd_0_610)">
<path fill-rule="evenodd" clip-rule="evenodd" d="M8.66667 14.4444C9.43285 14.4444 10.1676 14.7488 10.7094 15.2906C11.2512 15.8324 11.5556 16.5672 11.5556 17.3333V22.1111C11.5556 22.8773 11.2512 23.6121 10.7094 24.1539C10.1676 24.6956 9.43285 25 8.66667 25H2.88889C2.12271 25 1.38791 24.6956 0.846136 24.1539C0.304364 23.6121 0 22.8773 0 22.1111V17.3333C0 16.5672 0.304364 15.8324 0.846136 15.2906C1.38791 14.7488 2.12271 14.4444 2.88889 14.4444H8.66667ZM23.1111 14.4444C23.8773 14.4444 24.6121 14.7488 25.1539 15.2906C25.6956 15.8324 26 16.5672 26 17.3333V22.1111C26 22.8773 25.6956 23.6121 25.1539 24.1539C24.6121 24.6956 23.8773 25 23.1111 25H17.3333C16.5672 25 15.8324 24.6956 15.2906 24.1539C14.7488 23.6121 14.4444 22.8773 14.4444 22.1111V17.3333C14.4444 16.5672 14.7488 15.8324 15.2906 15.2906C15.8324 14.7488 16.5672 14.4444 17.3333 14.4444H23.1111ZM8.66667 0C9.43285 0 10.1676 0.304364 10.7094 0.846136C11.2512 1.38791 11.5556 2.12271 11.5556 2.88889V7.66667C11.5556 8.43285 11.2512 9.16765 10.7094 9.70942C10.1676 10.2512 9.43285 10.5556 8.66667 10.5556H2.88889C2.12271 10.5556 1.38791 10.2512 0.846136 9.70942C0.304364 9.16765 0 8.43285 0 7.66667V2.88889C0 2.12271 0.304364 1.38791 0.846136 0.846136C1.38791 0.304364 2.12271 0 2.88889 0H8.66667ZM23.1111 0C23.8773 0 24.6121 0.304364 25.1539 0.846136C25.6956 1.38791 26 2.12271 26 2.88889V7.66667C26 8.43285 25.6956 9.16765 25.1539 9.70942C24.6121 10.2512 23.8773 10.5556 23.1111 10.5556H17.3333C16.5672 10.5556 15.8324 10.2512 15.2906 9.70942C14.7488 9.16765 14.4444 8.43285 14.4444 7.66667V2.88889C14.4444 2.12271 14.7488 1.38791 15.2906 0.846136C15.8324 0.304364 16.5672 0 17.3333 0H23.1111Z" fill="#00C4F6"/>
</g>
<defs>
<filter id="filter0_dd_0_610" x="0" y="0" width="26" height="27" filterUnits="userSpaceOnUse" color-interpolation-filters="sRGB">
<feFlood flood-opacity="0" result="BackgroundImageFix"/>
<feColorMatrix in="SourceAlpha" type="matrix" values="0 0 0 0 0 0 0 0 0 0 0 0 0 0 0 0 0 0 127 0" result="hardAlpha"/>
<feOffset dy="2"/>
<feComposite in2="hardAlpha" operator="out"/>
<feColorMatrix type="matrix" values="0 0 0 0 0 0 0 0 0 0.788235 0 0 0 0 1 0 0 0 1 0"/>
<feBlend mode="normal" in2="BackgroundImageFix" result="effect1_dropShadow_0_610"/>
<feColorMatrix in="SourceAlpha" type="matrix" values="0 0 0 0 0 0 0 0 0 0 0 0 0 0 0 0 0 0 127 0" result="hardAlpha"/>
<feOffset dy="2"/>
<feComposite in2="hardAlpha" operator="out"/>
<feColorMatrix type="matrix" values="0 0 0 0 0 0 0 0 0 0 0 0 0 0 0 0 0 0 0.2 0"/>
<feBlend mode="normal" in2="effect1_dropShadow_0_610" result="effect2_dropShadow_0_610"/>
<feBlend mode="normal" in="SourceGraphic" in2="effect2_dropShadow_0_610" result="shape"/>
</filter>
</defs>
</svg>
