<svg width="58" height="51" viewBox="0 0 58 51" fill="none" xmlns="http://www.w3.org/2000/svg">
<path d="M55.2564 19.1551H43.2597V2.9464C43.2597 1.66706 42.3123 0.630859 41.1426 0.630859H28.4403C27.2706 0.630859 26.3232 1.66706 26.3232 2.9464V9.893H20.6777V2.17455C20.6777 1.32166 20.0461 0.630859 19.2663 0.630859H17.8549C17.0752 0.630859 16.4436 1.32166 16.4436 2.17455V9.893H10.7981V2.17455C10.7981 1.32166 10.1665 0.630859 9.3867 0.630859H7.97533C7.19554 0.630859 6.56395 1.32166 6.56395 2.17455V9.893H3.03552C1.86584 9.893 0.918457 10.9292 0.918457 12.2085V46.9416C0.918457 48.6464 2.18252 50.029 3.74121 50.029H54.5507C56.1094 50.029 57.3734 48.6464 57.3734 46.9416V21.4707C57.3734 20.1914 56.4252 19.1551 55.2564 19.1551ZM12.2095 39.6091C12.2095 40.2487 11.7358 40.7668 11.1509 40.7668H7.62249C7.03765 40.7668 6.56395 40.2487 6.56395 39.6091V35.7498C6.56395 35.1102 7.03765 34.5921 7.62249 34.5921H11.1509C11.7358 34.5921 12.2095 35.1102 12.2095 35.7498V39.6091ZM12.2095 30.3469C12.2095 30.9866 11.7358 31.5047 11.1509 31.5047H7.62249C7.03765 31.5047 6.56395 30.9866 6.56395 30.3469V26.4877C6.56395 25.848 7.03765 25.3299 7.62249 25.3299H11.1509C11.7358 25.3299 12.2095 25.848 12.2095 26.4877V30.3469ZM12.2095 21.0848C12.2095 21.7244 11.7358 22.2425 11.1509 22.2425H7.62249C7.03765 22.2425 6.56395 21.7244 6.56395 21.0848V17.2255C6.56395 16.5859 7.03765 16.0678 7.62249 16.0678H11.1509C11.7358 16.0678 12.2095 16.5859 12.2095 17.2255V21.0848ZM23.5004 39.6091C23.5004 40.2487 23.0268 40.7668 22.4419 40.7668H18.9135C18.3286 40.7668 17.8549 40.2487 17.8549 39.6091V35.7498C17.8549 35.1102 18.3286 34.5921 18.9135 34.5921H22.4419C23.0268 34.5921 23.5004 35.1102 23.5004 35.7498V39.6091ZM23.5004 30.3469C23.5004 30.9866 23.0268 31.5047 22.4419 31.5047H18.9135C18.3286 31.5047 17.8549 30.9866 17.8549 30.3469V26.4877C17.8549 25.848 18.3286 25.3299 18.9135 25.3299H22.4419C23.0268 25.3299 23.5004 25.848 23.5004 26.4877V30.3469ZM23.5004 21.0848C23.5004 21.7244 23.0268 22.2425 22.4419 22.2425H18.9135C18.3286 22.2425 17.8549 21.7244 17.8549 21.0848V17.2255C17.8549 16.5859 18.3286 16.0678 18.9135 16.0678H22.4419C23.0268 16.0678 23.5004 16.5859 23.5004 17.2255V21.0848ZM37.6142 30.3469C37.6142 30.9866 37.1405 31.5047 36.5557 31.5047H33.0272C32.4424 31.5047 31.9687 30.9866 31.9687 30.3469V26.4877C31.9687 25.848 32.4424 25.3299 33.0272 25.3299H36.5557C37.1405 25.3299 37.6142 25.848 37.6142 26.4877V30.3469ZM37.6142 21.0848C37.6142 21.7244 37.1405 22.2425 36.5557 22.2425H33.0272C32.4424 22.2425 31.9687 21.7244 31.9687 21.0848V17.2255C31.9687 16.5859 32.4424 16.0678 33.0272 16.0678H36.5557C37.1405 16.0678 37.6142 16.5859 37.6142 17.2255V21.0848ZM37.6142 11.8226C37.6142 12.4623 37.1405 12.9804 36.5557 12.9804H33.0272C32.4424 12.9804 31.9687 12.4623 31.9687 11.8226V7.96339C31.9687 7.32372 32.4424 6.80562 33.0272 6.80562H36.5557C37.1405 6.80562 37.6142 7.32372 37.6142 7.96339V11.8226ZM51.7279 39.6091C51.7279 40.2487 51.2542 40.7668 50.6694 40.7668H47.141C46.5561 40.7668 46.0824 40.2487 46.0824 39.6091V35.7498C46.0824 35.1102 46.5561 34.5921 47.141 34.5921H50.6694C51.2542 34.5921 51.7279 35.1102 51.7279 35.7498V39.6091ZM51.7279 30.3469C51.7279 30.9866 51.2542 31.5047 50.6694 31.5047H47.141C46.5561 31.5047 46.0824 30.9866 46.0824 30.3469V26.4877C46.0824 25.848 46.5561 25.3299 47.141 25.3299H50.6694C51.2542 25.3299 51.7279 25.848 51.7279 26.4877V30.3469Z" fill="#00C4F6"/>
</svg>
