<svg width="19" height="23" viewBox="0 0 19 23" fill="none" xmlns="http://www.w3.org/2000/svg">
<path fill-rule="evenodd" clip-rule="evenodd" d="M3.26682 0.549034L12.7432 0.544119V4.31756L3.26682 4.32248C2.8388 4.32297 2.42187 4.18345 2.07706 3.92432L0.540947 2.76591C0.490548 2.72782 0.449593 2.67819 0.421372 2.62099C0.39315 2.56379 0.378449 2.50063 0.378449 2.43657C0.378449 2.37252 0.39315 2.30936 0.421372 2.25216C0.449593 2.19496 0.490548 2.14533 0.540947 2.10724L2.07866 0.947187C2.42239 0.688143 2.83811 0.548071 3.26522 0.547396L3.26682 0.549034ZM16.6444 4.31428L14.7476 4.31592V0.54248H16.6509C17.6674 0.558865 18.4451 1.48134 18.4451 2.42674C18.4451 3.37379 17.6674 4.2979 16.6509 4.31428H16.6444ZM7.13435 8.09919C7.67151 8.31875 8.12849 8.55961 8.52455 8.79883V22.5425C7.91352 22.0733 7.2451 21.6877 6.53626 21.3955C5.35773 20.9138 3.65806 20.5157 1.06528 20.5157C0.852646 20.5157 0.648723 20.4294 0.49837 20.2757C0.348017 20.1221 0.26355 19.9137 0.26355 19.6964V7.91896C0.26355 7.70168 0.348017 7.49331 0.49837 7.33967C0.648723 7.18603 0.852646 7.09972 1.06528 7.09972C3.82322 7.09972 5.73133 7.52408 7.13435 8.09919ZM12.5155 21.3955C11.6497 21.7511 11.042 22.1591 10.5273 22.5408V8.79883C10.9233 8.55961 11.3819 8.31875 11.9191 8.09919C13.3221 7.52408 15.2302 7.09972 17.9881 7.09972C18.2008 7.09972 18.4047 7.18603 18.555 7.33967C18.7054 7.49331 18.7899 7.70168 18.7899 7.91896V19.6964C18.7899 19.9137 18.7054 20.1221 18.555 20.2757C18.4047 20.4294 18.2008 20.5157 17.9881 20.5157C15.3954 20.5157 13.6957 20.9122 12.5155 21.3955Z" fill="#AFAFAF"/>
</svg>
