<svg width="44" height="46" viewBox="0 0 44 46" fill="none" xmlns="http://www.w3.org/2000/svg">
<path d="M23.5004 0.578814C23.0933 0.281069 22.598 0.120117 22.0891 0.120117C21.5801 0.120117 21.0849 0.281069 20.6777 0.578814C19.6977 1.31084 18.794 2.13512 17.9796 3.03972C16.7494 4.39058 15.0322 6.66801 15.0322 9.29405C15.0322 11.1189 15.7757 12.8689 17.0991 14.1593C18.4225 15.4496 20.2175 16.1745 22.0891 16.1745H7.97533C6.10373 16.1745 4.30879 16.8994 2.98537 18.1897C1.66195 19.4801 0.918457 21.2301 0.918457 23.055V27.6419C0.918457 30.4767 4.23754 32.0959 6.56395 30.3941L8.13293 29.2474C8.5401 28.9496 9.03534 28.7887 9.54431 28.7887C10.0533 28.7887 10.5485 28.9496 10.9557 29.2474L11.5814 29.7061C12.8029 30.5993 14.2886 31.0821 15.8155 31.0821C17.3424 31.0821 18.8281 30.5993 20.0496 29.7061L20.6777 29.2474C21.0849 28.9496 21.5801 28.7887 22.0891 28.7887C22.598 28.7887 23.0933 28.9496 23.5004 29.2474L24.1285 29.7061C25.35 30.5993 26.8357 31.0821 28.3626 31.0821C29.8895 31.0821 31.3752 30.5993 32.5968 29.7061L33.2225 29.2474C33.6296 28.9496 34.1249 28.7887 34.6338 28.7887C35.1428 28.7887 35.638 28.9496 36.0452 29.2474L37.6142 30.3941C39.9406 32.0959 43.2597 30.4767 43.2597 27.6419V23.055C43.2597 21.2301 42.5162 19.4801 41.1928 18.1897C39.8694 16.8994 38.0744 16.1745 36.2028 16.1745H22.0891C23.9607 16.1745 25.7556 15.4496 27.079 14.1593C28.4025 12.8689 29.1459 11.1189 29.1459 9.29405C29.1459 6.66801 27.4288 4.39058 26.1985 3.03972C25.3846 2.14526 24.4814 1.29667 23.5004 0.578814ZM3.27075 35.4742V41.4028C3.27075 42.6194 3.76641 43.7861 4.64869 44.6463C5.53097 45.5065 6.7276 45.9898 7.97533 45.9898H36.2028C37.4506 45.9898 38.6472 45.5065 39.5295 44.6463C40.4117 43.7861 40.9074 42.6194 40.9074 41.4028V35.4742C40.36 35.6669 39.7717 35.7228 39.1964 35.6367C38.6211 35.5505 38.0771 35.3251 37.6142 34.9811L36.0452 33.8343C35.638 33.5366 35.1428 33.3756 34.6338 33.3756C34.1249 33.3756 33.6296 33.5366 33.2225 33.8343L32.5968 34.293C31.3752 35.1863 29.8895 35.6691 28.3626 35.6691C26.8357 35.6691 25.35 35.1863 24.1285 34.293L23.5004 33.8343C23.0933 33.5366 22.598 33.3756 22.0891 33.3756C21.5801 33.3756 21.0849 33.5366 20.6777 33.8343L20.0496 34.293C18.8281 35.1863 17.3424 35.6691 15.8155 35.6691C14.2886 35.6691 12.8029 35.1863 11.5814 34.293L10.9557 33.8343C10.5485 33.5366 10.0533 33.3756 9.54431 33.3756C9.03534 33.3756 8.5401 33.5366 8.13293 33.8343L6.56395 34.9811C6.10107 35.3251 5.55709 35.5505 4.98178 35.6367C4.40647 35.7228 3.81819 35.6669 3.27075 35.4742Z" fill="#00C4F6"/>
</svg>
