<svg width="95" height="34" viewBox="0 0 95 34" fill="none" xmlns="http://www.w3.org/2000/svg">
<path d="M0.0125166 2.94502C0.00566351 2.70939 0.194821 2.51461 0.430561 2.51455L15.6362 2.5112C15.8767 2.51115 16.0676 2.71337 16.0538 2.95343L15.8856 5.86635C15.8729 6.0876 15.6897 6.26052 15.4681 6.26057L10.8375 6.26159C10.6065 6.26164 10.4192 6.44892 10.4192 6.6799L10.4192 24.7696C10.4192 25.0006 10.232 25.1879 10.001 25.1879L6.1504 25.1888C5.91942 25.1888 5.73218 25.0016 5.73218 24.7706L5.73218 6.68094C5.73218 6.44996 5.54493 6.26276 5.31396 6.26281L0.515275 6.26386C0.289033 6.26391 0.103808 6.08404 0.0972312 5.85789L0.0125166 2.94502Z" fill="white"/>
<path d="M21.2099 7.41877C21.2095 7.41846 21.2098 7.41793 21.2102 7.41793C23.6118 7.41812 25.3544 8.01868 26.4363 9.22128C27.5183 10.4241 28.0585 12.2862 28.0585 14.8092L28.0585 24.8106C28.0585 25.0265 27.8942 25.2069 27.6792 25.227L24.5525 25.5195C24.3499 25.5384 24.163 25.4087 24.1098 25.2123L23.8873 24.3898C23.8121 24.1123 23.4856 23.9915 23.2398 24.1406C21.6487 25.1063 19.9381 25.5892 18.1107 25.5892C16.5723 25.5892 15.3645 25.1631 14.4871 24.3092C13.6098 23.457 13.1719 22.2844 13.1719 20.7948C13.1719 19.2078 13.6819 17.9647 14.7035 17.0639C15.7251 16.163 17.2215 15.5323 19.1926 15.1716C20.258 14.9718 21.5578 14.8135 23.0933 14.6953C23.3122 14.6785 23.4821 14.4965 23.4821 14.277L23.4821 14.2338C23.4821 13.0562 23.1986 12.2275 22.6349 11.746C22.0696 11.2662 21.199 11.0247 20.0213 11.0247C18.5062 11.0247 16.8721 11.2653 15.1165 11.7466C14.8578 11.8176 14.5963 11.6355 14.5788 11.3678L14.4174 8.89376C14.4051 8.705 14.5209 8.53106 14.7008 8.47264C16.8596 7.77173 19.0276 7.41975 21.2095 7.41961C21.2099 7.41961 21.2102 7.41908 21.2099 7.41877ZM17.4958 20.2881C17.4953 20.2881 17.495 20.2885 17.495 20.289C17.4951 21.0333 17.6864 21.5498 18.0721 21.8382C18.4562 22.1267 19.045 22.271 19.8385 22.271C20.9264 22.271 22.0664 21.961 23.2613 21.3424C23.3972 21.2721 23.4805 21.1307 23.4805 20.9777L23.4805 17.8744C23.4805 17.6377 23.2842 17.4479 23.0479 17.4607C22.4832 17.4914 21.858 17.5451 21.1738 17.6208C19.8519 17.7416 18.9075 17.9932 18.3438 18.3774C17.7787 18.7614 17.4968 19.3986 17.4967 20.2873C17.4967 20.2877 17.4963 20.2881 17.4958 20.2881Z" fill="white"/>
<path d="M51.602 25.5874C51.6015 25.5879 51.6008 25.5882 51.6 25.5882C50.567 25.5881 49.5509 25.4925 48.5548 25.2997C47.6737 25.1309 46.8633 24.9046 46.1234 24.6219C45.9499 24.5556 45.8458 24.3792 45.8656 24.1945L46.1372 21.669C46.1658 21.4037 46.4321 21.2328 46.6875 21.3103C47.3962 21.5256 48.1204 21.7013 48.8601 21.8372C49.7727 22.005 50.6148 22.0888 51.3831 22.0888C53.1865 22.0888 54.0873 21.5252 54.0873 20.3945C54.0873 19.9617 53.9799 19.6195 53.7635 19.3678C53.5471 19.1162 53.2234 18.8998 52.7905 18.7186C52.3577 18.5391 51.6012 18.2556 50.5191 17.8715C48.8835 17.3196 47.7378 16.6402 47.0768 15.8349C46.4159 15.0297 46.0854 14.0031 46.0854 12.7533C46.0854 11.1663 46.7094 9.88131 47.9592 8.89491C49.2089 7.91018 50.9385 7.41697 53.1512 7.41696C54.8097 7.41695 56.3748 7.63585 57.8452 8.07501C58.0314 8.13063 58.1506 8.31049 58.1344 8.50414L57.9149 11.1375C57.8933 11.3967 57.6429 11.5732 57.3903 11.5113C55.8626 11.137 54.5208 10.9499 53.3676 10.9499C51.5173 10.9499 50.5912 11.4901 50.5913 12.5721C50.5913 12.8841 50.6684 13.1492 50.8261 13.3656C50.9821 13.582 51.3009 13.8101 51.7823 14.05C52.2621 14.2899 52.9952 14.5667 53.9816 14.8787C55.7598 15.4558 56.9978 16.1218 57.6957 16.88C58.3919 17.6366 58.7408 18.6649 58.7408 19.9617C58.7408 21.7164 58.0849 23.092 56.7764 24.0901C55.4665 25.0881 53.7424 25.5863 51.6041 25.5865C51.6033 25.5865 51.6026 25.5868 51.602 25.5874Z" fill="white"/>
<path d="M65.811 25.5874C65.8105 25.5879 65.8097 25.5882 65.809 25.5882C64.776 25.5881 63.7598 25.4925 62.7637 25.2997C61.8827 25.1309 61.0723 24.9046 60.3324 24.6219C60.1588 24.5556 60.0547 24.3792 60.0746 24.1945L60.3462 21.669C60.3748 21.4037 60.6411 21.2328 60.8964 21.3103C61.6052 21.5256 62.3294 21.7013 63.069 21.8372C63.9816 22.005 64.8238 22.0888 65.5921 22.0888C67.3954 22.0888 68.2963 21.5252 68.2963 20.3945C68.2963 19.9617 68.1889 19.6195 67.9725 19.3678C67.7561 19.1162 67.4323 18.8998 66.9995 18.7186C66.5667 18.5391 65.8101 18.2556 64.7281 17.8715C63.0925 17.3196 61.9467 16.6402 61.2858 15.8349C60.6248 15.0297 60.2943 14.0031 60.2943 12.7533C60.2943 11.1663 60.9184 9.88131 62.1682 8.89491C63.4179 7.91018 65.1475 7.41697 67.3602 7.41696C69.0187 7.41695 70.5838 7.63585 72.0542 8.07501C72.2404 8.13063 72.3596 8.31049 72.3434 8.50414L72.1239 11.1375C72.1023 11.3967 71.8519 11.5732 71.5993 11.5113C70.0715 11.137 68.7298 10.9499 67.5766 10.9499C65.7262 10.9499 64.8002 11.4901 64.8002 12.5721C64.8002 12.8841 64.8774 13.1492 65.0351 13.3656C65.1911 13.582 65.5098 13.8101 65.9913 14.05C66.4711 14.2899 67.2042 14.5667 68.1906 14.8787C69.9688 15.4558 71.2068 16.1218 71.9047 16.88C72.6009 17.6366 72.9498 18.6649 72.9498 19.9617C72.9498 21.7164 72.2939 23.092 70.9854 24.0901C69.6755 25.0881 67.9514 25.5863 65.813 25.5865C65.8123 25.5865 65.8116 25.5868 65.811 25.5874Z" fill="white"/>
<path d="M77.9684 5.39843C77.1984 5.39844 76.6046 5.20049 76.1835 4.80291C75.7624 4.40701 75.5527 3.83496 75.5527 3.09013C75.5527 2.34529 75.7624 1.79841 76.1835 1.37734C76.6045 0.956272 77.1984 0.746575 77.9684 0.746572C78.7383 0.746568 79.3255 0.944518 79.7348 1.3421C80.1424 1.738 80.3471 2.31004 80.3471 3.05488C80.3471 3.79971 80.1357 4.40699 79.7164 4.80289C79.2953 5.1988 78.7132 5.39843 77.9684 5.39843ZM80.2029 24.772C80.2029 25.003 80.0157 25.1902 79.7847 25.1902L75.9711 25.1902C75.7401 25.1902 75.5528 25.003 75.5528 24.772L75.5528 8.16021C75.5528 7.92923 75.74 7.74199 75.971 7.74199L79.7846 7.74197C80.0156 7.74197 80.2029 7.92921 80.2029 8.16019L80.2029 24.772Z" fill="white"/>
<path d="M91.9922 7.41779C91.9922 7.41826 91.9926 7.41863 91.9931 7.41863C92.6948 7.41873 93.3677 7.55005 94.0128 7.81373C94.1668 7.87665 94.2609 8.03104 94.2566 8.19729L94.166 11.7006C94.1598 11.94 93.9542 12.125 93.7153 12.1095C93.2939 12.0821 92.9482 12.0688 92.6767 12.0688C90.8854 12.0688 89.3717 12.3793 88.1371 12.9989C88.0004 13.0674 87.9175 13.209 87.9175 13.3619L87.9175 24.7724C87.9175 25.0034 87.7303 25.1906 87.4993 25.1906L83.6856 25.1907C83.4546 25.1907 83.2674 25.0034 83.2674 24.7724L83.2673 13.2582C83.2673 12.2347 83.2238 10.6214 83.1382 8.4153C83.1297 8.19819 83.2887 8.01026 83.5043 7.9833L86.7366 7.57908C86.9694 7.54996 87.1806 7.71799 87.2046 7.95137L87.4076 9.92958C87.4212 10.062 87.5975 10.1033 87.6722 9.99312C88.8359 8.27689 90.2761 7.41724 91.9914 7.41695C91.9919 7.41695 91.9922 7.41733 91.9922 7.41779Z" fill="white"/>
<path d="M38.7988 22.5889C38.8415 22.7383 38.7979 22.899 38.6855 23.0063L35.7568 25.8031L29.7872 7.75352C29.6977 7.48292 29.8991 7.20404 30.1842 7.20397L34.0824 7.20311C34.2691 7.20307 34.4332 7.3268 34.4846 7.50632L38.7988 22.5889Z" fill="white"/>
<path d="M43.7411 2.44444C43.7411 2.44496 43.7409 2.44547 43.7405 2.44579C43.5766 2.57331 43.418 2.70382 43.2614 2.83922C39.8404 5.80473 38.9709 10.2991 38.2656 14.5481C37.6795 18.0857 37.3701 21.3514 36.4804 24.0933C36.1811 25.0159 35.5204 26.7915 33.8706 28.0169C33.8578 28.0262 33.8482 28.0336 33.8402 28.0392C32.9479 28.6927 31.7673 29.2379 30.297 29.6738C29.9375 29.7803 29.714 30.1435 29.7951 30.5096L30.3594 33.0566C30.439 33.4161 30.7848 33.6535 31.1457 33.5803C32.8108 33.2427 35.4744 32.3978 37.5591 30.1191C38.4687 29.1246 39.0689 27.9889 39.6598 26.7917C40.2743 25.5491 40.5286 24.0866 40.8444 22.734C41.4954 19.9451 41.9417 17.1153 42.3797 14.286C42.776 11.7238 43.1625 9.11679 44.4852 6.83678C45.5701 4.96631 47.5994 3.96801 49.6713 3.55639C50.0271 3.4857 50.2875 3.17 50.2658 2.8079C50.2237 2.10538 50.1807 1.40331 50.1361 0.700982C50.1116 0.314617 49.7759 0.0207303 49.3923 0.0726501C47.3453 0.349671 45.3747 1.17646 43.7417 2.44309C43.7413 2.44341 43.7411 2.44392 43.7411 2.44444Z" fill="url(#paint0_linear_263_3664)"/>
<defs>
<linearGradient id="paint0_linear_263_3664" x1="31.4606" y1="33.7304" x2="51.1274" y2="-0.0203518" gradientUnits="userSpaceOnUse">
<stop stop-color="#00C4F6"/>
<stop offset="1" stop-color="#F037A5"/>
</linearGradient>
</defs>
</svg>
