<svg width="40" height="47" viewBox="0 0 40 47" fill="none" xmlns="http://www.w3.org/2000/svg">
<path d="M26.5573 28.4458C26.2768 28.354 24.5038 27.5548 25.6117 24.1869H25.5958C28.4839 21.2125 30.6909 16.4262 30.6909 11.7139C30.6909 4.46828 25.8728 0.669922 20.2732 0.669922C14.67 0.669922 9.87843 4.46652 9.87843 11.7139C9.87843 16.4456 12.0731 21.2513 14.9788 24.2187C16.1114 27.1896 14.0861 28.2923 13.6627 28.4475C7.79842 30.5681 0.917969 34.4335 0.917969 38.2495V39.6803C0.917969 44.8795 10.9987 46.0615 20.3279 46.0615C29.6712 46.0615 39.6249 44.8795 39.6249 39.6803V38.2495C39.6249 34.3189 32.7109 30.4834 26.5573 28.4458Z" fill="#F037A5"/>
</svg>
