<svg width="117" height="144" viewBox="0 0 117 144" fill="none" xmlns="http://www.w3.org/2000/svg">
<g opacity="0.5">
<g filter="url(#filter0_d_262_2819)">
<path d="M90.3524 111.725L36.8489 121.271C33.902 121.751 31.1023 120.125 30.6451 116.81L18.199 33.6936C17.7196 30.7502 19.72 27.975 22.6668 27.4952L75.2416 18.9346C78.1885 18.4547 80.966 20.4519 81.4454 23.3953L94.8203 105.526C95.2996 108.47 93.2992 111.245 90.3524 111.725Z" fill="#27A0E7"/>
<path d="M76.3552 25.5426L23.6064 34.2059C22.579 34.3747 21.8829 35.3444 22.0516 36.3718L23.8447 47.2891C24.0134 48.3166 24.9831 49.0127 26.0106 48.8439L78.7594 40.1805C79.7868 40.0118 80.4829 39.0421 80.3142 38.0146L78.5211 27.0974C78.3524 26.0699 77.3827 25.3738 76.3552 25.5426Z" fill="#383B4E"/>
<path d="M36.5753 56.9381L27.3263 58.4571C26.356 58.6165 25.4402 57.9595 25.281 56.9897L24.8895 54.6061C24.7302 53.6363 25.3877 52.7209 26.358 52.5615L35.607 51.0425C36.5773 50.8831 37.4931 51.5401 37.6523 52.51L38.0438 54.8935C38.2031 55.8633 37.5456 56.7787 36.5753 56.9381Z" fill="#CBE8FF"/>
<path d="M51.1607 54.5426L41.9118 56.0616C40.9414 56.2209 40.0257 55.5639 39.8664 54.5942L39.4749 52.2106C39.3156 51.2408 39.9731 50.3254 40.9435 50.166L50.1924 48.647C51.1628 48.4876 52.0785 49.1446 52.2378 50.1144L52.6293 52.498C52.7885 53.4678 52.131 54.3832 51.1607 54.5426Z" fill="#CBE8FF"/>
<path d="M65.7456 52.1471L56.4967 53.6661C55.5264 53.8254 54.6106 53.1684 54.4514 52.1987L54.0599 49.8151C53.9006 48.8453 54.5581 47.9299 55.5285 47.7705L64.7773 46.2515C65.7477 46.0921 66.6634 46.7491 66.8227 47.7189L67.2142 50.1025C67.3735 51.0723 66.7159 51.9877 65.7456 52.1471Z" fill="#CBE8FF"/>
<path d="M80.333 49.7513L71.0841 51.2703C70.1137 51.4297 69.198 50.7727 69.0388 49.8029L68.6473 47.4193C68.488 46.4495 69.1455 45.5341 70.1158 45.3748L79.3647 43.8557C80.335 43.6964 81.2508 44.3534 81.41 45.3232L81.8015 47.7067C81.9608 48.6766 81.3033 49.5919 80.333 49.7513Z" fill="#CBE8FF"/>
<path d="M38.9649 71.4925L29.7159 73.0115C28.7456 73.1709 27.8298 72.5139 27.6706 71.5441L26.3109 63.2653C26.1516 62.2955 26.8091 61.3801 27.7794 61.2207L37.0284 59.7017C37.9987 59.5423 38.9145 60.1993 39.0737 61.1691L40.4334 69.4479C40.5927 70.4178 39.9352 71.3331 38.9649 71.4925Z" fill="#CBE8FF"/>
<path d="M53.5513 69.097L44.3024 70.616C43.332 70.7754 42.4163 70.1184 42.257 69.1486L40.8973 60.8698C40.738 59.9 41.3955 58.9846 42.3659 58.8252L51.6148 57.3062C52.5851 57.1468 53.5009 57.8038 53.6602 58.7736L55.0199 67.0524C55.1791 68.0223 54.5216 68.9376 53.5513 69.097Z" fill="#CBE8FF"/>
<path d="M68.1362 66.7015L58.8873 68.2205C57.917 68.3799 57.0012 67.7229 56.842 66.7531L55.4823 58.4743C55.323 57.5045 55.9805 56.5891 56.9508 56.4297L66.1997 54.9107C67.17 54.7513 68.0858 55.4083 68.2451 56.3781L69.6048 64.6569C69.764 65.6267 69.1065 66.5421 68.1362 66.7015Z" fill="#CBE8FF"/>
<path d="M82.7217 64.3057L73.4727 65.8248C72.5024 65.9841 71.5867 65.3271 71.4274 64.3573L70.0677 56.0785C69.9084 55.1087 70.5659 54.1933 71.5362 54.034L80.7851 52.5149C81.7554 52.3556 82.6712 53.0126 82.8305 53.9824L84.1902 62.2612C84.3494 63.231 83.6919 64.1464 82.7217 64.3057Z" fill="#CBE8FF"/>
<path d="M41.3189 85.8214L32.0699 87.3404C31.0996 87.4998 30.1838 86.8428 30.0246 85.873L28.6649 77.5941C28.5056 76.6243 29.1631 75.7089 30.1334 75.5496L39.3824 74.0305C40.3527 73.8712 41.2685 74.5282 41.4277 75.498L42.7874 83.7768C42.9467 84.7466 42.2892 85.662 41.3189 85.8214Z" fill="#CBE8FF"/>
<path d="M55.9043 83.4256L46.6554 84.9446C45.685 85.104 44.7693 84.447 44.61 83.4772L43.2503 75.1984C43.091 74.2286 43.7485 73.3132 44.7189 73.1538L53.9678 71.6348C54.9382 71.4754 55.8539 72.1324 56.0132 73.1022L57.3729 81.381C57.5321 82.3509 56.8747 83.2663 55.9043 83.4256Z" fill="#CBE8FF"/>
<path d="M70.4907 81.0301L61.2418 82.5491C60.2715 82.7085 59.3557 82.0515 59.1964 81.0817L57.8367 72.8029C57.6775 71.8331 58.335 70.9177 59.3053 70.7583L68.5542 69.2393C69.5245 69.0799 70.4403 69.7369 70.5996 70.7067L71.9593 78.9855C72.1185 79.9554 71.461 80.8708 70.4907 81.0301Z" fill="#CBE8FF"/>
<path d="M85.0776 78.6344L75.8287 80.1534C74.8583 80.3128 73.9426 79.6558 73.7834 78.6859L72.4237 70.4071C72.2644 69.4373 72.9218 68.5219 73.8922 68.3626L83.1411 66.8435C84.1114 66.6842 85.0271 67.3412 85.1864 68.311L86.5461 76.5898C86.7054 77.5596 86.0479 78.475 85.0776 78.6344Z" fill="#CBE8FF"/>
<path d="M43.6709 100.15L34.422 101.669C33.4516 101.829 32.5359 101.172 32.3766 100.202L31.0169 91.923C30.8576 90.9532 31.5151 90.0378 32.4855 89.8784L41.7344 88.3594C42.7048 88.2 43.6205 88.857 43.7798 89.8268L45.1395 98.1057C45.2988 99.0755 44.6413 99.9909 43.6709 100.15Z" fill="#CBE8FF"/>
<path d="M58.2583 97.7545L49.0094 99.2735C48.039 99.4329 47.1233 98.7759 46.964 97.8061L45.6043 89.5272C45.445 88.5574 46.1025 87.642 47.0729 87.4827L56.3218 85.9636C57.2922 85.8043 58.2079 86.4613 58.3672 87.4311L59.7269 95.7099C59.8861 96.6797 59.2287 97.5951 58.2583 97.7545Z" fill="#CBE8FF"/>
<path d="M72.8427 95.359L63.5939 96.878C62.6235 97.0374 61.7078 96.3804 61.5485 95.4105L60.1888 87.1317C60.0295 86.1619 60.687 85.2465 61.6574 85.0872L70.9062 83.5681C71.8766 83.4088 72.7923 84.0658 72.9516 85.0356L74.3113 93.3144C74.4706 94.2842 73.8131 95.1996 72.8427 95.359Z" fill="#CBE8FF"/>
<path d="M46.0239 114.479L36.775 115.998C35.8047 116.157 34.8889 115.5 34.7296 114.531L33.3699 106.252C33.2107 105.282 33.8682 104.367 34.8385 104.207L44.0874 102.688C45.0578 102.529 45.9735 103.186 46.1328 104.156L47.4925 112.434C47.6518 113.404 46.9943 114.32 46.0239 114.479Z" fill="#CBE8FF"/>
<path d="M60.6123 112.083L51.3634 113.602C50.393 113.762 49.4773 113.105 49.318 112.135L47.9583 103.856C47.799 102.886 48.4565 101.971 49.4269 101.812L58.6758 100.293C59.6462 100.133 60.5619 100.79 60.7212 101.76L62.0809 110.039C62.2401 111.008 61.5827 111.924 60.6123 112.083Z" fill="#CBE8FF"/>
<path d="M75.1967 109.688L65.9479 111.207C64.9775 111.366 64.0618 110.709 63.9025 109.739L62.5428 101.461C62.3835 100.491 63.041 99.5754 64.0114 99.416L73.2602 97.897C74.2306 97.7376 75.1463 98.3946 75.3056 99.3644L76.6653 107.643C76.8246 108.613 76.1671 109.528 75.1967 109.688Z" fill="#CBE8FF"/>
<path d="M85.4941 81.1724L76.2452 82.6914C75.2749 82.8508 74.6174 83.7662 74.7767 84.736L78.4897 107.344C78.649 108.313 79.5647 108.97 80.535 108.811L89.784 107.292C90.7542 107.133 91.4118 106.217 91.2525 105.247L87.5395 82.6398C87.3802 81.67 86.4644 81.013 85.4941 81.1724Z" fill="#CBE8FF"/>
<path d="M36.5195 32.0852L50.107 42.7692L64.3714 40.4264L50.7839 29.7424L36.5195 32.0852Z" fill="#4B4F69"/>
<path d="M56.3655 28.8258L52.7393 29.4214L66.3266 40.1054L69.9529 39.5098L56.3655 28.8258Z" fill="#4B4F69"/>
<path d="M69.95 39.5101L66.3237 40.1057L64.3691 40.4267L50.1047 42.7694L26.287 46.6812L24.2215 34.1049L23.6064 34.2059C22.579 34.3747 21.8829 35.3444 22.0516 36.3718L23.8447 47.2891C24.0134 48.3166 24.9831 49.0127 26.0106 48.8439L52.3321 44.5209L66.5965 42.1782L68.5511 41.8571L72.1775 41.2615L78.7594 40.1805C79.7869 40.0118 80.483 39.0421 80.3142 38.0146L80.2812 37.8133L69.95 39.5101Z" fill="#20212D"/>
</g>
<path d="M49.3825 32.6491L50.8017 41.2906L48.9853 41.5889L47.566 32.9474L49.3825 32.6491ZM55.4821 35.1313C56.5862 34.9499 57.2348 35.4469 57.4278 36.6223L57.7305 38.4655C57.9236 39.6408 57.468 40.3192 56.3639 40.5005L54.7879 40.7593C53.6837 40.9407 53.0352 40.4437 52.8421 39.2683L51.9581 33.8857C51.7651 32.7104 52.2206 32.0321 53.3247 31.8507L54.7672 31.6138C55.8713 31.4325 56.5199 31.9295 56.7129 33.1048L56.8182 33.7459L55.1086 34.0267L54.9967 33.3455C54.985 33.2743 54.9481 33.2164 54.8859 33.1717C54.8326 33.1256 54.7703 33.1084 54.6991 33.1201L53.8309 33.2627C53.7597 33.2744 53.7018 33.3113 53.6571 33.3735C53.6214 33.4343 53.6093 33.5002 53.621 33.5715L53.9479 35.5616C54.1693 35.4063 54.4581 35.2995 54.8143 35.241L55.4821 35.1313ZM56.0502 38.5906L55.7958 37.0412C55.7841 36.97 55.7471 36.9121 55.6849 36.8674C55.6316 36.8213 55.5693 36.8041 55.4981 36.8158L54.443 36.9891C54.3717 37.0008 54.3138 37.0377 54.2691 37.0999C54.2334 37.1607 54.2214 37.2266 54.2331 37.2979L54.4875 38.8472C54.4992 38.9184 54.5317 38.9771 54.585 39.0232C54.6472 39.0679 54.7139 39.0844 54.7852 39.0727L55.8403 38.8994C55.9115 38.8877 55.965 38.8514 56.0008 38.7907C56.0454 38.7285 56.0619 38.6618 56.0502 38.5906ZM59.9858 38.9181C59.9419 38.6509 59.9981 38.4085 60.1544 38.1908C60.3107 37.9731 60.5224 37.8423 60.7895 37.7985C61.0566 37.7546 61.299 37.8108 61.5167 37.9671C61.7344 38.1233 61.8652 38.3351 61.9091 38.6022C61.953 38.8693 61.8968 39.1117 61.7405 39.3294C61.5842 39.5471 61.3725 39.6779 61.1054 39.7218C60.8382 39.7656 60.5958 39.7094 60.3781 39.5532C60.1604 39.3969 60.0297 39.1852 59.9858 38.9181ZM59.229 34.3101C59.1851 34.043 59.2413 33.8006 59.3976 33.5829C59.5539 33.3652 59.7656 33.2344 60.0327 33.1906C60.2998 33.1467 60.5422 33.2029 60.7599 33.3592C60.9776 33.5154 61.1084 33.7271 61.1523 33.9943C61.1962 34.2614 61.14 34.5038 60.9837 34.7215C60.8274 34.9392 60.6157 35.07 60.3486 35.1139C60.0815 35.1577 59.839 35.1015 59.6213 34.9452C59.4036 34.789 59.2729 34.5773 59.229 34.3101ZM67.6243 33.9738C68.0911 34.1989 68.3829 34.6676 68.4999 35.3799L68.7105 36.6621C68.9036 37.8375 68.448 38.5158 67.3439 38.6972L65.7679 38.956C64.6637 39.1373 64.0152 38.6403 63.8221 37.465L63.7059 36.7571L65.3754 36.4829L65.5048 37.2709C65.5165 37.3422 65.549 37.4008 65.6023 37.4469C65.6645 37.4916 65.7312 37.5081 65.8025 37.4964L66.8576 37.3231C66.9288 37.3114 66.9823 37.2752 67.0181 37.2144C67.0627 37.1522 67.0792 37.0855 67.0675 37.0143L66.7648 35.1711C66.7531 35.0999 66.7161 35.0419 66.6539 34.9973C66.6006 34.9512 66.5384 34.934 66.4671 34.9457L65.0914 35.1716L64.8545 33.7291L66.1501 33.5163C66.2213 33.5046 66.2748 33.4684 66.3106 33.4077C66.3552 33.3455 66.3717 33.2788 66.36 33.2075L66.0836 31.5246C66.0719 31.4534 66.035 31.3955 65.9728 31.3508C65.9195 31.3047 65.8572 31.2875 65.786 31.2992L64.8911 31.4462C64.8199 31.4579 64.7619 31.4948 64.7173 31.557C64.6815 31.6178 64.6695 31.6837 64.6812 31.755L64.8216 32.6098L63.152 32.884L63.0182 32.0692C62.8252 30.8939 63.2807 30.2156 64.3849 30.0342L65.8006 29.8017C66.9047 29.6204 67.5533 30.1174 67.7464 31.2927L67.935 32.4413C68.0491 33.1359 67.9455 33.6467 67.6243 33.9738ZM73.4241 32.1845C74.5282 32.0032 75.1768 32.5002 75.3699 33.6755L75.6726 35.5187C75.8656 36.694 75.4101 37.3724 74.306 37.5537L72.7299 37.8126C71.6258 37.9939 70.9772 37.4969 70.7842 36.3215L69.9002 30.939C69.7071 29.7636 70.1627 29.0853 71.2668 28.9039L72.7093 28.667C73.8134 28.4857 74.462 28.9827 74.655 30.158L74.7603 30.7991L73.0507 31.0799L72.9388 30.3988C72.9271 30.3275 72.8902 30.2696 72.828 30.2249C72.7747 30.1788 72.7124 30.1616 72.6412 30.1733L71.773 30.3159C71.7018 30.3276 71.6438 30.3645 71.5992 30.4267C71.5634 30.4875 71.5514 30.5535 71.5631 30.6247L71.89 32.6148C72.1114 32.4595 72.4001 32.3527 72.7563 32.2942L73.4241 32.1845ZM73.9923 35.6438L73.7378 34.0944C73.7261 34.0232 73.6892 33.9653 73.627 33.9206C73.5737 33.8745 73.5114 33.8573 73.4402 33.869L72.385 34.0423C72.3138 34.054 72.2559 34.0909 72.2112 34.1531C72.1755 34.2139 72.1634 34.2799 72.1751 34.3511L72.4296 35.9004C72.4413 35.9717 72.4738 36.0303 72.5271 36.0764C72.5893 36.1211 72.656 36.1376 72.7272 36.1259L73.7824 35.9526C73.8536 35.9409 73.9071 35.9047 73.9428 35.8439C73.9875 35.7817 74.004 35.715 73.9923 35.6438Z" fill="#87BDE7"/>
</g>
<defs>
<filter id="filter0_d_262_2819" x="0.12793" y="0.863281" width="116.763" height="142.49" filterUnits="userSpaceOnUse" color-interpolation-filters="sRGB">
<feFlood flood-opacity="0" result="BackgroundImageFix"/>
<feColorMatrix in="SourceAlpha" type="matrix" values="0 0 0 0 0 0 0 0 0 0 0 0 0 0 0 0 0 0 127 0" result="hardAlpha"/>
<feOffset dx="2" dy="2"/>
<feGaussianBlur stdDeviation="10"/>
<feComposite in2="hardAlpha" operator="out"/>
<feColorMatrix type="matrix" values="0 0 0 0 0.0901961 0 0 0 0 0.341176 0 0 0 0 0.47451 0 0 0 0.6 0"/>
<feBlend mode="normal" in2="BackgroundImageFix" result="effect1_dropShadow_262_2819"/>
<feBlend mode="normal" in="SourceGraphic" in2="effect1_dropShadow_262_2819" result="shape"/>
</filter>
</defs>
</svg>
