<svg width="51" height="34" viewBox="0 0 51 34" fill="none" xmlns="http://www.w3.org/2000/svg">
<path d="M25.3812 10.1898C23.5947 10.1898 21.8813 10.8961 20.618 12.1534C19.3548 13.4106 18.6451 15.1158 18.6451 16.8939C18.6451 18.6719 19.3548 20.3771 20.618 21.6343C21.8813 22.8916 23.5947 23.5979 25.3812 23.5979C27.1677 23.5979 28.8811 22.8916 30.1443 21.6343C31.4076 20.3771 32.1173 18.6719 32.1173 16.8939C32.1173 15.1158 31.4076 13.4106 30.1443 12.1534C28.8811 10.8961 27.1677 10.1898 25.3812 10.1898ZM25.3812 28.0672C22.4036 28.0672 19.548 26.89 17.4426 24.7946C15.3372 22.6992 14.1543 19.8572 14.1543 16.8939C14.1543 13.9305 15.3372 11.0885 17.4426 8.99309C19.548 6.89767 22.4036 5.72048 25.3812 5.72048C28.3587 5.72048 31.2143 6.89767 33.3198 8.99309C35.4252 11.0885 36.608 13.9305 36.608 16.8939C36.608 19.8572 35.4252 22.6992 33.3198 24.7946C31.2143 26.89 28.3587 28.0672 25.3812 28.0672ZM25.3812 0.133789C14.1543 0.133789 4.56662 7.08363 0.682129 16.8939C4.56662 26.7041 14.1543 33.6539 25.3812 33.6539C36.608 33.6539 46.1957 26.7041 50.0802 16.8939C46.1957 7.08363 36.608 0.133789 25.3812 0.133789Z" fill="#00C4F6"/>
</svg>
