<svg width="34" height="35" viewBox="0 0 34 35" fill="none" xmlns="http://www.w3.org/2000/svg">
<g clip-path="url(#clip0_336_886)">
<path d="M34 17.2266C34 7.83778 26.3888 0.226562 17 0.226562C7.61122 0.226562 0 7.83778 0 17.2266C0 25.7117 6.21669 32.7448 14.3438 34.02V22.1406H10.0273V17.2266H14.3438V13.4813C14.3438 9.22062 16.8818 6.86719 20.765 6.86719C22.6249 6.86719 24.5703 7.19922 24.5703 7.19922V11.3828H22.4267C20.3149 11.3828 19.6562 12.6933 19.6562 14.0377V17.2266H24.3711L23.6174 22.1406H19.6562V34.02C27.7833 32.7448 34 25.7118 34 17.2266Z" fill="#1877F2"/>
<path d="M23.6174 22.1406L24.3711 17.2266H19.6562V14.0377C19.6562 12.6931 20.3149 11.3828 22.4267 11.3828H24.5703V7.19922C24.5703 7.19922 22.6249 6.86719 20.7648 6.86719C16.8818 6.86719 14.3438 9.22063 14.3438 13.4813V17.2266H10.0273V22.1406H14.3438V34.02C15.2225 34.1577 16.1106 34.2268 17 34.2266C17.8894 34.2268 18.7775 34.1577 19.6562 34.02V22.1406H23.6174Z" fill="white"/>
</g>
<defs>
<clipPath id="clip0_336_886">
<rect width="34" height="34" fill="white" transform="translate(0 0.226562)"/>
</clipPath>
</defs>
</svg>
