<svg width="23" height="25" viewBox="0 0 23 25" fill="none" xmlns="http://www.w3.org/2000/svg">
<path d="M16.4191 2.79749H8.2508C7.87205 2.79749 7.53353 3.03377 7.40293 3.38929L4.00189 12.6477C3.78531 13.2373 4.22167 13.8624 4.84975 13.8624H7.0237C7.32311 13.8624 7.53965 14.1485 7.45837 14.4366L5.21074 22.4055C5.16504 22.5675 5.21114 22.7446 5.34347 22.8487C5.95469 23.3297 6.41545 23.2263 7.13641 22.6932C7.15772 22.6775 7.17781 22.6595 7.19591 22.6401L18.8437 10.189C19.3836 9.61187 18.9744 8.66867 18.1841 8.66867H15.9795C15.6562 8.66867 15.4376 8.33884 15.5636 8.04107L17.2509 4.05269C17.5029 3.45714 17.0657 2.79749 16.4191 2.79749Z" fill="url(#paint0_linear_369_2718)"/>
<path d="M8.47158 4.46855C8.53708 4.29116 8.70615 4.17335 8.89524 4.17334L9.81702 4.1733C10.1314 4.17329 10.3496 4.48645 10.2407 4.78135L7.95613 10.9692C7.89064 11.1466 7.72157 11.2644 7.53248 11.2644L6.6107 11.2645C6.29634 11.2645 6.07812 10.9513 6.187 10.6564L8.47158 4.46855Z" fill="white"/>
<defs>
<linearGradient id="paint0_linear_369_2718" x1="6.26544" y1="8.66867" x2="19.5885" y2="9.34611" gradientUnits="userSpaceOnUse">
<stop stop-color="#F037A5"/>
<stop offset="1" stop-color="#B9026F"/>
</linearGradient>
</defs>
</svg>
