<svg width="71" height="72" viewBox="0 0 71 72" fill="none" xmlns="http://www.w3.org/2000/svg">
<path d="M69.8727 29.2059H67.0305V29.0595H35.2746V43.1733H55.2156C52.3064 51.3892 44.4891 57.287 35.2746 57.287C23.5831 57.287 14.104 47.8079 14.104 36.1164C14.104 24.4249 23.5831 14.9458 35.2746 14.9458C40.6713 14.9458 45.5812 16.9817 49.3195 20.3072L59.2997 10.3271C52.9979 4.45397 44.5685 0.832031 35.2746 0.832031C15.7888 0.832031 -0.00976562 16.6306 -0.00976562 36.1164C-0.00976562 55.6022 15.7888 71.4007 35.2746 71.4007C54.7604 71.4007 70.559 55.6022 70.559 36.1164C70.559 33.7506 70.3155 31.4412 69.8727 29.2059Z" fill="#FFC107"/>
<path d="M4.06006 19.6933L15.6527 28.1951C18.7895 20.429 26.3862 14.9458 35.2761 14.9458C40.6729 14.9458 45.5827 16.9817 49.3211 20.3072L59.3013 10.3271C52.9995 4.45397 44.57 0.832031 35.2761 0.832031C21.7234 0.832031 9.97019 8.48344 4.06006 19.6933Z" fill="#FF3D00"/>
<path d="M35.2752 71.4003C44.3891 71.4003 52.6704 67.9124 58.9316 62.2405L48.0111 52.9995C44.3495 55.7841 39.8753 57.2902 35.2752 57.2865C26.0977 57.2865 18.3052 51.4346 15.3695 43.2681L3.86328 52.1333C9.70284 63.5601 21.5619 71.4003 35.2752 71.4003Z" fill="#4CAF50"/>
<path d="M69.873 29.206H67.0308V29.0596H35.2749V43.1733H55.2159C53.8243 47.0836 51.3176 50.5004 48.0055 53.0018L48.0108 52.9982L58.9313 62.2392C58.1586 62.9414 70.5593 53.7586 70.5593 36.1164C70.5593 33.7506 70.3158 31.4413 69.873 29.206Z" fill="#1976D2"/>
</svg>
