<svg width="26" height="32" viewBox="0 0 26 32" fill="none" xmlns="http://www.w3.org/2000/svg">
<path d="M11.0703 19.0208C11.059 19.0547 10.9885 19.0519 10.8587 19.0124C10.729 18.9729 10.5512 18.908 10.3255 18.8177L9.98698 18.6654C9.49045 18.4397 8.99957 18.1632 8.51432 17.8359C8.43533 17.7795 8.20399 17.6018 7.82031 17.3027C7.43663 17.0037 7.22222 16.8429 7.17708 16.8203C6.42101 17.9826 5.66493 19.0039 4.90885 19.8841C3.99479 20.9562 3.40234 21.5768 3.13151 21.7461C3.08637 21.7687 2.97635 21.7912 2.80143 21.8138C2.62652 21.8364 2.52214 21.8364 2.48828 21.8138C2.55599 21.7687 3.01866 21.2496 3.8763 20.2565C4.11328 19.9857 4.5957 19.3368 5.32357 18.3099C6.05143 17.283 6.49436 16.6172 6.65234 16.3125C6.84418 15.974 7.13194 15.4182 7.51563 14.6452C7.89931 13.8722 8.10243 13.4349 8.125 13.3333C8.03472 13.322 7.41406 13.5082 6.26302 13.8919C6.17274 13.9145 6.01758 13.9568 5.79753 14.0189C5.57747 14.0809 5.38281 14.1345 5.21354 14.1797C5.04427 14.2248 4.94835 14.253 4.92578 14.2643C4.90321 14.2869 4.89193 14.3461 4.89193 14.4421C4.89193 14.538 4.88628 14.5916 4.875 14.6029C4.81858 14.7157 4.64366 14.8003 4.35026 14.8568C4.09071 14.9358 3.82552 14.9358 3.55469 14.8568C3.35156 14.8116 3.19358 14.6931 3.08073 14.5013C3.03559 14.4336 3.00738 14.3038 2.99609 14.112C3.0638 14.0894 3.20204 14.0612 3.41081 14.0273C3.61957 13.9935 3.78602 13.9596 3.91016 13.9258C4.56467 13.7452 5.15712 13.5647 5.6875 13.3841C6.81597 12.9892 7.39149 12.7917 7.41406 12.7917C7.52691 12.7691 7.76953 12.6591 8.14193 12.4616C8.51432 12.2641 8.76259 12.1428 8.88672 12.0977C8.98828 12.0638 9.10959 12.0187 9.25065 11.9622C9.39171 11.9058 9.47353 11.8748 9.49609 11.8691C9.51866 11.8635 9.55252 11.8663 9.59766 11.8776C9.62023 12.013 9.61458 12.1992 9.58073 12.4362C9.58073 12.4588 9.5102 12.6111 9.36914 12.8932C9.22808 13.1753 9.07856 13.4772 8.92057 13.7988C8.76259 14.1204 8.66667 14.3095 8.63281 14.3659C8.35069 14.9301 7.91623 15.6693 7.32943 16.5833L8.41276 17.0573C8.54818 17.125 8.96853 17.3056 9.67383 17.599C10.3791 17.8924 10.76 18.0503 10.8164 18.0729C10.8615 18.0842 10.9208 18.2281 10.9941 18.5046C11.0675 18.781 11.0929 18.9531 11.0703 19.0208ZM7.60026 10.7943C7.63411 10.9635 7.61155 11.1215 7.53255 11.2682C7.39714 11.5278 7.11502 11.7422 6.6862 11.9115C6.34766 12.0469 6.00911 12.1146 5.67057 12.1146C5.37717 12.0807 5.10069 11.934 4.84115 11.6745C4.68316 11.5052 4.5816 11.2739 4.53646 10.9805L4.55339 10.9297C4.58724 10.9635 4.69727 10.9918 4.88346 11.0143C5.06966 11.0369 5.21918 11.0369 5.33203 11.0143C5.44488 10.9918 5.77214 10.9015 6.3138 10.7435C6.72005 10.6081 7.03038 10.5291 7.24479 10.5065C7.43663 10.5065 7.55512 10.6024 7.60026 10.7943ZM19.4154 12.9779L20.4818 16.8203L18.1289 16.1094L19.4154 12.9779ZM0.660156 26.5195L12.4076 22.5924V5.1237L0.660156 9.06771V26.5195ZM21.6667 21.1536L23.3932 21.6784L20.3294 10.5573L18.6367 10.0326L14.9805 19.1055L16.707 19.6302L17.4688 17.7682L21.0404 18.8685L21.6667 21.1536ZM13.1523 4.86979L22.8516 7.98438V1.55208L13.1523 4.86979ZM18.4167 27.2643L21.0911 27.4844L20.1771 30.1927L19.5 29.0755C18.033 30.0122 16.4757 30.6215 14.8281 30.9036C14.1736 31.0391 13.6602 31.1068 13.2878 31.1068H11.8659C10.9744 31.1068 9.84874 30.8867 8.48893 30.4466C7.12912 30.0065 6.09375 29.5269 5.38281 29.0078C5.29253 28.9288 5.2474 28.8385 5.2474 28.737C5.2474 28.6467 5.27561 28.5705 5.33203 28.5085C5.38845 28.4464 5.46181 28.4154 5.55208 28.4154C5.59722 28.4154 5.69878 28.4577 5.85677 28.5423C6.01476 28.627 6.18685 28.7201 6.37305 28.8216C6.55925 28.9232 6.67491 28.9852 6.72005 29.0078C7.54384 29.4253 8.44379 29.7724 9.41992 30.0488C10.3961 30.3253 11.2847 30.4635 12.0859 30.4635C13.158 30.4635 14.1003 30.3817 14.9128 30.2181C15.7253 30.0545 16.6111 29.7695 17.5703 29.3633C17.7396 29.2843 17.9117 29.1968 18.0866 29.1009C18.2615 29.005 18.4533 28.8978 18.6621 28.7793C18.8709 28.6608 19.0317 28.5677 19.1445 28.5L18.4167 27.2643ZM26 9V27.2643L12.8984 23.1003C12.7405 23.168 10.6246 23.8874 6.55078 25.2585C2.477 26.6296 0.400608 27.3151 0.321615 27.3151C0.174913 27.3151 0.0733507 27.2418 0.0169271 27.0951C0.0169271 27.0838 0.0112847 27.0668 0 27.0443V8.79688C0.0338542 8.69531 0.0564236 8.63889 0.0677083 8.6276C0.124132 8.5599 0.236979 8.49783 0.40625 8.44141C1.61372 8.03516 2.45443 7.75304 2.92839 7.59505V1.09505L12.3737 4.44661C12.3963 4.44661 13.3019 4.13628 15.0905 3.51562C16.8791 2.89497 18.6621 2.28277 20.4395 1.67904C22.2168 1.0753 23.128 0.773438 23.1732 0.773438C23.3989 0.773438 23.5117 0.891927 23.5117 1.12891V8.20443L26 9Z" fill="#00C4F6"/>
</svg>
