<svg width="38" height="45" viewBox="0 0 38 45" fill="none" xmlns="http://www.w3.org/2000/svg">
<path d="M2.17887 9.81774L16.9756 1.5591C18.1863 0.883339 19.6625 0.890776 20.8664 1.5787L35.2722 9.81062C36.5048 10.515 37.2655 11.8258 37.2655 13.2454V31.406C37.2655 32.8006 36.5313 34.0921 35.3329 34.8054L20.9264 43.3808C19.692 44.1155 18.1564 44.1234 16.9145 43.4014L2.11853 34.7991C0.900373 34.0908 0.150879 32.7881 0.150879 31.379V13.2721C0.150879 11.8382 0.926787 10.5166 2.17887 9.81774Z" fill="url(#paint0_linear_0_1358)"/>
<path d="M4.69854 12.6992L17.3022 5.34712C18.0214 4.92755 18.9247 5.44637 18.9247 6.27907V13.8086C18.9247 14.2004 18.7123 14.5614 18.3698 14.7517L11.6402 18.4904C11.2871 18.6866 10.8539 18.669 10.5178 18.4449L4.6437 14.5289C3.97986 14.0863 4.00938 13.1012 4.69854 12.6992Z" fill="white"/>
<defs>
<linearGradient id="paint0_linear_0_1358" x1="11.0669" y1="5.70993" x2="27.6594" y2="38.8948" gradientUnits="userSpaceOnUse">
<stop stop-color="#00C9FF"/>
<stop offset="1" stop-color="#0080FF"/>
</linearGradient>
</defs>
</svg>
