<svg width="75" height="25" viewBox="0 0 75 25" fill="none" xmlns="http://www.w3.org/2000/svg">
<path fill-rule="evenodd" clip-rule="evenodd" d="M36.9061 1.79302C37.2644 1.5143 37.7662 1.5143 38.1246 1.79302L47.0559 8.73959C47.2976 8.9276 47.439 9.21668 47.439 9.52292V20.4389C47.439 21.2285 47.1253 21.9858 46.567 22.5441C46.0087 23.1024 45.2515 23.416 44.4619 23.416H30.5688C29.7792 23.416 29.022 23.1024 28.4636 22.5441C27.9053 21.9858 27.5917 21.2285 27.5917 20.4389V9.52292C27.5917 9.21668 27.7331 8.9276 27.9748 8.73959L36.9061 1.79302ZM29.5764 10.0083V20.4389C29.5764 20.7021 29.681 20.9545 29.8671 21.1407C30.0532 21.3268 30.3056 21.4313 30.5688 21.4313H44.4619C44.7251 21.4313 44.9775 21.3268 45.1636 21.1407C45.3497 20.9545 45.4543 20.7021 45.4543 20.4389V10.0083L37.5153 3.83354L29.5764 10.0083Z" fill="white"/>
<path fill-rule="evenodd" clip-rule="evenodd" d="M33.5458 12.4999C33.5458 11.9519 33.9901 11.5076 34.5382 11.5076H40.4924C41.0405 11.5076 41.4848 11.9519 41.4848 12.4999V22.4236C41.4848 22.9717 41.0405 23.416 40.4924 23.416C39.9443 23.416 39.5 22.9717 39.5 22.4236V13.4923H35.5306V22.4236C35.5306 22.9717 35.0863 23.416 34.5382 23.416C33.9901 23.416 33.5458 22.9717 33.5458 22.4236V12.4999Z" fill="white"/>
</svg>
