<svg width="62" height="62" viewBox="0 0 62 62" fill="none" xmlns="http://www.w3.org/2000/svg">
<path d="M47.3023 0.0629883H14.7112C6.7702 0.0629883 0.332764 6.50043 0.332764 14.4414V47.0325C0.332764 54.9735 6.7702 61.4109 14.7112 61.4109H47.3023C55.2432 61.4109 61.6807 54.9735 61.6807 47.0325V14.4414C61.6807 6.50043 55.2432 0.0629883 47.3023 0.0629883Z" fill="url(#paint0_radial_291_931)"/>
<path d="M47.3023 0.0629883H14.7112C6.7702 0.0629883 0.332764 6.50043 0.332764 14.4414V47.0325C0.332764 54.9735 6.7702 61.4109 14.7112 61.4109H47.3023C55.2432 61.4109 61.6807 54.9735 61.6807 47.0325V14.4414C61.6807 6.50043 55.2432 0.0629883 47.3023 0.0629883Z" fill="url(#paint1_radial_291_931)"/>
<path d="M31.0079 6.77344C24.4998 6.77344 23.6829 6.80195 21.1268 6.91818C18.5756 7.03512 16.8342 7.43892 15.3105 8.03155C13.7342 8.64359 12.3972 9.46244 11.0653 10.7948C9.73219 12.127 8.91334 13.464 8.29938 15.0396C7.70507 16.5637 7.3008 18.3059 7.18601 20.8559C7.0717 23.4121 7.04175 24.2293 7.04175 30.7377C7.04175 37.2461 7.0705 38.0604 7.18649 40.6164C7.30391 43.1676 7.70771 44.9091 8.29986 46.4327C8.91238 48.0091 9.73123 49.346 11.0636 50.6779C12.3953 52.0111 13.7323 52.8318 15.3074 53.4439C16.8323 54.0365 18.574 54.4403 21.1247 54.5572C23.6809 54.6735 24.4972 54.702 31.0051 54.702C37.5139 54.702 38.3282 54.6735 40.8842 54.5572C43.4354 54.4403 45.1788 54.0365 46.7037 53.4439C48.2793 52.8318 49.6143 52.0111 50.9458 50.6779C52.2789 49.346 53.0975 48.0091 53.7117 46.4334C54.3007 44.9091 54.7052 43.1671 54.8251 40.6169C54.9399 38.0609 54.9698 37.2461 54.9698 30.7377C54.9698 24.2293 54.9399 23.4126 54.8251 20.8564C54.7052 18.3052 54.3007 16.5639 53.7117 15.0403C53.0975 13.464 52.2789 12.127 50.9458 10.7948C49.6129 9.46196 48.2798 8.64311 46.7022 8.03179C45.1745 7.43892 43.4321 7.03489 40.8809 6.91818C38.3246 6.80195 37.5108 6.77344 31.0005 6.77344H31.0079ZM28.8581 11.092C29.4963 11.091 30.2083 11.092 31.0079 11.092C37.4066 11.092 38.1648 11.115 40.6916 11.2298C43.0281 11.3367 44.2962 11.727 45.141 12.0551C46.2594 12.4893 47.0567 13.0086 47.8949 13.8476C48.7337 14.6864 49.2527 15.4851 49.6881 16.6035C50.0162 17.447 50.4071 18.7152 50.5135 21.0517C50.6283 23.578 50.6532 24.3367 50.6532 30.7322C50.6532 37.1277 50.6283 37.8867 50.5135 40.4127C50.4066 42.7492 50.0162 44.0174 49.6881 44.8612C49.2539 45.9796 48.7337 46.7759 47.8949 47.6141C47.0562 48.4529 46.2598 48.9719 45.141 49.4064C44.2972 49.7359 43.0281 50.1253 40.6916 50.2322C38.1653 50.347 37.4066 50.3719 31.0079 50.3719C24.6091 50.3719 23.8506 50.347 21.3246 50.2322C18.9881 50.1244 17.7199 49.734 16.8744 49.4059C15.7563 48.9715 14.9573 48.4524 14.1186 47.6137C13.2798 46.7749 12.7608 45.9781 12.3253 44.8592C11.9973 44.0155 11.6064 42.7473 11.5 40.4108C11.3852 37.8845 11.3622 37.1258 11.3622 30.7262C11.3622 24.3266 11.3852 23.572 11.5 21.0457C11.6069 18.7092 11.9973 17.441 12.3253 16.5963C12.7598 15.4779 13.2798 14.6792 14.1188 13.8404C14.9578 13.0017 15.7563 12.4824 16.8747 12.0472C17.7194 11.7177 18.9881 11.3283 21.3246 11.2209C23.5352 11.121 24.3919 11.091 28.8581 11.086V11.092ZM43.7999 15.071C42.2123 15.071 40.9243 16.3579 40.9243 17.9457C40.9243 19.5333 42.2123 20.8214 43.7999 20.8214C45.3876 20.8214 46.6756 19.5333 46.6756 17.9457C46.6756 16.3581 45.3876 15.07 43.7999 15.07V15.071ZM31.0079 18.431C24.2117 18.431 18.7014 23.9413 18.7014 30.7377C18.7014 37.5342 24.2117 43.0418 31.0079 43.0418C37.8044 43.0418 43.3127 37.5342 43.3127 30.7377C43.3127 23.9415 37.8039 18.431 31.0075 18.431H31.0079ZM31.0079 22.7495C35.4195 22.7495 38.9961 26.3257 38.9961 30.7377C38.9961 35.1493 35.4195 38.7259 31.0079 38.7259C26.5964 38.7259 23.02 35.1493 23.02 30.7377C23.02 26.3257 26.5962 22.7495 31.0079 22.7495Z" fill="white"/>
<defs>
<radialGradient id="paint0_radial_291_931" cx="0" cy="0" r="1" gradientUnits="userSpaceOnUse" gradientTransform="translate(16.6283 66.1359) rotate(-90) scale(60.8003 56.5491)">
<stop stop-color="#FFDD55"/>
<stop offset="0.1" stop-color="#FFDD55"/>
<stop offset="0.5" stop-color="#FF543E"/>
<stop offset="1" stop-color="#C837AB"/>
</radialGradient>
<radialGradient id="paint1_radial_291_931" cx="0" cy="0" r="1" gradientUnits="userSpaceOnUse" gradientTransform="translate(-9.94325 4.48219) rotate(78.681) scale(27.1781 112.029)">
<stop stop-color="#3771C8"/>
<stop offset="0.128" stop-color="#3771C8"/>
<stop offset="1" stop-color="#6600FF" stop-opacity="0"/>
</radialGradient>
</defs>
</svg>
