<svg width="36" height="28" viewBox="0 0 36 28" fill="none" xmlns="http://www.w3.org/2000/svg">
<path d="M34.2232 0.375001H25.3008C23.3861 0.375001 21.5142 0.92485 19.9037 1.96215L18.0007 3.18274L16.0976 1.96215C14.4887 0.925049 12.6148 0.373978 10.7005 0.375001H1.77816C1.08792 0.375001 0.530273 0.93265 0.530273 1.62289V23.7728C0.530273 24.4631 1.08792 25.0207 1.77816 25.0207H10.7005C12.6153 25.0207 14.4871 25.5706 16.0976 26.6079L17.8291 27.7232C17.8798 27.7544 17.9383 27.7739 17.9968 27.7739C18.0553 27.7739 18.1137 27.7583 18.1644 27.7232L19.8959 26.6079C21.5103 25.5706 23.3861 25.0207 25.3008 25.0207H34.2232C34.9134 25.0207 35.471 24.4631 35.471 23.7728V1.62289C35.471 0.93265 34.9134 0.375001 34.2232 0.375001ZM13.789 15.6811C13.789 15.841 13.6643 15.9736 13.5122 15.9736H6.26664C6.11456 15.9736 5.98977 15.841 5.98977 15.6811V13.9262C5.98977 13.7664 6.11456 13.6338 6.26664 13.6338H13.5083C13.6604 13.6338 13.7851 13.7664 13.7851 13.9262V15.6811H13.789ZM13.789 10.2216C13.789 10.3815 13.6643 10.5141 13.5122 10.5141H6.26664C6.11456 10.5141 5.98977 10.3815 5.98977 10.2216V8.46675C5.98977 8.30687 6.11456 8.17428 6.26664 8.17428H13.5083C13.6604 8.17428 13.7851 8.30687 13.7851 8.46675V10.2216H13.789ZM30.0115 15.6811C30.0115 15.841 29.8868 15.9736 29.7347 15.9736H22.4891C22.3371 15.9736 22.2123 15.841 22.2123 15.6811V13.9262C22.2123 13.7664 22.3371 13.6338 22.4891 13.6338H29.7308C29.8829 13.6338 30.0076 13.7664 30.0076 13.9262V15.6811H30.0115ZM30.0115 10.2216C30.0115 10.3815 29.8868 10.5141 29.7347 10.5141H22.4891C22.3371 10.5141 22.2123 10.3815 22.2123 10.2216V8.46675C22.2123 8.30687 22.3371 8.17428 22.4891 8.17428H29.7308C29.8829 8.17428 30.0076 8.30687 30.0076 8.46675V10.2216H30.0115Z" fill="#00C4F6"/>
</svg>
