<svg width="22" height="23" viewBox="0 0 22 23" fill="none" xmlns="http://www.w3.org/2000/svg">
<path d="M9.70262 9.34248H11.824C13.3239 9.34248 14.0738 9.34248 14.5395 9.82648C15.0062 10.3094 15.0062 11.0871 15.0062 12.6425V19.2425C15.0062 17.6871 15.0062 16.9094 15.4729 16.4265C15.9375 15.9425 16.6874 15.9425 18.1883 15.9425C19.6882 15.9425 20.4381 15.9425 20.9038 16.4265C21.3705 16.9094 21.3705 17.6871 21.3705 19.2425V22.5425H0.156189C0.156189 20.9871 0.156189 20.2094 0.622903 19.7265C1.0875 19.2425 1.83742 19.2425 3.33833 19.2425C4.83818 19.2425 5.58811 19.2425 6.05376 19.7265C6.52048 20.2083 6.52048 20.986 6.52048 22.5425V12.6425C6.52048 11.0871 6.52048 10.3094 6.98719 9.82648C7.45178 9.34248 8.20171 9.34248 9.70262 9.34248ZM9.85748 1.66778C10.2606 0.91648 10.4621 0.54248 10.7633 0.54248C11.0646 0.54248 11.2661 0.91648 11.6692 1.66778L11.7731 1.86138C11.8877 2.07478 11.945 2.18038 12.0341 2.25078C12.1242 2.32118 12.2356 2.34758 12.4584 2.39928L12.6599 2.44768C13.4427 2.63138 13.8341 2.72268 13.9274 3.03288C14.0208 3.34418 13.7535 3.66758 13.2199 4.31438L13.0821 4.48158C12.9304 4.66528 12.854 4.75658 12.8201 4.87098C12.7861 4.98538 12.7978 5.10748 12.8201 5.35278L12.8413 5.57608C12.9219 6.43958 12.9622 6.87188 12.7193 7.06328C12.4753 7.25578 12.1083 7.07978 11.3754 6.72998L11.1866 6.63978C10.9776 6.54078 10.8736 6.49018 10.7633 6.49018C10.653 6.49018 10.5491 6.54078 10.3401 6.63978L10.1513 6.72998C9.41835 7.07978 9.05134 7.25578 8.80738 7.06328C8.56341 6.87188 8.60478 6.43958 8.68539 5.57608L8.70661 5.35278C8.72888 5.10748 8.74055 4.98538 8.70661 4.87098C8.67267 4.75768 8.59629 4.66528 8.44461 4.48158L8.30672 4.31438C7.77318 3.66758 7.50588 3.34418 7.59922 3.03288C7.69257 2.72268 8.08397 2.63138 8.86678 2.44768L9.06831 2.39928C9.29106 2.34758 9.40244 2.32228 9.4926 2.25078C9.5817 2.18038 9.63898 2.07478 9.75353 1.86138L9.85748 1.66778Z" fill="#AFAFAF"/>
</svg>
