<svg width="37" height="47" viewBox="0 0 37 47" fill="none" xmlns="http://www.w3.org/2000/svg">
<path d="M32.375 0H18.5V16.1875L12.7188 12.7188L6.9375 16.1875V0H4.625C2.08125 0 0 2.08125 0 4.625V41.625C0 44.1688 2.08125 46.25 4.625 46.25H32.375C34.9188 46.25 37 44.1688 37 41.625V4.625C37 3.39837 36.5127 2.22199 35.6454 1.35463C34.778 0.487275 33.6016 0 32.375 0ZM31.635 37.9481C31.3806 38.1562 28.8369 39.8906 27.8656 40.4688C26.8944 41.1394 23.125 43.29 23.7262 39.1275C25.1831 30.71 28.0044 25.715 24.6281 27.8888C23.7494 28.4206 23.2406 28.7444 22.9169 28.9062C22.6162 29.1606 22.6394 29.1375 22.385 28.6981C22.1306 28.2587 22.0381 28.2819 22.3619 28.0506C22.3619 28.0506 24.1037 23.1388 26 23C19.5 22 17.1619 30.4825 17 31.5C15.9362 35.7781 22.0613 41.5981 22.3619 42.5C22.6163 43.4019 34.9825 42.3419 36 41.625C36 41.625 31.2188 36.8381 31.4731 37.1156C31.7275 37.5087 31.9819 37.6937 31.635 37.9481ZM32.375 18.5694C32.375 17.2512 29.9931 16.1875 29.9931 16.1875L32.375 18.5694Z" fill="url(#paint0_linear_1_99)"/>
<path fill-rule="evenodd" clip-rule="evenodd" d="M34.5499 25.7683C34.8311 26.0496 34.9891 26.431 34.9891 26.8288C34.9891 27.2265 34.8311 27.608 34.5499 27.8893L27.3069 41.1323C27.1584 41.2809 26.982 41.3988 26.7878 41.4792C26.5937 41.5597 26.3856 41.6011 26.1754 41.6011C25.9653 41.6011 25.7572 41.5597 25.5631 41.4792C25.3689 41.3988 25.1925 41.2809 25.0439 41.1323L19.4579 35.5473C19.3147 35.4089 19.2004 35.2434 19.1218 35.0604C19.0432 34.8774 19.0018 34.6806 19.0001 34.4814C18.9983 34.2822 19.0363 34.0847 19.1117 33.9004C19.1871 33.716 19.2985 33.5485 19.4393 33.4077C19.5802 33.2669 19.7477 33.1555 19.932 33.0801C20.1163 33.0046 20.3139 32.9667 20.513 32.9684C20.7122 32.9701 20.909 33.0115 21.092 33.0901C21.275 33.1688 21.4406 33.283 21.5789 33.4263L26 36.8286L32.4279 25.7683C32.5672 25.6289 32.7326 25.5183 32.9147 25.4429C33.0967 25.3674 33.2919 25.3286 33.4889 25.3286C33.686 25.3286 33.8811 25.3674 34.0632 25.4429C34.2452 25.5183 34.4106 25.6289 34.5499 25.7683Z" fill="white"/>
<defs>
<linearGradient id="paint0_linear_1_99" x1="2.68145e-07" y1="2.85214" x2="33.7826" y2="47.8956" gradientUnits="userSpaceOnUse">
<stop stop-color="#12D18E"/>
<stop offset="1" stop-color="#0D9565"/>
</linearGradient>
</defs>
</svg>
