<svg width="32" height="32" viewBox="0 0 32 32" fill="none" xmlns="http://www.w3.org/2000/svg">
<path d="M20.6669 26.6623C20.6669 27.4874 20.9947 28.2788 21.5781 28.8622C22.1616 29.4457 22.9529 29.7734 23.778 29.7734C24.6031 29.7734 25.3944 29.4457 25.9779 28.8622C26.5613 28.2788 26.8891 27.4874 26.8891 26.6623C26.8891 25.8372 26.5613 25.0459 25.9779 24.4624C25.3944 23.879 24.6031 23.5512 23.778 23.5512C22.9529 23.5512 22.1616 23.879 21.5781 24.4624C20.9947 25.0459 20.6669 25.8372 20.6669 26.6623ZM5.11133 4.88455C5.11133 5.70967 5.4391 6.50099 6.02255 7.08444C6.606 7.66788 7.39732 7.99566 8.22244 7.99566C9.04756 7.99566 9.83888 7.66788 10.4223 7.08444C11.0058 6.50099 11.3336 5.70967 11.3336 4.88455C11.3336 4.05943 11.0058 3.26811 10.4223 2.68466C9.83888 2.10121 9.04756 1.77344 8.22244 1.77344C7.39732 1.77344 6.606 2.10121 6.02255 2.68466C5.4391 3.26811 5.11133 4.05943 5.11133 4.88455Z" stroke="#00C4F6" stroke-width="3.11111" stroke-linecap="round" stroke-linejoin="round"/>
<path d="M2 18.8841C2 18.8841 2.94111 10.4219 5.55289 6.6543M10.834 6.69474C14.1582 10.8201 17.9071 20.8705 21.2251 24.9243M26.4969 25.1654C27.5889 23.7965 28.7566 19.6287 30 12.6619" stroke="#00C4F6" stroke-width="3.11111" stroke-linecap="round" stroke-linejoin="round"/>
</svg>
