<svg width="30" height="29" viewBox="0 0 30 29" fill="none" xmlns="http://www.w3.org/2000/svg">
<path d="M3.71092 17.4695H0.000680923V28.6003H14.8416V17.4695H11.1314V13.7593H3.71092V17.4695ZM9.27629 17.4695H5.56604V15.6144H9.27629V17.4695ZM1.8558 23.0349H3.71092V24.89H5.56604V23.0349H9.27629V24.89H11.1314V23.0349H12.9865V26.7451H1.8558V23.0349ZM12.9865 19.3246V21.1798H1.8558V19.3246H12.9865ZM16.6968 11.9042C16.6968 12.8027 16.8948 13.6433 17.291 14.426C17.6871 15.2086 18.2524 15.8656 18.9867 16.397C18.5519 16.6193 18.1413 16.8753 17.7548 17.1652C17.3683 17.455 17.0156 17.7787 16.6968 18.1362V23.0349C16.6968 22.2716 16.8417 21.5518 17.1316 20.8754C17.4214 20.1991 17.8176 19.6097 18.32 19.1073C18.8224 18.6048 19.4166 18.2038 20.1027 17.9043C20.7887 17.6048 21.5085 17.4599 22.2621 17.4695C23.0351 17.4695 23.7549 17.6145 24.4216 17.9043C25.0883 18.1942 25.6777 18.5903 26.1898 19.0928C26.7019 19.5952 27.1028 20.1894 27.3927 20.8754C27.6826 21.5614 27.8275 22.2812 27.8275 23.0349H29.6826C29.6826 22.3296 29.586 21.6484 29.3928 20.9914C29.1995 20.3343 28.9241 19.7111 28.5666 19.1217C28.2091 18.5324 27.7695 18.0106 27.2478 17.5565C26.726 17.1024 26.156 16.7111 25.5376 16.3825C26.2622 15.8608 26.8226 15.2086 27.2188 14.426C27.6149 13.6433 27.8178 12.8027 27.8275 11.9042C27.8275 11.1409 27.6826 10.421 27.3927 9.74469C27.1028 9.06834 26.7067 8.47895 26.2043 7.97652C25.7018 7.4741 25.1124 7.07312 24.4361 6.77359C23.7598 6.47407 23.0351 6.32914 22.2621 6.3388C21.5665 6.3388 20.9046 6.45958 20.2766 6.70113C19.6485 6.94268 19.0736 7.30018 18.5519 7.77362C18.2427 7.49342 17.8997 7.24704 17.5229 7.03447C17.8514 6.6963 18.1026 6.30498 18.2765 5.86053C18.4504 5.41607 18.5422 4.95712 18.5519 4.48368C18.5519 3.97159 18.4553 3.49332 18.262 3.04886C18.0688 2.6044 17.8031 2.20826 17.4649 1.86042C17.1267 1.51259 16.7354 1.24688 16.291 1.0633C15.8465 0.87972 15.3634 0.7831 14.8416 0.773438C14.3296 0.773438 13.8513 0.870058 13.4068 1.0633C12.9624 1.25654 12.5662 1.52225 12.2184 1.86042C11.8706 2.1986 11.6048 2.58991 11.4213 3.03437C11.2377 3.47882 11.1411 3.96193 11.1314 4.48368C11.1314 4.95712 11.2184 5.41607 11.3923 5.86053C11.5662 6.30498 11.8222 6.6963 12.1604 7.03447C11.3585 7.47893 10.7063 8.07798 10.2038 8.83162C9.70142 8.07798 9.04923 7.47893 8.24727 7.03447C8.57578 6.6963 8.827 6.30498 9.00092 5.86053C9.17483 5.41607 9.26662 4.95712 9.27629 4.48368C9.27629 3.97159 9.17966 3.49332 8.98642 3.04886C8.79318 2.6044 8.52747 2.20826 8.1893 1.86042C7.85113 1.51259 7.45981 1.24688 7.01536 1.0633C6.5709 0.87972 6.0878 0.7831 5.56604 0.773438C5.05395 0.773438 4.57568 0.870058 4.13122 1.0633C3.68677 1.25654 3.29062 1.52225 2.94279 1.86042C2.59495 2.1986 2.32924 2.58991 2.14566 3.03437C1.96209 3.47882 1.86546 3.96193 1.8558 4.48368C1.8558 4.95712 1.94276 5.41607 2.11668 5.86053C2.2906 6.30498 2.54664 6.6963 2.88482 7.03447C2.44036 7.27602 2.03938 7.57072 1.68188 7.91855C1.32439 8.26639 1.02486 8.64804 0.78331 9.06351C0.541758 9.47898 0.348516 9.9331 0.203585 10.4259C0.0586529 10.9186 -0.0089817 11.4114 0.000680923 11.9042H1.8558C1.8558 11.3921 1.95242 10.9138 2.14566 10.4693C2.33891 10.0249 2.60461 9.62874 2.94279 9.28091C3.28096 8.93307 3.67228 8.66736 4.11673 8.48378C4.56119 8.30021 5.04429 8.20358 5.56604 8.19392C6.07813 8.19392 6.55641 8.29054 7.00086 8.48378C7.44532 8.67703 7.84146 8.94273 8.1893 9.28091C8.53714 9.61908 8.80284 10.0104 8.98642 10.4549C9.17 10.8993 9.26662 11.3824 9.27629 11.9042H11.1314C11.1314 11.3921 11.228 10.9138 11.4213 10.4693C11.6145 10.0249 11.8802 9.62874 12.2184 9.28091C12.5566 8.93307 12.9479 8.66736 13.3923 8.48378C13.8368 8.30021 14.3199 8.20358 14.8416 8.19392C15.3151 8.19392 15.774 8.28088 16.2185 8.4548C16.663 8.62872 17.0543 8.88476 17.3924 9.22293C17.1606 9.62874 16.9866 10.0587 16.8707 10.5128C16.7547 10.9669 16.6968 11.4307 16.6968 11.9042ZM5.56604 2.62856C5.82692 2.62856 6.06847 2.67687 6.2907 2.77349C6.51293 2.87011 6.70617 3.00055 6.87043 3.1648C7.03468 3.32906 7.16995 3.52713 7.27623 3.75902C7.38252 3.99091 7.43083 4.23247 7.42117 4.48368C7.42117 4.74456 7.37285 4.98611 7.27623 5.20834C7.17961 5.43056 7.04918 5.62381 6.88492 5.78806C6.72066 5.95232 6.52259 6.08759 6.2907 6.19387C6.05881 6.30015 5.81726 6.34846 5.56604 6.3388C5.30517 6.3388 5.06362 6.29049 4.84139 6.19387C4.61916 6.09725 4.42592 5.96681 4.26166 5.80256C4.09741 5.6383 3.96214 5.44023 3.85585 5.20834C3.74957 4.97645 3.70126 4.73489 3.71092 4.48368C3.71092 4.2228 3.75923 3.98125 3.85585 3.75902C3.95247 3.5368 4.08291 3.34355 4.24717 3.1793C4.41142 3.01504 4.6095 2.87977 4.84139 2.77349C5.07328 2.66721 5.31483 2.6189 5.56604 2.62856ZM14.8416 2.62856C15.1025 2.62856 15.3441 2.67687 15.5663 2.77349C15.7885 2.87011 15.9818 3.00055 16.146 3.1648C16.3103 3.32906 16.4456 3.52713 16.5518 3.75902C16.6581 3.99091 16.7064 4.23247 16.6968 4.48368C16.6968 4.74456 16.6485 4.98611 16.5518 5.20834C16.4552 5.43056 16.3248 5.62381 16.1605 5.78806C15.9963 5.95232 15.7982 6.08759 15.5663 6.19387C15.3344 6.30015 15.0929 6.34846 14.8416 6.3388C14.5808 6.3388 14.3392 6.29049 14.117 6.19387C13.8948 6.09725 13.7015 5.96681 13.5373 5.80256C13.373 5.6383 13.2377 5.44023 13.1315 5.20834C13.0252 4.97645 12.9769 4.73489 12.9865 4.48368C12.9865 4.2228 13.0348 3.98125 13.1315 3.75902C13.2281 3.5368 13.3585 3.34355 13.5228 3.1793C13.687 3.01504 13.8851 2.87977 14.117 2.77349C14.3489 2.66721 14.5904 2.6189 14.8416 2.62856ZM22.2621 15.6144C21.75 15.6144 21.2718 15.5178 20.8273 15.3245C20.3829 15.1313 19.9867 14.8656 19.6389 14.5274C19.291 14.1892 19.0253 13.7979 18.8418 13.3535C18.6582 12.909 18.5616 12.4259 18.5519 11.9042C18.5519 11.3921 18.6485 10.9138 18.8418 10.4693C19.035 10.0249 19.3007 9.62874 19.6389 9.28091C19.977 8.93307 20.3684 8.66736 20.8128 8.48378C21.2573 8.30021 21.7404 8.20358 22.2621 8.19392C22.7742 8.19392 23.2525 8.29054 23.697 8.48378C24.1414 8.67703 24.5376 8.94273 24.8854 9.28091C25.2332 9.61908 25.4989 10.0104 25.6825 10.4549C25.8661 10.8993 25.9627 11.3824 25.9724 11.9042C25.9724 12.4163 25.8758 12.8945 25.6825 13.339C25.4893 13.7834 25.2236 14.1796 24.8854 14.5274C24.5472 14.8753 24.1559 15.141 23.7114 15.3245C23.267 15.5081 22.7839 15.6047 22.2621 15.6144Z" fill="#00C4F6"/>
</svg>
