<svg width="38" height="44" viewBox="0 0 38 44" fill="none" xmlns="http://www.w3.org/2000/svg">
<path d="M2.02335 9.32613L16.7862 1.08639C17.9942 0.412178 19.467 0.419598 20.6681 1.10595L35.041 9.31903C36.2708 10.0218 37.0297 11.3296 37.0297 12.746V30.865C37.0297 32.2564 36.2971 33.545 35.1015 34.2566L20.7279 42.8123C19.4964 43.5454 17.9643 43.5533 16.7253 42.8329L1.96314 34.2503C0.747778 33.5437 0 32.2439 0 30.8381V12.7726C0 11.342 0.774135 10.0234 2.02335 9.32613Z" fill="url(#paint0_linear_1_92)"/>
<path d="M4.53705 12.2009L17.1118 4.86565C17.8294 4.44704 18.7307 4.96467 18.7307 5.79546V13.3077C18.7307 13.6987 18.5187 14.0589 18.177 14.2487L11.4628 17.9788C11.1105 18.1746 10.6783 18.1571 10.343 17.9335L4.48233 14.0264C3.82 13.5849 3.84946 12.602 4.53705 12.2009Z" fill="white"/>
<defs>
<linearGradient id="paint0_linear_1_92" x1="10.8911" y1="5.22772" x2="27.4455" y2="38.3366" gradientUnits="userSpaceOnUse">
<stop stop-color="#00C9FF"/>
<stop offset="1" stop-color="#0080FF"/>
</linearGradient>
</defs>
</svg>
