<svg width="40" height="47" viewBox="0 0 40 47" fill="none" xmlns="http://www.w3.org/2000/svg">
<path d="M26.5578 28.7583C26.2773 28.6665 24.5043 27.8673 25.6122 24.4994H25.5963C28.4844 21.525 30.6914 16.7387 30.6914 12.0264C30.6914 4.78078 25.8733 0.982422 20.2737 0.982422C14.6705 0.982422 9.87892 4.77902 9.87892 12.0264C9.87892 16.7581 12.0736 21.5638 14.9793 24.5312C16.1119 27.5021 14.0866 28.6048 13.6632 28.76C7.79891 30.8806 0.918457 34.746 0.918457 38.562V39.9928C0.918457 45.192 10.9992 46.374 20.3284 46.374C29.6717 46.374 39.6254 45.192 39.6254 39.9928V38.562C39.6254 34.6314 32.7114 30.7959 26.5578 28.7583Z" fill="#00C4F6"/>
</svg>
