<svg width="20" height="24" viewBox="0 0 20 24" fill="none" xmlns="http://www.w3.org/2000/svg">
<path fill-rule="evenodd" clip-rule="evenodd" d="M16.3237 3.3317C16.2944 3.21339 16.2341 3.10501 16.1491 3.01764C16.0642 2.93026 15.9575 2.86703 15.84 2.83442C15.7226 2.8018 15.5986 2.80097 15.4807 2.83201C15.3629 2.86305 15.2553 2.92484 15.1692 3.01107L12.417 5.76325C12.3331 5.84736 12.2724 5.95177 12.2408 6.06632C12.2092 6.18087 12.2078 6.30165 12.2367 6.41689L12.7321 8.40397C12.7256 8.4103 12.7192 8.41672 12.7129 8.42323L9.42264 11.7135C9.24033 11.9091 9.14109 12.1679 9.1458 12.4353C9.15052 12.7026 9.25884 12.9577 9.44793 13.1468C9.63702 13.3359 9.89213 13.4442 10.1595 13.449C10.4269 13.4537 10.6856 13.3544 10.8813 13.1721L14.1743 9.88326C14.1808 9.87647 14.1872 9.86959 14.1935 9.86262L16.1792 10.3594C16.2945 10.3883 16.4153 10.387 16.5298 10.3554C16.6444 10.3238 16.7488 10.2631 16.8329 10.1791L19.5851 7.42694C19.6717 7.34083 19.7338 7.23322 19.765 7.11516C19.7963 6.99711 19.7955 6.87287 19.7629 6.75519C19.7302 6.63752 19.6669 6.53065 19.5793 6.44556C19.4917 6.36048 19.383 6.30024 19.2644 6.27103L16.9127 5.68481L16.3237 3.3317ZM10.5882 3.85461C10.6071 4.12759 10.5168 4.3969 10.3372 4.60333C10.1576 4.80977 9.90339 4.93644 9.63043 4.95548C8.19268 5.05512 6.81377 5.56541 5.65752 6.42572C4.50127 7.28603 3.61631 8.46018 3.10778 9.80867C2.59924 11.1572 2.48853 12.6233 2.78878 14.0329C3.08903 15.4424 3.78762 16.7362 4.80156 17.7604C5.81549 18.7846 7.10214 19.4962 8.50861 19.8106C9.91509 20.125 11.3823 20.0291 12.7358 19.5341C14.0893 19.0392 15.2724 18.1661 16.1443 17.0186C17.0162 15.871 17.5403 14.4973 17.6544 13.0607C17.6761 12.7877 17.8054 12.5345 18.0138 12.3568C18.2222 12.1791 18.4926 12.0915 18.7656 12.1132C19.0386 12.1349 19.2918 12.2642 19.4695 12.4726C19.6471 12.681 19.7348 12.9514 19.713 13.2244C19.5674 15.0549 18.8994 16.8051 17.7883 18.2671C16.6773 19.7292 15.1699 20.8415 13.4452 21.472C11.7206 22.1025 9.85118 22.2247 8.05914 21.824C6.2671 21.4234 4.62774 20.5167 3.33582 19.2117C2.04391 17.9068 1.15375 16.2584 0.771103 14.4624C0.388455 12.6665 0.529402 10.7984 1.1772 9.08017C1.825 7.36195 2.95242 5.86579 4.42551 4.76946C5.8986 3.67313 7.65544 3.02271 9.48732 2.89548C9.76029 2.87657 10.0296 2.96684 10.236 3.14644C10.4425 3.32604 10.5691 3.58165 10.5882 3.85461ZM9.66345 8.39433C9.7129 8.52056 9.737 8.65529 9.73437 8.79083C9.73174 8.92637 9.70243 9.06006 9.64812 9.18427C9.59381 9.30848 9.51556 9.42077 9.41785 9.51474C9.32013 9.6087 9.20486 9.68249 9.07862 9.73189C8.62732 9.90892 8.22725 10.1956 7.91457 10.5661C7.60189 10.9365 7.38645 11.3791 7.28774 11.8537C7.18902 12.3283 7.21014 12.82 7.34918 13.2845C7.48822 13.7489 7.74079 14.1713 8.08408 14.5136C8.42737 14.8559 8.85054 15.1072 9.31536 15.2449C9.78017 15.3826 10.272 15.4023 10.7463 15.3022C11.2206 15.2021 11.6625 14.9854 12.0321 14.6716C12.4016 14.3579 12.6872 13.9569 12.8629 13.5051C12.912 13.3788 12.9856 13.2634 13.0793 13.1655C13.1731 13.0676 13.2852 12.9892 13.4093 12.9346C13.5333 12.88 13.6669 12.8505 13.8025 12.8475C13.938 12.8446 14.0727 12.8684 14.199 12.9175C14.3254 12.9667 14.4408 13.0402 14.5387 13.134C14.6365 13.2278 14.715 13.3399 14.7696 13.4639C14.8241 13.588 14.8537 13.7216 14.8567 13.8571C14.8596 13.9927 14.8358 14.1274 14.7866 14.2537C14.4865 15.0253 13.9988 15.7099 13.3677 16.2456C12.7365 16.7813 11.9818 17.1513 11.1718 17.3221C10.3617 17.4929 9.52185 17.4591 8.72813 17.2238C7.93441 16.9885 7.21186 16.5591 6.62578 15.9744C6.0397 15.3897 5.60859 14.6681 5.37142 13.875C5.13424 13.0818 5.09849 12.242 5.26738 11.4316C5.43627 10.6211 5.80449 9.86553 6.33874 9.23312C6.87299 8.60071 7.55643 8.11143 8.32727 7.8095C8.58203 7.71006 8.86584 7.71579 9.11637 7.82545C9.3669 7.9351 9.56367 8.13971 9.66345 8.39433Z" fill="url(#paint0_linear_369_2738)"/>
<defs>
<linearGradient id="paint0_linear_369_2738" x1="6.34801" y1="4.2794" x2="14.0284" y2="22.0403" gradientUnits="userSpaceOnUse">
<stop stop-color="#F86364"/>
<stop offset="1" stop-color="#DF3234"/>
</linearGradient>
</defs>
</svg>
