<svg width="44" height="43" viewBox="0 0 44 43" fill="none" xmlns="http://www.w3.org/2000/svg">
<path d="M43.235 32.0059C42.8575 34.8746 41.4487 37.5078 39.2716 39.4137C37.0946 41.3196 34.2981 42.3679 31.4047 42.3627C14.5949 42.3627 0.918476 28.6863 0.918476 11.8767C0.913289 8.98328 1.96154 6.18689 3.86745 4.00984C5.77336 1.83279 8.40659 0.423951 11.2753 0.0464609C12.0007 -0.0421158 12.7354 0.106294 13.3695 0.469535C14.0037 0.832777 14.5033 1.39137 14.7939 2.06192L19.2652 12.044V12.0694C19.4877 12.5827 19.5796 13.1431 19.5327 13.7005C19.4858 14.258 19.3015 14.7952 18.9964 15.264C18.9583 15.3212 18.918 15.3741 18.8757 15.4271L14.4679 20.652C16.0536 23.8742 19.424 27.215 22.6886 28.8049L27.8416 24.4204C27.8922 24.3778 27.9452 24.3383 28.0004 24.3019C28.4689 23.9894 29.0079 23.7987 29.5687 23.7469C30.1294 23.6952 30.6943 23.784 31.212 24.0055L31.2396 24.0182L41.2132 28.4873C41.8849 28.7769 42.4449 29.2761 42.8093 29.9104C43.1738 30.5446 43.3231 31.2798 43.235 32.0059Z" fill="#00C4F6"/>
</svg>
