<svg width="37" height="37" viewBox="0 0 37 37" fill="none" xmlns="http://www.w3.org/2000/svg">
<path d="M18.5 0C20.1576 0 21.7634 0.2183 23.2915 0.62715L19.3584 4.5584C19.06 4.85798 18.7968 5.19067 18.574 5.55H18.5C15.9387 5.55 13.435 6.3095 11.3054 7.73247C9.17575 9.15543 7.51591 11.1779 6.53576 13.5442C5.55561 15.9106 5.29915 18.5144 5.79883 21.0264C6.29851 23.5385 7.53188 25.8459 9.34297 27.657C11.1541 29.4681 13.4615 30.7015 15.9736 31.2012C18.4856 31.7009 21.0894 31.4444 23.4558 30.4642C25.8221 29.4841 27.8446 27.8242 29.2675 25.6946C30.6905 23.565 31.45 21.0613 31.45 18.5V18.426C31.8077 18.204 32.1376 17.9419 32.4398 17.6397L36.3728 13.7085C36.7817 15.2366 37 16.8424 37 18.5C37 28.7175 28.7175 37 18.5 37C8.28245 37 0 28.7175 0 18.5C0 8.28245 8.28245 0 18.5 0ZM17.7341 9.28145C17.7341 10.8558 17.6564 12.4524 17.7415 14.0249L16.7425 15.0239C16.3989 15.3675 16.1263 15.7755 15.9403 16.2245C15.7543 16.6735 15.6586 17.1547 15.6586 17.6407C15.6586 18.1267 15.7543 18.6079 15.9403 19.0569C16.1263 19.5059 16.3989 19.9139 16.7425 20.2575C17.0861 20.6011 17.4941 20.8737 17.9431 21.0597C18.3921 21.2457 18.8733 21.3414 19.3593 21.3414C19.8453 21.3414 20.3265 21.2457 20.7755 21.0597C21.2245 20.8737 21.6325 20.6011 21.9762 20.2575L22.9751 19.2585C24.5476 19.3436 26.1423 19.2659 27.7185 19.2659C27.5724 21.024 26.9265 22.7037 25.8571 24.1068C24.7877 25.5099 23.3393 26.578 21.6829 27.1849C20.0264 27.7919 18.2309 27.9125 16.5081 27.5326C14.7853 27.1526 13.2071 26.2879 11.9596 25.0404C10.7121 23.7929 9.84741 22.2147 9.46744 20.4919C9.08746 18.7691 9.20808 16.9736 9.81506 15.3171C10.422 13.6607 11.4901 12.2123 12.8932 11.1429C14.2963 10.0735 15.976 9.42759 17.7341 9.28145ZM30.5324 0.23495C30.8701 0.374956 31.1587 0.611864 31.3619 0.915767C31.565 1.21967 31.6736 1.57695 31.6739 1.9425V5.328H35.0575C35.4233 5.32808 35.7809 5.43662 36.0851 5.63991C36.3893 5.84319 36.6263 6.13209 36.7663 6.47009C36.9063 6.80808 36.9429 7.18 36.8716 7.53881C36.8002 7.89762 36.6241 8.22722 36.3654 8.48595L29.822 15.022C29.4751 15.369 29.0047 15.5639 28.5141 15.5641H24.05L20.6682 18.9477C20.3211 19.2948 19.8502 19.4899 19.3593 19.4899C18.8684 19.4899 18.3976 19.2948 18.0504 18.9477C17.7033 18.6006 17.5083 18.1297 17.5083 17.6388C17.5083 17.1479 17.7033 16.6771 18.0504 16.33L21.4341 12.95V8.4841C21.4339 8.24086 21.4817 7.99998 21.5747 7.77522C21.6677 7.55047 21.8041 7.34627 21.9762 7.1743L28.5159 0.63455C28.7746 0.375674 29.1043 0.199353 29.4632 0.127893C29.8222 0.0564331 30.1943 0.093046 30.5324 0.2331" fill="url(#paint0_linear_1_106)"/>
<defs>
<linearGradient id="paint0_linear_1_106" x1="-11.5" y1="-11" x2="36.0612" y2="37.9129" gradientUnits="userSpaceOnUse">
<stop offset="0.313646" stop-color="#F037A5"/>
<stop offset="1" stop-color="#B9026F"/>
</linearGradient>
</defs>
</svg>
