<svg width="61" height="61" viewBox="0 0 61 61" fill="none" xmlns="http://www.w3.org/2000/svg">
<circle cx="30.0536" cy="30.556" r="29.9886" fill="url(#paint0_linear_0_1378)"/>
<path d="M30.0538 13.896C27.4027 13.896 24.8601 14.9492 22.9854 16.8238C21.1108 18.6985 20.0576 21.241 20.0576 23.8922C20.0576 24.4224 20.2683 24.931 20.6432 25.3059C21.0181 25.6808 21.5266 25.8915 22.0569 25.8915C22.5871 25.8915 23.0956 25.6808 23.4705 25.3059C23.8455 24.931 24.0561 24.4224 24.0561 23.8922C24.0561 20.5775 26.7391 17.8945 30.0538 17.8945C33.3686 17.8945 36.0516 20.5775 36.0516 23.8922C36.0516 25.5236 35.6537 26.4792 35.1759 27.149C34.6521 27.8787 33.9264 28.4245 32.9207 29.1182L32.6888 29.2742C31.7952 29.8859 30.6436 30.6716 29.7519 31.7672C28.6983 33.0627 28.0546 34.7001 28.0546 36.8873V37.8869C28.0546 38.4171 28.2652 38.9257 28.6402 39.3006C29.0151 39.6755 29.5236 39.8861 30.0538 39.8861C30.5841 39.8861 31.0926 39.6755 31.4675 39.3006C31.8424 38.9257 32.0531 38.4171 32.0531 37.8869V36.8873C32.0531 35.5758 32.4089 34.8401 32.8528 34.2903C33.3666 33.6625 34.0583 33.1867 35.0799 32.485L35.1859 32.411C36.1775 31.7312 37.451 30.8396 38.4247 29.4761C39.4503 28.0526 40.05 26.2573 40.05 23.8922C40.05 21.241 38.9969 18.6985 37.1222 16.8238C35.2476 14.9492 32.705 13.896 30.0538 13.896ZM30.0538 48.3829C30.7166 48.3829 31.3523 48.1196 31.8209 47.651C32.2896 47.1823 32.5529 46.5467 32.5529 45.8839C32.5529 45.2211 32.2896 44.5854 31.8209 44.1168C31.3523 43.6481 30.7166 43.3848 30.0538 43.3848C29.391 43.3848 28.7554 43.6481 28.2867 44.1168C27.8181 44.5854 27.5548 45.2211 27.5548 45.8839C27.5548 46.5467 27.8181 47.1823 28.2867 47.651C28.7554 48.1196 29.391 48.3829 30.0538 48.3829Z" fill="white" stroke="white" stroke-width="1.76404"/>
<defs>
<linearGradient id="paint0_linear_0_1378" x1="14.2262" y1="5.56549" x2="47.5469" y2="54.7135" gradientUnits="userSpaceOnUse">
<stop stop-color="#00C4F6"/>
<stop offset="1" stop-color="#0080FF"/>
</linearGradient>
</defs>
</svg>
