<svg width="20" height="23" viewBox="0 0 20 23" fill="none" xmlns="http://www.w3.org/2000/svg">
<path d="M12.6598 3.13072H19.8019V16.0719H10.8743L10.3642 13.4837H3.22214V22.5425H0.671417V0.54248H12.1497L12.6598 3.13072ZM12.1497 13.4837H14.7004V10.8954H17.2511V8.30719H14.7004V5.71895H12.1497V8.30719L10.8743 5.71895V3.13072H8.32359V5.71895H5.77287V3.13072H3.22214V5.71895H5.77287V8.30719H3.22214V10.8954H5.77287V8.30719H8.32359V10.8954H10.8743V8.30719L12.1497 10.8954V13.4837ZM8.32359 8.30719V5.71895H10.8743V8.30719H8.32359ZM12.1497 8.30719H14.7004V10.8954H12.1497V8.30719Z" fill="#AFAFAF"/>
</svg>
