<svg width="26" height="26" viewBox="0 0 26 26" fill="none" xmlns="http://www.w3.org/2000/svg">
<path d="M4.37416 8.11581L11.828 3.76776C12.2533 3.51963 12.7875 3.82646 12.7875 4.31892V8.77188C12.7875 9.00361 12.6619 9.21712 12.4593 9.32966L8.47947 11.5407C8.27062 11.6567 8.01445 11.6464 7.81566 11.5138L4.34173 9.19787C3.94913 8.93614 3.96659 8.35356 4.37416 8.11581Z" fill="white"/>
<path fill-rule="evenodd" clip-rule="evenodd" d="M13 25.5C14.6415 25.5 16.267 25.1767 17.7835 24.5485C19.3001 23.9203 20.6781 22.9996 21.8388 21.8388C22.9996 20.6781 23.9203 19.3001 24.5485 17.7835C25.1767 16.267 25.5 14.6415 25.5 13C25.5 11.3585 25.1767 9.73303 24.5485 8.21646C23.9203 6.69989 22.9996 5.3219 21.8388 4.16116C20.6781 3.00043 19.3001 2.07969 17.7835 1.45151C16.267 0.823322 14.6415 0.5 13 0.5C9.68479 0.5 6.50537 1.81696 4.16117 4.16116C1.81696 6.50537 0.5 9.68479 0.5 13C0.5 16.3152 1.81696 19.4946 4.16117 21.8388C6.50537 24.183 9.68479 25.5 13 25.5ZM12.6778 18.0556L19.6222 9.72222L17.4889 7.94444L11.5167 15.1097L8.42639 12.0181L6.4625 13.9819L10.6292 18.1486L11.7042 19.2236L12.6778 18.0556Z" fill="url(#paint0_linear_984_1526)"/>
<defs>
<linearGradient id="paint0_linear_984_1526" x1="7.85294" y1="3.4703" x2="16.2593" y2="23.4478" gradientUnits="userSpaceOnUse">
<stop stop-color="#00C9FF"/>
<stop offset="1" stop-color="#0080FF"/>
</linearGradient>
</defs>
</svg>
