<svg width="23" height="23" viewBox="0 0 23 23" fill="none" xmlns="http://www.w3.org/2000/svg">
<path fill-rule="evenodd" clip-rule="evenodd" d="M13.5778 1.13868C13.67 1.32458 13.6934 1.56328 13.739 2.04068C13.826 2.94268 13.8695 3.39368 14.0519 3.64228C14.1656 3.79663 14.3166 3.91703 14.4897 3.99122C14.6628 4.06541 14.8517 4.09076 15.0373 4.06468C15.3343 4.02398 15.6737 3.73688 16.3505 3.16268C16.7079 2.85798 16.8872 2.70618 17.0792 2.64238C17.3237 2.56135 17.5883 2.57503 17.8238 2.68088C18.0094 2.76448 18.1738 2.93388 18.4995 3.27268L19.4478 4.25608C19.7745 4.59488 19.9378 4.76428 20.0184 4.95678C20.1205 5.20104 20.1337 5.4754 20.0555 5.72898C19.994 5.92808 19.8477 6.11398 19.5549 6.48468C19.0001 7.18758 18.7233 7.53848 18.683 7.84758C18.6582 8.03997 18.6829 8.23574 18.7546 8.41503C18.8263 8.59431 18.9425 8.75072 19.0914 8.86838C19.33 9.05758 19.766 9.10268 20.6368 9.19288C21.0961 9.24018 21.3263 9.26438 21.5066 9.36008C21.7341 9.4824 21.9112 9.68597 22.0051 9.93318C22.0805 10.1279 22.0805 10.3677 22.0805 10.8473V12.2377C22.0805 12.7173 22.0805 12.9571 22.0062 13.1507C21.9119 13.3987 21.734 13.6027 21.5055 13.7249C21.3263 13.8206 21.0961 13.8448 20.6358 13.8921C19.766 13.9823 19.3311 14.0274 19.0914 14.2166C18.9425 14.3345 18.8264 14.4911 18.7549 14.6706C18.6833 14.8501 18.6589 15.046 18.684 15.2385C18.7244 15.5465 19.0012 15.8985 19.5549 16.6003C19.8477 16.971 19.994 17.1558 20.0555 17.356C20.1337 17.6096 20.1205 17.8839 20.0184 18.1282C19.9378 18.3207 19.7745 18.4901 19.4478 18.8289L18.4995 19.8112C18.1728 20.1511 18.0094 20.3205 17.8238 20.403C17.5883 20.5088 17.3237 20.5225 17.0792 20.4415C16.8872 20.3777 16.7079 20.2259 16.3505 19.9223C15.6727 19.3481 15.3343 19.061 15.0373 19.0203C14.8517 18.9942 14.6628 19.0196 14.4897 19.0937C14.3166 19.1679 14.1656 19.2883 14.0519 19.4427C13.8695 19.6902 13.826 20.1412 13.739 21.0443C13.6934 21.5217 13.67 21.7604 13.5778 21.9463C13.4602 22.183 13.2639 22.3675 13.0251 22.4655C12.8374 22.5425 12.6062 22.5425 12.1437 22.5425H10.8029C10.3405 22.5425 10.1092 22.5425 9.92255 22.4655C9.68342 22.3677 9.48666 22.1832 9.36885 21.9463C9.27657 21.7604 9.25323 21.5217 9.20762 21.0443C9.12065 20.1423 9.07716 19.6913 8.89471 19.4427C8.78114 19.2885 8.63026 19.1682 8.45738 19.094C8.28451 19.0199 8.09579 18.9944 7.91037 19.0203C7.61231 19.061 7.27394 19.3481 6.59614 19.9223C6.23868 20.227 6.05942 20.3788 5.86743 20.4426C5.62291 20.5236 5.35835 20.5099 5.12281 20.4041C4.93719 20.3205 4.77278 20.1511 4.44714 19.8123L3.49886 18.8289C3.17216 18.4901 3.00881 18.3207 2.92819 18.1282C2.82612 17.8839 2.81293 17.6096 2.89107 17.356C2.95259 17.1569 3.09897 16.971 3.39173 16.6003C3.94648 15.8974 4.22333 15.5465 4.26257 15.2374C4.28752 15.0451 4.26298 14.8494 4.19145 14.6701C4.11992 14.4908 4.00393 14.3344 3.85526 14.2166C3.6166 14.0274 3.18064 13.9823 2.3098 13.8921C1.85051 13.8448 1.62033 13.8206 1.44001 13.7249C1.21254 13.6026 1.03545 13.399 0.941476 13.1518C0.866165 12.9571 0.866165 12.7173 0.866165 12.2377V10.8473C0.866165 10.3677 0.866165 10.1279 0.940415 9.93428C1.0347 9.68629 1.21261 9.48225 1.44107 9.36008C1.62033 9.26438 1.85051 9.24018 2.31086 9.19288C3.18064 9.10268 3.6166 9.05758 3.85526 8.86838C4.00412 8.75072 4.12031 8.59431 4.19204 8.41503C4.26376 8.23574 4.28846 8.03997 4.26363 7.84758C4.22333 7.53848 3.94542 7.18758 3.39173 6.48358C3.09897 6.11288 2.95259 5.92808 2.89107 5.72788C2.81293 5.4743 2.82612 5.19994 2.92819 4.95568C3.00881 4.76428 3.17216 4.59378 3.49886 4.25498L4.44714 3.27268C4.77384 2.93388 4.93719 2.76338 5.12281 2.68088C5.35835 2.57503 5.62291 2.56135 5.86743 2.64238C6.05942 2.70618 6.23868 2.85798 6.59614 3.16158C7.27394 3.73578 7.61231 4.02288 7.90931 4.06468C8.09516 4.09084 8.28437 4.06542 8.45767 3.99102C8.63096 3.91663 8.78213 3.79591 8.89577 3.64118C9.07609 3.39368 9.12065 2.94268 9.20762 2.03958C9.25323 1.56328 9.27657 1.32458 9.36885 1.13758C9.4866 0.901269 9.68293 0.717208 9.92148 0.61948C10.1092 0.54248 10.3405 0.54248 10.8029 0.54248H12.1437C12.6062 0.54248 12.8374 0.54248 13.0241 0.61948C13.2632 0.717256 13.46 0.901757 13.5778 1.13868ZM11.4733 15.9425C12.5986 15.9425 13.6778 15.4789 14.4735 14.6538C15.2692 13.8286 15.7162 12.7094 15.7162 11.5425C15.7162 10.3755 15.2692 9.25637 14.4735 8.43121C13.6778 7.60605 12.5986 7.14248 11.4733 7.14248C10.348 7.14248 9.26885 7.60605 8.47316 8.43121C7.67747 9.25637 7.23045 10.3755 7.23045 11.5425C7.23045 12.7094 7.67747 13.8286 8.47316 14.6538C9.26885 15.4789 10.348 15.9425 11.4733 15.9425Z" fill="#AFAFAF"/>
</svg>
