<svg width="63" height="59" viewBox="0 0 63 59" fill="none" xmlns="http://www.w3.org/2000/svg">
<path d="M57.5938 7.9624H42.3774H36.2026H29.6971H27.161C24.3713 7.9624 22.0889 10.2449 22.0889 13.0345V53.6115C22.0889 56.4012 24.3713 58.6837 27.161 58.6837H57.5938C60.3834 58.6837 62.6659 56.4012 62.6659 53.6115V13.0345C62.6659 11.6893 62.1315 10.3992 61.1803 9.44799C60.2291 8.49679 58.939 7.9624 57.5938 7.9624Z" fill="white"/>
<path d="M36.4233 0.905273H21.207V18.6577L14.8668 14.8536L8.52665 18.6577V0.905273H5.99058C3.20091 0.905273 0.918457 3.18773 0.918457 5.9774V46.5544C0.918457 49.3441 3.20091 51.6265 5.99058 51.6265H36.4233C39.213 51.6265 41.4955 49.3441 41.4955 46.5544V5.9774C41.4955 4.63219 40.9611 3.34207 40.0099 2.39086C39.0587 1.43966 37.7686 0.905273 36.4233 0.905273ZM35.6118 42.5221C35.3328 42.7503 32.5432 44.6524 31.478 45.2864C30.4129 46.0218 26.2791 48.3804 26.9385 43.8155C28.5362 34.5842 31.6302 29.1063 27.9275 31.4902C26.9638 32.0735 26.4059 32.4285 26.0508 32.6061C25.7212 32.885 25.7465 32.8597 25.4676 32.3778C25.1886 31.896 25.0871 31.9213 25.4422 31.6677C25.4422 31.6677 31.0976 27.1282 33.1772 26.976C35.1553 26.7985 34.6735 29.2331 34.4959 30.349C33.3293 35.0407 31.1991 41.8627 31.5287 42.8518C31.8077 43.8408 33.8873 42.2685 35.0032 41.4823C35.0032 41.4823 35.1553 41.3048 35.4343 41.6091C35.7132 42.0402 35.9922 42.2431 35.6118 42.5221ZM33.8112 23.882C32.3656 23.882 31.1991 22.7154 31.1991 21.2699C31.1991 19.8243 32.3656 18.6577 33.8112 18.6577C35.2568 18.6577 36.4233 19.8243 36.4233 21.2699C36.4233 22.7154 35.2568 23.882 33.8112 23.882Z" fill="#00C4F6"/>
</svg>
