<svg width="24" height="22" viewBox="0 0 24 22" fill="none" xmlns="http://www.w3.org/2000/svg">
<path d="M22.4137 17.063L19.3918 15.3178C19.3421 15.2894 19.2874 15.271 19.2306 15.2638C19.1739 15.2565 19.1162 15.2605 19.061 15.2755C19.0058 15.2905 18.9541 15.3162 18.9089 15.3512C18.8636 15.3862 18.8257 15.4298 18.7973 15.4795L18.2521 16.4247C18.1315 16.6329 18.2027 16.9014 18.411 17.0219L21.4329 18.7671C21.4825 18.7956 21.5373 18.8139 21.594 18.8212C21.6508 18.8284 21.7084 18.8245 21.7636 18.8094C21.8188 18.7944 21.8705 18.7687 21.9158 18.7337C21.9611 18.6987 21.999 18.6551 22.0274 18.6055L22.5726 17.6603C22.6932 17.4521 22.6192 17.1836 22.4137 17.063ZM18.7945 6.27397C18.8229 6.32363 18.8609 6.3672 18.9061 6.40219C18.9514 6.43719 19.0031 6.46293 19.0583 6.47794C19.1135 6.49295 19.1711 6.49694 19.2279 6.48968C19.2846 6.48241 19.3394 6.46404 19.389 6.43562L22.411 4.69041C22.6192 4.56986 22.6904 4.30137 22.5699 4.09315L22.0274 3.15069C21.999 3.10103 21.9611 3.05746 21.9158 3.02247C21.8705 2.98747 21.8188 2.96173 21.7636 2.94672C21.7084 2.93171 21.6508 2.92772 21.594 2.93498C21.5373 2.94224 21.4825 2.96061 21.4329 2.98904L18.411 4.73425C18.3109 4.79258 18.238 4.88815 18.2082 5.00008C18.1785 5.112 18.1942 5.23117 18.2521 5.33151L18.7945 6.27397ZM23.5616 9.89041H20.0548C19.8137 9.89041 19.6164 10.0877 19.6164 10.3288V11.4247C19.6164 11.6658 19.8137 11.863 20.0548 11.863H23.5616C23.8027 11.863 24 11.6658 24 11.4247V10.3288C24 10.0877 23.8027 9.89041 23.5616 9.89041ZM15.1205 0C14.9589 0 14.7945 0.0438357 14.6438 0.145206L4.93151 6.49315H0.438356C0.19726 6.49315 0 6.69041 0 6.93151V14.8219C0 15.063 0.19726 15.2603 0.438356 15.2603H4.93151L14.6438 21.6082C14.7945 21.7069 14.9616 21.7534 15.1205 21.7534C15.5781 21.7534 16 21.389 16 20.874V0.879452C16 0.364384 15.5781 0 15.1205 0Z" fill="#00C4F6"/>
</svg>
