<svg width="274" height="314" viewBox="0 0 274 314" fill="none" xmlns="http://www.w3.org/2000/svg">
<path d="M221.403 179.828C245.475 192.955 214.839 200.407 210.115 209.933C208.183 213.789 209.097 214.819 221.069 213.528C262.904 209.064 275.648 165.223 231.165 147.817C206.577 138.235 215.519 176.637 221.403 179.828Z" fill="#00C4F6"/>
<path opacity="0.6" d="M221.402 179.829C217.256 177.618 213.496 162.328 216.059 153.675C229.486 161.912 238.925 175.771 233.03 189.791C230.657 195.688 223.212 199.162 219.937 204.598C218.524 206.926 218.043 210.097 220.332 211.254C221.445 211.945 222.605 212.578 223.814 213.152C222.919 213.279 222.004 213.405 221.068 213.529C209.095 214.82 208.244 213.796 210.114 209.933C214.713 200.396 245.474 192.956 221.402 179.829Z" fill="#009DC5"/>
<path d="M240.938 158.743C243.63 160.315 246.162 162.251 248.149 164.641C249.857 166.627 251.746 169.386 251.498 172.075C251.406 173.075 250.428 173.426 249.667 172.788C247.85 171.297 246.682 168.919 245.144 167.138C243.379 165.084 241.261 163.438 238.927 162.088C236.712 160.812 238.728 157.404 240.938 158.743Z" fill="#A8E1FF"/>
<path d="M253.673 178.579C254.193 181.149 254.609 184.151 253.14 186.411C252.707 187.002 251.639 186.966 251.52 186.199C251.04 183.885 251.572 181.538 251.285 179.178C251.111 177.649 253.38 176.976 253.673 178.579Z" fill="#A8E1FF"/>
<path d="M111.71 301.354C196.324 304.745 218.472 211.585 226.909 150.197C228.057 141.854 228.897 134.114 229.656 127.248C230.358 121.008 230.928 115.513 231.468 111.023C231.468 111.023 175.812 92.3969 142.78 115.578C138.666 118.477 134.87 122.036 131.636 126.341C131.645 128.527 131.676 130.695 131.73 132.843C133.137 250.874 127.171 288.216 64.5366 263.902C37.449 253.397 73.5155 299.849 111.71 301.354Z" fill="#00C4F6"/>
<path d="M209.012 128.245C208.596 172.403 193.636 245.043 156.281 270.662C118.92 296.345 108.226 285.838 125.984 254.628C144.483 222.225 139.009 161.95 134.483 132.404C129.901 102.79 209.012 128.245 209.012 128.245Z" fill="#A8E1FF"/>
<path opacity="0.6" d="M131.638 126.343C131.646 128.53 131.677 130.697 131.731 132.846C139.982 147.982 154.665 159.676 171.433 163.808C190.673 168.483 211.973 163.134 226.91 150.2C228.058 141.857 228.898 134.117 229.658 127.251C226.894 128.509 223.571 131.04 221.503 130.219C196.751 119.677 169.701 115.605 142.781 115.581C138.668 118.48 134.872 122.039 131.638 126.343Z" fill="#009DC5"/>
<path d="M155.331 222.848C154.695 227.013 153.865 231.224 152.547 235.264C151.337 238.809 149.791 243.269 147.036 245.789C146.211 246.533 144.933 246.036 144.912 244.899C144.939 241.182 146.712 236.995 147.854 233.507C149.161 229.592 150.286 225.598 151.155 221.643C151.795 218.802 155.767 220.177 155.331 222.848Z" fill="#E0F5FF"/>
<path d="M144.922 255.05C144.352 256.447 143.781 257.845 143.029 259.163C142.351 260.361 141.804 261.508 140.655 262.348C140.109 262.802 139.206 262.341 139.076 261.698C138.759 260.345 139.181 259.186 139.49 257.89C139.804 256.532 140.306 255.192 140.808 253.851C141.795 251.357 145.914 252.493 144.922 255.05Z" fill="#E0F5FF"/>
<path d="M61.8907 263.218C65.9549 258.801 68.9685 249.369 67.6626 239.602C65.9122 226.453 56.3733 214.351 50.0127 210.17C42.697 219.079 39.7307 231.415 41.4811 244.564C43.2315 257.714 48.5491 268.418 54.6775 267.596L61.8907 263.218Z" fill="#00C4F6"/>
<path d="M50.179 251.417C47.8446 250.066 45.1861 248.812 42.2997 247.979C40.6256 247.446 38.8545 247.052 36.9867 246.795C23.8591 244.891 9.63563 250.766 3.9393 255.789C10.4465 265.216 21.5334 271.472 34.661 273.376C45.0552 274.839 54.268 271.339 57.9455 267.013L50.179 251.417Z" fill="#00C4F6"/>
<path d="M41.1997 254.437C38.7048 254.144 36.2493 254.106 33.7996 254.006C31.5375 253.924 29.2465 254.154 27.0363 253.509C26.2408 253.246 26.2648 252.303 26.8736 251.854C30.8735 248.819 37.1513 251.163 41.464 252.254C42.697 252.557 42.45 254.552 41.1997 254.437Z" fill="#A8E1FF"/>
<path d="M20.5191 256.503C19.9334 256.701 19.2794 256.956 18.6369 257.086C17.8579 257.329 17.1759 257.203 16.4142 257.259C14.8225 257.427 14.2914 254.983 15.6167 254.285C16.2822 253.905 16.891 253.457 17.6017 253.27C18.25 253.078 18.8982 252.886 19.5407 252.756C21.997 252.1 22.9187 255.778 20.5191 256.503Z" fill="#A8E1FF"/>
<path d="M199.3 18.2138C199.08 17.1847 198.746 16.019 197.701 15.7335C196.661 15.3854 195.688 16.3674 194.982 17.185C191.429 21.5229 188.291 26.1513 185.693 31.0816L200.126 34.5565C200.502 29.106 200.254 23.5978 199.3 18.2138Z" fill="#00C4F6"/>
<path d="M239.687 121.052C237.268 131.547 227.813 138.367 214.479 141.424C202.119 144.193 185.374 148.008 168.827 144.212C152.531 140.439 139.386 129.832 129.512 122.049C118.519 113.406 112.86 102.986 115.29 92.3656C116.536 87.0583 119.611 82.4242 124.124 78.6162C128.357 75.0977 131.382 70.3327 132.571 64.9572C132.594 64.7072 132.638 64.459 132.703 64.2128C138.779 37.9776 166.982 22.0427 195.689 28.6626C224.396 35.2825 242.743 61.9421 236.723 88.2455C236.662 88.4501 236.601 88.6546 236.54 88.8592C235.22 94.2857 235.576 99.9929 237.821 105.055C240.167 110.378 240.927 115.807 239.687 121.052Z" fill="#00C4F6"/>
<path d="M215.964 141.056C215.49 141.18 214.995 141.303 214.48 141.423C199.151 144.927 184.198 147.772 168.828 144.211C153.457 140.649 141.152 131.192 129.512 122.048C129.122 121.718 128.73 121.409 128.337 121.12C125.815 114.961 126.682 108.988 129.455 104.894C131.779 101.577 135.703 99.3542 139.779 99.604C146.809 99.9372 152.933 107.374 159.915 105.496C166.056 103.856 171.821 102.875 178.168 104.469C184.452 106.057 189.461 109.167 194.179 113.386C199.414 118.156 208.36 114.126 214.847 116.931C222.732 120.307 225.286 132.269 215.964 141.056Z" fill="#A8E1FF"/>
<path d="M152.54 73.3539C145.538 72.7081 139.392 77.8156 138.752 84.7549C138.112 91.6943 143.22 97.8398 150.222 98.4856C157.161 99.1257 163.306 94.0182 163.946 87.0788C164.586 80.1395 159.479 73.994 152.54 73.3539Z" fill="white"/>
<path fill-rule="evenodd" clip-rule="evenodd" d="M150.163 99.1128C156.664 99.7125 162.797 95.4234 164.284 88.8774C165.045 85.4168 164.486 81.8977 162.62 78.8883C160.692 75.8733 157.796 73.7777 154.335 73.0172C150.88 72.1941 147.355 72.8147 144.346 74.6808C141.337 76.5469 139.235 79.5055 138.418 82.8978C137.658 86.3584 138.272 89.9458 140.138 92.9551C142.005 95.9644 144.906 97.9974 148.361 98.8205C148.979 98.9615 149.579 99.0589 150.163 99.1128ZM152.418 73.9753C152.96 74.0252 153.5 74.0961 154.038 74.1877C157.186 74.9194 159.849 76.8043 161.551 79.5463C163.252 82.2882 163.777 85.489 163.051 88.5745C161.57 95.058 155.085 99.0624 148.664 97.5875C145.516 96.8558 142.915 94.9766 141.208 92.2972C139.506 89.5552 138.919 86.3487 139.651 83.2007C140.377 80.1152 142.262 77.4519 145.004 75.7503C147.279 74.3209 149.855 73.7388 152.418 73.9753Z" fill="black"/>
<path d="M162.647 89.5432C161.492 94.5436 156.538 97.6803 151.537 96.5256C146.537 95.3708 143.406 90.3534 144.56 85.3529C145.709 80.415 150.664 77.2783 155.665 78.4331C158.318 79.0561 160.436 80.7016 161.684 82.8973C157.994 83.944 155.41 85.9754 155.835 87.5277C156.265 89.0175 159.311 89.4876 162.79 88.6737C162.764 88.9655 162.716 89.2553 162.647 89.5432Z" fill="black"/>
<path d="M220.83 101.972C219.258 108.762 212.5 112.994 205.71 111.422C198.919 109.849 194.688 103.091 196.26 96.3009C197.832 89.5106 204.596 85.2167 211.386 86.7887C218.177 88.3608 222.402 95.1815 220.83 101.972Z" fill="white"/>
<path fill-rule="evenodd" clip-rule="evenodd" d="M207.327 112.327C210.202 112.592 213.102 111.914 215.577 110.377C218.592 108.448 220.687 105.552 221.448 102.092C223.111 94.9945 218.664 87.8382 211.505 86.169C208.044 85.4085 204.519 86.0291 201.51 87.8951C198.501 89.7612 196.405 92.6573 195.645 96.1179C194.822 99.5727 195.436 103.16 197.302 106.169C199.174 109.116 202.133 111.218 205.588 112.041C206.164 112.178 206.743 112.273 207.327 112.327ZM220.215 101.789C219.483 104.937 217.598 107.6 214.919 109.308C212.177 111.009 208.976 111.534 205.828 110.802C202.743 110.076 200.079 108.191 198.378 105.449C196.67 102.77 196.146 99.5688 196.878 96.4208C197.547 93.267 199.489 90.672 202.168 88.9646C204.91 87.263 208.116 86.6761 211.264 87.4078C217.685 88.8827 221.69 95.3678 220.215 101.789Z" fill="black"/>
<path d="M214.872 101.612C213.717 106.613 208.762 109.749 203.762 108.595C198.761 107.44 195.63 102.423 196.779 97.4846C197.934 92.4842 202.952 89.3532 207.952 90.508C210.543 91.1253 212.661 92.7707 213.909 94.9664C210.281 96.0189 207.635 98.0446 208.059 99.5969C208.489 101.087 211.535 101.557 215.078 100.749C215.009 101.037 214.94 101.324 214.872 101.612Z" fill="black"/>
<path d="M164.416 58.0568C164.108 59.3524 161.647 58.6841 158.624 57.9639C155.539 57.238 153.055 56.8198 153.364 55.5242C153.673 54.2287 156.665 52.5501 159.688 53.2703C162.773 53.9962 164.725 56.7613 164.416 58.0568Z" fill="#156894"/>
<path d="M215.952 72.8342C215.285 73.9076 213.15 72.4497 210.532 70.7581C207.851 69.0607 205.63 67.8471 206.365 66.7169C207.1 65.5868 210.431 65.0114 213.112 66.7088C215.73 68.4004 216.686 71.7041 215.952 72.8342Z" fill="#156894"/>
<path d="M194.926 115.534C195.092 115.549 195.244 115.5 195.381 115.387C195.654 115.16 195.688 114.785 195.461 114.512C191.285 109.209 185.327 105.444 178.725 103.889C172.116 102.397 165.175 103.143 159.038 106.108C158.714 106.204 158.611 106.636 158.775 106.903C158.934 107.233 159.298 107.393 159.627 107.234C165.435 104.428 172.126 103.658 178.484 105.128C184.78 106.591 190.499 110.208 194.505 115.306C194.619 115.443 194.738 115.517 194.926 115.534Z" fill="#1876A8"/>
<path d="M211.492 40.5189C215.524 43.2867 218.996 46.6543 221.909 50.6218C223.31 52.5164 224.507 54.5813 225.305 56.8616C226.053 59.0112 227.169 61.2579 226.706 63.5479C226.471 64.7242 224.936 64.9609 224.187 64.1983C222.859 62.8778 222.287 60.8706 221.369 59.2096C220.28 57.3439 219.128 55.4723 217.903 53.72C215.526 50.0961 212.603 46.9263 209.116 44.398C206.879 42.6784 209.061 38.8446 211.492 40.5189Z" fill="#A8E1FF"/>
<path d="M228.34 70.4473C228.734 73.0056 229.577 76.1727 228.278 78.6379C227.982 79.1149 227.146 79.29 226.811 78.8178C225.177 76.7126 225.255 73.8195 224.792 71.3179C224.437 69.0154 227.985 68.1448 228.34 70.4473Z" fill="#A8E1FF"/>
<path d="M178.118 107.742C181.527 108.372 187.618 110.006 188.722 113.764C189.016 114.674 188.219 115.798 187.281 115.712C185.468 115.545 184.072 114.281 182.572 113.449C180.834 112.469 179.079 111.677 177.181 111.06C175.033 110.421 175.947 107.353 178.118 107.742Z" fill="#E0F5FF"/>
<path d="M182.733 129.478C182.767 129.565 182.801 129.652 182.835 129.74C184.02 131.93 185.574 134.217 188.091 134.953C189.994 135.507 192.258 134.896 193.351 133.295C194.376 131.75 194.191 129.652 193.335 127.997C193.229 127.777 193.103 127.555 192.955 127.332C192.28 126.45 190.418 124.765 188.447 123.574C186.232 122.298 183.777 121.567 182.61 123.288C181.448 124.946 181.888 127.698 182.733 129.478Z" fill="#910B5B"/>
<path fill-rule="evenodd" clip-rule="evenodd" d="M188.966 135.727C190.904 135.906 192.866 135.141 193.885 133.659C194.984 131.995 194.998 129.79 193.864 127.731C193.721 127.465 193.575 127.221 193.428 126.997C192.764 125.99 190.902 124.305 188.749 123.035C185.637 121.234 183.306 121.209 182.076 122.924C180.772 124.758 181.189 127.76 182.141 129.739C182.217 129.83 182.272 129.919 182.306 130.006C183.491 132.196 185.147 134.745 187.908 135.567C188.28 135.643 188.632 135.697 188.966 135.727ZM184.975 122.939C186.038 123.037 187.305 123.658 188.145 124.114C189.997 125.23 191.802 126.847 192.415 127.723C192.525 127.901 192.653 128.102 192.801 128.326C193.6 129.913 193.62 131.743 192.817 132.93C191.94 134.236 189.99 134.876 188.274 134.34C185.939 133.683 184.447 131.402 183.432 129.417C183.394 129.371 183.358 129.305 183.324 129.218C182.474 127.5 182.136 125.01 183.081 123.647C183.514 123.056 184.225 122.87 184.975 122.939Z" fill="black"/>
<path d="M182.733 129.478C182.767 129.565 182.801 129.653 182.835 129.74C184.02 131.93 185.574 134.217 188.091 134.953C189.995 135.507 192.258 134.896 193.351 133.295C194.376 131.75 194.191 129.653 193.335 127.997C192.32 127.609 191.269 127.386 190.182 127.328C187.669 127.223 185.014 127.986 182.733 129.478Z" fill="#F137A6"/>
<path fill-rule="evenodd" clip-rule="evenodd" d="M188.966 135.727C190.904 135.906 192.866 135.141 193.885 133.659C194.984 131.995 194.998 129.79 193.864 127.731C193.721 127.465 193.575 127.221 193.428 126.997C192.764 125.99 190.902 124.305 188.749 123.035C185.637 121.234 183.306 121.209 182.076 122.924C180.772 124.758 181.189 127.76 182.141 129.739C182.217 129.83 182.272 129.919 182.306 130.006C183.491 132.196 185.147 134.745 187.908 135.567C188.28 135.643 188.632 135.697 188.966 135.727ZM184.975 122.939C186.038 123.037 187.305 123.658 188.145 124.114C189.997 125.23 191.802 126.847 192.415 127.723C192.525 127.901 192.653 128.102 192.801 128.326C193.6 129.913 193.62 131.743 192.817 132.93C191.94 134.236 189.99 134.876 188.274 134.34C185.939 133.683 184.447 131.402 183.432 129.417C183.394 129.371 183.358 129.305 183.324 129.218C182.474 127.5 182.136 125.01 183.081 123.647C183.514 123.056 184.225 122.87 184.975 122.939Z" fill="black"/>
<path d="M190.365 139.01C191.865 139.148 193.48 138.73 194.76 137.839C196.325 136.596 197.322 134.671 197.257 132.647C197.286 132.334 196.996 132.055 196.621 132.021C196.303 132.054 196.024 132.344 196.057 132.662C196.038 134.237 195.257 135.867 193.972 136.82C192.686 137.774 190.957 138.055 189.429 137.536C189.122 137.445 188.724 137.66 188.633 137.967C188.541 138.274 188.694 138.666 189.064 138.763C189.473 138.885 189.907 138.967 190.365 139.01Z" fill="#1876A8"/>
<path d="M77.5782 136.865C87.2686 141.857 108.402 150.616 132.944 147.016C135.969 150.448 133.417 171.964 133.277 178.949C133.218 180.961 132.9 189.192 131.383 188.547C123.888 187.099 89.6155 172.463 70.5031 148.633C72.8785 144.754 75.2596 140.813 77.5782 136.865Z" fill="#00C4F6"/>
<path opacity="0.6" d="M69.71 147.676C93.573 176.736 129.583 188.254 131.385 188.546C132.901 189.191 133.532 180.989 133.279 178.948C107.122 174.077 89.4163 165.067 69.71 147.676Z" fill="#009DC5"/>
<path d="M119.105 155.575C114.541 155.848 109.948 155.739 105.339 155.125C103.157 154.861 100.986 154.472 98.8385 153.832C96.7533 153.198 94.5258 152.741 92.8848 151.391C91.8345 150.475 92.2855 149.003 93.5647 148.806C95.4238 148.473 97.3782 149.158 99.3162 149.337C101.561 149.607 103.789 150.064 106.033 150.335C110.324 150.982 114.655 151.193 118.952 151.085C122.175 151.004 122.272 155.426 119.105 155.575Z" fill="#A8E1FF"/>
<path d="M57.1455 160.721L58.7008 162.315C60.8862 164.597 64.5352 164.682 66.8232 162.434L112.715 118.227L103.225 108.335L57.3267 152.605C55.0446 154.79 54.9602 158.439 57.1455 160.721Z" fill="#F137A6"/>
<path fill-rule="evenodd" clip-rule="evenodd" d="M62.204 164.084C62.3707 164.099 62.5374 164.115 62.7041 164.13C64.4036 164.161 66.0414 163.492 67.2196 162.34L113.118 118.643C113.391 118.416 113.425 118.041 113.136 117.762L103.708 107.876C103.588 107.802 103.407 107.723 103.219 107.705C103.052 107.69 102.922 107.741 102.827 107.858L56.9286 151.555C55.688 152.702 54.9696 154.338 54.939 156.037C54.9083 157.737 55.5201 159.306 56.7292 160.553L58.222 162.14C59.3176 163.25 60.7035 163.945 62.204 164.084ZM111.834 118.209L66.3568 161.441C64.3477 163.399 61.0796 163.287 59.1212 161.278L57.6284 159.69C56.6463 158.716 56.1365 157.408 56.2009 156.027C56.1969 154.703 56.7556 153.43 57.7914 152.454L103.206 109.217L111.834 118.209Z" fill="#910B5B"/>
<path d="M170.961 56.8346C156.654 39.6898 131.21 37.3428 114.071 51.5872C96.8635 65.8883 94.5166 91.3326 108.823 108.477C123.062 125.679 148.506 128.026 165.714 113.725C182.853 99.4805 185.2 74.0362 170.961 56.8346Z" fill="#00C4F6"/>
<path d="M150.271 57.6344C134.454 56.1755 120.456 67.8093 118.997 83.626C117.538 99.4428 129.166 113.503 144.983 114.962C160.8 116.421 174.803 104.725 176.262 88.9081C177.721 73.0913 166.087 59.0933 150.271 57.6344Z" fill="white"/>
<path fill-rule="evenodd" clip-rule="evenodd" d="M147.368 115.055C152.785 115.114 158.153 113.654 162.903 110.688C169.394 106.621 173.955 100.232 175.653 92.7601C177.414 85.2936 176.111 77.5446 172.044 71.0538C167.92 64.4946 161.588 60.0016 154.122 58.2411C146.587 56.5373 138.901 57.8459 132.41 61.9128C125.856 65.9739 121.295 72.3624 119.597 79.8347C117.899 87.3069 119.139 95.0502 123.206 101.541C127.336 108.038 133.662 112.593 141.197 114.297C143.254 114.781 145.311 115.034 147.368 115.055ZM147.925 59.1196C149.858 59.1297 151.792 59.3502 153.728 59.7809C160.825 61.4443 166.861 65.721 170.707 71.8762C174.553 78.0314 175.771 85.3313 174.107 92.4284C172.512 99.4688 168.173 105.5 162.018 109.345C155.863 113.191 148.563 114.409 141.522 112.814C134.425 111.15 128.451 106.88 124.543 100.719C120.697 94.5635 119.479 87.2636 121.143 80.1664C122.738 73.126 127.077 67.0952 133.232 63.2496C137.715 60.4476 142.764 59.0219 147.925 59.1196Z" fill="black"/>
<path d="M173.336 94.6279C170.712 105.987 159.34 113.071 147.981 110.447C136.616 107.886 129.47 96.5083 132.099 85.0869C134.723 73.7279 146.095 66.6436 157.454 69.2675C163.505 70.6453 168.32 74.4941 171.145 79.4202C162.792 81.8022 156.868 86.5519 157.807 90.0431C158.758 93.4093 165.782 94.4985 173.714 92.5821C173.61 93.2451 173.484 93.927 173.336 94.6279Z" fill="black"/>
<path opacity="0.4" d="M103.502 64.9849L156.019 119.7C160.29 117.825 164.312 115.232 167.84 111.838C171.301 108.5 174.051 104.656 176.069 100.555L123.433 45.765C119.293 47.5898 115.396 50.1936 111.873 53.5255C108.344 56.9199 105.525 60.8211 103.502 64.9849Z" fill="white"/>
<path opacity="0.4" d="M99.7343 87.3983L133.497 122.604C139.338 123.521 145.364 123.131 151.13 121.457L101.542 69.8484C99.6363 75.4731 99.0202 81.469 99.7343 87.3983Z" fill="white"/>
<path fill-rule="evenodd" clip-rule="evenodd" d="M102.956 118.087C122.516 138.427 154.857 139.141 175.26 119.586C195.601 100.026 196.314 67.6844 176.759 47.2814C157.199 26.9409 124.858 26.2276 104.455 45.7822C84.1143 65.3425 83.401 97.6837 102.956 118.087ZM103.838 99.6319C102.047 95.8098 100.853 91.6646 100.37 87.3327C99.6445 81.5284 100.323 75.5383 102.155 70.0329C102.686 68.3795 103.336 66.8002 104.111 65.2325C106.134 61.0687 108.879 57.2868 112.333 54.0117C115.657 50.7875 119.492 48.1779 123.7 46.2963C130.008 43.5365 136.853 42.4656 143.479 43.0768C152.794 43.936 161.804 48.1086 168.53 55.16C180.092 67.197 182.893 85.3611 175.524 100.317C173.507 104.419 170.762 108.201 167.382 111.357C163.99 114.637 160.093 117.241 155.759 119.111C154.246 119.791 152.614 120.397 150.931 120.873C145.358 122.502 139.333 122.892 133.553 121.981C124.978 120.622 117.225 116.503 111.185 110.208C108.131 107.089 105.686 103.522 103.838 99.6319Z" fill="#F137A6"/>
<path fill-rule="evenodd" clip-rule="evenodd" d="M88.3201 77.8344C88.2047 79.0847 88.1311 80.3389 88.0991 81.5969C87.8308 95.4428 92.9292 108.523 102.539 118.488C111.224 127.549 122.63 133.077 135.008 134.219C136.259 134.334 137.513 134.408 138.771 134.44C152.617 134.708 165.697 129.61 175.662 120C185.622 110.453 191.289 97.5459 191.614 83.7682C191.882 69.9223 186.784 56.8423 177.174 46.8769C157.449 26.269 124.602 25.572 104.051 45.3652C94.9904 54.0498 89.4618 65.456 88.3201 77.8344ZM104.914 46.2644C115.909 35.7407 130.455 31.1558 144.521 32.4532C156.212 33.5315 167.533 38.6109 176.275 47.7396C185.658 57.4319 190.591 70.2445 190.358 83.7154C190.061 97.1805 184.548 109.786 174.799 119.101C165.045 128.478 152.295 133.418 138.824 133.184C125.296 132.882 112.753 127.374 103.438 117.625C94.0554 107.933 89.1215 95.1206 89.3552 81.6497C89.6515 68.1846 95.1646 55.579 104.914 46.2644Z" fill="#910B5B"/>
<path fill-rule="evenodd" clip-rule="evenodd" d="M99.7336 87.3972C100.723 95.8109 104.378 104.029 110.702 110.665C117.031 117.238 125.108 121.262 133.496 122.603C139.338 123.52 145.363 123.13 151.123 121.518C152.769 120.997 154.401 120.391 156.02 119.7C160.285 117.887 164.25 115.226 167.842 111.837C171.302 108.5 174.052 104.655 176.07 100.554C183.422 85.7852 181.087 67.3488 169.014 54.6973C156.872 42.1026 138.557 39.0261 123.434 45.7645C119.294 47.5893 115.334 50.1874 111.874 53.525C108.345 56.9194 105.527 60.8206 103.503 64.9844C102.77 66.556 102.116 68.177 101.542 69.8473C99.6356 75.472 99.0195 81.4678 99.7336 87.3972ZM102.155 70.03C102.686 68.3767 103.336 66.7973 104.111 65.2296C106.134 61.0658 108.879 57.2839 112.334 54.0088C115.657 50.7846 119.492 48.175 123.7 46.2935C130.008 43.5337 136.853 42.4627 143.479 43.0739C152.794 43.9331 161.804 48.1057 168.53 55.1571C180.093 67.1941 182.894 85.3582 175.525 100.315C173.507 104.416 170.762 108.198 167.382 111.354C163.99 114.635 160.093 117.238 155.759 119.108C154.246 119.788 152.614 120.394 150.931 120.87C145.359 122.499 139.333 122.889 133.553 121.978C124.978 120.62 117.225 116.5 111.185 110.205C108.131 107.086 105.686 103.519 103.838 99.629C102.047 95.8069 100.853 91.6617 100.37 87.3298C99.6447 81.5255 100.323 75.5354 102.155 70.03Z" fill="#FF9138"/>
<path fill-rule="evenodd" clip-rule="evenodd" d="M99.0966 87.4641C100.165 96.3895 104.013 104.563 110.223 111.062C113.391 114.317 116.922 117.039 120.836 119.039C124.682 121.096 128.965 122.5 133.375 123.222C134.247 123.344 135.141 123.448 136.058 123.533C141.122 124 146.334 123.535 151.259 122.097C153.004 121.628 154.705 120.965 156.28 120.291C160.682 118.364 164.716 115.647 168.238 112.315C171.699 108.977 174.512 105.139 176.672 100.861C184.274 85.4221 181.4 66.6838 169.429 54.2939C157.526 41.8472 138.95 38.1793 123.236 45.1783C118.834 47.1051 114.931 49.7715 111.476 53.0466C107.948 56.441 105.066 60.3364 102.963 64.6819C102.182 66.3122 101.527 67.9541 100.933 69.6016C99.0216 75.2888 98.3883 81.4722 99.0966 87.4641ZM100.37 87.3294C99.6444 81.525 100.323 75.535 102.155 70.0296C102.686 68.3762 103.336 66.7969 104.111 65.2291C106.134 61.0654 108.879 57.2834 112.333 54.0083C115.657 50.7842 119.491 48.1746 123.7 46.293C130.007 43.5332 136.852 42.4623 143.479 43.0735C152.794 43.9327 161.804 48.1053 168.53 55.1567C180.092 67.1936 182.893 85.3578 175.524 100.314C173.507 104.415 170.762 108.197 167.381 111.353C163.989 114.634 160.092 117.238 155.759 119.108C154.246 119.788 152.614 120.394 150.931 120.869C145.358 122.499 139.333 122.889 133.553 121.978C124.978 120.619 117.224 116.499 111.185 110.205C108.131 107.086 105.686 103.519 103.838 99.6285C102.047 95.8065 100.853 91.6613 100.37 87.3294Z" fill="#910B5B"/>
<path d="M83.791 150.866C84.2007 150.526 84.5329 150.115 84.7874 149.634C87.7108 143.914 80.8177 129.786 76.6676 130.349C72.7108 130.867 67.5204 135.873 64.9056 140.298C64.0112 141.791 63.441 143.189 63.2689 144.371C62.5863 149.037 79.6768 154.459 83.791 150.866Z" fill="#00C4F6"/>
<path opacity="0.6" d="M83.7911 150.868C84.2008 150.527 84.5329 150.116 84.7874 149.636C80.8768 149.653 76.9844 148.79 73.4795 147.142C71.8492 146.362 70.3613 145.405 68.9531 144.266C67.6963 143.309 66.5344 142.235 65.4674 141.044C65.2782 140.817 65.0909 140.568 64.9056 140.299C64.0113 141.793 63.441 143.19 63.2689 144.372C62.5864 149.038 79.6768 154.46 83.7911 150.868Z" fill="#009DC5"/>
</svg>
