<svg width="24" height="26" viewBox="0 0 24 26" fill="none" xmlns="http://www.w3.org/2000/svg">
<path d="M7.01849 0.574596C6.98575 0.567978 6.9527 0.56191 6.91988 0.556196C6.13168 0.419093 5.33001 0.546885 4.6195 0.870341C2.72471 1.73284 1.42504 4.06839 2.54253 6.5161C3.42423 8.44692 2.44223 10.5626 0.926574 11.5492L1.42459 12.3348C3.29601 11.1167 4.47704 8.51914 3.38179 6.12052C2.46603 4.11476 3.51025 2.39979 4.99516 1.72389C5.73765 1.38585 6.57577 1.32761 7.34314 1.64928C8.07988 1.95792 8.77705 2.61916 9.26755 3.82649L6.02397 4.94141L6.78343 7.25508C3.73242 9.9053 2.39421 14.2587 3.73509 18.3453C5.49703 23.7152 11.2181 26.5919 16.5145 24.7701C21.811 22.9483 24.6767 17.1185 22.9148 11.7485C21.5763 7.66908 17.9512 5.02967 13.9646 4.79511L13.2021 2.47276L10.1449 3.52326C9.57956 2.10146 8.69597 1.20133 7.70072 0.784337C7.48071 0.692127 7.25219 0.621875 7.01849 0.574596ZM14.4527 6.22212C18.3222 7.00431 20.8275 10.7983 20.0346 14.7204C19.2418 18.6424 15.4537 21.1948 11.5842 20.4126C7.71459 19.6304 5.2426 15.8125 6.03538 11.8906C6.82817 7.96863 10.5831 5.43991 14.4526 6.22211L14.4527 6.22212ZM13.7624 7.36942L12.8873 11.6983C12.2041 11.7744 11.5993 12.2958 11.4561 13.004C11.2802 13.8741 11.862 14.7273 12.7204 14.9009C13.535 15.0655 14.3325 14.5642 14.5623 13.7691L18.8131 11.8248L18.4357 10.9725L14.5317 12.7587C14.4002 12.386 14.1402 12.0668 13.7933 11.8765L14.6674 7.55231L13.7623 7.36936L13.7624 7.36942ZM11.607 7.51178L10.7303 7.81196L11.1785 9.17183L12.0556 8.87019L11.607 7.51184L11.607 7.51178ZM16.5983 8.52073L15.6574 9.59823L16.3483 10.2169L17.2896 9.13786L16.5983 8.52073ZM8.92873 9.0253L8.3156 9.72833L9.37481 10.6753L9.98801 9.97218L8.92865 9.02518L8.92873 9.0253ZM13.1781 12.6368C13.5475 12.7114 13.7656 13.0812 13.6899 13.4555C13.6143 13.8299 13.2752 14.0582 12.9059 13.9836C12.5366 13.9089 12.2855 13.5613 12.3612 13.1869C12.4369 12.8126 12.8087 12.5621 13.1782 12.6367L13.1781 12.6368ZM7.34911 11.6884L7.1637 12.6057L8.55149 12.8862L8.73692 11.9689L7.34911 11.6884ZM17.5103 13.7424L17.3249 14.6597L18.7141 14.9405L18.8995 14.0232L17.5103 13.7424L17.5103 13.7424ZM8.63659 14.3275L7.29304 14.7872L7.58485 15.6732L8.92881 15.2121L8.63659 14.3275ZM16.688 15.9551L16.0753 16.6566L17.1346 17.6036L17.7477 16.9005L16.688 15.9551ZM9.71459 16.4135L8.77377 17.491L9.46503 18.1082L10.4059 17.0306L9.71456 16.4134L9.71459 16.4135ZM14.8844 17.4586L14.0079 17.7587L14.4563 19.1171L15.333 18.8169L14.8845 17.4585L14.8844 17.4586ZM11.6803 17.6698L11.3959 19.0764L12.3009 19.2594L12.5853 17.8528L11.6803 17.6698Z" fill="url(#paint0_linear_369_2728)"/>
<defs>
<linearGradient id="paint0_linear_369_2728" x1="10.3392" y1="3.37507" x2="16.6051" y2="23.5361" gradientUnits="userSpaceOnUse">
<stop stop-color="#3ADBA3"/>
<stop offset="1" stop-color="#00AC70"/>
</linearGradient>
</defs>
</svg>
