<svg width="43" height="47" viewBox="0 0 43 47" fill="none" xmlns="http://www.w3.org/2000/svg">
<path d="M21.3244 0.532227C27.1728 0.532227 31.9097 5.09371 31.9097 10.7255C31.9097 16.3573 27.1728 20.9187 21.3244 20.9187C15.476 20.9187 10.7391 16.3573 10.7391 10.7255C10.7391 5.09371 15.476 0.532227 21.3244 0.532227ZM31.9097 27.3915C31.9097 30.0927 31.1688 36.387 26.1143 43.4204L23.9708 31.112L26.4583 26.3212C24.8176 26.1428 23.0975 26.0154 21.3244 26.0154C19.5514 26.0154 17.8313 26.1428 16.1906 26.3212L18.6781 31.112L16.5346 43.4204C11.4801 36.387 10.7391 30.0927 10.7391 27.3915C4.41439 29.1753 0.153809 32.3862 0.153809 36.2086V46.4019H42.495V36.2086C42.495 32.3862 38.2609 29.1753 31.9097 27.3915Z" fill="#00C9FF"/>
</svg>
