<svg width="52" height="59" viewBox="0 0 52 59" fill="none" xmlns="http://www.w3.org/2000/svg">
<g clip-path="url(#clip0_291_938)">
<path d="M38.0805 21.5808C41.7681 24.2155 46.2856 25.7657 51.1647 25.7657V16.3819C50.2412 16.3823 49.3203 16.2859 48.4169 16.0944V23.4808C43.5382 23.4808 39.0212 21.9308 35.3329 19.2963V38.4462C35.3329 48.026 27.5628 55.7913 17.9789 55.7913C14.4028 55.7913 11.0789 54.7107 8.31787 52.8575C11.4692 56.0781 15.864 58.0759 20.7259 58.0759C30.3107 58.0759 38.0809 50.3106 38.0809 40.7304V21.5808H38.0805ZM41.4703 12.1137C39.5857 10.0559 38.3482 7.39651 38.0805 4.45639V3.24951H35.4766C36.1321 6.98625 38.3679 10.1787 41.4703 12.1137ZM14.3797 45.5064C13.3267 44.1267 12.7575 42.4386 12.7602 40.703C12.7602 36.3216 16.3141 32.7691 20.6988 32.7691C21.5158 32.7686 22.328 32.894 23.1069 33.1408V23.5472C22.1967 23.4226 21.2783 23.3695 20.3602 23.389V30.8562C19.581 30.6093 18.7684 30.484 17.951 30.4846C13.5665 30.4846 10.0128 34.0368 10.0128 38.4187C10.0128 41.5172 11.7891 44.1996 14.3797 45.5064Z" fill="#FF004F"/>
<path d="M35.3335 19.2961C39.0221 21.9306 43.5387 23.4806 48.4175 23.4806V16.0942C45.6942 15.5144 43.2834 14.0921 41.4708 12.1137C38.3682 10.1785 36.1327 6.98605 35.4773 3.24951H28.6377V40.73C28.6221 45.0995 25.0743 48.6374 20.6991 48.6374C18.1211 48.6374 15.8305 47.4092 14.38 45.5062C11.7897 44.1996 10.0133 41.517 10.0133 38.4189C10.0133 34.0374 13.567 30.4848 17.9515 30.4848C18.7916 30.4848 19.6012 30.6155 20.3607 30.8564V23.3892C10.9449 23.5837 3.37256 31.2732 3.37256 40.7302C3.37256 45.4511 5.2582 49.7308 8.31875 52.8579C11.0798 54.7107 14.4035 55.7917 17.9797 55.7917C27.5639 55.7917 35.3337 48.0258 35.3337 38.4462L35.3335 19.2961Z" fill="black"/>
<path d="M48.4171 16.0938V14.097C45.9613 14.1006 43.554 13.4132 41.4704 12.1135C43.3148 14.1316 45.7434 15.5233 48.4171 16.0942M35.4766 3.2491C35.4142 2.89206 35.3663 2.53264 35.3329 2.17173V0.964844H25.8891V38.4457C25.8741 42.8148 22.3263 46.3528 17.9509 46.3528C16.7105 46.3546 15.487 46.0647 14.3794 45.5064C15.8299 47.409 18.1205 48.637 20.6985 48.637C25.0735 48.637 28.6217 45.0995 28.6371 40.73V3.24929L35.4766 3.2491ZM20.3607 23.3888V21.2627C19.5715 21.155 18.776 21.101 17.9795 21.1012C8.39433 21.1012 0.624512 28.8669 0.624512 38.4457C0.624512 44.4513 3.67815 49.744 8.31851 52.8573C5.25797 49.7304 3.37233 45.4505 3.37233 40.7298C3.37233 31.2729 10.9445 23.5833 20.3607 23.3888Z" fill="#00F2EA"/>
</g>
<defs>
<clipPath id="clip0_291_938">
<rect width="50.5418" height="57.2544" fill="white" transform="translate(0.625488 0.964844)"/>
</clipPath>
</defs>
</svg>
