<svg width="66" height="47" viewBox="0 0 66 47" fill="none" xmlns="http://www.w3.org/2000/svg">
<g clip-path="url(#clip0_291_945)">
<path d="M64.1076 7.54941C63.7334 6.16658 63.0035 4.9059 61.9906 3.89291C60.9776 2.87991 59.717 2.14995 58.3342 1.7757C53.2717 0.39502 32.8969 0.39502 32.8969 0.39502C32.8969 0.39502 12.5211 0.436812 7.45858 1.81749C6.07573 2.19176 4.81506 2.92176 3.80211 3.93481C2.78916 4.94785 2.05926 6.20858 1.68511 7.59146C0.153832 16.5865 -0.440181 30.2929 1.72716 38.9281C2.10135 40.3109 2.83126 41.5716 3.84421 42.5846C4.85716 43.5976 6.11781 44.3276 7.50062 44.7018C12.5631 46.0825 32.9384 46.0825 32.9384 46.0825C32.9384 46.0825 53.3135 46.0825 58.3757 44.7018C59.7586 44.3276 61.0193 43.5976 62.0323 42.5846C63.0453 41.5717 63.7752 40.311 64.1494 38.9281C65.7645 29.9203 66.2622 16.2223 64.1076 7.54941Z" fill="#FF0000"/>
<path d="M26.4104 33.0285L43.3129 23.2384L26.4104 13.4482V33.0285Z" fill="white"/>
</g>
<defs>
<clipPath id="clip0_291_945">
<rect width="65.2369" height="45.8697" fill="white" transform="translate(0.3125 0.39502)"/>
</clipPath>
</defs>
</svg>
