<svg width="75" height="28" viewBox="0 0 75 28" fill="none" xmlns="http://www.w3.org/2000/svg">
<path d="M0.00995863 2.78969C0.00450609 2.60221 0.155006 2.44723 0.34257 2.44719L12.4408 2.44452C12.6321 2.44448 12.784 2.60538 12.773 2.79637L12.6392 5.114C12.629 5.29004 12.4833 5.42762 12.307 5.42766L8.62269 5.42847C8.43891 5.42851 8.28993 5.57752 8.28993 5.76129L8.28993 20.1541C8.28993 20.3379 8.14096 20.4869 7.95718 20.4869L4.89348 20.4876C4.70971 20.4877 4.56073 20.3387 4.56073 20.1549L4.56073 5.76212C4.56073 5.57834 4.41175 5.4294 4.22798 5.42944L0.409972 5.43028C0.229965 5.43032 0.0825935 5.2872 0.0773607 5.10727L0.00995863 2.78969Z" fill="white"/>
<path d="M16.876 6.34927C16.8758 6.34903 16.876 6.34861 16.8763 6.34861C18.7871 6.34876 20.1736 6.82658 21.0343 7.78341C21.8952 8.7404 22.325 10.2219 22.325 12.2294L22.3251 20.1869C22.3251 20.3586 22.1943 20.5022 22.0233 20.5182L19.5355 20.7508C19.3743 20.7659 19.2257 20.6628 19.1834 20.5065L19.0063 19.852C18.9465 19.6312 18.6867 19.5351 18.4911 19.6538C17.2252 20.4221 15.8642 20.8063 14.4102 20.8063C13.1863 20.8063 12.2253 20.4673 11.5272 19.7879C10.8291 19.1099 10.4808 18.1769 10.4808 16.9917C10.4808 15.7291 10.8865 14.74 11.6993 14.0233C12.5122 13.3065 13.7028 12.8047 15.271 12.5177C16.1187 12.3588 17.1529 12.2328 18.3746 12.1388C18.5487 12.1254 18.6839 11.9806 18.6839 11.8059L18.6839 11.7716C18.6839 10.8346 18.4583 10.1752 18.0099 9.79218C17.5601 9.41045 16.8674 9.21826 15.9304 9.21826C14.7249 9.21827 13.4247 9.40974 12.028 9.79267C11.8221 9.84911 11.614 9.70427 11.6001 9.49126L11.4717 7.52283C11.4619 7.37264 11.5541 7.23425 11.6972 7.18777C13.4148 6.6301 15.1398 6.35005 16.8757 6.34994C16.8761 6.34994 16.8763 6.34952 16.876 6.34927ZM13.921 16.5886C13.9206 16.5886 13.9203 16.5889 13.9203 16.5893C13.9204 17.1815 14.0726 17.5924 14.3795 17.8219C14.6851 18.0515 15.1536 18.1662 15.7849 18.1662C16.6505 18.1662 17.5575 17.9196 18.5082 17.4274C18.6163 17.3715 18.6826 17.259 18.6826 17.1373L18.6826 14.6681C18.6826 14.4798 18.5265 14.3288 18.3384 14.339C17.8892 14.3635 17.3917 14.4061 16.8474 14.4664C15.7956 14.5625 15.0442 14.7627 14.5957 15.0683C14.146 15.3739 13.9218 15.8809 13.9217 16.5879C13.9217 16.5883 13.9214 16.5886 13.921 16.5886Z" fill="white"/>
<path d="M41.0566 20.8047C41.0562 20.8051 41.0556 20.8053 41.055 20.8053C40.2332 20.8053 39.4246 20.7292 38.6321 20.5758C37.9312 20.4415 37.2863 20.2614 36.6977 20.0365C36.5596 19.9838 36.4767 19.8434 36.4926 19.6965L36.7087 17.6871C36.7314 17.476 36.9433 17.34 37.1464 17.4017C37.7104 17.573 38.2866 17.7127 38.875 17.8209C39.6011 17.9544 40.2712 18.0211 40.8825 18.0211C42.3173 18.0211 43.034 17.5726 43.034 16.673C43.034 16.3287 42.9486 16.0564 42.7764 15.8562C42.6042 15.656 42.3466 15.4838 42.0023 15.3397C41.6579 15.1968 41.056 14.9713 40.1951 14.6656C38.8937 14.2265 37.9821 13.686 37.4562 13.0453C36.9303 12.4046 36.6674 11.5878 36.6674 10.5934C36.6674 9.33076 37.1639 8.30836 38.1582 7.52354C39.1526 6.74005 40.5287 6.34764 42.2892 6.34763C43.6088 6.34763 44.8541 6.52179 46.0239 6.8712C46.1721 6.91545 46.2669 7.05856 46.2541 7.21263L46.0794 9.30783C46.0622 9.51403 45.863 9.65451 45.662 9.60527C44.4465 9.30746 43.3789 9.15855 42.4614 9.15856C40.9892 9.15856 40.2524 9.58835 40.2524 10.4492C40.2524 10.6975 40.3138 10.9084 40.4393 11.0806C40.5634 11.2527 40.817 11.4343 41.2001 11.6251C41.5818 11.816 42.1651 12.0362 42.9499 12.2845C44.3647 12.7436 45.3497 13.2735 45.905 13.8768C46.4589 14.4787 46.7365 15.2969 46.7365 16.3287C46.7365 17.7248 46.2147 18.8193 45.1736 19.6134C44.1314 20.4074 42.7596 20.8039 41.0583 20.804C41.0577 20.804 41.0571 20.8043 41.0566 20.8047Z" fill="white"/>
<path d="M52.3613 20.8047C52.3609 20.8051 52.3603 20.8053 52.3597 20.8053C51.5379 20.8053 50.7293 20.7292 49.9368 20.5758C49.2358 20.4415 48.591 20.2614 48.0024 20.0365C47.8643 19.9838 47.7814 19.8434 47.7972 19.6965L48.0133 17.6871C48.036 17.476 48.248 17.34 48.4511 17.4017C49.015 17.573 49.5912 17.7127 50.1797 17.8209C50.9058 17.9544 51.5758 18.0211 52.1871 18.0211C53.622 18.0211 54.3387 17.5726 54.3387 16.673C54.3387 16.3287 54.2533 16.0564 54.0811 15.8562C53.9089 15.656 53.6513 15.4838 53.307 15.3397C52.9626 15.1968 52.3606 14.9713 51.4997 14.6656C50.1984 14.2265 49.2868 13.686 48.7609 13.0453C48.235 12.4046 47.9721 11.5878 47.9721 10.5934C47.9721 9.33076 48.4686 8.30836 49.4629 7.52354C50.4573 6.74005 51.8334 6.34764 53.5939 6.34763C54.9135 6.34763 56.1588 6.52179 57.3286 6.8712C57.4768 6.91545 57.5716 7.05856 57.5588 7.21263L57.3841 9.30783C57.3669 9.51403 57.1677 9.65451 56.9667 9.60527C55.7512 9.30746 54.6836 9.15855 53.7661 9.15856C52.2939 9.15856 51.5571 9.58835 51.5571 10.4492C51.5571 10.6975 51.6185 10.9084 51.744 11.0806C51.8681 11.2527 52.1217 11.4343 52.5048 11.6251C52.8865 11.816 53.4698 12.0362 54.2546 12.2845C55.6694 12.7436 56.6544 13.2735 57.2097 13.8768C57.7636 14.4787 58.0412 15.2969 58.0412 16.3287C58.0412 17.7248 57.5193 18.8193 56.4783 19.6134C55.436 20.4074 54.0643 20.8039 52.3629 20.804C52.3623 20.804 52.3618 20.8043 52.3613 20.8047Z" fill="white"/>
<path d="M62.0348 4.7422C61.4221 4.7422 60.9497 4.58471 60.6147 4.26838C60.2796 3.95339 60.1128 3.49824 60.1128 2.90563C60.1128 2.31301 60.2796 1.87789 60.6146 1.54287C60.9496 1.20785 61.4221 1.04101 62.0348 1.04101C62.6474 1.041 63.1145 1.1985 63.4402 1.51483C63.7645 1.82982 63.9274 2.28496 63.9274 2.87758C63.9274 3.4702 63.7592 3.95337 63.4255 4.26837C63.0905 4.58336 62.6274 4.7422 62.0348 4.7422ZM63.8127 20.1565C63.8127 20.3403 63.6637 20.4893 63.4799 20.4893L60.4456 20.4893C60.2619 20.4893 60.1129 20.3403 60.1129 20.1565L60.1128 6.93957C60.1128 6.7558 60.2618 6.60682 60.4456 6.60682L63.4798 6.6068C63.6636 6.6068 63.8126 6.75578 63.8126 6.93956L63.8127 20.1565Z" fill="white"/>
<path d="M73.1929 6.34829C73.1929 6.34866 73.1932 6.34896 73.1936 6.34896C73.7519 6.34904 74.2872 6.45352 74.8005 6.66332C74.923 6.71338 74.9979 6.83622 74.9945 6.96849L74.9224 9.75588C74.9175 9.94635 74.7539 10.0935 74.5638 10.0812C74.2286 10.0594 73.9535 10.0488 73.7375 10.0488C72.3122 10.0488 71.1079 10.2959 70.1256 10.7888C70.0169 10.8434 69.9509 10.956 69.9509 11.0777L69.9509 20.1563C69.9509 20.34 69.8019 20.489 69.6182 20.489L66.5838 20.489C66.4001 20.489 66.2511 20.3401 66.2511 20.1563L66.251 10.9952C66.251 10.1808 66.2164 8.89718 66.1483 7.14195C66.1415 6.96921 66.2681 6.81968 66.4396 6.79823L69.0113 6.47662C69.1965 6.45345 69.3646 6.58714 69.3836 6.77282L69.5452 8.34676C69.556 8.45214 69.6963 8.48499 69.7557 8.39732C70.6816 7.03182 71.8275 6.34786 73.1922 6.34763C73.1926 6.34763 73.1929 6.34792 73.1929 6.34829Z" fill="white"/>
<path d="M30.8702 18.4189C30.9042 18.5378 30.8695 18.6657 30.7801 18.7511L28.4499 20.9763L23.7002 6.61536C23.629 6.40006 23.7893 6.17817 24.0161 6.17812L27.1177 6.17744C27.2662 6.1774 27.3968 6.27585 27.4376 6.41868L30.8702 18.4189Z" fill="white"/>
<path d="M34.8025 2.39139C34.8025 2.39181 34.8023 2.39221 34.802 2.39247C34.6716 2.49393 34.5454 2.59777 34.4208 2.70549C31.6989 5.06496 31.0071 8.64085 30.4459 12.0215C29.9797 14.8361 29.7335 17.4345 29.0256 19.6161C28.7875 20.3501 28.2618 21.7628 26.9491 22.7378C26.939 22.7452 26.9313 22.7511 26.925 22.7555C26.215 23.2755 25.2757 23.7093 24.1059 24.056C23.8198 24.1408 23.642 24.4298 23.7065 24.7211L24.1555 26.7476C24.2189 27.0335 24.494 27.2225 24.7811 27.1642C26.1059 26.8956 28.2251 26.2234 29.8838 24.4104C30.6075 23.6191 31.0851 22.7155 31.5552 21.763C32.0442 20.7743 32.2465 19.6107 32.4978 18.5345C33.0157 16.3156 33.3708 14.0641 33.7193 11.813C34.0346 9.77437 34.3421 7.70016 35.3945 5.8861C36.2577 4.39789 37.8723 3.60361 39.5208 3.2761C39.8039 3.21986 40.0111 2.96867 39.9938 2.68058C39.9603 2.12162 39.9261 1.56303 39.8906 1.00424C39.8711 0.69683 39.604 0.463003 39.2987 0.504312C37.6701 0.72472 36.1022 1.38254 34.803 2.39032C34.8026 2.39057 34.8024 2.39098 34.8025 2.39139Z" fill="#00C4F6"/>
</svg>
