<svg width="202" height="72" viewBox="0 0 202 72" fill="none" xmlns="http://www.w3.org/2000/svg">
<path d="M0.441019 6.28567C0.426393 5.78279 0.83008 5.36719 1.33318 5.36719H33.7843C34.2975 5.36719 34.705 5.79886 34.6754 6.31116L34.3166 12.5277C34.2893 12.9998 33.8985 13.3688 33.4255 13.3688H23.5431C23.0501 13.3688 22.6505 13.7684 22.6505 14.2613V52.8673C22.6505 53.3602 22.2509 53.7598 21.758 53.7598H13.5402C13.0472 53.7598 12.6476 53.3602 12.6476 52.8673V14.2613C12.6476 13.7684 12.248 13.3688 11.7551 13.3688H1.51397C1.03114 13.3688 0.635849 12.9848 0.621812 12.5022L0.441019 6.28567Z" fill="#012246"/>
<path d="M45.6789 15.8338C45.6782 15.8332 45.6787 15.832 45.6796 15.832C50.8051 15.8325 54.524 17.1141 56.8328 19.6807C59.142 22.2476 60.2948 26.2216 60.2948 31.6061V52.9506C60.2948 53.4113 59.9441 53.7963 59.4853 53.8392L52.8124 54.4633C52.3799 54.5037 51.9812 54.227 51.8677 53.8078L51.3927 52.0524C51.2324 51.4601 50.5355 51.2023 50.011 51.5207C46.6152 53.5816 42.9647 54.612 39.0646 54.612C35.7816 54.612 33.2039 53.7027 31.3315 51.8804C29.4591 50.0617 28.5247 47.5592 28.5247 44.38C28.5247 40.9932 29.613 38.3403 31.7933 36.4178C33.9736 34.4953 37.1671 33.1491 41.3738 32.3794C43.6474 31.9531 46.4214 31.6153 49.6984 31.3631C50.1655 31.3271 50.5282 30.9387 50.5282 30.4702V30.3781C50.5282 27.8649 49.9231 26.0963 48.7202 25.0688C47.5137 24.0449 45.6556 23.5293 43.1423 23.5293C39.9088 23.5293 36.4214 24.0429 32.6748 25.07C32.1226 25.2214 31.5645 24.8329 31.5272 24.2616L31.1827 18.9816C31.1564 18.5788 31.4037 18.2075 31.7877 18.0829C36.3947 16.587 41.0217 15.8359 45.6781 15.8356C45.6791 15.8356 45.6795 15.8345 45.6789 15.8338ZM37.7525 43.2988C37.7515 43.2988 37.7507 43.2996 37.7507 43.3006C37.751 44.8892 38.1591 45.9913 38.9822 46.6069C39.8021 47.2226 41.0587 47.5305 42.7521 47.5305C45.0737 47.5305 47.5066 46.869 50.0569 45.5489C50.3468 45.3988 50.5246 45.097 50.5246 44.7705V38.1476C50.5246 37.6424 50.1058 37.2374 49.6014 37.2648C48.3963 37.3303 47.062 37.4448 45.6019 37.6064C42.7807 37.8642 40.7651 38.4012 39.5622 39.221C38.3561 40.0406 37.7546 41.4005 37.7542 43.297C37.7542 43.298 37.7534 43.2988 37.7525 43.2988Z" fill="#012246"/>
<path d="M110.539 54.6063C110.538 54.6075 110.537 54.6081 110.535 54.6081C108.331 54.608 106.162 54.4039 104.036 53.9923C102.156 53.6321 100.426 53.1491 98.8472 52.5459C98.4768 52.4044 98.2547 52.028 98.2971 51.6337L98.8768 46.2439C98.9377 45.6777 99.5061 45.313 100.051 45.4785C101.564 45.938 103.109 46.3128 104.688 46.6029C106.635 46.961 108.432 47.14 110.072 47.14C113.921 47.14 115.843 45.937 115.843 43.524C115.843 42.6004 115.614 41.87 115.152 41.333C114.691 40.796 114 40.3341 113.076 39.9475C112.152 39.5644 110.538 38.9594 108.228 38.1395C104.738 36.9617 102.293 35.5117 100.882 33.7932C99.4714 32.0748 98.7661 29.8837 98.7661 27.2165C98.7661 23.8297 100.098 21.0873 102.765 18.9822C105.432 16.8807 109.123 15.8281 113.846 15.8281C117.385 15.8281 120.725 16.2953 123.863 17.2325C124.261 17.3512 124.515 17.7351 124.481 18.1484L124.012 23.7683C123.966 24.3214 123.432 24.6982 122.893 24.5661C119.632 23.7673 116.769 23.3679 114.307 23.3679C110.359 23.3679 108.382 24.5207 108.382 26.8299C108.382 27.4958 108.547 28.0614 108.884 28.5233C109.217 28.9851 109.897 29.472 110.924 29.984C111.948 30.4959 113.513 31.0867 115.618 31.7526C119.413 32.9841 122.055 34.4054 123.544 36.0237C125.03 37.6383 125.775 39.8329 125.775 42.6004C125.775 46.3452 124.375 49.2809 121.582 51.4111C118.787 53.5408 115.107 54.6041 110.544 54.6045C110.542 54.6045 110.541 54.6052 110.539 54.6063Z" fill="#012246"/>
<path d="M140.865 54.6063C140.864 54.6075 140.862 54.6081 140.861 54.6081C138.656 54.608 136.487 54.4039 134.362 53.9923C132.481 53.6321 130.752 53.1491 129.173 52.5459C128.802 52.4044 128.58 52.028 128.623 51.6337L129.202 46.2439C129.263 45.6777 129.832 45.313 130.377 45.4785C131.889 45.938 133.435 46.3128 135.013 46.6029C136.961 46.961 138.758 47.14 140.398 47.14C144.246 47.14 146.169 45.937 146.169 43.524C146.169 42.6004 145.94 41.87 145.478 41.333C145.016 40.796 144.325 40.3341 143.401 39.9475C142.478 39.5644 140.863 38.9594 138.554 38.1395C135.063 36.9617 132.618 35.5117 131.207 33.7932C129.797 32.0748 129.092 29.8837 129.092 27.2165C129.092 23.8297 130.423 21.0873 133.091 18.9822C135.758 16.8807 139.449 15.8281 144.171 15.8281C147.711 15.8281 151.051 16.2953 154.189 17.2325C154.586 17.3512 154.841 17.7351 154.806 18.1484L154.338 23.7683C154.292 24.3214 153.757 24.6982 153.218 24.5661C149.958 23.7673 147.094 23.3679 144.633 23.3679C140.684 23.3679 138.708 24.5207 138.708 26.8299C138.708 27.4958 138.873 28.0614 139.209 28.5233C139.542 28.9851 140.222 29.472 141.25 29.984C142.274 30.4959 143.838 31.0867 145.943 31.7526C149.738 32.9841 152.38 34.4054 153.87 36.0237C155.355 37.6383 156.1 39.8329 156.1 42.6004C156.1 46.3452 154.7 49.2809 151.908 51.4111C149.112 53.5408 145.433 54.6041 140.869 54.6045C140.868 54.6045 140.866 54.6052 140.865 54.6063Z" fill="#012246"/>
<path d="M166.811 11.5215C165.168 11.5215 163.9 11.099 163.002 10.2505C162.103 9.4056 161.655 8.18478 161.655 6.5952C161.655 5.00562 162.103 3.83849 163.002 2.93988C163.9 2.04127 165.168 1.59375 166.811 1.59375C168.454 1.59375 169.707 2.01621 170.581 2.8647C171.451 3.70961 171.887 4.93043 171.887 6.52001C171.887 8.10959 171.436 9.4056 170.541 10.2505C169.643 11.0954 168.4 11.5215 166.811 11.5215ZM171.58 52.8673C171.58 53.3603 171.18 53.7599 170.687 53.7599H162.548C162.055 53.7599 161.655 53.3603 161.655 52.8673V17.4154C161.655 16.9225 162.055 16.5229 162.548 16.5229H170.687C171.18 16.5229 171.58 16.9225 171.58 17.4154V52.8673Z" fill="#012246"/>
<path d="M196.739 15.8299C196.739 15.8309 196.739 15.8317 196.74 15.8317C198.238 15.8319 199.674 16.1122 201.051 16.6749C201.379 16.8092 201.58 17.1387 201.571 17.4935L201.378 24.9701C201.364 25.481 200.926 25.8757 200.416 25.8426C199.517 25.7842 198.779 25.7558 198.199 25.7558C194.376 25.7558 191.146 26.4185 188.511 27.7407C188.219 27.887 188.042 28.1892 188.042 28.5155V52.8671C188.042 53.36 187.643 53.7596 187.15 53.7596H179.011C178.518 53.7596 178.118 53.36 178.118 52.8671V28.2941C178.118 26.1099 178.025 22.6667 177.843 17.9586C177.825 17.4953 178.164 17.0942 178.624 17.0367L185.522 16.1741C186.019 16.1119 186.47 16.4705 186.521 16.9686L186.954 21.1904C186.983 21.473 187.36 21.5612 187.519 21.326C190.002 17.6633 193.076 15.8287 196.737 15.8281C196.738 15.8281 196.739 15.8289 196.739 15.8299Z" fill="#012246"/>
<path d="M83.2242 48.2116C83.3154 48.5305 83.2222 48.8737 82.9822 49.1027L76.7277 55.0707L63.9907 16.5433C63.7997 15.9658 64.2298 15.3706 64.8381 15.3706H73.1619C73.5603 15.3706 73.9105 15.6347 74.02 16.0178L83.2242 48.2116Z" fill="#012246"/>
<path d="M93.7773 5.21477C93.7773 5.21589 93.7768 5.21697 93.776 5.21766C93.4261 5.48977 93.0874 5.76825 92.753 6.05717C85.4487 12.3852 83.5905 21.9776 82.0829 31.0464C80.8302 38.5968 80.1681 45.5671 78.2676 51.4191C77.6282 53.3882 76.2168 57.1777 72.6945 59.7924C72.6672 59.8123 72.6467 59.8281 72.6296 59.84C70.7245 61.2345 68.2037 62.3976 65.0648 63.3273C64.2975 63.5545 63.8203 64.3295 63.9932 65.1109L65.1967 70.5478C65.3665 71.3149 66.1044 71.8218 66.8745 71.6659C70.4292 70.9461 76.1158 69.144 80.5674 64.2811C82.5095 62.1588 83.7915 59.7351 85.0534 57.18C86.3658 54.5281 86.9092 51.4065 87.5841 48.5198C88.9751 42.5674 89.9292 36.5276 90.8654 30.489C91.7128 25.0203 92.539 19.4561 95.3636 14.5902C97.6806 10.5983 102.013 8.46842 106.436 7.59086C107.196 7.44021 107.752 6.76657 107.706 5.99379C107.616 4.49417 107.525 2.99552 107.43 1.49632C107.377 0.671758 106.661 0.0444021 105.842 0.154997C101.472 0.745257 97.2652 2.50906 93.7785 5.21189C93.7777 5.21257 93.7772 5.21366 93.7773 5.21477Z" fill="#00C4F6"/>
<path d="M93.7773 5.21477C93.7773 5.21589 93.7769 5.21697 93.776 5.21765C93.4261 5.48977 93.0874 5.76825 92.753 6.05717C85.4487 12.3852 83.5905 21.9776 82.0829 31.0464C80.8302 38.5968 80.1681 45.5671 78.2676 51.4191C77.6282 53.3882 76.2168 57.1777 72.6945 59.7924C72.6672 59.8123 72.6467 59.8281 72.6296 59.84C70.7245 61.2345 68.2037 62.3976 65.0648 63.3273C64.2975 63.5545 63.8203 64.3295 63.9932 65.1109L65.1967 70.5478C65.3665 71.3149 66.1044 71.8218 66.8745 71.6659C70.4292 70.9461 76.1158 69.144 80.5674 64.2811C82.5095 62.1588 83.7915 59.7351 85.0534 57.18C86.3658 54.5281 86.9092 51.4065 87.5841 48.5198C88.9751 42.5674 89.9292 36.5276 90.8654 30.489C91.7128 25.0203 92.539 19.4561 95.3636 14.5902C97.6806 10.5983 102.013 8.46842 106.436 7.59086C107.196 7.44021 107.752 6.76657 107.706 5.99379C107.616 4.49417 107.525 2.99552 107.43 1.49632C107.377 0.671758 106.661 0.0444018 105.842 0.154996C101.472 0.745257 97.2652 2.50906 93.7785 5.21189C93.7777 5.21257 93.7772 5.21366 93.7773 5.21477Z" fill="url(#paint0_linear_0_199)"/>
<defs>
<linearGradient id="paint0_linear_0_199" x1="85.9998" y1="43.499" x2="61.4932" y2="62.214" gradientUnits="userSpaceOnUse">
<stop stop-color="#012246" stop-opacity="0"/>
<stop offset="1" stop-color="#004E92"/>
</linearGradient>
</defs>
</svg>
