<svg width="34" height="34" viewBox="0 0 34 34" fill="none" xmlns="http://www.w3.org/2000/svg">
<circle cx="17" cy="17" r="17" fill="url(#paint0_linear_369_657)"/>
<path d="M16.9997 7.55566C15.4968 7.55566 14.0554 8.15269 12.9927 9.21539C11.93 10.2781 11.333 11.7194 11.333 13.2223C11.333 13.5229 11.4524 13.8112 11.665 14.0237C11.8775 14.2363 12.1658 14.3557 12.4663 14.3557C12.7669 14.3557 13.0552 14.2363 13.2677 14.0237C13.4803 13.8112 13.5997 13.5229 13.5997 13.2223C13.5997 11.3433 15.1206 9.82233 16.9997 9.82233C18.8787 9.82233 20.3997 11.3433 20.3997 13.2223C20.3997 14.1471 20.1741 14.6889 19.9033 15.0685C19.6063 15.4822 19.1949 15.7916 18.6249 16.1849L18.4934 16.2733C17.9868 16.6201 17.334 17.0655 16.8285 17.6865C16.2313 18.4209 15.8663 19.3491 15.8663 20.589V21.1557C15.8663 21.4562 15.9857 21.7445 16.1983 21.9571C16.4108 22.1696 16.6991 22.289 16.9997 22.289C17.3003 22.289 17.5885 22.1696 17.8011 21.9571C18.0136 21.7445 18.133 21.4562 18.133 21.1557V20.589C18.133 19.8455 18.3347 19.4285 18.5863 19.1168C18.8776 18.7609 19.2697 18.4912 19.8489 18.0934L19.9089 18.0515C20.4711 17.6661 21.193 17.1607 21.7449 16.3877C22.3263 15.5808 22.6663 14.5631 22.6663 13.2223C22.6663 11.7194 22.0693 10.2781 21.0066 9.21539C19.9439 8.15269 18.5026 7.55566 16.9997 7.55566ZM16.9997 27.1057C17.3754 27.1057 17.7357 26.9564 18.0014 26.6907C18.2671 26.4251 18.4163 26.0647 18.4163 25.689C18.4163 25.3133 18.2671 24.9529 18.0014 24.6873C17.7357 24.4216 17.3754 24.2723 16.9997 24.2723C16.624 24.2723 16.2636 24.4216 15.9979 24.6873C15.7323 24.9529 15.583 25.3133 15.583 25.689C15.583 26.0647 15.7323 26.4251 15.9979 26.6907C16.2636 26.9564 16.624 27.1057 16.9997 27.1057Z" fill="white" stroke="white"/>
<defs>
<linearGradient id="paint0_linear_369_657" x1="8.02778" y1="2.83333" x2="26.9167" y2="30.6944" gradientUnits="userSpaceOnUse">
<stop stop-color="#00C4F6"/>
<stop offset="1" stop-color="#0080FF"/>
</linearGradient>
</defs>
</svg>
