<svg width="304" height="342" viewBox="0 0 304 342" fill="none" xmlns="http://www.w3.org/2000/svg">
<path d="M240.524 195.935C266.752 210.239 233.372 218.358 228.225 228.737C226.12 232.939 227.115 234.061 240.16 232.654C285.742 227.791 299.628 180.023 251.16 161.057C224.37 150.617 234.113 192.459 240.524 195.935Z" fill="#00C4F6"/>
<path opacity="0.6" d="M240.525 195.936C236.007 193.527 231.91 176.868 234.704 167.44C249.332 176.415 259.618 191.515 253.194 206.791C250.609 213.216 242.497 217.002 238.929 222.924C237.389 225.461 236.865 228.916 239.359 230.177C240.572 230.93 241.836 231.619 243.152 232.244C242.178 232.383 241.181 232.52 240.161 232.655C227.116 234.062 226.188 232.946 228.225 228.737C233.237 218.346 266.753 210.24 240.525 195.936Z" fill="#009DC5"/>
<path d="M261.807 172.962C264.741 174.675 267.5 176.785 269.664 179.388C271.525 181.552 273.584 184.559 273.314 187.488C273.213 188.578 272.147 188.96 271.318 188.265C269.339 186.64 268.066 184.05 266.391 182.109C264.467 179.871 262.16 178.078 259.616 176.607C257.203 175.216 259.4 171.503 261.807 172.962Z" fill="#A8E1FF"/>
<path d="M275.684 194.575C276.25 197.375 276.704 200.645 275.103 203.108C274.631 203.752 273.467 203.713 273.338 202.877C272.815 200.355 273.394 197.798 273.082 195.228C272.892 193.562 275.364 192.828 275.684 194.575Z" fill="#A8E1FF"/>
<path d="M121.007 328.347C213.199 332.042 237.332 230.537 246.524 163.651C247.774 154.561 248.69 146.127 249.517 138.647C250.282 131.848 250.903 125.86 251.491 120.968C251.491 120.968 190.85 100.673 154.859 125.931C150.377 129.09 146.241 132.968 142.717 137.657C142.727 140.04 142.761 142.402 142.819 144.743C144.353 273.346 137.852 314.032 69.6077 287.541C40.0939 276.094 79.3909 326.707 121.007 328.347Z" fill="#00C4F6"/>
<path d="M227.023 139.732C226.569 187.846 210.27 266.991 169.569 294.906C128.862 322.889 117.209 311.441 136.558 277.435C156.713 242.13 150.749 176.456 145.818 144.263C140.826 111.997 227.023 139.732 227.023 139.732Z" fill="#A8E1FF"/>
<path opacity="0.6" d="M142.718 137.66C142.727 140.042 142.762 142.404 142.82 144.745C151.81 161.237 167.808 173.979 186.078 178.481C207.042 183.574 230.249 177.746 246.525 163.653C247.775 154.563 248.691 146.13 249.518 138.649C246.506 140.02 242.886 142.778 240.633 141.883C213.664 130.396 184.191 125.96 154.86 125.934C150.378 129.093 146.242 132.97 142.718 137.66Z" fill="#009DC5"/>
<path d="M168.535 242.809C167.842 247.347 166.938 251.935 165.501 256.337C164.183 260.2 162.498 265.059 159.497 267.805C158.598 268.615 157.205 268.074 157.182 266.836C157.212 262.785 159.144 258.224 160.388 254.423C161.812 250.157 163.038 245.805 163.985 241.496C164.682 238.4 169.01 239.899 168.535 242.809Z" fill="#E0F5FF"/>
<path d="M157.194 277.895C156.573 279.418 155.951 280.941 155.132 282.376C154.393 283.682 153.797 284.932 152.545 285.847C151.95 286.342 150.965 285.839 150.824 285.139C150.479 283.665 150.939 282.402 151.275 280.99C151.618 279.511 152.165 278.05 152.712 276.589C153.787 273.871 158.275 275.11 157.194 277.895Z" fill="#E0F5FF"/>
<path d="M66.7233 286.795C71.1516 281.982 74.4351 271.706 73.0123 261.064C71.1051 246.737 60.7118 233.55 53.7815 228.995C45.8105 238.702 42.5785 252.143 44.4857 266.47C46.3929 280.798 52.1867 292.461 58.8641 291.565L66.7233 286.795Z" fill="#00C4F6"/>
<path d="M53.9635 273.936C51.4201 272.465 48.5235 271.099 45.3785 270.191C43.5544 269.61 41.6247 269.18 39.5896 268.901C25.2862 266.826 9.78866 273.228 3.5821 278.701C10.6721 288.972 22.7522 295.788 37.0556 297.863C48.3808 299.457 58.4188 295.643 62.4257 290.929L53.9635 273.936Z" fill="#00C4F6"/>
<path d="M44.1801 277.227C41.4618 276.907 38.7864 276.867 36.1172 276.758C33.6525 276.668 31.1563 276.919 28.7481 276.216C27.8814 275.93 27.9076 274.902 28.5709 274.413C32.929 271.106 39.7691 273.66 44.4682 274.849C45.8116 275.179 45.5425 277.353 44.1801 277.227Z" fill="#A8E1FF"/>
<path d="M21.6485 279.478C21.0104 279.694 20.2978 279.972 19.5978 280.113C18.7489 280.379 18.006 280.241 17.176 280.302C15.4417 280.486 14.863 277.822 16.307 277.062C17.0322 276.648 17.6955 276.16 18.4699 275.956C19.1762 275.747 19.8825 275.537 20.5825 275.396C23.2589 274.681 24.2631 278.689 21.6485 279.478Z" fill="#A8E1FF"/>
<path d="M216.44 19.8454C216.2 18.7241 215.836 17.454 214.697 17.1429C213.564 16.7636 212.504 17.8336 211.734 18.7244C207.864 23.4509 204.445 28.4938 201.613 33.8658L217.339 37.6519C217.749 31.7132 217.479 25.7117 216.44 19.8454Z" fill="#00C4F6"/>
<path d="M260.445 131.895C257.81 143.33 247.508 150.761 232.98 154.092C219.512 157.109 201.268 161.265 183.239 157.129C165.483 153.019 151.161 141.462 140.402 132.982C128.424 123.565 122.258 112.211 124.906 100.639C126.264 94.8564 129.615 89.8072 134.531 85.6581C139.144 81.8244 142.439 76.6327 143.735 70.7757C143.76 70.5032 143.808 70.2328 143.879 69.9646C150.5 41.3795 181.228 24.0172 212.507 31.2301C243.785 38.443 263.775 67.4905 257.216 96.15C257.15 96.3728 257.083 96.5957 257.017 96.8185C255.579 102.731 255.967 108.95 258.412 114.465C260.968 120.265 261.797 126.18 260.445 131.895Z" fill="#00C4F6"/>
<path d="M234.597 153.69C234.081 153.826 233.542 153.959 232.98 154.091C216.278 157.908 199.986 161.008 183.239 157.128C166.492 153.247 153.085 142.943 140.402 132.98C139.977 132.62 139.55 132.283 139.121 131.969C136.374 125.258 137.318 118.75 140.34 114.289C142.871 110.676 147.148 108.253 151.588 108.526C159.248 108.889 165.92 116.992 173.528 114.946C180.219 113.159 186.5 112.089 193.416 113.826C200.263 115.557 205.721 118.946 210.861 123.542C216.565 128.739 226.312 124.349 233.381 127.405C241.972 131.083 244.754 144.117 234.597 153.69Z" fill="#A8E1FF"/>
<path d="M165.492 79.9246C157.863 79.2209 151.167 84.786 150.469 92.3469C149.772 99.9078 155.337 106.604 162.966 107.307C170.527 108.005 177.223 102.44 177.92 94.8789C178.618 87.318 173.053 80.622 165.492 79.9246Z" fill="white"/>
<path fill-rule="evenodd" clip-rule="evenodd" d="M162.904 107.99C169.988 108.644 176.67 103.971 178.29 96.8382C179.118 93.0677 178.51 89.2333 176.477 85.9544C174.376 82.6693 171.22 80.3861 167.45 79.5574C163.686 78.6606 159.845 79.3368 156.566 81.37C153.287 83.4033 150.998 86.6269 150.107 90.323C149.278 94.0936 149.948 98.0023 151.982 101.281C154.015 104.56 157.177 106.775 160.941 107.672C161.614 107.826 162.268 107.932 162.904 107.99ZM165.361 80.6013C165.952 80.6557 166.54 80.7329 167.126 80.8328C170.556 81.63 173.458 83.6838 175.312 86.6713C177.166 89.6589 177.737 93.1464 176.946 96.5082C175.333 103.572 168.267 107.936 161.271 106.328C157.841 105.531 155.007 103.484 153.147 100.564C151.293 97.5768 150.653 94.083 151.451 90.653C152.242 87.2912 154.295 84.3893 157.283 82.5353C159.762 80.9779 162.569 80.3437 165.361 80.6013Z" fill="black"/>
<path d="M176.506 97.5636C175.248 103.012 169.849 106.43 164.401 105.171C158.952 103.913 155.541 98.4463 156.799 92.998C158.051 87.6178 163.45 84.2001 168.898 85.4583C171.789 86.1372 174.097 87.93 175.456 90.3224C171.436 91.4628 168.621 93.6763 169.083 95.3676C169.552 96.9908 172.871 97.503 176.662 96.6162C176.633 96.9341 176.581 97.2499 176.506 97.5636Z" fill="black"/>
<path d="M239.9 111.106C238.187 118.504 230.823 123.115 223.425 121.402C216.026 119.689 211.416 112.326 213.129 104.927C214.842 97.5284 222.211 92.8499 229.61 94.5628C237.009 96.2756 241.613 103.707 239.9 111.106Z" fill="white"/>
<path fill-rule="evenodd" clip-rule="evenodd" d="M225.187 122.388C228.32 122.677 231.48 121.938 234.176 120.263C237.461 118.162 239.744 115.007 240.573 111.236C242.386 103.503 237.54 95.7058 229.739 93.8871C225.969 93.0585 222.128 93.7346 218.849 95.7679C215.57 97.8011 213.287 100.957 212.459 104.727C211.562 108.491 212.232 112.4 214.265 115.679C216.304 118.89 219.528 121.179 223.292 122.076C223.92 122.226 224.551 122.33 225.187 122.388ZM239.23 110.906C238.432 114.336 236.379 117.238 233.459 119.098C230.472 120.952 226.984 121.524 223.554 120.726C220.192 119.935 217.29 117.882 215.436 114.894C213.576 111.975 213.005 108.487 213.802 105.057C214.531 101.621 216.647 98.7934 219.566 96.9331C222.554 95.0791 226.048 94.4396 229.477 95.2369C236.474 96.8439 240.837 103.91 239.23 110.906Z" fill="black"/>
<path d="M233.407 110.714C232.149 116.162 226.751 119.58 221.302 118.322C215.854 117.064 212.442 111.597 213.694 106.217C214.953 100.768 220.419 97.3568 225.868 98.615C228.691 99.2876 230.999 101.08 232.358 103.473C228.405 104.62 225.523 106.827 225.985 108.518C226.453 110.141 229.772 110.653 233.632 109.773C233.557 110.087 233.482 110.4 233.407 110.714Z" fill="black"/>
<path d="M178.432 63.2573C178.096 64.6689 175.415 63.9408 172.122 63.1561C168.76 62.3652 166.054 61.9095 166.39 60.4979C166.726 59.0863 169.986 57.2574 173.28 58.0421C176.642 58.8331 178.769 61.8457 178.432 63.2573Z" fill="#156894"/>
<path d="M234.586 79.3584C233.86 80.5279 231.533 78.9394 228.681 77.0963C225.76 75.2469 223.34 73.9245 224.141 72.6932C224.941 71.4618 228.571 70.8349 231.492 72.6843C234.344 74.5274 235.386 78.127 234.586 79.3584Z" fill="#156894"/>
<path d="M211.675 125.883C211.857 125.9 212.022 125.846 212.171 125.722C212.468 125.475 212.506 125.066 212.259 124.769C207.708 118.991 201.217 114.889 194.023 113.195C186.822 111.569 179.259 112.382 172.573 115.613C172.219 115.717 172.107 116.188 172.287 116.479C172.46 116.839 172.856 117.013 173.215 116.84C179.542 113.782 186.833 112.943 193.761 114.544C200.621 116.139 206.852 120.08 211.217 125.634C211.341 125.783 211.471 125.864 211.675 125.883Z" fill="#1876A8"/>
<path d="M229.726 44.1482C234.119 47.1639 237.902 50.8332 241.076 55.156C242.603 57.2204 243.906 59.4702 244.776 61.9548C245.591 64.2969 246.808 66.7448 246.303 69.24C246.047 70.5216 244.375 70.7795 243.558 69.9486C242.111 68.5098 241.488 66.3228 240.487 64.5131C239.301 62.4802 238.046 60.441 236.711 58.5318C234.122 54.5833 230.937 51.1295 227.138 48.3747C224.7 46.5012 227.077 42.3239 229.726 44.1482Z" fill="#A8E1FF"/>
<path d="M248.082 76.7577C248.512 79.5452 249.43 82.996 248.015 85.682C247.692 86.2018 246.781 86.3925 246.416 85.878C244.636 83.5842 244.72 80.432 244.216 77.7063C243.829 75.1976 247.695 74.249 248.082 76.7577Z" fill="#A8E1FF"/>
<path d="M193.361 117.393C197.076 118.079 203.713 119.859 204.915 123.955C205.236 124.946 204.367 126.171 203.345 126.077C201.37 125.894 199.848 124.518 198.215 123.611C196.321 122.544 194.408 121.68 192.341 121.009C190.001 120.312 190.996 116.969 193.361 117.393Z" fill="#E0F5FF"/>
<path d="M198.389 141.076C198.426 141.171 198.463 141.266 198.5 141.361C199.791 143.747 201.485 146.239 204.227 147.041C206.301 147.645 208.767 146.979 209.959 145.234C211.076 143.551 210.874 141.266 209.941 139.462C209.826 139.223 209.688 138.981 209.527 138.737C208.792 137.776 206.763 135.94 204.615 134.643C202.202 133.253 199.528 132.456 198.255 134.331C196.99 136.138 197.469 139.136 198.389 141.076Z" fill="#910F2A"/>
<path fill-rule="evenodd" clip-rule="evenodd" d="M205.182 147.885C207.294 148.08 209.432 147.247 210.542 145.632C211.74 143.819 211.755 141.416 210.52 139.172C210.363 138.883 210.205 138.616 210.044 138.373C209.321 137.276 207.292 135.44 204.946 134.056C201.555 132.094 199.016 132.066 197.676 133.934C196.255 135.933 196.709 139.204 197.747 141.36C197.829 141.459 197.889 141.556 197.926 141.651C199.217 144.038 201.022 146.814 204.03 147.71C204.435 147.793 204.819 147.852 205.182 147.885ZM200.834 133.951C201.992 134.058 203.373 134.735 204.288 135.231C206.306 136.448 208.273 138.209 208.941 139.164C209.06 139.358 209.2 139.577 209.361 139.821C210.232 141.55 210.254 143.544 209.379 144.837C208.423 146.261 206.298 146.958 204.429 146.373C201.884 145.657 200.259 143.172 199.153 141.009C199.112 140.959 199.073 140.887 199.036 140.792C198.109 138.92 197.741 136.207 198.771 134.722C199.243 134.079 200.017 133.876 200.834 133.951Z" fill="black"/>
<path d="M198.389 141.076C198.426 141.171 198.463 141.266 198.5 141.361C199.792 143.747 201.485 146.239 204.228 147.041C206.302 147.645 208.767 146.979 209.959 145.234C211.076 143.551 210.874 141.266 209.942 139.462C208.836 139.04 207.69 138.797 206.505 138.733C203.768 138.618 200.875 139.45 198.389 141.076Z" fill="#FF446C"/>
<path fill-rule="evenodd" clip-rule="evenodd" d="M205.182 147.885C207.294 148.08 209.432 147.247 210.542 145.632C211.74 143.819 211.755 141.416 210.52 139.172C210.363 138.883 210.205 138.616 210.044 138.373C209.321 137.276 207.292 135.44 204.946 134.056C201.555 132.094 199.016 132.066 197.676 133.934C196.255 135.933 196.709 139.204 197.747 141.36C197.829 141.459 197.889 141.556 197.926 141.651C199.217 144.038 201.022 146.814 204.03 147.71C204.435 147.793 204.819 147.852 205.182 147.885ZM200.834 133.951C201.992 134.058 203.373 134.735 204.288 135.231C206.306 136.448 208.273 138.209 208.941 139.164C209.06 139.358 209.2 139.577 209.361 139.821C210.232 141.55 210.254 143.544 209.379 144.837C208.423 146.261 206.298 146.958 204.429 146.373C201.884 145.657 200.259 143.172 199.153 141.009C199.112 140.959 199.073 140.887 199.036 140.792C198.109 138.92 197.741 136.207 198.771 134.722C199.243 134.079 200.017 133.876 200.834 133.951Z" fill="black"/>
<path d="M206.708 151.461C208.343 151.612 210.102 151.156 211.497 150.185C213.202 148.831 214.288 146.733 214.217 144.528C214.248 144.188 213.933 143.884 213.524 143.846C213.177 143.883 212.873 144.198 212.91 144.545C212.889 146.261 212.038 148.037 210.637 149.076C209.236 150.114 207.353 150.422 205.688 149.856C205.354 149.756 204.92 149.991 204.82 150.325C204.721 150.66 204.887 151.087 205.29 151.193C205.736 151.326 206.208 151.415 206.708 151.461Z" fill="#1876A8"/>
<path d="M83.8183 149.125C94.3766 154.564 117.403 164.107 144.144 160.185C147.44 163.924 144.659 187.367 144.507 194.979C144.442 197.171 144.095 206.138 142.443 205.436C134.276 203.858 96.9338 187.911 76.1095 161.947C78.6976 157.721 81.292 153.426 83.8183 149.125Z" fill="#00C4F6"/>
<path opacity="0.6" d="M75.2416 160.904C101.242 192.567 140.478 205.116 142.441 205.435C144.093 206.137 144.78 197.201 144.504 194.977C116.004 189.669 96.713 179.852 75.2416 160.904Z" fill="#009DC5"/>
<path d="M129.062 169.511C124.088 169.808 119.084 169.69 114.063 169.02C111.685 168.732 109.319 168.308 106.979 167.611C104.707 166.921 102.28 166.422 100.492 164.952C99.3481 163.954 99.8394 162.35 101.233 162.135C103.259 161.773 105.388 162.519 107.5 162.713C109.946 163.008 112.373 163.506 114.819 163.801C119.494 164.507 124.213 164.736 128.895 164.618C132.406 164.53 132.512 169.348 129.062 169.511Z" fill="#A8E1FF"/>
<path d="M61.5546 175.118L63.2493 176.854C65.6304 179.341 69.6063 179.433 72.0991 176.983L122.102 128.817L111.761 118.039L61.7521 166.274C59.2655 168.655 59.1736 172.631 61.5546 175.118Z" fill="#FF446C"/>
<path fill-rule="evenodd" clip-rule="evenodd" d="M67.0658 178.781C67.2474 178.798 67.4291 178.815 67.6107 178.832C69.4624 178.865 71.247 178.137 72.5306 176.881L122.54 129.27C122.837 129.023 122.875 128.614 122.56 128.31L112.287 117.539C112.157 117.459 111.959 117.372 111.755 117.353C111.573 117.336 111.43 117.392 111.327 117.52L61.3179 165.13C59.9662 166.38 59.1835 168.162 59.1501 170.014C59.1167 171.866 59.7833 173.576 61.1006 174.934L62.7272 176.664C63.9208 177.873 65.431 178.631 67.0658 178.781ZM121.141 128.798L71.5906 175.901C69.4016 178.035 65.8407 177.913 63.7069 175.724L62.0804 173.994C61.0104 172.933 60.4549 171.508 60.525 170.003C60.5207 168.56 61.1294 167.174 62.258 166.11L111.74 119L121.141 128.798Z" fill="#910F2A"/>
<path d="M185.565 61.9253C169.977 43.2448 142.253 40.6876 123.579 56.2079C104.83 71.7899 102.273 99.5133 117.862 118.194C133.376 136.936 161.099 139.493 179.848 123.911C198.522 108.391 201.079 80.6677 185.565 61.9253Z" fill="#00C4F6"/>
<path d="M163.021 62.7967C145.788 61.2072 130.536 73.883 128.946 91.1165C127.357 108.35 140.026 123.67 157.26 125.26C174.493 126.849 189.752 114.105 191.341 96.8716C192.931 79.6382 180.255 64.3863 163.021 62.7967Z" fill="white"/>
<path fill-rule="evenodd" clip-rule="evenodd" d="M159.858 125.361C165.76 125.425 171.609 123.834 176.784 120.602C183.856 116.171 188.826 109.21 190.676 101.069C192.595 92.9335 191.175 84.4903 186.744 77.4181C182.251 70.2715 175.352 65.376 167.217 63.4578C159.007 61.6014 150.632 63.0272 143.56 67.4583C136.419 71.8832 131.45 78.844 129.599 86.9856C127.749 95.1271 129.101 103.564 133.532 110.636C138.031 117.715 144.924 122.678 153.134 124.535C155.375 125.062 157.616 125.337 159.858 125.361ZM160.465 64.415C162.571 64.426 164.678 64.6662 166.787 65.1356C174.52 66.948 181.097 71.6077 185.287 78.3142C189.477 85.0207 190.805 92.9745 188.992 100.707C187.254 108.378 182.526 114.949 175.82 119.139C169.113 123.33 161.16 124.657 153.489 122.919C145.756 121.106 139.247 116.453 134.988 109.74C130.798 103.034 129.471 95.0798 131.284 87.347C133.022 79.6759 137.749 73.105 144.456 68.9149C149.34 65.8619 154.842 64.3085 160.465 64.415Z" fill="black"/>
<path d="M188.153 103.104C185.294 115.48 172.903 123.199 160.527 120.34C148.144 117.55 140.357 105.153 143.223 92.7085C146.082 80.3321 158.472 72.6132 170.848 75.4722C177.442 76.9734 182.688 81.1669 185.765 86.5342C176.664 89.1296 170.21 94.3047 171.233 98.1087C172.269 101.776 179.922 102.963 188.564 100.875C188.452 101.597 188.315 102.34 188.153 103.104Z" fill="black"/>
<path opacity="0.4" d="M112.063 70.8058L169.283 130.422C173.937 128.378 178.319 125.554 182.164 121.856C185.934 118.219 188.931 114.03 191.129 109.562L133.779 49.8644C129.268 51.8527 125.022 54.6897 121.183 58.32C117.339 62.0185 114.267 66.2691 112.063 70.8058Z" fill="white"/>
<path opacity="0.4" d="M107.955 95.227L144.742 133.586C151.107 134.586 157.672 134.161 163.955 132.336L109.925 76.1051C107.849 82.2336 107.177 88.7665 107.955 95.227Z" fill="white"/>
<path fill-rule="evenodd" clip-rule="evenodd" d="M111.469 128.664C132.781 150.826 168.019 151.604 190.25 130.297C212.412 108.985 213.189 73.747 191.883 51.5165C170.571 29.354 135.333 28.5768 113.102 49.8829C90.9397 71.1954 90.1625 106.433 111.469 128.664ZM112.43 108.556C110.479 104.392 109.178 99.8751 108.652 95.1553C107.861 88.831 108.6 82.3044 110.596 76.3058C111.175 74.5044 111.883 72.7836 112.727 71.0754C114.932 66.5387 117.922 62.418 121.686 58.8496C125.308 55.3366 129.486 52.4933 134.071 50.4432C140.944 47.4362 148.402 46.2693 155.622 46.9353C165.771 47.8714 175.588 52.4178 182.917 60.1008C195.515 73.2159 198.567 93.0071 190.537 109.303C188.339 113.772 185.349 117.892 181.665 121.331C177.969 124.906 173.723 127.743 169.002 129.78C167.353 130.521 165.575 131.182 163.741 131.699C157.669 133.475 151.104 133.9 144.807 132.907C135.463 131.427 127.016 126.938 120.435 120.08C117.108 116.681 114.444 112.795 112.43 108.556Z" fill="#FF446C"/>
<path fill-rule="evenodd" clip-rule="evenodd" d="M95.5224 84.8061C95.3968 86.1684 95.3165 87.5349 95.2817 88.9056C94.9893 103.992 100.544 118.243 111.015 129.101C120.478 138.973 132.905 144.997 146.393 146.241C147.755 146.367 149.121 146.447 150.492 146.482C165.578 146.774 179.83 141.219 190.688 130.748C201.54 120.346 207.714 106.283 208.068 91.2714C208.361 76.1853 202.806 61.9337 192.335 51.0757C170.843 28.6219 135.054 27.8625 112.662 49.4286C102.79 58.8911 96.7664 71.319 95.5224 84.8061ZM113.602 50.4083C125.583 38.942 141.431 33.9464 156.757 35.3601C169.495 36.535 181.831 42.0694 191.355 52.0157C201.579 62.5762 206.954 76.5364 206.7 91.2139C206.377 105.885 200.37 119.62 189.748 129.769C179.119 139.986 165.227 145.368 150.55 145.113C135.81 144.784 122.144 138.784 111.995 128.161C101.771 117.601 96.3956 103.641 96.6503 88.9632C96.9731 74.292 102.98 60.5573 113.602 50.4083Z" fill="#910F2A"/>
<path fill-rule="evenodd" clip-rule="evenodd" d="M107.957 95.2258C109.035 104.393 113.017 113.347 119.907 120.578C126.803 127.74 135.604 132.124 144.743 133.585C151.108 134.584 157.674 134.16 163.95 132.403C165.742 131.835 167.521 131.175 169.285 130.422C173.932 128.446 178.252 125.547 182.165 121.855C185.935 118.218 188.932 114.03 191.131 109.561C199.141 93.4694 196.597 73.3817 183.443 59.5969C170.213 45.874 150.257 42.522 133.78 49.864C129.269 51.8522 124.955 54.683 121.184 58.3196C117.34 62.018 114.269 66.2687 112.064 70.8054C111.265 72.5178 110.552 74.2839 109.927 76.1039C107.85 82.2324 107.179 88.7653 107.957 95.2258ZM110.595 76.303C111.174 74.5015 111.882 72.7807 112.726 71.0725C114.931 66.5359 117.921 62.4152 121.685 58.8467C125.307 55.3337 129.485 52.4904 134.07 50.4403C140.943 47.4333 148.401 46.2664 155.621 46.9324C165.77 47.8686 175.587 52.4149 182.915 60.0979C195.514 73.213 198.566 93.0042 190.536 109.3C188.338 113.769 185.348 117.889 181.664 121.328C177.968 124.903 173.722 127.74 169.001 129.777C167.352 130.518 165.574 131.179 163.74 131.696C157.668 133.472 151.103 133.897 144.806 132.904C135.462 131.424 127.015 126.935 120.434 120.077C117.107 116.679 114.443 112.792 112.429 108.553C110.478 104.389 109.177 99.8722 108.65 95.1524C107.86 88.8281 108.599 82.3015 110.595 76.303Z" fill="#FF9138"/>
<path fill-rule="evenodd" clip-rule="evenodd" d="M107.262 95.2983C108.426 105.023 112.619 113.928 119.385 121.01C122.837 124.557 126.685 127.522 130.949 129.702C135.139 131.943 139.806 133.473 144.611 134.259C145.561 134.393 146.535 134.505 147.534 134.597C153.051 135.106 158.731 134.6 164.097 133.034C165.999 132.522 167.851 131.8 169.568 131.065C174.364 128.966 178.759 126.005 182.597 122.375C186.367 118.738 189.432 114.556 191.786 109.896C200.07 93.0734 196.938 72.6567 183.894 59.157C170.925 45.5955 150.685 41.599 133.563 49.225C128.767 51.3243 124.515 54.2295 120.751 57.798C116.906 61.4964 113.767 65.7408 111.475 70.4755C110.624 72.2518 109.91 74.0407 109.263 75.8359C107.181 82.0325 106.49 88.7697 107.262 95.2983ZM108.65 95.1515C107.859 88.8273 108.598 82.3007 110.594 76.3021C111.173 74.5007 111.881 72.7799 112.726 71.0717C114.93 66.535 117.921 62.4143 121.685 58.8458C125.306 55.3329 129.484 52.4896 134.07 50.4395C140.942 47.4325 148.4 46.2656 155.62 46.9316C165.77 47.8677 175.586 52.4141 182.915 60.097C195.513 73.2122 198.565 93.0033 190.536 109.299C188.337 113.768 185.347 117.889 181.663 121.327C177.968 124.902 173.722 127.739 169 129.777C167.351 130.518 165.573 131.178 163.739 131.696C157.668 133.471 151.102 133.896 144.805 132.903C135.462 131.423 127.014 126.934 120.433 120.076C117.106 116.678 114.442 112.791 112.428 108.552C110.477 104.388 109.176 99.8714 108.65 95.1515Z" fill="#910F2A"/>
<path d="M90.587 164.38C91.0334 164.009 91.3952 163.561 91.6726 163.037C94.8579 156.805 87.3473 141.411 82.8255 142.025C78.5143 142.589 72.8589 148.044 70.0099 152.864C69.0355 154.492 68.4141 156.015 68.2266 157.303C67.483 162.386 86.1042 168.294 90.587 164.38Z" fill="#00C4F6"/>
<path opacity="0.6" d="M90.5867 164.381C91.0331 164.01 91.3949 163.562 91.6723 163.038C87.4113 163.058 83.1703 162.117 79.3515 160.322C77.5751 159.471 75.9539 158.429 74.4196 157.188C73.0503 156.146 71.7843 154.976 70.6217 153.678C70.4156 153.43 70.2115 153.159 70.0096 152.866C69.0351 154.493 68.4138 156.016 68.2263 157.304C67.4826 162.387 86.1039 168.295 90.5867 164.381Z" fill="#009DC5"/>
<path d="M97.2009 225.441C96.4251 216.132 96.8482 205.835 103.055 198.853C108.062 193.211 115.961 190.954 123.507 190.742C131.054 190.46 138.53 192.012 146.005 192.576C166.74 194.269 187.334 189.191 207.787 185.382C228.239 181.574 249.75 179.035 269.498 185.523C278.525 188.485 287.693 194.269 289.95 203.508C293.195 216.767 280.782 229.179 280.711 242.791C280.641 259.012 297.708 272.553 294.605 288.492C292.912 297.097 285.296 303.656 276.903 306.124C268.44 308.592 259.412 307.605 250.878 305.489C242.345 303.444 234.093 300.341 225.489 298.648C193.681 292.512 161.31 306.053 128.938 304.784C115.961 304.361 101.503 300.341 95.1556 289.056C89.5134 279.183 91.6998 266.77 95.0145 256.473C98.3998 245.824 98.1177 236.655 97.2009 225.441Z" fill="white"/>
<path d="M125.454 219.065C124.683 219.103 124.021 218.503 123.983 217.732C123.946 216.984 124.546 216.322 125.317 216.285C126.065 216.248 126.727 216.848 126.764 217.595C126.802 218.367 126.202 219.028 125.454 219.065ZM129.637 218.86C128.889 218.896 128.204 218.298 128.166 217.527C128.129 216.779 128.752 216.116 129.5 216.079C130.271 216.041 130.933 216.641 130.97 217.389C131.008 218.16 130.408 218.822 129.637 218.86ZM134.626 230.303L135.28 230.271L135.391 232.537L134.737 232.569C133.335 232.638 132.111 232.043 131.335 231.027C130.543 232.073 129.358 232.74 127.676 232.823C125.035 232.952 122.777 230.838 122.643 228.128L122.549 226.211C122.412 223.407 124.41 221.178 127.237 221.039L132.401 220.785L132.787 228.636C132.838 229.664 133.598 230.353 134.626 230.303ZM130.555 228.98L130.268 223.139L127.348 223.282C125.782 223.359 124.738 224.511 124.816 226.1L124.91 228.016C124.982 229.488 126.187 230.647 127.566 230.579C128.804 230.519 129.923 229.925 130.555 228.98ZM141.819 229.949L142.614 229.91L142.725 232.177L141.627 232.231C140.552 232.284 139.591 231.792 138.899 231.053C138.306 231.855 137.374 232.44 135.995 232.508L135.224 232.545L135.223 232.522L134.248 232.219L134.173 230.7L135.115 230.326L135.113 230.279L135.907 230.24C137.239 230.174 137.687 229.286 137.635 228.211L137.042 216.154L139.309 216.042L139.861 227.282C139.87 227.469 139.879 227.655 139.866 227.867L139.878 228.101C139.931 229.175 140.487 230.015 141.819 229.949ZM156.574 229.224L159.308 229.09L159.419 231.357L142.385 232.194L141.385 231.868L141.311 230.349L142.274 229.927L154.308 229.336L154.203 227.209C154.122 225.55 152.896 224.439 151.213 224.522L143.806 224.886L143.528 224.478L147.591 215.635L149.858 215.524L146.686 222.473L151.102 222.256C154.023 222.112 156.327 224.201 156.47 227.098L156.574 229.224ZM168.4 215.316C167.652 215.352 166.967 214.754 166.929 213.983C166.892 213.235 167.514 212.548 168.262 212.512C169.033 212.474 169.696 213.097 169.733 213.845C169.771 214.616 169.171 215.278 168.4 215.316ZM166.499 218.595C165.728 218.632 165.066 218.033 165.028 217.261C164.992 216.514 165.591 215.828 166.362 215.791C167.109 215.754 167.772 216.377 167.809 217.125C167.847 217.896 167.247 218.558 166.499 218.595ZM169.118 217.061C169.081 216.313 169.68 215.628 170.451 215.59C171.199 215.553 171.862 216.176 171.898 216.924C171.936 217.695 171.336 218.357 170.589 218.394C169.817 218.432 169.156 217.832 169.118 217.061ZM178.306 228.157L179.895 228.079L180.006 230.345L178.417 230.423C177.46 230.494 176.573 230.069 176.068 229.321C175.545 230.119 174.842 230.599 173.557 230.662L171.711 230.753C170.636 230.806 169.812 230.237 169.409 229.671C168.979 230.442 168.136 230.928 166.898 230.989L165.192 231.073C164.093 231.127 163.224 230.584 162.84 229.924C162.409 230.695 161.663 231.246 159.887 231.334L159.163 231.369L158.163 231.044L158.089 229.525L159.052 229.103L159.566 229.077C160.828 229.015 161.286 228.337 161.243 227.449L160.97 221.911L163.19 221.802L163.486 227.339C163.537 228.39 164.239 228.848 165.034 228.809L166.412 228.741C167.324 228.696 167.899 228.012 167.855 227.124L167.583 221.586L169.78 221.478L170.028 227.018C170.072 227.905 170.735 228.529 171.693 228.482L173.119 228.412C174.03 228.367 174.488 227.688 174.445 226.801L174.068 219.136L176.265 219.028L176.641 226.693C176.685 227.581 177.325 228.205 178.306 228.157ZM187.289 218.089C190.093 217.951 192.324 219.973 192.462 222.777L192.556 224.693C192.689 227.403 190.625 229.73 187.984 229.86C186.465 229.934 185.014 229.467 183.937 228.536C183.355 229.548 182.287 230.233 180.956 230.299L179.927 230.349L178.928 230.023L178.853 228.505L179.816 228.083L180.844 228.032C181.872 227.982 182.538 227.223 182.487 226.195L182.344 223.274C182.206 220.47 184.228 218.239 187.032 218.101L187.289 218.089ZM190.289 224.804L190.195 222.888C190.117 221.299 188.965 220.255 187.399 220.332L187.142 220.344C185.577 220.421 184.532 221.573 184.61 223.162L184.765 226.317C185.488 227.195 186.636 227.677 187.874 227.616C189.253 227.549 190.361 226.276 190.289 224.804ZM205.865 217.925C205.094 217.963 204.432 217.363 204.394 216.592C204.357 215.845 204.956 215.159 205.727 215.121C206.475 215.085 207.138 215.708 207.175 216.456C207.213 217.227 206.613 217.889 205.865 217.925ZM210.048 217.72C209.3 217.757 208.615 217.158 208.577 216.387C208.54 215.639 209.162 214.953 209.91 214.916C210.681 214.878 211.344 215.501 211.381 216.249C211.419 217.02 210.819 217.682 210.048 217.72ZM219.152 226.15L220.157 226.101L220.268 228.367L218.983 228.43C217.908 228.483 216.947 227.992 216.231 227.254C215.638 228.056 214.73 228.639 213.328 228.708L204.846 229.125C202.065 229.262 199.86 227.285 199.722 224.481L199.539 220.742L201.805 220.631L201.989 224.37C202.065 225.912 203.192 226.934 204.735 226.858L213.217 226.442C214.572 226.375 215.02 225.486 214.967 224.411L214.631 217.565L216.898 217.454L217.194 223.482C217.203 223.669 217.212 223.856 217.199 224.068L217.211 224.301C217.263 225.376 217.82 226.215 219.152 226.15ZM224.208 212.082C223.46 212.119 222.775 211.52 222.737 210.749C222.7 210.001 223.324 209.338 224.071 209.301C224.842 209.263 225.504 209.863 225.541 210.611C225.579 211.382 224.979 212.044 224.208 212.082ZM222.308 215.361C221.537 215.399 220.875 214.799 220.837 214.028C220.8 213.28 221.4 212.618 222.171 212.58C222.919 212.543 223.581 213.143 223.618 213.891C223.655 214.662 223.055 215.324 222.308 215.361ZM226.397 215.16C225.626 215.198 224.964 214.598 224.926 213.827C224.889 213.079 225.489 212.417 226.26 212.379C227.008 212.343 227.67 212.942 227.707 213.69C227.745 214.461 227.145 215.123 226.397 215.16ZM219.903 228.385L219.791 226.119L222.665 225.977C223.179 225.952 223.7 225.575 223.663 224.827L223.284 217.116L225.527 217.006L225.944 225.488C226.016 226.96 224.95 228.137 223.478 228.21L219.903 228.385ZM239.508 225.15L242.055 225.025L242.166 227.291L230.179 227.88L230.068 225.614L237.241 225.261L237.022 220.798C236.939 219.116 235.714 218.005 234.055 218.086L230.853 218.244L230.743 216L233.944 215.843C236.842 215.701 239.145 217.766 239.289 220.687L239.508 225.15ZM252.952 220.976C254.542 224.271 255.012 224.294 255.648 224.357L255.759 226.624L241.973 227.301L240.973 226.975L240.898 225.456L241.861 225.034L252.306 224.521C251.867 224.168 251.261 222.792 250.512 221.377C248.482 217.729 246.107 216.581 242.692 218.107L242.591 216.051C246.534 214.311 250.384 215.902 252.952 220.976ZM136.672 252.555C135.901 252.593 135.239 251.993 135.201 251.222C135.165 250.474 135.764 249.812 136.536 249.774C137.283 249.738 137.945 250.338 137.982 251.085C138.02 251.856 137.42 252.518 136.672 252.555ZM140.855 252.35C140.107 252.386 139.422 251.788 139.384 251.016C139.347 250.269 139.97 249.606 140.718 249.569C141.489 249.531 142.151 250.131 142.188 250.879C142.226 251.65 141.626 252.312 140.855 252.35ZM145.844 263.793L146.498 263.76L146.61 266.027L145.955 266.059C144.553 266.128 143.33 265.532 142.553 264.516C141.762 265.563 140.576 266.23 138.894 266.312C136.254 266.442 133.995 264.328 133.862 261.617L133.767 259.701C133.63 256.897 135.628 254.668 138.456 254.529L143.62 254.275L144.005 262.126C144.056 263.154 144.816 263.843 145.844 263.793ZM141.774 262.47L141.487 256.628L138.566 256.772C137 256.849 135.956 258.001 136.034 259.59L136.128 261.506C136.201 262.978 137.405 264.137 138.784 264.069C140.022 264.008 141.141 263.415 141.774 262.47ZM148.097 249.651L150.364 249.54L151.035 263.21C151.107 264.682 150.018 265.86 148.569 265.931L146.466 266.034L145.466 265.708L145.391 264.19L146.356 263.791L146.354 263.768L147.756 263.699C148.271 263.673 148.767 263.298 148.731 262.55L148.097 249.651ZM158.514 253.543C161.318 253.405 163.526 255.429 163.665 258.256L164.056 266.224C164.217 269.495 161.452 271.388 155.954 270.557L155.85 268.454C160.441 268.931 161.891 267.923 161.788 265.82L161.76 265.259L158.676 265.411C156.034 265.517 153.799 263.402 153.665 260.691L153.57 258.752C153.431 255.924 155.43 253.695 158.257 253.556L158.514 253.543ZM161.421 258.366C161.343 256.777 160.191 255.733 158.626 255.81L158.368 255.822C156.803 255.899 155.759 257.052 155.837 258.64L155.932 260.58C156.004 262.052 157.232 263.21 158.588 263.143L161.649 262.993L161.421 258.366ZM166.128 248.766L168.394 248.654L169.028 261.553C169.065 262.3 169.596 262.626 170.133 262.599L171.512 262.532L171.623 264.798L169.544 264.9C168.072 264.973 166.872 263.907 166.799 262.435L166.128 248.766ZM185.129 261.863L186.765 261.782L186.876 264.049L171.477 264.805L170.454 264.481L170.379 262.962L171.366 262.539L181.811 262.026C181.372 261.672 180.742 260.298 179.993 258.882C177.987 255.233 175.612 254.085 172.173 255.613L172.072 253.556C176.039 251.816 179.888 253.407 182.456 258.48C184.047 261.775 184.517 261.799 185.129 261.863ZM201.187 261.074L201.958 261.036L202.069 263.302L201.298 263.34C199.896 263.409 198.693 262.765 198.08 261.718C197.334 262.762 196.129 263.5 194.727 263.569C193.208 263.644 191.757 263.177 190.68 262.246C190.098 263.258 189.007 263.944 187.675 264.01L186.764 264.054L185.787 263.727L185.713 262.209L186.652 261.788L187.564 261.743C188.615 261.691 189.281 260.932 189.23 259.904L189.087 256.983C188.949 254.179 190.971 251.949 193.775 251.811L194.032 251.798C196.836 251.66 199.067 253.682 199.204 256.486L199.348 259.407C199.398 260.435 200.135 261.125 201.187 261.074ZM194.617 261.326C195.996 261.258 197.104 259.986 197.032 258.514L196.938 256.598C196.86 255.009 195.708 253.965 194.142 254.041L193.885 254.054C192.319 254.131 191.275 255.283 191.353 256.872L191.508 260.027C192.231 260.905 193.379 261.387 194.617 261.326ZM203.433 246.933L205.7 246.821L206.371 260.491C206.444 261.963 205.354 263.141 203.905 263.212L201.802 263.315L200.802 262.99L200.728 261.471L201.692 261.072L201.691 261.049L203.093 260.98C203.607 260.955 204.104 260.579 204.067 259.831L203.433 246.933ZM212.027 262.813L209.76 262.924L208.961 246.661L211.228 246.55L212.027 262.813ZM229.094 259.703L231.641 259.577L231.752 261.844L219.765 262.433L219.653 260.166L226.827 259.814L226.608 255.351C226.525 253.668 225.299 252.558 223.64 252.639L220.439 252.796L220.329 250.553L223.53 250.396C226.428 250.253 228.731 252.319 228.874 255.24L229.094 259.703ZM239.064 259.213L242.71 259.034L242.821 261.3L231.535 261.855L230.558 261.528L230.484 260.009L231.425 259.611L231.424 259.588L234.111 259.456C233.18 258.635 232.628 257.397 232.548 255.785C232.261 249.943 237.153 248.438 241.247 249.76L241.348 251.816C237.967 250.694 234.834 251.761 235.028 255.71C235.171 258.631 236.915 259.318 239.064 259.213ZM245.144 241.839L247.457 241.725L247.521 243.01L242.824 243.241L242.761 241.956L243.625 241.913C243.258 241.58 242.975 241.078 242.943 240.424C242.88 239.139 243.611 238.283 244.919 238.219C246.181 238.157 247.059 238.863 247.275 240.399L246.107 240.456C245.957 239.784 245.567 239.475 245.006 239.503C244.445 239.531 244.155 239.826 244.187 240.48C244.21 240.947 244.449 241.521 245.144 241.839ZM244.947 261.196L244.148 244.932L246.415 244.821L247.214 261.084L244.947 261.196Z" fill="#012246"/>
<path opacity="0.4" d="M294.608 288.492C292.915 297.097 285.298 303.656 276.905 306.124C268.442 308.592 259.415 307.605 250.881 305.489C242.347 303.444 234.096 300.341 225.491 298.648C193.684 292.512 161.312 306.053 128.94 304.784C115.964 304.29 101.506 300.341 95.1582 289.057C92.2666 284.049 91.4908 278.337 91.7729 272.694C91.9845 276.714 92.9718 280.664 94.9466 284.261C101.082 295.051 114.906 298.86 127.318 299.353C158.209 300.482 189.17 287.576 219.497 293.429C227.748 295.051 235.647 298.013 243.828 299.988C251.939 301.963 260.614 302.95 268.654 300.623C276.694 298.225 284.029 291.948 285.58 283.697C288.542 268.533 274.649 256.473 274.79 240.957C274.86 228.827 290.235 214.863 289.741 202.732C289.835 202.967 289.906 203.226 289.953 203.508C293.197 216.767 280.784 229.179 280.714 242.862C280.643 259.012 297.711 272.553 294.608 288.492Z" fill="#05BEED"/>
<path fill-rule="evenodd" clip-rule="evenodd" d="M266.255 308.31C261.601 308.31 256.523 307.605 250.739 306.194C247.143 305.348 243.546 304.22 240.09 303.232C235.294 301.822 230.287 300.341 225.35 299.353C207.295 295.827 188.676 298.789 170.692 301.681C157.01 303.797 142.904 306.053 128.94 305.489C119.278 305.137 101.999 302.598 94.5229 289.339C89.8681 281.228 89.8681 270.437 94.3113 256.262C97.7671 245.4 97.3439 235.95 96.4976 225.512C95.7924 217.542 95.7218 206.047 102.492 198.43C107.077 193.281 114.482 190.319 123.439 190.037C128.517 189.896 133.595 190.46 138.461 191.095C141 191.377 143.539 191.659 146.078 191.871C163.568 193.352 181.271 189.825 198.338 186.511C201.441 185.899 204.544 185.288 207.648 184.677C228.03 180.868 249.682 178.259 269.711 184.818C276.341 187.004 287.907 192.364 290.658 203.296C292.491 210.913 289.388 218.248 286.355 225.441C283.958 231.083 281.489 236.867 281.419 242.861C281.419 250.196 285.015 257.108 288.612 263.878C292.703 271.707 297.005 279.817 295.312 288.563C293.69 296.885 286.567 304.008 277.116 306.829C273.731 307.817 270.134 308.31 266.255 308.31ZM207.577 296.321C213.642 296.321 219.637 296.814 225.561 297.943C230.639 298.93 235.647 300.411 240.443 301.892C243.898 302.88 247.495 303.938 251.022 304.784C261.46 307.323 269.57 307.534 276.693 305.489C285.65 302.809 292.421 296.109 293.902 288.351C295.524 280.1 291.574 272.483 287.343 264.513C283.746 257.602 280.008 250.478 280.008 242.791C280.079 236.585 282.618 230.66 285.015 224.877C288.119 217.613 291.01 210.772 289.247 203.649C286.638 192.929 274.366 187.851 269.288 186.158C249.541 179.67 228.1 182.279 207.93 186.087C204.827 186.652 201.723 187.239 198.62 187.851C181.412 191.236 163.639 194.762 146.007 193.281C143.398 193.07 140.859 192.788 138.32 192.505C133.454 191.871 128.446 191.306 123.509 191.448C118.572 191.589 109.333 192.858 103.55 199.346C97.1324 206.54 97.2029 217.683 97.8376 225.371C98.7544 235.95 99.1776 245.612 95.6513 256.685C91.2786 270.437 91.3491 280.875 95.7218 288.704C102.845 301.258 119.63 303.726 129.01 304.079C142.834 304.643 156.868 302.386 170.48 300.27C182.681 298.295 195.164 296.321 207.577 296.321Z" fill="#99E7FA"/>
</svg>
