<svg width="248" height="231" viewBox="0 0 248 231" fill="none" xmlns="http://www.w3.org/2000/svg">
<path d="M81.7243 135.249C83.5997 123.674 94.5848 115.797 106.213 117.673C117.841 119.602 125.718 130.587 123.789 142.161C121.86 153.789 110.928 161.666 99.3003 159.737C87.6723 157.862 79.7952 146.877 81.7243 135.249Z" fill="#B8E6FF"/>
<path d="M43.4102 146.556C48.4472 146.556 52.5733 150.682 52.5733 155.719C52.5733 160.756 48.4472 164.828 43.4102 164.828C38.3731 164.828 34.2471 160.756 34.2471 155.719C34.2471 150.682 38.3731 146.556 43.4102 146.556Z" fill="#B8E6FF"/>
<path d="M59.5392 211.716C60.1286 209.251 62.54 207.751 65.0049 208.34C67.4698 208.93 68.9702 211.341 68.3808 213.806C67.8449 216.271 65.38 217.771 62.9151 217.182C60.4501 216.646 58.9497 214.181 59.5392 211.716Z" fill="#B8E6FF"/>
<path d="M63.5583 157.649C72.507 148.7 87.0287 148.7 96.0311 157.649C104.98 166.597 104.98 181.119 96.0311 190.068C87.0287 199.07 72.507 199.07 63.5583 190.068C54.6095 181.119 54.6095 166.597 63.5583 157.649Z" fill="#B8E6FF"/>
<path d="M132.951 183.584C135.899 171.313 148.277 163.704 160.601 166.704C172.926 169.652 180.482 182.03 177.534 194.354C174.534 206.679 162.155 214.235 149.831 211.288C137.56 208.287 129.951 195.908 132.951 183.584Z" fill="#B8E6FF"/>
<path d="M116.983 161.881C135.952 161.881 151.331 177.26 151.331 196.229C151.331 215.198 135.952 230.577 116.983 230.577C98.0675 230.577 82.6885 215.198 82.6885 196.229C82.6885 177.26 98.0675 161.881 116.983 161.881Z" fill="#B8E6FF"/>
<path d="M85.6894 102.724C57.8785 99.6158 54.5026 82.3077 50.1622 85.7372C47.9652 87.4519 47.4293 90.292 48.0724 93.8286C50.323 106.207 67.2024 126.891 79.5271 136.429C81.5097 137.983 88.1007 142.859 89.7619 143.717C93.7808 147.039 96.3529 106.1 85.6894 102.724Z" fill="#00C4F6"/>
<path d="M83.2772 124.909C67.523 118.8 52.5191 106.636 47.9107 89.8636C47.75 91.0425 47.8036 92.3822 48.0715 93.829C50.3221 106.207 67.2015 126.891 79.5262 136.429C81.5089 137.983 88.0999 142.86 89.761 143.717C91.7437 145.325 93.3512 136.429 93.2441 126.516C89.8682 126.73 86.4923 126.248 83.2772 124.909Z" fill="#07BFEE"/>
<path d="M80.8133 104.6C77.8661 103.742 75.026 102.724 72.1324 101.652C69.4531 100.688 66.5595 99.6698 63.773 99.4019C63.13 99.2947 62.8085 100.206 63.2372 100.581C67.6312 104.653 74.3294 106.154 80.0095 107.493C81.8314 107.922 82.6888 105.136 80.8133 104.6Z" fill="#A8E1FF"/>
<path d="M59.4316 95.5441C58.7885 95.0618 58.1991 94.5796 57.5561 94.0973C57.0202 93.7222 56.1093 93.1863 55.4127 93.4543C55.0554 93.5971 54.859 93.8472 54.8232 94.2045C54.7696 94.9547 55.4662 95.7048 55.9485 96.1335C56.5915 96.6158 57.181 97.0981 57.824 97.5803C58.4134 98.0626 59.2172 98.1162 59.7531 97.4732C60.2889 96.7766 60.021 96.0264 59.4316 95.5441Z" fill="#A8E1FF"/>
<path d="M165.907 230.365C95.281 229.507 88.3685 144.735 85.9571 102.295C85.6892 97.687 85.4748 93.5073 85.2605 90.0243C85.2248 89.7028 85.189 89.3634 85.1533 89.0062C85.1533 89.0062 85.2962 88.9704 85.582 88.899C86.5465 88.5239 89.1722 87.6665 92.8696 86.702C108.195 82.7367 142.49 77.0566 157.976 99.9376C157.869 101.545 157.762 103.135 157.655 104.707C157.369 108.958 157.119 113.066 156.904 117.031C152.403 194.73 157.279 219.273 202.345 204.429C222.814 197.678 194.307 230.74 165.907 230.365Z" fill="#00C4F6"/>
<path d="M94.2625 95.0075C93.0301 128.338 100.854 185.46 127.539 205.929C154.225 226.346 162.584 219.004 150.581 195.212C138.149 170.509 144.526 126.033 149.08 104.278C153.582 82.522 94.2625 95.0075 94.2625 95.0075Z" fill="#A8E1FF"/>
<path opacity="0.2" d="M157.654 104.707C157.368 108.958 157.118 113.066 156.904 117.031C146.776 125.498 133.004 129.57 119.93 127.481C105.462 125.176 92.4402 115.424 85.9564 102.295C85.6884 97.687 85.4741 93.5074 85.2598 90.0243C85.3669 89.6671 85.4741 89.292 85.5813 88.899C86.5458 88.5239 89.1715 87.6666 92.8689 86.702C93.5655 88.5775 94.3157 90.1315 95.3338 90.1315C116.179 90.0243 136.755 95.49 155.832 103.796C156.439 104.082 157.046 104.385 157.654 104.707Z" fill="#1C7FB3"/>
<path d="M136.542 170.134C136.864 173.296 137.292 176.511 138.15 179.619C138.846 182.352 139.864 185.889 141.954 187.871C142.544 188.514 143.508 188.032 143.562 187.228C143.723 184.442 142.544 181.28 141.847 178.601C141.097 175.654 140.347 172.653 139.811 169.652C139.489 167.83 136.381 168.259 136.542 170.134Z" fill="#E0F5FF"/>
<path d="M143.079 194.839C143.454 195.91 143.829 196.928 144.365 197.946C144.794 198.911 145.169 199.768 146.026 200.411C146.455 200.733 147.098 200.358 147.259 199.876C147.527 198.911 147.259 198 147.098 197.036C146.884 195.964 146.616 194.999 146.241 193.981C145.597 191.998 142.436 192.856 143.079 194.839Z" fill="#E0F5FF"/>
<path d="M204.327 204.054C201.487 200.571 199.612 193.498 200.951 186.317C202.773 176.618 210.329 168.045 215.205 165.205C220.242 172.064 222.01 181.334 220.189 191.033C218.367 200.732 214.026 208.448 209.471 207.591L204.327 204.054Z" fill="#00C4F6"/>
<path d="M213.437 195.748C215.206 194.837 217.242 194.034 219.439 193.498C220.725 193.176 222.047 192.962 223.404 192.855C233.21 191.944 243.552 196.874 247.571 200.785C242.374 207.537 233.907 211.717 224.101 212.628C216.385 213.324 209.686 210.377 207.114 207.001L213.437 195.748Z" fill="#00C4F6"/>
<path d="M220.081 198.374C221.903 198.267 223.725 198.32 225.601 198.374C227.262 198.374 228.923 198.642 230.584 198.213C231.013 198.052 231.281 197.409 230.852 197.034C227.958 194.516 223.189 196.016 219.813 196.659C218.902 196.874 219.117 198.374 220.081 198.374Z" fill="#A8E1FF"/>
<path d="M235.246 200.731C236.104 201.053 236.961 201.535 237.872 201.321C237.622 201.321 237.372 201.321 237.122 201.321C237.408 201.356 237.693 201.392 237.979 201.428C238.569 201.481 239.212 201.321 239.426 200.677C239.694 200.142 239.48 199.445 238.944 199.124C238.461 198.856 238.033 198.481 237.497 198.32C237.033 198.141 236.55 197.98 236.05 197.837C235.3 197.57 234.443 198.159 234.228 198.909C233.96 199.713 234.496 200.463 235.246 200.731Z" fill="#A8E1FF"/>
<path d="M195.165 130.105C187.609 138.518 174.052 145.912 160.066 148.806C158.995 149.02 157.959 149.199 156.958 149.342C156.708 149.413 156.458 149.467 156.208 149.503C155.958 149.538 155.726 149.556 155.512 149.556C155.261 149.592 155.011 149.628 154.761 149.663C154.547 149.699 154.333 149.717 154.118 149.717C153.69 149.753 153.261 149.788 152.832 149.824C152.618 149.86 152.404 149.878 152.189 149.878C151.26 149.913 150.385 149.913 149.564 149.878C148.492 150.038 148.17 148.538 148.813 146.18C148.974 145.698 149.296 144.573 149.724 143.18C151.064 138.625 148.385 131.444 149.778 128.926C153.582 122.335 152.564 118.798 156.744 119.816C180.268 130.855 196.29 117.512 197.79 122.496C198.594 124.96 197.523 127.533 195.165 130.105Z" fill="#00C4F6"/>
<path d="M194.575 131.661C184.555 140.931 169.176 147.79 155.512 149.558C153.582 149.826 151.493 149.987 149.564 149.88C148.492 150.04 148.17 148.54 148.813 146.182C148.974 145.7 149.296 144.575 149.724 143.181C166.872 144.414 179.839 140.609 194.575 131.661Z" fill="#07BFEE"/>
<path d="M162.37 128.446C165.21 129.464 168.157 130.214 171.104 130.589C172.551 130.803 173.944 130.91 175.391 130.857C176.784 130.75 178.285 130.857 179.517 130.16C180.214 129.678 180.16 128.553 179.41 128.178C178.231 127.588 176.945 127.749 175.713 127.535C174.266 127.32 172.766 127.213 171.319 127.052C168.532 126.731 165.799 126.088 163.12 125.23C161.084 124.587 160.441 127.749 162.37 128.446Z" fill="#A8E1FF"/>
<path d="M185.519 130.321C186.752 130.268 187.877 130.053 189.002 129.571C189.538 129.357 189.967 128.874 189.967 128.231C189.967 128.017 189.86 127.803 189.752 127.588C189.538 127.213 189.002 126.945 188.574 126.999C187.555 127.16 186.484 127.213 185.412 127.213C183.429 127.213 183.537 130.428 185.519 130.321Z" fill="#A8E1FF"/>
<path d="M133.595 17.4149C133.38 16.6647 133.059 15.8074 132.255 15.6466C131.451 15.4859 130.808 16.2361 130.326 16.9327C127.968 20.3622 125.985 24.006 124.324 27.757L135.202 29.4717C135.202 25.3992 134.613 21.3267 133.595 17.4149Z" fill="#00C4F6"/>
<path d="M169.871 90.9348C168.746 98.8118 162.209 104.492 152.51 107.546C143.561 110.386 131.451 114.244 118.965 112.476C106.694 110.708 96.2448 103.688 88.4749 98.5439C79.8477 92.8639 74.9714 85.5227 76.0967 77.4848C76.6861 73.4659 78.6688 69.8221 81.8303 66.7677C84.7239 63.9277 86.653 60.1767 87.1889 56.1578C87.1889 55.9792 87.2068 55.8006 87.2425 55.6219C90.0825 35.7953 109.909 22.2918 131.558 25.3461C153.206 28.4541 168.478 47.0482 165.638 66.8213C165.602 66.9999 165.567 67.1607 165.531 67.3036C164.888 71.3761 165.531 75.6093 167.514 79.1996C169.603 83.0041 170.461 86.9694 169.871 90.9348Z" fill="#00C4F6"/>
<path d="M153.582 107.172C153.261 107.315 152.903 107.44 152.51 107.547C141.365 111.084 130.54 114.138 118.966 112.477C107.338 110.816 97.7997 104.707 88.4758 98.5447C88.1543 98.3303 87.8506 98.116 87.5649 97.9016C85.3143 93.5076 85.5822 89.0064 87.4041 85.8449C88.9045 83.2728 91.6909 81.3973 94.6382 81.2901C99.8895 81.1294 104.873 86.22 109.964 84.3981C114.358 82.7905 118.591 81.7188 123.36 82.5226C128.129 83.2728 132.041 85.2554 135.738 88.0955C139.918 91.3106 146.295 87.774 151.278 89.4351C157.28 91.4178 159.959 100.152 153.582 107.172Z" fill="#A8E1FF"/>
<path d="M102.408 61.0879C107.552 61.0879 111.785 65.2676 111.785 70.4654C111.785 75.6096 107.552 79.8428 102.408 79.8428C97.2099 79.8428 93.0303 75.6096 93.0303 70.4654C93.0303 65.2676 97.2099 61.0879 102.408 61.0879Z" fill="white"/>
<path fill-rule="evenodd" clip-rule="evenodd" d="M102.407 80.3781C101.943 80.3781 101.461 80.3424 100.96 80.271C98.3347 79.8959 96.0305 78.5027 94.4765 76.4128C92.869 74.2694 92.226 71.6437 92.6011 69.0716C92.9762 66.4459 94.3158 64.0881 96.4592 62.5342C98.549 60.9266 101.175 60.2836 103.8 60.6587C109.213 61.4089 112.964 66.4459 112.213 71.8581C111.463 76.7879 107.23 80.3781 102.407 80.3781ZM102.354 61.6232C100.478 61.6232 98.6562 62.2127 97.1022 63.3916C95.2267 64.7848 93.9943 66.8746 93.6192 69.1788C93.2976 71.5365 93.8871 73.8407 95.3339 75.7698C96.7271 77.6453 98.817 78.8778 101.121 79.1993C103.479 79.5208 105.783 78.9313 107.659 77.5381C109.588 76.0913 110.767 74.0551 111.142 71.6973C111.838 66.8746 108.462 62.427 103.64 61.7304C103.211 61.6589 102.782 61.6232 102.354 61.6232Z" fill="black"/>
<path d="M110.982 72.4483C110.392 76.1993 106.909 78.825 103.158 78.2891C99.4073 77.7533 96.7816 74.2702 97.3175 70.5192C97.8533 66.7147 101.336 64.089 105.141 64.6784C107.124 64.9463 108.785 66.0716 109.803 67.572C107.177 68.5901 105.409 70.2513 105.784 71.3766C106.213 72.4483 108.517 72.609 111.035 71.8053C111 72.0196 110.982 72.2339 110.982 72.4483Z" fill="black"/>
<path d="M145.491 67.25C150.689 67.25 154.868 71.4833 154.868 76.6275C154.868 81.8253 150.689 86.0049 145.491 86.0049C140.293 86.0049 136.113 81.8253 136.113 76.6275C136.113 71.4833 140.293 67.25 145.491 67.25Z" fill="white"/>
<path fill-rule="evenodd" clip-rule="evenodd" d="M145.49 86.5398C145.026 86.5398 144.562 86.5041 144.097 86.4327C138.685 85.6825 134.934 80.6454 135.684 75.2333C136.059 72.6076 137.453 70.3034 139.543 68.6958C141.686 67.1419 144.258 66.4452 146.884 66.8203C152.296 67.6241 156.047 72.6612 155.297 78.0733C154.6 83.0032 150.313 86.5398 145.49 86.5398ZM145.49 67.7849C143.561 67.7849 141.74 68.4279 140.186 69.5532C138.31 71 137.078 73.0363 136.756 75.394C136.435 77.7518 137.024 80.056 138.417 81.9315C139.81 83.807 141.9 85.0394 144.258 85.4145C149.027 86.0575 153.528 82.7352 154.225 77.9126C154.922 73.0899 151.546 68.5887 146.723 67.8921C146.294 67.8206 145.883 67.7849 145.49 67.7849Z" fill="black"/>
<path d="M150.313 78.1273C149.777 81.8783 146.294 84.5039 142.543 83.9681C138.792 83.4322 136.166 79.8956 136.702 76.1446C137.238 72.3936 140.721 69.7679 144.472 70.3038C146.508 70.5717 148.17 71.697 149.188 73.251C146.562 74.2155 144.74 75.9303 145.169 77.0556C145.597 78.1273 147.848 78.288 150.42 77.4307C150.384 77.645 150.349 77.8772 150.313 78.1273Z" fill="black"/>
<path d="M110.017 56.265C109.909 57.2296 108.034 56.8545 105.73 56.533C103.426 56.2114 101.55 56.0507 101.711 55.0862C101.818 54.068 103.961 52.6748 106.266 52.9963C108.57 53.3714 110.177 55.3005 110.017 56.265Z" fill="#00B0DF"/>
<path d="M149.831 61.9981C149.67 62.9626 147.795 62.5875 145.49 62.266C143.186 61.9445 141.311 61.7302 141.472 60.7656C141.579 59.8011 143.722 58.4079 146.026 58.7294C148.33 59.0509 149.938 60.98 149.831 61.9981Z" fill="#00B0DF"/>
<path d="M136.434 89.7017C136.327 89.7017 136.166 89.6482 136.059 89.541C132.791 86.0043 128.343 83.7001 123.627 83.0571C118.858 82.3605 113.982 83.325 109.856 85.7364C109.588 85.8972 109.267 85.8436 109.106 85.5756C108.945 85.3077 109.052 84.9862 109.32 84.8255C113.661 82.2534 118.751 81.2352 123.788 81.9854C128.772 82.682 133.38 85.0934 136.863 88.7908C137.024 89.0051 137.024 89.3266 136.81 89.541C136.702 89.6482 136.577 89.7017 136.434 89.7017Z" fill="#1876A8"/>
<path d="M132.738 96.7763C128.826 96.7763 124.914 96.3476 121.324 95.8653C107.928 93.9362 100.265 91.4177 93.031 82.5225C92.8166 82.2546 92.8702 81.9331 93.0846 81.7723C93.2989 81.558 93.674 81.6116 93.8348 81.8259C100.908 90.5067 108.356 92.9181 121.485 94.7936C136.114 96.8834 145.17 95.383 150.903 89.9709C151.118 89.7566 151.439 89.7566 151.654 89.9709C151.868 90.1852 151.868 90.5604 151.654 90.7211C146.67 95.4366 139.758 96.7763 132.738 96.7763Z" fill="black"/>
<path d="M154.76 92.8646C154.6 92.8646 154.439 92.811 154.332 92.6502C153.153 91.0963 149.455 89.2208 146.24 89.703C145.919 89.7566 145.651 89.5423 145.651 89.2208C145.597 88.9528 145.812 88.6849 146.08 88.6313C149.884 88.0955 153.796 90.2389 155.189 92.0072C155.35 92.2216 155.296 92.5431 155.082 92.7574C154.975 92.8289 154.868 92.8646 154.76 92.8646Z" fill="black"/>
<path d="M89.2259 84.3973C89.0651 84.3973 88.9044 84.3437 88.7972 84.183C88.6365 83.9686 88.6365 83.6471 88.9044 83.4328C90.4584 82.1467 92.2803 81.3429 94.0486 81.1822C95.9241 81.0214 97.8532 81.5037 99.6215 82.0395C99.943 82.1467 100.05 82.4146 99.9966 82.7362C99.8894 83.0041 99.6215 83.1648 99.3 83.0577C97.6388 82.5218 95.8705 82.0931 94.1558 82.2539C92.6018 82.4146 90.9942 83.1113 89.5474 84.2901C89.4402 84.3616 89.3331 84.3973 89.2259 84.3973Z" fill="black"/>
<path d="M122.287 109.154C119.019 109.154 115.75 108.35 112.91 106.796C112.642 106.635 112.535 106.314 112.696 106.046C112.856 105.778 113.178 105.671 113.392 105.831C117.411 108.028 122.287 108.671 126.735 107.546C127.003 107.439 127.271 107.653 127.378 107.921C127.432 108.189 127.271 108.511 126.949 108.564C125.449 108.993 123.841 109.154 122.287 109.154Z" fill="#1876A8"/>
<path d="M136.274 96.1319C128.397 99.0255 127.433 103.848 120.306 103.098C113.125 102.401 111.946 96.5606 105.73 91.6843C110.446 93.2919 115.965 94.5244 121.431 95.3281C126.843 96.0783 131.344 96.3463 136.274 96.1319Z" fill="#731D31"/>
<path fill-rule="evenodd" clip-rule="evenodd" d="M121.699 103.741C121.234 103.741 120.752 103.706 120.252 103.634C115.483 103.152 113.232 100.526 110.66 97.4182C109.267 95.757 107.659 93.8279 105.409 92.1132C105.194 91.9524 105.141 91.6309 105.301 91.4166C105.409 91.2023 105.677 91.0951 105.945 91.1487C110.339 92.7026 115.697 93.9351 121.484 94.7925C127.057 95.5963 131.505 95.8106 136.274 95.5963C136.488 95.5427 136.756 95.757 136.81 96.0249C136.863 96.2393 136.703 96.5072 136.488 96.6144C133.327 97.7933 131.29 99.2401 129.522 100.58C127.218 102.241 125.182 103.741 121.699 103.741ZM108.088 92.9706C109.428 94.2566 110.499 95.5427 111.464 96.7215C114.036 99.7759 116.019 102.134 120.359 102.562C124.378 102.991 126.253 101.598 128.879 99.6687C130.219 98.7578 131.612 97.6861 133.541 96.7215C129.683 96.7751 125.878 96.5072 121.324 95.8642C116.554 95.1676 112 94.203 108.088 92.9706Z" fill="black"/>
<mask id="mask0_369_2498" style="mask-type:luminance" maskUnits="userSpaceOnUse" x="105" y="91" width="32" height="13">
<path d="M136.29 96.1168C128.413 99.0479 127.443 103.844 120.295 103.11C113.141 102.381 111.973 96.5348 105.746 91.6746C110.446 93.3089 115.976 94.5307 121.414 95.313C126.853 96.09 131.339 96.3633 136.29 96.1168Z" fill="white"/>
</mask>
<g mask="url(#mask0_369_2498)">
<path d="M133.916 104.546C130.755 100.848 126.146 98.4371 121.324 98.0084C116.447 97.5797 111.464 99.1337 107.713 102.188C108.088 103.474 108.945 104.331 110.231 104.867C117.733 107.815 126.307 107.332 133.916 104.546Z" fill="#CF2746"/>
</g>
<path d="M142.383 36.1171C145.062 37.8319 147.42 39.9217 149.403 42.3867C150.367 43.512 151.171 44.7444 152.082 45.9233C152.993 47.1558 153.583 48.8705 154.761 49.835C155.619 50.4781 156.637 50.0494 156.744 49.0312C156.958 47.3701 155.887 45.6018 155.244 44.155C154.493 42.5474 153.475 41.1542 152.35 39.8681C150.046 37.1353 147.206 34.8847 144.151 33.1164C142.169 32.0447 140.454 34.9383 142.383 36.1171Z" fill="#A8E1FF"/>
<path d="M155.725 55.0313C156.153 56.7996 156.261 59.1574 157.654 60.4435C157.975 60.765 158.565 60.765 158.779 60.3363C159.744 58.5144 158.886 56.103 158.404 54.2811C157.975 52.5128 155.243 53.263 155.725 55.0313Z" fill="#A8E1FF"/>
<path d="M122.931 87.4516C124.378 87.7732 125.717 88.2554 127.057 88.8449C128.236 89.3807 129.361 90.2917 130.701 90.2917C131.398 90.2917 132.148 89.5415 131.826 88.7913C130.701 85.8977 126.039 85.1475 123.306 84.826C121.806 84.7188 121.484 87.1301 122.931 87.4516Z" fill="#E0F5FF"/>
<path fill-rule="evenodd" clip-rule="evenodd" d="M33.9792 68.1614L31.1392 68.6436C20.7436 70.5191 10.2409 65.6428 4.93589 56.4797L1.29209 50.1566C0.220377 48.3347 0.166791 46.1377 1.02416 44.2622C1.88153 42.3332 3.64986 40.9935 5.6861 40.6184L21.4938 37.7784C24.1195 37.2961 26.8524 38.5822 28.192 40.8864L38.4268 58.6231C39.445 60.4451 39.5521 62.6421 38.6948 64.5176C37.7838 66.4466 36.0691 67.7863 33.9792 68.1614ZM6.32914 43.9943C5.3646 44.2087 4.5608 44.7981 4.13211 45.7091C3.70343 46.5664 3.75702 47.5845 4.23929 48.4419L7.8831 54.765C12.4915 62.6956 21.5474 66.9289 30.5498 65.3213L33.3898 64.7855C34.3544 64.6247 35.1581 63.9817 35.5868 63.1243C35.9619 62.2134 35.9619 61.1953 35.4261 60.3379L25.2448 42.6011C24.6018 41.5294 23.3157 40.9399 22.0833 41.1543L6.32914 43.9943Z" fill="#FFC447"/>
<path fill-rule="evenodd" clip-rule="evenodd" d="M57.2351 63.9812L54.395 64.4635C52.3587 64.8386 50.2153 64.1956 48.7685 62.7488C47.2681 61.2484 46.5715 59.1585 46.9466 57.1223L50.3225 36.9205C50.7512 34.2413 52.841 32.1514 55.5203 31.6692L71.2744 28.8291C73.3643 28.4541 75.4541 29.0971 76.9545 30.5439C78.4549 32.0443 79.0979 34.1341 78.7764 36.1703L77.5439 43.4044C75.7756 53.8536 67.6306 62.1057 57.2351 63.9812ZM56.1097 35.0451C54.8773 35.2594 53.9127 36.2239 53.6984 37.4564L50.3225 57.6581C50.1618 58.6227 50.4297 59.5872 51.1799 60.2838C51.8765 60.9804 52.841 61.3019 53.8056 61.0876L56.592 60.6054C65.5944 58.9978 72.6677 51.8173 74.1681 42.815L75.4005 35.6345C75.5613 34.6699 75.2398 33.7054 74.5432 33.0088C73.8466 32.3122 72.882 31.9907 71.9175 32.205L56.1097 35.0451Z" fill="#FFC447"/>
<path d="M41.5879 69.6615L47.8038 68.5363L52.7337 95.9184L46.5178 97.0438L41.5879 69.6615Z" fill="#FFC447"/>
<path d="M46.0895 76.8412C39.3913 78.0736 32.4788 74.537 26.4236 67.7852C19.5111 60.1225 13.831 48.2265 10.8838 34.2943C10.6159 32.7939 11.3661 31.2935 12.7593 30.7041C17.9035 28.507 25.727 25.8813 36.7656 23.8987C50.3228 21.4873 57.0745 21.5409 61.3078 21.8624C62.8082 22.0232 63.9871 23.1485 64.2014 24.5953C64.5944 27.0959 64.8802 29.5788 65.0588 32.0437C66.7199 55.3534 59.0572 74.537 46.0895 76.8412Z" fill="#FFC447"/>
<path d="M68.7569 95.4894C69.3463 98.7045 31.9972 105.456 31.4078 102.241C30.8184 99.0796 38.749 94.9536 49.0374 93.1316C59.3258 91.2562 68.1675 92.3278 68.7569 95.4894Z" fill="#FFC447"/>
<path d="M55.5203 30.8118C55.8954 32.6337 56.0025 34.5092 56.324 36.3847C56.5384 37.9923 56.5919 39.8142 57.3421 41.261C57.6101 41.8504 58.3603 41.7433 58.6818 41.261C59.6999 39.8142 59.7535 37.6708 59.7535 35.9024C59.6999 33.8662 59.2176 31.8835 58.6818 29.9545C58.0923 27.8646 55.0916 28.7756 55.5203 30.8118Z" fill="#FFE09E"/>
<path d="M56.753 46.1383C56.6994 48.0138 56.3779 49.7821 56.8066 51.604C56.9673 52.1934 57.7711 52.247 58.0926 51.7647C59.2179 50.05 59.2179 48.1209 59.1643 46.1383C59.1107 44.5843 56.8066 44.5843 56.753 46.1383Z" fill="#FFE09E"/>
<path d="M46.0897 76.8419C39.3915 78.0744 32.479 74.5377 26.4238 67.7859C31.0322 69.6614 35.962 70.7332 40.9991 70.3045C45.1787 69.9294 49.3584 68.7505 52.6807 66.1784C57.557 62.3202 59.754 56.0507 61.3616 49.9956C62.9691 44.1012 64.2016 38.0996 65.059 32.0444C66.7201 55.3541 59.0574 74.5377 46.0897 76.8419Z" fill="#F5A031"/>
<path d="M175.713 31.3473L176.356 31.4009L176.945 31.5081C177.321 31.5617 177.642 31.7224 178.017 31.8296C178.071 31.8296 178.071 31.9367 178.071 31.9903C178.071 32.0439 178.124 32.0975 178.178 32.1511L178.339 32.5262L178.66 33.2764C179.089 34.2409 179.446 35.2233 179.732 36.2236C180.018 37.2596 180.232 38.2956 180.375 39.3315L180.482 40.1353L180.536 40.5104C180.536 40.6176 180.536 40.6712 180.536 40.7248C180.589 40.7783 180.589 40.8855 180.536 40.9391C180.321 41.207 180.053 41.475 179.785 41.7429L179.357 42.1716L178.875 42.5467L178.392 42.1716L177.964 41.8501L177.106 41.1535C177.053 41.1535 177.106 41.0463 177.106 40.9927C177.106 40.9391 177.106 40.8855 177.106 40.8319L177.053 40.5104L176.999 39.8138C176.856 38.9207 176.66 38.0455 176.41 37.1881C176.16 36.295 175.856 35.4377 175.499 34.616C175.338 34.1873 175.177 33.8122 174.909 33.3836C175.016 33.0621 175.124 32.7405 175.284 32.419L175.499 31.8831L175.713 31.3473Z" fill="#FFC447"/>
<path d="M192.914 81.2899C193.665 81.5043 194.2 81.7722 194.79 81.9865C194.79 82.308 194.897 82.576 195.004 82.8975C195.147 83.5048 195.344 84.1121 195.594 84.7194C195.808 85.3267 196.058 85.9161 196.344 86.4877C196.522 86.7378 196.683 87.0057 196.826 87.2915C196.558 87.8274 196.29 88.4168 195.915 89.0598C195.165 89.167 194.522 89.1134 193.879 89.0598C193.7 88.7026 193.522 88.3632 193.343 88.0417C192.986 87.363 192.664 86.6663 192.378 85.9519C192.093 85.2374 191.86 84.5229 191.682 83.8084L191.521 83.219L191.468 82.9511C191.468 82.8975 191.468 82.8439 191.414 82.8439C191.414 82.7903 191.36 82.7367 191.36 82.6832C191.789 82.2009 192.218 81.7186 192.914 81.2899Z" fill="#FFC447"/>
<path d="M229.19 99.5626C229.94 99.777 230.476 99.9913 231.066 100.206C231.066 100.527 231.173 100.849 231.28 101.17C231.423 101.777 231.619 102.385 231.869 102.992C232.084 103.564 232.352 104.135 232.673 104.707C232.816 104.993 232.959 105.278 233.102 105.564C232.834 106.1 232.566 106.636 232.191 107.333C231.441 107.386 230.798 107.333 230.155 107.279C229.976 106.957 229.798 106.636 229.619 106.314C229.262 105.636 228.94 104.939 228.654 104.225C228.369 103.51 228.136 102.778 227.958 102.028L227.797 101.492L227.743 101.224C227.743 101.17 227.743 101.117 227.69 101.063C227.69 101.009 227.636 101.009 227.69 100.956C228.065 100.474 228.547 99.9913 229.19 99.5626Z" fill="#FFC447"/>
<path d="M193.236 54.4964C193.504 55.3002 193.611 55.9432 193.718 56.5327C193.396 56.8542 193.182 57.1757 192.914 57.4973C192.378 58.1046 191.86 58.7476 191.36 59.4263C190.896 60.1051 190.467 60.8017 190.074 61.5162C189.86 61.8734 189.663 62.2128 189.485 62.5343C188.734 62.8022 188.038 63.0166 187.073 63.2845C186.537 62.7486 186.162 62.2664 185.841 61.6769C186.055 61.2482 186.287 60.8374 186.537 60.4445C187.002 59.5871 187.52 58.7654 188.091 57.9795C188.663 57.1579 189.27 56.372 189.913 55.6218L190.396 55.0323L190.664 54.7644C190.664 54.7108 190.717 54.7108 190.771 54.6036C190.771 54.55 190.771 54.4964 190.878 54.4964C191.628 54.4429 192.378 54.3893 193.236 54.4964Z" fill="#F4D717"/>
<path d="M213.651 58.248L214.241 58.0337L214.777 57.9265C215.098 57.8193 215.473 57.7657 215.795 57.7122C215.902 57.7122 215.902 57.7658 215.955 57.8193C215.955 57.8729 216.009 57.9265 216.063 57.9801L216.331 58.1944L216.866 58.6767C217.545 59.3197 218.17 60.0163 218.742 60.7665C219.349 61.5167 219.885 62.3027 220.349 63.1243L220.671 63.7673L220.832 64.0888C220.885 64.1424 220.885 64.196 220.939 64.2496C220.992 64.3032 221.046 64.3032 220.992 64.4103C220.832 64.7319 220.725 65.0534 220.564 65.3749L220.296 65.8572L219.974 66.3394C219.171 66.1787 218.528 66.0179 217.884 65.8572C217.831 65.8572 217.831 65.8036 217.831 65.75C217.831 65.6964 217.777 65.6428 217.777 65.5892L217.617 65.3749L217.349 64.839C216.956 64.1603 216.527 63.5173 216.063 62.91C215.562 62.2669 215.044 61.6775 214.509 61.1416C214.187 60.8737 213.919 60.6058 213.598 60.3914L213.651 59.3733V58.8375V58.248Z" fill="#FFC447"/>
<path d="M183.858 96.7754C184.036 96.8468 184.215 96.9004 184.393 96.9361C184.572 97.0076 184.733 97.079 184.876 97.1505C185.197 97.2577 185.465 97.4184 185.787 97.5792C185.84 97.6328 185.84 97.6863 185.787 97.7399C185.787 97.7935 185.787 97.8471 185.787 97.9007L185.84 98.2222L185.894 98.8116C185.965 99.669 185.93 100.509 185.787 101.33C185.679 102.152 185.483 102.973 185.197 103.795L184.983 104.385L184.876 104.652C184.876 104.706 184.822 104.76 184.822 104.813C184.822 104.867 184.822 104.92 184.769 104.974C184.393 105.028 184.125 105.081 183.75 105.135C183.572 105.17 183.393 105.188 183.215 105.188C183.036 105.188 182.857 105.188 182.679 105.188L182.143 104.277C181.982 104.009 181.821 103.742 181.661 103.474C181.607 103.42 181.661 103.42 181.661 103.366C181.714 103.366 181.714 103.313 181.714 103.259L181.821 103.098L181.982 102.67C182.196 102.062 182.339 101.455 182.411 100.848C182.482 100.241 182.5 99.6333 182.464 99.026C182.464 98.7581 182.464 98.4365 182.357 98.115C182.572 97.9543 182.786 97.7399 183.054 97.5256C183.161 97.4184 183.286 97.3112 183.429 97.2041C183.572 97.0612 183.715 96.9183 183.858 96.7754Z" fill="#F4D717"/>
<path d="M93.459 12.0564C94.0484 12.6458 94.5307 13.2353 94.9058 13.8783C94.9594 13.9855 94.9058 14.0391 94.8522 14.0927C94.7986 14.1463 94.7986 14.1998 94.7986 14.307L94.6915 14.6821L94.5307 15.4859C94.2092 16.5576 93.8341 17.5936 93.4054 18.5938C92.941 19.5941 92.4052 20.5408 91.7979 21.4339L91.3156 22.1305L91.1012 22.452C91.0476 22.5056 90.9941 22.5592 90.9941 22.6127C90.9405 22.7199 90.9405 22.7735 90.8333 22.7735C90.4582 22.8271 90.0831 22.8807 89.708 22.9343H89.1186C88.9043 22.9343 88.7435 22.9343 88.5291 22.8807C88.4755 22.6663 88.422 22.5056 88.422 22.2912L88.3148 21.7554L88.154 20.6837C88.1004 20.5765 88.154 20.5765 88.2076 20.5229C88.2612 20.5229 88.3148 20.4693 88.3684 20.4158L88.5291 20.1478L88.9578 19.5584C89.4579 18.8082 89.8866 18.0044 90.2439 17.147C90.6368 16.3254 90.9583 15.468 91.2084 14.5749C91.3156 14.1462 91.4764 13.664 91.5299 13.2353C91.78 13.0567 92.0658 12.8602 92.3873 12.6459L92.8696 12.3779C93.0839 12.2708 93.2447 12.1636 93.459 12.0564Z" fill="#FFC447"/>
<path d="M81.1874 0.482283C81.3482 1.28607 81.4554 1.87551 81.5626 2.46495C81.2946 2.67929 81.0803 2.9472 80.8659 3.21513C80.4015 3.67954 79.9728 4.19754 79.5799 4.76912C79.1869 5.30498 78.8118 5.85868 78.4546 6.43026C78.276 6.71605 78.1152 7.01971 77.9723 7.34122C77.3829 7.39481 76.7399 7.50197 75.9897 7.50197C75.5074 6.91253 75.2395 6.3231 74.918 5.73366C75.0966 5.37642 75.2931 5.03706 75.5074 4.71555C75.9004 4.0368 76.3291 3.37591 76.7935 2.73288C77.2936 2.08985 77.8116 1.46469 78.3474 0.857388L78.7225 0.42871L78.9369 0.214355C78.9905 0.214355 79.044 0.160763 79.044 0.107178C79.0976 0.053592 79.0976 0 79.1512 0C79.7942 0.107171 80.4372 0.214355 81.1874 0.482283Z" fill="#F4D717"/>
<path d="M48.2861 9.96782C48.3397 10.7716 48.3932 11.4146 48.4468 12.0041C48.1789 12.1648 47.911 12.4328 47.6966 12.6471C47.1965 13.1115 46.7321 13.6116 46.3034 14.1475C45.8747 14.6833 45.4818 15.237 45.1245 15.8086C44.9816 16.0944 44.8209 16.3802 44.6423 16.666C44.0528 16.7732 43.4098 16.8803 42.6596 16.9875L42.3381 16.5053L42.0166 16.0765C41.8558 15.755 41.7486 15.4871 41.5879 15.1656C41.7665 14.7727 41.963 14.3975 42.1773 14.0403C42.606 13.3258 43.0883 12.6471 43.6241 12.0041C44.16 11.3253 44.7316 10.7001 45.3389 10.1286L45.8211 9.69989L46.0355 9.53914C46.0891 9.48555 46.1427 9.48555 46.1427 9.43196C46.1962 9.37838 46.1963 9.2712 46.2498 9.32478C46.6249 9.37837 46.8928 9.43197 47.2679 9.53914L47.7502 9.75346L48.2861 9.96782Z" fill="#FFC447"/>
<path d="M46.1968 119.549C46.947 119.71 47.5365 119.924 48.1259 120.192C48.1795 120.246 48.1795 120.299 48.1795 120.353C48.1259 120.406 48.1795 120.46 48.1795 120.513L48.2331 120.781L48.3402 121.371C48.4831 122.121 48.5724 122.889 48.6082 123.675C48.6082 124.461 48.5724 125.247 48.501 126.033C48.4653 126.426 48.4117 126.819 48.3402 127.212C48.0723 127.372 47.8044 127.48 47.4829 127.64L47.0006 127.801L46.4647 127.962C45.8753 127.48 45.4466 127.051 44.9644 126.676C45.0358 126.354 45.0894 126.033 45.1251 125.711C45.1608 125.068 45.1787 124.443 45.1787 123.836C45.143 123.193 45.0715 122.55 44.9644 121.907C44.9108 121.585 44.8572 121.317 44.75 120.996C45.1787 120.567 45.6074 120.138 46.1968 119.549Z" fill="#F4D717"/>
<path d="M24.8168 86.7017C24.7632 87.5055 24.7096 88.1485 24.656 88.7915C24.3345 88.9523 24.013 89.1667 23.7451 89.381C23.1378 89.8097 22.5662 90.2741 22.0303 90.7742C21.4945 91.2743 20.9943 91.8102 20.5299 92.3818L20.2084 92.8105L20.0477 93.0248C19.9941 93.0784 19.9941 93.132 19.9941 93.1856C19.9405 93.2392 19.9941 93.2927 19.8869 93.2927C19.2439 93.2927 18.6008 93.3463 17.7971 93.3463L17.5827 92.8105L17.3684 92.3282C17.2612 91.9531 17.154 91.6852 17.0469 91.3101C17.0469 91.2565 17.1004 91.2029 17.154 91.2029C17.2076 91.1493 17.2076 91.0957 17.2612 91.0421L17.4756 90.7742L17.8507 90.2384C18.4222 89.5596 19.0295 88.8987 19.6725 88.2557C20.3156 87.6484 21.0122 87.0947 21.7624 86.5946L22.2982 86.2194L22.5662 86.0051C22.6198 85.9515 22.6733 85.9515 22.7269 85.8979C22.7269 85.8444 22.7805 85.7908 22.8341 85.7908C23.1556 85.8979 23.4771 86.0051 23.7986 86.1659L24.2809 86.3802L24.8168 86.7017Z" fill="#F4D717"/>
<path d="M27.3341 113.333C27.87 113.922 28.1915 114.404 28.5666 114.833C28.4595 115.101 28.3523 115.369 28.2451 115.69C28.0665 116.226 27.9236 116.798 27.8164 117.405C27.7092 117.977 27.6199 118.566 27.5485 119.173C27.5485 119.459 27.5306 119.745 27.4949 120.031C27.0126 120.299 26.4768 120.62 25.7802 120.995C25.0836 120.674 24.6013 120.299 24.0654 119.924C24.1012 119.566 24.1369 119.209 24.1726 118.852C24.2083 118.138 24.2976 117.423 24.4405 116.709C24.5834 115.994 24.762 115.297 24.9764 114.619L25.1907 114.136L25.2443 113.868C25.2443 113.815 25.2979 113.761 25.2979 113.708C25.2979 113.654 25.2443 113.601 25.3515 113.601C25.9409 113.44 26.5304 113.333 27.3341 113.333Z" fill="#FFC447"/>
<path d="M208.614 116.817C208.793 116.745 208.971 116.656 209.15 116.549C209.293 116.477 209.454 116.406 209.632 116.335C209.954 116.227 210.275 116.12 210.651 116.067C210.704 116.013 210.758 116.12 210.758 116.174C210.811 116.227 210.865 116.227 210.918 116.281L211.186 116.495L211.722 116.924C212.401 117.567 213.008 118.281 213.544 119.067C214.044 119.853 214.455 120.693 214.777 121.586L214.991 122.283L215.045 122.604C215.098 122.658 215.098 122.711 215.098 122.765C215.152 122.818 215.205 122.872 215.152 122.926C214.937 123.247 214.723 123.515 214.509 123.729C214.366 123.872 214.223 123.997 214.08 124.104C213.937 124.247 213.794 124.372 213.651 124.48C213.473 124.372 213.294 124.283 213.115 124.212C212.973 124.14 212.83 124.069 212.687 123.997C212.365 123.89 212.097 123.729 211.776 123.622C211.722 123.622 211.722 123.569 211.776 123.515C211.776 123.515 211.722 123.461 211.722 123.408L211.669 123.193L211.508 122.711C211.294 122.104 211.008 121.514 210.651 120.943C210.293 120.407 209.882 119.907 209.418 119.442L209.043 119.175L208.829 119.014C208.829 118.96 208.775 118.96 208.721 118.96C208.721 118.96 208.614 118.96 208.668 118.853C208.668 118.585 208.668 118.264 208.668 117.942C208.668 117.763 208.668 117.585 208.668 117.406C208.668 117.228 208.65 117.031 208.614 116.817Z" fill="#FFC447"/>
<path d="M213.598 84.2371C213.776 84.13 213.937 84.0228 214.08 83.9156C214.259 83.8442 214.437 83.7727 214.616 83.7013C214.937 83.5941 215.259 83.5405 215.634 83.4333C215.687 83.4333 215.741 83.4869 215.741 83.5405C215.795 83.5941 215.848 83.6477 215.902 83.6477L216.17 83.862L216.706 84.3443C217.384 84.9873 217.992 85.7018 218.528 86.4877C219.028 87.2737 219.438 88.0953 219.76 88.9527L219.974 89.6493L220.028 89.9708C220.028 90.0244 220.081 90.1316 220.081 90.1851C220.135 90.2387 220.189 90.2923 220.135 90.3459C219.921 90.6138 219.706 90.8817 219.438 91.1497C219.331 91.2926 219.206 91.4176 219.063 91.5248C218.92 91.632 218.76 91.7391 218.581 91.8463C218.438 91.7748 218.277 91.7034 218.099 91.6319C217.956 91.5605 217.795 91.4891 217.617 91.4176C217.295 91.2568 217.027 91.1497 216.759 91.0425C216.706 90.9889 216.706 90.9889 216.706 90.9353C216.706 90.8817 216.706 90.8281 216.706 90.8281L216.652 90.5602L216.491 90.078C216.277 89.4707 215.991 88.8991 215.634 88.3632C215.277 87.7916 214.866 87.2915 214.401 86.8628L214.026 86.5413L213.812 86.3806C213.758 86.3806 213.758 86.327 213.705 86.327C213.651 86.327 213.598 86.327 213.598 86.2734C213.651 85.9519 213.651 85.6839 213.651 85.3088C213.651 85.1659 213.633 85.0052 213.598 84.8266C213.598 84.6123 213.598 84.4158 213.598 84.2371Z" fill="#F4D717"/>
</svg>
