<svg width="179" height="277" viewBox="0 0 179 277" fill="none" xmlns="http://www.w3.org/2000/svg">
<path d="M114.044 174.868C129.869 191.865 103.944 192.594 97.9979 200.46C95.5119 203.686 96.0252 204.797 105.757 205.999C139.768 210.193 160.279 172.176 129.354 147.187C112.285 133.424 110.175 170.75 114.044 174.868Z" fill="#00C4F6"/>
<g opacity="0.6">
<path opacity="0.3" d="M114.045 174.867C111.307 171.971 111.951 157.062 116.066 149.571C124.644 159.923 128.817 174.609 120.828 186.468C117.567 191.378 110.888 193.102 107.002 197.52C105.311 199.391 104.174 202.222 105.706 203.767C106.409 204.64 107.181 205.46 108.021 206.225C107.279 206.171 106.524 206.095 105.757 205.997C96.0255 204.795 95.5627 203.698 97.9982 200.459C103.893 192.579 129.869 191.863 114.045 174.867Z" fill="#1C7FB3"/>
</g>
<path d="M132.111 161.71C133.726 163.548 135.022 165.571 135.87 167.852C136.648 169.79 136.951 172.088 138.022 173.942C138.428 174.646 139.357 174.408 139.596 173.715C140.46 171.298 139.559 168.408 138.596 166.15C137.587 163.664 136.167 161.499 134.39 159.456C133.023 157.9 130.794 160.168 132.111 161.71Z" fill="#A8E1FF"/>
<path d="M137.769 179.927C137.413 182.264 136.452 184.439 136.261 186.766C136.213 187.348 137.043 187.678 137.481 187.255C139.222 185.397 139.521 182.667 139.753 180.188C139.835 179.075 137.952 178.841 137.769 179.927Z" fill="#A8E1FF"/>
<path d="M41.627 155.245C18.9024 159.966 39.6385 175.577 39.9664 185.448C40.1264 189.491 39.1033 190.082 30.4551 185.44C0.25546 169.24 5.47274 126.368 45.1826 123.819C67.0153 122.426 47.2181 154.148 41.627 155.245Z" fill="#00C4F6"/>
<g opacity="0.6">
<path opacity="0.3" d="M41.6258 155.247C45.5651 154.465 53.6284 141.923 54.6072 133.428C41.6174 136.921 29.7403 146.549 29.4374 160.792C29.1982 166.728 33.6819 171.984 34.3307 177.833C34.6304 180.346 33.8971 183.284 31.7878 183.692C30.7022 183.978 29.6011 184.187 28.4843 184.321C29.1363 184.711 29.7928 185.086 30.4539 185.443C39.102 190.084 40.0747 189.48 39.9652 185.451C39.7382 175.606 18.9012 159.969 41.6258 155.247Z" fill="#1C7FB3"/>
</g>
<path d="M33.7648 130.924C31.1575 131.576 28.6069 132.623 26.3651 134.13C24.3558 135.376 22.0833 137.199 21.4347 139.62C21.2185 140.427 22.0587 140.922 22.7351 140.617C24.7138 139.688 26.3269 137.904 28.2084 136.732C30.1674 135.473 32.3478 134.598 34.612 134.016C36.6204 133.581 35.7732 130.489 33.7648 130.924Z" fill="#A8E1FF"/>
<path d="M17.5476 144.851C16.2838 146.944 15.0399 149.368 15.39 151.894C15.48 152.567 16.4049 152.544 16.6914 152.081C17.8506 150.175 18.257 147.851 19.2784 145.855C19.8549 144.712 18.2249 143.735 17.5476 144.851Z" fill="#A8E1FF"/>
<path d="M129.464 132.244C128.401 135.202 127.19 138.715 125.897 142.531C111.766 183.771 82.5669 266.92 5.95928 246.393C-24.0483 238.353 -44.3443 195.077 -24.7455 208.274C19.624 238.163 31.5117 211.348 50.7996 121.814C51.5324 118.407 52.2799 114.878 53.0422 111.226C54.6267 109.885 56.2671 108.739 57.9634 107.788C79.2575 95.4936 106.22 112.88 120.205 124.033C125.94 128.651 129.464 132.244 129.464 132.244Z" fill="#00C4F6"/>
<path d="M116.749 138.348C108.08 168.079 87.8937 218.4 53.6459 232.034C19.4486 245.682 12.8453 235.426 32.5093 213.884C52.9847 191.533 59.4535 142.78 61.1541 118.479C62.8413 94.2281 116.749 138.348 116.749 138.348Z" fill="#A8E1FF"/>
<path opacity="0.2" d="M129.466 132.247C128.403 135.205 127.192 138.718 125.899 142.534C112.902 151.7 95.4304 154.37 80.3457 149.139C67.2746 144.664 56.4538 134.413 50.8017 121.817C51.5345 118.41 52.282 114.881 53.0443 111.229C54.6289 109.888 56.2692 108.742 57.9655 107.791C79.4548 109.495 100.954 114.391 120.207 124.036C125.943 128.654 129.466 132.247 129.466 132.247Z" fill="#1C7FB3"/>
<path d="M51.4974 190.217C50.0409 193.233 48.497 196.17 46.7513 199.054C45.2012 201.611 43.035 204.653 42.3656 207.554C42.1863 208.425 43.0733 209.149 43.8406 208.706C46.5264 207.156 48.7368 203.748 50.2635 201.076C51.9993 198.028 53.4459 194.848 54.7044 191.563C55.47 189.714 52.3504 188.446 51.4974 190.217Z" fill="#E0F5FF"/>
<path d="M37.5225 213.929C36.8857 214.894 36.2489 215.858 35.7499 216.914C35.2779 217.868 34.7185 218.746 34.7004 219.822C34.6625 220.568 35.4559 220.835 36.0549 220.617C37.1014 220.141 37.6743 219.213 38.4219 218.441C39.1965 217.567 39.8198 216.653 40.507 215.702C41.7671 213.823 38.7691 212.101 37.5225 213.929Z" fill="#E0F5FF"/>
<path d="M111.665 37.0932C112.17 36.4178 112.891 35.746 113.711 35.9117C114.582 36.091 114.957 37.1106 115.145 38.0256C116.02 42.4225 116.476 46.9769 116.501 51.5241L104.824 48.5033C106.614 44.4426 108.882 40.6179 111.665 37.0932Z" fill="#00C4F6"/>
<path d="M53.3153 119.081C68.4705 132.925 100.545 142.33 122.65 138.307C142.417 134.739 148.11 121.562 142.999 109.165C141.295 105.033 140.954 100.455 142.167 96.1318C148.274 74.1466 133.509 52.1903 110.663 46.0687C86.2394 39.5786 63.0295 53.5757 58.3843 73.7363C57.3095 78.151 54.8495 82.0865 51.2811 84.9141C41.2053 92.8629 39.3561 106.421 53.3153 119.081Z" fill="#00C4F6"/>
<path d="M123.182 93.1526C128.679 94.6255 131.928 100.253 130.455 105.75C128.995 111.197 123.368 114.446 117.871 112.973C112.424 111.513 109.175 105.886 110.635 100.439C112.108 94.942 117.735 91.6931 123.182 93.1526Z" fill="white"/>
<path fill-rule="evenodd" clip-rule="evenodd" d="M117.723 113.528C111.974 111.987 108.54 106.04 110.081 100.291C111.621 94.5415 117.582 91.0575 123.331 92.5981C129.131 94.1521 132.514 100.086 131.024 105.848C129.47 111.648 123.523 115.082 117.774 113.541C117.774 113.541 117.757 113.537 117.723 113.528ZM123.034 93.7076C117.89 92.3292 112.532 95.38 111.19 100.588C109.812 105.732 112.876 111.04 118.02 112.418C118.02 112.418 118.037 112.423 118.071 112.432C120.542 113.094 123.169 112.771 125.407 111.479C127.645 110.186 129.239 108.073 129.914 105.551C131.293 100.407 128.229 95.0995 123.034 93.7076Z" fill="black"/>
<path d="M111.021 101.408C109.99 105.457 112.353 109.549 116.388 110.63C120.422 111.711 124.579 109.312 125.61 105.263C126.677 101.279 124.328 97.1362 120.293 96.0552C118.175 95.4876 116.015 95.8819 114.262 96.9796C116.492 99.1448 117.616 101.608 116.714 102.555C115.825 103.452 113.444 102.652 111.261 100.716C111.164 100.942 111.084 101.173 111.021 101.408Z" fill="black"/>
<path d="M75.1993 80.5689C80.829 80.9422 85.0776 85.8644 84.7043 91.4941C84.3174 97.1742 79.3952 101.423 73.7151 101.036C68.0854 100.663 63.8368 95.7404 64.2236 90.0603C64.597 84.4307 69.5192 80.182 75.1993 80.5689Z" fill="white"/>
<path fill-rule="evenodd" clip-rule="evenodd" d="M71.6638 101.243C65.9145 99.7025 62.4809 93.7555 64.0215 88.0061C65.5116 82.2433 71.4586 78.8098 77.2584 80.3638C83.0077 81.9043 86.4548 87.8009 84.9007 93.6007C83.3602 99.3501 77.4636 102.797 71.6638 101.243ZM76.9746 81.4229C71.78 80.031 66.4589 83.1458 65.0806 88.2899C63.7022 93.4341 66.8034 98.8056 71.9476 100.184C77.1557 101.525 82.4632 98.4611 83.8416 93.3169C84.5173 90.7953 84.1438 88.1547 82.8516 85.9165C81.5594 83.6784 79.4458 82.0851 76.9746 81.4229Z" fill="black"/>
<path d="M68.9497 90.1878C67.8686 94.2224 70.2819 98.3285 74.3166 99.4096C78.3008 100.477 82.4573 98.0774 83.5383 94.0427C84.6059 90.0585 82.2061 85.902 78.1715 84.8209C76.0533 84.2534 73.8936 84.6477 72.1905 85.7589C74.4211 87.9241 75.4944 90.3739 74.5919 91.3212C73.7534 92.2317 71.3731 91.4317 69.1893 89.4952C69.0927 89.7216 69.0128 89.9524 68.9497 90.1878Z" fill="black"/>
<path d="M95.6019 49.222C91.6428 49.6747 87.8511 50.7127 84.2638 52.4002C82.5139 53.2826 80.8377 54.293 79.4102 55.5861C78.0601 56.7919 76.3164 58.0544 75.7795 59.8565C75.5362 60.7643 76.3962 61.5893 77.2743 61.3381C78.8522 60.8961 80.0781 59.5488 81.4849 58.7366C82.9692 57.837 84.4535 56.9375 86.0251 56.1153C89.1819 54.4207 92.607 53.3384 96.0987 52.8146C98.1305 52.4941 97.6706 48.9655 95.6019 49.222Z" fill="#A8E1FF"/>
<path d="M71.7884 64.4644C70.5589 66.0269 68.8044 67.9351 68.8825 70.0642C68.9356 70.673 69.5138 70.936 69.9983 70.7415C71.8356 69.9365 72.9111 67.7382 74.1271 66.2262C75.3836 64.5629 73.0584 62.7507 71.7884 64.4644Z" fill="#A8E1FF"/>
<path d="M105.075 105.867C105.3 106.036 132.561 113.232 132.561 113.232L120.872 119.938L108.819 116.708L105.075 105.867Z" fill="#00C4F6"/>
<path d="M130.999 113.409L107.598 107.139C107.296 107.058 107.111 106.738 107.192 106.436C107.273 106.133 107.593 105.948 107.896 106.03L131.296 112.3C131.549 112.367 131.733 112.687 131.652 112.99C131.571 113.292 131.251 113.477 130.999 113.409Z" fill="black"/>
<path d="M57.8174 93.2051C58.0425 93.3735 85.3033 100.57 85.3033 100.57L73.6651 107.289L61.5612 104.046L57.8174 93.2051Z" fill="#00C4F6"/>
<path d="M83.7433 100.749L60.3424 94.4789C60.0398 94.3978 59.8552 94.0781 59.9363 93.7755C60.0174 93.4729 60.3371 93.2883 60.6397 93.3693L84.0406 99.6396C84.3432 99.7207 84.5278 100.04 84.4467 100.343C84.3656 100.646 84.0459 100.83 83.7433 100.749Z" fill="black"/>
<path d="M111.444 88.5463C111.642 89.6262 113.663 89.1409 116.166 88.6764C118.669 88.2119 120.738 87.9554 120.527 86.926C120.33 85.8462 117.961 84.4005 115.458 84.865C112.968 85.279 111.247 87.4665 111.444 88.5463Z" fill="#00B0DF"/>
<path d="M83.0557 76.6719C82.3451 77.5085 83.9445 78.802 85.8662 80.5061C87.7376 82.1967 89.2324 83.6783 89.9296 82.8921C90.6402 82.0555 90.3441 79.3276 88.4728 77.6369C86.5646 75.8824 83.8033 75.8993 83.0557 76.6719Z" fill="#00B0DF"/>
<path d="M52.963 118.986C68.7296 133.373 101.797 142.503 123.492 137.992C127.629 134.452 129.29 129.87 128.787 125.897C128.41 122.661 126.436 119.538 123.458 118.145C118.268 115.728 111.024 118.759 106.696 114.735C102.93 111.239 99.167 108.339 93.9958 107.062C88.875 105.798 84.082 106.135 79.1465 107.407C73.5248 108.82 68.6152 102.531 62.9117 102.03C59.6362 101.747 56.3651 103.465 54.4213 106.079C52.0633 109.231 51.2235 113.979 52.963 118.986Z" fill="#A8E1FF"/>
<path d="M77.8091 108.778C77.6578 108.738 77.5335 108.596 77.4092 108.455C77.3255 108.162 77.4201 107.809 77.7263 107.675C82.7537 105.455 88.4852 105.044 93.7942 106.413C93.8278 106.422 93.8446 106.426 93.8446 106.426C99.1905 107.859 103.885 111.117 107.142 115.503C107.34 115.772 107.296 116.139 107.04 116.287C106.771 116.485 106.405 116.44 106.257 116.185C103.124 111.94 98.5906 108.887 93.4969 107.522C88.4536 106.171 82.9878 106.598 78.2026 108.722C78.0748 108.795 77.9436 108.814 77.8091 108.778Z" fill="#00B0DF"/>
<path d="M86.6759 131.153C83.8012 130.383 81.1121 129.122 78.7598 127.41C78.4843 127.228 78.4141 126.885 78.5825 126.66C78.8149 126.398 79.158 126.328 79.3832 126.496C83.7752 129.673 89.3092 131.21 94.6607 130.806C94.9903 130.786 95.2524 131.019 95.2722 131.348C95.3055 131.627 95.0731 131.89 94.7939 131.923C92.0795 132.168 89.2984 131.856 86.6759 131.153Z" fill="#1475A8"/>
<path d="M93.7038 110.175C90.9065 109.317 86.1757 108.211 83.7448 110.425C83.0243 111.097 83.4871 112.194 84.3309 112.474C85.6017 112.977 87.0652 112.558 88.4206 112.543C89.9913 112.531 91.4845 112.607 92.974 112.898C94.7662 113.27 95.4419 110.748 93.7038 110.175Z" fill="#E0F5FF"/>
<path d="M80.8255 122.126C80.6238 122.072 80.4491 121.917 80.4158 121.637C80.3825 121.358 80.6149 121.096 80.894 121.063C88.7717 120.309 96.6511 120.961 104.294 122.9C104.596 122.981 104.781 123.301 104.7 123.604C104.619 123.906 104.299 124.091 103.996 124.01C96.5051 122.111 88.777 121.499 81.0272 122.18C80.96 122.162 80.8928 122.144 80.8255 122.126Z" fill="black"/>
<path d="M63.5911 199.35C68.1428 198.299 72.221 196.797 76.2865 194.535C81.522 181.452 84.7572 167.562 85.8671 153.535C84.0281 152.934 81.846 152.404 80.007 151.803C76.8709 164.314 71.4518 176.267 63.9929 186.755C63.8935 191.161 63.6905 194.944 63.5911 199.35Z" fill="#F037A5"/>
<path fill-rule="evenodd" clip-rule="evenodd" d="M63.4559 199.851C63.3551 199.824 63.2755 199.784 63.2173 199.733C63.0795 199.642 63.0192 199.463 63.0093 199.299C63.059 197.096 63.1322 195.007 63.2287 193.033C63.2883 190.995 63.3614 188.907 63.4112 186.704C63.4382 186.603 63.482 186.506 63.5427 186.415C70.8196 176.202 76.3531 164.226 79.4892 151.715C79.4793 151.55 79.6207 151.425 79.7486 151.352C79.8764 151.278 80.0548 151.217 80.1926 151.308C81.1003 151.552 82.109 151.822 83.1041 152.143C84.0624 152.399 85.1215 152.683 86.0157 152.977C86.2679 153.044 86.4156 153.3 86.3984 153.566C85.312 167.707 82.0902 181.547 76.8277 194.731C76.7581 194.856 76.6806 194.944 76.5954 194.993C72.4794 197.242 68.3878 198.794 63.7216 199.868C63.6118 199.874 63.5232 199.869 63.4559 199.851ZM64.5342 186.95C64.5115 189.053 64.4015 191.077 64.3554 193.065C64.2625 194.824 64.1929 196.697 64.1739 198.584C68.3825 197.603 72.1174 196.172 75.8497 194.145C80.9807 181.249 84.1718 167.726 85.2781 153.914C84.4711 153.698 83.6273 153.418 82.7699 153.188C82.0134 152.986 81.1561 152.756 80.4131 152.503C77.2536 164.899 71.7472 176.775 64.5342 186.95Z" fill="#6B1B3D"/>
<path d="M78.8488 154.517L86.0814 155.969C87.0667 156.125 88.0259 155.571 88.3331 154.626L90.2879 148.339C90.6357 147.243 89.9711 146.092 88.8481 145.845L80.1258 144.103C78.9893 143.906 77.9121 144.699 77.8165 145.862L77.2504 152.413C77.1953 153.426 77.877 154.311 78.8488 154.517Z" fill="#F037A5"/>
<path fill-rule="evenodd" clip-rule="evenodd" d="M78.5466 155.032C77.3866 154.721 76.6077 153.593 76.7168 152.379L77.2829 145.828C77.3073 145.132 77.6982 144.48 78.2503 144.033C78.8024 143.587 79.5392 143.46 80.2587 143.598L88.9441 145.277C89.6636 145.416 90.2517 145.844 90.6209 146.483C90.9901 147.123 91.0666 147.846 90.827 148.538L88.8856 154.775C88.4973 156.022 87.2184 156.761 85.9945 156.487L78.6979 155.072C78.6643 155.063 78.6138 155.05 78.5466 155.032ZM88.7981 146.427C88.7645 146.418 88.7308 146.409 88.6972 146.4L80.0254 144.671C79.6589 144.627 79.2653 144.684 78.932 144.919C78.5988 145.154 78.3898 145.53 78.3961 145.91L77.8299 152.461C77.7416 153.194 78.2252 153.81 78.9448 153.949L86.1774 155.401C86.897 155.539 87.55 155.12 87.7896 154.427L89.7814 148.204C89.8895 147.801 89.8328 147.407 89.6617 147.037C89.4636 146.768 89.1511 146.522 88.7981 146.427Z" fill="#6B1B3D"/>
<path d="M71.3068 136.872L85.6483 144.877L76.8955 151.721L66.3568 139.005L71.3068 136.872Z" fill="white"/>
<path fill-rule="evenodd" clip-rule="evenodd" d="M76.7462 152.278C76.6453 152.251 76.5535 152.191 76.4706 152.096L65.9319 139.381C65.8076 139.239 65.7608 139.011 65.8013 138.859C65.8419 138.708 65.9968 138.533 66.1247 138.459L71.0611 136.377C71.2394 136.316 71.4043 136.306 71.5925 136.411L85.934 144.416C86.0718 144.507 86.196 144.648 86.1924 144.864C86.2023 145.028 86.1482 145.23 86.0068 145.354L77.2541 152.198C77.1127 152.323 76.8975 152.319 76.7462 152.278ZM67.2774 139.201L76.9967 150.94L84.6451 144.99L71.2952 137.521L67.2774 139.201Z" fill="#1475A8"/>
<path d="M102.054 145.385L85.6481 144.881L89.6279 155.245L105.21 149.744L102.054 145.385Z" fill="white"/>
<path fill-rule="evenodd" clip-rule="evenodd" d="M89.4775 155.797C89.3262 155.757 89.2019 155.615 89.128 155.487L85.1113 145.06C85.0375 144.932 85.0916 144.73 85.196 144.542C85.287 144.404 85.4788 144.293 85.6806 144.347L102.1 144.801C102.251 144.841 102.402 144.882 102.513 145.074L105.683 149.383C105.807 149.524 105.817 149.689 105.763 149.891C105.722 150.042 105.581 150.166 105.402 150.226L89.8071 155.777C89.6882 155.818 89.5783 155.824 89.4775 155.797ZM86.4595 145.475L89.9801 154.526L104.314 149.448L101.738 145.947L86.4595 145.475Z" fill="#1475A8"/>
</svg>
