<svg width="210" height="230" viewBox="0 0 210 230" fill="none" xmlns="http://www.w3.org/2000/svg">
<path d="M112.027 140.92C136.52 140.92 156.315 160.765 156.315 185.208C156.315 209.652 136.52 229.496 112.027 229.496C87.5837 229.496 67.7891 209.652 67.7891 185.208C67.7891 160.765 87.5837 140.92 112.027 140.92Z" fill="#B8E6FF"/>
<path d="M196.455 149.019C201.553 149.019 205.702 153.168 205.702 158.316C205.702 163.415 201.553 167.564 196.455 167.564C191.306 167.564 187.157 163.415 187.157 158.316C187.157 153.168 191.306 149.019 196.455 149.019Z" fill="#B8E6FF"/>
<path d="M154.166 151.318C163.363 151.318 170.811 158.766 170.811 167.964C170.811 177.161 163.363 184.559 154.166 184.559C144.968 184.559 137.521 177.161 137.521 167.964C137.521 158.766 144.968 151.318 154.166 151.318Z" fill="#B8E6FF"/>
<path d="M167.162 176.761C181.459 176.761 193.055 188.358 193.055 202.654C193.055 216.95 181.459 228.547 167.162 228.547C152.866 228.547 141.27 216.95 141.27 202.654C141.27 188.358 152.866 176.761 167.162 176.761Z" fill="#B8E6FF"/>
<path d="M168.662 68.7901C166.212 103.93 166.712 218.449 84.8844 219.699C55.5425 220.099 25.9506 186.058 47.1448 192.956C97.0311 209.252 99.2805 179.06 92.7823 84.7357C113.627 53.6942 168.662 68.7901 168.662 68.7901Z" fill="#00C4F6"/>
<mask id="mask0_369_2634" style="mask-type:luminance" maskUnits="userSpaceOnUse" x="39" y="65" width="130" height="155">
<path d="M168.652 68.7808C166.227 103.956 166.737 218.445 84.8844 219.675C55.5474 220.119 25.9505 186.034 47.1697 192.962C97.0411 209.232 99.2755 179.051 92.7723 84.7515C113.637 53.6949 168.652 68.7808 168.652 68.7808Z" fill="white"/>
</mask>
<g mask="url(#mask0_369_2634)">
<path d="M158.964 82.9373C160.463 116.828 152.066 173.063 124.523 194.307C96.9807 215.501 88.3331 207.903 100.63 183.31C113.426 157.667 106.728 111.729 101.979 89.2356C97.2807 66.7417 158.964 82.9373 158.964 82.9373Z" fill="#A8E1FF"/>
</g>
<mask id="mask1_369_2634" style="mask-type:luminance" maskUnits="userSpaceOnUse" x="39" y="65" width="130" height="155">
<path d="M168.652 68.7808C166.227 103.956 166.737 218.445 84.8844 219.675C55.5474 220.119 25.9505 186.034 47.1697 192.962C97.0411 209.232 99.2755 179.051 92.7723 84.7515C113.637 53.6949 168.652 68.7808 168.652 68.7808Z" fill="white"/>
</mask>
<g mask="url(#mask1_369_2634)">
<path opacity="0.6" d="M86.4346 92.9848C96.2819 106.581 113.827 114.179 130.473 112.13C147.168 110.13 162.364 98.5333 168.662 82.9875C169.712 80.4382 167.462 70.391 165.063 69.0913C162.714 67.7417 160.014 74.5398 157.315 74.4399C135.771 73.5901 114.327 78.3888 94.2824 86.2866C91.0333 87.5363 87.2344 89.5857 86.4346 92.9848Z" fill="#1C7FB3"/>
</g>
<path d="M111.777 156.868C111.227 159.967 110.577 163.016 109.727 166.065C108.978 168.814 107.828 172.163 107.928 174.963C107.978 175.762 108.978 176.262 109.578 175.662C111.627 173.563 112.727 169.914 113.426 167.115C114.226 163.866 114.726 160.617 115.026 157.267C115.226 155.418 112.077 155.018 111.777 156.868Z" fill="#E0F5FF"/>
<path d="M105.179 182.01C104.829 183.06 104.529 184.06 104.329 185.16C104.129 186.159 103.879 187.109 104.129 188.109C104.329 188.759 105.079 188.858 105.579 188.459C106.379 187.809 106.679 186.809 107.128 185.909C107.628 184.91 107.978 183.91 108.328 182.86C108.978 180.861 105.829 180.011 105.179 182.01Z" fill="#E0F5FF"/>
<path d="M45.0953 192.558C48.0445 188.959 49.944 181.661 48.5444 174.213C46.6449 164.165 38.797 155.318 33.7484 152.419C28.5498 159.517 26.7503 169.064 28.6498 179.111C30.5493 189.159 35.098 197.106 39.7468 196.207L45.0953 192.558Z" fill="#00C4F6"/>
<path d="M35.6478 184.008C33.7983 183.059 31.6989 182.209 29.4495 181.659C28.1165 181.359 26.7502 181.143 25.3506 181.009C15.1534 180.11 4.55627 185.208 0.357422 189.307C5.75595 196.255 14.5035 200.554 24.6508 201.454C32.6986 202.153 39.5967 199.104 42.246 195.605L35.6478 184.008Z" fill="#00C4F6"/>
<path d="M29.0504 185.008C25.5513 184.359 20.7027 182.809 17.6535 185.408C17.2536 185.758 17.5035 186.408 17.9534 186.558C19.653 186.958 21.4025 186.708 23.102 186.658C25.0015 186.658 26.9009 186.608 28.8004 186.658C29.7502 186.708 30.0001 185.158 29.0504 185.008Z" fill="#A8E1FF"/>
<path d="M12.2541 186.258C11.8043 186.458 11.3044 186.608 10.8045 186.758C10.2547 186.958 9.80481 187.307 9.30494 187.607C8.80508 187.907 8.55515 188.607 8.80508 189.157C9.05501 189.757 9.65486 189.957 10.2547 189.857C10.5546 189.823 10.8545 189.79 11.1544 189.757C10.9212 189.757 10.6712 189.757 10.4046 189.757C11.3544 189.957 12.2042 189.457 13.0539 189.157C13.8037 188.857 14.3536 188.157 14.1037 187.307C13.9037 186.558 13.0539 186.008 12.2541 186.258Z" fill="#A8E1FF"/>
<path d="M115.426 1.30869C114.976 0.658865 114.376 -0.0909482 113.576 0.00902444C112.726 0.108997 112.326 1.10875 112.077 1.90853C110.927 6.00741 110.177 10.2562 109.827 14.5551L121.024 12.5556C119.674 8.60669 117.775 4.80773 115.426 1.30869Z" fill="#51AEE0"/>
<path d="M175.41 61.2434C176.909 69.3912 172.361 77.0891 163.913 83.2874C156.065 89.0858 145.468 96.8837 132.671 99.283C120.075 101.632 107.528 98.1833 98.1809 95.734C87.8338 93.0347 80.6357 87.4363 79.0861 79.2385C78.3363 75.0896 79.0861 70.8908 81.1356 66.8419C83.035 63.0929 83.6849 58.7941 82.8351 54.6452C82.8018 54.4786 82.7685 54.2953 82.7351 54.0954C78.9362 33.7509 93.8821 13.9064 116.126 9.75749C138.32 5.60863 159.414 18.7551 163.213 39.0495C163.246 39.2161 163.28 39.3827 163.313 39.5494C164.063 43.7982 166.062 47.6971 169.211 50.5464C172.461 53.5955 174.66 57.1945 175.41 61.2434Z" fill="#00C4F6"/>
<path d="M165.913 79.2886C165.663 80.3883 165.313 81.538 164.863 82.5877C164.563 82.821 164.246 83.0543 163.913 83.2875C156.565 88.6861 146.768 95.8841 135.021 98.7333C134.854 98.7999 134.671 98.8499 134.471 98.8833C134.071 98.9832 133.671 99.0666 133.271 99.1332C133.072 99.1998 132.872 99.2498 132.672 99.2832C132.472 99.3165 132.272 99.3498 132.072 99.3831C131.672 99.4498 131.289 99.5164 130.922 99.5831C118.875 101.283 107.079 98.0835 98.1811 95.7341C97.8146 95.6341 97.448 95.5342 97.0814 95.4342C96.1817 94.5844 95.3819 93.5847 94.7321 92.535C93.1325 89.9357 92.3327 86.7366 92.9326 83.6874C93.5324 80.6882 95.6318 77.889 98.531 76.7893C101.08 75.8396 103.93 76.1895 106.679 76.3394C109.378 76.5394 112.377 76.4894 114.527 74.7898C118.326 71.7407 122.125 69.2913 127.023 68.4416C131.972 67.6418 136.421 68.2416 141.019 69.8412C143.619 70.691 146.468 69.6412 148.967 68.4916C151.417 67.3419 153.966 65.9423 156.665 65.9423C159.764 65.9423 162.763 67.7418 164.413 70.3411C166.063 72.9903 166.462 76.2395 165.913 79.2886Z" fill="#A8E1FF"/>
<path d="M109.978 39.3984C110.578 40.1982 108.978 41.3479 107.079 42.7975C105.179 44.2971 103.679 45.5467 103.08 44.7469C102.43 43.9472 102.93 41.3979 104.829 39.8983C106.729 38.4487 109.328 38.5986 109.978 39.3984Z" fill="#156894"/>
<path d="M137.62 38.9979C137.42 39.9976 135.52 39.4978 133.171 38.9979C130.822 38.498 128.872 38.1981 129.122 37.1984C129.322 36.1987 131.622 34.8991 133.971 35.3989C136.32 35.8988 137.87 38.0482 137.62 38.9979Z" fill="#156894"/>
<path d="M114.476 76.2383C114.343 76.2383 114.226 76.205 114.126 76.1384C113.927 75.9384 113.877 75.6385 114.077 75.4386C117.476 71.4896 122.174 68.7904 127.273 67.8406C132.371 66.8909 137.72 67.7407 142.319 70.19C142.569 70.29 142.619 70.5899 142.519 70.8398C142.369 71.0897 142.069 71.1897 141.819 71.0398C137.47 68.6904 132.322 67.9406 127.473 68.8404C122.574 69.7401 118.075 72.3394 114.826 76.0884C114.726 76.1883 114.576 76.2383 114.476 76.2383Z" fill="#1876A8"/>
<path d="M120.175 84.0362C114.777 84.0362 110.328 82.5366 105.179 78.3877C104.979 78.1878 104.929 77.8879 105.129 77.6879C105.279 77.488 105.579 77.438 105.829 77.5879C113.327 83.6863 119.375 83.8362 129.323 81.9867C140.42 79.9373 146.518 76.0884 149.067 69.4902C149.167 69.2402 149.467 69.0903 149.717 69.1903C149.967 69.2902 150.117 69.5901 150.017 69.8401C146.518 78.7376 137.22 81.5369 129.523 82.9865C126.024 83.6363 122.974 84.0362 120.175 84.0362Z" fill="black"/>
<path d="M152.616 71.041C152.483 71.041 152.383 71.0077 152.317 70.941C151.017 69.8413 147.918 69.0916 145.768 70.3912C145.568 70.5412 145.219 70.4911 145.119 70.2412C144.969 69.9913 145.019 69.6914 145.268 69.5414C147.918 67.9419 151.417 68.8916 152.966 70.1912C153.166 70.3412 153.166 70.6411 153.016 70.8911C152.916 70.991 152.766 71.041 152.616 71.041Z" fill="black"/>
<path d="M102.93 81.2384C102.863 81.2384 102.796 81.2218 102.73 81.1885C102.48 81.0885 102.38 80.7886 102.48 80.5386C103.279 78.8391 104.379 77.5894 105.629 76.9396C106.978 76.2398 108.528 76.1898 109.978 76.1898C110.278 76.1898 110.478 76.4398 110.478 76.6897C110.478 76.9896 110.228 77.1895 109.978 77.1895C108.628 77.1895 107.228 77.2395 106.079 77.8394C105.029 78.3892 104.079 79.4889 103.379 80.9385C103.329 81.1385 103.13 81.2384 102.93 81.2384Z" fill="black"/>
<path d="M131.622 99.832C129.523 99.832 127.323 98.9322 125.074 97.1327C124.874 96.9328 124.824 96.6329 125.024 96.3829C125.174 96.183 125.474 96.133 125.724 96.3329C128.273 98.3824 130.672 99.1821 132.872 98.7323C135.171 98.2324 137.22 96.3829 138.87 93.2338C138.97 92.9838 139.27 92.8839 139.52 93.0338C139.77 93.1338 139.87 93.4337 139.72 93.6837C137.92 97.1327 135.671 99.1322 133.072 99.682C132.605 99.782 132.122 99.832 131.622 99.832Z" fill="#1876A8"/>
<path d="M140.37 79.188C135.971 86.436 137.171 94.0839 131.872 95.5335C126.524 97.0331 123.374 88.5854 117.076 83.4368C121.925 83.6368 125.274 83.2369 129.423 82.4871C133.572 81.6873 135.771 81.1874 140.37 79.188Z" fill="#731D31"/>
<path fill-rule="evenodd" clip-rule="evenodd" d="M130.622 96.2345C127.623 96.2345 125.274 93.3353 122.575 90.0362C120.925 87.9868 119.025 85.6374 116.776 83.7879C116.576 83.6879 116.526 83.438 116.626 83.238C116.676 83.0381 116.876 82.8881 117.126 82.9381C121.925 83.1381 125.224 82.7382 129.323 81.9884C133.522 81.2386 135.671 80.6887 140.17 78.7393C140.37 78.6393 140.62 78.6893 140.77 78.8392C140.92 78.9892 140.92 79.2391 140.82 79.4391C139.07 82.3383 138.22 85.3375 137.47 87.9368C136.371 91.7857 135.421 95.0848 131.972 96.0346C131.505 96.1679 131.056 96.2345 130.622 96.2345ZM118.476 83.9878C120.325 85.6874 121.925 87.6369 123.374 89.3864C126.324 93.0354 128.623 95.9346 131.722 95.0848C134.621 94.285 135.421 91.4858 136.471 87.6868C137.171 85.3875 137.87 82.7882 139.22 80.1889C135.471 81.7884 133.222 82.2883 129.523 82.9881C125.774 83.6879 122.675 84.0878 118.476 83.9878Z" fill="black"/>
<mask id="mask2_369_2634" style="mask-type:luminance" maskUnits="userSpaceOnUse" x="117" y="79" width="24" height="17">
<path d="M140.385 79.1726C135.981 86.4606 137.185 94.0835 131.852 95.5481C126.518 97.0127 123.389 88.56 117.086 83.4214C121.95 83.6564 125.274 83.2565 129.418 82.4817C133.561 81.7119 135.786 81.1871 140.385 79.1726Z" fill="white"/>
</mask>
<g mask="url(#mask2_369_2634)">
<path d="M142.019 92.8327C138.37 88.3339 134.121 86.3844 130.572 87.4341C126.973 88.5338 124.074 92.6327 122.624 98.6811C123.424 100.531 124.324 101.48 125.423 101.78C131.922 103.63 137.77 99.7308 142.019 92.8327Z" fill="#CF2746"/>
</g>
<path d="M130.172 16.6039C133.471 17.4037 136.571 18.7033 139.42 20.5028C140.77 21.4026 142.069 22.3523 143.369 23.2521C144.668 24.2018 145.718 25.4515 147.218 26.0513C148.067 26.4012 148.767 25.4015 148.617 24.6517C148.217 22.9522 146.718 21.6525 145.568 20.4529C144.319 19.1532 142.869 18.1035 141.369 17.1538C138.22 15.3043 134.671 14.0046 131.072 13.3048C128.923 12.8549 127.973 16.104 130.172 16.6039Z" fill="#A8E1FF"/>
<path d="M149.567 30.6499C150.167 31.5497 150.716 32.4494 151.266 33.3491C151.766 34.0989 152.466 35.0487 153.266 35.4486C153.666 35.5985 154.215 35.4986 154.315 34.9987C154.715 32.9992 153.016 30.8498 152.016 29.2503C151.016 27.7507 148.617 29.1503 149.567 30.6499Z" fill="#A8E1FF"/>
<path d="M128.223 73.3893C129.672 73.2393 131.122 73.2393 132.621 73.3893C134.021 73.4892 135.371 73.9891 136.72 73.5892C137.57 73.3892 137.87 72.2896 137.27 71.6397C135.071 69.4903 130.572 70.1901 127.823 70.79C126.423 71.1399 126.673 73.5892 128.223 73.3893Z" fill="#E0F5FF"/>
<path d="M154.666 45.8959C153.066 43.6465 150.167 42.4968 147.768 43.3466C145.368 44.2463 143.769 47.2455 144.419 49.9448C144.019 47.1955 141.419 44.9961 138.87 45.0961C136.271 45.1961 134.071 47.3455 133.372 50.0448C132.722 52.744 133.522 55.7432 135.221 57.9426C137.62 60.9918 144.119 64.0909 147.468 65.4905C150.017 62.9412 154.866 57.6427 155.965 53.8937C156.715 51.2444 156.315 48.1453 154.666 45.8959Z" fill="#F037A5"/>
<path fill-rule="evenodd" clip-rule="evenodd" d="M147.468 65.9902C147.401 65.9902 147.334 65.9735 147.268 65.9402C145.018 64.9905 137.52 61.6913 134.821 58.2423C132.972 55.8429 132.222 52.6438 132.922 49.9446C133.621 46.9454 136.121 44.696 138.82 44.596C140.819 44.546 142.769 45.6457 143.919 47.3453C144.368 45.3458 145.718 43.5963 147.618 42.8965C150.167 41.9968 153.316 43.1464 155.116 45.5958C156.765 47.8951 157.265 51.1443 156.415 54.0435C155.216 58.2423 149.517 64.1407 147.818 65.8402C147.718 65.9402 147.601 65.9902 147.468 65.9902ZM139.02 45.5958C138.987 45.5958 138.937 45.5958 138.87 45.5958C136.621 45.6957 134.521 47.5952 133.871 50.1445C133.272 52.5939 133.921 55.4431 135.621 57.6425C138.02 60.7416 144.818 63.8408 147.318 64.8905C149.267 62.991 154.366 57.5425 155.465 53.7435C156.215 51.1442 155.765 48.245 154.266 46.1956C152.766 44.0462 150.067 43.0964 147.967 43.8462C145.718 44.646 144.318 47.4452 144.918 49.8446C144.968 49.9446 144.918 50.0945 144.868 50.2445C144.768 50.3445 144.668 50.4444 144.518 50.4444C144.368 50.4444 144.219 50.4444 144.119 50.3445C144.019 50.2945 143.919 50.1445 143.919 50.0446C143.569 47.6452 141.319 45.5958 139.02 45.5958Z" fill="#6B1B3D"/>
<path d="M149.217 47.8963C150.317 48.3461 151.116 49.1959 151.716 50.1456C152.216 50.9954 152.616 51.9451 153.416 52.5949C153.616 52.7449 154.016 52.7449 154.215 52.495C155.265 51.2953 154.765 49.7457 153.916 48.696C152.916 47.4464 151.466 46.7965 149.817 46.5466C148.967 46.3967 148.367 47.5463 149.217 47.8963Z" fill="#FF75AF"/>
<path d="M112.876 54.4428C111.227 52.1934 108.378 51.0437 105.928 51.8935C103.529 52.7932 101.929 55.7924 102.579 58.4916C102.179 55.6924 99.58 53.543 97.0307 53.643C94.4814 53.743 92.2321 55.8924 91.5822 58.5916C90.8824 61.2409 91.6822 64.2901 93.3817 66.4895C95.7811 69.5386 102.279 72.6378 105.628 74.0374C108.178 71.4881 113.026 66.1895 114.126 62.4406C114.876 59.7913 114.476 56.6921 112.876 54.4428Z" fill="#DE387D"/>
<path fill-rule="evenodd" clip-rule="evenodd" d="M105.629 74.539C105.562 74.539 105.495 74.5223 105.429 74.489C103.179 73.5393 95.6815 70.2402 92.9822 66.7911C91.1327 64.3918 90.3829 61.1927 91.0827 58.4434C91.8325 55.4942 94.2819 53.2449 96.9811 53.1449C98.9806 53.0449 100.93 54.1946 102.08 55.8941C102.53 53.8947 103.879 52.0952 105.779 51.4453C108.328 50.5456 111.477 51.6953 113.277 54.1446C114.926 56.444 115.426 59.6431 114.576 62.5923C113.427 66.7911 107.678 72.6895 105.979 74.3891C105.879 74.489 105.762 74.539 105.629 74.539ZM97.1811 54.1446C97.1478 54.1446 97.0978 54.1446 97.0311 54.1446C94.7817 54.2446 92.6823 56.1441 92.0325 58.6934C91.4326 61.1427 92.1324 63.9919 93.782 66.1913C96.1813 69.2905 103.029 72.3896 105.479 73.4393C107.428 71.5398 112.577 66.0913 113.627 62.2924C114.376 59.6931 113.926 56.7939 112.477 54.7444C110.927 52.595 108.228 51.6453 106.129 52.3951C103.879 53.1949 102.48 55.9941 103.079 58.3934C103.129 58.4934 103.079 58.6434 103.029 58.7433C102.929 58.8933 102.83 58.9433 102.68 58.9933C102.58 58.9933 102.43 58.9933 102.33 58.8933C102.18 58.8433 102.13 58.6934 102.08 58.5434C101.78 56.194 99.4805 54.1446 97.1811 54.1446Z" fill="#961662"/>
<path d="M107.378 56.4438C108.528 56.8936 109.328 57.7434 109.928 58.6931C110.427 59.5429 110.777 60.4927 111.577 61.0925C111.777 61.2924 112.177 61.2924 112.377 61.0425C113.427 59.8428 112.927 58.2932 112.077 57.2435C111.077 55.9939 109.628 55.3441 107.978 55.0442C107.128 54.8942 106.578 56.0939 107.378 56.4438Z" fill="#FF75AF"/>
<path d="M185.107 104.281C160.863 88.3856 165.812 70.8904 160.213 71.9901C157.414 72.5899 155.565 74.9393 154.515 78.4883C150.816 90.9849 157.214 117.378 164.162 131.874C165.262 134.273 165.712 133.923 167.661 135.273C172.11 138.372 193.404 112.379 185.107 104.281Z" fill="#00C4F6"/>
<path opacity="0.3" d="M179.358 127.225C172.46 134.224 169.911 135.473 167.662 135.273C166.512 133.724 165.262 134.274 164.163 131.874C157.864 118.728 151.916 95.7841 153.765 82.2378C154.915 99.833 164.213 118.228 179.358 127.225Z" fill="#1C7FB3"/>
<path d="M180.508 110.93C176.11 106.781 170.761 102.033 168.912 96.0842C168.712 95.3344 169.561 94.9345 170.111 95.3344C172.461 97.0339 174.51 99.3833 176.36 101.583C178.359 103.982 180.409 106.381 182.558 108.631C183.958 110.03 181.958 112.28 180.508 110.93Z" fill="#A8E1FF"/>
<path d="M164.763 91.8847C163.963 90.685 162.364 88.9355 162.913 87.3859C163.013 87.136 163.363 86.936 163.613 86.936C164.463 86.986 165.113 87.6358 165.613 88.2857C166.113 88.9855 166.562 89.7353 167.012 90.4351C168.012 91.8847 165.713 93.3343 164.763 91.8847Z" fill="#A8E1FF"/>
<path d="M75.6868 116.679C98.1806 98.4335 91.4825 81.5382 97.1809 82.088C100.03 82.3379 102.08 84.5373 103.479 87.9364C108.428 99.9831 104.729 126.926 99.3303 142.022C98.4306 144.521 97.9807 144.221 96.1812 145.771C92.0823 149.27 68.2888 125.576 75.6868 116.679Z" fill="#00C4F6"/>
<path opacity="0.3" d="M83.7344 138.972C91.2823 145.17 93.9316 146.22 96.181 145.77C97.1307 144.07 98.4304 144.52 99.3301 142.021C104.229 128.275 107.828 104.881 104.629 91.5848C105.228 109.23 97.8805 128.475 83.7344 138.972Z" fill="#1C7FB3"/>
<path d="M80.9358 122.825C84.9347 118.277 89.7334 112.978 90.933 106.88C91.083 106.13 90.1832 105.78 89.6834 106.28C87.534 108.179 85.7344 110.779 84.1349 113.128C82.3354 115.727 80.5859 118.277 78.6364 120.776C77.4367 122.325 79.6361 124.325 80.9358 122.825Z" fill="#A8E1FF"/>
<path d="M94.6825 102.282C95.3323 101.033 96.7819 99.1332 96.0821 97.6337C95.9321 97.3837 95.5822 97.2338 95.3323 97.2837C94.4825 97.3837 93.8827 98.1335 93.4828 98.7833C93.0329 99.5331 92.683 100.333 92.2831 101.083C91.4333 102.632 93.8827 103.832 94.6825 102.282Z" fill="#A8E1FF"/>
<path d="M197.454 65.8413C198.504 65.3414 199.153 64.3917 198.954 63.3419C198.754 62.2922 197.604 61.0926 196.404 61.2425C197.604 61.2425 198.654 59.9429 198.804 58.8932C198.904 57.8435 198.154 56.9437 197.054 56.5438C196.004 56.0939 194.705 56.3939 193.655 56.9437C192.205 57.7435 190.506 60.1928 189.706 61.4924C190.606 62.6921 192.505 65.0415 194.005 65.6913C195.055 66.1412 196.404 66.3911 197.454 65.8413Z" fill="#F25496"/>
<path d="M175.66 24.7027C175.36 23.7529 174.71 23.1031 173.86 23.1031C172.96 23.1531 171.861 23.9029 171.761 24.9026C171.961 23.9029 171.061 22.8532 170.211 22.6532C169.361 22.4033 168.561 22.8532 168.062 23.7029C167.562 24.5027 167.612 25.6024 167.912 26.5022C168.362 27.8018 170.111 29.5013 171.061 30.3511C172.161 29.8013 174.31 28.5516 175.06 27.4519C175.56 26.6521 175.959 25.6024 175.66 24.7027Z" fill="#F25496"/>
<path d="M209.001 45.3959C209.651 44.6961 209.851 43.7963 209.401 43.0466C208.951 42.2968 207.701 41.7469 206.802 42.1968C207.701 41.8469 208.151 40.5472 207.901 39.6975C207.701 38.8477 206.852 38.4478 205.902 38.3978C204.952 38.3978 204.002 39.0476 203.403 39.7974C202.553 40.8472 202.003 43.2465 201.753 44.4462C202.803 45.096 205.002 46.2957 206.352 46.3456C207.301 46.3956 208.351 46.1457 209.001 45.3959Z" fill="#F25496"/>
<path d="M189.656 40.4981C189.456 38.9485 188.606 37.5989 187.156 37.399C185.707 37.199 183.657 38.1488 183.207 39.6983C183.807 38.1987 182.607 36.1993 181.308 35.5994C180.008 34.9496 178.559 35.4995 177.459 36.6991C176.409 37.8988 176.209 39.6983 176.459 41.2979C176.809 43.4973 179.208 46.8464 180.458 48.4959C182.458 47.8961 186.356 46.4965 187.906 44.8969C189.006 43.7472 189.856 42.0977 189.656 40.4981Z" fill="#F25496"/>
<path d="M52.4932 67.9909C51.3435 68.0409 50.3438 68.6407 50.0939 69.6904C49.8939 70.6902 50.4438 72.2897 51.5935 72.6396C50.4938 72.1398 48.9942 72.8896 48.4443 73.7893C47.8945 74.7391 48.2444 75.8388 49.0441 76.6885C49.8439 77.4883 51.1936 77.7382 52.3433 77.6883C53.9928 77.5383 56.5421 75.9887 57.7918 75.139C57.4918 73.6894 56.6921 70.7901 55.5924 69.5405C54.7926 68.6907 53.6929 67.9409 52.4932 67.9909Z" fill="#F25496"/>
<path d="M71.7385 33.4997C70.9887 32.9498 70.039 32.8499 69.3392 33.3997C68.6894 33.9496 68.2895 35.2992 68.8393 36.099C68.3895 35.2492 67.0398 34.9493 66.24 35.2992C65.3903 35.6491 65.0904 36.4989 65.1903 37.4486C65.2903 38.3984 66.0401 39.2481 66.8399 39.748C67.9896 40.4978 70.4389 40.7477 71.6886 40.7977C72.1884 39.698 73.1382 37.3986 72.9882 36.049C72.9382 35.0993 72.5383 34.0495 71.7385 33.4997Z" fill="#F25496"/>
<path d="M47.1454 47.7966C46.1957 47.5966 45.2959 47.8466 44.896 48.5963C44.4961 49.3961 44.5961 50.7458 45.4459 51.2956C44.6461 50.6958 43.3465 50.9457 42.6966 51.5456C42.0968 52.1454 42.0968 53.0951 42.5966 53.9449C43.0465 54.7947 44.0462 55.2945 44.996 55.4445C46.2956 55.6944 48.695 54.9946 49.8447 54.5947C49.8947 53.3451 49.8946 50.8957 49.2448 49.6961C48.8449 48.8463 48.0951 47.9965 47.1454 47.7966Z" fill="#F25496"/>
<path d="M39.7965 87.2849C39.0967 87.9348 38.7968 88.8345 39.1967 89.5843C39.5966 90.3841 40.7963 91.0339 41.696 90.684C40.7963 90.9339 40.2464 92.2336 40.3963 93.0834C40.5463 93.9331 41.3461 94.433 42.2958 94.533C43.2456 94.6329 44.1953 94.0331 44.8951 93.3833C45.8449 92.4335 46.5947 90.0842 46.9446 88.8845C45.9448 88.1347 43.8954 86.7351 42.5458 86.5851C41.596 86.4852 40.4963 86.6351 39.7965 87.2849Z" fill="#F25496"/>
<path d="M68.6389 52.5446C67.3893 51.5448 65.7897 51.2449 64.64 52.1447C63.4904 52.9944 62.6906 55.1439 63.5403 56.5435C62.8405 55.0939 60.6411 54.544 59.2415 54.9939C57.8919 55.4937 57.2421 56.9433 57.342 58.4929C57.442 60.0925 58.5917 61.5421 59.8913 62.4918C61.7408 63.7915 65.7897 64.4413 67.8392 64.6912C68.7889 62.8417 70.5384 59.0928 70.4884 56.8434C70.4385 55.2938 69.8886 53.4943 68.6389 52.5446Z" fill="#F25496"/>
<path d="M61.9911 85.8858C60.3915 85.6859 58.8919 86.2357 58.3421 87.5853C57.7922 88.935 58.2421 91.1844 59.6917 91.9342V91.9841C58.3421 91.0344 56.1427 91.7342 55.2429 92.8339C54.2932 93.9836 54.4931 95.5332 55.3929 96.8328C56.2926 98.1325 58.0421 98.7823 59.6417 98.9322C61.8911 99.0822 65.6901 97.5326 67.5895 96.6829C67.4396 94.6334 66.9897 90.5345 65.79 88.6351C64.9402 87.2854 63.5406 86.0358 61.9911 85.8858Z" fill="#F25496"/>
</svg>
