<svg width="366" height="359" viewBox="0 0 366 359" fill="none" xmlns="http://www.w3.org/2000/svg">
<path d="M271.186 207.96C311.063 220.708 310.961 247.133 318.303 243.428C322.041 241.524 323.677 237.519 323.726 232.075C324.061 213.256 305.343 177.858 290.131 160.272C287.647 157.407 285.267 155.057 283.078 153.28C278.125 147.242 256.518 199.907 271.186 207.96Z" fill="#00C4F6"/>
<path d="M298.367 179.955C303.543 187.097 309.776 195.326 310.818 204.299C310.879 205.358 309.721 206.052 308.942 205.214C306.032 202.129 303.752 197.999 301.633 194.295C299.456 190.296 297.205 186.313 294.675 182.462C293.337 180.36 296.882 177.883 298.367 179.955Z" fill="#A8E1FF"/>
<path opacity="0.23" d="M271.184 207.961C311.06 220.71 310.958 247.135 318.301 243.43C322.038 241.525 323.675 237.521 323.724 232.077C321.845 231.079 319.424 230.804 317.311 230.16C311.396 228.448 306.914 223.615 303.385 218.589C299.547 213.166 296.457 207.286 294.144 201.096C290.047 190.215 288.297 178.477 289.084 166.837C289.242 164.969 289.766 162.643 290.129 160.274C287.645 157.409 285.265 155.058 283.076 153.282C278.123 147.243 256.516 199.908 271.184 207.961Z" fill="#1C7FB3"/>
<path d="M315.452 211.398C315.982 212.515 316.424 213.574 316.881 214.706C317.234 215.706 317.662 217.074 317.18 218.09C316.843 218.693 316.301 219.033 315.655 218.857C313.527 218.14 312.803 214.919 311.993 213.169C311.065 210.831 314.524 209.06 315.452 211.398Z" fill="#A8E1FF"/>
<path d="M283.708 134.401C281.769 185.459 288.451 329.063 170.288 334.528C127.957 336.511 83.7228 288.444 114.616 297.5C187.424 318.815 189.301 275.04 175.694 138.73C204.455 92.8066 283.708 134.401 283.708 134.401Z" fill="#00C4F6"/>
<path d="M269.658 147.645C270.771 189.973 265.292 264.019 226.4 295.997C187.581 327.96 174.757 317.315 191.434 281.107C208.797 243.383 197.009 177.193 189.194 144.793C181.395 112.467 269.658 147.645 269.658 147.645Z" fill="#A8E1FF"/>
<path opacity="0.2" d="M177.126 153.44C189.647 167.515 207.984 176.356 226.849 176.825C248.633 177.392 270.192 166.6 283.351 149.32C283.444 143.714 283.582 138.711 283.707 134.4C283.707 134.4 277.643 131.188 268.293 127.569C239.285 122.954 209.335 125.417 180.625 132.145C178.829 134.09 177.185 136.285 175.693 138.73C176.19 143.731 176.668 148.635 177.126 153.44Z" fill="#1C7FB3"/>
<path d="M211.092 243.009C210.778 247.895 210.126 252.619 209.092 257.343C208.248 261.494 206.834 266.602 203.876 269.726C203.261 270.463 201.72 270.009 201.66 268.95C201.316 264.963 202.76 260.385 203.648 256.455C204.712 251.877 205.628 247.33 206.295 242.679C206.686 239.692 211.307 239.905 211.092 243.009Z" fill="#E0F5FF"/>
<path d="M202.498 280.33C202.046 281.876 201.579 283.348 200.878 284.791C200.22 286.072 199.899 287.515 198.713 288.444C197.922 289.063 196.938 288.726 196.673 287.785C196.23 286.344 196.771 284.857 196.944 283.444C197.073 281.811 197.54 280.339 198.007 278.866C198.868 275.937 203.359 277.401 202.498 280.33Z" fill="#E0F5FF"/>
<path d="M111.609 296.964C115.737 291.69 118.169 281.019 115.789 270.327C112.581 255.898 100.913 243.412 93.4695 239.407C86.2701 249.895 84.1226 263.876 87.2567 278.319C90.4642 292.748 97.3922 304.051 104.108 302.539L111.609 296.964Z" fill="#00C4F6"/>
<path d="M97.6069 285.023C94.9056 283.733 91.8674 282.664 88.5217 281.963C86.6142 281.584 84.6286 281.322 82.5649 281.178C67.8946 280.32 52.6963 288.217 46.8976 294.289C54.9821 304.133 67.8419 310.026 82.4974 310.811C94.1603 311.512 103.966 306.773 107.654 301.588L97.6069 285.023Z" fill="#00C4F6"/>
<path d="M87.6992 289.245C84.9414 289.191 82.1398 289.299 79.4264 289.465C76.9329 289.587 74.4986 290.003 72.1067 289.492C71.3143 289.346 71.2539 288.287 71.7664 287.801C75.8967 284.056 82.9997 285.987 87.8857 286.758C89.4557 286.976 89.2981 289.228 87.6992 289.245Z" fill="#A8E1FF"/>
<path d="M65.5649 293.417C64.8613 293.712 64.1528 293.983 63.4393 294.23C62.7357 294.525 61.8995 294.541 61.093 294.704C58.952 295.061 58.2728 292.443 59.8846 291.352C60.5001 290.998 61.0126 290.511 61.6429 290.231C62.2732 289.95 62.9183 289.743 63.6367 289.521C64.7069 289.151 65.9688 289.355 66.4988 290.473C66.9991 291.443 66.6203 292.974 65.5649 293.417Z" fill="#A8E1FF"/>
<path d="M134.294 251.574C140.639 256.184 143.602 229.945 181.625 222.098C187.518 219.528 189.113 208.873 187.745 197.517C187.075 191.912 186.038 185.617 184.458 179.661C183.573 176.396 182.54 173.161 181.406 170.176C180.036 166.779 178.346 165.208 177.204 166.357C161.277 177.08 132.581 218.399 130.608 240.075C130.118 245.225 131.166 249.299 134.294 251.574Z" fill="#00C4F6"/>
<path d="M161.302 200.723C158.324 203.622 155.65 206.765 153.279 210.153C152.153 211.759 151.129 213.496 149.929 215.117C148.787 216.649 147.969 218.651 146.372 219.816C145.112 220.76 143.585 219.998 143.494 218.409C143.462 216.349 144.763 214.096 145.684 212.226C146.591 210.282 147.849 208.573 149.108 206.864C151.742 203.27 154.744 199.984 158.039 197.021C160.353 194.869 163.528 198.512 161.302 200.723Z" fill="#A8E1FF"/>
<path d="M143.073 228.827C142.4 230.034 141.831 231.374 141.334 232.699C140.604 234.76 137.361 234.192 137.519 231.94C137.677 230.071 138.114 228.452 138.918 226.759C139.518 225.566 140.807 224.769 142.173 225.488C143.45 226.148 143.658 227.56 143.073 228.827Z" fill="#A8E1FF"/>
<path opacity="0.23" d="M134.3 251.575C140.645 256.184 143.608 229.946 181.631 222.099C187.523 219.529 189.119 208.874 187.75 197.518C187.557 195.797 187.614 194.943 185.928 186.942C182.982 214.402 166.892 215.591 156.316 224.083C147.775 230.939 136.931 246.068 132.837 245.06C131.384 244.665 130.998 241.605 130.614 240.075C130.124 245.226 131.172 249.3 134.3 251.575Z" fill="#1C7FB3"/>
<path d="M211.214 22.0985C211.447 20.9799 211.944 19.6548 213.117 19.4175C214.29 19.1801 215.348 20.2671 216.01 21.2812C219.612 26.2924 222.687 31.7164 225.278 37.3914L209.044 40.1405C208.976 34.1082 209.728 27.9862 211.214 22.0985Z" fill="#00C4F6"/>
<path d="M184.335 157.038C211.311 165.968 256.407 159.521 281.403 142.295C304.07 126.764 303.127 107.285 289.904 94.6538C285.467 90.4238 282.524 84.8966 281.619 78.8804C276.916 47.5344 246.432 28.7525 215.093 33.7927C181.174 39.2786 159.325 69.8744 164.784 97.7762C165.851 103.836 165.113 110.032 162.247 115.51C154.088 131.09 159.825 148.986 184.335 157.038Z" fill="#00C4F6"/>
<path d="M183.676 157.171C211.313 166.35 257.449 159.387 282.092 141.543C285.308 134.77 284.798 128.061 282.032 123.417C279.737 119.595 275.523 116.851 271.005 116.77C263.201 116.665 255.909 124.417 248.291 121.825C241.657 119.57 235.259 118.11 228.191 119.387C221.122 120.664 215.319 123.675 209.796 128.084C203.687 132.994 194.027 127.831 186.623 130.477C182.416 131.94 179.313 135.859 178.293 140.275C177.128 145.485 178.709 151.824 183.676 157.171Z" fill="#A8E1FF"/>
<path opacity="0.5" d="M246.881 76.4916C247.089 77.9037 249.875 77.3399 253.277 76.8046C256.738 76.1808 259.583 75.9112 259.287 74.4404C259.065 72.9548 255.908 70.9149 252.432 71.4651C249.045 72.074 246.658 75.0059 246.881 76.4916Z" fill="#156894"/>
<path opacity="0.5" d="M187.603 86.0347C187.826 87.5204 190.597 86.8831 193.999 86.3477C197.475 85.7975 200.232 85.4692 200.024 84.0571C199.802 82.5715 196.571 80.5464 193.169 81.0818C189.767 81.6172 187.307 84.5639 187.603 86.0347Z" fill="#156894"/>
<path d="M249.024 123.972C249.244 123.927 249.376 123.824 249.493 123.647C249.712 123.22 249.623 122.779 249.212 122.633C242.664 118.906 234.975 117.477 227.584 118.667C220.134 119.945 213.319 123.62 208.268 129.234C207.946 129.529 207.976 130.058 208.329 130.293C208.623 130.616 209.062 130.527 209.385 130.232C214.187 124.898 220.723 121.356 227.806 120.152C234.904 119.022 242.27 120.364 248.481 123.929C248.647 123.997 248.828 124.011 249.024 123.972Z" fill="#1475A8"/>
<path d="M255.721 134.475C263.053 132.992 269.369 129.112 274.044 117.834C274.19 117.421 274.028 116.995 273.617 116.848C273.279 116.687 272.781 116.865 272.635 117.277C266.061 133.149 256.365 133.503 244.176 133.98C239.937 134.149 235.625 134.332 230.888 135.061C225.784 135.864 221.592 137.402 217.883 138.688C207.767 142.265 201.068 144.616 187.198 131.427C186.904 131.103 186.449 131.119 186.127 131.414C185.878 131.694 185.894 132.15 186.188 132.473C200.718 146.294 208.136 143.721 218.399 140.114C222.034 138.843 226.168 137.394 231.11 136.547C235.774 135.833 240.013 135.664 244.179 135.51C248.256 135.297 252.129 135.202 255.721 134.475Z" fill="#012246"/>
<path d="M181.716 135.675C181.862 135.645 181.999 135.566 182.126 135.438C183.868 133.096 189.143 130.115 194.235 130.769C194.631 130.842 195.026 130.532 195.026 130.15C195.084 129.679 194.79 129.355 194.393 129.283C188.671 128.527 182.927 131.832 180.951 134.528C180.717 134.882 180.806 135.323 181.085 135.573C181.261 135.69 181.496 135.719 181.716 135.675Z" fill="#012246"/>
<path d="M279.387 121.269C279.533 121.24 279.67 121.161 279.797 121.033C280.104 120.665 280.016 120.224 279.737 119.974C277.195 117.963 274.362 116.776 271.868 116.515C269.154 116.299 266.515 117.215 264.008 118.029L263.656 118.177C263.231 118.339 263.085 118.751 263.159 119.119C263.307 119.472 263.747 119.765 264.099 119.618L264.451 119.47C266.884 118.671 269.318 117.873 271.724 118.075C273.969 118.233 276.479 119.332 278.756 121.168C278.932 121.285 279.167 121.314 279.387 121.269Z" fill="#012246"/>
<path d="M233.79 153.301C237.016 152.648 240.08 151.569 242.967 149.99C243.304 149.769 243.45 149.356 243.288 148.93C243.067 148.592 242.583 148.46 242.246 148.682C235.783 152.209 227.996 153.325 220.82 151.793C220.424 151.72 220.028 152.029 219.956 152.427C219.81 152.839 220.118 153.236 220.515 153.308C224.814 154.199 229.391 154.191 233.79 153.301Z" fill="#1475A8"/>
<path d="M200.107 50.6741C196.137 53.3144 192.592 56.5573 189.694 60.3581C188.304 62.1702 187.001 64.0409 185.699 65.9117C184.455 67.6941 183.638 70.0789 181.939 71.4943C181.03 72.2903 179.358 71.94 179.238 70.5866C178.896 68.13 180.11 65.818 181.118 63.6241C182.273 61.0179 183.721 58.7349 185.507 56.6133C189.021 52.4583 193.21 49.0084 197.841 46.2345C200.713 44.5819 202.745 48.9924 200.107 50.6741Z" fill="#A8E1FF"/>
<path d="M180.7 79.3982C180.016 82.0624 179.845 85.3879 177.898 87.4657C177.473 88.0108 176.578 87.7327 176.313 87.1741C174.929 84.4691 176.185 80.8476 176.855 78.1098C177.408 75.5488 181.254 76.8371 180.7 79.3982Z" fill="#A8E1FF"/>
<path d="M230.228 127.236C228.175 127.652 226.269 128.42 224.305 129.277C222.634 130.074 221.067 131.386 219.189 131.536C218.06 131.612 216.635 130.599 217.22 129.333C219.208 125.18 225.367 123.934 229.458 123.412C231.922 123.143 232.706 126.659 230.228 127.236Z" fill="#E0F5FF"/>
<path d="M181.451 116.901C181.964 116.797 182.418 116.399 182.608 115.825C184.547 108.774 188.47 104 192.986 102.933C193.084 102.914 193.157 102.899 193.206 102.889C197.679 101.984 202.818 104.771 206.89 110.223C207.331 110.899 208.285 111.088 208.944 110.572C209.603 110.056 209.792 109.099 209.278 108.438C204.47 101.987 198.26 98.8048 192.615 99.9472C192.517 99.9669 192.443 99.9818 192.395 99.9917C186.705 101.296 181.962 106.924 179.702 115.035C179.483 115.845 179.954 116.668 180.761 116.887C180.977 116.946 181.206 116.95 181.451 116.901Z" fill="#012246"/>
<path d="M274.717 98.0326C274.962 97.9832 275.172 97.8896 275.348 97.752C276.007 97.236 276.123 96.2941 275.608 95.6329C270.39 89.0354 263.842 85.6917 258.093 86.7018C252.359 87.7855 247.792 93.1487 245.795 101.053C245.577 101.863 246.121 102.671 246.928 102.89C247.735 103.11 248.541 102.564 248.686 101.769C250.333 95.1602 253.992 90.593 258.465 89.688C258.514 89.6781 258.587 89.6633 258.685 89.6435C263.26 88.8707 268.722 91.7454 273.235 97.4907C273.632 97.9462 274.204 98.1365 274.717 98.0326Z" fill="#012246"/>
<path d="M314.479 127.813L312.322 136.056L304.289 138.983C302.867 139.5 302.635 141.384 303.869 142.206L311.05 146.799L311.328 155.391C311.404 156.906 313.077 157.639 314.264 156.71L320.885 151.314L329.075 153.713C330.454 154.123 331.787 152.782 331.271 151.356L328.133 143.342L332.976 136.316C333.796 135.079 332.928 133.417 331.417 133.494L322.88 133.92L317.632 127.175C316.779 125.97 314.873 126.356 314.479 127.813Z" fill="#F037A5"/>
<path d="M101.589 116.526L99.3738 124.857L91.3254 127.71C89.9767 128.213 89.7452 130.097 90.9788 130.918L98.1744 135.585L98.438 144.104C98.4406 145.634 100.202 146.425 101.316 145.511L107.922 140.042L116.199 142.5C117.579 142.909 118.897 141.495 118.308 140.083L115.258 132.128L120.086 125.029C120.906 123.791 119.964 122.145 118.527 122.206L110.005 122.706L104.742 115.888C103.816 114.698 101.983 115.069 101.589 116.526Z" fill="#F037A5"/>
<path d="M111.478 163.045L110.064 168.535L104.728 170.457C103.805 170.797 103.601 172.062 104.468 172.576L109.211 175.672L109.367 181.381C109.413 182.367 110.587 182.894 111.305 182.29L115.7 178.722L121.203 180.287C122.098 180.565 122.977 179.622 122.638 178.696L120.575 173.373L123.751 168.674C124.351 167.864 123.674 166.776 122.691 166.822L117.03 167.126L113.604 162.615C113.002 161.895 111.755 162.147 111.478 163.045Z" fill="#F037A5"/>
<path d="M71.3602 323.799L69.8732 329.305L64.537 331.226C63.6134 331.566 63.4835 332.817 64.2765 333.345L69.0198 336.442L69.2494 342.136C69.2218 343.136 70.3962 343.664 71.1872 343.044L75.5819 339.477L81.012 341.056C81.9806 341.32 82.7858 340.391 82.4469 339.465L80.3842 334.142L83.5595 329.444C84.1595 328.633 83.5563 327.531 82.5735 327.577L76.9119 327.88L73.4131 323.384C72.7957 322.59 71.5493 322.843 71.3602 323.799Z" fill="#F037A5"/>
<path d="M296.758 253.913L295.737 257.563L292.175 258.82C291.603 259.012 291.472 259.88 292.074 260.218L295.231 262.258L295.311 266.068C295.356 266.671 296.12 267.053 296.574 266.655L299.518 264.222L303.172 265.319C303.745 265.51 304.301 264.861 304.109 264.288L302.71 260.744L304.832 257.636C305.256 257.091 304.8 256.342 304.199 256.387L300.429 256.614L298.077 253.646C297.739 253.102 296.859 253.28 296.758 253.913Z" fill="#F037A5"/>
<path d="M137.666 102.031L136.646 105.682L133.083 106.938C132.526 107.204 132.381 107.999 132.983 108.336L136.155 110.45L136.22 114.187C136.28 114.864 137.028 115.171 137.482 114.773L140.442 112.414L144.081 113.438C144.654 113.628 145.225 113.054 145.018 112.407L143.633 108.937L145.74 105.755C146.165 105.21 145.724 104.534 145.108 104.505L141.338 104.732L138.986 101.764C138.648 101.22 137.768 101.399 137.666 102.031Z" fill="#F037A5"/>
<path d="M322.281 185.806L321.333 189.442L317.786 190.772C317.141 190.979 317.083 191.832 317.612 192.185L320.769 194.224L320.908 197.947C320.894 198.638 321.657 199.02 322.185 198.607L325.129 196.174L328.71 197.286C329.356 197.462 329.912 196.813 329.632 196.181L328.321 192.696L330.443 189.588C330.794 189.058 330.411 188.294 329.737 188.354L325.952 188.507L323.674 185.524C323.262 184.995 322.456 185.158 322.281 185.806Z" fill="#F037A5"/>
<path d="M306.266 73.5572L304.779 79.0624L299.442 80.9841C298.519 81.324 298.389 82.5749 299.197 83.1768L303.998 86.1849L304.155 91.8934C304.2 92.8791 305.301 93.4216 306.093 92.8024L310.487 89.2344L315.917 90.8144C316.886 91.0776 317.764 90.1345 317.352 89.223L315.363 83.8854L318.553 79.2601C319.065 78.3912 318.462 77.2887 317.479 77.3345L311.817 77.6382L308.318 73.1418C307.789 72.4071 306.543 72.6593 306.266 73.5572Z" fill="#F037A5"/>
<path d="M160.822 253.685L159.874 257.32L156.312 258.577C155.74 258.769 155.609 259.638 156.138 259.99L159.295 262.03L159.434 265.752C159.42 266.443 160.184 266.825 160.711 266.412L163.582 263.994L167.236 265.091C167.809 265.282 168.365 264.633 168.159 263.986L166.847 260.502L168.896 257.408C169.32 256.863 168.864 256.114 168.263 256.159L164.493 256.386L162.215 253.403C161.803 252.874 160.996 253.037 160.822 253.685Z" fill="#F037A5"/>
</svg>
