<svg width="178" height="235" viewBox="0 0 178 235" fill="none" xmlns="http://www.w3.org/2000/svg">
<path d="M23.4359 158.162C28.2883 157.67 32.6239 161.208 33.1107 166.015C33.6021 170.868 30.0639 175.203 25.2114 175.695C20.4048 176.181 16.0692 172.643 15.5778 167.791C15.0911 162.984 18.6293 158.648 23.4359 158.162Z" fill="#B8E6FF"/>
<path d="M49.5512 169.901C50.7536 161.224 58.6986 155.193 67.3715 156.35C75.9985 157.511 82.0794 165.497 80.8724 174.129C79.7159 182.802 71.7708 188.832 63.098 187.676C54.4709 186.515 48.39 178.528 49.5512 169.901Z" fill="#B8E6FF"/>
<path d="M60.9746 180.858C74.5247 179.486 86.5736 189.319 87.9458 202.869C89.3133 216.374 79.4805 228.423 65.9303 229.795C52.4259 231.162 40.377 221.329 39.0095 207.825C37.6373 194.275 47.4702 182.226 60.9746 180.858Z" fill="#B8E6FF"/>
<path d="M58.2608 133.961C40.706 143.739 63.206 148.999 66.7309 155.949C68.172 158.763 67.5091 159.524 58.7268 158.656C28.0389 155.659 18.4116 123.613 50.8969 110.565C68.8533 103.382 62.5523 131.584 58.2608 133.961Z" fill="#00C4F6"/>
<path opacity="0.3" d="M58.26 133.962C61.2842 132.314 63.9393 121.085 62.0039 114.76C52.2185 120.884 45.3913 131.102 49.8039 141.339C51.5812 145.645 57.06 148.142 59.4961 152.104C60.5467 153.801 60.9204 156.122 59.2504 156.985C58.4392 157.499 57.5928 157.97 56.7112 158.398C57.3675 158.486 58.0391 158.572 58.726 158.657C67.5084 159.525 68.1255 158.768 66.7301 155.95C63.2968 148.99 40.7052 143.74 58.26 133.962Z" fill="#1C7FB3"/>
<path d="M43.805 118.638C41.8424 119.808 39.9991 121.243 38.5592 123.008C37.3203 124.474 35.9539 126.509 36.1532 128.477C36.2274 129.21 36.9465 129.461 37.4999 128.988C38.8217 127.883 39.6619 126.133 40.7774 124.818C42.0574 123.301 43.5988 122.081 45.3006 121.076C46.9156 120.127 45.4154 117.642 43.805 118.638Z" fill="#A8E1FF"/>
<path d="M34.6033 133.26C34.2394 135.147 33.9538 137.349 35.0455 138.996C35.3665 139.426 36.1494 139.393 36.2311 138.83C36.5677 137.131 36.1627 135.415 36.3574 133.684C36.475 132.562 34.8079 132.083 34.6033 133.26Z" fill="#A8E1FF"/>
<path d="M139.444 222.306C77.4573 225.346 60.615 157.219 54.0299 112.286C53.134 106.18 52.4676 100.513 51.8661 95.4864C51.3109 90.9179 50.8572 86.8941 50.4319 83.6074C50.4319 83.6074 91.0975 69.5923 115.457 86.3643C118.491 88.4619 121.296 91.0452 123.694 94.1783C123.702 95.7807 123.694 97.3694 123.668 98.9444C123.41 185.453 128.028 212.78 173.77 194.551C193.552 186.674 167.425 220.953 139.444 222.306Z" fill="#00C4F6"/>
<path d="M67.0029 96.0777C67.5975 128.437 79.0369 181.572 106.581 200.103C134.129 218.679 141.898 210.909 128.679 188.153C114.91 164.528 118.526 120.319 121.649 98.637C124.812 76.9042 67.0029 96.0777 67.0029 96.0777Z" fill="#A8E1FF"/>
<path opacity="0.2" d="M123.694 94.1743C123.702 95.7767 123.694 97.3654 123.668 98.9404C117.721 110.087 107.037 118.753 94.7756 121.891C80.7062 125.443 65.0619 121.663 54.03 112.282C53.1341 106.176 52.4677 100.509 51.8662 95.4823C53.9001 96.3863 56.3519 98.2191 57.8619 97.6037C75.9319 89.7154 95.7293 86.5544 115.457 86.3602C118.491 88.4579 121.296 91.0411 123.694 94.1743Z" fill="#1C7FB3"/>
<path d="M106.963 165.058C107.457 168.107 108.092 171.187 109.085 174.139C109.995 176.729 111.157 179.988 113.192 181.816C113.802 182.356 114.735 181.984 114.744 181.151C114.699 178.426 113.372 175.37 112.513 172.821C111.529 169.96 110.679 167.041 110.016 164.148C109.528 162.07 106.626 163.104 106.963 165.058Z" fill="#E0F5FF"/>
<path d="M114.803 188.588C115.23 189.608 115.657 190.629 116.217 191.589C116.721 192.463 117.13 193.3 117.978 193.908C118.381 194.237 119.04 193.893 119.131 193.422C119.354 192.428 119.037 191.581 118.802 190.634C118.563 189.641 118.186 188.661 117.81 187.682C117.07 185.861 114.059 186.721 114.803 188.588Z" fill="#E0F5FF"/>
<path d="M175.706 194.028C172.699 190.818 170.429 183.925 171.321 176.759C172.518 167.111 179.429 158.179 184.063 155.074C189.483 161.555 191.738 170.576 190.541 180.224C189.345 189.872 185.518 197.751 181.021 197.189L175.706 194.028Z" fill="#00C4F6"/>
<path d="M184.211 185.306C185.913 184.301 187.853 183.365 189.962 182.735C191.186 182.333 192.481 182.033 193.848 181.832C203.456 180.351 213.919 184.563 218.126 188.207C213.419 195.158 205.335 199.816 195.727 201.297C188.119 202.438 181.345 199.933 178.621 196.786L184.211 185.306Z" fill="#51AEE0"/>
<path d="M194.492 201.886C187.213 202.623 180.901 200.118 178.283 197.099C178.122 196.884 178.14 196.605 178.31 196.449C178.525 196.289 178.804 196.307 178.96 196.476C181.578 199.494 188.165 201.972 195.635 200.846C205.106 199.378 212.842 194.941 217.536 188.315C213.356 184.946 203.274 180.833 193.895 182.292C192.618 182.467 191.354 182.78 190.101 183.185C188.082 183.805 186.179 184.645 184.436 185.701C184.221 185.861 183.937 185.797 183.822 185.578C183.662 185.363 183.725 185.079 183.94 184.918C185.77 183.808 187.715 182.917 189.825 182.288C191.124 181.878 192.433 181.561 193.756 181.381C203.776 179.857 214.211 184.258 218.46 187.851C218.616 188.02 218.644 188.295 218.525 188.492C213.731 195.498 205.656 200.247 195.774 201.756C195.346 201.8 194.919 201.843 194.492 201.886Z" fill="#1475A8"/>
<path d="M73.3983 15.3778C73.553 14.6222 73.79 13.7657 74.5544 13.5496C75.314 13.2877 76.0337 14.001 76.5564 14.5955C79.1883 17.7513 81.5184 21.1226 83.4549 24.7187L72.9006 27.36C72.5888 23.368 72.7349 19.3298 73.3983 15.3778Z" fill="#00C4F6"/>
<path d="M44.4761 91.0058C46.317 98.6814 53.2915 103.617 63.0827 105.77C72.1594 107.719 84.4557 110.404 96.5572 107.514C108.476 104.642 118.039 96.7828 125.224 91.0142C133.224 84.6082 137.303 76.9344 135.452 69.1673C134.504 65.286 132.22 61.9101 128.888 59.1489C125.763 56.5981 123.515 53.126 122.608 49.1943C122.589 49.0112 122.556 48.8297 122.507 48.6496C117.881 29.463 97.1085 17.97 76.114 23.0096C55.1195 28.0493 41.8486 47.7071 46.4328 66.9441C46.4788 67.0936 46.5248 67.2431 46.5708 67.3926C47.5738 71.3608 47.3502 75.5457 45.7387 79.2699C44.0542 83.1865 43.5327 87.1703 44.4761 91.0058Z" fill="#00C4F6"/>
<path d="M61.9922 105.514C62.3403 105.602 62.7036 105.689 63.0822 105.774C74.3389 108.241 85.3157 110.228 96.5567 107.517C107.798 104.807 116.753 97.795 125.224 91.0176C125.507 90.773 125.793 90.5438 126.079 90.3297C127.887 85.7995 127.213 81.428 125.153 78.4455C123.429 76.0303 120.538 74.4269 117.553 74.6367C112.403 74.927 107.964 80.4175 102.835 79.087C98.3234 77.9252 94.0921 77.2438 89.4512 78.4537C84.8561 79.659 81.2055 81.9711 77.7756 85.0933C73.9709 88.6234 67.3882 85.729 62.6522 87.8272C56.8958 90.3525 55.103 99.1361 61.9922 105.514Z" fill="#A8E1FF"/>
<path d="M108.029 55.4825C113.157 54.9633 117.694 58.6661 118.208 63.7474C118.723 68.8287 115.02 73.3659 109.893 73.8851C104.812 74.3997 100.275 70.6969 99.7599 65.6156C99.2454 60.5343 102.948 55.9971 108.029 55.4825Z" fill="white"/>
<path fill-rule="evenodd" clip-rule="evenodd" d="M109.94 74.3424C105.179 74.8246 100.656 71.7216 99.5238 66.934C98.9437 64.4029 99.3296 61.8203 100.677 59.6026C102.071 57.3804 104.18 55.8257 106.711 55.2456C109.237 54.6198 111.825 55.0515 114.042 56.3993C116.26 57.7472 117.819 59.9016 118.44 62.3823C119.02 64.9134 118.593 67.5465 117.246 69.7641C115.898 71.9817 113.784 73.4906 111.258 74.1164C110.806 74.2238 110.367 74.2992 109.94 74.3424ZM108.122 55.9352C107.725 55.9754 107.33 56.0308 106.936 56.1015C104.634 56.6584 102.695 58.0572 101.466 60.0778C100.236 62.0984 99.8732 64.4475 100.425 66.704C101.553 71.4457 106.332 74.3378 111.028 73.2148C113.33 72.6579 115.224 71.2637 116.457 69.2889C117.686 67.2683 118.096 64.9145 117.539 62.6123C116.986 60.3559 115.588 58.4164 113.567 57.1874C111.89 56.1548 109.999 55.7451 108.122 55.9352Z" fill="black"/>
<path d="M100.728 67.4145C101.607 71.0715 105.259 73.3378 108.916 72.4587C112.573 71.5796 114.834 67.8821 113.955 64.2251C113.081 60.6139 109.429 58.3476 105.772 59.2267C103.831 59.7007 102.29 60.9204 101.39 62.5377C104.102 63.2806 106.008 64.7524 105.707 65.8928C105.402 66.9874 103.173 67.3519 100.617 66.7782C100.639 66.9919 100.676 67.204 100.728 67.4145Z" fill="black"/>
<path d="M58.1708 76.9033C59.3674 81.8693 64.3479 84.9259 69.3139 83.7293C74.2799 82.5327 77.3366 77.5522 76.14 72.5862C74.9434 67.6202 69.9582 64.5178 64.9922 65.7144C60.0262 66.911 56.9742 71.9373 58.1708 76.9033Z" fill="white"/>
<path fill-rule="evenodd" clip-rule="evenodd" d="M68.133 84.4044C66.0272 84.6176 63.8977 84.1396 62.0741 83.0293C59.8518 81.6357 58.2971 79.5271 57.7171 76.996C56.4515 71.8057 59.6635 66.532 64.8995 65.2618C67.4306 64.6818 70.0179 65.1135 72.2355 66.4613C74.4531 67.8091 76.0078 69.9178 76.5879 72.4489C77.2137 74.9753 76.7867 77.6084 75.4388 79.826C74.0864 81.9979 71.9319 83.5572 69.4055 84.183C68.9844 84.2873 68.5602 84.3611 68.133 84.4044ZM58.6187 76.7659C59.1756 79.0681 60.5744 81.0076 62.5492 82.2413C64.5698 83.4703 66.919 83.8336 69.2212 83.2767C71.4776 82.7245 73.4171 81.3257 74.6461 79.3051C75.8798 77.3303 76.2431 74.9811 75.6862 72.6789C75.1751 70.3721 73.7352 68.483 71.7604 67.2493C69.7398 66.0203 67.386 65.6112 65.0838 66.1681C60.3878 67.2911 57.4957 72.0699 58.6187 76.7659Z" fill="black"/>
<path d="M62.5334 76.5995C63.4125 80.2565 67.0643 82.5228 70.7213 81.6437C74.3783 80.7647 76.6399 77.0671 75.7655 73.4559C74.8864 69.7989 71.1888 67.5373 67.5318 68.4163C65.637 68.8857 64.0956 70.1055 63.1957 71.7228C65.8613 72.4703 67.8135 73.9375 67.5127 75.0778C67.2074 76.1724 64.9782 76.5369 62.377 75.9679C62.4291 76.1785 62.4813 76.389 62.5334 76.5995Z" fill="black"/>
<path d="M99.2243 44.3506C99.459 45.298 101.258 44.7921 103.468 44.2445C105.725 43.6923 107.542 43.3695 107.307 42.4221C107.073 41.4747 104.869 40.2642 102.658 40.8118C100.402 41.364 98.9897 43.4032 99.2243 44.3506Z" fill="#156894"/>
<path d="M61.5545 55.5175C62.0499 56.2998 63.6052 55.2173 65.5128 53.9604C67.4661 52.699 69.0857 51.795 68.5399 50.9716C67.994 50.1481 65.5487 49.7483 63.5953 51.0098C61.6877 52.2667 61.0086 54.6941 61.5545 55.5175Z" fill="#156894"/>
<path d="M77.2417 86.6716C77.1196 86.684 77.0082 86.649 76.9073 86.5667C76.7057 86.4022 76.6779 86.1275 76.8424 85.9258C79.8684 82.0121 84.2097 79.2139 89.0384 78.0312C93.8717 76.8943 98.9635 77.3961 103.48 79.5285C103.719 79.5968 103.797 79.9127 103.678 80.1097C103.564 80.3525 103.298 80.4718 103.056 80.3577C98.7815 78.3394 93.8729 77.8191 89.2227 78.9375C84.6183 80.0512 80.4508 82.7394 77.5482 86.5018C77.466 86.6026 77.379 86.6577 77.2417 86.6716Z" fill="#1876A8"/>
<path d="M64.6099 31.8071C61.6732 33.8619 59.1506 36.3526 57.0422 39.2793C56.0275 40.677 55.1641 42.198 54.5939 43.8744C54.0603 45.4546 53.2566 47.1084 53.6112 48.7837C53.7908 49.6442 54.9173 49.8076 55.4614 49.2438C56.4262 48.2674 56.8318 46.7926 57.4942 45.5694C58.2799 44.1949 59.1114 42.8157 59.998 41.5235C61.7161 38.8522 63.8375 36.51 66.3762 34.6343C68.0044 33.3595 66.3802 30.5641 64.6099 31.8071Z" fill="#A8E1FF"/>
<path d="M52.4589 53.8491C52.1866 55.7266 51.5897 58.0531 52.558 59.8512C52.7782 60.1989 53.3919 60.3217 53.6341 59.9735C54.8179 58.4199 54.742 56.3002 55.0648 54.4639C55.3099 52.7742 52.704 52.1594 52.4589 53.8491Z" fill="#A8E1FF"/>
<path d="M89.5097 80.8517C87.0151 81.3356 82.5619 82.5728 81.7779 85.3345C81.5681 86.0032 82.1598 86.822 82.8464 86.7524C84.174 86.618 85.1892 85.6827 86.2827 85.0633C87.5499 84.3337 88.8311 83.7415 90.2178 83.2774C91.7876 82.7947 91.098 80.5521 89.5097 80.8517Z" fill="#E0F5FF"/>
<path d="M86.2696 96.8093C86.2453 96.8735 86.2209 96.9376 86.1966 97.0017C85.3425 98.6144 84.2183 100.301 82.3785 100.857C80.9872 101.275 79.3248 100.842 78.5129 99.676C77.7515 98.5506 77.8732 97.0122 78.4897 95.7936C78.5658 95.6317 78.6572 95.4683 78.7638 95.3033C79.2529 94.6526 80.6065 93.4056 82.043 92.5202C83.658 91.5704 85.452 91.0188 86.3189 92.2721C87.1811 93.4797 86.8769 95.4992 86.2696 96.8093Z" fill="#87142A"/>
<path fill-rule="evenodd" clip-rule="evenodd" d="M81.7429 101.432C80.3238 101.575 78.8809 101.028 78.1241 99.9483C77.3077 98.736 77.2828 97.1199 78.1004 95.6034C78.2039 95.408 78.309 95.2278 78.4156 95.0628C78.8954 94.3205 80.249 93.0735 81.8182 92.1284C84.0874 90.7887 85.7951 90.7545 86.7077 92.0032C87.6754 93.3389 87.3898 95.5414 86.7048 96.9982C86.65 97.0654 86.6104 97.1311 86.5861 97.1952C85.7319 98.8079 84.5348 100.686 82.5165 101.307C82.2449 101.365 81.987 101.407 81.7429 101.432ZM84.5834 92.0333C83.8052 92.1122 82.8809 92.5757 82.2679 92.9153C80.9183 93.7457 79.6058 94.9423 79.1625 95.5884C79.0833 95.7197 78.9904 95.8679 78.8838 96.0328C78.3084 97.201 78.3055 98.5425 78.9018 99.407C79.5531 100.359 80.9867 100.815 82.2407 100.41C83.9478 99.9135 85.0261 98.2319 85.7568 96.7705C85.7843 96.7369 85.8101 96.688 85.8345 96.6238C86.4464 95.3595 86.6776 93.5324 85.9759 92.5398C85.6548 92.1098 85.1327 91.9777 84.5834 92.0333Z" fill="black"/>
<path d="M86.2691 96.8086C86.2448 96.8728 86.2204 96.9369 86.1961 97.001C85.342 98.6137 84.2178 100.3 82.378 100.856C80.9867 101.275 79.3242 100.842 78.5124 99.6753C77.751 98.5499 77.8727 97.0115 78.4892 95.7929C79.2305 95.502 79.9995 95.3316 80.796 95.2818C82.6364 95.1879 84.5875 95.7303 86.2691 96.8086Z" fill="#CF2746"/>
<path fill-rule="evenodd" clip-rule="evenodd" d="M81.7429 101.432C80.3238 101.575 78.8809 101.028 78.1241 99.9483C77.3077 98.736 77.2828 97.1199 78.1004 95.6034C78.2039 95.408 78.309 95.2278 78.4156 95.0628C78.8954 94.3205 80.249 93.0735 81.8182 92.1284C84.0874 90.7887 85.7951 90.7545 86.7077 92.0032C87.6754 93.3389 87.3898 95.5414 86.7048 96.9982C86.65 97.0654 86.6104 97.1311 86.5861 97.1952C85.7319 98.8079 84.5348 100.686 82.5165 101.307C82.2449 101.365 81.987 101.407 81.7429 101.432ZM84.5834 92.0333C83.8052 92.1122 82.8809 92.5757 82.2679 92.9153C80.9183 93.7457 79.6058 94.9423 79.1625 95.5884C79.0833 95.7197 78.9904 95.8679 78.8838 96.0328C78.3084 97.201 78.3055 98.5425 78.9018 99.407C79.5531 100.359 80.9867 100.815 82.2407 100.41C83.9478 99.9135 85.0261 98.2319 85.7568 96.7705C85.7843 96.7369 85.8101 96.688 85.8345 96.6238C86.4464 95.3595 86.6776 93.5324 85.9759 92.5398C85.6548 92.1098 85.1327 91.9777 84.5834 92.0333Z" fill="black"/>
<path d="M80.7392 103.845C79.6405 103.956 78.4544 103.66 77.5104 103.016C76.3555 102.115 75.6121 100.711 75.6468 99.2273C75.6237 98.9984 75.834 98.7921 76.1087 98.7643C76.3422 98.7869 76.5485 98.9972 76.5259 99.2308C76.5502 100.384 77.1332 101.574 78.0818 102.264C79.0303 102.954 80.2988 103.15 81.4154 102.759C81.6397 102.69 81.9329 102.845 82.0018 103.07C82.0708 103.294 81.9613 103.583 81.6912 103.656C81.3922 103.748 81.0749 103.811 80.7392 103.845Z" fill="#1876A8"/>
<path d="M163.38 101.534C156.311 105.256 140.881 111.813 122.871 109.336C120.677 111.87 122.688 127.622 122.837 132.74C122.894 134.215 123.18 140.244 124.288 139.762C129.771 138.652 154.792 127.701 168.642 110.112C166.876 107.284 165.105 104.411 163.38 101.534Z" fill="#00C4F6"/>
<path opacity="0.3" d="M169.218 109.405C151.921 130.858 125.606 139.535 124.288 139.761C123.181 140.243 122.665 134.237 122.837 132.74C141.974 128.998 154.891 122.279 169.218 109.405Z" fill="#1C7FB3"/>
<path d="M133.07 115.52C136.417 115.69 139.782 115.58 143.156 115.1C144.754 114.892 146.342 114.592 147.912 114.11C149.436 113.632 151.065 113.282 152.259 112.282C153.023 111.603 152.682 110.528 151.744 110.392C150.379 110.16 148.951 110.675 147.532 110.818C145.889 111.031 144.259 111.381 142.616 111.594C139.476 112.097 136.303 112.279 133.153 112.228C130.791 112.19 130.749 115.431 133.07 115.52Z" fill="#A8E1FF"/>
<path d="M174.701 115.141L173.572 116.319C171.985 118.006 169.312 118.092 167.62 116.459L137.51 88.1069L144.4 80.7958L174.515 109.194C176.202 110.781 176.288 113.454 174.701 115.141Z" fill="#F037A5"/>
<path fill-rule="evenodd" clip-rule="evenodd" d="M171.018 118.057C170.896 118.07 170.774 118.082 170.652 118.094C169.407 118.128 168.202 117.649 167.331 116.812L137.216 88.4137C137.014 88.2491 136.986 87.9745 137.197 87.7682L144.041 80.4617C144.128 80.4067 144.261 80.347 144.398 80.3331C144.52 80.3207 144.617 80.3572 144.687 80.4426L174.802 108.841C175.719 109.673 176.256 110.867 176.29 112.113C176.323 113.358 175.885 114.512 175.007 115.433L173.924 116.607C173.128 117.427 172.117 117.946 171.018 118.057ZM138.154 88.0875L167.958 116.147C169.443 117.569 171.837 117.466 173.259 115.98L174.343 114.807C175.056 114.087 175.421 113.125 175.365 112.114C175.359 111.143 174.941 110.214 174.176 109.506L144.418 81.441L138.154 88.0875Z" fill="#6B1B3D"/>
<path d="M94.421 43.4952C104.793 30.8368 123.425 28.95 136.079 39.2766C148.783 49.6443 150.67 68.2758 140.297 80.9342C129.975 93.6338 111.344 95.5206 98.6396 85.1528C85.9858 74.8262 84.099 56.1947 94.421 43.4952Z" fill="#00C4F6"/>
<path d="M109.589 43.9454C121.171 42.7725 131.506 51.2066 132.679 62.7883C133.851 74.3701 125.422 84.7506 113.84 85.9235C102.259 87.0963 91.9191 78.6165 90.7463 67.0348C89.5734 55.453 98.0075 45.1183 109.589 43.9454Z" fill="white"/>
<path fill-rule="evenodd" clip-rule="evenodd" d="M112.091 86.0092C108.122 86.0874 104.179 85.0531 100.678 82.9103C95.8946 79.9724 92.5099 75.3205 91.2165 69.8555C89.8774 64.3953 90.7813 58.7078 93.7192 53.9243C96.6982 49.0904 101.309 45.7562 106.769 44.417C112.28 43.119 117.922 44.0276 122.705 46.9655C127.534 49.8987 130.919 54.5506 132.212 60.0155C133.506 65.4805 132.648 71.1633 129.71 75.9467C126.726 80.7349 122.12 84.1149 116.609 85.4129C115.105 85.7811 113.599 85.9798 112.091 86.0092ZM111.316 45.0202C109.9 45.0403 108.484 45.2146 107.068 45.5429C101.878 46.8085 97.4822 49.9822 94.7043 54.5183C91.9264 59.0543 91.0815 64.4121 92.3471 69.6023C93.5622 74.7514 96.7817 79.1426 101.318 81.9205C105.854 84.6985 111.212 85.5433 116.361 84.3282C121.551 83.0626 125.901 79.8935 128.725 75.3528C131.503 70.8168 132.347 65.459 131.082 60.2688C129.867 55.1197 126.647 50.7285 122.111 47.9506C118.808 45.9265 115.098 44.9148 111.316 45.0202Z" fill="black"/>
<path d="M92.9263 71.2064C94.9237 79.5136 103.304 84.6308 111.611 82.6334C119.923 80.6818 125.086 72.2969 123.084 63.9439C121.086 55.6367 112.706 50.5195 104.399 52.517C99.9731 53.5664 96.4696 56.4185 94.4323 60.0471C100.569 61.738 104.941 65.18 104.276 67.7447C103.602 70.2178 98.4613 71.0621 92.6359 69.7097C92.7159 70.1949 92.8127 70.6938 92.9263 71.2064Z" fill="black"/>
<path opacity="0.4" d="M143.91 49.0256L105.782 89.4682C102.639 88.1215 99.6749 86.2481 97.0667 83.7837C94.5089 81.3604 92.4681 78.561 90.9626 75.5686L129.178 35.0709C132.224 36.3811 135.097 38.2638 137.7 40.6824C140.309 43.1469 142.4 45.9874 143.91 49.0256Z" fill="white"/>
<path opacity="0.4" d="M146.82 65.428L122.308 91.45C118.033 92.1605 113.615 91.9142 109.378 90.7246L145.38 52.5784C146.814 56.6879 147.305 61.0779 146.82 65.428Z" fill="white"/>
<path fill-rule="evenodd" clip-rule="evenodd" d="M144.66 87.9396C130.458 102.974 106.762 103.709 91.6811 89.5124C76.6463 75.3109 75.9115 51.6143 90.1083 36.5337C104.31 21.4989 128.006 20.7641 143.087 34.9609C158.122 49.1624 158.857 72.859 144.66 87.9396ZM143.892 74.4207C145.18 71.6079 146.027 68.5623 146.353 65.3845C146.847 61.126 146.31 56.7406 144.931 52.718C144.532 51.5098 144.045 50.3567 143.467 49.2128C141.956 46.1747 139.92 43.4211 137.367 41.0436C134.91 38.7025 132.083 36.8152 128.986 35.4639C124.346 33.4828 119.323 32.7428 114.47 33.2342C107.649 33.9249 101.074 37.0419 96.191 42.2536C87.7963 51.1507 85.8627 64.4807 91.3612 75.3932C92.8667 78.3855 94.9029 81.1391 97.401 83.4297C99.9084 85.8119 102.781 87.6946 105.97 89.0366C107.083 89.5251 108.283 89.9585 109.519 90.2958C113.614 91.4535 118.032 91.6998 122.262 90.994C128.537 89.9422 134.192 86.8722 138.577 82.2197C140.795 79.914 142.563 77.2838 143.892 74.4207Z" fill="#F037A5"/>
<path fill-rule="evenodd" clip-rule="evenodd" d="M155.122 58.3446C155.214 59.2602 155.276 60.1788 155.308 61.1005C155.596 71.2458 151.945 80.8649 144.968 88.2311C138.663 94.928 130.34 99.0543 121.276 99.9722C120.36 100.065 119.442 100.127 118.52 100.159C108.375 100.446 98.7554 96.7957 91.3893 89.8184C84.0277 82.8869 79.7901 73.4654 79.4615 63.3705C79.1741 53.2253 82.8247 43.6062 89.802 36.24C104.122 21.0082 128.19 20.282 143.38 34.6527C150.077 40.9578 154.204 49.2806 155.122 58.3446ZM142.754 35.3173C134.627 27.6771 123.937 24.4125 113.637 25.4555C105.077 26.3224 96.8129 30.1191 90.4666 36.8664C83.6539 44.0309 80.1221 53.453 80.3817 63.3236C80.6871 73.1895 84.81 82.3914 92.0157 89.1537C99.226 95.9618 108.602 99.4983 118.473 99.2386C128.385 98.9286 137.541 94.8103 144.303 87.6047C151.116 80.4402 154.648 71.0181 154.388 61.1475C154.083 51.2815 149.96 42.0797 142.754 35.3173Z" fill="#6B1B3D"/>
<path fill-rule="evenodd" clip-rule="evenodd" d="M146.82 65.4285C146.15 71.601 143.525 77.6477 138.934 82.5523C134.339 87.4111 128.446 90.4128 122.308 91.4506C118.033 92.161 113.614 91.9148 109.382 90.7709C108.173 90.4001 106.973 89.9666 105.782 89.4706C102.644 88.1697 99.7209 86.2459 97.0669 83.7861C94.5091 81.3628 92.4683 78.5634 90.9628 75.571C85.4782 64.7959 87.0682 51.2695 95.8331 41.9187C104.648 32.609 118.051 30.2343 129.178 35.0734C132.224 36.3835 135.143 38.2616 137.701 40.6849C140.309 43.1493 142.4 45.9899 143.91 49.028C144.458 50.1749 144.948 51.3586 145.38 52.5789C146.813 56.6885 147.304 61.0785 146.82 65.4285ZM144.931 52.7168C144.531 51.5087 144.045 50.3555 143.466 49.2117C141.956 46.1735 139.92 43.4199 137.367 41.0424C134.91 38.7014 132.083 36.8141 128.986 35.4628C124.346 33.4816 119.322 32.7416 114.47 33.233C107.649 33.9238 101.074 37.0407 96.1906 42.2524C87.796 51.1496 85.8623 64.4796 91.3609 75.392C92.8664 78.3843 94.9026 81.138 97.4007 83.4286C99.908 85.8107 102.781 87.6934 105.969 89.0354C107.082 89.5239 108.282 89.9574 109.519 90.2946C113.614 91.4524 118.032 91.6986 122.261 90.9928C128.537 89.9411 134.192 86.8711 138.577 82.2185C140.794 79.9128 142.563 77.2826 143.892 74.4195C145.179 71.6068 146.027 68.5611 146.353 65.3833C146.846 61.1249 146.31 56.7395 144.931 52.7168Z" fill="#FF9138"/>
<path fill-rule="evenodd" clip-rule="evenodd" d="M147.287 65.4732C146.563 72.0212 143.796 78.036 139.287 82.8398C136.987 85.2463 134.417 87.264 131.562 88.7555C128.757 90.2882 125.627 91.3452 122.4 91.9032C121.762 91.9986 121.108 92.0804 120.436 92.1483C116.728 92.5238 112.905 92.2173 109.287 91.1963C108.004 90.8637 106.754 90.3891 105.595 89.9053C102.356 88.5221 99.3826 86.5572 96.7791 84.1385C94.2213 81.7152 92.1346 78.9204 90.5237 75.8C84.8507 64.5353 86.8342 50.784 95.5261 41.6255C104.168 32.4259 117.757 29.6161 129.319 34.6423C132.558 36.0255 135.436 37.9539 137.989 40.3315C140.597 42.7959 142.734 45.6318 144.304 48.8026C144.887 49.9923 145.378 51.1912 145.824 52.3947C147.262 56.5501 147.767 61.0774 147.287 65.4732ZM146.353 65.3828C146.846 61.1243 146.31 56.739 144.931 52.7163C144.531 51.5081 144.045 50.355 143.466 49.2112C141.956 46.173 139.92 43.4194 137.367 41.0419C134.91 38.7009 132.083 36.8136 128.986 35.4623C124.346 33.4811 119.322 32.7411 114.47 33.2325C107.649 33.9233 101.074 37.0402 96.1908 42.2519C87.7961 51.149 85.8625 64.479 91.361 75.3915C92.8665 78.3838 94.9028 81.1374 97.4008 83.4281C99.9082 85.8102 102.781 87.6929 105.969 89.0349C107.083 89.5234 108.283 89.9568 109.519 90.2941C113.614 91.4518 118.032 91.6981 122.262 90.9923C128.537 89.9406 134.192 86.8705 138.577 82.218C140.795 79.9123 142.563 77.2821 143.892 74.419C145.179 71.6063 146.027 68.5606 146.353 65.3828Z" fill="#6B1B3D"/>
<path d="M158.92 111.836C158.618 111.59 158.372 111.291 158.182 110.94C156.002 106.767 160.961 96.3682 164.006 96.7536C166.909 97.107 170.746 100.742 172.691 103.967C173.356 105.056 173.784 106.077 173.917 106.942C174.448 110.356 161.959 114.442 158.92 111.836Z" fill="#00C4F6"/>
<path opacity="0.6" d="M158.92 111.836C158.617 111.59 158.371 111.291 158.182 110.94C161.048 110.927 163.894 110.269 166.452 109.039C167.642 108.456 168.726 107.745 169.751 106.901C170.665 106.192 171.51 105.397 172.284 104.517C172.421 104.349 172.557 104.166 172.691 103.967C173.356 105.056 173.783 106.076 173.917 106.942C174.448 110.356 161.959 114.442 158.92 111.836Z" fill="#1C7FB3"/>
</svg>
