<svg width="372" height="314" viewBox="0 0 372 314" fill="none" xmlns="http://www.w3.org/2000/svg">
<path d="M18.9367 283.446C24.4382 285.006 30.0218 286.402 35.6054 287.551C40.8605 288.537 46.5263 289.522 51.8635 289.029C52.931 288.947 53.1773 287.551 52.1099 287.223C47.0189 285.416 41.3532 284.595 36.098 283.446C30.6787 282.351 25.3414 281.01 20.0862 279.422C17.4587 278.683 16.3912 282.707 18.9367 283.446Z" fill="#00C4F6"/>
<path d="M138.413 292.724C180.537 296.09 222.989 295.105 264.127 284.923C269.71 283.527 275.376 282.049 280.877 280.161C286.461 278.354 292.866 276.712 297.875 273.592C299.517 272.524 298.367 270.225 296.561 270.471C291.388 271.293 286.297 273.674 281.288 275.152C276.443 276.548 271.599 277.944 266.754 279.257C256.654 281.885 246.39 284.02 236.044 285.662C215.434 288.947 194.66 290.507 173.886 290.999C162.062 291.246 150.237 290.753 138.413 289.932C136.689 289.85 136.689 292.56 138.413 292.724Z" fill="#00C4F6"/>
<path d="M311.666 214.883C322.504 217.346 333.589 219.727 343.607 224.9C352.229 229.252 361.097 235.821 365.12 244.936C369.883 256.021 361.179 264.068 351.9 268.584C342.047 273.346 331.619 277.123 321.355 281.147C320.451 281.475 320.451 283.118 321.601 282.953C331.29 281.968 340.651 279.341 349.601 275.481C357.566 272.115 366.106 267.927 369.965 259.716C377.93 242.637 358.551 227.528 344.839 221.698C334.411 217.264 323.243 215.129 312.158 213.158C311.009 212.912 310.516 214.554 311.666 214.883Z" fill="#00C4F6"/>
<path d="M242.858 222.519C251.644 222.601 260.348 223.586 268.888 225.557C273.076 226.542 277.263 227.61 281.287 228.924C285.228 230.237 289.334 232.29 293.439 232.865C294.589 233.029 295.821 231.633 294.671 230.648C291.633 228.02 287.281 226.46 283.504 225.228C279.152 223.668 274.636 222.437 270.037 221.451C261.087 219.645 251.973 219.07 242.858 219.481C240.888 219.563 240.888 222.437 242.858 222.519Z" fill="#00C4F6"/>
<path d="M8.42904 259.715C3.74866 256.759 3.00965 250.683 4.81611 245.838C6.86891 240.337 11.8777 236.313 16.6402 233.275C26.5758 227.034 38.2356 223.586 49.485 220.301C61.4733 216.853 73.7079 214.061 86.0247 212.008C98.7521 209.955 111.644 209.463 124.207 206.753C125.849 206.424 125.192 204.289 123.878 204.125C112.793 202.729 101.544 204.289 90.623 205.932C79.2094 207.574 67.9601 209.955 56.7929 212.911C46.5289 215.703 36.1828 218.741 26.4115 223.011C17.954 226.788 8.42903 231.879 3.25599 239.844C-1.42439 246.906 -1.09594 257.58 7.11525 261.932C8.59326 262.671 9.82494 260.618 8.42904 259.715Z" fill="#00C4F6"/>
<path d="M336.218 261.522C341.556 255.527 342.213 247.563 338.682 240.419C334.412 231.961 325.462 226.87 317.251 223.093C298.036 214.225 276.277 209.709 255.174 209.052C252.3 208.888 252.546 212.994 255.174 213.404C273.731 215.703 292.124 217.838 309.696 224.818C317.579 227.938 326.201 231.797 331.866 238.366C336.875 244.032 339.421 253.721 334.494 260.208C333.755 261.193 335.397 262.425 336.218 261.522Z" fill="#00C4F6"/>
<path d="M54.495 229.662C46.366 232.618 36.5125 235.739 30.8468 242.718C24.7705 250.19 31.3395 257.498 37.8263 261.604C45.5448 266.613 54.8235 269.733 63.4452 272.689C73.5176 276.138 83.7542 278.847 94.1551 280.818C105.897 283.035 117.475 284.185 129.381 283.363C130.695 283.281 131.27 280.982 129.709 280.736C106.8 277.451 84.0553 274.167 62.0493 266.695C56.7942 264.888 51.4569 263 46.366 260.701C42.1782 258.812 37.6621 256.677 34.5418 253.228C26.0843 243.785 49.2399 234.261 55.3161 231.551C56.3836 231.058 55.6446 229.252 54.495 229.662Z" fill="#00C4F6"/>
<path d="M176.019 312.843C184.641 313.336 193.262 313.418 201.884 312.843C205.908 312.515 210.013 312.104 214.119 311.529C217.814 311.037 222.576 310.38 225.943 308.655C227.667 307.67 226.6 305.453 224.957 305.207C221.345 304.796 216.993 305.781 213.38 306.274C209.11 306.849 204.922 307.259 200.652 307.588C192.441 308.245 184.257 308.436 176.101 308.163C172.981 307.998 173.063 312.679 176.019 312.843Z" fill="#00C4F6"/>
<path d="M72.6407 202.731C81.7551 201.664 90.9517 200.678 100.066 199.857C104.555 199.474 109.044 199.145 113.532 198.872C117.884 198.543 122.647 198.708 126.835 197.476C128.066 197.147 128.23 195.095 126.835 194.766C122.565 193.863 117.884 194.52 113.532 194.766C108.879 195.095 104.199 195.478 99.4913 195.916C90.2948 196.819 81.2625 198.051 72.2302 199.693C70.5058 200.021 70.9164 202.977 72.6407 202.731Z" fill="#00C4F6"/>
<path d="M302.388 244.031C304.359 245.838 305.755 248.055 306.165 250.683C306.576 252.9 305.919 255.527 306.658 257.662C306.904 258.565 307.972 259.058 308.793 258.565C311.667 256.759 311.749 252.653 311.174 249.697C310.517 246.166 308.547 242.964 305.837 240.665C303.456 238.694 300.089 241.979 302.388 244.031Z" fill="#00C4F6"/>
<path d="M315.361 140.57C312.487 163.644 283.338 203.714 261.578 222.518C258.047 225.556 254.681 228.101 251.725 229.826C248.522 232.782 243.267 220.793 240.229 205.931C236.452 187.62 235.959 164.957 246.716 160.852C297.789 152.23 302.305 119.96 310.681 125.79C312.734 127.268 314.13 129.239 314.869 131.702C315.69 134.248 315.772 137.204 315.361 140.57Z" fill="#00C4F6"/>
<path d="M262.237 173.497C271.679 168.324 282.929 162.412 288.759 152.969C289.334 152.066 288.348 150.588 287.281 151.08C282.436 152.969 277.756 156.171 273.486 159.21C268.888 162.494 264.207 165.779 259.445 168.735C256.407 170.623 259.034 175.221 262.237 173.497Z" fill="#A8E1FF"/>
<path d="M297.872 147.469C299.104 146.401 300.5 145.334 301.567 144.102C302.388 143.035 303.949 141.228 302.635 139.914C301.485 138.683 299.597 139.832 298.447 140.571C297.051 141.557 295.737 142.953 294.506 144.102C292.125 146.155 295.573 149.604 297.872 147.469Z" fill="#A8E1FF"/>
<path d="M315.362 140.572C312.488 163.645 283.338 203.716 261.579 222.519C258.048 225.557 254.681 228.103 251.725 229.827C248.523 232.783 243.268 220.795 240.229 205.933C244.007 202.566 249.344 200.513 254.106 198.461C262.235 195.012 269.872 190.414 276.933 185.076C289.332 175.633 299.761 163.563 307.233 149.85C309.094 146.456 310.791 142.98 312.324 139.422C313.145 137.369 313.802 134.249 314.869 131.704C315.69 134.249 315.772 137.205 315.362 140.572Z" fill="#00BDED"/>
<path d="M262.811 124.066C262.564 127.761 262.318 132.031 262.072 136.711C261.825 141.802 261.497 147.386 261.168 153.38C259.526 181.955 256.57 219.972 247.866 257.333C247.483 257.498 247.1 257.662 246.717 257.826C243.022 259.386 238.341 260.782 233.004 262.014C218.799 265.216 199.502 267.187 178.235 267.187C169.86 267.187 161.731 266.94 154.177 266.366C146.376 265.709 139.15 264.888 132.581 263.738C132.253 263.683 131.952 263.629 131.678 263.574C132.006 240.911 130.857 213.65 128.886 181.626C128.393 173.524 127.846 165.122 127.244 156.418C127.189 155.159 127.107 153.9 126.998 152.641C164.358 97.051 262.811 124.066 262.811 124.066Z" fill="#00C4F6"/>
<path d="M233.005 262.014C218.8 265.216 199.503 267.187 178.236 267.187C169.861 267.187 161.732 266.941 154.178 266.366C155.491 227.445 148.84 185.814 143.503 160.688C135.046 120.371 245.486 149.439 245.486 149.439C246.882 180.887 243.515 223.257 233.005 262.014Z" fill="#A8E1FF"/>
<path opacity="0.2" d="M262.071 136.712C261.824 141.803 261.496 147.386 261.168 153.38C248.933 179.246 222.986 198.213 194.493 201.662C171.173 204.536 146.868 196.735 128.885 181.627C128.393 173.525 127.845 165.122 127.243 156.418C128.064 156.035 128.885 155.679 129.707 155.351C165.589 141.31 204.018 132.606 242.528 134.166C247.373 134.412 252.217 122.178 256.487 124.559C258.622 125.791 260.757 131.128 262.071 136.712Z" fill="#1C7FB3"/>
<path d="M167.562 3.27989C166.823 2.04821 165.673 0.734382 164.277 0.980717C162.717 1.14494 161.978 2.86932 161.567 4.34733C159.515 11.7374 158.119 19.2917 157.544 26.9281L177.579 23.3973C175.116 16.2536 171.749 9.52039 167.562 3.27989Z" fill="#00C4F6"/>
<path d="M274.964 110.518C277.673 125.134 269.544 138.847 254.354 150.014C240.313 160.36 221.345 174.319 198.436 178.589C175.855 182.859 153.438 176.7 136.687 172.348C118.212 167.504 105.239 157.486 102.529 142.706C101.133 135.316 102.529 127.844 106.142 120.536C109.508 113.803 110.74 106.166 109.262 98.7761C109.153 98.4476 109.07 98.0918 109.016 97.7086C102.2 61.3331 128.969 25.7786 168.793 18.3885C208.617 10.9985 246.389 34.4825 253.122 70.858C253.177 71.1317 253.232 71.4328 253.286 71.7612C254.6 79.3155 258.213 86.295 263.879 91.4681C269.709 96.8054 273.568 103.292 274.964 110.518Z" fill="#00C4F6"/>
<path d="M256.078 148.783C255.53 149.166 254.956 149.577 254.353 150.015C236.864 162.906 219.784 174.648 198.435 178.59C177.086 182.613 156.722 177.522 136.687 172.349C136.03 172.13 135.373 171.939 134.717 171.774C128.148 165.288 125.931 157.323 127.244 150.754C128.394 145.334 132.089 140.326 137.344 138.355C141.86 136.631 146.951 137.287 151.878 137.616C156.722 137.944 162.142 137.78 165.919 134.742C172.734 129.323 179.55 124.971 188.336 123.493C197.204 122.015 205.168 123.082 213.38 125.874C222.658 128.994 231.691 119.059 241.38 118.976C253.122 118.894 262.975 132.525 256.078 148.783Z" fill="#A8E1FF"/>
<path d="M144.406 97.4624C154.013 97.4624 161.731 105.263 161.731 114.788C161.731 124.395 154.013 132.114 144.406 132.114C134.799 132.114 127.08 124.395 127.08 114.788C127.08 105.263 134.799 97.4624 144.406 97.4624Z" fill="white"/>
<path fill-rule="evenodd" clip-rule="evenodd" d="M144.406 133.099C135.785 133.099 128.066 126.941 126.424 118.155C124.535 108.219 131.104 98.6122 141.04 96.8057C150.975 94.9171 160.582 101.486 162.389 111.422C164.277 121.357 157.708 130.964 147.773 132.771C146.623 132.99 145.501 133.099 144.406 133.099ZM144.406 98.3658C143.421 98.3658 142.408 98.4753 141.368 98.6943C132.5 100.336 126.67 108.876 128.312 117.826C129.955 126.694 138.494 132.524 147.444 130.882C156.313 129.24 162.143 120.7 160.5 111.75C159.022 103.949 152.125 98.3658 144.406 98.3658Z" fill="black"/>
<path d="M160.662 113.229C161.894 120.126 157.378 126.777 150.398 128.091C143.501 129.405 136.85 124.806 135.536 117.909C134.222 110.929 138.821 104.278 145.718 102.965C149.413 102.308 153.026 103.293 155.736 105.346C151.712 108.63 149.577 112.654 150.973 114.378C152.287 116.02 156.393 114.953 160.334 111.997C160.443 112.38 160.553 112.791 160.662 113.229Z" fill="black"/>
<path d="M223.642 82.6836C233.25 82.6836 241.05 90.4842 241.05 100.009C241.05 109.616 233.25 117.417 223.642 117.417C214.118 117.417 206.317 109.616 206.317 100.009C206.317 90.4842 214.118 82.6836 223.642 82.6836Z" fill="white"/>
<path fill-rule="evenodd" clip-rule="evenodd" d="M223.644 118.318C215.022 118.318 207.303 112.16 205.661 103.374C203.855 93.4381 210.424 83.9131 220.277 82.0245C230.213 80.2181 239.82 86.787 241.626 96.6404C243.515 106.576 236.946 116.183 227.01 117.99C225.916 118.208 224.793 118.318 223.644 118.318ZM223.644 83.6668C222.658 83.6668 221.673 83.7489 220.688 83.9131C211.738 85.5553 205.908 94.1771 207.55 103.045C209.192 111.913 217.814 117.825 226.682 116.101C235.55 114.459 241.462 105.919 239.82 97.051C238.342 89.1683 231.444 83.6668 223.644 83.6668Z" fill="black"/>
<path d="M233.006 99.6791C234.319 106.659 229.803 113.31 222.824 114.623C215.926 115.855 209.275 111.339 207.961 104.359C206.648 97.4621 211.246 90.811 218.143 89.4972C221.838 88.8403 225.369 89.7435 228.161 91.8785C224.138 95.1629 222.003 99.1864 223.399 100.911C224.712 102.553 228.818 101.486 232.759 98.5295C232.869 98.9127 232.951 99.2959 233.006 99.6791Z" fill="black"/>
<path opacity="0.4" d="M145.555 72.5826C145.883 74.3069 142.434 74.7996 138.165 75.6207C133.977 76.3597 130.528 77.1808 130.2 75.4565C129.871 73.65 132.745 69.955 137.015 69.1339C141.203 68.3128 145.226 70.7761 145.555 72.5826Z" fill="#156894"/>
<path opacity="0.4" d="M219.129 60.1841C219.458 61.9906 215.927 62.4012 211.739 63.2223C207.469 64.0434 204.103 64.8645 203.774 63.0581C203.446 61.2516 206.238 57.5566 210.507 56.7354C214.777 55.9143 218.801 58.3777 219.129 60.1841Z" fill="#156894"/>
<path d="M165.837 137.45C165.618 137.45 165.399 137.395 165.18 137.286C164.769 136.875 164.769 136.3 165.098 135.89C171.174 128.828 179.549 123.984 188.746 122.341C197.943 120.617 207.467 122.095 215.679 126.529C216.171 126.775 216.336 127.35 216.089 127.761C215.843 128.253 215.268 128.418 214.775 128.171C206.975 123.984 197.86 122.588 189.074 124.23C180.371 125.79 172.324 130.388 166.576 137.122C166.329 137.368 166.083 137.45 165.837 137.45Z" fill="#1876A8"/>
<path d="M196.545 179.738C192.85 179.738 188.909 178.096 184.803 174.811C184.393 174.483 184.311 173.908 184.639 173.498C184.968 173.087 185.625 173.005 186.035 173.333C190.551 176.946 194.821 178.424 198.762 177.603C202.868 176.7 206.481 173.416 209.437 167.75C209.683 167.339 210.258 167.175 210.751 167.421C211.243 167.668 211.408 168.243 211.161 168.653C207.877 174.811 203.853 178.424 199.173 179.41C198.297 179.629 197.421 179.738 196.545 179.738Z" fill="#1876A8"/>
<path d="M167.314 150.917C155.819 150.917 146.048 148.289 135.127 141.474C134.716 141.145 134.552 140.571 134.88 140.16C135.127 139.667 135.701 139.585 136.194 139.832C153.684 150.835 168.218 150.67 192.359 146.154C219.209 141.145 234.236 133.098 241.133 120.207C241.379 119.714 241.954 119.55 242.365 119.796C242.857 120.043 243.022 120.617 242.775 121.11C233.661 138.354 211.244 144.594 192.687 148.043C182.998 149.849 174.787 150.917 167.314 150.917Z" fill="black"/>
<path d="M249.181 122.999C249.017 122.999 248.853 122.944 248.689 122.834C245.733 120.864 238.343 119.55 232.759 122.424C232.266 122.67 231.692 122.506 231.445 122.013C231.199 121.521 231.363 120.946 231.856 120.7C238.178 117.497 246.307 118.893 249.756 121.192C250.167 121.521 250.331 122.095 250.002 122.506C249.838 122.834 249.51 122.999 249.181 122.999Z" fill="black"/>
<path d="M129.299 147.058C129.135 147.058 128.97 147.031 128.806 146.976C128.314 146.647 128.231 146.073 128.478 145.662C130.448 142.46 133.24 139.914 136.196 138.6C139.399 137.122 143.012 136.876 146.46 136.794C147.035 136.794 147.446 137.204 147.446 137.697C147.446 138.272 147.035 138.683 146.542 138.683C143.258 138.765 139.809 139.011 137.017 140.325C134.39 141.474 131.926 143.773 130.12 146.647C129.956 146.894 129.627 147.058 129.299 147.058Z" fill="black"/>
<path d="M219.128 139.667C214.283 145.99 211.902 152.231 209.767 157.65C206.975 164.629 204.512 170.049 197.204 171.937C190.964 173.498 186.201 170.624 181.274 166.272C176.019 161.427 170.518 154.858 162.881 150.014C174.541 150.014 182.588 148.946 192.524 147.058C202.541 145.169 207.961 144.019 219.128 139.667Z" fill="#811254"/>
<path d="M209.769 157.651C206.977 164.63 204.514 170.049 197.206 171.938C190.965 173.498 186.203 170.624 181.276 166.272C185.053 161.263 189.733 157.897 194.824 156.501C199.587 155.187 204.678 155.598 209.769 157.651Z" fill="#F037A5"/>
<path fill-rule="evenodd" clip-rule="evenodd" d="M193.754 173.334C186.939 173.334 181.683 168.079 175.771 162.167C171.912 158.39 167.642 154.12 162.387 150.836C162.059 150.589 161.894 150.179 161.976 149.768C162.141 149.358 162.469 149.029 162.88 149.029H162.962C174.458 149.029 182.504 147.962 192.358 146.155C202.458 144.267 207.713 143.035 218.798 138.847C219.208 138.683 219.619 138.765 219.865 139.176C220.112 139.504 220.112 139.997 219.865 140.325C215.349 146.073 213.05 151.821 211.079 156.912C208.123 164.384 205.496 170.789 197.449 172.842C196.135 173.17 194.903 173.334 193.754 173.334ZM166 150.918C170.27 154.038 173.883 157.651 177.085 160.853C183.9 167.586 189.238 172.924 196.956 171.035C204.1 169.147 206.317 163.727 209.273 156.255C211.079 151.739 213.05 146.812 216.499 141.721C207.22 145.088 201.965 146.237 192.686 148.044C183.572 149.686 176.1 150.754 166 150.918Z" fill="black"/>
<path d="M193.917 30.7051C199.829 32.101 205.331 34.4001 210.504 37.6025C212.885 39.1626 215.266 40.8869 217.647 42.5292C219.946 44.1714 221.753 46.5526 224.463 47.538C226.023 48.1128 227.254 46.3884 226.926 44.9925C226.269 42.0365 223.559 39.6552 221.507 37.5203C219.29 35.2212 216.744 33.2505 213.952 31.6904C208.287 28.3238 202.046 25.9426 195.559 24.7109C191.7 23.9719 190.058 29.7197 193.917 30.7051Z" fill="#A8E1FF"/>
<path d="M228.736 55.8322C229.722 57.3923 230.707 59.0346 231.774 60.5947C232.596 61.9906 233.827 63.7149 235.305 64.3718C236.044 64.6182 237.03 64.4539 237.194 63.5507C237.851 59.9378 234.895 56.1606 233.006 53.2867C231.282 50.577 226.93 53.1225 228.736 55.8322Z" fill="#A8E1FF"/>
<path d="M190.389 132.36C193.099 132.032 195.727 132.032 198.354 132.278C200.818 132.524 203.281 133.346 205.744 132.689C207.222 132.278 207.715 130.307 206.648 129.24C202.706 125.299 194.659 126.53 189.815 127.68C187.187 128.255 187.762 132.607 190.389 132.36Z" fill="#E0F5FF"/>
<path d="M108.606 258.976C116.817 265.135 128.805 265.299 138.577 266.859C151.55 268.994 164.606 270.062 177.744 270.144C190.8 270.144 203.856 269.24 216.747 267.516C227.914 265.956 239.656 264.15 249.838 259.141C253.369 257.416 257.311 255.035 259.445 251.669C261.416 248.466 260.513 244.607 256.654 243.622C256.161 243.457 255.75 243.95 255.832 244.443C257.228 250.765 248.196 254.46 243.516 256.185C233.088 259.962 221.756 261.85 210.753 263.164C188.008 265.874 164.935 265.545 142.272 263C136.606 262.343 131.022 261.522 125.357 261.111C119.937 260.619 114.436 259.962 109.838 256.924C108.524 256.02 107.456 258.073 108.606 258.976Z" fill="#00C4F6"/>
<path d="M72.5565 291C81.0961 296.584 84.5448 264.15 135.372 253.968C143.173 250.684 145.143 237.463 143.008 223.504C142.023 216.525 140.381 208.806 138.164 201.498C136.932 197.393 135.536 193.452 133.894 189.757C132.005 185.569 129.706 183.68 128.228 185.158C107.043 198.542 69.5184 250.027 67.3835 276.877C66.8908 283.282 68.3688 288.291 72.5565 291Z" fill="#00C4F6"/>
<path d="M103.268 223.339C98.943 227.116 95.0017 231.276 91.4435 235.82C89.8834 237.954 88.0769 240.172 87.0095 242.635C85.942 244.934 84.2998 247.48 84.3819 250.025C84.464 251.585 86.1883 252.817 87.5842 251.914C89.7191 250.436 90.9508 247.89 92.511 245.837C94.0711 243.949 95.3027 241.814 96.6987 239.843C99.901 235.409 103.514 231.386 107.537 227.691C110.411 224.981 106.224 220.875 103.268 223.339Z" fill="#A8E1FF"/>
<path d="M78.7185 259.798C78.1711 260.893 77.6784 262.015 77.2404 263.165C76.912 264.314 76.8299 265.628 76.6657 266.778C76.5836 267.681 77.2404 268.42 77.8973 268.912C78.5542 269.405 79.3754 269.323 80.1144 268.995C81.1818 268.584 81.346 267.599 81.7566 266.613C82.4135 265.3 82.9062 263.904 83.6452 262.672C85.4516 259.387 80.3607 256.514 78.7185 259.798Z" fill="#A8E1FF"/>
<path d="M72.5565 291C81.0961 296.583 84.5448 264.149 135.372 253.967C143.173 250.683 145.061 237.463 143.008 223.504C142.762 221.369 142.762 220.301 140.299 210.366C137.014 244.36 115.419 246.084 101.46 256.759C90.1284 265.381 75.9231 284.184 70.4216 282.953C68.4509 282.542 67.9582 278.765 67.3835 276.876C66.8908 283.281 68.3688 288.29 72.5565 291Z" fill="#00BDED"/>
</svg>
