<svg width="236" height="290" viewBox="0 0 236 290" fill="none" xmlns="http://www.w3.org/2000/svg">
<path d="M77.7382 170.94C40.1955 170.811 33.0106 193.336 27.7028 188.093C25.1136 185.439 24.79 181.556 26.214 176.96C31.1334 160.843 56.8955 135.857 74.6959 125.112C77.6087 123.365 80.3274 122.005 82.6576 121.099C88.5479 117.345 92.4964 168.157 77.7382 170.94Z" fill="#00C4F6"/>
<path d="M62.2676 139.613C58.9017 142.072 55.6005 144.597 52.4935 147.38C49.5807 149.969 46.5385 153.27 44.9203 156.895C44.5319 157.737 45.3734 158.708 46.2148 158.19C49.6455 156.377 52.6878 153.529 55.4711 150.876C58.5133 148.157 61.4908 145.374 64.6626 142.784C66.4102 141.36 64.08 138.253 62.2676 139.613Z" fill="#A8E1FF"/>
<path opacity="0.6" d="M77.7382 170.94C40.1955 170.811 33.0106 193.336 27.7028 188.093C25.1136 185.439 24.79 181.556 26.214 176.96C28.0912 176.636 30.2919 177.025 32.2338 177.089C37.8005 177.284 42.9141 174.371 47.3156 171.07C52.0408 167.574 56.313 163.432 60.0025 158.771C66.5401 150.68 71.2653 141.1 73.7897 131.003C74.1781 129.32 74.3723 127.184 74.6959 125.112C77.6087 123.365 80.3274 122.005 82.6576 121.099C88.5479 117.345 92.4964 168.157 77.7382 170.94Z" fill="#08BAE8"/>
<path d="M38.9657 161.619C38.189 162.526 37.3475 163.432 36.6355 164.403C36.0529 165.244 35.1467 166.733 36.0529 167.639C36.9591 168.545 38.1242 167.51 38.8363 166.927C39.8719 166.215 40.6487 165.05 41.4254 164.079C42.0727 163.367 42.1374 162.331 41.4254 161.619C40.8429 160.972 39.613 160.907 38.9657 161.619Z" fill="#A8E1FF"/>
<path d="M187.972 252.887C174.315 257.612 160.657 263.891 148.1 271.787C75.9916 231.914 79.2928 159.224 78.0629 120.516C77.9766 118.056 77.8687 115.726 77.7393 113.525C77.7393 113.525 91.3971 104.593 108.939 98.12C133.277 89.1874 159.945 86.8571 174.185 108.347C173.84 112.835 173.538 117.215 173.279 121.487C168.489 199.421 175.868 233.209 187.972 252.887Z" fill="#00C4F6"/>
<path d="M173.213 258.646C169.804 260.114 166.438 261.689 163.115 263.372C157.225 261.365 148.68 255.993 137.094 246.995C103.435 220.78 90.0361 160.906 90.0361 118.444C90.0361 118.444 168.487 84.979 162.209 114.107C155.606 144.594 156.836 198.902 168.164 232.949C172.177 244.859 173.989 253.468 173.213 258.646Z" fill="#A8E1FF"/>
<path opacity="0.2" d="M174.185 108.347C173.84 112.834 173.538 117.214 173.279 121.487C162.34 134.368 146.028 142.782 129.134 143.559C109.78 144.53 90.2319 135.533 78.0629 120.516C77.9766 118.056 77.8687 115.726 77.7393 113.525C77.7393 113.525 91.397 104.592 108.939 98.1195C129.134 96.566 149.653 98.4431 169.525 102.521C171.208 104.204 172.761 106.146 174.185 108.347Z" fill="#1C7FB3"/>
<path d="M151.595 202.398C151.918 206.67 152.566 210.942 153.601 215.15C154.443 218.775 155.867 223.5 158.521 226.218C159.298 227.06 160.592 226.413 160.657 225.377C160.851 221.687 159.298 217.351 158.391 213.79C157.356 209.842 156.449 205.829 155.802 201.816C155.414 199.421 151.336 199.938 151.595 202.398Z" fill="#E0F5FF"/>
<path d="M160.074 235.605C160.527 236.964 160.98 238.259 161.627 239.553C162.21 240.718 162.598 242.013 163.634 242.854C164.281 243.372 165.252 243.243 165.511 242.401C165.835 241.107 165.511 239.877 165.252 238.582C164.993 237.158 164.605 235.864 164.152 234.504C163.31 231.915 159.232 233.015 160.074 235.605Z" fill="#E0F5FF"/>
<path d="M122.013 2.38558C121.624 1.47937 120.977 0.378976 119.941 0.314247C118.841 0.249519 118.129 1.34992 117.611 2.38558C115.152 7.3697 113.21 12.548 111.786 17.9205L126.544 18.05C125.702 12.6775 124.214 7.3697 122.013 2.38558Z" fill="#00C4F6"/>
<path d="M164.669 118.317C153.277 123.818 137.936 131.327 121.042 131.392C104.407 131.392 89.2601 124.142 77.8678 118.77C55.6658 108.413 52.9472 91.0656 62.9155 77.9257C66.2167 73.5889 68.0291 68.2811 67.9643 62.7791C67.3818 35.9814 90.9431 13.391 120.913 13.3263C151.141 13.2616 174.573 36.1109 174.12 62.3908C174.055 67.9574 175.738 73.3947 179.039 77.7962C188.684 90.6773 186.418 107.701 164.669 118.317Z" fill="#00C4F6"/>
<path d="M158.558 82.6585C158.053 82.6585 157.547 82.3698 157.259 81.8646C154.083 75.5858 150.186 72.5546 145.711 72.4103C145.615 72.4103 145.543 72.4103 145.495 72.4103C141.093 72.4103 137.484 75.2971 134.669 81.215C134.381 81.9367 133.515 82.2976 132.793 81.9367C132.071 81.5759 131.71 80.7098 132.071 79.9881C135.391 72.9876 139.938 69.5234 145.495 69.5234C145.591 69.5234 145.663 69.5234 145.711 69.5234C151.341 69.6678 156.176 73.3485 159.857 80.5655C160.218 81.2872 159.929 82.1533 159.207 82.5141C159.015 82.6103 158.798 82.6585 158.558 82.6585Z" fill="black"/>
<path d="M166.029 117.667C165.554 117.883 165.101 118.098 164.67 118.314C150.559 125.175 136.772 131.325 121.042 131.389C105.378 131.389 91.5908 125.24 77.8683 118.767C77.4367 118.595 77.0052 118.379 76.5737 118.12C72.69 112.683 72.1721 106.728 73.9845 102.197C75.4733 98.4424 78.7744 95.4002 82.7876 94.6882C89.6489 93.4583 97.2869 99.2839 103.63 95.8533C109.197 92.8757 114.634 90.6749 121.107 90.7397C127.58 90.8691 133.082 92.6815 138.584 95.7885C144.798 99.2191 152.565 93.2641 159.491 94.4939C167.906 95.9827 173.02 107.051 166.029 117.667Z" fill="#A8E1FF"/>
<path d="M90.9029 65.9868C97.7155 65.9868 103.203 71.1652 103.203 77.5341C103.203 83.9029 97.7155 89.0813 90.9029 89.0813C84.1534 89.0813 78.6655 83.9029 78.6655 77.5341C78.6655 71.1652 84.1534 65.9868 90.9029 65.9868Z" fill="white"/>
<path fill-rule="evenodd" clip-rule="evenodd" d="M90.879 89.148C87.3836 89.148 84.0825 88.5105 81.6228 86.0508C79.0983 83.5263 77.6743 82.3903 77.6743 78.8302C77.6743 75.3348 79.0336 72.0336 81.5581 69.5092C84.0177 66.9848 87.3189 65.6255 90.879 65.6255C94.4391 65.6255 97.7403 66.9848 100.2 69.4445C102.724 71.9689 104.084 75.2701 104.148 78.7654C104.148 86.0798 98.2581 89.148 90.9437 89.148C90.9437 89.148 90.9221 89.148 90.879 89.148ZM90.879 66.9201C87.7073 66.9201 84.7297 68.1499 82.4642 70.4154C80.1987 72.6809 78.9689 75.6585 78.9689 78.8302C78.9689 82.0666 80.2635 82.879 82.529 85.0798C84.7298 87.3453 87.7073 87.8535 90.879 87.8535C90.9221 87.8535 90.9437 87.8535 90.9437 87.8535C97.5461 87.8535 102.854 85.3678 102.854 78.7654C102.789 75.5937 101.559 72.6162 99.2937 70.3507C97.0929 68.1499 94.0507 66.9201 90.879 66.9201Z" fill="black"/>
<path d="M102.659 79.8028C102.659 84.9164 98.581 89.059 93.4674 89.059C88.3538 89.059 84.2112 84.9811 84.2112 79.8675C84.1465 74.754 88.2891 70.6113 93.4027 70.6113C96.1213 70.6113 98.5163 71.7117 100.199 73.5888C96.8981 75.4012 94.8268 77.9904 95.6035 79.4144C96.3802 80.7737 99.4225 80.5148 102.659 78.8966C102.659 79.1987 102.659 79.5008 102.659 79.8028Z" fill="black"/>
<path d="M98.3222 58.5069C98.3222 59.8014 92.7387 58.7696 92.7387 58.7696C92.7387 58.7696 86.9946 59.8662 86.9946 58.5069C86.9946 57.2123 89.5191 54.9468 92.626 54.9468C95.7978 54.9468 98.3222 57.2123 98.3222 58.5069Z" fill="#00B0DF"/>
<path d="M150.798 61.2627C150.798 62.5573 148.273 62.4926 145.102 62.4926C141.995 62.4926 139.47 62.6221 139.47 61.3275C139.47 59.9682 141.995 57.7026 145.102 57.7026C148.209 57.7026 150.798 59.9681 150.798 61.2627Z" fill="#00B0DF"/>
<path d="M103.307 97.7968C103.112 97.7968 102.918 97.6673 102.789 97.5378C102.595 97.2789 102.659 96.8258 102.918 96.6316C108.161 92.3595 114.764 90.0293 121.495 90.0293C121.538 90.0293 121.56 90.0293 121.56 90.0293C128.292 90.0293 134.894 92.3595 140.137 96.5669C140.461 96.7611 140.461 97.1495 140.267 97.4731C140.008 97.732 139.619 97.7967 139.36 97.5378C134.312 93.5246 128.033 91.3239 121.56 91.3239C121.56 91.3239 121.538 91.3239 121.495 91.3239C115.087 91.3239 108.744 93.5894 103.76 97.6026C103.63 97.732 103.479 97.7968 103.307 97.7968Z" fill="#00B0DF"/>
<path d="M120.265 108.8C102.594 108.8 92.1084 106.858 80.8456 96.5663C80.5866 96.3721 80.5866 95.9191 80.8456 95.6601C81.0397 95.4012 81.4929 95.4012 81.7518 95.6601C92.7557 105.758 103.177 107.57 120.977 107.506C140.784 107.441 152.565 103.687 159.167 95.3365C159.362 95.0776 159.75 95.0128 160.074 95.2717C160.333 95.4659 160.397 95.8543 160.138 96.178C151.4 107.247 134.635 108.735 120.977 108.8C120.762 108.8 120.524 108.8 120.265 108.8Z" fill="black"/>
<path d="M164.669 98.314C164.497 98.314 164.346 98.2708 164.216 98.1845C162.339 96.3721 157.226 94.495 152.824 95.7895C152.5 95.919 152.112 95.7248 151.983 95.3365C151.918 95.0128 152.112 94.6244 152.436 94.5597C157.355 93.071 162.987 95.1423 165.123 97.2136C165.381 97.4725 165.381 97.9256 165.123 98.1198C164.993 98.2493 164.799 98.314 164.669 98.314Z" fill="black"/>
<path d="M76.0557 99.8031C75.8831 99.8031 75.732 99.7599 75.6026 99.6736C75.3436 99.4147 75.3437 99.0264 75.5378 98.7675C77.415 96.6961 79.6805 95.2721 81.946 94.7543C84.4057 94.107 86.9948 94.4306 89.5193 94.819C89.8429 94.8837 90.1018 95.2074 90.0371 95.531C89.9723 95.9194 89.6487 96.1783 89.2603 96.1135C86.9301 95.7252 84.4704 95.4663 82.2696 95.9841C80.1983 96.5019 78.1917 97.7965 76.5088 99.6089C76.3793 99.7384 76.1851 99.8031 76.0557 99.8031Z" fill="black"/>
<path d="M120.978 126.536C117.871 126.536 114.829 126.018 111.916 124.918C111.593 124.788 111.398 124.4 111.528 124.076C111.657 123.753 112.046 123.558 112.369 123.688C118.13 125.889 124.733 125.759 130.429 123.364C130.752 123.235 131.141 123.429 131.27 123.753C131.4 124.076 131.205 124.465 130.882 124.594C127.775 125.889 124.344 126.536 120.978 126.536Z" fill="#00B0DF"/>
<path d="M140.914 106.34C131.011 111.712 130.622 118.25 120.978 118.703C111.398 119.091 108.679 111.583 99.4878 106.34C106.025 107.57 113.599 108.152 120.978 108.152C128.357 108.088 134.377 107.57 140.914 106.34Z" fill="#961662"/>
<path fill-rule="evenodd" clip-rule="evenodd" d="M120.265 119.35C114.374 119.35 111.009 116.373 107.19 112.942C104.924 111 102.464 108.799 99.1632 106.922C98.9043 106.728 98.7748 106.404 98.9043 106.081C98.969 105.822 99.2927 105.628 99.6163 105.692C105.766 106.858 113.145 107.505 120.977 107.505C128.55 107.44 134.44 106.922 140.784 105.692C141.043 105.628 141.366 105.757 141.496 106.081C141.625 106.404 141.496 106.728 141.172 106.858C137.224 109.058 134.829 111.389 132.693 113.46C129.651 116.502 126.997 119.091 121.042 119.35C120.783 119.35 120.524 119.35 120.265 119.35ZM102.529 107.505C104.665 108.994 106.413 110.547 108.031 111.971C111.98 115.531 115.086 118.315 120.977 118.056C126.414 117.797 128.68 115.596 131.787 112.554C133.405 111 135.152 109.253 137.612 107.57C132.434 108.411 127.256 108.735 120.977 108.799C114.374 108.799 108.096 108.346 102.529 107.505Z" fill="black"/>
<mask id="mask0_884_2413" style="mask-type:luminance" maskUnits="userSpaceOnUse" x="99" y="106" width="42" height="13">
<path d="M140.88 106.308C130.996 111.732 130.64 118.276 121.008 118.697C111.37 119.111 108.69 111.583 99.4858 106.334C106.036 107.596 113.61 108.146 120.982 108.126C128.348 108.107 134.362 107.596 140.88 106.308Z" fill="white"/>
</mask>
<g mask="url(#mask0_884_2413)">
<path d="M139.359 117.99C134.504 113.653 127.837 111.387 121.364 111.711C114.826 112.1 108.548 115.077 104.146 119.932C104.923 121.55 106.217 122.521 107.965 122.909C118.516 125.434 129.843 123.103 139.359 117.99Z" fill="#F037A5"/>
</g>
<path d="M137.095 25.2999C141.043 27.0476 144.733 29.3778 147.969 32.3553C149.458 33.7794 150.817 35.2681 152.241 36.6922C153.73 38.1809 154.831 40.2523 156.643 41.3527C157.614 41.9352 158.909 41.1585 158.844 40.0581C158.779 37.8573 157.29 35.9155 156.125 34.1678C154.766 32.0317 153.148 30.2193 151.206 28.6011C147.516 25.4294 143.374 22.9697 138.778 21.222C136.448 20.2511 134.765 24.2643 137.095 25.2999Z" fill="#A8E1FF"/>
<path d="M158.845 48.1507C159.751 50.2867 160.333 53.2643 162.275 54.753C162.793 55.1414 163.57 55.0767 163.829 54.2999C164.605 51.8402 163.052 48.9922 162.146 46.7267C161.175 44.3317 157.809 45.691 158.845 48.1507Z" fill="#A8E1FF"/>
<path d="M121.69 97.3418C123.632 97.4712 125.38 97.8596 127.192 98.3774C128.81 98.8305 130.429 99.8014 132.111 99.6073C133.212 99.4778 134.118 98.3774 133.406 97.3418C131.27 93.9759 125.25 93.7817 121.69 93.9111C119.489 94.0406 119.489 97.2123 121.69 97.3418Z" fill="#E0F5FF"/>
<path d="M219.818 196.895C213.993 201.426 209.656 178.189 172.372 173.658C166.547 171.781 164.411 162.33 165.123 152.103C165.446 147.054 166.158 141.423 167.388 135.986C168.035 132.943 168.812 130.031 169.783 127.247C170.884 124.14 172.502 122.651 173.602 123.622C189.655 132.102 219.689 167.12 222.796 186.345C223.508 190.94 222.731 194.695 219.818 196.895Z" fill="#00C4F6"/>
<path d="M190.82 153.01C193.927 155.47 196.71 158.124 199.299 161.036C200.464 162.396 201.5 163.884 202.73 165.308C203.895 166.668 205.125 168.545 206.678 169.451C207.649 169.969 209.073 169.322 209.009 168.092C208.879 166.215 207.714 164.726 206.808 163.108C205.772 161.23 204.348 159.548 202.924 157.929C200.076 154.822 196.904 152.104 193.538 149.579C191.532 148.091 188.878 151.456 190.82 153.01Z" fill="#A8E1FF"/>
<path d="M210.108 176.895C210.885 178.06 211.597 179.42 212.18 180.714C212.438 181.232 213.15 181.556 213.733 181.556C214.057 181.556 214.316 181.491 214.639 181.297C215.351 180.908 215.61 180.132 215.416 179.355C215.157 177.672 214.575 176.248 213.733 174.824C212.309 172.494 208.684 174.694 210.108 176.895Z" fill="#A8E1FF"/>
<path d="M219.818 196.896C213.993 201.427 209.656 178.189 172.372 173.658C166.547 171.781 164.411 162.33 165.123 152.103C165.187 150.55 165.123 149.773 166.352 142.523C170.689 166.861 186.354 166.861 197.034 173.787C205.708 179.354 217.035 192.17 220.919 190.941C222.278 190.552 222.472 187.769 222.796 186.345C223.508 190.941 222.731 194.695 219.818 196.896Z" fill="#08BAE8"/>
<path d="M169.006 264.669C165.511 269.265 161.433 273.278 156.966 276.708C143.827 286.677 127.062 291.272 110.232 289.201C92.3023 287 72.3011 281.951 49.9049 273.278C24.7254 263.439 51.5879 269.329 79.8097 263.115C85.7647 261.821 91.5903 260.332 97.6101 257.743C104.018 255.024 110.685 251.076 117.806 244.862C126.997 256.448 193.02 233.081 169.006 264.669Z" fill="#00C4F6"/>
<path d="M169.006 264.669C165.51 269.265 161.433 273.278 156.966 276.708C156.966 274.831 156.578 272.954 155.801 271.336C154.053 267.323 150.558 264.41 146.804 262.144C139.101 257.613 130.039 255.866 121.106 255.672C113.21 255.542 105.377 256.578 97.6099 257.743C104.018 255.024 110.685 251.076 117.805 244.862C126.997 256.448 193.02 233.081 169.006 264.669Z" fill="#08BAE8"/>
<path d="M217.294 190.554C222.731 190.554 227.133 194.955 227.133 200.393C227.133 205.765 222.731 210.167 217.294 210.167C211.857 210.167 207.455 205.765 207.455 200.393C207.455 194.955 211.857 190.554 217.294 190.554Z" fill="#B8E6FF"/>
<path fill-rule="evenodd" clip-rule="evenodd" d="M217.293 210.813C211.532 210.813 206.807 206.152 206.807 200.327C206.807 194.566 211.532 189.905 217.293 189.905C223.054 189.905 227.779 194.566 227.779 200.327C227.779 206.152 223.054 210.813 217.293 210.813ZM217.293 191.2C212.244 191.2 208.102 195.278 208.102 200.327C208.102 205.44 212.244 209.518 217.293 209.518C222.342 209.518 226.485 205.44 226.485 200.327C226.485 195.278 222.342 191.2 217.293 191.2Z" fill="#B8E6FF"/>
<path d="M231.793 263.827C229.527 266.092 225.838 266.092 223.572 263.827C221.307 261.561 221.307 257.872 223.572 255.606C225.838 253.341 229.527 253.341 231.793 255.606C234.058 257.872 234.058 261.561 231.793 263.827Z" fill="#B8E6FF"/>
<path d="M198.78 281.367C197.162 282.985 194.573 282.985 192.955 281.367C191.337 279.749 191.337 277.16 192.955 275.541C194.573 273.923 197.162 273.923 198.78 275.541C200.399 277.16 200.399 279.749 198.78 281.367Z" fill="#B8E6FF"/>
<path d="M235.353 222.463C235.353 224.729 233.476 226.541 231.211 226.541C228.945 226.541 227.133 224.729 227.133 222.463C227.133 220.198 228.945 218.321 231.211 218.321C233.476 218.321 235.353 220.198 235.353 222.463Z" fill="#B8E6FF"/>
<path fill-rule="evenodd" clip-rule="evenodd" d="M231.21 227.189C228.62 227.189 226.484 225.053 226.484 222.464C226.484 219.81 228.62 217.674 231.21 217.674C233.863 217.674 236 219.81 236 222.464C236 225.053 233.863 227.189 231.21 227.189ZM231.21 218.968C229.332 218.968 227.779 220.522 227.779 222.464C227.779 224.341 229.332 225.894 231.21 225.894C233.151 225.894 234.705 224.341 234.705 222.464C234.705 220.522 233.151 218.968 231.21 218.968Z" fill="#B8E6FF"/>
<path d="M31.0691 186.086C30.3571 177.542 30.7454 168.091 36.4416 161.683C41.0373 156.505 48.2869 154.433 55.2129 154.239C62.1389 153.98 69.0002 155.404 75.8614 155.922C94.8917 157.476 113.793 152.815 132.564 149.32C151.335 145.824 171.078 143.494 189.202 149.449C197.487 152.168 205.902 157.476 207.973 165.955C210.951 178.124 199.558 189.516 199.494 202.009C199.429 216.897 215.093 229.325 212.245 243.953C210.692 251.85 203.701 257.87 195.998 260.136C188.231 262.401 179.945 261.495 172.113 259.553C164.281 257.676 156.708 254.828 148.811 253.274C119.618 247.643 89.9076 260.071 60.1971 258.906C48.2869 258.517 35.0175 254.828 29.1919 244.471C24.0136 235.409 26.0202 224.017 29.0625 214.567C32.1694 204.792 31.9105 196.378 31.0691 186.086Z" fill="white"/>
<path d="M65.6469 172.873C65.11 172.899 64.6491 172.482 64.6228 171.945C64.5972 171.424 65.0149 170.963 65.5518 170.937C66.0724 170.911 66.5332 171.329 66.5588 171.85C66.5852 172.387 66.1675 172.847 65.6469 172.873ZM69.5068 181.066L71.2801 180.979L71.3577 182.557L63.0116 182.967L62.934 181.389L67.9287 181.144L67.776 178.036C67.7185 176.865 66.865 176.091 65.7099 176.148L64.0993 176.227L64.0225 174.665L65.6332 174.586C67.6506 174.487 69.2542 175.925 69.3541 177.959L69.5068 181.066ZM73.7234 173.047C73.1865 173.073 72.7257 172.656 72.6993 172.119C72.6737 171.598 73.0906 171.121 73.6275 171.095C74.1481 171.069 74.6098 171.503 74.6353 172.024C74.6617 172.561 74.244 173.021 73.7234 173.047ZM78.8672 178.16C79.9747 180.454 80.3017 180.47 80.7441 180.514L80.8217 182.092L71.2228 182.564L70.5267 182.337L70.4748 181.279L71.1453 180.986L78.4176 180.628C78.112 180.382 77.6898 179.425 77.1685 178.439C75.7553 175.899 74.1015 175.1 71.7237 176.162L71.6534 174.731C74.399 173.519 77.0791 174.627 78.8672 178.16ZM84.4539 168.492L84.4979 169.386L81.2115 169.548L81.1676 168.653L81.7858 168.623C81.5135 168.392 81.3332 168.042 81.3108 167.586C81.2669 166.691 81.7758 166.095 82.6869 166.051C83.5491 166.008 84.1767 166.499 84.327 167.568L83.4973 167.609C83.3928 167.141 83.1213 166.926 82.7471 166.945C82.3566 166.964 82.1385 167.17 82.1608 167.626C82.1768 167.951 82.3432 168.351 82.827 168.572L84.4539 168.492ZM84.9529 180.307L85.9128 180.26L85.9903 181.838L84.5424 181.909C83.5174 181.96 82.6818 181.218 82.6315 180.193L82.1639 170.675L83.742 170.598L84.1832 179.578C84.2088 180.099 84.5787 180.326 84.9529 180.307ZM85.6596 181.854L85.5821 180.276L87.1927 180.197C87.5506 180.18 87.9128 179.917 87.8873 179.396L87.6235 174.028L89.1853 173.951L89.4755 179.857C89.5258 180.882 88.7833 181.701 87.7583 181.751L85.6596 181.854ZM88.2033 185.497C87.6664 185.523 87.2055 185.105 87.1792 184.568C87.1536 184.048 87.5713 183.587 88.1082 183.561C88.6288 183.535 89.0896 183.953 89.1152 184.473C89.1416 185.01 88.7239 185.471 88.2033 185.497ZM105.027 179.321L105.499 179.298L105.577 180.876L105.105 180.899C104.226 180.942 103.474 180.571 103.019 179.941C102.506 180.782 101.571 181.334 100.448 181.389C99.1305 181.453 98.1693 181.142 97.3817 180.381C96.5389 180.488 96.0788 181.082 96.118 181.879L96.2978 185.539L94.736 185.616L94.5561 181.955C94.4818 180.442 95.4167 179.222 96.8201 178.909L96.7173 176.484C96.6198 174.499 98.0267 172.929 100.028 172.831C102.029 172.733 103.582 174.141 103.681 176.142L103.78 178.175C103.816 178.891 104.328 179.355 105.027 179.321ZM100.371 179.811C101.51 179.755 102.252 178.935 102.196 177.797L102.119 176.218C102.064 175.096 101.243 174.337 100.105 174.393C98.9657 174.449 98.224 175.284 98.2791 176.407L98.4158 179.189C98.8806 179.688 99.4271 179.857 100.371 179.811ZM108.042 171.035C107.522 171.06 107.045 170.643 107.018 170.107C106.993 169.586 107.427 169.124 107.947 169.099C108.484 169.072 108.945 169.49 108.971 170.011C108.997 170.548 108.579 171.008 108.042 171.035ZM110.971 170.891C110.434 170.917 109.973 170.5 109.947 169.963C109.921 169.442 110.339 168.981 110.876 168.955C111.396 168.929 111.857 169.347 111.883 169.868C111.909 170.405 111.491 170.865 110.971 170.891ZM109.692 172.405C111.611 172.311 113.198 173.733 113.293 175.669L113.371 177.264C113.459 179.037 112.097 180.539 110.324 180.626L105.508 180.863L104.813 180.652L104.76 179.579L105.431 179.301L107.237 179.212C106.727 178.781 106.369 178.13 106.331 177.365L106.265 176.015C106.17 174.079 107.593 172.508 109.529 172.413L109.692 172.405ZM111.802 177.194L111.731 175.746C111.678 174.672 110.826 173.915 109.768 173.967L109.606 173.975C108.532 174.028 107.774 174.864 107.827 175.938L107.893 177.288C107.944 178.33 108.799 179.136 109.759 179.088L110.101 179.072C111.077 179.024 111.851 178.187 111.802 177.194ZM120.79 179.28C120.707 180.573 120.297 182.191 120.088 182.919L119.079 182.969C119.191 182.246 119.512 180.811 119.571 179.373L119.591 178.768L120.827 178.708L120.79 179.28ZM123.269 182.127C123.165 179.995 124.439 178.71 126.232 177.692L123.068 173.705L123.017 172.68C124.387 172.009 125.74 171.666 127.041 171.602C129.417 171.485 130.95 172.486 130.744 174.274C130.585 175.684 129.9 176.68 128.713 177.749C129.052 177.994 129.466 178.12 129.937 178.097L132.427 177.975L132.504 179.553L129.673 179.692C128.551 179.747 127.943 179.337 127.378 178.777C126.369 179.495 124.731 180 124.831 182.05C124.938 184.214 128.19 184.69 130.928 183.316L130.999 184.764C127.519 186.631 123.436 185.511 123.269 182.127ZM124.746 173.672L124.75 173.753L127.376 177.081C128.403 176.085 129.036 175.026 128.987 174.018C128.919 172.635 126.195 172.622 124.746 173.672ZM134.716 169.447L136.375 169.366L136.419 170.26L133.133 170.422L133.089 169.527L133.707 169.497C133.434 169.249 133.254 168.915 133.232 168.46C133.189 167.581 133.697 166.969 134.608 166.925C135.47 166.882 136.098 167.373 136.248 168.442L135.418 168.483C135.314 168.015 135.042 167.8 134.668 167.819C134.278 167.838 134.059 168.044 134.083 168.516C134.098 168.825 134.263 169.208 134.716 169.447ZM134.378 176.525L134.143 171.742L135.705 171.665L135.971 177.083C136.035 178.385 135.108 179.425 133.806 179.489L132.407 179.558L131.711 179.331L131.659 178.273L132.33 177.98L133.159 177.939C134.087 177.893 134.415 177.274 134.378 176.525ZM139.812 179.194L138.234 179.271L137.678 167.948L139.256 167.87L139.812 179.194ZM140.873 182.827L140.795 181.249L141.609 181.209C142.683 181.157 143.394 180.371 143.341 179.298L142.944 171.212L144.522 171.134L144.92 179.22C145.015 181.156 143.622 182.692 141.686 182.787L140.873 182.827ZM161.37 176.553L161.448 178.131L159.56 178.224C159.504 180.722 157.656 182.623 155.118 182.747L155.037 182.751C152.369 182.882 150.287 180.995 150.155 178.311L149.995 175.057L151.557 174.98L151.717 178.234C151.807 180.072 153.137 181.263 154.96 181.173L155.041 181.169C156.847 181.08 158.07 179.765 157.98 177.926L157.442 166.977L159.02 166.899L159.499 176.645L161.37 176.553ZM171.428 176.059L171.965 176.032L172.043 177.61L171.506 177.637C170.53 177.685 169.692 177.237 169.265 176.507C168.746 177.234 167.907 177.748 166.931 177.796C165.873 177.848 164.863 177.523 164.113 176.875C163.708 177.58 162.948 178.057 162.021 178.103L161.386 178.134L160.707 177.906L160.655 176.849L161.309 176.556L161.943 176.525C162.675 176.489 163.139 175.96 163.104 175.244L163.004 173.211C162.908 171.258 164.316 169.705 166.268 169.609L166.447 169.601C168.399 169.505 169.952 170.912 170.048 172.865L170.148 174.898C170.183 175.614 170.696 176.095 171.428 176.059ZM166.854 176.234C167.814 176.187 168.586 175.301 168.536 174.276L168.47 172.942C168.416 171.836 167.614 171.109 166.524 171.162L166.345 171.171C165.255 171.225 164.527 172.027 164.582 173.133L164.69 175.33C165.193 175.941 165.992 176.277 166.854 176.234ZM177.083 175.781L179.621 175.656L179.699 177.234L171.841 177.62L171.161 177.393L171.109 176.335L171.764 176.058L171.763 176.042L173.634 175.95C172.986 175.379 172.601 174.517 172.546 173.394C172.346 169.327 175.752 168.279 178.603 169.199L178.673 170.631C176.319 169.849 174.137 170.593 174.272 173.342C174.372 175.376 175.586 175.854 177.083 175.781ZM70.8999 199.087C70.363 199.113 69.9021 198.695 69.8758 198.158C69.8502 197.638 70.2679 197.177 70.8048 197.151C71.3254 197.125 71.7862 197.543 71.8118 198.063C71.8382 198.6 71.4205 199.061 70.8999 199.087ZM73.8121 198.944C73.2915 198.969 72.8143 198.552 72.788 198.015C72.7624 197.495 73.1963 197.033 73.717 197.008C74.2538 196.981 74.7147 197.399 74.7403 197.919C74.7666 198.456 74.349 198.917 73.8121 198.944ZM68.8143 203.772C68.7231 201.917 70.1464 200.347 72.0011 200.256L72.2614 200.243C74.1161 200.152 75.6864 201.575 75.7775 203.43L75.863 205.171C75.9485 206.911 74.6035 208.413 72.8464 208.499L72.4071 208.52C70.5199 208.613 68.9829 207.205 68.891 205.334L68.8143 203.772ZM70.3761 203.695L70.4528 205.257C70.5008 206.233 71.3372 206.991 72.3296 206.942L72.8339 206.918C73.6799 206.876 74.3297 206.159 74.2873 205.297L74.1994 203.507C74.1498 202.499 73.3476 201.771 72.3389 201.821L72.0786 201.834C71.0699 201.883 70.3265 202.686 70.3761 203.695ZM82.5473 206.457L82.6249 208.035L81.063 208.112L81.0766 208.388C81.1717 210.324 79.7957 211.86 77.8597 211.955L77.0299 211.995L76.9524 210.417L77.7821 210.377C78.8396 210.325 79.5675 209.539 79.5148 208.465L79.1175 200.379L80.6793 200.302L80.9855 206.533L82.5473 206.457ZM87.9148 206.193L89.2 206.13L89.2776 207.708L87.7808 207.781C87.0487 207.817 86.3795 207.475 85.8813 206.962C85.4685 207.52 84.8361 207.926 83.8599 207.974L82.412 208.045L81.7159 207.819L81.6639 206.761L82.3344 206.467L83.7987 206.395C84.7423 206.349 85.0381 205.731 85.0013 204.983L84.7671 200.216L86.3452 200.138L86.5514 204.336C86.5578 204.466 86.5642 204.596 86.5552 204.743L86.5632 204.906C86.5999 205.654 86.9874 206.239 87.9148 206.193ZM84.2922 209.47C84.8291 209.443 85.2899 209.861 85.3155 210.381C85.3419 210.918 84.9242 211.379 84.3873 211.406C83.8667 211.431 83.3896 211.014 83.3632 210.477C83.3376 209.957 83.7716 209.495 84.2922 209.47ZM87.2044 209.326C87.7413 209.3 88.2021 209.718 88.2277 210.238C88.2541 210.775 87.8364 211.236 87.2995 211.263C86.7789 211.288 86.3017 210.871 86.2754 210.334C86.2498 209.814 86.6838 209.352 87.2044 209.326ZM100.591 205.57L101.665 205.517L101.743 207.096L89.1015 207.717L89.1007 207.7L88.4217 207.489L88.3697 206.432L89.0256 206.171L89.024 206.138L90.3418 206.074L90.062 200.38L91.6239 200.303L91.7206 202.271C92.9494 200.727 94.4798 199.347 96.2857 199.258C98.9213 199.129 100.341 200.478 100.502 203.748L100.591 205.57ZM99.0784 205.645L98.9889 203.822C98.877 201.545 97.7771 200.734 96.199 200.812C94.6859 200.886 93.1736 201.972 91.7949 203.784L91.9037 205.997L99.0784 205.645ZM104.186 197.256C103.666 197.281 103.189 196.864 103.162 196.327C103.137 195.807 103.571 195.345 104.091 195.32C104.628 195.293 105.089 195.711 105.115 196.231C105.141 196.768 104.723 197.229 104.186 197.256ZM107.115 197.112C106.578 197.138 106.117 196.72 106.091 196.184C106.065 195.663 106.483 195.202 107.02 195.176C107.54 195.15 108.001 195.568 108.027 196.088C108.053 196.625 107.635 197.086 107.115 197.112ZM105.836 198.626C107.755 198.532 109.342 199.954 109.437 201.89L109.515 203.485C109.603 205.258 108.241 206.76 106.468 206.847L101.652 207.084L100.957 206.873L100.904 205.799L101.575 205.522L103.381 205.433C102.871 205.002 102.513 204.35 102.475 203.586L102.409 202.235C102.314 200.299 103.737 198.729 105.673 198.634L105.836 198.626ZM107.946 203.415L107.875 201.967C107.823 200.893 106.97 200.136 105.912 200.188L105.75 200.196C104.676 200.249 103.918 201.085 103.971 202.159L104.037 203.509C104.088 204.55 104.943 205.356 105.903 205.309L106.245 205.292C107.221 205.244 107.995 204.407 107.946 203.415ZM116.759 196.638C116.223 196.664 115.762 196.247 115.735 195.71C115.71 195.189 116.127 194.728 116.664 194.702C117.185 194.676 117.646 195.094 117.671 195.615C117.698 196.151 117.28 196.612 116.759 196.638ZM119.672 196.495C119.151 196.52 118.674 196.104 118.648 195.567C118.622 195.046 119.056 194.584 119.577 194.559C120.113 194.532 120.574 194.95 120.6 195.471C120.626 196.008 120.209 196.468 119.672 196.495ZM123.145 204.462L123.601 204.44L123.678 206.018L123.223 206.04C122.247 206.088 121.395 205.673 120.854 204.966C120.303 205.694 119.478 206.159 118.306 206.217C116.468 206.307 114.895 204.835 114.803 202.948L114.737 201.613C114.641 199.661 116.033 198.109 118.001 198.012L121.597 197.835L121.865 203.302C121.9 204.018 122.43 204.497 123.145 204.462ZM120.311 203.541L120.112 199.474L118.078 199.574C116.988 199.627 116.261 200.43 116.315 201.536L116.381 202.87C116.431 203.895 117.27 204.702 118.23 204.655C119.092 204.612 119.871 204.199 120.311 203.541ZM131.223 201.619C132.33 203.913 132.657 203.93 133.1 203.973L133.177 205.551L123.578 206.023L122.882 205.796L122.83 204.739L123.501 204.445L130.773 204.087C130.467 203.841 130.045 202.884 129.524 201.898C128.111 199.358 126.457 198.559 124.079 199.622L124.009 198.19C126.754 196.979 129.435 198.086 131.223 201.619ZM136.719 205.377L135.141 205.455L134.584 194.131L136.163 194.054L136.719 205.377ZM137.78 209.011L137.702 207.433L138.516 207.393C139.589 207.34 140.301 206.555 140.248 205.481L139.851 197.395L141.429 197.318L141.826 205.403C141.921 207.34 140.529 208.876 138.593 208.971L137.78 209.011ZM149.021 195.249C148.484 195.275 148.023 194.857 147.997 194.32C147.971 193.8 148.389 193.339 148.926 193.313C149.446 193.287 149.907 193.705 149.933 194.225C149.959 194.762 149.541 195.223 149.021 195.249ZM151.933 195.106C151.412 195.131 150.935 194.714 150.909 194.177C150.883 193.657 151.317 193.195 151.838 193.169C152.375 193.143 152.836 193.561 152.861 194.081C152.888 194.618 152.47 195.079 151.933 195.106ZM146.935 199.934C146.844 198.079 148.267 196.509 150.122 196.418L150.382 196.405C152.237 196.314 153.807 197.737 153.898 199.592L153.984 201.332C154.069 203.073 152.724 204.574 150.967 204.661L150.528 204.682C148.641 204.775 147.104 203.367 147.012 201.496L146.935 199.934ZM148.497 199.857L148.574 201.419C148.622 202.395 149.458 203.153 150.45 203.104L150.955 203.08C151.801 203.038 152.451 202.321 152.408 201.459L152.32 199.669C152.271 198.66 151.468 197.933 150.46 197.983L150.199 197.996C149.191 198.045 148.447 198.848 148.497 199.857ZM160.668 202.619L160.746 204.197L159.184 204.273L159.197 204.55C159.293 206.486 157.917 208.021 155.981 208.117L155.151 208.157L155.073 206.579L155.903 206.538C156.961 206.486 157.688 205.701 157.636 204.627L157.238 196.541L158.8 196.464L159.106 202.695L160.668 202.619ZM162.156 195.093C161.619 195.119 161.158 194.701 161.132 194.164C161.107 193.644 161.523 193.167 162.06 193.14C162.581 193.115 163.043 193.549 163.068 194.069C163.095 194.606 162.677 195.067 162.156 195.093ZM165.068 194.949C164.548 194.975 164.071 194.558 164.044 194.021C164.019 193.501 164.452 193.023 164.972 192.997C165.509 192.971 165.971 193.405 165.997 193.925C166.023 194.462 165.605 194.923 165.068 194.949ZM165.987 202.357L167.695 202.273L167.773 203.851L165.853 203.946C165.104 203.983 164.435 203.64 163.937 203.127C163.541 203.684 162.908 204.09 161.932 204.138L160.533 204.207L159.837 203.98L159.785 202.923L160.455 202.629L161.871 202.56C162.782 202.515 163.095 201.912 163.075 201.179L162.823 196.381L164.401 196.303L164.635 201.07C164.672 201.818 165.059 202.403 165.987 202.357ZM171.683 193.956C171.178 193.964 170.735 193.578 170.693 193.059C170.634 192.523 171.067 192.045 171.603 192.003C172.14 191.976 172.601 192.394 172.626 192.915C172.654 193.468 172.236 193.929 171.683 193.956ZM171.818 195.384C173.738 195.29 175.325 196.712 175.42 198.648L175.498 200.243C175.585 202.016 174.224 203.518 172.45 203.605L167.635 203.842L166.939 203.631L166.887 202.558L167.558 202.28L169.364 202.191C168.853 201.76 168.495 201.109 168.458 200.344L168.391 198.994C168.296 197.058 169.719 195.487 171.655 195.392L171.818 195.384ZM173.929 200.173L173.858 198.725C173.805 197.651 172.952 196.894 171.895 196.946L171.732 196.954C170.658 197.007 169.9 197.843 169.953 198.917L170.02 200.267C170.071 201.309 170.926 202.115 171.886 202.067L172.227 202.051C173.203 202.003 173.978 201.166 173.929 200.173ZM71.3248 224.901C70.788 224.928 70.3271 224.51 70.3007 223.973C70.2751 223.453 70.6928 222.992 71.2297 222.965C71.7503 222.94 72.2112 223.358 72.2368 223.878C72.2631 224.415 71.8455 224.876 71.3248 224.901ZM74.237 224.758C73.7164 224.784 73.2393 224.367 73.2129 223.83C73.1873 223.31 73.6213 222.848 74.1419 222.822C74.6788 222.796 75.1396 223.214 75.1652 223.734C75.1916 224.271 74.7739 224.732 74.237 224.758ZM77.7108 232.726L78.1663 232.703L78.2438 234.281L77.7883 234.304C76.8121 234.352 75.96 233.937 75.4197 233.23C74.8684 233.958 74.0432 234.423 72.8718 234.48C71.0334 234.57 69.4607 233.098 69.3679 231.211L69.3024 229.877C69.2065 227.925 70.598 226.372 72.5666 226.276L76.1621 226.099L76.4306 231.565C76.4658 232.281 76.9949 232.761 77.7108 232.726ZM74.8768 231.805L74.6769 227.738L72.6433 227.837C71.5533 227.891 70.8262 228.693 70.8805 229.8L70.9461 231.134C70.9964 232.159 71.8352 232.965 72.7951 232.918C73.6573 232.876 74.4361 232.463 74.8768 231.805ZM88.4004 225.628L89.9622 225.551L90.2204 230.806C90.2979 232.384 89.0766 233.749 87.4822 233.828C86.4573 233.878 85.6921 233.573 85.1939 233.059C84.7029 233.687 83.855 234.022 83.0252 234.063C82.163 234.105 81.4157 233.832 80.8826 233.271C80.4371 233.831 79.7381 234.208 78.9409 234.247L78.1437 234.286L78.0661 232.708L78.9121 232.667C79.5792 232.634 80.0433 232.122 80.0113 231.471L79.8251 227.68L81.3869 227.604L81.5732 231.394C81.6083 232.11 82.0854 232.527 82.9648 232.5C83.8116 232.475 84.3578 231.975 84.3227 231.259L84.1364 227.468L85.7145 227.391L85.9008 231.182C85.9351 231.881 86.4773 232.295 87.4047 232.249C88.1368 232.213 88.6937 231.599 88.6585 230.883L88.4004 225.628ZM78.1274 234.287L77.4313 234.06L77.3794 233.003L78.0499 232.709L78.1274 234.287ZM94.4142 233.487L92.8361 233.564L92.2797 222.241L93.8579 222.164L94.4142 233.487ZM95.4749 237.121L95.3974 235.542L96.2108 235.502C97.2846 235.45 97.9962 234.665 97.9434 233.591L97.5462 225.505L99.1243 225.427L99.5216 233.513C99.6167 235.449 98.2244 236.985 96.2883 237.081L95.4749 237.121ZM107.902 231.242L109.675 231.155L109.753 232.733L101.406 233.143L101.329 231.565L106.324 231.32L106.171 228.212C106.113 227.041 105.26 226.268 104.105 226.324L101.876 226.434L101.799 224.872L104.028 224.763C106.045 224.663 107.649 226.101 107.749 228.135L107.902 231.242ZM110.753 221.333L112.331 221.256L112.799 230.773C112.849 231.798 112.091 232.619 111.082 232.668L109.618 232.74L108.922 232.513L108.87 231.456L109.541 231.178L109.54 231.162L110.516 231.114C110.874 231.096 111.22 230.835 111.195 230.314L110.753 221.333ZM116.737 232.39L115.159 232.468L114.602 221.144L116.18 221.067L116.737 232.39ZM136.006 229.862L137.812 229.773L137.889 231.351L134.505 231.517L134.179 224.879L132.991 224.938C131.95 224.989 131.254 225.757 131.305 226.798L131.527 231.305C131.658 233.989 129.755 236.072 127.087 236.203L127.005 236.207C124.337 236.339 122.255 234.451 122.123 231.767L121.963 228.513L123.525 228.436L123.685 231.69C123.775 233.529 125.106 234.719 126.928 234.629L127.009 234.625C128.831 234.536 130.055 233.22 129.965 231.382L129.743 226.875C129.65 224.971 131.01 223.453 132.914 223.36L135.68 223.224L136.006 229.862ZM138.923 219.95L140.501 219.872L140.968 229.389C141.019 230.414 140.26 231.235 139.251 231.284L137.787 231.356L137.091 231.129L137.039 230.072L137.71 229.794L137.709 229.778L138.686 229.73C139.043 229.712 139.389 229.451 139.364 228.93L138.923 219.95ZM144.35 219.683L144.906 231.006L143.328 231.084L142.772 219.76L144.35 219.683ZM144.331 234.573L145.958 234.494L146.002 235.388L142.716 235.55L142.672 234.655L143.29 234.625C143.018 234.393 142.837 234.043 142.815 233.588C142.771 232.693 143.28 232.097 144.191 232.053C145.053 232.01 145.681 232.501 145.831 233.57L145.001 233.611C144.897 233.143 144.625 232.928 144.251 232.947C143.861 232.966 143.642 233.172 143.665 233.628C143.681 233.953 143.847 234.353 144.331 234.573ZM156.789 228.841L158.562 228.753L158.64 230.332L150.294 230.742L150.216 229.163L155.211 228.918L155.058 225.811C155 224.639 154.147 223.866 152.992 223.923L150.763 224.032L150.686 222.47L152.915 222.361C154.933 222.262 156.536 223.699 156.636 225.733L156.789 228.841ZM163.731 228.499L166.269 228.375L166.347 229.953L158.488 230.339L157.809 230.111L157.757 229.054L158.412 228.777L158.411 228.761L160.282 228.669C159.634 228.097 159.249 227.236 159.194 226.113C158.994 222.046 162.4 220.998 165.25 221.918L165.321 223.349C162.967 222.568 160.785 223.311 160.92 226.061C161.02 228.094 162.234 228.573 163.731 228.499ZM174.027 221.291C175.979 221.195 177.516 222.603 177.613 224.572L177.886 230.12C177.998 232.398 176.073 233.715 172.244 233.137L172.173 231.673C175.369 232.005 176.378 231.303 176.306 229.839L176.287 229.448L174.14 229.554C172.3 229.628 170.744 228.155 170.651 226.268L170.585 224.917C170.488 222.949 171.88 221.396 173.848 221.3L174.027 221.291ZM176.051 224.649C175.997 223.542 175.195 222.815 174.105 222.869L173.926 222.878C172.836 222.931 172.109 223.734 172.163 224.84L172.229 226.19C172.28 227.215 173.135 228.021 174.078 227.975L176.21 227.87L176.051 224.649Z" fill="#012246"/>
<path opacity="0.4" d="M212.246 243.953C210.692 251.85 203.702 257.87 195.999 260.136C188.232 262.401 179.946 261.495 172.114 259.553C164.282 257.676 156.709 254.828 148.812 253.274C119.619 247.643 89.9085 260.071 60.1979 258.906C48.2878 258.453 35.0184 254.828 29.1928 244.471C26.5389 239.875 25.8269 234.632 26.0858 229.454C26.28 233.144 27.1862 236.769 28.9986 240.07C34.63 249.973 47.3169 253.469 58.7092 253.922C87.0604 254.957 115.476 243.112 143.31 248.484C150.883 249.973 158.133 252.692 165.641 254.504C173.085 256.317 181.047 257.223 188.426 255.087C195.805 252.886 202.537 247.125 203.961 239.552C206.679 225.635 193.928 214.567 194.057 200.326C194.122 189.193 208.233 176.377 207.78 165.243C207.866 165.459 207.931 165.696 207.974 165.955C210.951 178.124 199.559 189.516 199.494 202.074C199.43 216.897 215.094 229.325 212.246 243.953Z" fill="#05BEED"/>
<path fill-rule="evenodd" clip-rule="evenodd" d="M186.225 262.142C181.953 262.142 177.292 261.495 171.985 260.2C168.683 259.424 165.382 258.388 162.21 257.482C157.809 256.187 153.213 254.828 148.682 253.922C132.112 250.685 115.023 253.404 98.5173 256.058C85.9599 258 73.0141 260.071 60.1978 259.553C51.33 259.23 35.4714 256.899 28.6101 244.73C24.338 237.286 24.338 227.383 28.4159 214.372C31.5876 204.404 31.1993 195.731 30.4225 186.151C29.7752 178.836 29.7105 168.286 35.9245 161.295C40.1319 156.57 46.9284 153.851 55.149 153.592C59.8094 153.463 64.4699 153.98 68.9362 154.563C71.2664 154.822 73.5967 155.081 75.9269 155.275C91.9797 156.634 108.227 153.398 123.891 150.356C126.739 149.795 129.587 149.234 132.435 148.673C151.142 145.177 171.014 142.782 189.397 148.802C195.481 150.809 206.097 155.728 208.621 165.761C210.304 172.752 207.456 179.484 204.673 186.086C202.472 191.264 200.206 196.572 200.142 202.074C200.142 208.806 203.443 215.149 206.744 221.363C210.498 228.548 214.447 235.992 212.893 244.018C211.404 251.656 204.867 258.194 196.193 260.783C193.086 261.689 189.785 262.142 186.225 262.142ZM132.37 251.138C137.937 251.138 143.439 251.592 148.876 252.627C153.537 253.533 158.133 254.893 162.534 256.252C165.706 257.158 169.007 258.129 172.243 258.906C181.823 261.236 189.267 261.43 195.805 259.553C204.025 257.093 210.239 250.944 211.599 243.824C213.087 236.251 209.463 229.26 205.579 221.946C202.278 215.602 198.847 209.065 198.847 202.009C198.912 196.313 201.242 190.876 203.443 185.568C206.291 178.901 208.945 172.622 207.326 166.085C204.932 156.246 193.669 151.586 189.008 150.032C170.884 144.077 151.207 146.472 132.694 149.967C129.846 150.485 126.998 151.025 124.15 151.585C108.356 154.692 92.0444 157.929 75.8622 156.57C73.4672 156.375 71.137 156.117 68.8067 155.858C64.3404 155.275 59.7447 154.757 55.2137 154.887C50.6827 155.016 42.2032 156.181 36.8954 162.136C31.0051 168.739 31.0698 178.966 31.6524 186.021C32.4938 195.731 32.8822 204.598 29.6458 214.761C25.6326 227.383 25.6973 236.963 29.7105 244.148C36.2481 255.669 51.6536 257.935 60.2625 258.259C72.9494 258.776 85.8304 256.705 98.3231 254.763C109.521 252.951 120.978 251.138 132.37 251.138Z" fill="#99E7FA"/>
<path d="M64.3401 243.954C65.0521 253.728 61.492 262.855 57.1552 266.997L49.7114 270.946C43.5622 271.399 38.9017 260.46 37.9955 247.255C37.0893 234.051 40.8436 221.946 48.6757 213.596C54.6955 218.127 63.4339 230.749 64.3401 243.954Z" fill="#00C4F6"/>
<path d="M46.7991 215.798C40.2615 223.954 37.1545 235.152 37.996 247.256C38.1902 249.651 38.4491 251.981 38.8374 254.182C39.3553 254.398 39.8947 254.57 40.4557 254.7C42.1386 255.153 44.2099 255.153 45.4398 253.858C46.4107 252.758 46.5402 251.075 46.0871 249.716C45.634 248.162 44.5336 247.062 44.1452 245.508C43.7568 244.084 43.5626 242.466 43.3685 240.977C42.9154 237.741 42.8506 234.44 43.0448 231.139C43.4332 225.896 44.7278 220.653 46.7991 215.798Z" fill="#08BAE8"/>
<path d="M33.4648 249.197C35.2772 249.542 37.0033 250.039 38.6431 250.686C41.4912 251.722 44.0156 253.081 46.2811 254.57L53.0129 270.558C49.0644 274.635 39.6788 277.548 29.4516 275.412C16.5059 272.694 5.89033 265.832 0 256.058C6.01978 251.463 20.5191 246.478 33.4648 249.197Z" fill="#00C4F6"/>
<path d="M37.4777 254.827C33.2703 253.533 27.1858 250.814 22.9784 253.598C22.3311 254.051 22.4606 254.957 23.1726 255.216C25.1792 255.993 27.38 255.863 29.4513 256.122C31.911 256.316 34.4354 256.575 36.8951 256.963C38.2544 257.158 38.837 255.281 37.4777 254.827Z" fill="#A8E1FF"/>
<path d="M15.5996 253.987C14.9523 254.181 14.2403 254.246 13.593 254.44C12.9457 254.57 12.2984 255.023 11.6511 255.282C10.1624 255.994 10.9391 258.324 12.4926 258.324C13.2046 258.324 13.9814 258.389 14.6934 258.259C15.3407 258.065 15.988 257.935 16.6353 257.741C17.6709 257.482 18.2535 256.382 17.9945 255.346C17.6709 254.311 16.6352 253.793 15.5996 253.987Z" fill="#A8E1FF"/>
<path d="M0 256.059C5.89033 265.833 16.5059 272.694 29.4516 275.413C39.2904 277.484 48.3524 274.83 52.4951 271.011C52.2362 270.558 51.9125 270.234 51.5241 269.911C49.9707 268.81 47.8346 268.81 45.828 268.875C39.8082 269.069 33.7237 269.263 27.7039 268.487C21.7489 267.775 15.7291 265.898 10.8744 262.337C7.89691 260.072 5.30777 257.094 3.68955 253.729C2.26552 254.505 1.03566 255.282 0 256.059Z" fill="#08BAE8"/>
</svg>
