<svg width="193" height="185" viewBox="0 0 193 185" fill="none" xmlns="http://www.w3.org/2000/svg">
<path d="M60.2229 108.285C61.7245 99.0181 70.5191 92.7117 79.8286 94.2133C89.138 95.7577 95.4444 104.552 93.9 113.819C92.3556 123.128 83.6039 129.435 74.2944 127.89C64.9849 126.389 58.6785 117.594 60.2229 108.285Z" fill="#B8E6FF"/>
<path d="M29.5479 117.337C33.5806 117.337 36.884 120.64 36.884 124.673C36.884 128.706 33.5806 131.966 29.5479 131.966C25.5153 131.966 22.2119 128.706 22.2119 124.673C22.2119 120.64 25.5153 117.337 29.5479 117.337Z" fill="#B8E6FF"/>
<path d="M42.4629 169.506C42.9348 167.533 44.8653 166.332 46.8387 166.804C48.8122 167.276 50.0134 169.206 49.5415 171.18C49.1125 173.153 47.139 174.354 45.1656 173.882C43.1922 173.453 41.991 171.48 42.4629 169.506Z" fill="#B8E6FF"/>
<path d="M45.678 126.221C52.8424 119.057 64.4685 119.057 71.6758 126.221C78.8403 133.385 78.8403 145.012 71.6758 152.176C64.4685 159.383 52.8424 159.383 45.678 152.176C38.5136 145.012 38.5136 133.385 45.678 126.221Z" fill="#B8E6FF"/>
<path d="M101.236 146.983C103.595 137.159 113.505 131.067 123.373 133.469C133.24 135.829 139.289 145.739 136.929 155.606C134.527 165.473 124.617 171.522 114.75 169.163C104.925 166.76 98.8334 156.85 101.236 146.983Z" fill="#B8E6FF"/>
<path d="M88.4516 129.607C103.638 129.607 115.951 141.92 115.951 157.107C115.951 172.294 103.638 184.606 88.4516 184.606C73.3076 184.606 60.9951 172.294 60.9951 157.107C60.9951 141.92 73.3076 129.607 88.4516 129.607Z" fill="#B8E6FF"/>
<path d="M63.3978 82.2459C41.1323 79.7577 38.4296 65.9007 34.9546 68.6464C33.1957 70.0192 32.7667 72.293 33.2815 75.1244C35.0833 85.0345 48.5971 101.594 58.4642 109.23C60.0516 110.475 65.3283 114.379 66.6583 115.065C69.8758 117.725 71.9351 84.9487 63.3978 82.2459Z" fill="#00C4F6"/>
<path d="M61.467 100.008C48.8541 95.1176 36.8419 85.3791 33.1525 71.9512C33.0238 72.895 33.0667 73.9675 33.2812 75.1258C35.083 85.0359 48.5967 101.596 58.4639 109.232C60.0512 110.476 65.328 114.38 66.6579 115.066C68.2453 116.353 69.5323 109.232 69.4465 101.295C66.7437 101.467 64.041 101.081 61.467 100.008Z" fill="#07BFEE"/>
<path d="M59.4943 83.7494C57.1348 83.063 54.8611 82.2479 52.5444 81.3899C50.3994 80.6176 48.0827 79.8025 45.8519 79.588C45.3371 79.5022 45.0797 80.2315 45.4229 80.5318C48.9407 83.7923 54.3033 84.9935 58.8508 86.066C60.3095 86.4093 60.9959 84.1784 59.4943 83.7494Z" fill="#A8E1FF"/>
<path d="M42.3754 76.4966C41.8606 76.1105 41.3887 75.7244 40.8739 75.3383C40.4448 75.038 39.7155 74.609 39.1578 74.8235C38.8718 74.9379 38.7145 75.1381 38.6859 75.4241C38.643 76.0247 39.2007 76.6253 39.5868 76.9685C40.1016 77.3546 40.5736 77.7408 41.0884 78.1269C41.5603 78.513 42.2038 78.5559 42.6328 78.0411C43.0618 77.4833 42.8473 76.8827 42.3754 76.4966Z" fill="#A8E1FF"/>
<path d="M127.62 184.436C71.077 183.75 65.5428 115.881 63.6123 81.9034C63.3978 78.2139 63.2262 74.8676 63.0546 72.0791C63.026 71.8217 62.9974 71.55 62.9688 71.264C62.9688 71.264 63.0831 71.2354 63.312 71.1782C64.0842 70.8779 66.1863 70.1915 69.1465 69.4193C81.4161 66.2446 108.873 61.6971 121.271 80.0157C121.185 81.3028 121.099 82.5755 121.013 83.8339C120.785 87.2374 120.584 90.5264 120.413 93.7011C116.809 155.907 120.713 175.556 156.793 163.672C173.181 158.267 150.358 184.736 127.62 184.436Z" fill="#00C4F6"/>
<path d="M70.2615 76.0676C69.2747 102.752 75.5382 148.484 96.9028 164.872C118.267 181.217 124.96 175.34 115.35 156.292C105.397 136.515 110.502 100.907 114.149 83.4894C117.753 66.0717 70.2615 76.0676 70.2615 76.0676Z" fill="#A8E1FF"/>
<path opacity="0.2" d="M121.013 83.8346C120.784 87.238 120.584 90.5271 120.412 93.7017C112.304 100.48 101.278 103.741 90.8105 102.067C79.2273 100.223 68.8024 92.4147 63.6114 81.904C63.3969 78.2146 63.2253 74.8683 63.0537 72.0797C63.1395 71.7937 63.2253 71.4934 63.3111 71.1788C64.0833 70.8785 66.1855 70.1921 69.1456 69.4199C69.7033 70.9214 70.3039 72.1656 71.119 72.1656C87.8074 72.0798 104.281 76.4556 119.554 83.1052C120.04 83.334 120.526 83.5772 121.013 83.8346Z" fill="#1C7FB3"/>
<path d="M104.109 136.214C104.367 138.745 104.71 141.32 105.396 143.808C105.954 145.996 106.769 148.827 108.442 150.414C108.914 150.929 109.686 150.543 109.729 149.9C109.858 147.669 108.914 145.138 108.356 142.993C107.756 140.633 107.155 138.231 106.726 135.828C106.469 134.37 103.981 134.713 104.109 136.214Z" fill="#E0F5FF"/>
<path d="M109.343 155.993C109.643 156.851 109.944 157.666 110.373 158.481C110.716 159.253 111.016 159.939 111.703 160.454C112.046 160.712 112.561 160.411 112.689 160.025C112.904 159.253 112.689 158.524 112.561 157.751C112.389 156.893 112.175 156.121 111.874 155.306C111.359 153.719 108.828 154.405 109.343 155.993Z" fill="#E0F5FF"/>
<path d="M158.379 163.374C156.105 160.585 154.603 154.922 155.676 149.173C157.134 141.408 163.183 134.544 167.087 132.271C171.12 137.762 172.536 145.184 171.077 152.949C169.619 160.714 166.144 166.891 162.497 166.205L158.379 163.374Z" fill="#00C4F6"/>
<path d="M165.673 156.722C167.088 155.992 168.719 155.349 170.478 154.92C171.507 154.662 172.565 154.491 173.652 154.405C181.503 153.676 189.783 157.623 193 160.754C188.839 166.16 182.061 169.506 174.21 170.235C168.032 170.793 162.67 168.434 160.61 165.731L165.673 156.722Z" fill="#00C4F6"/>
<path d="M170.992 158.824C172.451 158.738 173.909 158.781 175.411 158.824C176.741 158.824 178.071 159.038 179.401 158.695C179.744 158.566 179.958 158.051 179.615 157.751C177.298 155.735 173.48 156.936 170.778 157.451C170.048 157.622 170.22 158.824 170.992 158.824Z" fill="#A8E1FF"/>
<path d="M183.13 160.714C183.816 160.971 184.503 161.357 185.232 161.185C185.032 161.185 184.832 161.185 184.631 161.185C184.86 161.214 185.089 161.243 185.318 161.271C185.79 161.314 186.305 161.185 186.476 160.671C186.691 160.242 186.519 159.684 186.09 159.427C185.704 159.212 185.361 158.912 184.932 158.783C184.56 158.64 184.174 158.511 183.773 158.397C183.173 158.182 182.486 158.654 182.315 159.255C182.1 159.898 182.529 160.499 183.13 160.714Z" fill="#A8E1FF"/>
<path d="M151.044 104.167C144.995 110.903 134.141 116.823 122.944 119.14C122.086 119.311 121.257 119.454 120.456 119.569C120.256 119.626 120.056 119.669 119.855 119.697C119.655 119.726 119.469 119.74 119.298 119.74C119.097 119.769 118.897 119.797 118.697 119.826C118.525 119.855 118.354 119.869 118.182 119.869C117.839 119.898 117.496 119.926 117.153 119.955C116.981 119.983 116.809 119.998 116.638 119.998C115.894 120.026 115.193 120.026 114.536 119.998C113.678 120.126 113.42 118.925 113.935 117.038C114.064 116.651 114.321 115.751 114.664 114.635C115.737 110.989 113.592 105.24 114.707 103.223C117.753 97.9467 116.938 95.1153 120.284 95.9304C139.118 104.768 151.945 94.0856 153.146 98.0754C153.79 100.049 152.932 102.108 151.044 104.167Z" fill="#00C4F6"/>
<path d="M150.572 105.411C142.55 112.833 130.237 118.324 119.298 119.74C117.753 119.954 116.08 120.083 114.536 119.997C113.678 120.126 113.42 118.925 113.935 117.037C114.064 116.651 114.321 115.75 114.664 114.635C128.393 115.622 138.775 112.576 150.572 105.411Z" fill="#07BFEE"/>
<path d="M124.788 102.839C127.061 103.654 129.421 104.255 131.78 104.555C132.939 104.727 134.054 104.812 135.213 104.77C136.328 104.684 137.529 104.77 138.516 104.212C139.074 103.826 139.031 102.925 138.43 102.624C137.486 102.153 136.457 102.281 135.47 102.11C134.312 101.938 133.11 101.852 131.952 101.724C129.721 101.466 127.533 100.951 125.388 100.265C123.758 99.7501 123.243 102.281 124.788 102.839Z" fill="#A8E1FF"/>
<path d="M143.322 104.342C144.309 104.299 145.21 104.128 146.111 103.741C146.54 103.57 146.883 103.184 146.883 102.669C146.883 102.497 146.797 102.326 146.711 102.154C146.54 101.854 146.111 101.639 145.768 101.682C144.952 101.811 144.094 101.854 143.236 101.854C141.649 101.854 141.735 104.428 143.322 104.342Z" fill="#A8E1FF"/>
<path d="M101.751 13.947C101.579 13.3464 101.322 12.66 100.678 12.5313C100.035 12.4026 99.5201 13.0032 99.134 13.5609C97.2464 16.3066 95.659 19.2238 94.3291 22.2269L103.038 23.5997C103.038 20.3392 102.566 17.0788 101.751 13.947Z" fill="#00C4F6"/>
<path d="M130.794 72.8057C129.893 79.1121 124.66 83.6596 116.895 86.105C109.73 88.3787 100.035 91.4676 90.0387 90.0518C80.2144 88.6361 71.8488 83.0161 65.6281 78.8976C58.7211 74.3502 54.8171 68.4728 55.7181 62.0376C56.19 58.8201 57.7773 55.9028 60.3084 53.4575C62.6251 51.1838 64.1695 48.1807 64.5985 44.9632C64.5985 44.8202 64.6128 44.6772 64.6414 44.5341C66.9152 28.6609 82.7884 17.8499 100.12 20.2952C117.452 22.7835 129.679 37.67 127.405 53.5004C127.377 53.6434 127.348 53.7721 127.319 53.8865C126.805 57.147 127.319 60.5361 128.907 63.4105C130.58 66.4564 131.266 69.6311 130.794 72.8057Z" fill="#00C4F6"/>
<path d="M112.637 54.2218C116.774 54.8486 119.609 58.695 118.982 62.8324C118.361 66.9319 114.515 69.7661 110.377 69.1393C106.278 68.5183 103.443 64.6719 104.064 60.5725C104.691 56.435 108.538 53.6008 112.637 54.2218Z" fill="white"/>
<path fill-rule="evenodd" clip-rule="evenodd" d="M110.315 69.5562C105.987 68.9007 102.992 64.8358 103.648 60.5086C104.303 56.1813 108.374 53.1481 112.701 53.8036C117.066 54.4649 120.024 58.5241 119.406 62.857C118.745 67.2222 114.68 70.2175 110.353 69.562C110.353 69.562 110.34 69.5601 110.315 69.5562ZM112.575 54.6387C108.703 54.0522 105.037 56.7196 104.483 60.6351C103.896 64.5068 106.569 68.1346 110.441 68.7212C110.441 68.7212 110.454 68.7231 110.479 68.7269C112.339 69.0087 114.232 68.5577 115.762 67.4305C117.292 66.3032 118.283 64.6284 118.571 62.7305C119.157 58.8588 116.484 55.231 112.575 54.6387Z" fill="black"/>
<path d="M104.426 61.25C104.004 64.2924 106.065 67.0898 109.102 67.5498C112.138 68.0098 114.98 65.9163 115.402 62.8739C115.856 59.8753 113.8 57.0399 110.764 56.5799C109.169 56.3384 107.624 56.8031 106.432 57.7486C108.239 59.1484 109.262 60.8565 108.68 61.6226C108.103 62.3507 106.299 61.9608 104.544 60.7244C104.492 60.8977 104.453 61.0729 104.426 61.25Z" fill="black"/>
<path d="M76.5453 48.9505C80.6896 48.7629 84.1967 52.0122 84.3843 56.1566C84.5661 60.3388 81.3167 63.846 77.1345 64.0278C72.9901 64.2154 69.483 60.966 69.3012 56.7837C69.1136 52.6394 72.363 49.1323 76.5453 48.9505Z" fill="white"/>
<path fill-rule="evenodd" clip-rule="evenodd" d="M75.6537 64.3464C71.3265 63.6909 68.3312 59.626 68.9867 55.2988C69.6043 50.9658 73.6692 47.9705 78.0344 48.6318C82.3616 49.2874 85.3627 53.3143 84.7014 57.6795C84.0458 62.0067 80.0189 65.0077 75.6537 64.3464ZM77.9136 49.4289C74.0039 48.8366 70.3704 51.5478 69.7838 55.4195C69.1973 59.2913 71.9027 62.9628 75.7745 63.5493C79.6899 64.1037 83.3177 61.4304 83.9042 57.5587C84.1918 55.6608 83.7029 53.7618 82.5756 52.232C81.4483 50.7022 79.7736 49.7107 77.9136 49.4289Z" fill="black"/>
<path d="M72.7658 56.4903C72.3058 59.5269 74.405 62.33 77.4416 62.79C80.4403 63.2443 83.2814 61.1508 83.7414 58.1142C84.1957 55.1155 82.1022 52.2744 79.0656 51.8144C77.4713 51.5729 75.9254 52.0376 74.7717 52.9889C76.5788 54.3887 77.5634 56.091 76.9814 56.8571C76.4431 57.591 74.6384 57.2011 72.8842 55.9646C72.8321 56.1379 72.7926 56.3131 72.7658 56.4903Z" fill="black"/>
<path d="M100.446 64.9932C100.625 65.0978 121.133 68.1272 121.133 68.1272L113.141 73.9832L104.069 72.6088L100.446 64.9932Z" fill="#00C4F6"/>
<path d="M120.006 68.3839L102.394 65.7157C102.166 65.6812 102.005 65.4627 102.039 65.2349C102.074 65.0072 102.292 64.8461 102.52 64.8806L120.133 67.5489C120.322 67.5776 120.483 67.7961 120.449 68.0239C120.414 68.2516 120.196 68.4127 120.006 68.3839Z" fill="black"/>
<path d="M64.8779 59.6045C65.0562 59.7092 85.5651 62.7385 85.5651 62.7385L77.6101 68.6003L68.5002 67.2202L64.8779 59.6045Z" fill="#00C4F6"/>
<path d="M84.4397 62.9982L66.8272 60.33C66.5994 60.2955 66.4384 60.0769 66.4729 59.8492C66.5074 59.6214 66.7259 59.4604 66.9537 59.4949L84.5662 62.1631C84.794 62.1976 84.955 62.4162 84.9205 62.6439C84.886 62.8716 84.6675 63.0327 84.4397 62.9982Z" fill="black"/>
<path d="M117.752 85.8061C117.495 85.9205 117.209 86.0206 116.894 86.1064C107.971 88.9378 99.3049 91.3832 90.0384 90.0533C80.7289 88.7233 73.0926 83.8327 65.6279 78.8991C65.3705 78.7275 65.1274 78.5559 64.8986 78.3843C63.0967 74.8664 63.3112 71.2627 64.7699 68.7316C65.9711 66.6723 68.2019 65.1708 70.5615 65.085C74.7657 64.9563 78.7555 69.0319 82.8311 67.5733C86.3489 66.2862 89.7381 65.4282 93.5563 66.0717C97.3744 66.6723 100.506 68.2597 103.466 70.5334C106.813 73.1075 111.918 70.276 115.908 71.6059C120.712 73.1933 122.857 80.1861 117.752 85.8061Z" fill="#A8E1FF"/>
<path d="M84.7593 78.2831C84.6108 78.2439 84.4819 78.1305 84.4566 77.9253C84.4313 77.7201 84.6014 77.5268 84.8066 77.5015C90.5968 76.924 96.3923 77.3802 102.017 78.7841C102.24 78.8428 102.377 79.0774 102.318 79.3001C102.259 79.5229 102.025 79.6595 101.802 79.6008C96.2883 78.2263 90.6041 77.7994 84.9078 78.3222C84.8583 78.3092 84.8088 78.2961 84.7593 78.2831Z" fill="black"/>
<path d="M82.0413 46.4207C81.6195 47.0732 80.4103 46.1337 78.875 45.0792C77.3396 44.0247 76.0538 43.2387 76.514 42.6053C76.9549 41.9144 78.9885 41.6832 80.5239 42.7377C82.0401 43.8306 82.5014 45.7874 82.0413 46.4207Z" fill="#00B0DF"/>
<path d="M114.899 48.1715C115.098 48.9285 113.606 49.2714 111.818 49.7943C110.031 50.3173 108.591 50.7775 108.391 50.0206C108.152 49.2813 109.259 47.5595 111.047 47.0365C112.834 46.5136 114.642 47.3931 114.899 48.1715Z" fill="#00B0DF"/>
<path d="M104.026 71.8187C103.94 71.8187 103.811 71.7758 103.725 71.69C101.109 68.8586 97.5478 67.0138 93.7725 66.499C89.9543 65.9413 86.0504 66.7135 82.747 68.6441C82.5325 68.7728 82.2751 68.7299 82.1464 68.5154C82.0177 68.3009 82.1035 68.0435 82.318 67.9148C85.793 65.8555 89.8685 65.0404 93.9012 65.641C97.891 66.1987 101.58 68.1293 104.369 71.0894C104.498 71.261 104.498 71.5184 104.326 71.69C104.24 71.7758 104.14 71.8187 104.026 71.8187Z" fill="#1876A8"/>
<path d="M92.6977 87.3951C90.0808 87.3951 87.4638 86.7516 85.1901 85.5075C84.9756 85.3788 84.8898 85.1214 85.0185 84.9069C85.1472 84.6924 85.4046 84.6066 85.5762 84.7353C88.7937 86.4942 92.6977 87.009 96.2585 86.1081C96.473 86.0223 96.6875 86.1939 96.7733 86.4084C96.8162 86.6229 96.6875 86.8803 96.4301 86.9232C95.2288 87.2664 93.9418 87.3951 92.6977 87.3951Z" fill="#1876A8"/>
<path d="M108.786 28.9187C110.931 30.2915 112.819 31.9647 114.406 33.9381C115.178 34.839 115.822 35.8257 116.551 36.7695C117.281 37.7563 117.752 39.1291 118.696 39.9013C119.383 40.4161 120.198 40.0729 120.284 39.2578C120.455 37.9279 119.597 36.5121 119.082 35.3538C118.482 34.0668 117.667 32.9514 116.766 31.9218C114.921 29.7338 112.647 27.932 110.202 26.5163C108.615 25.6583 107.242 27.9749 108.786 28.9187Z" fill="#A8E1FF"/>
<path d="M119.468 44.0638C119.812 45.4795 119.897 47.3672 121.013 48.3968C121.27 48.6542 121.742 48.6542 121.914 48.311C122.686 46.8524 122 44.9218 121.613 43.4632C121.27 42.0475 119.082 42.6481 119.468 44.0638Z" fill="#A8E1FF"/>
<path d="M87.5512 71.6478C88.6867 71.3035 89.8107 71.1134 90.9767 70.998C92.0096 70.9085 93.1525 71.1016 94.0869 70.5751C94.5728 70.3013 94.8012 69.4832 94.2821 69.0863C92.36 67.5103 88.8135 68.8192 86.7809 69.669C85.6923 70.1839 86.4157 71.9922 87.5512 71.6478Z" fill="#E0F5FF"/>
<path d="M49.8406 74.8068C50.3125 77.3808 20.4107 82.7863 19.9388 80.2123C19.4668 77.6811 25.8161 74.3778 34.0531 72.9192C42.29 71.4176 49.3687 72.2756 49.8406 74.8068Z" fill="#CFCFCF"/>
<g filter="url(#filter0_d_883_1423)">
<circle cx="30.5896" cy="56.7908" r="18.9617" fill="white"/>
</g>
<path d="M17.332 26.2546C17.2662 26.2413 17.1997 26.2291 17.1337 26.2176C15.549 25.942 13.9372 26.1989 12.5086 26.8492C8.69902 28.5834 6.08594 33.2792 8.33272 38.2005C10.1055 42.0825 8.13107 46.3362 5.08372 48.3199L6.08503 49.8995C9.84765 47.4502 12.2222 42.2277 10.0201 37.4051C8.17893 33.3724 10.2784 29.9243 13.2639 28.5654C14.7568 27.8857 16.4419 27.7686 17.9847 28.4154C19.466 29.0359 20.8677 30.3654 21.8539 32.7928L15.3324 35.0344L16.8594 39.6863C10.7251 45.0147 8.03452 53.7675 10.7305 61.984C14.273 72.7807 25.7757 78.5645 36.4245 74.9016C47.0734 71.2386 52.8352 59.5174 49.2927 48.7207C46.6015 40.5186 39.313 35.2119 31.2976 34.7403L29.7646 30.071L23.6178 32.1831C22.4812 29.3245 20.7047 27.5147 18.7037 26.6763C18.2613 26.4909 17.8019 26.3497 17.332 26.2546ZM32.279 37.6094C40.059 39.1821 45.096 46.8102 43.502 54.6959C41.908 62.5813 34.2917 67.713 26.5116 66.1404C18.7316 64.5677 13.7614 56.8916 15.3554 49.0063C16.9493 41.1209 24.4989 36.0367 32.2789 37.6094L32.279 37.6094ZM30.8911 39.9161L29.1317 48.6197C27.7581 48.7727 26.542 49.8209 26.2542 51.2449C25.9006 52.9943 27.0702 54.7098 28.7962 55.0587C30.434 55.3898 32.0374 54.3818 32.4994 52.7833L41.0459 48.8739L40.2871 47.1604L32.4379 50.7517C32.1736 50.0024 31.6507 49.3606 30.9532 48.978L32.7107 40.2838L30.891 39.916L30.8911 39.9161ZM26.5575 40.2024L24.7949 40.8059L25.696 43.54L27.4594 42.9336L26.5576 40.2025L26.5575 40.2024ZM36.5929 42.2309L34.7013 44.3973L36.0904 45.6412L37.9828 43.4717L36.5929 42.2309ZM21.1727 43.2454L19.9399 44.6589L22.0696 46.5629L23.3024 45.1492L21.1725 43.2452L21.1727 43.2454ZM29.7163 50.5066C30.459 50.6567 30.8976 51.4002 30.7455 52.1527C30.5933 52.9053 29.9117 53.3645 29.1691 53.2144C28.4266 53.0643 27.9218 52.3654 28.074 51.6126C28.2261 50.86 28.9737 50.3564 29.7165 50.5065L29.7163 50.5066ZM17.9967 48.5998L17.6239 50.444L20.4142 51.0081L20.787 49.1637L17.9967 48.5998ZM38.4265 52.7295L38.0537 54.5738L40.8469 55.1384L41.2198 53.294L38.4267 52.7294L38.4265 52.7295ZM20.5853 53.906L17.884 54.8302L18.4707 56.6116L21.1728 55.6844L20.5853 53.906ZM36.7733 57.1783L35.5414 58.5888L37.6712 60.4928L38.904 59.0791L36.7733 57.1783ZM22.7527 58.1L20.8611 60.2664L22.251 61.5072L24.1427 59.3406L22.7526 58.0998L22.7527 58.1ZM33.1471 60.2011L31.3847 60.8046L32.2863 63.5358L34.0489 62.9321L33.1472 60.201L33.1471 60.2011ZM26.7049 60.6259L26.1332 63.454L27.9528 63.8218L28.5244 60.9938L26.7049 60.6259Z" fill="#E5E5E5"/>
<path d="M45.8512 50.1937C45.8601 51.5146 45.6749 52.8357 45.639 54.1865C45.5655 55.3358 45.3504 56.6121 45.6725 57.7237C45.7774 58.1714 46.3148 58.2007 46.6055 57.9093C47.5151 57.0427 47.8493 55.5573 48.0943 54.3257C48.3391 52.9 48.2779 51.4524 48.172 50.0345C48.051 48.4973 45.8348 48.7161 45.8512 50.1937Z" fill="#FFF3F3"/>
<path d="M44.0453 61.8196C43.4974 63.3304 42.7604 64.682 42.6191 66.2789C42.5914 66.8015 43.2306 67.0612 43.6218 66.7555C44.998 65.6636 45.5167 64.0948 46.0063 62.468C46.3806 61.1899 44.5067 60.5703 44.0453 61.8196Z" fill="#FFF3F3"/>
<path opacity="0.5" d="M135.471 25.1035L135.985 25.1464L136.457 25.2322C136.758 25.2751 137.015 25.4038 137.315 25.4896C137.358 25.4896 137.358 25.5754 137.358 25.6183C137.358 25.6612 137.401 25.7041 137.444 25.747L137.573 26.0473L137.83 26.648C138.173 27.4202 138.459 28.2067 138.688 29.0075C138.917 29.8369 139.089 30.6663 139.203 31.4957L139.289 32.1392L139.332 32.4396C139.332 32.5254 139.332 32.5682 139.332 32.6111C139.375 32.654 139.375 32.7399 139.332 32.7828C139.16 32.9973 138.946 33.2118 138.731 33.4263L138.388 33.7695L138.002 34.0698L137.616 33.7695L137.272 33.5121L136.586 32.9544C136.543 32.9544 136.586 32.8686 136.586 32.8257C136.586 32.7828 136.586 32.7399 136.586 32.697L136.543 32.4396L136.5 31.8819C136.386 31.1668 136.229 30.4661 136.028 29.7797C135.828 29.0647 135.585 28.3783 135.299 27.7205C135.17 27.3773 135.042 27.077 134.827 26.7338C134.913 26.4764 134.999 26.2189 135.127 25.9615L135.299 25.5325L135.471 25.1035Z" fill="#E5E5E5"/>
<path opacity="0.5" d="M149.241 65.085C149.842 65.2566 150.271 65.4711 150.743 65.6427C150.743 65.9001 150.829 66.1146 150.914 66.372C151.029 66.8582 151.186 67.3444 151.386 67.8306C151.558 68.3168 151.758 68.7887 151.987 69.2463C152.13 69.4465 152.259 69.661 152.373 69.8898C152.158 70.3189 151.944 70.7908 151.644 71.3056C151.043 71.3914 150.528 71.3485 150.013 71.3056C149.87 71.0196 149.727 70.7479 149.584 70.4905C149.298 69.9471 149.041 69.3893 148.812 68.8173C148.583 68.2453 148.397 67.6733 148.254 67.1013L148.126 66.6294L148.083 66.4149C148.083 66.372 148.083 66.3291 148.04 66.3291C148.04 66.2862 147.997 66.2433 147.997 66.2004C148.34 65.8143 148.683 65.4282 149.241 65.085Z" fill="#E5E5E5"/>
<path opacity="0.5" d="M178.286 79.7148C178.886 79.8864 179.315 80.058 179.787 80.2296C179.787 80.487 179.873 80.7445 179.959 81.0019C180.073 81.4881 180.231 81.9743 180.431 82.4605C180.602 82.9181 180.817 83.3757 181.074 83.8333C181.189 84.0621 181.303 84.2909 181.417 84.5197C181.203 84.9487 180.988 85.3777 180.688 85.9355C180.088 85.9784 179.573 85.9354 179.058 85.8925C178.915 85.6351 178.772 85.3777 178.629 85.1203C178.343 84.5769 178.086 84.0192 177.857 83.4472C177.628 82.8752 177.442 82.2889 177.299 81.6883L177.17 81.2593L177.127 81.0448C177.127 81.0019 177.127 80.959 177.084 80.9161C177.084 80.8732 177.042 80.8732 177.084 80.8303C177.385 80.4441 177.771 80.058 178.286 79.7148Z" fill="#E5E5E5"/>
<path opacity="0.5" d="M149.499 43.6355C149.714 44.279 149.8 44.7938 149.885 45.2657C149.628 45.5231 149.456 45.7805 149.242 46.0379C148.813 46.5241 148.398 47.0389 147.998 47.5823C147.626 48.1258 147.283 48.6835 146.968 49.2555C146.797 49.5415 146.639 49.8132 146.496 50.0706C145.896 50.2851 145.338 50.4567 144.566 50.6712C144.137 50.2422 143.837 49.8561 143.579 49.3842C143.751 49.041 143.937 48.7121 144.137 48.3975C144.509 47.7111 144.923 47.0532 145.381 46.424C145.839 45.7662 146.325 45.137 146.84 44.5364L147.226 44.0645L147.44 43.85C147.44 43.8071 147.483 43.8071 147.526 43.7213C147.526 43.6784 147.526 43.6355 147.612 43.6355C148.212 43.5926 148.813 43.5497 149.499 43.6355Z" fill="#B9B9B9"/>
<path opacity="0.5" d="M165.845 46.638L166.317 46.4664L166.746 46.3806C167.003 46.2948 167.303 46.2519 167.561 46.209C167.646 46.209 167.646 46.2519 167.689 46.2948C167.689 46.3377 167.732 46.3806 167.775 46.4235L167.99 46.5951L168.419 46.9812C168.962 47.496 169.463 48.0537 169.92 48.6543C170.406 49.2549 170.835 49.8842 171.207 50.542L171.465 51.0568L171.593 51.3142C171.636 51.3571 171.636 51.4 171.679 51.4429C171.722 51.4858 171.765 51.4858 171.722 51.5716C171.593 51.829 171.508 52.0864 171.379 52.3438L171.164 52.7299L170.907 53.116C170.263 52.9873 169.749 52.8586 169.234 52.7299C169.191 52.7299 169.191 52.687 169.191 52.6441C169.191 52.6012 169.148 52.5583 169.148 52.5154L169.019 52.3438L168.805 51.9148C168.49 51.3714 168.147 50.8566 167.775 50.3704C167.375 49.8556 166.96 49.3837 166.531 48.9546C166.274 48.7401 166.059 48.5256 165.802 48.354L165.845 47.5389V47.1099V46.638Z" fill="#E5E5E5"/>
<path opacity="0.5" d="M141.992 77.4834C142.135 77.5406 142.278 77.5835 142.421 77.6121C142.564 77.6693 142.693 77.7265 142.807 77.7837C143.064 77.8695 143.279 77.9982 143.536 78.1269C143.579 78.1698 143.579 78.2127 143.536 78.2556C143.536 78.2985 143.536 78.3414 143.536 78.3843L143.579 78.6417L143.622 79.1136C143.679 79.8 143.651 80.4722 143.536 81.13C143.45 81.7878 143.293 82.4456 143.064 83.1034L142.893 83.5753L142.807 83.7898C142.807 83.8327 142.764 83.8756 142.764 83.9185C142.764 83.9614 142.764 84.0043 142.721 84.0472C142.421 84.0901 142.206 84.133 141.906 84.1759C141.763 84.2045 141.62 84.2188 141.477 84.2188C141.334 84.2188 141.191 84.2188 141.048 84.2188L140.619 83.4895C140.49 83.275 140.362 83.0605 140.233 82.846C140.19 82.8031 140.233 82.8031 140.233 82.7602C140.276 82.7602 140.276 82.7173 140.276 82.6744L140.362 82.5457L140.49 82.2025C140.662 81.7163 140.776 81.2301 140.834 80.7438C140.891 80.2576 140.905 79.7714 140.876 79.2852C140.876 79.0707 140.876 78.8133 140.791 78.5559C140.962 78.4272 141.134 78.2556 141.348 78.084C141.434 77.9982 141.534 77.9124 141.649 77.8266C141.763 77.7122 141.877 77.5978 141.992 77.4834Z" fill="#B9B9B9"/>
<path opacity="0.5" d="M69.6175 9.6582C70.0894 10.1301 70.4755 10.602 70.7758 11.1168C70.8187 11.2026 70.7758 11.2456 70.7329 11.2885C70.69 11.3314 70.69 11.3742 70.69 11.46L70.6042 11.7604L70.4755 12.4039C70.2181 13.2619 69.9178 14.0913 69.5746 14.8921C69.2028 15.6929 68.7738 16.4508 68.2876 17.1658L67.9015 17.7236L67.7298 17.981C67.6869 18.0239 67.6441 18.0668 67.6441 18.1097C67.6012 18.1955 67.6011 18.2384 67.5153 18.2384C67.215 18.2813 66.9147 18.3242 66.6144 18.3671H66.1425C65.9709 18.3671 65.8422 18.3671 65.6706 18.3242C65.6277 18.1526 65.5848 18.0239 65.5848 17.8523L65.499 17.4233L65.3703 16.5652C65.3274 16.4794 65.3703 16.4794 65.4132 16.4365C65.4561 16.4365 65.499 16.3936 65.5419 16.3507L65.6706 16.1362L66.0138 15.6643C66.4142 15.0637 66.7574 14.4202 67.0434 13.7338C67.3581 13.076 67.6155 12.3896 67.8157 11.6745C67.9015 11.3313 68.0302 10.9452 68.0731 10.602C68.2733 10.459 68.5021 10.3017 68.7595 10.1301L69.1456 9.91562C69.3172 9.82982 69.4459 9.744 69.6175 9.6582Z" fill="#E5E5E5"/>
<path opacity="0.5" d="M59.7938 0.391C59.9225 1.03451 60.0083 1.50642 60.0941 1.97833C59.8796 2.14994 59.708 2.36442 59.5364 2.57893C59.1646 2.95073 58.8214 3.36545 58.5068 3.82306C58.1922 4.25207 57.8919 4.69536 57.6059 5.15297C57.4629 5.38178 57.3341 5.62489 57.2197 5.88229C56.7478 5.92519 56.233 6.01099 55.6324 6.01099C55.2463 5.53908 55.0318 5.06718 54.7744 4.59527C54.9174 4.30926 55.0747 4.03757 55.2463 3.78017C55.5609 3.23676 55.9041 2.70765 56.2759 2.19284C56.6763 1.67803 57.091 1.17752 57.52 0.69131L57.8204 0.34811L57.992 0.176496C58.0349 0.176496 58.0778 0.13359 58.0778 0.0906895C58.1207 0.0477888 58.1207 0.00488281 58.1636 0.00488281C58.6784 0.0906843 59.1932 0.176496 59.7938 0.391Z" fill="#B9B9B9"/>
<path opacity="0.5" d="M33.4515 7.98354C33.4944 8.62705 33.5373 9.14185 33.5802 9.61376C33.3657 9.74246 33.1511 9.95697 32.9795 10.1286C32.5791 10.5004 32.2073 10.9008 31.8641 11.3298C31.5209 11.7588 31.2063 12.2021 30.9203 12.6597C30.8059 12.8885 30.6772 13.1173 30.5342 13.3461C30.0623 13.4319 29.5475 13.5177 28.9469 13.6035L28.6895 13.2174L28.4321 12.8742C28.3034 12.6168 28.2176 12.4023 28.0889 12.1449C28.2319 11.8303 28.3892 11.53 28.5608 11.244C28.904 10.672 29.2901 10.1286 29.7191 9.61376C30.1481 9.07035 30.6057 8.56984 31.0919 8.11223L31.478 7.76903L31.6496 7.64034C31.6925 7.59744 31.7354 7.59743 31.7354 7.55453C31.7783 7.51163 31.7783 7.42582 31.8212 7.46872C32.1215 7.51162 32.336 7.55453 32.6363 7.64034L33.0225 7.81192L33.4515 7.98354Z" fill="#E5E5E5"/>
<path opacity="0.5" d="M31.7804 95.7158C32.381 95.8445 32.8529 96.0161 33.3248 96.2306C33.3677 96.2735 33.3677 96.3164 33.3677 96.3593C33.3248 96.4022 33.3677 96.4451 33.3677 96.488L33.4106 96.7025L33.4964 97.1744C33.6108 97.775 33.6823 98.39 33.7109 99.0192C33.7109 99.6484 33.6823 100.278 33.6251 100.907C33.5965 101.221 33.5536 101.536 33.4964 101.851C33.2819 101.979 33.0674 102.065 32.81 102.194L32.4239 102.323L31.9949 102.451C31.523 102.065 31.1798 101.722 30.7937 101.422C30.8509 101.164 30.8938 100.907 30.9224 100.649C30.951 100.135 30.9653 99.6341 30.9653 99.1479C30.9367 98.6331 30.8795 98.1182 30.7937 97.6034C30.7508 97.346 30.7079 97.1316 30.6221 96.8741C30.9653 96.5309 31.3085 96.1877 31.7804 95.7158Z" fill="#B9B9B9"/>
<path opacity="0.5" d="M14.664 69.4178C14.6211 70.0613 14.5781 70.5761 14.5352 71.0909C14.2778 71.2196 14.0205 71.3912 13.806 71.5628C13.3197 71.906 12.8621 72.2778 12.4331 72.6782C12.0041 73.0786 11.6037 73.5077 11.2319 73.9653L10.9745 74.3085L10.8458 74.4801C10.8029 74.523 10.8029 74.5659 10.8029 74.6088C10.76 74.6517 10.8029 74.6946 10.7171 74.6946C10.2023 74.6946 9.68747 74.7375 9.04395 74.7375L8.87237 74.3085L8.70075 73.9224C8.61495 73.6221 8.52916 73.4076 8.44336 73.1072C8.44336 73.0643 8.48624 73.0214 8.52914 73.0214C8.57204 72.9785 8.57205 72.9356 8.61495 72.8927L8.78656 72.6782L9.08687 72.2492C9.54448 71.7058 10.0307 71.1767 10.5455 70.6619C11.0603 70.1757 11.618 69.7324 12.2186 69.332L12.6476 69.0317L12.8621 68.8601C12.905 68.8172 12.9479 68.8172 12.9908 68.7743C12.9908 68.7314 13.0337 68.6885 13.0766 68.6885C13.334 68.7743 13.5914 68.8601 13.8488 68.9888L14.235 69.1604L14.664 69.4178Z" fill="#B9B9B9"/>
<path opacity="0.5" d="M16.6785 90.7393C17.1075 91.2112 17.3649 91.5973 17.6652 91.9405C17.5794 92.155 17.4936 92.3695 17.4078 92.6269C17.2648 93.0559 17.1504 93.5135 17.0646 93.9997C16.9788 94.4573 16.9073 94.9292 16.8501 95.4154C16.8501 95.6443 16.8358 95.873 16.8072 96.1019C16.4211 96.3164 15.9921 96.5738 15.4344 96.8741C14.8766 96.6167 14.4905 96.3164 14.0615 96.0161C14.0901 95.7301 14.1187 95.4441 14.1473 95.1581C14.1759 94.586 14.2474 94.014 14.3618 93.442C14.4762 92.87 14.6192 92.3123 14.7908 91.7689L14.9624 91.3828L15.0053 91.1683C15.0053 91.1254 15.0482 91.0825 15.0482 91.0396C15.0482 90.9967 15.0054 90.9538 15.0912 90.9538C15.5631 90.8251 16.0349 90.7393 16.6785 90.7393Z" fill="#E5E5E5"/>
<path opacity="0.5" d="M161.812 93.5293C161.955 93.4721 162.098 93.4006 162.241 93.3148C162.355 93.2576 162.484 93.2004 162.627 93.1432C162.884 93.0574 163.141 92.9716 163.442 92.9287C163.485 92.8858 163.528 92.9716 163.528 93.0145C163.57 93.0574 163.613 93.0574 163.656 93.1003L163.871 93.2719L164.3 93.6151C164.843 94.1299 165.329 94.7019 165.758 95.3311C166.159 95.9603 166.488 96.6324 166.745 97.3475L166.917 97.9052L166.96 98.1626C167.003 98.2055 167.003 98.2484 167.003 98.2913C167.045 98.3342 167.088 98.3771 167.045 98.42C166.874 98.6774 166.702 98.8919 166.531 99.0635C166.416 99.1779 166.302 99.278 166.187 99.3638C166.073 99.4782 165.959 99.5783 165.844 99.6641C165.701 99.5783 165.558 99.5068 165.415 99.4496C165.301 99.3924 165.186 99.3352 165.072 99.278C164.815 99.1922 164.6 99.0635 164.343 98.9777C164.3 98.9777 164.3 98.9348 164.343 98.8919C164.343 98.8919 164.3 98.849 164.3 98.8061L164.257 98.6345L164.128 98.2484C163.957 97.7622 163.728 97.2902 163.442 96.8326C163.156 96.4036 162.827 96.0032 162.455 95.6314L162.155 95.4169L161.983 95.2882C161.983 95.2453 161.94 95.2453 161.897 95.2453C161.897 95.2453 161.812 95.2453 161.854 95.1595C161.854 94.945 161.854 94.6876 161.854 94.4302C161.854 94.2872 161.854 94.1442 161.854 94.0012C161.854 93.8582 161.84 93.7009 161.812 93.5293Z" fill="#E5E5E5"/>
<path opacity="0.5" d="M165.802 67.4453C165.945 67.3595 166.073 67.2737 166.188 67.1879C166.331 67.1307 166.474 67.0735 166.617 67.0163C166.874 66.9305 167.132 66.8876 167.432 66.8018C167.475 66.8018 167.518 66.8447 167.518 66.8876C167.561 66.9305 167.604 66.9734 167.646 66.9734L167.861 67.145L168.29 67.5311C168.833 68.0459 169.32 68.6179 169.749 69.2471C170.149 69.8763 170.478 70.5341 170.735 71.2205L170.907 71.7783L170.95 72.0357C170.95 72.0786 170.993 72.1644 170.993 72.2073C171.036 72.2502 171.079 72.2931 171.036 72.336C170.864 72.5505 170.692 72.765 170.478 72.9795C170.392 73.0939 170.292 73.194 170.178 73.2798C170.063 73.3656 169.935 73.4514 169.792 73.5372C169.677 73.48 169.548 73.4228 169.405 73.3656C169.291 73.3084 169.162 73.2512 169.019 73.194C168.762 73.0653 168.547 72.9795 168.333 72.8937C168.29 72.8508 168.29 72.8508 168.29 72.8079C168.29 72.765 168.29 72.7221 168.29 72.7221L168.247 72.5076L168.118 72.1215C167.947 71.6353 167.718 71.1776 167.432 70.7486C167.146 70.291 166.817 69.8906 166.445 69.5474L166.145 69.29L165.973 69.1613C165.93 69.1613 165.93 69.1184 165.888 69.1184C165.845 69.1184 165.802 69.1184 165.802 69.0755C165.845 68.8181 165.845 68.6036 165.845 68.3033C165.845 68.1889 165.83 68.0602 165.802 67.9172C165.802 67.7456 165.802 67.5883 165.802 67.4453Z" fill="#B9B9B9"/>
<defs>
<filter id="filter0_d_883_1423" x="10.3089" y="37.3344" width="40.562" height="40.562" filterUnits="userSpaceOnUse" color-interpolation-filters="sRGB">
<feFlood flood-opacity="0" result="BackgroundImageFix"/>
<feColorMatrix in="SourceAlpha" type="matrix" values="0 0 0 0 0 0 0 0 0 0 0 0 0 0 0 0 0 0 127 0" result="hardAlpha"/>
<feOffset dy="0.824422"/>
<feGaussianBlur stdDeviation="0.659538"/>
<feComposite in2="hardAlpha" operator="out"/>
<feColorMatrix type="matrix" values="0 0 0 0 0 0 0 0 0 0 0 0 0 0 0 0 0 0 0.25 0"/>
<feBlend mode="normal" in2="BackgroundImageFix" result="effect1_dropShadow_883_1423"/>
<feBlend mode="normal" in="SourceGraphic" in2="effect1_dropShadow_883_1423" result="shape"/>
</filter>
</defs>
</svg>
