<svg width="120" height="115" viewBox="0 0 120 115" fill="none" xmlns="http://www.w3.org/2000/svg">
<path d="M28.7541 74.7278C14.791 82.4946 16.8184 92.3459 13.7917 91.5178C12.2497 91.0895 11.336 89.7189 10.9077 87.6915C9.36573 80.6957 13.706 66.0759 18.0748 58.3662C18.7887 57.1098 19.5025 56.0533 20.1878 55.2252C21.587 52.5983 33.6369 70.616 28.7541 74.7278Z" fill="#00C4F6"/>
<path d="M16.4755 66.332C15.0764 69.3873 13.3631 72.928 13.6487 76.3545C13.7058 76.7543 14.1912 76.9256 14.4197 76.5544C15.2763 75.1838 15.8188 73.4705 16.3328 71.9286C16.8468 70.2725 17.3893 68.6163 18.046 66.9887C18.3887 66.1035 16.8753 65.4468 16.4755 66.332Z" fill="#A8E1FF"/>
<path opacity="0.23" d="M28.7546 74.7278C14.7916 82.4946 16.819 92.3459 13.7922 91.5178C12.2503 91.0895 11.3365 89.7189 10.9082 87.6915C11.5364 87.1775 12.4216 86.892 13.164 86.4922C15.2485 85.4072 16.562 83.2656 17.5043 81.124C18.5322 78.8111 19.2461 76.384 19.6458 73.8998C20.3597 69.531 20.1313 65.0194 18.9605 60.7362C18.7606 60.0509 18.3894 59.2229 18.0753 58.3662C18.7892 57.1098 19.5031 56.0533 20.1884 55.2252C21.5875 52.5983 33.6374 70.616 28.7546 74.7278Z" fill="#1C7FB3"/>
<path d="M12.4485 79.3522C12.3343 79.8091 12.2486 80.2374 12.163 80.6943C12.1059 81.094 12.0487 81.6365 12.3057 81.9792C12.4771 82.1791 12.7055 82.2647 12.9339 82.1505C13.6763 81.7222 13.7049 80.4658 13.8762 79.752C14.0475 78.8097 12.6198 78.4099 12.4485 79.3522Z" fill="#A8E1FF"/>
<path d="M18.5322 48.2283C23.1009 67.1313 31.4102 121.213 76.0406 114.332C92.031 111.876 104.966 90.6029 94.0869 96.3138C68.4452 109.763 64.4476 93.5726 59.2792 41.6894C45.0592 26.7269 18.5322 48.2283 18.5322 48.2283Z" fill="#00C4F6"/>
<path d="M24.7861 52.1094C27.5559 67.9856 35.1799 95.1978 52.1412 104.192C69.0739 113.187 73.0715 108.247 64.1054 95.9974C54.7682 83.2336 54.1971 57.6489 54.6825 44.9708C55.1679 32.3212 24.7861 52.1094 24.7861 52.1094Z" fill="#A8E1FF"/>
<path opacity="0.2" d="M59.8503 47.2852C56.2239 53.4815 50.0276 58.1644 43.0033 59.7635C34.8939 61.6195 26.0135 59.2209 19.7886 53.767C19.3318 51.6826 18.9034 49.8266 18.5322 48.2275C18.5322 48.2275 20.5596 46.5714 23.7862 44.5155C34.2942 40.6035 45.6874 39.2615 56.9378 39.6041C57.7563 40.1942 58.5368 40.8891 59.2792 41.6886C59.4696 43.5922 59.66 45.4577 59.8503 47.2852Z" fill="#1C7FB3"/>
<path d="M53.882 83.2665C54.3674 85.0655 54.9671 86.7787 55.7095 88.4634C56.3377 89.9483 57.2514 91.7472 58.5934 92.6895C58.879 92.9179 59.4215 92.6324 59.3644 92.2326C59.1931 90.7192 58.3079 89.1202 57.6797 87.721C56.9373 86.0934 56.252 84.4658 55.6524 82.7811C55.2812 81.6961 53.5679 82.1244 53.882 83.2665Z" fill="#E0F5FF"/>
<path d="M59.9072 96.5417C60.1928 97.0842 60.4783 97.5982 60.8495 98.0836C61.1922 98.5119 61.4206 99.0259 61.9346 99.2829C62.2772 99.4542 62.6199 99.2543 62.6484 98.8831C62.7055 98.312 62.3914 97.798 62.2201 97.2841C62.0488 96.6844 61.7633 96.1705 61.4777 95.6565C60.9352 94.6285 59.3647 95.5137 59.9072 96.5417Z" fill="#E0F5FF"/>
<path d="M95.172 95.8864C93.2303 94.2303 91.517 90.4326 91.6027 86.2636C91.7169 80.6384 95.1434 75.0989 97.6276 73.043C101.111 76.4124 102.967 81.4665 102.882 87.0917C102.767 92.7169 101.026 97.4569 98.3986 97.3998L95.172 95.8864Z" fill="#00C4F6"/>
<path d="M99.5118 90.3748C100.426 89.6895 101.482 89.0613 102.681 88.5473C103.367 88.2618 104.09 88.0143 104.851 87.8049C110.277 86.3772 116.559 88.1761 119.186 90.0036C116.901 94.2867 112.533 97.4562 107.107 98.8554C102.796 99.9976 98.7694 98.9696 96.999 97.3135L99.5118 90.3748Z" fill="#00C4F6"/>
<path d="M103.538 91.2023C104.566 90.9739 105.623 90.8025 106.651 90.6598C107.593 90.517 108.535 90.4884 109.392 90.1172C109.677 90.003 109.62 89.6032 109.392 89.4605C107.564 88.3754 105.051 89.6318 103.281 90.2885C102.71 90.4884 102.938 91.3165 103.538 91.2023Z" fill="#A8E1FF"/>
<path d="M112.133 91.0882C112.419 91.1453 112.704 91.1929 112.99 91.2309C113.276 91.288 113.59 91.2309 113.904 91.2309C114.732 91.2024 114.789 90.1744 114.104 89.8889C113.847 89.8032 113.618 89.6604 113.361 89.6033C113.104 89.5462 112.847 89.5177 112.562 89.4891C112.133 89.432 111.677 89.6033 111.562 90.0602C111.448 90.46 111.705 91.0025 112.133 91.0882Z" fill="#A8E1FF"/>
<path d="M83.2654 80.6648C81.238 82.8635 78.1542 73.2978 63.3345 73.2407C60.9359 72.7267 59.5368 68.8719 59.1941 64.5317C59.0228 62.3901 58.9371 59.963 59.0799 57.6215C59.1656 56.3366 59.3083 55.0516 59.5082 53.8523C59.7652 52.4817 60.2792 51.7679 60.7932 52.1105C67.5605 54.9088 81.4094 68.158 83.7794 76.0961C84.3505 77.9807 84.2648 79.5798 83.2654 80.6648Z" fill="#00C4F6"/>
<path d="M69.33 63.732C70.6626 64.5886 71.8999 65.5595 73.0421 66.6445C73.5846 67.1585 74.0986 67.7296 74.6697 68.2436C75.2122 68.729 75.6691 69.4143 76.3544 69.7284C76.8969 69.9854 77.4109 69.5856 77.3252 68.986C77.1825 68.215 76.5257 67.4726 76.0403 66.8444C75.5549 66.1877 74.9552 65.6451 74.3556 65.1026C73.0992 63.9604 71.7286 62.961 70.2723 62.1044C69.2444 61.4762 68.3306 63.0752 69.33 63.732Z" fill="#A8E1FF"/>
<path d="M78.2672 72.8418C78.6099 73.2416 78.924 73.6985 79.2095 74.1553C79.6378 74.8692 80.8086 74.4123 80.5801 73.5842C80.3802 72.8989 80.0947 72.3278 79.6664 71.7568C79.3523 71.357 78.8098 71.1571 78.3529 71.5283C77.9246 71.871 77.9531 72.4135 78.2672 72.8418Z" fill="#A8E1FF"/>
<path opacity="0.23" d="M83.2644 80.6657C81.2371 82.8644 78.1532 73.2987 63.3335 73.2416C60.935 72.7276 59.5358 68.8727 59.1931 64.5325C59.136 63.8757 59.0504 63.5616 59.0789 60.4492C62.2484 70.4718 68.3591 69.7008 72.9563 72.0708C76.6684 73.984 81.8653 78.8096 83.3215 78.1243C83.8355 77.8674 83.7498 76.6966 83.7784 76.097C84.3495 77.9816 84.2638 79.5806 83.2644 80.6657Z" fill="#1C7FB3"/>
<path d="M37.2066 0.856632C37.0352 0.456871 36.7497 0 36.2928 0C35.8359 0 35.5219 0.485425 35.3505 0.913739C34.3797 3.05531 33.6373 5.3111 33.0947 7.624L39.3767 7.42412C38.9484 5.16833 38.206 2.9411 37.2066 0.856632Z" fill="#00C4F6"/>
<path d="M57.4221 49.1712C47.9992 54.5394 30.6382 55.5388 19.9874 50.9986C10.3361 46.9154 9.22244 39.5769 13.22 33.866C14.5621 31.9529 15.2474 29.6686 15.1332 27.3557C14.5336 15.3057 24.5276 5.99703 36.6346 5.51161C49.741 4.99763 60.2204 14.7632 60.2775 25.5853C60.3347 27.9267 61.0771 30.1825 62.5619 32.01C66.7879 37.2069 65.9884 44.3169 57.4221 49.1712Z" fill="#00C4F6"/>
<path d="M57.6798 49.1714C48.0284 54.6823 30.2391 55.5675 19.674 50.7704C17.9607 48.4861 17.6466 45.9447 18.3319 44.003C18.903 42.404 20.2736 41.0619 21.9583 40.6907C24.8709 40.0625 28.1832 42.404 30.8387 40.8621C33.1516 39.52 35.436 38.4921 38.1772 38.4349C40.9184 38.3778 43.317 39.0631 45.7155 40.291C48.3711 41.6616 51.5977 39.006 54.5674 39.4343C56.2521 39.6628 57.7083 40.8906 58.4222 42.4611C59.2503 44.3171 59.1361 46.8014 57.6798 49.1714Z" fill="#A8E1FF"/>
<path opacity="0.5" d="M27.9549 23.8436C27.9835 24.3862 26.8984 24.3862 25.5849 24.4433C24.2429 24.4718 23.1578 24.5861 23.1578 24.015C23.1293 23.4439 24.1572 22.4445 25.4993 22.3874C26.8128 22.3588 27.9264 23.2726 27.9549 23.8436Z" fill="#156894"/>
<path opacity="0.5" d="M50.8553 22.9283C50.8839 23.4994 49.7988 23.4709 48.4853 23.528C47.1432 23.5851 46.0867 23.6707 46.0582 23.1282C46.0296 22.5571 47.0861 21.5577 48.3996 21.5006C49.7131 21.4435 50.8553 22.3572 50.8553 22.9283Z" fill="#156894"/>
<path d="M30.7247 41.7189C30.639 41.7189 30.5819 41.6904 30.5248 41.6333C30.4106 41.4905 30.4106 41.3192 30.5533 41.2335C32.7235 39.3489 35.4932 38.2353 38.3487 38.1211C41.2326 38.0354 44.0595 38.892 46.3724 40.6053C46.5152 40.691 46.5437 40.8909 46.4295 41.0051C46.3439 41.1478 46.1725 41.1478 46.0298 41.0622C43.8311 39.4346 41.1184 38.6065 38.3772 38.6922C35.636 38.8064 32.9804 39.8629 30.9245 41.6618C30.8674 41.6999 30.8008 41.7189 30.7247 41.7189Z" fill="#1475A8"/>
<path d="M29.0111 46.1436C26.1557 46.1436 23.5001 45.1727 20.9017 41.3179C20.816 41.1751 20.8446 41.0038 20.9874 40.9181C21.1016 40.8325 21.3015 40.861 21.3871 41.0038C25.0421 46.4291 28.697 45.8295 33.2943 45.0871C34.8933 44.8301 36.5209 44.5731 38.3484 44.4874C40.3186 44.4018 42.0033 44.6588 43.4882 44.8586C47.5429 45.4297 50.227 45.8009 54.4245 39.8331C54.5101 39.6903 54.6815 39.6617 54.8242 39.7474C54.9384 39.8331 54.967 40.0044 54.8813 40.1472C50.484 46.4006 47.5143 46.0008 43.4025 45.4297C41.9462 45.2298 40.2901 45.0014 38.3769 45.0585C36.578 45.1442 34.979 45.4012 33.4085 45.6581C31.8666 45.8866 30.4103 46.1436 29.0111 46.1436Z" fill="#012246"/>
<path d="M56.7945 41.0044C56.7374 41.0044 56.6803 40.9854 56.6232 40.9473C55.7951 40.2049 53.5964 39.491 51.7404 40.1192C51.5976 40.1763 51.4263 40.0907 51.3978 39.9479C51.3407 39.7766 51.4263 39.6338 51.5691 39.5767C53.6536 38.8628 56.0521 39.6624 56.9944 40.519C57.1086 40.6332 57.1086 40.8045 57.023 40.9187C56.9658 40.9759 56.8802 41.0044 56.7945 41.0044Z" fill="#012246"/>
<path d="M19.1599 43.0027C19.1028 43.0027 19.0457 42.9837 18.9886 42.9456C18.8458 42.8314 18.8458 42.66 18.9315 42.5458C19.731 41.6035 20.7019 40.9468 21.6156 40.6612C22.615 40.3757 23.6715 40.5185 24.6709 40.6327L24.8137 40.6612C24.985 40.6898 25.0707 40.8326 25.0707 40.9753C25.0421 41.1181 24.8993 41.2609 24.7566 41.2323L24.6138 41.2038C23.643 41.0896 22.6721 40.9753 21.7869 41.2323C20.9589 41.4608 20.1022 42.0604 19.3884 42.917C19.3313 42.9741 19.2456 43.0027 19.1599 43.0027Z" fill="#012246"/>
<path d="M38.634 51.511C37.3776 51.511 36.1498 51.3397 34.9505 50.9685C34.8077 50.9114 34.722 50.7686 34.7506 50.5972C34.8077 50.4545 34.979 50.3688 35.1218 50.4259C37.8059 51.254 40.8041 51.0827 43.374 49.9691C43.5168 49.912 43.6881 49.9976 43.7452 50.1404C43.8309 50.2832 43.7452 50.4545 43.6024 50.5116C42.0605 51.1683 40.3472 51.511 38.634 51.511Z" fill="#1475A8"/>
<path d="M43.5167 10.678C45.2014 11.3633 46.7719 12.3056 48.1425 13.5049C48.7992 14.0759 49.4274 14.6756 50.0556 15.2752C50.6552 15.8463 51.1407 16.6744 51.8831 17.0742C52.2828 17.3026 52.8825 17.0456 52.8254 16.5316C52.7683 15.5893 52.1401 14.8184 51.5975 14.0759C50.9693 13.1908 50.2555 12.4484 49.4274 11.7916C47.7998 10.5067 45.9723 9.53582 44.0306 8.85051C42.8314 8.45075 42.403 10.2497 43.5167 10.678Z" fill="#A8E1FF"/>
<path d="M52.9407 19.9312C53.3976 20.8735 53.7117 22.1013 54.5969 22.7295C54.7967 22.9008 55.1108 22.7295 55.1679 22.5011C55.482 21.3874 54.7396 20.131 54.2828 19.1602C53.883 18.2465 52.541 19.0174 52.9407 19.9312Z" fill="#A8E1FF"/>
<path d="M38.0065 41.5182C38.8061 41.5182 39.577 41.661 40.3765 41.8323C41.0618 42.0037 41.7471 42.3749 42.461 42.2892C42.8893 42.2321 43.3462 41.7467 43.0321 41.3183C41.9756 39.9192 39.577 39.9192 38.0065 40.0334C37.0642 40.1191 37.0357 41.4897 38.0065 41.5182Z" fill="#E0F5FF"/>
<path d="M55.4815 33.9805C55.2817 33.9805 55.0818 33.8663 54.9676 33.6664C53.7112 31.1822 51.8837 29.6973 50.1133 29.6402C50.0753 29.6402 50.0467 29.6402 50.0276 29.6402C48.2858 29.6402 46.5726 31.0679 45.459 33.4094C45.3447 33.6949 45.0021 33.8377 44.7166 33.6949C44.431 33.5522 44.2882 33.2095 44.431 32.924C45.7445 30.1542 47.829 28.498 50.0276 28.498C50.0657 28.498 50.0943 28.498 50.1133 28.498C52.3406 28.5552 54.5392 30.297 55.9955 33.1524C56.1383 33.4379 56.0241 33.7806 55.7385 33.9234C55.6624 33.9614 55.5767 33.9805 55.4815 33.9805Z" fill="#012246"/>
<path d="M19.1604 33.9808C19.0652 33.9808 18.9796 33.9618 18.9034 33.9237C18.6179 33.781 18.5037 33.4383 18.6464 33.1528C20.1027 30.2973 22.3014 28.5555 24.5286 28.4984C26.7558 28.4699 28.8689 30.126 30.2109 32.9243C30.3537 33.2099 30.2109 33.5525 29.9254 33.6953C29.6398 33.8381 29.2972 33.6953 29.183 33.4098C28.0693 31.0683 26.3561 29.6406 24.6143 29.6406C24.5952 29.6406 24.5667 29.6406 24.5286 29.6406C22.7582 29.6977 20.9308 31.1825 19.6744 33.6667C19.5602 33.8666 19.3603 33.9808 19.1604 33.9808Z" fill="#012246"/>
<path d="M6.51954 48.0945L7.94725 51.007L11.1739 51.4924C11.745 51.5781 11.9734 52.2634 11.5736 52.6632L9.2322 54.9189L9.77472 58.1456C9.86038 58.7167 9.28929 59.1164 8.77532 58.8594L5.89134 57.3461L3.00734 58.8594C2.52192 59.1164 1.92228 58.7167 2.00794 58.1456L2.57903 54.9189L0.237588 52.6632C-0.162172 52.2634 0.0377046 51.5781 0.608791 51.4924L3.83542 51.007L5.29169 48.0945C5.52012 47.5805 6.26255 47.5805 6.51954 48.0945Z" fill="white"/>
<path d="M85.3388 27.8113L86.7951 30.7524L90.0217 31.2092C90.5642 31.2949 90.7927 31.9802 90.3929 32.38L88.0515 34.6643L88.594 37.8624C88.7082 38.4335 88.1086 38.8618 87.6231 38.6048L84.7392 37.0629L81.8266 38.6048C81.3412 38.8618 80.7416 38.4335 80.8558 37.8624L81.3983 34.6643L79.0568 32.38C78.6571 31.9802 78.8855 31.2949 79.4281 31.2092L82.6547 30.7524L84.111 27.8113C84.368 27.2973 85.0818 27.2973 85.3388 27.8113Z" fill="white"/>
<path d="M85.139 45.9133L86.0813 47.855L88.2229 48.1691C88.5941 48.2262 88.7654 48.6831 88.4799 48.9401L86.938 50.4534L87.3092 52.595C87.3663 52.9662 86.9665 53.2518 86.6524 53.0804L84.7393 52.081L82.7976 53.0804C82.4835 53.2518 82.0837 52.9662 82.1408 52.595L82.512 50.4534L80.9701 48.9401C80.6846 48.6831 80.8559 48.2262 81.2271 48.1691L83.3687 47.855L84.311 45.9133C84.4823 45.5992 84.9677 45.5992 85.139 45.9133Z" fill="white"/>
<path d="M112.253 102.861L113.224 104.802L115.366 105.116C115.737 105.173 115.88 105.63 115.623 105.887L114.081 107.401L114.424 109.542C114.509 109.913 114.11 110.199 113.767 110.028L111.854 109.028L109.941 110.028C109.598 110.199 109.227 109.913 109.284 109.542L109.655 107.401L108.113 105.887C107.828 105.63 107.97 105.173 108.342 105.116L110.483 104.802L111.454 102.861C111.625 102.518 112.111 102.518 112.253 102.861Z" fill="white"/>
<path d="M22.6431 93.8022L23.2999 95.0871L24.7276 95.287C24.956 95.3156 25.0702 95.6297 24.8704 95.801L23.8424 96.8004L24.0994 98.2281C24.1279 98.4565 23.871 98.6564 23.6711 98.5422L22.3861 97.8569L21.1012 98.5422C20.9013 98.6564 20.6443 98.4565 20.6729 98.2281L20.9299 96.8004L19.9019 95.801C19.702 95.6297 19.8162 95.3156 20.0447 95.287L21.4724 95.0871L22.1292 93.8022C22.2148 93.5738 22.5575 93.5738 22.6431 93.8022Z" fill="white"/>
<path d="M70.7476 25.1264L71.4043 26.4113L72.8321 26.6112C73.0605 26.6683 73.1747 26.9539 72.9748 27.1252L71.9469 28.1532L72.2039 29.5523C72.2324 29.8093 71.9754 29.9806 71.7756 29.8664L70.4906 29.2097L69.2057 29.8664C69.0058 29.9806 68.7488 29.8093 68.7773 29.5523L69.0343 28.1532L68.0064 27.1252C67.8065 26.9539 67.9207 26.6683 68.1492 26.6112L69.5769 26.4113L70.2336 25.1264C70.3193 24.898 70.6619 24.898 70.7476 25.1264Z" fill="white"/>
<path d="M7.96632 70.3198L8.59452 71.6047L10.0222 71.8331C10.2792 71.8617 10.3649 72.1758 10.1936 72.3471L9.16561 73.3465L9.39404 74.7457C9.45115 75.0027 9.19416 75.2025 8.96573 75.0883L7.68078 74.403L6.4244 75.0883C6.19597 75.2025 5.93898 75.0027 5.99609 74.7457L6.22452 73.3465L5.19655 72.3471C5.02523 72.1758 5.1109 71.8617 5.36789 71.8331L6.7956 71.6047L7.4238 70.3198C7.53802 70.0913 7.85211 70.0913 7.96632 70.3198Z" fill="white"/>
<path d="M5.51015 27.2317L6.48099 29.1734L8.62256 29.4875C8.99377 29.5446 9.13655 30.0014 8.87956 30.287L7.30907 31.7718L7.68028 33.9134C7.73738 34.2846 7.36618 34.5701 7.02353 34.3988L5.11039 33.3994L3.19725 34.3988C2.85459 34.5701 2.45484 34.2846 2.5405 33.9134L2.88315 31.7718L1.34122 30.287C1.08423 30.0014 1.227 29.5446 1.59821 29.4875L3.73978 29.1734L4.71064 27.2317C4.85341 26.9176 5.33883 26.9176 5.51015 27.2317Z" fill="white"/>
<path d="M73.4966 83.4545L74.1248 84.7395L75.5526 84.9394C75.781 84.9679 75.8952 85.282 75.7239 85.4533L74.6959 86.4527L74.9244 87.8519C74.9815 88.1089 74.7245 88.3088 74.496 88.1945L73.2396 87.5092L71.9547 88.1945C71.7548 88.3088 71.4978 88.1089 71.5264 87.8519L71.7548 86.4527L70.7554 85.4533C70.5555 85.282 70.6698 84.9679 70.8982 84.9394L72.3259 84.7395L72.9541 83.4545C73.0683 83.2261 73.3824 83.2261 73.4966 83.4545Z" fill="white"/>
</svg>
