<svg width="204" height="121" viewBox="0 0 204 121" fill="none" xmlns="http://www.w3.org/2000/svg">
<path d="M15.8647 42.4531C15.1306 33.6432 15.531 23.8989 21.4043 17.2915C26.143 11.9521 33.618 9.81637 40.7594 9.61615C47.9008 9.34918 54.9754 10.8175 62.0501 11.3514C81.6721 12.9532 101.161 8.14781 120.516 4.54375C139.871 0.939694 160.227 -1.463 178.915 4.67724C187.458 7.4804 196.134 12.9532 198.27 21.6964C201.34 34.2438 189.594 45.9904 189.527 58.8716C189.46 74.2222 205.612 87.0366 202.675 102.12C201.073 110.263 193.865 116.47 185.923 118.806C177.914 121.142 169.371 120.207 161.295 118.205C153.219 116.269 145.411 113.333 137.268 111.731C107.167 105.925 76.533 118.739 45.8985 117.538C33.618 117.137 19.936 113.333 13.9292 102.654C8.58986 93.3103 10.6588 81.5637 13.7957 71.8194C16.9993 61.7414 16.7324 53.065 15.8647 42.4531Z" fill="white"/>
<path d="M74.9268 38.5918L77.5854 38.5059L77.9337 49.2802C77.9913 51.0593 76.6759 52.4625 74.8968 52.52L67.1209 52.7715C64.5822 52.8535 62.6012 50.9966 62.5191 48.4579L62.428 45.6394L65.0866 45.5534L65.1777 48.3719C65.212 49.4314 65.9749 50.1271 67.0343 50.0929L73.7708 49.8751C74.9902 49.8356 75.2661 49.0863 75.2376 48.2068L74.9268 38.5918ZM72.0732 43.7867L72.1191 45.206L67.7014 45.3488L67.6555 43.9296L68.3551 43.9069C68.0649 43.5962 67.8521 43.2028 67.8346 42.6631C67.7991 41.5637 68.4929 40.7408 69.7722 40.6995C70.9716 40.6607 71.837 41.4331 71.9222 42.8311L70.6229 42.8731C70.5867 42.374 70.1979 42.1065 69.8381 42.1181C69.4983 42.1291 69.1855 42.3593 69.1991 42.7791C69.2081 43.0589 69.3642 43.5541 69.9543 43.8552L72.0732 43.7867ZM83.2753 52.2492L80.5967 52.3358L80.1469 38.423L82.8255 38.3364L83.2753 52.2492ZM107.331 48.79L109.689 48.7138L109.776 51.3924L104.739 51.5552L104.494 43.9792L103.234 44.0199C102.195 44.0535 101.518 44.7958 101.552 45.8352L101.714 50.8326C101.824 54.2508 99.3283 56.8928 95.91 57.0034L95.7901 57.0072C92.3519 57.1184 89.7105 54.6425 89.6 51.2243L89.4753 47.3663L92.1539 47.2797L92.2786 51.1376C92.3419 53.0966 93.7252 54.4126 95.7041 54.3486L95.8241 54.3448C97.7831 54.2814 99.0984 52.8782 99.0351 50.9192L98.8735 45.9218C98.7921 43.4031 100.65 41.4421 103.148 41.3613L107.086 41.234L107.331 48.79ZM93.4417 58.0237C94.2813 57.9965 95.0248 58.7129 95.052 59.5524C95.0798 60.412 94.3834 61.1549 93.5438 61.182C92.6843 61.2098 91.9414 60.5134 91.9136 59.6539C91.8865 58.8143 92.5822 58.0514 93.4417 58.0237ZM97.6995 57.886C98.559 57.8582 99.3026 58.5746 99.3297 59.4141C99.3575 60.2737 98.6612 61.0166 97.8016 61.0444C96.9421 61.0721 96.1992 60.3758 96.1714 59.5162C96.1442 58.6767 96.8399 57.9138 97.6995 57.886ZM110.96 37.4268L113.639 37.3402L114.006 48.6943C114.052 50.1335 112.969 51.2891 111.53 51.3357L109.631 51.3971L108.458 51.0148L108.399 49.1957L109.544 48.7185L110.544 48.6861C110.883 48.6752 111.315 48.4211 111.295 47.8014L110.96 37.4268ZM116.26 37.2555L118.918 37.1695L119.254 47.5441C119.274 48.1638 119.741 48.3888 120.081 48.3778L121.061 48.3461L121.147 51.0247L119.268 51.0855C117.849 51.1314 116.673 50.0488 116.627 48.6095L116.26 37.2555ZM127.563 48.1359L128.723 48.0984L128.809 50.777L127.29 50.8261C126.351 50.8565 125.476 50.4245 124.795 49.7662C124.197 50.4659 123.292 50.9554 121.973 50.998L120.873 51.0336L119.7 50.6513L119.642 48.8322L120.787 48.355L121.926 48.3181C123.146 48.2787 123.382 47.5307 123.353 46.6512L123.272 44.1525L123.166 41.4745L125.864 41.3873L125.997 45.4851C126.003 45.685 126.01 45.8849 125.997 46.1054L126.012 46.5652C126.04 47.4447 126.364 48.1747 127.563 48.1359ZM124.888 53.265C125.727 53.2379 126.47 53.9342 126.497 54.7738C126.526 55.6533 125.829 56.3762 124.989 56.4034C124.13 56.4312 123.387 55.7548 123.359 54.8753C123.332 54.0357 124.028 53.2928 124.888 53.265ZM130.102 39.9296C129.243 39.9573 128.5 39.261 128.472 38.4014C128.445 37.5619 129.141 36.799 130 36.7712C130.86 36.7434 131.603 37.4598 131.63 38.2993C131.658 39.1589 130.962 39.9018 130.102 39.9296ZM134.38 39.7912C133.52 39.819 132.778 39.1227 132.75 38.2631C132.723 37.4236 133.418 36.6607 134.278 36.6329C135.117 36.6058 135.861 37.3221 135.888 38.1617C135.916 39.0212 135.22 39.7641 134.38 39.7912ZM128.172 50.7976L128.086 48.119L131.204 48.0182C131.544 48.0072 131.976 47.7531 131.956 47.1334L131.764 41.1965L134.443 41.1099L134.666 48.0263C134.713 49.4655 133.63 50.6212 132.19 50.6677L128.172 50.7976ZM57.9227 75.1204L55.6839 75.1927L55.1519 66.1652L57.8705 66.0773L57.9227 75.1204ZM56.9391 79.3544C56.1395 79.3802 55.4798 78.7812 55.4533 77.9616C55.4281 77.182 56.0477 76.5417 56.8473 76.5158C57.6069 76.4913 58.2866 77.0896 58.3118 77.8692C58.3383 78.6888 57.6987 79.3298 56.9391 79.3544ZM64.2476 74.9159L62.0087 74.9883L61.4767 65.9607L64.1953 65.8728L64.2476 74.9159ZM63.2639 79.1499C62.4643 79.1757 61.8046 78.5767 61.7781 77.7572C61.7529 76.9776 62.3725 76.3372 63.1721 76.3113C63.9317 76.2868 64.6114 76.8851 64.6366 77.6647C64.6631 78.4843 64.0235 79.1253 63.2639 79.1499ZM70.5724 74.7114L68.3336 74.7838L67.8016 65.7562L70.5201 65.6683L70.5724 74.7114ZM69.5887 78.9454C68.7891 78.9712 68.1294 78.3722 68.1029 77.5527C68.0777 76.7731 68.6973 76.1327 69.4969 76.1069C70.2565 76.0823 70.9362 76.6807 70.9614 77.4602C70.9879 78.2798 70.3483 78.9208 69.5887 78.9454ZM76.8972 74.5069L74.6584 74.5793L74.1264 65.5518L76.845 65.4639L76.8972 74.5069ZM75.9135 78.7409C75.1139 78.7667 74.4542 78.1677 74.4277 77.3482C74.4025 76.5686 75.0222 75.9282 75.8217 75.9024C76.5813 75.8778 77.261 76.4762 77.2862 77.2558C77.3127 78.0753 76.6731 78.7163 75.9135 78.7409ZM90.1051 75.3605L90.1917 78.0391L88.4926 78.0941L88.4971 78.234C88.5792 80.7727 86.7223 82.7537 84.1836 82.8358L83.2041 82.8675L83.1175 80.1889L84.097 80.1572C85.1564 80.1229 85.8528 79.38 85.8185 78.3206L85.5019 68.5257L88.1805 68.4391L88.406 75.4155L90.1051 75.3605ZM93.3051 66.2524C92.4456 66.2802 91.7033 65.6038 91.6749 64.7243C91.6478 63.8847 92.3441 63.1418 93.2037 63.114C94.0632 63.0862 94.8061 63.7826 94.8333 64.6221C94.8617 65.5017 94.1647 66.2246 93.3051 66.2524ZM101.612 74.9885L103.351 74.9323L103.437 77.6109L89.9845 78.0458L88.8115 77.6635L88.7527 75.8445L89.8979 75.3672L97.8537 75.11C97.5629 74.7792 97.116 73.9532 96.6284 73.1086C95.1703 70.7144 93.5904 69.5048 90.6288 70.7412L90.5493 68.2825C94.2241 66.823 97.4019 68.5612 99.5546 72.6338C100.688 74.8783 101.271 74.9595 101.612 74.9885ZM120.379 74.3817L121.519 74.3449L121.605 77.0235L120.466 77.0603C119.587 77.1088 118.835 76.7329 118.355 76.1281C117.815 76.7658 117.048 77.1708 115.908 77.2077L114.689 77.2471C113.79 77.2762 113.015 76.841 112.597 76.2942C112.119 76.99 111.291 77.357 110.171 77.3932L109.052 77.4294C108.133 77.4591 107.339 77.0645 106.92 76.4578C106.442 77.1536 105.694 77.5379 104.055 77.5909L103.395 77.6123L102.222 77.23L102.163 75.4109L103.308 74.9337L103.748 74.9194C104.668 74.8897 105.092 74.3957 105.067 73.6161L104.936 69.5583L107.554 69.4736L107.705 73.5308C107.732 74.3704 108.226 74.7747 108.945 74.7514L109.565 74.7314C110.305 74.7075 110.769 74.2122 110.744 73.4326L110.613 69.3747L113.211 69.2907L113.342 73.3486C113.368 74.1282 113.883 74.5918 114.642 74.5672L115.282 74.5465C116.062 74.5213 116.486 74.0274 116.461 73.2478L116.265 67.1909L118.864 67.1069L119.059 73.1637C119.085 73.9433 119.56 74.4082 120.379 74.3817ZM133.617 73.9538L134.296 73.9318L134.383 76.6104L133.703 76.6324C132.584 76.6685 131.609 76.2198 130.985 75.4796C130.288 76.2225 129.284 76.7152 128.184 76.7508C126.965 76.7902 125.792 76.4279 124.87 75.7573C124.274 76.497 123.349 76.9671 122.249 77.0027L121.53 77.0259L120.357 76.6436L120.297 74.8046L121.443 74.3473L122.163 74.3241C122.822 74.3027 123.248 73.8488 123.226 73.1891L123.162 71.2101C123.078 68.6115 124.954 66.5898 127.553 66.5058L127.753 66.4994C130.331 66.416 132.354 68.3116 132.438 70.9103L132.502 72.8892C132.523 73.5489 132.957 73.9751 133.617 73.9538ZM128.098 74.0722C129.057 74.0411 129.829 73.1757 129.796 72.1363L129.759 70.9969C129.722 69.8575 128.939 69.1424 127.839 69.178L127.639 69.1844C126.52 69.2206 125.784 69.9848 125.821 71.1242L125.887 73.1631C126.407 73.7866 127.238 74.1 128.098 74.0722ZM135.93 65.7547C135.071 65.7825 134.328 65.0861 134.3 64.2266C134.273 63.387 134.968 62.6242 135.828 62.5964C136.688 62.5686 137.431 63.2849 137.458 64.1245C137.486 64.984 136.79 65.7269 135.93 65.7547ZM140.208 65.6164C139.348 65.6442 138.605 64.9478 138.578 64.0883C138.55 63.2487 139.246 62.4859 140.106 62.4581C140.945 62.4309 141.689 63.1473 141.716 63.9868C141.744 64.8464 141.047 65.5893 140.208 65.6164ZM134 76.6228L133.914 73.9442L137.032 73.8433C137.372 73.8323 137.804 73.5783 137.784 72.9586L137.592 67.0217L140.27 66.9351L140.494 73.8515C140.541 75.2907 139.457 76.4463 138.018 76.4928L134 76.6228Z" fill="#012246"/>
<path opacity="0.4" d="M202.675 102.121C201.074 110.263 193.865 116.47 185.923 118.806C177.914 121.142 169.371 120.208 161.295 118.206C153.22 116.27 145.411 113.334 137.268 111.732C107.168 105.925 76.5334 118.74 45.899 117.538C33.6185 117.071 19.9364 113.333 13.9296 102.655C11.1932 97.9161 10.4591 92.51 10.726 87.1707C10.9263 90.975 11.8606 94.7125 13.7294 98.1164C19.5359 108.328 32.6174 111.932 44.3639 112.399C73.5968 113.467 102.896 101.253 131.595 106.793C139.404 108.328 146.879 111.131 154.621 113C162.297 114.869 170.506 115.803 178.114 113.6C185.723 111.331 192.664 105.391 194.132 97.5824C196.936 83.233 183.787 71.8201 183.921 57.1369C183.988 45.6573 198.537 32.4425 198.07 20.9629C198.159 21.1854 198.226 21.4301 198.27 21.697C201.341 34.2445 189.594 45.991 189.527 58.9389C189.461 74.2228 205.612 87.0372 202.675 102.121Z" fill="#05BEED"/>
<path fill-rule="evenodd" clip-rule="evenodd" d="M175.845 120.874C171.44 120.874 166.635 120.207 161.162 118.872C157.758 118.071 154.355 117.003 151.084 116.069C146.546 114.734 141.807 113.332 137.135 112.398C120.049 109.061 102.429 111.864 85.4103 114.601C72.4624 116.603 59.114 118.739 45.8992 118.205C36.7556 117.871 20.4038 115.468 13.3292 102.921C8.92424 95.2454 8.92421 85.0339 13.1289 71.6188C16.3993 61.3406 15.9989 52.3972 15.198 42.5194C14.5305 34.9776 14.4638 24.0987 20.871 16.8906C25.2092 12.0184 32.2171 9.2153 40.6933 8.94834C45.4987 8.81485 50.3041 9.34879 54.9093 9.94946C57.312 10.2164 59.7147 10.4834 62.1174 10.6836C78.6694 12.0852 95.4215 8.74811 111.573 5.61125C114.51 5.03282 117.446 4.45436 120.383 3.87594C139.671 0.27188 160.161 -2.19756 179.116 4.00943C185.389 6.07842 196.335 11.1508 198.938 21.4958C200.673 28.7039 197.737 35.645 194.867 42.4527C192.598 47.792 190.262 53.2649 190.195 58.9379C190.195 65.8791 193.599 72.4197 197.003 78.8269C200.874 86.2353 204.945 93.9106 203.343 102.187C201.808 110.062 195.067 116.803 186.124 119.473C182.92 120.407 179.516 120.874 175.845 120.874ZM120.316 109.528C126.056 109.528 131.729 109.995 137.335 111.063C142.141 111.998 146.879 113.399 151.418 114.801C154.688 115.735 158.092 116.736 161.429 117.537C171.307 119.94 178.982 120.14 185.723 118.205C194.199 115.668 200.607 109.328 202.008 101.986C203.543 94.1776 199.806 86.9695 195.801 79.4276C192.397 72.8869 188.86 66.146 188.86 58.8712C188.927 52.9979 191.329 47.3916 193.599 41.9187C196.535 35.0443 199.272 28.5704 197.603 21.8295C195.134 11.6847 183.521 6.87934 178.715 5.27754C160.028 -0.862705 139.738 1.60672 120.65 5.21077C117.713 5.74471 114.777 6.30089 111.84 6.87932C95.555 10.0829 78.7361 13.42 62.0507 12.0184C59.5812 11.8182 57.1785 11.5513 54.7758 11.2843C50.1706 10.6836 45.432 10.1497 40.76 10.2832C36.0881 10.4167 27.345 11.618 21.8721 17.7582C15.7986 24.5659 15.8654 35.1111 16.466 42.3859C17.3337 52.3972 17.7341 61.5409 14.3971 72.0193C10.2591 85.034 10.3258 94.9117 14.4638 102.32C21.2047 114.2 37.0892 116.536 45.9659 116.87C59.0473 117.404 72.3289 115.268 85.2101 113.266C96.7564 111.397 108.57 109.528 120.316 109.528Z" fill="#99E7FA"/>
<path d="M15.3846 63.9157C11.8953 60.9469 5.35571 60.2915 1.93248 55.7542C1.70091 55.4473 1.77138 55.0135 2.08468 54.7907C7.77137 50.7452 13.9127 53.3663 17.2213 51.311" stroke="#99E7FA" stroke-width="1.48829" stroke-linejoin="round"/>
<path d="M14.9558 62.6442C15.0409 58.3105 12.8769 54.9436 16.1206 52.555C17.5 52.5 16.5 49.5 17.6673 51.0449C20.2727 54.4932 16.8743 60.9334 15.8954 64.8243C16.2809 63.3857 15.6757 62.8371 14.9558 62.6442Z" fill="white"/>
</svg>
