<svg width="327" height="401" viewBox="0 0 327 401" fill="none" xmlns="http://www.w3.org/2000/svg">
<path d="M107.716 236.425C55.6961 236.245 45.7407 267.457 38.3862 260.192C34.7986 256.515 34.3502 251.134 36.3233 244.766C43.1397 222.433 78.8359 187.813 103.5 172.925C107.536 170.503 111.303 168.62 114.532 167.364C122.694 162.162 128.165 232.568 107.716 236.425Z" fill="#00C4F6"/>
<path d="M86.2792 193.017C81.6154 196.425 77.0412 199.923 72.7361 203.779C68.7001 207.367 64.4848 211.941 62.2425 216.964C61.7044 218.13 62.8704 219.475 64.0363 218.758C68.7898 216.246 73.0052 212.3 76.8619 208.623C81.0773 204.856 85.2029 200.999 89.5977 197.412C92.0193 195.438 88.7905 191.133 86.2792 193.017Z" fill="#A8E1FF"/>
<path opacity="0.6" d="M107.716 236.425C55.6961 236.245 45.7407 267.457 38.3862 260.192C34.7986 256.515 34.3502 251.134 36.3233 244.766C38.9243 244.317 41.9737 244.856 44.6644 244.945C52.3776 245.214 59.4631 241.178 65.5619 236.604C72.1092 231.761 78.0287 226.021 83.141 219.563C92.1996 208.352 98.7468 195.078 102.245 181.087C102.783 178.755 103.052 175.795 103.5 172.925C107.536 170.503 111.303 168.62 114.532 167.364C122.694 162.162 128.165 232.568 107.716 236.425Z" fill="#08BAE8"/>
<path d="M53.9919 223.509C52.9156 224.765 51.7496 226.021 50.7631 227.366C49.9559 228.532 48.7002 230.595 49.9559 231.85C51.2115 233.106 52.8259 231.671 53.8125 230.864C55.2475 229.877 56.3238 228.263 57.4001 226.918C58.2969 225.931 58.3866 224.496 57.4001 223.509C56.5929 222.613 54.8888 222.523 53.9919 223.509Z" fill="#A8E1FF"/>
<path d="M260.457 349.971C241.533 356.518 222.608 365.218 205.209 376.16C105.295 320.912 109.869 220.191 108.165 166.557C108.046 163.149 107.896 159.92 107.717 156.871C107.717 156.871 126.641 144.494 150.947 135.525C184.67 123.148 221.622 119.919 241.353 149.696C240.875 155.914 240.456 161.983 240.098 167.902C233.461 275.888 243.685 322.706 260.457 349.971Z" fill="#00C4F6"/>
<path d="M240.006 357.951C235.283 359.984 230.619 362.167 226.015 364.499C217.853 361.718 206.014 354.274 189.96 341.807C143.321 305.483 124.756 222.521 124.756 163.685C124.756 163.685 233.459 117.316 224.759 157.676C215.611 199.92 217.315 275.169 233.01 322.345C238.571 338.848 241.082 350.776 240.006 357.951Z" fill="#A8E1FF"/>
<path opacity="0.2" d="M241.353 149.694C240.875 155.913 240.456 161.982 240.098 167.901C224.94 185.749 202.339 197.409 178.93 198.485C152.113 199.831 125.027 187.364 108.165 166.556C108.046 163.148 107.896 159.919 107.717 156.87C107.717 156.87 126.641 144.493 150.947 135.524C178.93 133.371 207.361 135.972 234.896 141.622C237.228 143.954 239.38 146.645 241.353 149.694Z" fill="#1C7FB3"/>
<path d="M210.052 280.013C210.5 285.932 211.397 291.852 212.832 297.682C213.998 302.704 215.971 309.252 219.648 313.018C220.724 314.184 222.518 313.288 222.608 311.853C222.877 306.74 220.725 300.731 219.469 295.798C218.034 290.327 216.778 284.766 215.881 279.206C215.343 275.887 209.693 276.605 210.052 280.013Z" fill="#E0F5FF"/>
<path d="M221.8 326.024C222.428 327.908 223.056 329.701 223.953 331.495C224.76 333.11 225.298 334.903 226.733 336.069C227.63 336.787 228.975 336.607 229.334 335.442C229.782 333.648 229.334 331.944 228.975 330.15C228.616 328.177 228.078 326.383 227.451 324.5C226.285 320.912 220.634 322.437 221.8 326.024Z" fill="#E0F5FF"/>
<path d="M169.063 2.87383C168.525 1.61819 167.628 0.0934633 166.193 0.00377437C164.669 -0.0859146 163.682 1.43881 162.965 2.87383C159.556 9.77988 156.866 16.955 154.893 24.3992L175.342 24.5786C174.176 17.1344 172.113 9.77988 169.063 2.87383Z" fill="#00C4F6"/>
<path d="M228.167 163.509C212.382 171.132 191.126 181.536 167.717 181.626C144.667 181.626 123.68 171.581 107.894 164.137C77.1311 149.786 73.3642 125.75 87.1763 107.543C91.7505 101.534 94.2617 94.1793 94.1721 86.5557C93.3649 49.4245 126.012 18.1231 167.538 18.0334C209.422 17.9437 241.89 49.6039 241.262 86.0176C241.172 93.7309 243.504 101.265 248.078 107.364C261.442 125.212 258.303 148.8 228.167 163.509Z" fill="#00C4F6"/>
<path d="M219.7 114.1C219 114.1 218.3 113.7 217.9 113C213.5 104.3 208.1 100.1 201.9 99.9004C201.767 99.9004 201.667 99.9004 201.6 99.9004C195.5 99.9004 190.5 103.9 186.6 112.1C186.2 113.1 185 113.6 184 113.1C183 112.6 182.5 111.4 183 110.4C187.6 100.7 193.9 95.9004 201.6 95.9004C201.733 95.9004 201.833 95.9004 201.9 95.9004C209.7 96.1004 216.4 101.2 221.5 111.2C222 112.2 221.6 113.4 220.6 113.9C220.333 114.034 220.033 114.1 219.7 114.1Z" fill="black"/>
<path d="M230.053 162.609C229.395 162.908 228.767 163.207 228.169 163.506C208.617 173.013 189.513 181.534 167.719 181.623C146.014 181.623 126.91 173.103 107.896 164.134C107.298 163.895 106.7 163.596 106.102 163.237C100.721 155.703 100.004 147.452 102.515 141.174C104.578 135.972 109.152 131.756 114.713 130.77C124.22 129.066 134.803 137.138 143.592 132.384C151.306 128.259 158.84 125.209 167.808 125.299C176.777 125.478 184.401 127.989 192.024 132.295C200.635 137.048 211.397 128.797 220.994 130.501C232.654 132.564 239.739 147.9 230.053 162.609Z" fill="#A8E1FF"/>
<path d="M125.956 91C135.396 91 143 98.1753 143 107C143 115.825 135.396 123 125.956 123C116.604 123 109 115.825 109 107C109 98.1753 116.604 91 125.956 91Z" fill="white"/>
<path fill-rule="evenodd" clip-rule="evenodd" d="M125.923 123.093C121.08 123.093 116.506 122.21 113.098 118.801C109.6 115.304 107.627 113.729 107.627 108.797C107.627 103.953 109.51 99.3792 113.008 95.8813C116.416 92.3835 120.991 90.5 125.923 90.5C130.856 90.5 135.431 92.3835 138.839 95.7917C142.337 99.2895 144.22 103.864 144.31 108.707C144.31 118.842 136.148 123.093 126.013 123.093C126.013 123.093 125.983 123.093 125.923 123.093ZM125.923 92.2938C121.529 92.2938 117.403 93.9979 114.264 97.137C111.125 100.276 109.421 104.402 109.421 108.797C109.421 113.281 111.215 114.407 114.354 117.456C117.403 120.595 121.529 121.299 125.923 121.299C125.983 121.299 126.013 121.299 126.013 121.299C135.161 121.299 142.516 117.855 142.516 108.707C142.426 104.312 140.722 100.186 137.583 97.0473C134.534 93.9979 130.318 92.2938 125.923 92.2938Z" fill="black"/>
<path d="M142.246 110.144C142.246 117.229 136.596 122.97 129.51 122.97C122.425 122.97 116.685 117.319 116.685 110.234C116.595 103.148 122.335 97.4082 129.42 97.4082C133.187 97.4082 136.506 98.9329 138.838 101.534C134.264 104.045 131.394 107.633 132.47 109.606C133.546 111.489 137.762 111.131 142.246 108.888C142.246 109.307 142.246 109.725 142.246 110.144Z" fill="black"/>
<path d="M136.237 80.636C136.237 82.4298 128.5 81 128.5 81C128.5 81 120.541 82.5195 120.541 80.636C120.541 78.8422 124.039 75.7031 128.344 75.7031C132.739 75.7031 136.237 78.8422 136.237 80.636Z" fill="#00B0DF"/>
<path d="M208.948 84.4544C208.948 86.2482 205.45 86.1585 201.055 86.1585C196.75 86.1585 193.252 86.3379 193.252 84.5441C193.252 82.6606 196.75 79.5215 201.055 79.5215C205.36 79.5215 208.948 82.6606 208.948 84.4544Z" fill="#00B0DF"/>
<path d="M143.143 135.077C142.874 135.077 142.605 134.898 142.426 134.718C142.157 134.36 142.247 133.732 142.605 133.463C149.87 127.543 159.018 124.314 168.346 124.314C168.406 124.314 168.436 124.314 168.436 124.314C177.763 124.314 186.912 127.543 194.177 133.373C194.625 133.642 194.625 134.18 194.356 134.629C193.997 134.987 193.459 135.077 193.1 134.718C186.104 129.158 177.405 126.108 168.436 126.108C168.436 126.108 168.406 126.108 168.346 126.108C159.467 126.108 150.677 129.247 143.771 134.808C143.592 134.987 143.383 135.077 143.143 135.077Z" fill="#00B0DF"/>
<path d="M166.642 150.323C142.157 150.323 127.627 147.632 112.021 133.372C111.662 133.103 111.662 132.475 112.021 132.116C112.29 131.757 112.918 131.757 113.277 132.116C128.524 146.108 142.964 148.619 167.628 148.529C195.073 148.44 211.396 143.238 220.545 131.668C220.814 131.309 221.352 131.219 221.8 131.578C222.159 131.847 222.249 132.385 221.89 132.834C209.782 148.17 186.553 150.233 167.628 150.323C167.329 150.323 167 150.323 166.642 150.323Z" fill="black"/>
<path d="M228.168 135.794C227.929 135.794 227.72 135.734 227.541 135.614C224.94 133.103 217.854 130.502 211.755 132.296C211.307 132.475 210.769 132.206 210.589 131.668C210.5 131.22 210.769 130.681 211.217 130.592C218.034 128.529 225.837 131.399 228.796 134.269C229.155 134.628 229.155 135.256 228.796 135.525C228.617 135.704 228.348 135.794 228.168 135.794Z" fill="black"/>
<path d="M105.384 137.857C105.145 137.857 104.935 137.797 104.756 137.677C104.397 137.318 104.397 136.78 104.666 136.422C107.267 133.552 110.406 131.578 113.546 130.861C116.954 129.964 120.541 130.412 124.039 130.951C124.488 131.04 124.846 131.489 124.757 131.937C124.667 132.475 124.219 132.834 123.68 132.744C120.452 132.206 117.043 131.848 113.994 132.565C111.124 133.283 108.344 135.076 106.012 137.588C105.832 137.767 105.563 137.857 105.384 137.857Z" fill="black"/>
<path d="M167.629 174.898C163.324 174.898 159.109 174.181 155.073 172.656C154.624 172.477 154.355 171.938 154.535 171.49C154.714 171.042 155.252 170.773 155.701 170.952C163.683 174.001 172.831 173.822 180.724 170.503C181.172 170.324 181.71 170.593 181.89 171.042C182.069 171.49 181.8 172.028 181.352 172.208C177.047 174.001 172.293 174.898 167.629 174.898Z" fill="#00B0DF"/>
<path d="M195.252 146.914C181.53 154.358 180.992 163.417 167.628 164.045C154.354 164.583 150.587 154.179 137.852 146.914C146.91 148.618 157.404 149.425 167.628 149.425C177.853 149.336 186.194 148.618 195.252 146.914Z" fill="#961662"/>
<path fill-rule="evenodd" clip-rule="evenodd" d="M166.64 164.941C158.479 164.941 153.815 160.815 148.523 156.062C145.384 153.371 141.976 150.322 137.402 147.721C137.043 147.452 136.864 147.003 137.043 146.555C137.133 146.196 137.581 145.927 138.03 146.017C146.55 147.631 156.775 148.528 167.627 148.528C178.121 148.438 186.282 147.721 195.072 146.017C195.431 145.927 195.879 146.106 196.058 146.555C196.238 147.003 196.058 147.452 195.61 147.631C190.139 150.68 186.82 153.909 183.861 156.779C179.645 160.995 175.968 164.582 167.717 164.941C167.358 164.941 166.999 164.941 166.64 164.941ZM142.066 148.528C145.025 150.591 147.447 152.743 149.689 154.716C155.16 159.649 159.465 163.506 167.627 163.147C175.161 162.788 178.3 159.739 182.605 155.524C184.847 153.371 187.269 150.949 190.677 148.618C183.502 149.783 176.327 150.232 167.627 150.322C158.479 150.322 149.779 149.694 142.066 148.528Z" fill="black"/>
<mask id="mask0_82_8710" style="mask-type:luminance" maskUnits="userSpaceOnUse" x="137" y="146" width="59" height="19">
<path d="M195.206 146.869C181.51 154.385 181.017 163.453 167.671 164.036C154.316 164.61 150.603 154.179 137.85 146.905C146.926 148.654 157.42 149.416 167.635 149.389C177.842 149.362 186.174 148.654 195.206 146.869Z" fill="white"/>
</mask>
<g mask="url(#mask0_82_8710)">
<path d="M193.097 163.057C186.371 157.047 177.133 153.908 168.164 154.357C159.105 154.895 150.405 159.021 144.307 165.747C145.383 167.989 147.177 169.335 149.598 169.873C164.218 173.371 179.913 170.142 193.097 163.057Z" fill="#F037A5"/>
</g>
<path d="M189.96 34.6242C195.431 37.0458 200.544 40.2746 205.028 44.4002C207.091 46.3734 208.974 48.4363 210.948 50.4094C213.01 52.4723 214.535 55.3423 217.046 56.867C218.392 57.6742 220.186 56.598 220.096 55.0733C220.006 52.0238 217.943 49.3332 216.329 46.9116C214.445 43.9518 212.203 41.4405 209.513 39.1983C204.4 34.8035 198.66 31.3954 192.292 28.9738C189.063 27.6285 186.732 33.1892 189.96 34.6242Z" fill="#A8E1FF"/>
<path d="M220.097 66.2867C221.353 69.2465 222.16 73.3722 224.851 75.435C225.568 75.9732 226.645 75.8835 227.003 74.8072C228.08 71.399 225.927 67.4527 224.671 64.3136C223.326 60.9951 218.662 62.8786 220.097 66.2867Z" fill="#A8E1FF"/>
<path d="M168.615 134.446C171.306 134.626 173.727 135.164 176.239 135.881C178.481 136.509 180.723 137.855 183.055 137.585C184.58 137.406 185.835 135.881 184.849 134.446C181.889 129.783 173.548 129.513 168.615 129.693C165.566 129.872 165.566 134.267 168.615 134.446Z" fill="#E0F5FF"/>
<path d="M304.583 272.389C296.511 278.667 290.502 246.469 238.841 240.19C230.769 237.589 227.809 224.495 228.796 210.324C229.244 203.328 230.231 195.525 231.935 187.991C232.832 183.776 233.908 179.74 235.254 175.883C236.778 171.578 239.021 169.516 240.545 170.861C262.788 182.61 304.404 231.132 308.709 257.769C309.696 264.137 308.619 269.339 304.583 272.389Z" fill="#00C4F6"/>
<path d="M264.403 211.581C268.708 214.989 272.564 218.666 276.152 222.702C277.766 224.585 279.201 226.648 280.905 228.621C282.52 230.505 284.224 233.106 286.376 234.362C287.722 235.079 289.695 234.182 289.605 232.478C289.426 229.877 287.811 227.814 286.556 225.572C285.121 222.971 283.148 220.639 281.174 218.397C277.228 214.092 272.833 210.325 268.17 206.827C265.389 204.764 261.712 209.428 264.403 211.581Z" fill="#A8E1FF"/>
<path d="M291.129 244.676C292.205 246.291 293.192 248.174 293.999 249.968C294.358 250.685 295.344 251.134 296.151 251.134C296.6 251.134 296.959 251.044 297.407 250.775C298.394 250.237 298.752 249.161 298.483 248.084C298.124 245.753 297.317 243.779 296.151 241.806C294.178 238.577 289.156 241.627 291.129 244.676Z" fill="#A8E1FF"/>
<path d="M304.583 272.389C296.511 278.668 290.502 246.469 238.841 240.191C230.769 237.59 227.809 224.496 228.796 210.325C228.886 208.172 228.796 207.096 230.5 197.051C236.509 230.774 258.214 230.774 273.013 240.371C285.031 248.084 300.727 265.842 306.108 264.138C307.991 263.6 308.26 259.743 308.709 257.77C309.696 264.138 308.619 269.34 304.583 272.389Z" fill="#08BAE8"/>
<path d="M234.177 366.296C229.334 372.664 223.684 378.225 217.495 382.978C199.289 396.791 176.059 403.159 152.74 400.288C127.896 397.239 100.182 390.243 69.1498 378.225C34.2608 364.592 71.4818 372.754 110.586 364.144C118.838 362.35 126.91 360.287 135.251 356.7C144.13 352.933 153.368 347.462 163.234 338.852C175.969 354.906 267.452 322.528 234.177 366.296Z" fill="#00C4F6"/>
<path d="M234.177 366.296C229.334 372.664 223.683 378.225 217.495 382.978C217.495 380.377 216.957 377.777 215.88 375.534C213.459 369.974 208.616 365.938 203.414 362.798C192.741 356.52 180.184 354.099 167.807 353.83C156.865 353.65 146.013 355.085 135.25 356.7C144.129 352.933 153.367 347.462 163.233 338.852C175.969 354.906 267.451 322.528 234.177 366.296Z" fill="#08BAE8"/>
<path d="M301.085 263.602C308.619 263.602 314.718 269.7 314.718 277.234C314.718 284.678 308.619 290.777 301.085 290.777C293.551 290.777 287.452 284.678 287.452 277.234C287.452 269.7 293.551 263.602 301.085 263.602Z" fill="#B8E6FF"/>
<path fill-rule="evenodd" clip-rule="evenodd" d="M301.084 291.673C293.102 291.673 286.555 285.215 286.555 277.143C286.555 269.161 293.102 262.703 301.084 262.703C309.067 262.703 315.614 269.161 315.614 277.143C315.614 285.215 309.067 291.673 301.084 291.673ZM301.084 264.497C294.089 264.497 288.348 270.147 288.348 277.143C288.348 284.228 294.089 289.879 301.084 289.879C308.08 289.879 313.82 284.228 313.82 277.143C313.82 270.147 308.08 264.497 301.084 264.497Z" fill="#B8E6FF"/>
<path d="M321.175 365.13C318.035 368.269 312.923 368.269 309.784 365.13C306.645 361.99 306.645 356.878 309.784 353.739C312.923 350.6 318.035 350.6 321.175 353.739C324.314 356.878 324.314 361.99 321.175 365.13Z" fill="#B8E6FF"/>
<path d="M275.433 389.433C273.191 391.676 269.604 391.676 267.361 389.433C265.119 387.191 265.119 383.604 267.361 381.361C269.604 379.119 273.191 379.119 275.433 381.361C277.676 383.604 277.676 387.191 275.433 389.433Z" fill="#B8E6FF"/>
<path d="M326.109 307.816C326.109 310.955 323.508 313.467 320.369 313.467C317.23 313.467 314.719 310.955 314.719 307.816C314.719 304.677 317.23 302.076 320.369 302.076C323.508 302.076 326.109 304.677 326.109 307.816Z" fill="#B8E6FF"/>
<path fill-rule="evenodd" clip-rule="evenodd" d="M320.368 314.364C316.78 314.364 313.82 311.404 313.82 307.817C313.82 304.139 316.78 301.18 320.368 301.18C324.045 301.18 327.005 304.139 327.005 307.817C327.005 311.404 324.045 314.364 320.368 314.364ZM320.368 302.973C317.767 302.973 315.614 305.126 315.614 307.817C315.614 310.418 317.767 312.57 320.368 312.57C323.058 312.57 325.211 310.418 325.211 307.817C325.211 305.126 323.058 302.973 320.368 302.973Z" fill="#B8E6FF"/>
<path d="M43.0495 257.411C42.0629 245.572 42.6011 232.477 50.4937 223.598C56.8616 216.423 66.9068 213.553 76.5035 213.284C86.1002 212.925 95.6073 214.898 105.114 215.616C131.483 217.768 157.672 211.311 183.682 206.468C209.692 201.624 237.047 198.396 262.16 206.647C273.64 210.414 285.299 217.768 288.169 229.518C292.295 246.379 276.51 262.164 276.42 279.474C276.33 300.103 298.035 317.323 294.089 337.593C291.936 348.535 282.25 356.876 271.577 360.015C260.814 363.154 249.334 361.898 238.482 359.208C227.629 356.607 217.136 352.661 206.194 350.508C165.744 342.705 124.577 359.925 83.4095 358.311C66.9068 357.773 48.5205 352.661 40.4485 338.31C33.2734 325.754 36.0538 309.969 40.2691 296.874C44.5742 283.331 44.2155 271.671 43.0495 257.411Z" fill="white"/>
<path d="M125.393 263.91L122.372 264.059L121.602 248.369L124.622 248.221L125.393 263.91ZM131.619 249.685C130.65 249.732 129.799 248.961 129.751 247.991C129.705 247.045 130.475 246.171 131.444 246.123C132.414 246.075 133.266 246.87 133.313 247.816C133.36 248.786 132.589 249.637 131.619 249.685ZM137.203 260.302L139.637 260.183L139.786 263.203L128.041 263.78L127.893 260.76L134.205 260.45L134.042 257.136C133.978 255.828 133.032 254.971 131.702 255.036L129.537 255.143L129.389 252.122L131.553 252.015C134.529 251.869 136.894 254.013 137.04 256.988L137.203 260.302ZM153.988 259.478L156.716 259.344L156.864 262.364L139.236 263.23L137.905 262.821L137.803 260.747L139.087 260.21L150.967 259.626L150.901 258.273C150.836 256.943 149.89 256.086 148.559 256.151L140.895 256.528L140.53 256.003L144.619 247.238L147.662 247.089L144.76 253.333L148.412 253.153C151.41 253.006 153.775 255.149 153.922 258.125L153.988 259.478ZM161.918 250.727C169.253 248.717 173.662 251.054 173.958 254.791L174.052 256.707C174.19 259.502 172.034 261.619 169.261 261.755L156.231 262.395L154.901 261.986L154.799 259.912L156.083 259.375L159.577 259.203C159.192 258.725 158.912 258.083 158.877 257.362L158.832 256.46C158.843 254.381 160.094 252.715 161.991 252.215L161.918 250.727ZM169.045 258.738C170.195 258.681 171.108 257.959 171.052 256.809L170.938 254.961C170.771 253.388 168.654 252.611 165.48 252.857C166.836 253.333 167.799 254.528 167.883 256.241L168.008 258.789L169.045 258.738ZM165.461 258.914L165.331 256.276C165.272 255.082 164.515 254.373 163.297 254.433C162.012 254.496 161.349 255.252 161.409 256.469L161.443 257.168C161.495 258.227 162.438 259.017 163.454 259.013L165.461 258.914ZM196.995 257.365L197.143 260.385L194.866 260.497C194.604 263.9 192.018 266.445 188.478 266.619L188.321 266.626C184.443 266.817 181.438 264.072 181.249 260.217L181.035 255.866L184.056 255.718L184.27 260.069C184.378 262.278 185.964 263.737 188.173 263.628L188.331 263.62C190.54 263.512 191.998 261.904 191.889 259.694L191.165 244.951L194.163 244.804L194.786 257.473L196.995 257.365ZM210.589 256.697L211.355 256.659L211.504 259.68L210.737 259.718C209.475 259.78 208.366 259.292 207.648 258.468C206.876 259.32 205.752 259.895 204.512 259.956C203.137 260.023 201.807 259.637 200.754 258.897C200.095 259.743 199.06 260.291 197.82 260.352L197.008 260.392L195.678 259.983L195.576 257.909L196.86 257.371L197.672 257.331C198.416 257.295 198.887 256.775 198.851 256.031L198.741 253.799C198.597 250.868 200.675 248.552 203.606 248.408L203.831 248.397C206.739 248.254 209.057 250.354 209.201 253.285L209.31 255.517C209.347 256.261 209.845 256.733 210.589 256.697ZM204.364 256.935C205.446 256.882 206.301 255.891 206.243 254.718L206.18 253.433C206.117 252.148 205.219 251.356 203.979 251.417L203.754 251.428C202.492 251.49 201.676 252.367 201.739 253.652L201.852 255.951C202.451 256.645 203.394 256.982 204.364 256.935ZM216.484 249.809L221.421 249.566C223.607 249.459 225.475 251.13 225.583 253.339L225.665 255.007C225.774 257.216 224.08 259.085 221.894 259.192L211.208 259.717L209.877 259.285L209.776 257.234L211.06 256.696L221.385 256.189C222.106 256.154 222.663 255.539 222.628 254.817L222.579 253.825C222.544 253.104 221.929 252.547 221.207 252.582L212.642 253.026L212.261 251.711L216.366 243.736L218.826 244.587L216.484 249.809ZM117.784 297.3L118.461 297.266L118.609 300.287L117.504 300.341C116.445 300.394 115.473 299.922 114.691 299.192C114.007 299.994 113.018 300.562 111.508 300.636L103.934 301.008C101.071 301.149 98.8003 299.091 98.6596 296.228L98.5024 293.027L101.523 292.879L101.68 296.08C101.739 297.275 102.59 298.046 103.785 297.987L111.382 297.614C112.735 297.548 113.034 296.742 113.009 295.772L112.696 289.867L115.717 289.718L116.004 295.557C116.053 296.549 116.409 297.367 117.784 297.3ZM107.854 303.527C108.823 303.48 109.675 304.251 109.721 305.198C109.77 306.19 108.997 307.019 108.028 307.067C107.081 307.113 106.208 306.365 106.159 305.373C106.113 304.426 106.907 303.574 107.854 303.527ZM126.965 296.849L129.152 296.741L129.3 299.762L126.685 299.89C125.625 299.943 124.653 299.471 123.873 298.763C123.21 299.541 122.199 300.111 120.711 300.184L118.322 300.301L116.991 299.892L116.89 297.841L118.173 297.281L120.585 297.162C121.96 297.095 122.212 296.246 122.164 295.254L122.025 292.436L121.854 289.417L124.898 289.267L125.125 293.888C125.136 294.114 125.147 294.339 125.138 294.611L125.162 295.107C125.211 296.099 125.59 296.916 126.965 296.849ZM121.108 302.289C122.055 302.242 122.907 303.014 122.953 303.961C123.002 304.952 122.229 305.781 121.282 305.828C120.313 305.875 119.463 305.126 119.414 304.134C119.367 303.188 120.139 302.336 121.108 302.289ZM125.91 302.053C126.879 302.005 127.731 302.777 127.777 303.724C127.826 304.715 127.053 305.544 126.084 305.592C125.114 305.64 124.264 304.89 124.215 303.899C124.169 302.952 124.941 302.1 125.91 302.053ZM142.084 296.106L144.068 296.008L144.216 299.029L129.022 299.776L127.691 299.366L127.591 297.315L128.874 296.755L137.868 296.313C137.534 295.945 137.014 295.022 136.448 294.078C134.757 291.404 132.952 290.069 129.611 291.521L129.475 288.749C133.616 287.031 137.235 288.932 139.741 293.487C141.062 295.998 141.721 296.079 142.084 296.106ZM135.868 301.134C136.837 301.086 137.689 301.858 137.735 302.805C137.784 303.797 137.011 304.626 136.042 304.673C135.095 304.72 134.222 303.972 134.174 302.98C134.127 302.033 134.921 301.181 135.868 301.134ZM145.382 283.244L148.402 283.096L149.031 295.9C149.111 297.523 147.911 298.848 146.288 298.927L144.146 299.033L142.815 298.623L142.715 296.572L143.998 296.012L145.125 295.956C145.508 295.938 145.991 295.643 145.956 294.944L145.382 283.244ZM155.195 298.49L152.174 298.638L151.404 282.948L154.424 282.8L155.195 298.49ZM182.272 294.131L184.932 294.001L185.081 297.021L179.4 297.301L178.98 288.757L177.56 288.827C176.388 288.884 175.639 289.735 175.696 290.907L175.973 296.542C176.162 300.397 173.396 303.426 169.541 303.615L169.406 303.622C165.529 303.812 162.502 301.068 162.312 297.214L162.098 292.863L165.119 292.714L165.333 297.065C165.441 299.274 167.027 300.733 169.259 300.623L169.394 300.617C171.603 300.508 173.061 298.9 172.952 296.691L172.675 291.055C172.536 288.215 174.595 285.967 177.413 285.828L181.854 285.61L182.272 294.131ZM166.776 304.813C167.722 304.766 168.575 305.561 168.621 306.507C168.669 307.477 167.897 308.328 166.951 308.375C165.981 308.422 165.13 307.651 165.082 306.681C165.036 305.735 165.806 304.861 166.776 304.813ZM171.577 304.577C172.547 304.529 173.399 305.324 173.446 306.27C173.493 307.24 172.722 308.091 171.752 308.139C170.783 308.186 169.931 307.415 169.884 306.445C169.837 305.499 170.608 304.625 171.577 304.577ZM190.869 283.405C189.922 283.451 189.071 282.702 189.002 281.756C188.955 280.787 189.725 279.913 190.695 279.866C191.664 279.818 192.515 280.59 192.562 281.536C192.611 282.528 191.839 283.38 190.869 283.405ZM191.043 285.114C193.928 284.972 196.27 287.094 196.413 290.002L196.497 291.715C196.624 294.308 194.588 296.554 191.973 296.683L184.939 297.028L183.608 296.597L183.507 294.545L184.791 294.008L186.797 293.909C186.363 293.343 186.033 292.613 185.993 291.802L185.93 290.517C185.787 287.609 187.909 285.268 190.795 285.126L191.043 285.114ZM193.461 291.548L193.392 290.15C193.33 288.888 192.409 288.074 191.191 288.134L190.943 288.146C189.726 288.206 188.889 289.106 188.951 290.369L189.014 291.653C189.072 292.826 190.044 293.75 191.081 293.699L191.531 293.677C192.659 293.621 193.516 292.675 193.461 291.548ZM216.91 279.73L219.908 279.583L220.505 291.733C220.603 293.74 219.146 295.348 217.139 295.446L208.37 295.877C205.507 296.018 203.237 293.96 203.096 291.097L202.94 287.919L205.938 287.771L206.094 290.95C206.153 292.145 207.027 292.915 208.222 292.857L215.819 292.483C217.194 292.416 217.491 291.565 217.442 290.573L216.91 279.73ZM213.788 285.646L213.867 287.246L208.885 287.491L208.806 285.89L209.595 285.852C209.262 285.507 209.014 285.067 208.984 284.458C208.923 283.218 209.691 282.277 211.133 282.206C212.486 282.139 213.477 282.994 213.6 284.57L212.134 284.642C212.084 284.08 211.64 283.785 211.235 283.805C210.851 283.824 210.503 284.09 210.526 284.563C210.542 284.879 210.727 285.435 211.399 285.763L213.788 285.646ZM222.751 279.443L225.75 279.296L226.324 290.995C226.359 291.694 226.89 291.939 227.274 291.92L228.378 291.866L228.527 294.887L226.408 294.991C224.807 295.07 223.46 293.87 223.38 292.247L222.751 279.443ZM235.711 291.506L237.019 291.442L237.167 294.462L235.454 294.547C234.395 294.599 233.4 294.128 232.618 293.398C231.957 294.199 230.945 294.768 229.458 294.841L228.218 294.902L226.887 294.493L226.786 292.442L228.069 291.881L229.354 291.818C230.729 291.751 230.982 290.902 230.933 289.91L230.794 287.092L230.623 284.073L233.667 283.923L233.894 288.545C233.905 288.77 233.916 288.995 233.905 289.245L233.931 289.763C233.98 290.755 234.359 291.572 235.711 291.506ZM232.789 297.344C233.736 297.297 234.588 298.069 234.634 299.016C234.683 300.008 233.91 300.837 232.963 300.883C231.994 300.931 231.144 300.182 231.095 299.19C231.048 298.243 231.82 297.392 232.789 297.344ZM237.842 278.702L240.863 278.553L241.492 291.358C241.572 292.981 240.372 294.305 238.748 294.385L236.607 294.49L235.276 294.081L235.175 292.029L236.458 291.469L237.586 291.414C237.969 291.395 238.451 291.1 238.417 290.401L237.842 278.702ZM247.656 293.947L244.635 294.096L243.864 278.406L246.885 278.257L247.656 293.947Z" fill="#012246"/>
<path opacity="0.4" d="M294.09 337.593C291.938 348.535 282.251 356.876 271.578 360.015C260.816 363.154 249.336 361.899 238.483 359.208C227.631 356.607 217.137 352.661 206.195 350.508C165.746 342.705 124.578 359.926 83.4111 358.311C66.9083 357.683 48.5221 352.661 40.4501 338.31C36.7728 331.943 35.7863 324.678 36.145 317.503C36.4141 322.615 37.6697 327.638 40.181 332.212C47.984 345.934 65.563 350.777 81.3483 351.405C120.632 352.84 160.005 336.427 198.572 343.871C209.065 345.934 219.11 349.701 229.514 352.212C239.829 354.724 250.86 355.979 261.085 353.019C271.309 349.97 280.637 341.988 282.61 331.494C286.377 312.211 268.708 296.874 268.888 277.143C268.978 261.716 288.53 243.958 287.902 228.531C288.021 228.83 288.111 229.159 288.171 229.518C292.297 246.379 276.511 262.165 276.422 279.564C276.332 300.103 298.037 317.323 294.09 337.593Z" fill="#05BEED"/>
<path fill-rule="evenodd" clip-rule="evenodd" d="M258.035 362.796C252.116 362.796 245.658 361.899 238.304 360.105C233.73 359.029 229.155 357.594 224.761 356.338C218.662 354.544 212.294 352.661 206.016 351.405C183.055 346.921 159.378 350.688 136.507 354.365C119.107 357.056 101.169 359.926 83.411 359.208C71.1236 358.76 49.1498 355.531 39.6428 338.669C33.7233 328.355 33.7233 314.633 39.3737 296.605C43.7684 282.793 43.2303 270.775 42.1541 257.501C41.2572 247.366 41.1675 232.747 49.7776 223.06C55.6074 216.513 65.0248 212.746 76.4153 212.387C82.8729 212.208 89.3305 212.925 95.519 213.733C98.7478 214.091 101.977 214.45 105.205 214.719C127.448 216.603 149.96 212.118 171.665 207.903C175.611 207.126 179.557 206.348 183.504 205.571C209.424 200.728 236.958 197.409 262.43 205.75C270.861 208.531 285.57 215.347 289.068 229.249C291.4 238.935 287.453 248.263 283.597 257.411C280.547 264.586 277.408 271.941 277.318 279.564C277.318 288.892 281.893 297.681 286.467 306.292C291.669 316.247 297.14 326.561 294.987 337.683C292.924 348.266 283.866 357.325 271.847 360.912C267.542 362.168 262.968 362.796 258.035 362.796ZM183.414 347.549C191.127 347.549 198.751 348.176 206.285 349.611C212.742 350.867 219.11 352.75 225.209 354.634C229.604 355.89 234.178 357.235 238.663 358.311C251.936 361.54 262.251 361.809 271.309 359.208C282.7 355.8 291.31 347.279 293.193 337.414C295.256 326.92 290.234 317.234 284.852 307.099C280.278 298.309 275.525 289.251 275.525 279.475C275.614 271.582 278.843 264.048 281.893 256.694C285.839 247.456 289.516 238.756 287.274 229.697C283.955 216.065 268.35 209.607 261.892 207.454C236.779 199.203 209.514 202.521 183.863 207.365C179.916 208.082 175.97 208.83 172.024 209.607C150.14 213.912 127.538 218.396 105.116 216.513C101.797 216.244 98.5684 215.885 95.3396 215.526C89.1511 214.719 82.7831 214.002 76.5049 214.181C70.2267 214.36 58.4775 215.975 51.123 224.226C42.9613 233.374 43.0509 247.545 43.8581 257.321C45.0241 270.775 45.5622 283.062 41.0778 297.143C35.5171 314.633 35.6067 327.907 41.1675 337.862C50.226 353.827 71.572 356.966 83.5006 357.414C101.08 358.132 118.928 355.262 136.238 352.571C151.754 350.06 167.629 347.549 183.414 347.549Z" fill="#99E7FA"/>
<path d="M89.1511 337.593C90.1377 351.136 85.2048 363.783 79.1956 369.523L68.8814 374.994C60.361 375.622 53.9034 360.464 52.6477 342.168C51.3921 323.871 56.594 307.099 67.4464 295.529C75.7875 301.808 87.8954 319.297 89.1511 337.593Z" fill="#00C4F6"/>
<path d="M64.8459 298.58C55.7873 309.881 51.4822 325.397 52.6482 342.169C52.9172 345.487 53.276 348.716 53.8141 351.766C54.5316 352.065 55.279 352.304 56.0563 352.483C58.3883 353.111 61.2583 353.111 62.9624 351.317C64.3077 349.792 64.4871 347.461 63.8593 345.577C63.2315 343.425 61.7068 341.9 61.1686 339.747C60.6305 337.774 60.3614 335.532 60.0923 333.469C59.4645 328.985 59.3748 324.411 59.6439 319.836C60.182 312.572 61.9758 305.307 64.8459 298.58Z" fill="#08BAE8"/>
<path d="M46.3702 344.858C48.8815 345.337 51.2732 346.024 53.5453 346.921C57.4916 348.356 60.9895 350.24 64.1286 352.303L73.4562 374.456C67.9852 380.106 54.9803 384.142 40.8094 381.182C22.8717 377.415 8.16267 367.908 0.000976562 354.365C8.34205 347.998 28.4324 341.091 46.3702 344.858Z" fill="#00C4F6"/>
<path d="M51.9298 352.66C46.1 350.867 37.6693 347.1 31.8395 350.956C30.9426 351.584 31.122 352.84 32.1086 353.199C34.889 354.275 37.9384 354.095 40.8084 354.454C44.2166 354.723 47.7145 355.082 51.1227 355.62C53.0061 355.889 53.8133 353.288 51.9298 352.66Z" fill="#A8E1FF"/>
<path d="M21.6152 351.495C20.7184 351.764 19.7318 351.854 18.8349 352.123C17.938 352.302 17.0411 352.93 16.1442 353.289C14.0814 354.276 15.1576 357.504 17.3102 357.504C18.2968 357.504 19.3731 357.594 20.3596 357.415C21.2565 357.146 22.1534 356.966 23.0503 356.697C24.4853 356.338 25.2925 354.814 24.9337 353.379C24.4853 351.944 23.0503 351.226 21.6152 351.495Z" fill="#A8E1FF"/>
<path d="M0.000976562 354.366C8.16267 367.909 22.8717 377.416 40.8094 381.183C54.4422 384.053 66.9986 380.375 72.7387 375.084C72.3799 374.456 71.9315 374.007 71.3934 373.559C69.2408 372.034 66.2811 372.034 63.5007 372.124C55.1597 372.393 46.7289 372.662 38.3878 371.586C30.1365 370.599 21.7954 367.998 15.0687 363.065C10.943 359.926 7.35548 355.801 5.11326 351.137C3.1401 352.213 1.436 353.289 0.000976562 354.366Z" fill="#08BAE8"/>
</svg>
