<svg width="236" height="290" viewBox="0 0 236 290" fill="none" xmlns="http://www.w3.org/2000/svg">
<path d="M77.7387 170.94C40.1959 170.811 33.011 193.336 27.7033 188.093C25.1141 185.439 24.7905 181.556 26.2145 176.96C31.1339 160.843 56.896 135.857 74.6964 125.112C77.6092 123.365 80.3278 122.005 82.6581 121.099C88.5484 117.345 92.4968 168.157 77.7387 170.94Z" fill="#00C4F6"/>
<path d="M62.2679 139.613C58.902 142.072 55.6008 144.597 52.4938 147.38C49.581 149.969 46.5387 153.27 44.9205 156.895C44.5321 157.737 45.3736 158.708 46.2151 158.19C49.6457 156.377 52.688 153.529 55.4713 150.876C58.5136 148.157 61.4911 145.374 64.6628 142.784C66.4105 141.36 64.0803 138.253 62.2679 139.613Z" fill="#A8E1FF"/>
<path opacity="0.6" d="M77.7387 170.94C40.1959 170.811 33.011 193.336 27.7033 188.093C25.1141 185.439 24.7905 181.556 26.2145 176.96C28.0917 176.636 30.2924 177.025 32.2343 177.089C37.801 177.284 42.9146 174.371 47.3161 171.07C52.0413 167.574 56.3134 163.432 60.003 158.771C66.5406 150.68 71.2658 141.1 73.7902 131.003C74.1786 129.32 74.3728 127.184 74.6964 125.112C77.6092 123.365 80.3278 122.005 82.6581 121.099C88.5484 117.345 92.4968 168.157 77.7387 170.94Z" fill="#08BAE8"/>
<path d="M38.9657 161.619C38.189 162.526 37.3475 163.432 36.6355 164.403C36.0529 165.244 35.1467 166.733 36.0529 167.639C36.9591 168.545 38.1242 167.51 38.8363 166.927C39.8719 166.215 40.6487 165.05 41.4254 164.079C42.0727 163.367 42.1374 162.331 41.4254 161.619C40.8429 160.972 39.613 160.907 38.9657 161.619Z" fill="#A8E1FF"/>
<path d="M187.972 252.887C174.315 257.612 160.657 263.891 148.1 271.787C75.9916 231.914 79.2928 159.224 78.0629 120.516C77.9766 118.056 77.8687 115.726 77.7393 113.525C77.7393 113.525 91.3971 104.593 108.939 98.12C133.277 89.1874 159.945 86.8571 174.185 108.347C173.84 112.835 173.538 117.215 173.279 121.487C168.489 199.421 175.868 233.209 187.972 252.887Z" fill="#00C4F6"/>
<path d="M173.213 258.646C169.804 260.114 166.438 261.689 163.115 263.372C157.225 261.365 148.681 255.993 137.094 246.995C103.435 220.78 90.0364 160.906 90.0364 118.444C90.0364 118.444 168.488 84.979 162.209 114.107C155.607 144.594 156.837 198.902 168.164 232.949C172.177 244.859 173.99 253.468 173.213 258.646Z" fill="#A8E1FF"/>
<path opacity="0.2" d="M174.185 108.347C173.84 112.834 173.538 117.214 173.279 121.487C162.34 134.368 146.028 142.782 129.134 143.559C109.78 144.53 90.2319 135.533 78.0629 120.516C77.9766 118.056 77.8687 115.726 77.7393 113.525C77.7393 113.525 91.397 104.592 108.939 98.1195C129.134 96.566 149.653 98.4431 169.525 102.521C171.208 104.204 172.761 106.146 174.185 108.347Z" fill="#1C7FB3"/>
<path d="M151.595 202.398C151.918 206.67 152.566 210.942 153.601 215.15C154.443 218.775 155.867 223.5 158.521 226.218C159.298 227.06 160.592 226.413 160.657 225.377C160.851 221.687 159.298 217.351 158.391 213.79C157.356 209.842 156.449 205.829 155.802 201.816C155.414 199.421 151.336 199.938 151.595 202.398Z" fill="#E0F5FF"/>
<path d="M160.074 235.605C160.527 236.964 160.98 238.259 161.627 239.553C162.21 240.718 162.598 242.013 163.634 242.854C164.281 243.372 165.252 243.243 165.511 242.401C165.835 241.107 165.511 239.877 165.252 238.582C164.993 237.158 164.605 235.864 164.152 234.504C163.31 231.915 159.232 233.015 160.074 235.605Z" fill="#E0F5FF"/>
<path d="M122.013 2.38558C121.625 1.47937 120.978 0.378976 119.942 0.314247C118.842 0.249519 118.13 1.34992 117.612 2.38558C115.152 7.3697 113.21 12.548 111.786 17.9205L126.544 18.05C125.703 12.6775 124.214 7.3697 122.013 2.38558Z" fill="#00C4F6"/>
<path d="M164.669 118.317C153.277 123.818 137.936 131.327 121.042 131.392C104.407 131.392 89.2601 124.142 77.8678 118.77C55.6658 108.413 52.9472 91.0656 62.9155 77.9257C66.2167 73.5889 68.0291 68.2811 67.9643 62.7791C67.3818 35.9814 90.9431 13.391 120.913 13.3263C151.141 13.2616 174.573 36.1109 174.12 62.3908C174.055 67.9574 175.738 73.3947 179.039 77.7962C188.684 90.6773 186.418 107.701 164.669 118.317Z" fill="#00C4F6"/>
<path d="M158.558 82.6585C158.053 82.6585 157.548 82.3698 157.259 81.8646C154.084 75.5858 150.187 72.5546 145.712 72.4103C145.616 72.4103 145.544 72.4103 145.495 72.4103C141.093 72.4103 137.484 75.2971 134.67 81.215C134.381 81.9367 133.515 82.2976 132.793 81.9367C132.072 81.5759 131.711 80.7098 132.072 79.9881C135.392 72.9876 139.938 69.5234 145.495 69.5234C145.592 69.5234 145.664 69.5234 145.712 69.5234C151.341 69.6678 156.177 73.3485 159.857 80.5655C160.218 81.2872 159.929 82.1533 159.208 82.5141C159.015 82.6103 158.799 82.6585 158.558 82.6585Z" fill="black"/>
<path d="M166.029 117.667C165.555 117.883 165.102 118.098 164.67 118.314C150.559 125.175 136.772 131.325 121.043 131.389C105.379 131.389 91.5913 125.24 77.8687 118.767C77.4372 118.595 77.0057 118.379 76.5742 118.12C72.6904 112.683 72.1726 106.728 73.985 102.197C75.4738 98.4424 78.7749 95.4002 82.7881 94.6882C89.6494 93.4583 97.2874 99.2839 103.631 95.8533C109.197 92.8757 114.635 90.6749 121.108 90.7397C127.58 90.8691 133.082 92.6815 138.584 95.7885C144.798 99.2191 152.566 93.2641 159.492 94.4939C167.907 95.9827 173.02 107.051 166.029 117.667Z" fill="#A8E1FF"/>
<path d="M90.9029 65.9868C97.7155 65.9868 103.203 71.1652 103.203 77.5341C103.203 83.9029 97.7155 89.0813 90.9029 89.0813C84.1534 89.0813 78.6655 83.9029 78.6655 77.5341C78.6655 71.1652 84.1534 65.9868 90.9029 65.9868Z" fill="white"/>
<path fill-rule="evenodd" clip-rule="evenodd" d="M90.8792 89.148C87.3839 89.148 84.0827 88.5105 81.623 86.0508C79.0986 83.5263 77.6746 82.3903 77.6746 78.8302C77.6746 75.3348 79.0339 72.0336 81.5583 69.5092C84.018 66.9848 87.3191 65.6255 90.8792 65.6255C94.4393 65.6255 97.7405 66.9848 100.2 69.4445C102.725 71.9689 104.084 75.2701 104.149 78.7654C104.149 86.0798 98.2583 89.148 90.944 89.148C90.944 89.148 90.9224 89.148 90.8792 89.148ZM90.8792 66.9201C87.7075 66.9201 84.73 68.1499 82.4645 70.4154C80.199 72.6809 78.9691 75.6585 78.9691 78.8302C78.9691 82.0666 80.2637 82.879 82.5292 85.0798C84.73 87.3453 87.7075 87.8535 90.8792 87.8535C90.9224 87.8535 90.944 87.8535 90.944 87.8535C97.5463 87.8535 102.854 85.3678 102.854 78.7654C102.789 75.5937 101.559 72.6162 99.294 70.3507C97.0932 68.1499 94.0509 66.9201 90.8792 66.9201Z" fill="black"/>
<path d="M102.659 79.8028C102.659 84.9164 98.581 89.059 93.4674 89.059C88.3538 89.059 84.2112 84.9811 84.2112 79.8675C84.1465 74.754 88.2891 70.6113 93.4027 70.6113C96.1213 70.6113 98.5163 71.7117 100.199 73.5888C96.8981 75.4012 94.8268 77.9904 95.6035 79.4144C96.3802 80.7737 99.4225 80.5148 102.659 78.8966C102.659 79.1987 102.659 79.5008 102.659 79.8028Z" fill="black"/>
<path d="M98.3224 58.5069C98.3224 59.8014 92.7389 58.7696 92.7389 58.7696C92.7389 58.7696 86.9949 59.8662 86.9949 58.5069C86.9949 57.2123 89.5193 54.9468 92.6263 54.9468C95.798 54.9468 98.3224 57.2123 98.3224 58.5069Z" fill="#00B0DF"/>
<path d="M150.798 61.2627C150.798 62.5573 148.273 62.4926 145.102 62.4926C141.995 62.4926 139.47 62.6221 139.47 61.3275C139.47 59.9682 141.995 57.7026 145.102 57.7026C148.209 57.7026 150.798 59.9681 150.798 61.2627Z" fill="#00B0DF"/>
<path d="M103.307 97.7968C103.113 97.7968 102.918 97.6673 102.789 97.5378C102.595 97.2789 102.659 96.8258 102.918 96.6316C108.161 92.3595 114.764 90.0293 121.496 90.0293C121.539 90.0293 121.56 90.0293 121.56 90.0293C128.292 90.0293 134.894 92.3595 140.137 96.5669C140.461 96.7611 140.461 97.1495 140.267 97.4731C140.008 97.732 139.62 97.7967 139.361 97.5378C134.312 93.5246 128.033 91.3239 121.56 91.3239C121.56 91.3239 121.539 91.3239 121.496 91.3239C115.087 91.3239 108.744 93.5894 103.76 97.6026C103.63 97.732 103.479 97.7968 103.307 97.7968Z" fill="#00B0DF"/>
<path d="M120.265 108.8C102.594 108.8 92.1084 106.858 80.8456 96.5663C80.5866 96.3721 80.5866 95.9191 80.8456 95.6601C81.0397 95.4012 81.4929 95.4012 81.7518 95.6601C92.7557 105.758 103.177 107.57 120.977 107.506C140.784 107.441 152.565 103.687 159.167 95.3365C159.362 95.0776 159.75 95.0128 160.074 95.2717C160.333 95.4659 160.397 95.8543 160.138 96.178C151.4 107.247 134.635 108.735 120.977 108.8C120.762 108.8 120.524 108.8 120.265 108.8Z" fill="black"/>
<path d="M164.67 98.314C164.497 98.314 164.346 98.2708 164.217 98.1845C162.339 96.3721 157.226 94.495 152.824 95.7895C152.501 95.919 152.112 95.7248 151.983 95.3365C151.918 95.0128 152.112 94.6244 152.436 94.5597C157.355 93.071 162.987 95.1423 165.123 97.2136C165.382 97.4725 165.382 97.9256 165.123 98.1198C164.993 98.2493 164.799 98.314 164.67 98.314Z" fill="black"/>
<path d="M76.0559 99.8031C75.8833 99.8031 75.7323 99.7599 75.6028 99.6736C75.3439 99.4147 75.3439 99.0264 75.5381 98.7675C77.4152 96.6961 79.6807 95.2721 81.9462 94.7543C84.4059 94.107 86.9951 94.4306 89.5195 94.819C89.8431 94.8837 90.102 95.2074 90.0373 95.531C89.9726 95.9194 89.6489 96.1783 89.2606 96.1135C86.9303 95.7252 84.4706 95.4663 82.2699 95.9841C80.1985 96.5019 78.192 97.7965 76.509 99.6089C76.3796 99.7384 76.1854 99.8031 76.0559 99.8031Z" fill="black"/>
<path d="M120.978 126.536C117.872 126.536 114.829 126.018 111.916 124.918C111.593 124.788 111.399 124.4 111.528 124.076C111.658 123.753 112.046 123.558 112.37 123.688C118.13 125.889 124.733 125.759 130.429 123.364C130.753 123.235 131.141 123.429 131.27 123.753C131.4 124.076 131.206 124.465 130.882 124.594C127.775 125.889 124.344 126.536 120.978 126.536Z" fill="#00B0DF"/>
<path d="M140.914 106.34C131.011 111.712 130.622 118.25 120.978 118.703C111.398 119.091 108.679 111.583 99.4878 106.34C106.025 107.57 113.599 108.152 120.978 108.152C128.357 108.088 134.377 107.57 140.914 106.34Z" fill="#961662"/>
<path fill-rule="evenodd" clip-rule="evenodd" d="M120.265 119.35C114.374 119.35 111.009 116.373 107.19 112.942C104.924 111 102.464 108.799 99.1632 106.922C98.9043 106.728 98.7748 106.404 98.9043 106.081C98.969 105.822 99.2927 105.628 99.6163 105.692C105.766 106.858 113.145 107.505 120.977 107.505C128.55 107.44 134.44 106.922 140.784 105.692C141.043 105.628 141.366 105.757 141.496 106.081C141.625 106.404 141.496 106.728 141.172 106.858C137.224 109.058 134.829 111.389 132.693 113.46C129.651 116.502 126.997 119.091 121.042 119.35C120.783 119.35 120.524 119.35 120.265 119.35ZM102.529 107.505C104.665 108.994 106.413 110.547 108.031 111.971C111.98 115.531 115.086 118.315 120.977 118.056C126.414 117.797 128.68 115.596 131.787 112.554C133.405 111 135.152 109.253 137.612 107.57C132.434 108.411 127.256 108.735 120.977 108.799C114.374 108.799 108.096 108.346 102.529 107.505Z" fill="black"/>
<mask id="mask0_263_7530" style="mask-type:luminance" maskUnits="userSpaceOnUse" x="99" y="106" width="42" height="13">
<path d="M140.88 106.308C130.996 111.732 130.64 118.276 121.009 118.697C111.371 119.111 108.691 111.583 99.4863 106.334C106.037 107.596 113.61 108.146 120.983 108.126C128.349 108.107 134.362 107.596 140.88 106.308Z" fill="white"/>
</mask>
<g mask="url(#mask0_263_7530)">
<path d="M139.359 117.99C134.505 113.653 127.838 111.387 121.365 111.711C114.827 112.1 108.548 115.077 104.147 119.932C104.923 121.55 106.218 122.521 107.966 122.909C118.517 125.434 129.844 123.103 139.359 117.99Z" fill="#F037A5"/>
</g>
<path d="M137.095 25.2999C141.043 27.0476 144.733 29.3778 147.969 32.3553C149.458 33.7794 150.817 35.2681 152.241 36.6922C153.73 38.1809 154.831 40.2523 156.643 41.3527C157.614 41.9352 158.909 41.1585 158.844 40.0581C158.779 37.8573 157.29 35.9155 156.125 34.1678C154.766 32.0317 153.148 30.2193 151.206 28.6011C147.516 25.4294 143.374 22.9697 138.778 21.222C136.448 20.2511 134.765 24.2643 137.095 25.2999Z" fill="#A8E1FF"/>
<path d="M158.845 48.1507C159.751 50.2867 160.333 53.2643 162.275 54.753C162.793 55.1414 163.57 55.0767 163.829 54.2999C164.605 51.8402 163.052 48.9922 162.146 46.7267C161.175 44.3317 157.809 45.691 158.845 48.1507Z" fill="#A8E1FF"/>
<path d="M121.69 97.3418C123.632 97.4712 125.38 97.8596 127.192 98.3774C128.81 98.8305 130.429 99.8014 132.111 99.6073C133.212 99.4778 134.118 98.3774 133.406 97.3418C131.27 93.9759 125.25 93.7817 121.69 93.9111C119.489 94.0406 119.489 97.2123 121.69 97.3418Z" fill="#E0F5FF"/>
<path d="M219.818 196.895C213.993 201.426 209.656 178.189 172.372 173.658C166.547 171.781 164.411 162.33 165.123 152.103C165.446 147.054 166.158 141.423 167.388 135.986C168.035 132.943 168.812 130.031 169.783 127.247C170.884 124.14 172.502 122.651 173.602 123.622C189.655 132.102 219.689 167.12 222.796 186.345C223.508 190.94 222.731 194.695 219.818 196.895Z" fill="#00C4F6"/>
<path d="M190.82 153.01C193.927 155.47 196.71 158.124 199.299 161.036C200.464 162.396 201.5 163.884 202.73 165.308C203.895 166.668 205.125 168.545 206.678 169.451C207.649 169.969 209.073 169.322 209.009 168.092C208.879 166.215 207.714 164.726 206.808 163.108C205.772 161.23 204.348 159.548 202.924 157.929C200.076 154.822 196.904 152.104 193.538 149.579C191.532 148.091 188.878 151.456 190.82 153.01Z" fill="#A8E1FF"/>
<path d="M210.108 176.895C210.885 178.06 211.597 179.42 212.18 180.714C212.438 181.232 213.15 181.556 213.733 181.556C214.057 181.556 214.316 181.491 214.639 181.297C215.351 180.908 215.61 180.132 215.416 179.355C215.157 177.672 214.575 176.248 213.733 174.824C212.309 172.494 208.684 174.694 210.108 176.895Z" fill="#A8E1FF"/>
<path d="M219.818 196.896C213.993 201.427 209.656 178.189 172.372 173.658C166.547 171.781 164.411 162.33 165.123 152.103C165.187 150.55 165.123 149.773 166.352 142.523C170.689 166.861 186.354 166.861 197.034 173.787C205.708 179.354 217.035 192.17 220.919 190.941C222.278 190.552 222.472 187.769 222.796 186.345C223.508 190.941 222.731 194.695 219.818 196.896Z" fill="#08BAE8"/>
<path d="M169.007 264.669C165.511 269.265 161.433 273.278 156.967 276.708C143.827 286.677 127.062 291.272 110.233 289.201C92.3028 287 72.3016 281.951 49.9054 273.278C24.7259 263.439 51.5884 269.329 79.8102 263.115C85.7652 261.821 91.5908 260.332 97.6106 257.743C104.019 255.024 110.686 251.076 117.806 244.862C126.998 256.448 193.021 233.081 169.007 264.669Z" fill="#00C4F6"/>
<path d="M169.006 264.669C165.511 269.265 161.433 273.278 156.966 276.708C156.966 274.831 156.578 272.954 155.801 271.336C154.054 267.323 150.558 264.41 146.804 262.144C139.101 257.613 130.039 255.866 121.107 255.672C113.21 255.542 105.378 256.578 97.6101 257.743C104.018 255.024 110.685 251.076 117.806 244.862C126.997 256.448 193.02 233.081 169.006 264.669Z" fill="#08BAE8"/>
<path d="M217.294 190.554C222.731 190.554 227.133 194.955 227.133 200.393C227.133 205.765 222.731 210.167 217.294 210.167C211.857 210.167 207.455 205.765 207.455 200.393C207.455 194.955 211.857 190.554 217.294 190.554Z" fill="#B8E6FF"/>
<path fill-rule="evenodd" clip-rule="evenodd" d="M217.294 210.813C211.533 210.813 206.808 206.152 206.808 200.327C206.808 194.566 211.533 189.905 217.294 189.905C223.055 189.905 227.78 194.566 227.78 200.327C227.78 206.152 223.055 210.813 217.294 210.813ZM217.294 191.2C212.245 191.2 208.102 195.278 208.102 200.327C208.102 205.44 212.245 209.518 217.294 209.518C222.343 209.518 226.485 205.44 226.485 200.327C226.485 195.278 222.343 191.2 217.294 191.2Z" fill="#B8E6FF"/>
<path d="M231.793 263.827C229.527 266.092 225.838 266.092 223.572 263.827C221.307 261.561 221.307 257.872 223.572 255.606C225.838 253.341 229.527 253.341 231.793 255.606C234.058 257.872 234.058 261.561 231.793 263.827Z" fill="#B8E6FF"/>
<path d="M198.781 281.367C197.162 282.985 194.573 282.985 192.955 281.367C191.337 279.749 191.337 277.16 192.955 275.541C194.573 273.923 197.162 273.923 198.781 275.541C200.399 277.16 200.399 279.749 198.781 281.367Z" fill="#B8E6FF"/>
<path d="M235.354 222.463C235.354 224.729 233.477 226.541 231.211 226.541C228.946 226.541 227.133 224.729 227.133 222.463C227.133 220.198 228.946 218.321 231.211 218.321C233.477 218.321 235.354 220.198 235.354 222.463Z" fill="#B8E6FF"/>
<path fill-rule="evenodd" clip-rule="evenodd" d="M231.21 227.189C228.621 227.189 226.485 225.053 226.485 222.464C226.485 219.81 228.621 217.674 231.21 217.674C233.864 217.674 236 219.81 236 222.464C236 225.053 233.864 227.189 231.21 227.189ZM231.21 218.968C229.333 218.968 227.779 220.522 227.779 222.464C227.779 224.341 229.333 225.894 231.21 225.894C233.152 225.894 234.705 224.341 234.705 222.464C234.705 220.522 233.152 218.968 231.21 218.968Z" fill="#B8E6FF"/>
<path d="M31.0691 186.086C30.3571 177.542 30.7454 168.091 36.4416 161.683C41.0373 156.505 48.2869 154.433 55.2129 154.239C62.1389 153.98 69.0002 155.404 75.8614 155.922C94.8917 157.476 113.793 152.815 132.564 149.32C151.335 145.824 171.078 143.494 189.202 149.449C197.487 152.168 205.902 157.476 207.973 165.955C210.951 178.124 199.558 189.516 199.494 202.009C199.429 216.897 215.093 229.325 212.245 243.953C210.692 251.85 203.701 257.87 195.998 260.136C188.231 262.401 179.945 261.495 172.113 259.553C164.281 257.676 156.708 254.828 148.811 253.274C119.618 247.643 89.9076 260.071 60.1971 258.906C48.2869 258.517 35.0175 254.828 29.1919 244.471C24.0136 235.409 26.0202 224.017 29.0625 214.567C32.1694 204.792 31.9105 196.378 31.0691 186.086Z" fill="white"/>
<path d="M100.318 180.387L100.404 182.131L98.3183 182.234C98.2557 184.994 96.2143 187.095 93.4097 187.233L93.3198 187.237C90.3714 187.382 88.0703 185.296 87.9245 182.33L87.7479 178.734L89.4738 178.649L89.6504 182.245C89.7502 184.277 91.2206 185.592 93.2341 185.493L93.324 185.489C95.3196 185.391 96.6719 183.936 96.5721 181.905L95.9776 169.806L97.7215 169.72L98.2506 180.489L100.318 180.387ZM106.399 180.089L107.819 180.019L107.905 181.763L106.251 181.844C105.442 181.884 104.703 181.505 104.152 180.938C103.696 181.555 102.997 182.004 101.918 182.057L100.318 182.135L99.5489 181.885L99.4915 180.716L100.232 180.391L101.85 180.312C102.893 180.261 103.22 179.578 103.179 178.751L102.921 173.483L104.665 173.398L104.892 178.036C104.9 178.18 104.907 178.324 104.897 178.486L104.905 178.666C104.946 179.493 105.374 180.139 106.399 180.089ZM102.396 183.709C102.989 183.68 103.498 184.142 103.527 184.717C103.556 185.31 103.094 185.82 102.501 185.849C101.926 185.877 101.398 185.416 101.369 184.823C101.341 184.248 101.821 183.738 102.396 183.709ZM105.614 183.551C106.207 183.522 106.717 183.984 106.745 184.559C106.774 185.152 106.312 185.661 105.719 185.691C105.144 185.719 104.617 185.258 104.587 184.665C104.559 184.09 105.039 183.579 105.614 183.551ZM116.506 179.592L118.861 179.476L118.947 181.22L115.531 181.388C114.686 181.429 113.844 181.164 113.215 180.457C112.478 181.232 111.594 181.581 110.839 181.618L107.692 181.773L107.692 181.755L106.959 181.521L106.902 180.352L107.609 180.065L107.607 180.029L110.339 179.895C110.699 179.877 111.679 179.649 112.042 179.325L108.6 174.934L108.535 173.604C110.049 172.881 111.508 172.503 112.946 172.432C115.356 172.314 117.003 173.206 117.084 174.842C117.099 175.148 117.046 175.547 116.94 175.948C116.524 177.392 115.736 178.224 114.794 179.226C115.276 179.49 115.877 179.623 116.506 179.592ZM113.315 178.469C114.014 177.66 114.646 176.944 114.985 175.774C115.079 175.481 115.106 175.299 115.095 175.084C115.061 174.383 114.392 173.983 112.972 174.053C112.145 174.093 111.219 174.319 110.409 174.701L110.414 174.809L113.315 178.469ZM123.462 170.365C122.887 170.394 122.36 169.933 122.331 169.34C122.302 168.764 122.781 168.236 123.356 168.208C123.95 168.179 124.46 168.658 124.488 169.234C124.517 169.827 124.056 170.336 123.462 170.365ZM126.99 179.077L129.327 178.962L129.413 180.706L118.59 181.238L117.821 180.987L117.763 179.819L118.505 179.512L118.504 179.494L121.021 179.37C120.458 178.911 120.061 178.174 120.021 177.347L119.947 175.855C119.84 173.679 121.252 171.97 123.643 171.852C126.035 171.735 127.604 173.244 127.714 175.473L127.787 176.965C127.828 177.792 127.505 178.565 126.99 179.077ZM126.061 177.05L125.988 175.558C125.928 174.335 125.113 173.528 123.765 173.595C122.327 173.665 121.611 174.493 121.673 175.77L121.747 177.262C121.802 178.395 122.837 179.281 123.97 179.225C125.372 179.156 126.117 178.183 126.061 177.05ZM130.517 170.83C129.924 170.859 129.415 170.397 129.386 169.804C129.357 169.229 129.819 168.72 130.412 168.69C130.988 168.662 131.497 169.124 131.525 169.699C131.554 170.292 131.093 170.802 130.517 170.83ZM133.736 170.672C133.16 170.7 132.633 170.239 132.604 169.646C132.576 169.071 133.055 168.561 133.63 168.532C134.224 168.503 134.733 168.965 134.761 169.54C134.79 170.133 134.329 170.643 133.736 170.672ZM129.021 180.725L128.936 178.981L131.381 178.861C131.776 178.842 132.176 178.552 132.148 177.976L131.857 172.044L133.583 171.959L133.903 178.485C133.959 179.618 133.138 180.523 132.006 180.579L129.021 180.725ZM151.808 177.858L152.329 177.832L152.415 179.576L151.894 179.601C150.923 179.649 150.092 179.239 149.589 178.543C149.022 179.472 147.988 180.082 146.748 180.143C145.292 180.214 144.229 179.87 143.359 179.03C142.428 179.147 141.919 179.803 141.963 180.684L142.161 184.729L140.436 184.814L140.237 180.769C140.155 179.097 141.188 177.749 142.739 177.402L142.625 174.722C142.517 172.529 144.072 170.795 146.283 170.686C148.495 170.577 150.211 172.133 150.32 174.344L150.43 176.592C150.469 177.383 151.035 177.896 151.808 177.858ZM146.662 178.399C147.921 178.337 148.741 177.432 148.679 176.173L148.594 174.429C148.533 173.189 147.627 172.35 146.368 172.412C145.11 172.474 144.29 173.397 144.351 174.638L144.502 177.712C145.016 178.263 145.619 178.45 146.662 178.399ZM153.693 169.691C153.099 169.72 152.59 169.259 152.561 168.666C152.533 168.09 152.994 167.581 153.588 167.552C154.163 167.524 154.672 167.985 154.7 168.56C154.729 169.154 154.268 169.663 153.693 169.691ZM156.911 169.533C156.335 169.561 155.808 169.101 155.779 168.507C155.751 167.932 156.23 167.422 156.806 167.394C157.399 167.365 157.908 167.826 157.936 168.401C157.966 168.995 157.504 169.504 156.911 169.533ZM152.196 179.587L152.111 177.843L154.556 177.723C154.951 177.703 155.352 177.413 155.323 176.838L155.032 170.905L156.758 170.82L157.078 177.346C157.134 178.479 156.313 179.384 155.181 179.44L152.196 179.587ZM67.6841 205.11L66.2098 205.183L65.6544 196.812L67.4163 196.725L67.6841 205.11ZM67.1333 208.94C66.576 208.967 66.1045 208.54 66.0771 207.983C66.0497 207.425 66.4771 206.954 67.0344 206.927C67.5738 206.9 68.0633 207.326 68.0907 207.884C68.118 208.441 67.6727 208.914 67.1333 208.94ZM75.0362 208.408C73.49 208.484 72.4186 209.419 72.4955 210.983C72.613 213.375 76.1744 214.335 79.1995 212.817L79.279 214.435C75.4328 216.48 70.9344 214.791 70.7516 211.069C70.6271 208.534 72.4335 206.787 74.9325 206.665L80.5777 206.387C79.9379 206.202 79.4283 205.002 78.8693 203.894C77.3607 201.067 75.2877 200.322 72.893 201.466L72.8152 199.884C75.8672 198.545 78.8468 199.768 80.8048 203.673C82.0286 206.208 82.0655 206.224 82.8789 206.274L82.9646 208.018L75.0362 208.408ZM84.7374 195.388L86.4813 195.302L86.9689 205.226C86.9972 205.802 87.4059 206.052 87.8194 206.031L88.8802 205.979L88.9658 207.723L87.3658 207.802C86.2331 207.858 85.3098 207.038 85.2542 205.905L84.7374 195.388ZM99.3209 205.466L100.561 205.405L100.647 207.149L88.7994 207.731L88.0302 207.481L87.9728 206.312L88.7137 205.988L96.75 205.593C96.4123 205.321 95.9458 204.263 95.3697 203.174C93.808 200.367 91.9805 199.483 89.353 200.658L89.2752 199.076C92.3092 197.737 95.2708 198.961 97.2468 202.865C98.4707 205.4 98.832 205.418 99.3209 205.466ZM94.0154 208.989C94.5907 208.961 95.1008 209.44 95.1291 210.016C95.1583 210.609 94.6967 211.118 94.1214 211.146C93.5281 211.176 93.0188 210.714 92.9897 210.121C92.9614 209.545 93.4221 209.018 94.0154 208.989ZM102.878 197.074C102.285 197.103 101.775 196.641 101.746 196.048C101.718 195.473 102.179 194.946 102.772 194.916C103.347 194.888 103.857 195.368 103.886 195.943C103.915 196.536 103.453 197.045 102.878 197.074ZM105.726 205.152L106.319 205.123L106.405 206.866L105.578 206.907C104.751 206.948 104.011 206.57 103.461 206.002C103.022 206.618 102.324 207.067 101.245 207.12L100.562 207.154L99.7925 206.903L99.7351 205.734L100.476 205.41L101.177 205.375C102.184 205.326 102.53 204.66 102.508 203.85L102.229 198.547L103.973 198.462L104.232 203.729C104.273 204.556 104.701 205.202 105.726 205.152ZM105.947 206.889L105.861 205.145L107.641 205.058C108.036 205.038 108.437 204.748 108.408 204.173L108.117 198.24L109.843 198.155L110.163 204.681C110.219 205.814 109.398 206.719 108.266 206.775L105.947 206.889ZM108.758 210.914C108.164 210.943 107.655 210.481 107.626 209.888C107.598 209.313 108.059 208.804 108.652 208.774C109.228 208.746 109.737 209.208 109.765 209.783C109.794 210.376 109.333 210.886 108.758 210.914ZM130.531 203.933L131.466 203.887L131.552 205.631L130.401 205.688C129.574 205.728 128.834 205.35 128.284 204.782C127.828 205.399 127.129 205.848 126.05 205.901L119.524 206.222C117.385 206.327 115.687 204.788 115.582 202.649L115.441 199.773L117.185 199.687L117.326 202.563C117.384 203.75 118.252 204.536 119.438 204.478L125.965 204.157C127.007 204.106 127.352 203.422 127.311 202.595L126.856 193.319L128.6 193.233L129.024 201.881C129.032 202.024 129.039 202.168 129.029 202.331L129.037 202.511C129.078 203.338 129.506 203.983 130.531 203.933ZM123.756 198.463L123.805 199.452L120.191 199.629L120.143 198.64L120.79 198.609C120.507 198.352 120.327 197.983 120.302 197.479C120.254 196.508 120.815 195.814 121.84 195.764C122.757 195.719 123.541 196.275 123.615 197.425L122.698 197.47C122.674 196.966 122.267 196.752 121.907 196.77C121.548 196.787 121.234 197.001 121.26 197.54C121.278 197.9 121.424 198.307 121.941 198.552L123.756 198.463ZM134.665 198.179L138.907 197.953C140.615 197.869 142.067 199.185 142.151 200.893L142.207 202.026C142.29 203.716 140.975 205.186 139.267 205.27L131.482 205.652L130.713 205.402L130.655 204.215L131.396 203.909L139.001 203.535C139.846 203.493 140.496 202.777 140.454 201.932L140.415 201.141C140.375 200.314 139.658 199.664 138.813 199.706L132.449 200.018L132.233 199.29L135.361 192.901L136.756 193.409L134.665 198.179ZM146.51 204.896L144.767 204.982L144.152 192.469L145.896 192.383L146.51 204.896ZM153.242 202.817L153.327 204.561L151.601 204.646L151.616 204.952C151.722 207.091 150.201 208.788 148.062 208.893L147.145 208.938L147.059 207.194L147.976 207.149C149.144 207.091 149.949 206.223 149.891 205.036L149.452 196.101L151.177 196.016L151.516 202.902L153.242 202.817ZM154.886 194.501C154.293 194.53 153.783 194.068 153.754 193.475C153.726 192.9 154.187 192.372 154.78 192.343C155.355 192.315 155.865 192.794 155.894 193.37C155.923 193.963 155.461 194.472 154.886 194.501ZM158.104 194.342C157.529 194.371 157.002 193.91 156.972 193.317C156.944 192.741 157.423 192.213 157.998 192.185C158.591 192.156 159.102 192.635 159.13 193.211C159.159 193.804 158.697 194.313 158.104 194.342ZM159.119 202.529L161.007 202.436L161.092 204.18L158.971 204.284C158.144 204.325 157.405 203.946 156.854 203.379C156.416 203.995 155.717 204.444 154.638 204.497L153.092 204.573L152.323 204.322L152.265 203.154L153.006 202.829L154.571 202.752C155.577 202.703 155.923 202.037 155.901 201.227L155.623 195.924L157.367 195.838L157.625 201.106C157.666 201.933 158.094 202.579 159.119 202.529ZM167.993 191.838C167.418 191.866 166.891 191.406 166.862 190.812C166.833 190.237 167.312 189.709 167.887 189.681C168.481 189.652 168.991 190.131 169.019 190.706C169.048 191.3 168.587 191.809 167.993 191.838ZM166.531 194.361C165.938 194.39 165.429 193.929 165.4 193.335C165.371 192.76 165.832 192.233 166.425 192.204C167.001 192.175 167.511 192.655 167.539 193.23C167.568 193.823 167.107 194.333 166.531 194.361ZM169.678 194.206C169.084 194.236 168.575 193.774 168.546 193.181C168.518 192.605 168.978 192.078 169.572 192.049C170.147 192.021 170.657 192.5 170.685 193.076C170.715 193.669 170.253 194.178 169.678 194.206ZM172.275 194.619L174.001 194.535L174.286 200.342C174.372 202.086 173.022 203.594 171.26 203.68C170.128 203.736 169.282 203.399 168.732 202.831C168.189 203.525 167.252 203.895 166.335 203.94C165.382 203.987 164.557 203.685 163.967 203.065C163.475 203.684 162.703 204.101 161.822 204.144L160.941 204.187L160.855 202.443L161.79 202.397C162.527 202.361 163.04 201.795 163.005 201.076L162.799 196.887L164.525 196.802L164.731 200.991C164.77 201.782 165.297 202.243 166.268 202.213C167.204 202.185 167.808 201.633 167.769 200.842L167.563 196.653L169.307 196.567L169.513 200.756C169.551 201.529 170.15 201.987 171.175 201.936C171.984 201.896 172.599 201.217 172.56 200.426L172.275 194.619ZM160.923 204.188L160.154 203.937L160.096 202.769L160.837 202.444L160.923 204.188ZM178.921 203.304L177.177 203.389L176.562 190.877L178.306 190.791L178.921 203.304ZM85.8454 233.908L84.1015 233.994L83.4868 221.481L85.2307 221.395L85.8454 233.908ZM89.3077 220.576L92.5736 219.19L92.6081 219.891L89.3421 221.277L89.3077 220.576ZM89.3775 221.996L92.6434 220.61L92.6778 221.311L89.4119 222.697L89.3775 221.996ZM95.272 231.697L97.2316 231.6L97.3173 233.344L88.0944 233.797L88.0087 232.054L93.5281 231.782L93.3594 228.349C93.2958 227.054 92.3527 226.199 91.0762 226.262L88.6132 226.383L88.5284 224.657L90.9914 224.536C93.2207 224.427 94.9928 226.016 95.1033 228.263L95.272 231.697ZM103.213 231.307L104.633 231.237L104.719 232.981L103.065 233.062C102.256 233.102 101.517 232.724 100.966 232.156C100.51 232.773 99.8111 233.222 98.7324 233.275L97.1323 233.353L96.3631 233.103L96.3057 231.934L97.0466 231.61L98.6647 231.53C99.7074 231.479 100.034 230.796 99.9937 229.969L99.7349 224.701L101.479 224.616L101.707 229.254C101.714 229.398 101.721 229.542 101.711 229.704L101.72 229.884C101.76 230.711 102.188 231.357 103.213 231.307ZM99.21 234.927C99.8033 234.898 100.313 235.36 100.341 235.935C100.37 236.528 99.9084 237.038 99.3151 237.067C98.7398 237.095 98.2126 236.634 98.1834 236.041C98.1552 235.466 98.6347 234.956 99.21 234.927ZM102.428 234.769C103.021 234.74 103.531 235.202 103.559 235.777C103.588 236.37 103.127 236.88 102.533 236.909C101.958 236.937 101.431 236.476 101.402 235.883C101.373 235.308 101.853 234.798 102.428 234.769ZM112.972 228.124C114.196 230.659 114.557 230.677 115.046 230.725L115.132 232.469L104.525 232.99L103.755 232.74L103.698 231.571L104.439 231.246L112.475 230.851C112.138 230.58 111.671 229.521 111.095 228.432C109.533 225.626 107.706 224.742 105.078 225.917L105 224.334C108.034 222.996 110.996 224.22 112.972 228.124ZM109.525 234.258C110.118 234.229 110.628 234.709 110.657 235.284C110.686 235.877 110.224 236.387 109.631 236.416C109.056 236.444 108.528 235.983 108.499 235.39C108.471 234.815 108.95 234.287 109.525 234.258ZM138.377 222.605L140.121 222.519L140.391 228.002C140.478 229.782 139.11 231.291 137.331 231.378C136.288 231.43 135.426 231.13 134.805 230.601C134.293 231.185 133.555 231.564 132.71 231.605L130.966 231.691C130.902 234.416 128.826 236.554 126.076 236.689L125.968 236.694C123.073 236.837 120.716 234.7 120.572 231.787L120.395 228.174L122.121 228.089L122.298 231.702C122.397 233.716 123.868 235.049 125.882 234.951L125.972 234.946C127.986 234.847 129.337 233.375 129.238 231.362L128.905 224.584L130.631 224.499L130.899 229.946L132.571 229.864C133.344 229.826 133.874 229.242 133.836 228.486L133.633 224.351L135.359 224.267L135.565 228.456C135.603 229.229 136.202 229.686 137.245 229.635C138.054 229.595 138.686 228.897 138.647 228.088L138.377 222.605ZM141.479 235.248L141.394 233.504L142.292 233.459C143.479 233.401 144.265 232.534 144.207 231.347L143.768 222.412L145.512 222.326L145.951 231.261C146.056 233.401 144.518 235.098 142.378 235.203L141.479 235.248ZM148.034 230.853L147.948 229.109L151.454 228.936C152.569 228.882 153.423 227.939 153.369 226.824L153.299 225.404C153.24 224.199 152.22 223.258 151.016 223.317L148.786 223.427L148.702 221.701L150.931 221.591C153.088 221.485 154.937 223.161 155.043 225.318L155.127 227.044C155.221 228.95 153.751 230.572 151.845 230.665L148.034 230.853ZM157.852 215.484L159.631 215.397L159.68 216.386L156.066 216.563L156.018 215.574L156.683 215.542C156.4 215.285 156.183 214.9 156.158 214.396C156.11 213.407 156.672 212.749 157.679 212.699C158.65 212.652 159.325 213.195 159.491 214.377L158.592 214.421C158.477 213.904 158.177 213.666 157.745 213.687C157.314 213.709 157.091 213.936 157.115 214.439C157.133 214.799 157.317 215.24 157.852 215.484ZM157.7 230.378L157.085 217.865L158.829 217.779L159.444 230.292L157.7 230.378Z" fill="#012246"/>
<path opacity="0.4" d="M212.246 243.953C210.692 251.85 203.702 257.87 195.999 260.136C188.232 262.401 179.946 261.495 172.114 259.553C164.282 257.676 156.709 254.828 148.812 253.274C119.619 247.643 89.9085 260.071 60.1979 258.906C48.2878 258.453 35.0184 254.828 29.1928 244.471C26.5389 239.875 25.8269 234.632 26.0858 229.454C26.28 233.144 27.1862 236.769 28.9986 240.07C34.63 249.973 47.3169 253.469 58.7092 253.922C87.0604 254.957 115.476 243.112 143.31 248.484C150.883 249.973 158.133 252.692 165.641 254.504C173.085 256.317 181.047 257.223 188.426 255.087C195.805 252.886 202.537 247.125 203.961 239.552C206.679 225.635 193.928 214.567 194.057 200.326C194.122 189.193 208.233 176.377 207.78 165.243C207.866 165.459 207.931 165.696 207.974 165.955C210.951 178.124 199.559 189.516 199.494 202.074C199.43 216.897 215.094 229.325 212.246 243.953Z" fill="#05BEED"/>
<path fill-rule="evenodd" clip-rule="evenodd" d="M186.225 262.142C181.953 262.142 177.292 261.495 171.985 260.2C168.683 259.424 165.382 258.388 162.21 257.482C157.809 256.187 153.213 254.828 148.682 253.922C132.112 250.685 115.023 253.404 98.5173 256.058C85.9599 258 73.0141 260.071 60.1978 259.553C51.33 259.23 35.4714 256.899 28.6101 244.73C24.338 237.286 24.338 227.383 28.4159 214.372C31.5876 204.404 31.1993 195.731 30.4225 186.151C29.7752 178.836 29.7105 168.286 35.9245 161.295C40.1319 156.57 46.9284 153.851 55.149 153.592C59.8094 153.463 64.4699 153.98 68.9362 154.563C71.2664 154.822 73.5967 155.081 75.9269 155.275C91.9797 156.634 108.227 153.398 123.891 150.356C126.739 149.795 129.587 149.234 132.435 148.673C151.142 145.177 171.014 142.782 189.397 148.802C195.481 150.809 206.097 155.728 208.621 165.761C210.304 172.752 207.456 179.484 204.673 186.086C202.472 191.264 200.206 196.572 200.142 202.074C200.142 208.806 203.443 215.149 206.744 221.363C210.498 228.548 214.447 235.992 212.893 244.018C211.404 251.656 204.867 258.194 196.193 260.783C193.086 261.689 189.785 262.142 186.225 262.142ZM132.37 251.138C137.937 251.138 143.439 251.592 148.876 252.627C153.537 253.533 158.133 254.893 162.534 256.252C165.706 257.158 169.007 258.129 172.243 258.906C181.823 261.236 189.267 261.43 195.805 259.553C204.025 257.093 210.239 250.944 211.599 243.824C213.087 236.251 209.463 229.26 205.579 221.946C202.278 215.602 198.847 209.065 198.847 202.009C198.912 196.313 201.242 190.876 203.443 185.568C206.291 178.901 208.945 172.622 207.326 166.085C204.932 156.246 193.669 151.586 189.008 150.032C170.884 144.077 151.207 146.472 132.694 149.967C129.846 150.485 126.998 151.025 124.15 151.585C108.356 154.692 92.0444 157.929 75.8622 156.57C73.4672 156.375 71.137 156.117 68.8067 155.858C64.3404 155.275 59.7447 154.757 55.2137 154.887C50.6827 155.016 42.2032 156.181 36.8954 162.136C31.0051 168.739 31.0698 178.966 31.6524 186.021C32.4938 195.731 32.8822 204.598 29.6458 214.761C25.6326 227.383 25.6973 236.963 29.7105 244.148C36.2481 255.669 51.6536 257.935 60.2625 258.259C72.9494 258.776 85.8304 256.705 98.3231 254.763C109.521 252.951 120.978 251.138 132.37 251.138Z" fill="#99E7FA"/>
<path d="M64.3401 243.954C65.0521 253.728 61.492 262.855 57.1552 266.997L49.7114 270.946C43.5622 271.399 38.9017 260.46 37.9955 247.255C37.0893 234.051 40.8436 221.946 48.6757 213.596C54.6955 218.127 63.4339 230.749 64.3401 243.954Z" fill="#00C4F6"/>
<path d="M46.7996 215.798C40.262 223.954 37.155 235.152 37.9965 247.256C38.1906 249.651 38.4496 251.981 38.8379 254.182C39.3558 254.398 39.8952 254.57 40.4561 254.7C42.1391 255.153 44.2104 255.153 45.4403 253.858C46.4112 252.758 46.5407 251.075 46.0876 249.716C45.6345 248.162 44.5341 247.062 44.1457 245.508C43.7573 244.084 43.5631 242.466 43.3689 240.977C42.9158 237.741 42.8511 234.44 43.0453 231.139C43.4337 225.896 44.7282 220.653 46.7996 215.798Z" fill="#08BAE8"/>
<path d="M33.4651 249.197C35.2775 249.542 37.0036 250.039 38.6434 250.686C41.4914 251.722 44.0159 253.081 46.2814 254.57L53.0131 270.558C49.0647 274.635 39.679 277.548 29.4519 275.412C16.5061 272.694 5.89057 265.832 0.000244141 256.058C6.02003 251.463 20.5193 246.478 33.4651 249.197Z" fill="#00C4F6"/>
<path d="M37.4777 254.827C33.2703 253.533 27.1858 250.814 22.9784 253.598C22.3311 254.051 22.4606 254.957 23.1726 255.216C25.1792 255.993 27.38 255.863 29.4513 256.122C31.911 256.316 34.4354 256.575 36.8951 256.963C38.2544 257.158 38.837 255.281 37.4777 254.827Z" fill="#A8E1FF"/>
<path d="M15.5998 253.987C14.9525 254.181 14.2405 254.246 13.5932 254.44C12.9459 254.57 12.2987 255.023 11.6514 255.282C10.1626 255.994 10.9393 258.324 12.4928 258.324C13.2049 258.324 13.9816 258.389 14.6936 258.259C15.3409 258.065 15.9882 257.935 16.6355 257.741C17.6712 257.482 18.2537 256.382 17.9948 255.346C17.6711 254.311 16.6355 253.793 15.5998 253.987Z" fill="#A8E1FF"/>
<path d="M0.000244141 256.059C5.89057 265.833 16.5061 272.694 29.4519 275.413C39.2907 277.484 48.3527 274.83 52.4953 271.011C52.2364 270.558 51.9128 270.234 51.5244 269.911C49.9709 268.81 47.8349 268.81 45.8283 268.875C39.8085 269.069 33.724 269.263 27.7042 268.487C21.7491 267.775 15.7293 265.898 10.8747 262.337C7.89716 260.072 5.30802 257.094 3.6898 253.729C2.26576 254.505 1.03591 255.282 0.000244141 256.059Z" fill="#08BAE8"/>
</svg>
