<svg width="193" height="185" viewBox="0 0 193 185" fill="none" xmlns="http://www.w3.org/2000/svg">
<path d="M60.2229 108.285C61.7245 99.0181 70.5191 92.7117 79.8286 94.2133C89.138 95.7577 95.4444 104.552 93.9 113.819C92.3556 123.128 83.6039 129.435 74.2944 127.89C64.9849 126.389 58.6785 117.594 60.2229 108.285Z" fill="#B8E6FF"/>
<path d="M29.5484 117.337C33.5811 117.337 36.8845 120.64 36.8845 124.673C36.8845 128.706 33.5811 131.966 29.5484 131.966C25.5157 131.966 22.2124 128.706 22.2124 124.673C22.2124 120.64 25.5157 117.337 29.5484 117.337Z" fill="#B8E6FF"/>
<path d="M42.4629 169.506C42.9348 167.533 44.8653 166.332 46.8387 166.804C48.8122 167.276 50.0134 169.206 49.5415 171.18C49.1125 173.153 47.139 174.354 45.1656 173.882C43.1922 173.453 41.991 171.48 42.4629 169.506Z" fill="#B8E6FF"/>
<path d="M45.6775 126.221C52.8419 119.057 64.468 119.057 71.6754 126.221C78.8398 133.385 78.8398 145.012 71.6754 152.176C64.468 159.383 52.8419 159.383 45.6775 152.176C38.5131 145.012 38.5131 133.385 45.6775 126.221Z" fill="#B8E6FF"/>
<path d="M101.235 146.983C103.595 137.159 113.505 131.067 123.372 133.469C133.239 135.829 139.288 145.739 136.929 155.606C134.526 165.473 124.616 171.522 114.749 169.163C104.925 166.76 98.8329 156.85 101.235 146.983Z" fill="#B8E6FF"/>
<path d="M88.4521 129.607C103.639 129.607 115.951 141.92 115.951 157.107C115.951 172.294 103.639 184.606 88.4521 184.606C73.3081 184.606 60.9956 172.294 60.9956 157.107C60.9956 141.92 73.3081 129.607 88.4521 129.607Z" fill="#B8E6FF"/>
<path d="M63.3978 82.2459C41.1323 79.7577 38.4296 65.9007 34.9546 68.6464C33.1957 70.0192 32.7667 72.293 33.2815 75.1244C35.0833 85.0345 48.5971 101.594 58.4642 109.23C60.0516 110.475 65.3283 114.379 66.6583 115.065C69.8758 117.725 71.9351 84.9487 63.3978 82.2459Z" fill="#00C4F6"/>
<path d="M61.467 100.008C48.8541 95.1176 36.8419 85.3791 33.1525 71.9512C33.0238 72.895 33.0667 73.9675 33.2812 75.1258C35.083 85.0359 48.5967 101.596 58.4639 109.232C60.0512 110.476 65.328 114.38 66.6579 115.066C68.2453 116.353 69.5323 109.232 69.4465 101.295C66.7437 101.467 64.041 101.081 61.467 100.008Z" fill="#07BFEE"/>
<path d="M59.4938 83.7494C57.1343 83.063 54.8606 82.2479 52.5439 81.3899C50.3989 80.6176 48.0822 79.8025 45.8514 79.588C45.3366 79.5022 45.0792 80.2315 45.4224 80.5318C48.9402 83.7923 54.3029 84.9935 58.8503 86.066C60.309 86.4093 60.9954 84.1784 59.4938 83.7494Z" fill="#A8E1FF"/>
<path d="M42.3754 76.4966C41.8606 76.1105 41.3887 75.7244 40.8739 75.3383C40.4448 75.038 39.7155 74.609 39.1578 74.8235C38.8718 74.9379 38.7145 75.1381 38.6859 75.4241C38.643 76.0247 39.2007 76.6253 39.5868 76.9685C40.1016 77.3546 40.5736 77.7408 41.0884 78.1269C41.5603 78.513 42.2038 78.5559 42.6328 78.0411C43.0618 77.4833 42.8473 76.8827 42.3754 76.4966Z" fill="#A8E1FF"/>
<path d="M127.62 184.436C71.0765 183.75 65.5423 115.881 63.6118 81.9034C63.3973 78.2139 63.2257 74.8676 63.0541 72.0791C63.0255 71.8217 62.9969 71.55 62.9683 71.264C62.9683 71.264 63.0827 71.2354 63.3115 71.1782C64.0837 70.8779 66.1858 70.1915 69.146 69.4193C81.4156 66.2446 108.872 61.6971 121.27 80.0157C121.185 81.3028 121.099 82.5755 121.013 83.8339C120.784 87.2374 120.584 90.5264 120.412 93.7011C116.809 155.907 120.713 175.556 156.792 163.672C173.18 158.267 150.357 184.736 127.62 184.436Z" fill="#00C4F6"/>
<path d="M70.2615 76.0676C69.2747 102.752 75.5382 148.484 96.9028 164.872C118.267 181.217 124.96 175.34 115.35 156.292C105.397 136.515 110.502 100.907 114.149 83.4894C117.753 66.0717 70.2615 76.0676 70.2615 76.0676Z" fill="#A8E1FF"/>
<path opacity="0.2" d="M121.012 83.8346C120.783 87.238 120.583 90.5271 120.412 93.7017C112.303 100.48 101.278 103.741 90.81 102.067C79.2268 100.223 68.8019 92.4147 63.6109 81.904C63.3964 78.2146 63.2248 74.8683 63.0532 72.0797C63.139 71.7937 63.2248 71.4934 63.3106 71.1788C64.0828 70.8785 66.185 70.1921 69.1451 69.4199C69.7028 70.9214 70.3034 72.1656 71.1186 72.1656C87.8069 72.0798 104.281 76.4556 119.554 83.1052C120.04 83.334 120.526 83.5772 121.012 83.8346Z" fill="#1C7FB3"/>
<path d="M104.11 136.214C104.367 138.745 104.71 141.32 105.397 143.808C105.955 145.996 106.77 148.827 108.443 150.414C108.915 150.929 109.687 150.543 109.73 149.9C109.858 147.669 108.915 145.138 108.357 142.993C107.756 140.633 107.156 138.231 106.727 135.828C106.469 134.37 103.981 134.713 104.11 136.214Z" fill="#E0F5FF"/>
<path d="M109.343 155.993C109.643 156.851 109.943 157.666 110.372 158.481C110.715 159.253 111.016 159.939 111.702 160.454C112.045 160.712 112.56 160.411 112.689 160.025C112.903 159.253 112.689 158.524 112.56 157.751C112.389 156.893 112.174 156.121 111.874 155.306C111.359 153.719 108.828 154.405 109.343 155.993Z" fill="#E0F5FF"/>
<path d="M158.379 163.374C156.105 160.585 154.604 154.922 155.676 149.173C157.135 141.408 163.184 134.544 167.088 132.271C171.121 137.762 172.536 145.184 171.078 152.949C169.619 160.714 166.144 166.891 162.498 166.205L158.379 163.374Z" fill="#00C4F6"/>
<path d="M165.672 156.722C167.088 155.992 168.718 155.349 170.477 154.92C171.507 154.662 172.565 154.491 173.652 154.405C181.503 153.676 189.782 157.623 193 160.754C188.839 166.16 182.06 169.506 174.209 170.235C168.032 170.793 162.669 168.434 160.61 165.731L165.672 156.722Z" fill="#00C4F6"/>
<path d="M170.992 158.824C172.45 158.738 173.909 158.781 175.41 158.824C176.74 158.824 178.07 159.038 179.4 158.695C179.743 158.566 179.958 158.051 179.615 157.751C177.298 155.735 173.48 156.936 170.777 157.451C170.048 157.622 170.219 158.824 170.992 158.824Z" fill="#A8E1FF"/>
<path d="M183.13 160.714C183.816 160.971 184.503 161.357 185.232 161.185C185.032 161.185 184.832 161.185 184.631 161.185C184.86 161.214 185.089 161.243 185.318 161.271C185.79 161.314 186.305 161.185 186.476 160.671C186.691 160.242 186.519 159.684 186.09 159.427C185.704 159.212 185.361 158.912 184.932 158.783C184.56 158.64 184.174 158.511 183.773 158.397C183.173 158.182 182.486 158.654 182.315 159.255C182.1 159.898 182.529 160.499 183.13 160.714Z" fill="#A8E1FF"/>
<path d="M151.044 104.167C144.995 110.903 134.141 116.823 122.944 119.14C122.086 119.311 121.257 119.454 120.456 119.569C120.256 119.626 120.056 119.669 119.855 119.697C119.655 119.726 119.469 119.74 119.298 119.74C119.097 119.769 118.897 119.797 118.697 119.826C118.525 119.855 118.354 119.869 118.182 119.869C117.839 119.898 117.496 119.926 117.153 119.955C116.981 119.983 116.809 119.998 116.638 119.998C115.894 120.026 115.193 120.026 114.536 119.998C113.678 120.126 113.42 118.925 113.935 117.038C114.064 116.651 114.321 115.751 114.664 114.635C115.737 110.989 113.592 105.24 114.707 103.223C117.753 97.9467 116.938 95.1153 120.284 95.9304C139.118 104.768 151.945 94.0856 153.146 98.0754C153.79 100.049 152.932 102.108 151.044 104.167Z" fill="#00C4F6"/>
<path d="M150.572 105.411C142.55 112.833 130.237 118.324 119.298 119.74C117.753 119.954 116.08 120.083 114.536 119.997C113.678 120.126 113.42 118.925 113.935 117.037C114.064 116.651 114.321 115.75 114.664 114.635C128.393 115.622 138.775 112.576 150.572 105.411Z" fill="#07BFEE"/>
<path d="M124.787 102.839C127.061 103.654 129.42 104.255 131.78 104.555C132.938 104.727 134.054 104.812 135.212 104.77C136.327 104.684 137.529 104.77 138.515 104.212C139.073 103.826 139.03 102.925 138.43 102.624C137.486 102.153 136.456 102.281 135.469 102.11C134.311 101.938 133.11 101.852 131.952 101.724C129.721 101.466 127.533 100.951 125.388 100.265C123.758 99.7501 123.243 102.281 124.787 102.839Z" fill="#A8E1FF"/>
<path d="M143.322 104.342C144.309 104.299 145.21 104.128 146.111 103.741C146.54 103.57 146.883 103.184 146.883 102.669C146.883 102.497 146.797 102.326 146.711 102.154C146.54 101.854 146.111 101.639 145.768 101.682C144.952 101.811 144.094 101.854 143.236 101.854C141.649 101.854 141.735 104.428 143.322 104.342Z" fill="#A8E1FF"/>
<path d="M101.751 13.947C101.579 13.3464 101.322 12.66 100.678 12.5313C100.035 12.4026 99.5201 13.0032 99.134 13.5609C97.2464 16.3066 95.659 19.2238 94.3291 22.2269L103.038 23.5997C103.038 20.3392 102.566 17.0788 101.751 13.947Z" fill="#00C4F6"/>
<path d="M130.794 72.8057C129.893 79.1121 124.659 83.6596 116.894 86.105C109.73 88.3787 100.034 91.4676 90.0382 90.0518C80.2139 88.6361 71.8483 83.0161 65.6277 78.8976C58.7206 74.3502 54.8167 68.4728 55.7176 62.0376C56.1895 58.8201 57.7768 55.9028 60.308 53.4575C62.6246 51.1838 64.169 48.1807 64.598 44.9632C64.598 44.8202 64.6123 44.6772 64.6409 44.5341C66.9147 28.6609 82.7879 17.8499 100.12 20.2952C117.452 22.7835 129.678 37.67 127.405 53.5004C127.376 53.6434 127.348 53.7721 127.319 53.8865C126.804 57.147 127.319 60.5361 128.906 63.4105C130.579 66.4564 131.266 69.6311 130.794 72.8057Z" fill="#00C4F6"/>
<path d="M117.753 85.8061C117.495 85.9205 117.209 86.0206 116.895 86.1064C107.971 88.9378 99.3054 91.3832 90.0389 90.0533C80.7294 88.7233 73.0931 83.8327 65.6284 78.8991C65.371 78.7275 65.1279 78.5559 64.899 78.3843C63.0972 74.8664 63.3117 71.2627 64.7704 68.7316C65.9716 66.6723 68.2024 65.1708 70.562 65.085C74.7662 64.9563 78.756 69.0319 82.8316 67.5733C86.3494 66.2862 89.7386 65.4282 93.5567 66.0717C97.3749 66.6723 100.507 68.2597 103.467 70.5334C106.813 73.1075 111.918 70.276 115.908 71.6059C120.713 73.1933 122.858 80.1861 117.753 85.8061Z" fill="#A8E1FF"/>
<path d="M76.783 48.9141C80.9015 48.9141 84.2906 52.2603 84.2906 56.4217C84.2906 60.5402 80.9015 63.9293 76.783 63.9293C72.6216 63.9293 69.2754 60.5402 69.2754 56.4217C69.2754 52.2603 72.6216 48.9141 76.783 48.9141Z" fill="white"/>
<path fill-rule="evenodd" clip-rule="evenodd" d="M76.7817 64.3561C76.4099 64.3561 76.0238 64.3275 75.6234 64.2703C73.5213 63.97 71.6766 62.8546 70.4324 61.1814C69.1454 59.4654 68.6306 57.3633 68.9309 55.304C69.2312 53.2019 70.3037 51.3142 72.0197 50.0701C73.6929 48.7831 75.795 48.2683 77.8971 48.5686C82.2301 49.1692 85.2332 53.2019 84.6326 57.5349C84.032 61.4817 80.6428 64.3561 76.7817 64.3561ZM76.7388 49.3408C75.2373 49.3408 73.7787 49.8127 72.5346 50.7566C71.033 51.872 70.0463 53.5451 69.746 55.3898C69.4886 57.2775 69.9605 59.1222 71.1188 60.6666C72.2343 62.1681 73.9074 63.1549 75.7521 63.4123C77.6397 63.6697 79.4845 63.1978 80.986 62.0823C82.5304 60.924 83.4742 59.2938 83.7746 57.4062C84.3323 53.5451 81.6295 49.9843 77.7684 49.4266C77.4252 49.3694 77.082 49.3408 76.7388 49.3408Z" fill="black"/>
<path d="M83.6476 58.0075C83.1757 61.0106 80.3871 63.1127 77.3841 62.6837C74.381 62.2547 72.2789 59.4661 72.7079 56.4631C73.1369 53.4171 75.9255 51.315 78.9714 51.7869C80.5587 52.0014 81.8887 52.9023 82.7038 54.1036C80.6016 54.9187 79.1859 56.2486 79.4862 57.1495C79.8294 58.0075 81.6742 58.1362 83.6905 57.4927C83.6619 57.6643 83.6476 57.8359 83.6476 58.0075Z" fill="black"/>
<path d="M111.276 53.8467C115.437 53.8467 118.783 57.2358 118.783 61.3543C118.783 65.5157 115.437 68.8619 111.276 68.8619C107.114 68.8619 103.768 65.5157 103.768 61.3543C103.768 57.2358 107.114 53.8467 111.276 53.8467Z" fill="white"/>
<path fill-rule="evenodd" clip-rule="evenodd" d="M111.275 69.2901C110.904 69.2901 110.532 69.2615 110.16 69.2043C105.827 68.6037 102.824 64.571 103.425 60.238C103.725 58.1359 104.84 56.2912 106.513 55.0042C108.229 53.76 110.289 53.2023 112.391 53.5026C116.724 54.1461 119.727 58.1788 119.126 62.5118C118.569 66.4587 115.136 69.2901 111.275 69.2901ZM111.275 54.2748C109.731 54.2748 108.272 54.7897 107.028 55.6906C105.527 56.8489 104.54 58.4791 104.283 60.3667C104.025 62.2544 104.497 64.0991 105.613 65.6006C106.728 67.1022 108.401 68.0889 110.289 68.3892C114.107 68.904 117.711 66.2442 118.268 62.3831C118.826 58.522 116.123 54.9184 112.262 54.3606C111.919 54.3034 111.59 54.2748 111.275 54.2748Z" fill="black"/>
<path d="M115.136 62.5544C114.707 65.5575 111.919 67.6596 108.916 67.2306C105.913 66.8016 103.811 63.9702 104.24 60.9671C104.669 57.9641 107.457 55.8619 110.46 56.2909C112.09 56.5054 113.42 57.4063 114.236 58.6505C112.133 59.4227 110.675 60.7955 111.018 61.6964C111.361 62.5544 113.163 62.6831 115.222 61.9967C115.194 62.1683 115.165 62.3542 115.136 62.5544Z" fill="black"/>
<path d="M82.8741 45.0492C82.7883 45.8214 81.2868 45.5211 79.4421 45.2637C77.5973 45.0063 76.0958 44.8776 76.2245 44.1054C76.3103 43.2903 78.0263 42.1748 79.8711 42.4322C81.7158 42.7325 83.0028 44.277 82.8741 45.0492Z" fill="#00B0DF"/>
<path d="M114.75 49.642C114.621 50.4142 113.12 50.1139 111.275 49.8565C109.43 49.5991 107.929 49.4275 108.058 48.6553C108.143 47.8831 109.859 46.7677 111.704 47.0251C113.549 47.2825 114.836 48.8269 114.75 49.642Z" fill="#00B0DF"/>
<path d="M104.026 71.8187C103.94 71.8187 103.811 71.7758 103.725 71.69C101.109 68.8586 97.5478 67.0138 93.7725 66.499C89.9543 65.9413 86.0504 66.7135 82.747 68.6441C82.5325 68.7728 82.2751 68.7299 82.1464 68.5154C82.0177 68.3009 82.1035 68.0435 82.318 67.9148C85.793 65.8555 89.8685 65.0404 93.9012 65.641C97.891 66.1987 101.58 68.1293 104.369 71.0894C104.498 71.261 104.498 71.5184 104.326 71.69C104.24 71.7758 104.14 71.8187 104.026 71.8187Z" fill="#1876A8"/>
<path d="M101.064 77.4818C97.9325 77.4818 94.8007 77.1386 91.9264 76.7525C81.2012 75.2081 75.0664 73.1917 69.2748 66.0702C69.1032 65.8557 69.1461 65.5983 69.3177 65.4696C69.4893 65.298 69.7896 65.3409 69.9183 65.5125C75.5812 72.4624 81.5444 74.3929 92.0551 75.8945C103.767 77.5676 111.017 76.3664 115.608 72.0334C115.779 71.8618 116.037 71.8618 116.208 72.0334C116.38 72.205 116.38 72.5053 116.208 72.634C112.218 76.4093 106.684 77.4818 101.064 77.4818Z" fill="black"/>
<path d="M118.696 74.3517C118.568 74.3517 118.439 74.3088 118.353 74.1801C117.409 72.936 114.449 71.4344 111.875 71.8206C111.618 71.8635 111.403 71.6918 111.403 71.4344C111.36 71.2199 111.532 71.0054 111.746 70.9625C114.792 70.5335 117.924 72.2496 119.039 73.6653C119.168 73.8369 119.125 74.0943 118.954 74.2659C118.868 74.3231 118.782 74.3517 118.696 74.3517Z" fill="black"/>
<path d="M66.2279 67.5728C66.0992 67.5728 65.9705 67.5299 65.8847 67.4012C65.756 67.2296 65.756 66.9722 65.9705 66.8006C67.2146 65.771 68.6732 65.1275 70.089 64.9988C71.5905 64.8701 73.1349 65.2562 74.5507 65.6852C74.8081 65.771 74.8939 65.9855 74.851 66.2429C74.7652 66.4574 74.5507 66.5861 74.2933 66.5003C72.9633 66.0713 71.5476 65.7281 70.1748 65.8568C68.9307 65.9855 67.6436 66.5432 66.4853 67.487C66.3995 67.5442 66.3137 67.5728 66.2279 67.5728Z" fill="black"/>
<path d="M92.6977 87.3951C90.0808 87.3951 87.4638 86.7516 85.1901 85.5075C84.9756 85.3788 84.8898 85.1214 85.0185 84.9069C85.1472 84.6924 85.4046 84.6066 85.5762 84.7353C88.7937 86.4942 92.6977 87.009 96.2585 86.1081C96.473 86.0223 96.6875 86.1939 96.7733 86.4084C96.8162 86.6229 96.6875 86.8803 96.4301 86.9232C95.2288 87.2664 93.9418 87.3951 92.6977 87.3951Z" fill="#1876A8"/>
<path d="M103.896 76.967C97.5899 79.2836 96.8177 83.1447 91.1119 82.5441C85.3632 81.9864 84.4194 77.3102 79.4429 73.4062C83.2181 74.6933 87.6369 75.68 92.0128 76.3235C96.3458 76.9241 99.9494 77.1386 103.896 76.967Z" fill="#731D31"/>
<path fill-rule="evenodd" clip-rule="evenodd" d="M92.2279 83.0604C91.8561 83.0604 91.4699 83.0318 91.0695 82.9746C87.2514 82.5885 85.4495 80.4863 83.3903 77.9981C82.2749 76.6682 80.9879 75.1237 79.186 73.7509C79.0144 73.6222 78.9715 73.3648 79.1002 73.1932C79.186 73.0216 79.4005 72.9358 79.615 72.9787C83.1329 74.2228 87.423 75.2095 92.0563 75.896C96.5179 76.5395 100.079 76.7111 103.897 76.5395C104.068 76.4966 104.283 76.6682 104.326 76.8827C104.369 77.0543 104.24 77.2688 104.068 77.3546C101.537 78.2984 99.9071 79.4567 98.4914 80.5292C96.6466 81.8591 95.0164 83.0604 92.2279 83.0604ZM81.3311 74.4373C82.4036 75.4669 83.2616 76.4966 84.0338 77.4404C86.093 79.8857 87.6804 81.7734 91.1553 82.1166C94.3729 82.4598 95.8744 81.3443 97.9766 79.7999C99.0491 79.0706 100.164 78.2126 101.709 77.4404C98.6201 77.4833 95.5741 77.2688 91.9276 76.754C88.1094 76.1963 84.4628 75.424 81.3311 74.4373Z" fill="black"/>
<mask id="mask0_868_1288" style="mask-type:luminance" maskUnits="userSpaceOnUse" x="79" y="73" width="25" height="10">
<path d="M103.909 76.9578C97.6021 79.3045 96.8256 83.1441 91.1026 82.5564C85.3754 81.9729 84.4401 77.2925 79.4551 73.4014C83.2175 74.7098 87.6448 75.688 91.9993 76.3143C96.3537 76.9364 99.9445 77.1552 103.909 76.9578Z" fill="white"/>
</mask>
<g mask="url(#mask0_868_1288)">
<path d="M102.01 83.7061C99.4786 80.7459 95.7891 78.8154 91.928 78.4722C88.0241 78.129 84.0343 79.3731 81.0312 81.8184C81.3316 82.848 82.018 83.5345 83.0476 83.9635C89.0537 86.323 95.9178 85.9369 102.01 83.7061Z" fill="#CF2746"/>
</g>
<path d="M108.787 28.9187C110.932 30.2915 112.819 31.9647 114.407 33.9381C115.179 34.839 115.822 35.8257 116.552 36.7695C117.281 37.7563 117.753 39.1291 118.697 39.9013C119.383 40.4161 120.198 40.0729 120.284 39.2578C120.456 37.9279 119.598 36.5121 119.083 35.3538C118.482 34.0668 117.667 32.9514 116.766 31.9218C114.921 29.7338 112.648 27.932 110.202 26.5163C108.615 25.6583 107.242 27.9749 108.787 28.9187Z" fill="#A8E1FF"/>
<path d="M119.468 44.0638C119.812 45.4795 119.897 47.3672 121.013 48.3968C121.27 48.6542 121.742 48.6542 121.914 48.311C122.686 46.8524 122 44.9218 121.613 43.4632C121.27 42.0475 119.082 42.6481 119.468 44.0638Z" fill="#A8E1FF"/>
<path d="M91.5653 70.018C92.7236 70.2754 93.7961 70.6615 94.8687 71.1334C95.8125 71.5624 96.7134 72.2917 97.7859 72.2917C98.3436 72.2917 98.9442 71.6911 98.6868 71.0905C97.7859 68.7739 94.0535 68.1733 91.8656 67.9159C90.6644 67.8301 90.407 69.7606 91.5653 70.018Z" fill="#E0F5FF"/>
<path d="M49.8411 74.8068C50.313 77.3808 20.4112 82.7863 19.9392 80.2123C19.4673 77.6811 25.8166 74.3778 34.0536 72.9192C42.2905 71.4176 49.3692 72.2756 49.8411 74.8068Z" fill="#D02F8F"/>
<g filter="url(#filter0_d_868_1288)">
<circle cx="30.5896" cy="56.7908" r="18.9617" fill="white"/>
</g>
<path d="M17.332 26.2546C17.2662 26.2413 17.1997 26.2291 17.1337 26.2176C15.549 25.942 13.9372 26.1989 12.5086 26.8492C8.69902 28.5834 6.08594 33.2792 8.33272 38.2005C10.1055 42.0825 8.13107 46.3362 5.08372 48.3199L6.08503 49.8995C9.84765 47.4502 12.2222 42.2277 10.0201 37.4051C8.17893 33.3724 10.2784 29.9243 13.2639 28.5654C14.7568 27.8857 16.4419 27.7686 17.9847 28.4154C19.466 29.0359 20.8677 30.3654 21.8539 32.7928L15.3324 35.0344L16.8594 39.6863C10.7251 45.0147 8.03452 53.7675 10.7305 61.984C14.273 72.7807 25.7757 78.5645 36.4245 74.9016C47.0734 71.2386 52.8352 59.5174 49.2927 48.7207C46.6015 40.5186 39.313 35.2119 31.2976 34.7403L29.7646 30.071L23.6178 32.1831C22.4812 29.3245 20.7047 27.5147 18.7037 26.6763C18.2613 26.4909 17.8019 26.3497 17.332 26.2546ZM32.279 37.6094C40.059 39.1821 45.096 46.8102 43.502 54.6959C41.908 62.5813 34.2917 67.713 26.5116 66.1404C18.7316 64.5677 13.7614 56.8916 15.3554 49.0063C16.9493 41.1209 24.4989 36.0367 32.2789 37.6094L32.279 37.6094ZM30.8911 39.9161L29.1317 48.6197C27.7581 48.7727 26.542 49.8209 26.2542 51.2449C25.9006 52.9943 27.0702 54.7098 28.7962 55.0587C30.434 55.3898 32.0374 54.3818 32.4994 52.7833L41.0459 48.8739L40.2871 47.1604L32.4379 50.7517C32.1736 50.0024 31.6507 49.3606 30.9532 48.978L32.7107 40.2838L30.891 39.916L30.8911 39.9161ZM26.5575 40.2024L24.7949 40.8059L25.696 43.54L27.4594 42.9336L26.5576 40.2025L26.5575 40.2024ZM36.5929 42.2309L34.7013 44.3973L36.0904 45.6412L37.9828 43.4717L36.5929 42.2309ZM21.1727 43.2454L19.9399 44.6589L22.0696 46.5629L23.3024 45.1492L21.1725 43.2452L21.1727 43.2454ZM29.7163 50.5066C30.459 50.6567 30.8976 51.4002 30.7455 52.1527C30.5933 52.9053 29.9117 53.3645 29.1691 53.2144C28.4266 53.0643 27.9218 52.3654 28.074 51.6126C28.2261 50.86 28.9737 50.3564 29.7165 50.5065L29.7163 50.5066ZM17.9967 48.5998L17.6239 50.444L20.4142 51.0081L20.787 49.1637L17.9967 48.5998ZM38.4265 52.7295L38.0537 54.5738L40.8469 55.1384L41.2198 53.294L38.4267 52.7294L38.4265 52.7295ZM20.5853 53.906L17.884 54.8302L18.4707 56.6116L21.1728 55.6844L20.5853 53.906ZM36.7733 57.1783L35.5414 58.5888L37.6712 60.4928L38.904 59.0791L36.7733 57.1783ZM22.7527 58.1L20.8611 60.2664L22.251 61.5072L24.1427 59.3406L22.7526 58.0998L22.7527 58.1ZM33.1471 60.2011L31.3847 60.8046L32.2863 63.5358L34.0489 62.9321L33.1472 60.201L33.1471 60.2011ZM26.7049 60.6259L26.1332 63.454L27.9528 63.8218L28.5244 60.9938L26.7049 60.6259Z" fill="#F037A5"/>
<path d="M45.8517 50.1937C45.8606 51.5146 45.6754 52.8357 45.6394 54.1865C45.566 55.3358 45.3509 56.6121 45.673 57.7237C45.7779 58.1714 46.3152 58.2007 46.606 57.9093C47.5155 57.0427 47.8498 55.5573 48.0948 54.3257C48.3396 52.9 48.2784 51.4524 48.1725 50.0345C48.0515 48.4973 45.8353 48.7161 45.8517 50.1937Z" fill="#FAB8DF"/>
<path d="M44.0453 61.8196C43.4974 63.3304 42.7604 64.682 42.6191 66.2789C42.5914 66.8015 43.2306 67.0612 43.6218 66.7555C44.998 65.6636 45.5167 64.0948 46.0063 62.468C46.3806 61.1899 44.5067 60.5703 44.0453 61.8196Z" fill="#FAB8DF"/>
<path d="M135.471 25.1035L135.985 25.1464L136.457 25.2322C136.758 25.2751 137.015 25.4038 137.315 25.4896C137.358 25.4896 137.358 25.5754 137.358 25.6183C137.358 25.6612 137.401 25.7041 137.444 25.747L137.573 26.0473L137.83 26.648C138.173 27.4202 138.459 28.2067 138.688 29.0075C138.917 29.8369 139.089 30.6663 139.203 31.4957L139.289 32.1392L139.332 32.4396C139.332 32.5254 139.332 32.5682 139.332 32.6111C139.375 32.654 139.375 32.7399 139.332 32.7828C139.16 32.9973 138.946 33.2118 138.731 33.4263L138.388 33.7695L138.002 34.0698L137.616 33.7695L137.272 33.5121L136.586 32.9544C136.543 32.9544 136.586 32.8686 136.586 32.8257C136.586 32.7828 136.586 32.7399 136.586 32.697L136.543 32.4396L136.5 31.8819C136.386 31.1668 136.229 30.4661 136.028 29.7797C135.828 29.0647 135.585 28.3783 135.299 27.7205C135.17 27.3773 135.042 27.077 134.827 26.7338C134.913 26.4764 134.999 26.2189 135.127 25.9615L135.299 25.5325L135.471 25.1035Z" fill="#F037A5"/>
<path d="M149.242 65.085C149.842 65.2566 150.271 65.4711 150.743 65.6427C150.743 65.9001 150.829 66.1146 150.915 66.372C151.029 66.8582 151.186 67.3444 151.387 67.8306C151.558 68.3168 151.759 68.7887 151.987 69.2463C152.13 69.4465 152.259 69.661 152.373 69.8898C152.159 70.3189 151.944 70.7908 151.644 71.3056C151.044 71.3914 150.529 71.3485 150.014 71.3056C149.871 71.0196 149.728 70.7479 149.585 70.4905C149.299 69.9471 149.041 69.3893 148.813 68.8173C148.584 68.2453 148.398 67.6733 148.255 67.1013L148.126 66.6294L148.083 66.4149C148.083 66.372 148.083 66.3291 148.04 66.3291C148.04 66.2862 147.998 66.2433 147.998 66.2004C148.341 65.8143 148.684 65.4282 149.242 65.085Z" fill="#F037A5"/>
<path d="M178.286 79.7148C178.887 79.8864 179.316 80.058 179.788 80.2296C179.788 80.487 179.874 80.7445 179.959 81.0019C180.074 81.4881 180.231 81.9743 180.431 82.4605C180.603 82.9181 180.817 83.3757 181.075 83.8333C181.189 84.0621 181.304 84.2909 181.418 84.5197C181.203 84.9487 180.989 85.3777 180.689 85.9355C180.088 85.9784 179.573 85.9354 179.058 85.8925C178.915 85.6351 178.772 85.3777 178.629 85.1203C178.343 84.5769 178.086 84.0192 177.857 83.4472C177.628 82.8752 177.442 82.2889 177.299 81.6883L177.171 81.2593L177.128 81.0448C177.128 81.0019 177.128 80.959 177.085 80.9161C177.085 80.8732 177.042 80.8732 177.085 80.8303C177.385 80.4441 177.771 80.058 178.286 79.7148Z" fill="#F037A5"/>
<path d="M149.499 43.6355C149.714 44.279 149.8 44.7938 149.885 45.2657C149.628 45.5231 149.456 45.7805 149.242 46.0379C148.813 46.5241 148.398 47.0389 147.998 47.5823C147.626 48.1258 147.283 48.6835 146.968 49.2555C146.797 49.5415 146.639 49.8132 146.496 50.0706C145.896 50.2851 145.338 50.4567 144.566 50.6712C144.137 50.2422 143.837 49.8561 143.579 49.3842C143.751 49.041 143.937 48.7121 144.137 48.3975C144.509 47.7111 144.923 47.0532 145.381 46.424C145.839 45.7662 146.325 45.137 146.84 44.5364L147.226 44.0645L147.44 43.85C147.44 43.8071 147.483 43.8071 147.526 43.7213C147.526 43.6784 147.526 43.6355 147.612 43.6355C148.212 43.5926 148.813 43.5497 149.499 43.6355Z" fill="#C82F8A"/>
<path d="M165.845 46.638L166.317 46.4664L166.746 46.3806C167.003 46.2948 167.303 46.2519 167.561 46.209C167.646 46.209 167.646 46.2519 167.689 46.2948C167.689 46.3377 167.732 46.3806 167.775 46.4235L167.99 46.5951L168.419 46.9812C168.962 47.496 169.463 48.0537 169.92 48.6543C170.406 49.2549 170.835 49.8842 171.207 50.542L171.465 51.0568L171.593 51.3142C171.636 51.3571 171.636 51.4 171.679 51.4429C171.722 51.4858 171.765 51.4858 171.722 51.5716C171.593 51.829 171.508 52.0864 171.379 52.3438L171.164 52.7299L170.907 53.116C170.263 52.9873 169.749 52.8586 169.234 52.7299C169.191 52.7299 169.191 52.687 169.191 52.6441C169.191 52.6012 169.148 52.5583 169.148 52.5154L169.019 52.3438L168.805 51.9148C168.49 51.3714 168.147 50.8566 167.775 50.3704C167.375 49.8556 166.96 49.3837 166.531 48.9546C166.274 48.7401 166.059 48.5256 165.802 48.354L165.845 47.5389V47.1099V46.638Z" fill="#F037A5"/>
<path d="M141.991 77.4834C142.134 77.5406 142.277 77.5835 142.42 77.6121C142.563 77.6693 142.692 77.7265 142.806 77.7837C143.064 77.8695 143.278 77.9982 143.536 78.1269C143.579 78.1698 143.579 78.2127 143.536 78.2556C143.536 78.2985 143.536 78.3414 143.536 78.3843L143.579 78.6417L143.622 79.1136C143.679 79.8 143.65 80.4722 143.536 81.13C143.45 81.7878 143.293 82.4456 143.064 83.1034L142.892 83.5753L142.806 83.7898C142.806 83.8327 142.764 83.8756 142.764 83.9185C142.764 83.9614 142.764 84.0043 142.721 84.0472C142.42 84.0901 142.206 84.133 141.906 84.1759C141.763 84.2045 141.62 84.2188 141.477 84.2188C141.334 84.2188 141.191 84.2188 141.048 84.2188L140.619 83.4895C140.49 83.275 140.361 83.0605 140.232 82.846C140.19 82.8031 140.232 82.8031 140.232 82.7602C140.275 82.7602 140.275 82.7173 140.275 82.6744L140.361 82.5457L140.49 82.2025C140.661 81.7163 140.776 81.2301 140.833 80.7438C140.89 80.2576 140.905 79.7714 140.876 79.2852C140.876 79.0707 140.876 78.8133 140.79 78.5559C140.962 78.4272 141.133 78.2556 141.348 78.084C141.434 77.9982 141.534 77.9124 141.648 77.8266C141.763 77.7122 141.877 77.5978 141.991 77.4834Z" fill="#C82F8A"/>
<path d="M69.6175 9.6582C70.0894 10.1301 70.4755 10.602 70.7758 11.1168C70.8187 11.2026 70.7758 11.2456 70.7329 11.2885C70.69 11.3314 70.69 11.3742 70.69 11.46L70.6042 11.7604L70.4755 12.4039C70.2181 13.2619 69.9178 14.0913 69.5746 14.8921C69.2028 15.6929 68.7738 16.4508 68.2876 17.1658L67.9015 17.7236L67.7298 17.981C67.6869 18.0239 67.6441 18.0668 67.6441 18.1097C67.6012 18.1955 67.6011 18.2384 67.5153 18.2384C67.215 18.2813 66.9147 18.3242 66.6144 18.3671H66.1425C65.9709 18.3671 65.8422 18.3671 65.6706 18.3242C65.6277 18.1526 65.5848 18.0239 65.5848 17.8523L65.499 17.4233L65.3703 16.5652C65.3274 16.4794 65.3703 16.4794 65.4132 16.4365C65.4561 16.4365 65.499 16.3936 65.5419 16.3507L65.6706 16.1362L66.0138 15.6643C66.4142 15.0637 66.7574 14.4202 67.0434 13.7338C67.3581 13.076 67.6155 12.3896 67.8157 11.6745C67.9015 11.3313 68.0302 10.9452 68.0731 10.602C68.2733 10.459 68.5021 10.3017 68.7595 10.1301L69.1456 9.91562C69.3172 9.82982 69.4459 9.744 69.6175 9.6582Z" fill="#F037A5"/>
<path d="M59.7938 0.391C59.9225 1.03451 60.0083 1.50642 60.0941 1.97833C59.8796 2.14994 59.708 2.36442 59.5364 2.57893C59.1646 2.95073 58.8214 3.36545 58.5068 3.82306C58.1922 4.25207 57.8919 4.69536 57.6059 5.15297C57.4629 5.38178 57.3341 5.62489 57.2197 5.88229C56.7478 5.92519 56.233 6.01099 55.6324 6.01099C55.2463 5.53908 55.0318 5.06718 54.7744 4.59527C54.9174 4.30926 55.0747 4.03757 55.2463 3.78017C55.5609 3.23676 55.9041 2.70765 56.2759 2.19284C56.6763 1.67803 57.091 1.17752 57.52 0.69131L57.8204 0.34811L57.992 0.176496C58.0349 0.176496 58.0778 0.13359 58.0778 0.0906895C58.1207 0.0477888 58.1207 0.00488281 58.1636 0.00488281C58.6784 0.0906843 59.1932 0.176496 59.7938 0.391Z" fill="#C82F8A"/>
<path d="M33.4519 7.98354C33.4948 8.62705 33.5377 9.14185 33.5806 9.61376C33.3661 9.74246 33.1516 9.95697 32.98 10.1286C32.5796 10.5004 32.2078 10.9008 31.8646 11.3298C31.5214 11.7588 31.2068 12.2021 30.9208 12.6597C30.8064 12.8885 30.6777 13.1173 30.5347 13.3461C30.0628 13.4319 29.548 13.5177 28.9474 13.6035L28.69 13.2174L28.4326 12.8742C28.3039 12.6168 28.2181 12.4023 28.0894 12.1449C28.2324 11.8303 28.3897 11.53 28.5613 11.244C28.9045 10.672 29.2906 10.1286 29.7196 9.61376C30.1486 9.07035 30.6062 8.56984 31.0924 8.11223L31.4785 7.76903L31.6501 7.64034C31.693 7.59744 31.7359 7.59743 31.7359 7.55453C31.7788 7.51163 31.7788 7.42582 31.8217 7.46872C32.122 7.51162 32.3365 7.55453 32.6368 7.64034L33.0229 7.81192L33.4519 7.98354Z" fill="#F037A5"/>
<path d="M31.7804 95.7158C32.381 95.8445 32.8529 96.0161 33.3248 96.2306C33.3677 96.2735 33.3677 96.3164 33.3677 96.3593C33.3248 96.4022 33.3677 96.4451 33.3677 96.488L33.4106 96.7025L33.4964 97.1744C33.6108 97.775 33.6823 98.39 33.7109 99.0192C33.7109 99.6484 33.6823 100.278 33.6251 100.907C33.5965 101.221 33.5536 101.536 33.4964 101.851C33.2819 101.979 33.0674 102.065 32.81 102.194L32.4239 102.323L31.9949 102.451C31.523 102.065 31.1798 101.722 30.7937 101.422C30.8509 101.164 30.8938 100.907 30.9224 100.649C30.951 100.135 30.9653 99.6341 30.9653 99.1479C30.9367 98.6331 30.8795 98.1182 30.7937 97.6034C30.7508 97.346 30.7079 97.1316 30.6221 96.8741C30.9653 96.5309 31.3085 96.1877 31.7804 95.7158Z" fill="#C82F8A"/>
<path d="M14.664 69.4178C14.6211 70.0613 14.5781 70.5761 14.5352 71.0909C14.2778 71.2196 14.0205 71.3912 13.806 71.5628C13.3197 71.906 12.8621 72.2778 12.4331 72.6782C12.0041 73.0786 11.6037 73.5077 11.2319 73.9653L10.9745 74.3085L10.8458 74.4801C10.8029 74.523 10.8029 74.5659 10.8029 74.6088C10.76 74.6517 10.8029 74.6946 10.7171 74.6946C10.2023 74.6946 9.68747 74.7375 9.04395 74.7375L8.87237 74.3085L8.70075 73.9224C8.61495 73.6221 8.52916 73.4076 8.44336 73.1072C8.44336 73.0643 8.48624 73.0214 8.52914 73.0214C8.57204 72.9785 8.57205 72.9356 8.61495 72.8927L8.78656 72.6782L9.08687 72.2492C9.54448 71.7058 10.0307 71.1767 10.5455 70.6619C11.0603 70.1757 11.618 69.7324 12.2186 69.332L12.6476 69.0317L12.8621 68.8601C12.905 68.8172 12.9479 68.8172 12.9908 68.7743C12.9908 68.7314 13.0337 68.6885 13.0766 68.6885C13.334 68.7743 13.5914 68.8601 13.8488 68.9888L14.235 69.1604L14.664 69.4178Z" fill="#C82F8A"/>
<path d="M16.6785 90.7393C17.1075 91.2112 17.3649 91.5973 17.6652 91.9405C17.5794 92.155 17.4936 92.3695 17.4078 92.6269C17.2648 93.0559 17.1504 93.5135 17.0646 93.9997C16.9788 94.4573 16.9073 94.9292 16.8501 95.4154C16.8501 95.6443 16.8358 95.873 16.8072 96.1019C16.4211 96.3164 15.9921 96.5738 15.4344 96.8741C14.8766 96.6167 14.4905 96.3164 14.0615 96.0161C14.0901 95.7301 14.1187 95.4441 14.1473 95.1581C14.1759 94.586 14.2474 94.014 14.3618 93.442C14.4762 92.87 14.6192 92.3123 14.7908 91.7689L14.9624 91.3828L15.0053 91.1683C15.0053 91.1254 15.0482 91.0825 15.0482 91.0396C15.0482 90.9967 15.0054 90.9538 15.0912 90.9538C15.5631 90.8251 16.0349 90.7393 16.6785 90.7393Z" fill="#F037A5"/>
<path d="M161.812 93.5293C161.955 93.4721 162.098 93.4006 162.241 93.3148C162.355 93.2576 162.484 93.2004 162.627 93.1432C162.884 93.0574 163.141 92.9716 163.442 92.9287C163.485 92.8858 163.528 92.9716 163.528 93.0145C163.57 93.0574 163.613 93.0574 163.656 93.1003L163.871 93.2719L164.3 93.6151C164.843 94.1299 165.329 94.7019 165.758 95.3311C166.159 95.9603 166.488 96.6324 166.745 97.3475L166.917 97.9052L166.96 98.1626C167.003 98.2055 167.003 98.2484 167.003 98.2913C167.045 98.3342 167.088 98.3771 167.045 98.42C166.874 98.6774 166.702 98.8919 166.531 99.0635C166.416 99.1779 166.302 99.278 166.187 99.3638C166.073 99.4782 165.959 99.5783 165.844 99.6641C165.701 99.5783 165.558 99.5068 165.415 99.4496C165.301 99.3924 165.186 99.3352 165.072 99.278C164.815 99.1922 164.6 99.0635 164.343 98.9777C164.3 98.9777 164.3 98.9348 164.343 98.8919C164.343 98.8919 164.3 98.849 164.3 98.8061L164.257 98.6345L164.128 98.2484C163.957 97.7622 163.728 97.2902 163.442 96.8326C163.156 96.4036 162.827 96.0032 162.455 95.6314L162.155 95.4169L161.983 95.2882C161.983 95.2453 161.94 95.2453 161.897 95.2453C161.897 95.2453 161.812 95.2453 161.854 95.1595C161.854 94.945 161.854 94.6876 161.854 94.4302C161.854 94.2872 161.854 94.1442 161.854 94.0012C161.854 93.8582 161.84 93.7009 161.812 93.5293Z" fill="#F037A5"/>
<path d="M165.802 67.4453C165.945 67.3595 166.073 67.2737 166.188 67.1879C166.331 67.1307 166.474 67.0735 166.617 67.0163C166.874 66.9305 167.132 66.8876 167.432 66.8018C167.475 66.8018 167.518 66.8447 167.518 66.8876C167.561 66.9305 167.604 66.9734 167.646 66.9734L167.861 67.145L168.29 67.5311C168.833 68.0459 169.32 68.6179 169.749 69.2471C170.149 69.8763 170.478 70.5341 170.735 71.2205L170.907 71.7783L170.95 72.0357C170.95 72.0786 170.993 72.1644 170.993 72.2073C171.036 72.2502 171.079 72.2931 171.036 72.336C170.864 72.5505 170.692 72.765 170.478 72.9795C170.392 73.0939 170.292 73.194 170.178 73.2798C170.063 73.3656 169.935 73.4514 169.792 73.5372C169.677 73.48 169.548 73.4228 169.405 73.3656C169.291 73.3084 169.162 73.2512 169.019 73.194C168.762 73.0653 168.547 72.9795 168.333 72.8937C168.29 72.8508 168.29 72.8508 168.29 72.8079C168.29 72.765 168.29 72.7221 168.29 72.7221L168.247 72.5076L168.118 72.1215C167.947 71.6353 167.718 71.1776 167.432 70.7486C167.146 70.291 166.817 69.8906 166.445 69.5474L166.145 69.29L165.973 69.1613C165.93 69.1613 165.93 69.1184 165.888 69.1184C165.845 69.1184 165.802 69.1184 165.802 69.0755C165.845 68.8181 165.845 68.6036 165.845 68.3033C165.845 68.1889 165.83 68.0602 165.802 67.9172C165.802 67.7456 165.802 67.5883 165.802 67.4453Z" fill="#C82F8A"/>
<defs>
<filter id="filter0_d_868_1288" x="10.3089" y="37.3344" width="40.5615" height="40.562" filterUnits="userSpaceOnUse" color-interpolation-filters="sRGB">
<feFlood flood-opacity="0" result="BackgroundImageFix"/>
<feColorMatrix in="SourceAlpha" type="matrix" values="0 0 0 0 0 0 0 0 0 0 0 0 0 0 0 0 0 0 127 0" result="hardAlpha"/>
<feOffset dy="0.824422"/>
<feGaussianBlur stdDeviation="0.659538"/>
<feComposite in2="hardAlpha" operator="out"/>
<feColorMatrix type="matrix" values="0 0 0 0 0 0 0 0 0 0 0 0 0 0 0 0 0 0 0.25 0"/>
<feBlend mode="normal" in2="BackgroundImageFix" result="effect1_dropShadow_868_1288"/>
<feBlend mode="normal" in="SourceGraphic" in2="effect1_dropShadow_868_1288" result="shape"/>
</filter>
</defs>
</svg>
