<svg width="196" height="121" viewBox="0 0 196 121" fill="none" xmlns="http://www.w3.org/2000/svg">
<path d="M6.86375 42.4531C6.12959 33.6432 6.53004 23.8989 12.4033 17.2915C17.142 11.9521 24.6171 9.81637 31.7584 9.61615C38.8998 9.34918 45.9744 10.8175 53.0491 11.3514C72.6712 12.9532 92.1597 8.14781 111.515 4.54375C130.87 0.939694 151.226 -1.463 169.914 4.67724C178.457 7.4804 187.133 12.9532 189.269 21.6964C192.339 34.2438 180.593 45.9904 180.526 58.8716C180.459 74.2222 196.611 87.0366 193.674 102.12C192.072 110.263 184.864 116.47 176.922 118.806C168.913 121.142 160.37 120.207 152.294 118.205C144.218 116.269 136.41 113.333 128.267 111.731C98.1665 105.925 67.532 118.739 36.8976 117.538C24.6171 117.137 10.935 113.333 4.92823 102.654C-0.411118 93.3103 1.65787 81.5637 4.79473 71.8194C7.99834 61.7414 7.7314 53.065 6.86375 42.4531Z" fill="white"/>
<path d="M65.2077 47.0899L66.2416 47.0769L66.2785 50.0247L56.5113 50.1469C54.6634 50.1701 53.2896 51.1553 53.3133 53.0472C53.3472 55.753 57.3008 56.9796 60.9105 55.3283L60.9443 58.0341C55.9593 60.5387 50.4278 58.0557 50.3656 53.0841C50.3215 49.5643 52.9549 47.2652 56.4084 47.2L61.49 47.1364C60.9827 47.0327 60.2861 45.8754 59.7461 44.914C58.2169 42.271 56.0437 40.9121 53.1993 42.1798L53.1655 39.474C57.2607 37.9486 60.7395 39.9072 62.9966 44.4553C64.1939 46.9485 64.3932 47.0561 65.2077 47.0899ZM74.5262 46.9732L76.66 46.9465L76.6969 49.8943L74.1451 49.9262C73.1112 49.9392 72.181 49.4448 71.4459 48.7279C70.7731 49.4624 69.7675 49.981 68.3156 49.9992L65.9838 50.0284L64.7021 49.5824L64.677 47.5805L65.9469 47.0806L68.3007 47.0512C69.6426 47.0344 69.9184 46.2168 69.9063 45.2489L69.8719 42.4991L69.813 39.5516L72.7827 39.5145L72.8392 44.0241C72.8419 44.2441 72.8447 44.4641 72.826 44.7283L72.832 45.2123C72.8442 46.1802 73.1843 46.99 74.5262 46.9732ZM68.6274 52.0635C69.5514 52.0519 70.3532 52.8339 70.3648 53.7579C70.3769 54.7258 69.5946 55.5056 68.6707 55.5172C67.7247 55.529 66.9232 54.769 66.9111 53.8011C66.8995 52.8771 67.6815 52.0753 68.6274 52.0635ZM73.3131 52.0048C74.259 51.993 75.0609 52.775 75.0724 53.6989C75.0845 54.6669 74.3022 55.4467 73.3563 55.4586C72.4104 55.4704 71.6088 54.7104 71.5967 53.7424C71.5851 52.8185 72.3672 52.0167 73.3131 52.0048ZM83.0985 46.866L83.7584 46.8577L83.7953 49.8055L82.7174 49.819C81.6835 49.8319 80.7312 49.3378 80.0179 48.5987C79.3233 49.3554 78.3398 49.8738 76.8879 49.8919L76.4259 49.8977L75.1662 49.4514L75.1412 47.4496L76.389 46.9499L76.895 46.9436C78.1929 46.9274 78.4909 46.1316 78.5011 45.1854L78.3461 34.5605L81.2939 34.5236L81.4263 45.1048C81.4384 46.0727 81.7566 46.8828 83.0985 46.866ZM90.9359 38.3632C93.7737 38.3277 95.9565 40.4566 95.9923 43.3163L96.008 44.5702C96.0424 47.32 93.8709 49.6134 91.1871 49.647C89.8452 49.6638 88.5638 49.2398 87.5643 48.4822C86.8922 49.2827 85.8644 49.7796 84.6765 49.7944L83.7085 49.8066L82.4269 49.3606L82.4015 47.3367L83.6717 46.8588L84.6396 46.8467C85.3435 46.8379 85.8214 46.3478 85.8123 45.6219L85.7851 43.4441C85.7493 40.5843 87.8561 38.4018 90.7159 38.366L90.9359 38.3632ZM93.0602 44.6071L93.0445 43.3532C93.0288 42.0993 92.2047 41.2956 90.9728 41.311L90.7528 41.3137C89.5209 41.3292 88.6952 42.1536 88.7109 43.4075L88.7389 45.6513C89.2977 46.3483 90.2043 46.711 91.1502 46.6992C92.2062 46.686 93.0745 45.751 93.0602 44.6071ZM106.02 36.8763C105.075 36.8882 104.273 36.1062 104.261 35.1602C104.249 34.2363 105.031 33.4124 105.977 33.4006C106.923 33.3888 107.725 34.1928 107.737 35.1167C107.748 36.0627 106.966 36.8645 106.02 36.8763ZM109.53 46.5352L109.566 49.483L107.697 49.5064L107.699 49.6603C107.734 52.4541 105.648 54.5924 102.854 54.6273L101.776 54.6408L101.74 51.6931L102.817 51.6796C103.983 51.665 104.765 50.8631 104.751 49.6972L104.616 38.9181L107.564 38.8812L107.66 46.5586L109.53 46.5352ZM114.786 40.0449L119.604 39.9846C121.738 39.9579 123.497 41.652 123.524 43.8078L123.544 45.4357C123.571 47.5915 121.855 49.3512 119.721 49.3779L109.294 49.5084L108.012 49.0404L107.987 47.0385L109.257 46.5606L119.333 46.4345C120.036 46.4257 120.601 45.8466 120.592 45.1426L120.58 44.1747C120.572 43.4708 119.992 42.906 119.288 42.9148L110.929 43.0414L110.605 41.7473L114.888 34.1252L117.254 35.0416L114.786 40.0449ZM124.6 54.3552L124.563 51.4074L125.663 51.3937C126.807 51.3794 127.611 50.5772 127.597 49.4113L127.462 38.6322L130.409 38.5953L130.544 49.3744C130.579 52.1682 128.494 54.3065 125.7 54.3414L124.6 54.3552ZM43.8884 65.9941L46.8142 65.9575L46.9626 77.8146C46.9871 79.7724 45.5099 81.287 43.5521 81.3115L34.9948 81.4186C32.201 81.4536 30.0627 79.3682 30.0278 76.5744L29.9889 73.4727L32.9147 73.436L32.9535 76.5378C32.9681 77.7037 33.792 78.4855 34.9579 78.4709L42.3713 78.3781C43.7132 78.3613 44.033 77.5432 44.0209 76.5753L43.8884 65.9941ZM40.6369 71.6453L40.6565 73.2071L35.7948 73.268L35.7753 71.7061L36.5452 71.6965C36.2329 71.3484 36.0074 70.9111 35.9999 70.3172C35.9848 69.1073 36.7657 68.2174 38.1736 68.1998C39.4935 68.1833 40.4284 69.0517 40.4917 70.591L39.0618 70.6089C39.0329 70.0592 38.6111 69.7565 38.2151 69.7614C37.8412 69.7661 37.4922 70.0125 37.498 70.4745C37.5019 70.7824 37.6627 71.3305 38.3051 71.6744L40.6369 71.6453ZM49.5891 65.9228L52.5149 65.8862L52.6577 77.3033C52.6663 77.9852 53.1755 78.2429 53.5495 78.2382L54.6274 78.2247L54.6643 81.1725L52.5965 81.1984C51.0346 81.2179 49.7653 80.0017 49.7455 78.4178L49.5891 65.9228ZM61.7834 78.1351L63.0593 78.1192L63.0962 81.0669L61.4243 81.0879C60.3904 81.1008 59.4381 80.6067 58.7028 79.8678C58.0303 80.6243 57.0247 81.1429 55.5728 81.1611L54.3629 81.1762L53.0812 80.7302L53.0561 78.7284L54.326 78.2285L55.5799 78.2128C56.9218 78.196 57.1976 77.3785 57.1855 76.4106L57.151 73.6608L57.0922 70.7133L60.0619 70.6761L60.1184 75.1858C60.1211 75.4057 60.1239 75.6257 60.1049 75.868L60.1112 76.3739C60.1233 77.3419 60.4635 78.1517 61.7834 78.1351ZM58.729 83.7178C59.653 83.7062 60.4548 84.4883 60.4664 85.4122C60.4785 86.3801 59.6962 87.16 58.7722 87.1715C57.8263 87.1834 57.0247 86.4233 57.0126 85.4554C57.0011 84.5315 57.7831 83.7296 58.729 83.7178ZM64.3156 65.7385L67.2633 65.7016L67.4197 78.1966C67.4395 79.7805 66.223 81.0278 64.6392 81.0476L62.5493 81.0738L61.2677 80.6278L61.2426 78.626L62.5124 78.126L63.6124 78.1123C63.9863 78.1076 64.467 77.8375 64.4584 77.1556L64.3156 65.7385ZM73.3314 80.9389L70.3836 80.9757L70.192 65.6649L73.1398 65.6281L73.3314 80.9389ZM95.4244 69.3755L99.7581 69.3212L99.8993 80.6064L96.9515 80.6433L96.8472 72.3059L95.4613 72.3233C94.3174 72.3376 93.5574 73.1391 93.5714 74.2611L93.6402 79.7606C93.6876 83.5443 90.8851 86.3956 87.1233 86.4427L86.9914 86.4443C83.2077 86.4917 80.3566 83.7112 80.3093 79.9275L80.2564 75.7038L83.2042 75.6669L83.2571 79.8906C83.2843 82.0684 84.7766 83.5238 86.9545 83.4966L87.0865 83.4949C89.2423 83.4679 90.7197 81.9753 90.6925 79.7975L90.6236 74.2979C90.5892 71.5482 92.6746 69.4099 95.4244 69.3755ZM84.6945 87.5072C85.6404 87.4953 86.4423 88.2774 86.4538 89.2013C86.4659 90.1692 85.6836 90.9491 84.7377 90.9609C83.7918 90.9727 82.9902 90.2127 82.9781 89.2448C82.9665 88.3209 83.7486 87.519 84.6945 87.5072ZM89.3801 87.4485C90.326 87.4367 91.1279 88.2187 91.1394 89.1427C91.1516 90.1106 90.3693 90.8904 89.4233 90.9023C88.4994 90.9138 87.6758 90.1541 87.6637 89.1861C87.6522 88.2622 88.4562 87.4601 89.3801 87.4485ZM111.173 77.517L113.548 77.4873L113.585 80.4351L102.124 80.5785L102.087 77.6307L108.247 77.5537L108.206 74.3199C108.19 73.044 107.299 72.1751 106.002 72.1913L103.098 72.2277L103.061 69.2799L105.965 69.2436C108.868 69.2072 111.096 71.3795 111.132 74.2833L111.173 77.517ZM115.54 68.5297C114.594 68.5415 113.792 67.7595 113.78 66.8136C113.768 65.8897 114.55 65.0658 115.496 65.054C116.442 65.0421 117.244 65.8462 117.256 66.7701C117.268 67.716 116.485 68.5179 115.54 68.5297ZM120.247 68.4708C119.301 68.4826 118.499 67.7006 118.488 66.7547C118.476 65.8307 119.258 65.0069 120.204 64.9951C121.128 64.9835 121.93 65.7875 121.941 66.7114C121.953 67.6574 121.171 68.4592 120.247 68.4708ZM113.18 80.4402L113.144 77.4924L116.575 77.4494C116.949 77.4448 117.43 77.1747 117.421 76.4928L117.34 69.9593L120.287 69.9224L120.383 77.5338C120.402 79.1177 119.186 80.365 117.602 80.3848L113.18 80.4402ZM128.406 73.7591C128.372 71.0753 130.545 68.8699 133.207 68.8366L133.559 68.8322C136.242 68.7986 138.448 70.9492 138.481 73.633L138.503 75.3489C138.535 77.9667 136.45 80.1049 133.832 80.1377L133.348 80.1437C130.62 80.1779 128.46 78.0928 128.426 75.365L128.406 73.7591ZM131.354 73.7222L131.373 75.3061C131.387 76.362 132.256 77.2312 133.312 77.218L133.928 77.2103C134.829 77.199 135.568 76.4197 135.556 75.5178L135.533 73.6699C135.519 72.548 134.695 71.7662 133.596 71.78L133.244 71.7844C132.144 71.7982 131.34 72.6003 131.354 73.7222ZM141.084 64.7777L144.01 64.7411L144.153 76.1582C144.161 76.8402 144.67 77.0978 145.044 77.0931L146.122 77.0797L146.159 80.0274L144.091 80.0533C142.529 80.0729 141.26 78.8566 141.24 77.2728L141.084 64.7777ZM145.616 80.0342L145.579 77.0865L147.625 77.0609C147.999 77.0562 148.479 76.7861 148.471 76.1042L148.389 69.5707L151.337 69.5338L151.432 77.1452C151.452 78.7291 150.213 79.9767 148.651 79.9962L145.616 80.0342ZM149.212 86.0837C148.266 86.0955 147.464 85.3135 147.452 84.3676C147.44 83.4437 148.222 82.6198 149.168 82.608C150.114 82.5961 150.916 83.4002 150.928 84.3241C150.94 85.27 150.158 86.0719 149.212 86.0837Z" fill="#012246"/>
<path opacity="0.4" d="M193.674 102.121C192.073 110.263 184.864 116.47 176.922 118.806C168.913 121.142 160.37 120.208 152.294 118.206C144.219 116.27 136.41 113.334 128.267 111.732C98.1669 105.925 67.5325 118.74 36.898 117.538C24.6175 117.071 10.9354 113.333 4.92866 102.655C2.19224 97.9161 1.45809 92.51 1.72506 87.1707C1.92528 90.975 2.85967 94.7125 4.72844 98.1164C10.535 108.328 23.6164 111.932 35.3629 112.399C64.5958 113.467 93.8954 101.253 122.594 106.793C130.403 108.328 137.878 111.131 145.62 113C153.296 114.869 161.505 115.803 169.113 113.6C176.722 111.331 183.663 105.391 185.131 97.5824C187.935 83.233 174.786 71.8201 174.92 57.1369C174.987 45.6573 189.536 32.4425 189.069 20.9629C189.158 21.1854 189.225 21.4301 189.269 21.697C192.34 34.2445 180.593 45.991 180.526 58.9389C180.46 74.2228 196.611 87.0372 193.674 102.121Z" fill="#05BEED"/>
<path fill-rule="evenodd" clip-rule="evenodd" d="M166.844 120.874C162.439 120.874 157.634 120.207 152.161 118.872C148.757 118.071 145.354 117.003 142.083 116.069C137.545 114.734 132.806 113.332 128.134 112.398C111.048 109.061 93.4285 111.864 76.4093 114.601C63.4614 116.603 50.1131 118.739 36.8982 118.205C27.7546 117.871 11.4029 115.468 4.32822 102.921C-0.0767342 95.2454 -0.076767 85.0339 4.12796 71.6188C7.39831 61.3406 6.99789 52.3972 6.19698 42.5194C5.52957 34.9776 5.46282 24.0987 11.87 16.8906C16.2082 12.0184 23.2161 9.2153 31.6923 8.94834C36.4978 8.81485 41.3032 9.34879 45.9083 9.94946C48.311 10.2164 50.7137 10.4834 53.1164 10.6836C69.6684 12.0852 86.4206 8.74811 102.572 5.61125C105.509 5.03282 108.445 4.45436 111.382 3.87594C130.67 0.27188 151.16 -2.19756 170.115 4.00943C176.388 6.07842 187.334 11.1508 189.937 21.4958C191.672 28.7039 188.736 35.645 185.866 42.4527C183.597 47.792 181.261 53.2649 181.194 58.9379C181.194 65.8791 184.598 72.4197 188.002 78.8269C191.873 86.2353 195.944 93.9106 194.342 102.187C192.807 110.062 186.066 116.803 177.123 119.473C173.919 120.407 170.515 120.874 166.844 120.874ZM111.315 109.528C117.055 109.528 122.728 109.995 128.334 111.063C133.14 111.998 137.878 113.399 142.417 114.801C145.687 115.735 149.091 116.736 152.428 117.537C162.306 119.94 169.981 120.14 176.722 118.205C185.198 115.668 191.606 109.328 193.007 101.986C194.542 94.1776 190.805 86.9695 186.8 79.4276C183.396 72.8869 179.859 66.146 179.859 58.8712C179.926 52.9979 182.329 47.3916 184.598 41.9187C187.534 35.0443 190.271 28.5704 188.602 21.8295C186.133 11.6847 174.52 6.87934 169.714 5.27754C151.027 -0.862705 130.737 1.60672 111.649 5.21077C108.712 5.74471 105.776 6.30089 102.839 6.87932C86.5541 10.0829 69.7352 13.42 53.0497 12.0184C50.5803 11.8182 48.1776 11.5513 45.7748 11.2843C41.1697 10.6836 36.431 10.1497 31.7591 10.2832C27.0871 10.4167 18.344 11.618 12.8712 17.7582C6.79766 24.5659 6.86438 35.1111 7.46505 42.3859C8.3327 52.3972 8.73316 61.5409 5.39607 72.0193C1.25808 85.034 1.32481 94.9117 5.4628 102.32C12.2037 114.2 28.0883 116.536 36.9649 116.87C50.0463 117.404 63.3279 115.268 76.2091 113.266C87.7554 111.397 99.5687 109.528 111.315 109.528Z" fill="#99E7FA"/>
<path d="M179.714 63.9157C183.203 60.9469 189.743 60.2915 193.166 55.7542C193.398 55.4473 193.327 55.0135 193.014 54.7907C187.327 50.7452 181.186 53.3663 177.877 51.311" stroke="#99E7FA" stroke-width="1.48829" stroke-linejoin="round"/>
<path d="M181.5 61.9917C181.415 57.6579 182.498 52.9798 182.498 52.9798C176 53.4918 176.501 49 176 49.9931C170.139 61.6146 166.294 73.7037 176.501 66.9993C176.501 63.5006 180.78 62.1846 181.5 61.9917Z" fill="white"/>
</svg>
