<svg width="204" height="229" viewBox="0 0 204 229" fill="none" xmlns="http://www.w3.org/2000/svg">
<path d="M173.471 132.86C192.968 145.065 168.351 152.409 164.679 161.459C163.128 165.183 163.903 166.114 173.523 164.769C207.138 160.063 217.016 118.432 181.021 102.451C161.163 93.6598 168.713 129.913 173.471 132.86Z" fill="#00C4F6"/>
<g opacity="0.6">
<path opacity="0.3" d="M173.472 132.861C170.11 130.792 166.904 116.363 168.921 108.141C179.781 115.846 187.538 128.827 182.936 142.221C181.074 147.755 175.127 151.116 172.541 156.34C171.403 158.563 171.041 161.563 172.903 162.649C173.799 163.304 174.747 163.89 175.747 164.407C175.023 164.545 174.282 164.666 173.523 164.769C163.904 166.114 163.18 165.183 164.68 161.46C168.3 152.409 192.969 145.066 173.472 132.861Z" fill="#1C7FB3"/>
</g>
<path d="M187.383 115.639C189.4 116.983 191.158 118.586 192.554 120.552C193.796 122.206 194.675 124.327 196.175 125.827C196.743 126.395 197.571 125.93 197.623 125.206C197.829 122.672 196.226 120.138 194.727 118.224C193.123 116.104 191.21 114.397 188.986 112.898C187.279 111.76 185.728 114.501 187.383 115.639Z" fill="#A8E1FF"/>
<path d="M197.468 131.619C197.727 133.946 197.365 136.273 197.778 138.549C197.882 139.118 198.761 139.221 199.071 138.704C200.261 136.48 199.847 133.791 199.433 131.36C199.226 130.274 197.365 130.533 197.468 131.619Z" fill="#A8E1FF"/>
<path d="M99.1552 132.653C78.624 142.996 102.465 152.615 105.309 161.976C106.499 165.803 105.671 166.63 96.2074 164.406C63.161 156.649 57.1619 114.294 94.5008 101.675C115.032 94.745 104.223 130.17 99.1552 132.653Z" fill="#00C4F6"/>
<g opacity="0.6">
<path opacity="0.3" d="M99.1545 132.654C102.723 130.895 107.222 116.829 105.981 108.451C94.4484 115.122 85.5533 127.379 88.9148 141.083C90.2077 146.824 95.8447 150.703 97.9651 156.133C98.896 158.46 98.9477 161.459 97.0342 162.39C96.0688 162.942 95.069 163.425 94.0347 163.838C94.7587 164.045 95.4827 164.235 96.2068 164.407C105.671 166.631 106.446 165.804 105.309 161.977C102.568 152.616 78.6233 142.997 99.1545 132.654Z" fill="#1C7FB3"/>
</g>
<path d="M85.3985 111.397C83.0713 112.69 80.8992 114.345 79.1409 116.362C77.5377 118.068 75.8311 120.395 75.8311 122.878C75.8311 123.705 76.762 123.964 77.3308 123.498C78.9857 122.102 80.0717 119.982 81.5715 118.379C83.123 116.672 84.9848 115.276 87.0017 114.138C88.8117 113.207 87.2086 110.466 85.3985 111.397Z" fill="#A8E1FF"/>
<path d="M73.4522 128.878C72.7799 131.205 72.2111 133.843 73.1937 136.17C73.4522 136.79 74.3314 136.532 74.4866 136.015C75.1071 133.894 74.9003 131.567 75.3657 129.395C75.6243 128.154 73.8142 127.637 73.4522 128.878Z" fill="#A8E1FF"/>
<path d="M177.299 88.1251C177.04 91.2281 176.782 94.8999 176.523 98.882C173.575 141.961 166.956 228.999 88.3993 228.999C57.6284 228.999 27.116 192.798 49.2504 200.4C99.3631 217.622 103.862 188.919 99.3631 98.3132C99.1907 94.8654 99.0011 91.297 98.7943 87.608C99.9665 85.9186 101.242 84.4016 102.621 83.057C119.843 65.8356 150.096 75.5582 166.335 82.6432C173.007 85.5911 177.299 88.1251 177.299 88.1251Z" fill="#00C4F6"/>
<path d="M166.696 97.228C166.024 127.896 159.611 181.215 130.34 203.039C101.12 224.863 92.1734 216.743 105.464 191.092C119.324 164.459 113.015 116.156 108.412 92.4701C103.809 68.836 166.696 97.228 166.696 97.228Z" fill="#A8E1FF"/>
<path opacity="0.2" d="M177.299 88.126C177.04 91.229 176.782 94.9008 176.523 98.8829C166.438 110.984 150.406 118.018 134.633 116.88C120.98 115.949 107.999 108.916 99.3628 98.3141C99.1904 94.8663 99.0008 91.2979 98.7939 87.6089C99.9662 85.9195 101.242 84.4025 102.621 83.0579C123.618 79.1792 145.442 78.3517 166.335 82.6442C173.006 85.592 177.299 88.126 177.299 88.126Z" fill="#1C7FB3"/>
<path d="M117.566 163.579C116.945 166.837 116.221 170.043 115.29 173.25C114.463 176.094 113.17 179.559 113.273 182.507C113.325 183.386 114.359 183.851 114.98 183.231C117.152 181.059 118.393 177.232 119.169 174.284C120.048 170.922 120.617 167.509 120.979 164.044C121.238 162.079 117.928 161.665 117.566 163.579Z" fill="#E0F5FF"/>
<path d="M110.275 189.85C109.913 190.936 109.551 192.022 109.344 193.159C109.137 194.194 108.827 195.176 109.086 196.211C109.241 196.935 110.068 196.986 110.585 196.624C111.465 195.9 111.775 194.866 112.292 193.935C112.809 192.901 113.171 191.866 113.585 190.78C114.309 188.66 110.999 187.781 110.275 189.85Z" fill="#E0F5FF"/>
<path d="M47.078 199.936C50.2327 196.213 52.3531 188.559 50.9567 180.749C49.1467 170.199 41.079 160.787 35.8557 157.684C30.2187 165.028 28.2017 175.061 30.0635 185.611C31.8736 196.109 36.528 204.539 41.441 203.711L47.078 199.936Z" fill="#00C4F6"/>
<path d="M37.303 190.834C35.3895 189.799 33.2174 188.92 30.8385 188.299C29.4594 187.92 28.0286 187.662 26.5461 187.524C15.8926 186.438 4.67022 191.609 0.222656 195.798C5.75626 203.194 14.8583 207.848 25.5117 208.986C33.8897 209.813 41.1816 206.71 44.026 203.09L37.303 190.834Z" fill="#00C4F6"/>
<path d="M30.3739 191.764C26.702 191.04 21.6856 189.385 18.4275 192.022C17.9621 192.384 18.2206 193.108 18.7378 193.212C20.4961 193.677 22.3062 193.419 24.1162 193.419C26.1332 193.419 28.1501 193.419 30.1153 193.522C31.0979 193.574 31.3565 191.971 30.3739 191.764Z" fill="#A8E1FF"/>
<path d="M12.739 192.851C12.2218 193.006 11.7047 193.161 11.1875 193.316C10.6186 193.523 10.1532 193.885 9.63602 194.195C9.11886 194.505 8.86027 195.126 9.01542 195.643C9.17057 196.16 9.73945 196.678 10.2566 196.626C10.4635 196.574 10.7738 196.522 10.9806 196.471C11.1185 196.505 11.2565 196.54 11.3944 196.574C11.6012 196.54 11.8081 196.488 12.0149 196.419C12.5321 196.264 13.0493 196.057 13.5664 195.85C14.3939 195.592 14.911 194.816 14.6525 193.937C14.4456 193.161 13.5664 192.592 12.739 192.851Z" fill="#A8E1FF"/>
<path d="M135.874 1.65708C136.184 0.881345 136.701 0.0538923 137.529 0.00217637C138.408 -0.0495395 139.029 0.829629 139.442 1.65708C141.408 5.63921 143.011 9.87991 144.2 14.224L132.254 14.3275C132.926 9.98334 134.116 5.74264 135.874 1.65708Z" fill="#00C4F6"/>
<path d="M101.069 95.0559C119.118 104.416 152.216 105.192 172.334 95.6765C190.331 87.195 192.399 73.1283 184.332 62.5783C181.642 59.0616 180.143 54.7692 180.194 50.3216C180.401 27.7218 160.646 10.5004 137.218 10.5004C112.188 10.5521 93.5702 29.8938 94.2943 50.3733C94.3977 54.8726 93.0531 59.2685 90.3638 62.8886C82.7616 73.0766 84.4682 86.5227 101.069 95.0559Z" fill="#00C4F6"/>
<path d="M161.266 52.338C166.903 52.338 171.454 56.889 171.454 62.526C171.454 68.1114 166.903 72.6624 161.266 72.6624C155.681 72.6624 151.13 68.1114 151.13 62.526C151.13 56.889 155.681 52.338 161.266 52.338Z" fill="white"/>
<path fill-rule="evenodd" clip-rule="evenodd" d="M161.267 73.2319C155.371 73.2319 150.562 68.4223 150.562 62.5267C150.562 56.6311 155.371 51.7698 161.267 51.7698C167.214 51.7698 171.972 56.5794 172.024 62.475C172.024 68.4223 167.214 73.2319 161.318 73.2319C161.318 73.2319 161.301 73.2319 161.267 73.2319ZM161.267 52.9075C155.992 52.9075 151.648 57.1999 151.699 62.5267C151.699 67.8017 155.992 72.0941 161.267 72.0941C161.267 72.0941 161.284 72.0941 161.318 72.0941C163.853 72.0941 166.283 71.1115 168.093 69.3015C169.903 67.4914 170.886 65.0608 170.886 62.475C170.886 57.1999 166.593 52.9075 161.267 52.9075Z" fill="black"/>
<path d="M151.75 63.3529C151.802 67.4902 155.112 70.8 159.249 70.8C163.386 70.8 166.748 67.4385 166.696 63.3012C166.696 59.2157 163.386 55.8541 159.249 55.8541C157.077 55.8541 155.112 56.785 153.715 58.2848C156.404 59.7845 158.111 61.8532 157.49 62.9909C156.87 64.077 154.388 63.9218 151.802 62.6289C151.767 62.8703 151.75 63.1116 151.75 63.3529Z" fill="black"/>
<path d="M112.136 52.5975C117.618 51.5115 122.945 55.1316 124.031 60.6135C125.117 66.1471 121.497 71.4738 115.963 72.5598C110.481 73.6459 105.155 70.0257 104.068 64.4921C102.982 59.0103 106.603 53.6835 112.136 52.5975Z" fill="white"/>
<path fill-rule="evenodd" clip-rule="evenodd" d="M114.049 73.2837C108.154 73.2837 103.344 68.4741 103.344 62.5785C103.292 56.6829 108.102 51.8733 114.049 51.8733C119.945 51.8733 124.755 56.6312 124.755 62.5785C124.755 68.4741 119.997 73.2837 114.049 73.2837ZM114.049 52.9593C108.723 52.9593 104.43 57.3035 104.43 62.5785C104.43 67.8535 108.774 72.1976 114.049 72.1976C119.376 72.1459 123.669 67.8535 123.669 62.5785C123.669 59.9927 122.634 57.562 120.824 55.752C119.014 53.9419 116.583 52.9593 114.049 52.9593Z" fill="black"/>
<path d="M108.62 63.4038C108.62 67.5411 111.982 70.8509 116.119 70.8509C120.204 70.8509 123.566 67.4894 123.566 63.3521C123.566 59.2666 120.204 55.905 116.067 55.905C113.895 55.905 111.93 56.8359 110.585 58.3357C113.275 59.8354 114.929 61.9041 114.309 63.0418C113.74 64.1279 111.258 63.9727 108.672 62.6798C108.637 62.9211 108.62 63.1625 108.62 63.4038Z" fill="black"/>
<path d="M123.618 17.3787C119.946 18.8267 116.584 20.7919 113.585 23.326C112.137 24.6189 110.792 26.0152 109.758 27.6184C108.775 29.1182 107.431 30.7731 107.379 32.6349C107.379 33.5658 108.413 34.1346 109.189 33.6692C110.585 32.8417 111.413 31.2385 112.55 30.1008C113.74 28.8596 114.929 27.6184 116.222 26.429C118.808 23.9983 121.808 22.0848 125.014 20.6885C126.876 19.861 125.531 16.6029 123.618 17.3787Z" fill="#A8E1FF"/>
<path d="M104.741 38.0652C103.966 39.8753 102.776 42.1508 103.397 44.1677C103.604 44.7366 104.224 44.84 104.638 44.5297C106.189 43.2885 106.655 40.9096 107.431 39.1512C108.206 37.2378 105.517 36.1 104.741 38.0652Z" fill="#A8E1FF"/>
<path d="M147.199 69.1464C147.458 69.2498 175.384 69.1464 175.384 69.1464L165.92 78.5587H153.56L147.199 69.1464Z" fill="#00C4F6"/>
<path d="M173.937 69.7143H149.941C149.631 69.7143 149.372 69.4557 149.372 69.1454C149.372 68.8351 149.631 68.5765 149.941 68.5765H173.937C174.196 68.5765 174.454 68.8351 174.454 69.1454C174.454 69.4557 174.196 69.7143 173.937 69.7143Z" fill="black"/>
<path d="M98.7412 69.1464C98.9998 69.2498 126.926 69.1464 126.926 69.1464L117.514 78.5587H105.102L98.7412 69.1464Z" fill="#00C4F6"/>
<path d="M125.479 69.7143H101.483C101.173 69.7143 100.914 69.4557 100.914 69.1454C100.914 68.8351 101.173 68.5765 101.483 68.5765H125.479C125.789 68.5765 126.048 68.8351 126.048 69.1454C126.048 69.4557 125.789 69.7143 125.479 69.7143Z" fill="black"/>
<path d="M148.855 50.9412C149.32 51.9238 151.13 50.9412 153.406 49.8552C155.681 48.7692 157.595 47.9934 157.13 47.0626C156.664 46.08 154.027 45.3042 151.751 46.3902C149.476 47.4246 148.39 49.9586 148.855 50.9412Z" fill="#00B0DF"/>
<path d="M118.652 46.8571C118.186 47.8397 120.048 48.6672 122.324 49.8049C124.548 50.9427 126.358 51.977 126.823 51.0461C127.288 50.0635 126.306 47.5294 124.082 46.3917C121.807 45.2022 119.169 45.9262 118.652 46.8571Z" fill="#00B0DF"/>
<path d="M100.707 95.0541C119.48 104.777 153.457 105.035 173.057 95.1575C176.108 90.7099 176.522 85.9004 175.022 82.2285C173.833 79.229 171.144 76.7467 167.937 76.1778C162.352 75.1952 156.198 79.953 151.026 77.2121C146.527 74.8332 142.183 73.0231 136.908 73.1265C131.684 73.23 127.185 74.7814 122.789 77.2638C117.773 80.0565 111.464 75.2986 105.878 76.2812C102.672 76.8501 99.9827 79.3324 98.7932 82.332C97.3452 85.9521 97.7589 90.7099 100.707 95.0541Z" fill="#A8E1FF"/>
<path d="M121.858 78.9199C121.703 78.9199 121.548 78.8165 121.393 78.713C121.238 78.4544 121.238 78.0924 121.496 77.8856C125.737 74.4723 131.116 72.6106 136.546 72.5588C136.58 72.5588 136.597 72.5588 136.597 72.5588C142.079 72.5588 147.406 74.4723 151.647 77.8339C151.905 78.0407 151.957 78.4027 151.75 78.6096C151.543 78.8682 151.181 78.9199 150.974 78.713C146.889 75.4549 141.769 73.6966 136.546 73.6966C131.374 73.6966 126.254 75.5066 122.22 78.7647C122.117 78.8682 121.996 78.9199 121.858 78.9199Z" fill="#00B0DF"/>
<path d="M136.08 98.0556C133.133 98.0556 130.236 97.5384 127.547 96.5041C127.237 96.4007 127.082 96.0904 127.185 95.8318C127.34 95.5215 127.651 95.3663 127.909 95.4698C132.926 97.3833 138.614 97.435 143.631 95.6766C143.941 95.5732 144.251 95.7284 144.355 96.0387C144.458 96.2972 144.303 96.6075 144.045 96.711C141.511 97.6418 138.77 98.0556 136.08 98.0556Z" fill="#1475A8"/>
<path d="M137.424 76.1798C134.528 76.0764 129.719 76.2316 127.96 78.9725C127.443 79.8 128.167 80.7308 129.046 80.7826C130.391 80.9377 131.684 80.162 132.977 79.8C134.476 79.3862 135.924 79.0759 137.424 78.9725C139.234 78.8691 139.234 76.2833 137.424 76.1798Z" fill="#E0F5FF"/>
<path d="M128.168 90.9176C127.961 90.9176 127.754 90.8142 127.651 90.5556C127.547 90.297 127.702 89.9867 127.961 89.8833C135.305 87.1423 143.01 85.746 150.819 85.6426C151.13 85.6426 151.388 85.9012 151.388 86.2114C151.388 86.5217 151.13 86.7803 150.819 86.7803C143.165 86.8838 135.615 88.2801 128.375 90.9176C128.306 90.9176 128.237 90.9176 128.168 90.9176Z" fill="black"/>
<path d="M131.477 169.216C135.563 167.044 139.079 164.562 142.389 161.355C144.044 147.495 143.579 133.377 141.045 119.672C139.131 119.569 136.907 119.62 134.994 119.517C135.201 132.291 133.08 145.116 128.633 157.063C129.667 161.303 130.443 164.975 131.477 169.216Z" fill="#DE387D"/>
<path fill-rule="evenodd" clip-rule="evenodd" d="M131.479 169.734C131.375 169.734 131.289 169.717 131.22 169.682C131.065 169.631 130.962 169.475 130.91 169.32C130.393 167.2 129.927 165.183 129.513 163.27C129.048 161.304 128.583 159.287 128.065 157.167C128.065 157.064 128.083 156.96 128.117 156.857C132.461 145.221 134.685 132.343 134.478 119.57C134.426 119.414 134.53 119.259 134.633 119.156C134.737 119.052 134.892 118.949 135.047 119.001C135.978 119.001 137.012 119.001 138.047 119.052C139.029 119.052 140.115 119.052 141.046 119.104C141.305 119.104 141.512 119.311 141.563 119.57C144.149 133.378 144.615 147.444 142.96 161.408C142.925 161.546 142.873 161.649 142.804 161.718C139.443 164.924 135.926 167.458 131.737 169.682C131.634 169.717 131.548 169.734 131.479 169.734ZM129.203 157.115C129.72 159.132 130.134 161.097 130.6 163.011C130.962 164.718 131.375 166.528 131.841 168.338C135.616 166.321 138.822 163.994 141.874 161.097C143.477 147.444 143.063 133.688 140.581 120.19C139.753 120.19 138.874 120.138 137.995 120.138C137.219 120.138 136.34 120.138 135.564 120.087C135.719 132.757 133.496 145.531 129.203 157.115Z" fill="#6B1B3D"/>
<path d="M134.581 122.413L141.873 121.947C142.855 121.844 143.631 121.068 143.683 120.086L143.942 113.57C143.993 112.432 143.062 111.501 141.925 111.553L133.133 112.121C131.995 112.225 131.168 113.259 131.375 114.397L132.512 120.81C132.719 121.792 133.598 122.465 134.581 122.413Z" fill="#DE387D"/>
<path fill-rule="evenodd" clip-rule="evenodd" d="M134.426 122.982C133.236 122.982 132.202 122.103 131.995 120.913L130.857 114.501C130.702 113.828 130.909 113.104 131.323 112.536C131.736 111.967 132.409 111.656 133.133 111.605L141.873 110.984C142.597 110.932 143.269 111.191 143.786 111.708C144.303 112.225 144.562 112.898 144.51 113.622L144.252 120.086C144.2 121.379 143.166 122.413 141.924 122.465L134.581 122.982C134.546 122.982 134.495 122.982 134.426 122.982ZM142.028 112.122C141.993 112.122 141.959 112.122 141.924 112.122L133.184 112.691C132.822 112.742 132.46 112.898 132.202 113.208C131.943 113.518 131.84 113.932 131.943 114.294L133.081 120.707C133.184 121.431 133.805 121.896 134.529 121.844L141.821 121.379C142.545 121.327 143.062 120.758 143.114 120.034L143.424 113.57C143.424 113.156 143.269 112.794 143.01 112.484C142.752 112.277 142.39 112.122 142.028 112.122Z" fill="#6B1B3D"/>
<path d="M122.84 107.468L138.614 111.45L131.994 120.242L118.651 110.778L122.84 107.468Z" fill="white"/>
<path fill-rule="evenodd" clip-rule="evenodd" d="M131.996 120.81C131.892 120.81 131.789 120.776 131.685 120.707L118.343 111.243C118.187 111.139 118.084 110.932 118.084 110.777C118.084 110.622 118.187 110.415 118.291 110.312L122.48 107.054C122.635 106.95 122.79 106.899 122.997 106.95L138.77 110.932C138.925 110.984 139.081 111.088 139.132 111.294C139.184 111.45 139.184 111.656 139.081 111.812L132.461 120.603C132.358 120.758 132.151 120.81 131.996 120.81ZM119.584 110.725L131.892 119.465L137.684 111.812L122.997 108.088L119.584 110.725Z" fill="#1475A8"/>
<path d="M154.44 107.726L138.615 111.449L145.08 120.344L158.578 111.087L154.44 107.726Z" fill="white"/>
<path fill-rule="evenodd" clip-rule="evenodd" d="M145.079 120.912C144.924 120.912 144.769 120.809 144.665 120.705L138.149 111.759C138.046 111.655 138.046 111.448 138.097 111.241C138.149 111.086 138.304 110.931 138.511 110.931L154.336 107.156C154.491 107.156 154.647 107.156 154.802 107.311L158.939 110.621C159.094 110.724 159.146 110.879 159.146 111.086C159.146 111.241 159.042 111.397 158.887 111.5L145.389 120.809C145.286 120.878 145.183 120.912 145.079 120.912ZM139.545 111.81L145.234 119.568L157.646 111.035L154.285 108.345L139.545 111.81Z" fill="#1475A8"/>
<path d="M61.5278 23H40.7421C40.3634 23 40.0248 23.2363 39.8942 23.5918L31.4462 46.5892C31.2296 47.1787 31.666 47.8039 32.2941 47.8039H39.515C39.8144 47.8039 40.031 48.0899 39.9497 48.3781L34.6178 67.2821C34.5721 67.4441 34.6202 67.6197 34.7468 67.7308C36.2627 69.0617 37.3261 68.8662 39.0668 67.57C39.0881 67.5541 39.1083 67.536 39.1264 67.5167L67.0367 37.6816C67.5766 37.1045 67.1674 36.1612 66.3771 36.1612H58.004C57.6806 36.1612 57.462 35.8314 57.588 35.5336L62.3597 24.2552C62.6116 23.6597 62.1745 23 61.5278 23Z" fill="#DE387D" stroke="#6B1B3D"/>
<path d="M42.1547 26.3797C42.2202 26.2023 42.3893 26.0845 42.5784 26.0845L45.8403 26.0844C46.1547 26.0844 46.3729 26.3975 46.264 26.6924L40.7286 41.6852C40.6631 41.8626 40.4941 41.9804 40.305 41.9804L37.0431 41.9805C36.7287 41.9805 36.5105 41.6674 36.6194 41.3725L42.1547 26.3797Z" fill="white"/>
</svg>
