<svg width="236" height="290" viewBox="0 0 236 290" fill="none" xmlns="http://www.w3.org/2000/svg">
<path d="M77.7387 170.94C40.1959 170.811 33.011 193.336 27.7033 188.093C25.1141 185.439 24.7905 181.556 26.2145 176.96C31.1339 160.843 56.896 135.857 74.6964 125.112C77.6092 123.365 80.3278 122.005 82.6581 121.099C88.5484 117.345 92.4968 168.157 77.7387 170.94Z" fill="#00C4F6"/>
<path d="M62.2679 139.613C58.902 142.072 55.6008 144.597 52.4938 147.38C49.581 149.969 46.5387 153.27 44.9205 156.895C44.5321 157.737 45.3736 158.708 46.2151 158.19C49.6457 156.377 52.688 153.529 55.4713 150.876C58.5136 148.157 61.4911 145.374 64.6628 142.784C66.4105 141.36 64.0803 138.253 62.2679 139.613Z" fill="#A8E1FF"/>
<path opacity="0.6" d="M77.7387 170.94C40.1959 170.811 33.011 193.336 27.7033 188.093C25.1141 185.439 24.7905 181.556 26.2145 176.96C28.0917 176.636 30.2924 177.025 32.2343 177.089C37.801 177.284 42.9146 174.371 47.3161 171.07C52.0413 167.574 56.3134 163.432 60.003 158.771C66.5406 150.68 71.2658 141.1 73.7902 131.003C74.1786 129.32 74.3728 127.184 74.6964 125.112C77.6092 123.365 80.3278 122.005 82.6581 121.099C88.5484 117.345 92.4968 168.157 77.7387 170.94Z" fill="#08BAE8"/>
<path d="M38.9657 161.619C38.189 162.526 37.3475 163.432 36.6355 164.403C36.0529 165.244 35.1467 166.733 36.0529 167.639C36.9591 168.545 38.1242 167.51 38.8363 166.927C39.8719 166.215 40.6487 165.05 41.4254 164.079C42.0727 163.367 42.1374 162.331 41.4254 161.619C40.8429 160.972 39.613 160.907 38.9657 161.619Z" fill="#A8E1FF"/>
<path d="M187.972 252.887C174.315 257.612 160.657 263.891 148.1 271.787C75.9916 231.914 79.2928 159.224 78.0629 120.516C77.9766 118.056 77.8687 115.726 77.7393 113.525C77.7393 113.525 91.3971 104.593 108.939 98.12C133.277 89.1874 159.945 86.8571 174.185 108.347C173.84 112.835 173.538 117.215 173.279 121.487C168.489 199.421 175.868 233.209 187.972 252.887Z" fill="#00C4F6"/>
<path d="M173.213 258.646C169.804 260.114 166.438 261.689 163.115 263.372C157.225 261.365 148.681 255.993 137.094 246.995C103.435 220.78 90.0364 160.906 90.0364 118.444C90.0364 118.444 168.488 84.979 162.209 114.107C155.607 144.594 156.837 198.902 168.164 232.949C172.177 244.859 173.99 253.468 173.213 258.646Z" fill="#A8E1FF"/>
<path opacity="0.2" d="M174.185 108.347C173.84 112.834 173.538 117.214 173.279 121.487C162.34 134.368 146.028 142.782 129.134 143.559C109.78 144.53 90.2319 135.533 78.0629 120.516C77.9766 118.056 77.8687 115.726 77.7393 113.525C77.7393 113.525 91.397 104.592 108.939 98.1195C129.134 96.566 149.653 98.4431 169.525 102.521C171.208 104.204 172.761 106.146 174.185 108.347Z" fill="#1C7FB3"/>
<path d="M151.595 202.398C151.918 206.67 152.566 210.942 153.601 215.15C154.443 218.775 155.867 223.5 158.521 226.218C159.298 227.06 160.592 226.413 160.657 225.377C160.851 221.687 159.298 217.351 158.391 213.79C157.356 209.842 156.449 205.829 155.802 201.816C155.414 199.421 151.336 199.938 151.595 202.398Z" fill="#E0F5FF"/>
<path d="M160.074 235.605C160.527 236.964 160.98 238.259 161.627 239.553C162.21 240.718 162.598 242.013 163.634 242.854C164.281 243.372 165.252 243.243 165.511 242.401C165.835 241.107 165.511 239.877 165.252 238.582C164.993 237.158 164.605 235.864 164.152 234.504C163.31 231.915 159.232 233.015 160.074 235.605Z" fill="#E0F5FF"/>
<path d="M122.013 2.38558C121.625 1.47937 120.978 0.378976 119.942 0.314247C118.842 0.249519 118.13 1.34992 117.612 2.38558C115.152 7.3697 113.21 12.548 111.786 17.9205L126.544 18.05C125.703 12.6775 124.214 7.3697 122.013 2.38558Z" fill="#00C4F6"/>
<path d="M164.669 118.317C153.277 123.818 137.936 131.327 121.042 131.392C104.407 131.392 89.2601 124.142 77.8678 118.77C55.6658 108.413 52.9472 91.0656 62.9155 77.9257C66.2167 73.5889 68.0291 68.2811 67.9643 62.7791C67.3818 35.9814 90.9431 13.391 120.913 13.3263C151.141 13.2616 174.573 36.1109 174.12 62.3908C174.055 67.9574 175.738 73.3947 179.039 77.7962C188.684 90.6773 186.418 107.701 164.669 118.317Z" fill="#00C4F6"/>
<path d="M158.558 82.6585C158.053 82.6585 157.548 82.3698 157.259 81.8646C154.084 75.5858 150.187 72.5546 145.712 72.4103C145.616 72.4103 145.544 72.4103 145.495 72.4103C141.093 72.4103 137.484 75.2971 134.67 81.215C134.381 81.9367 133.515 82.2976 132.793 81.9367C132.072 81.5759 131.711 80.7098 132.072 79.9881C135.392 72.9876 139.938 69.5234 145.495 69.5234C145.592 69.5234 145.664 69.5234 145.712 69.5234C151.341 69.6678 156.177 73.3485 159.857 80.5655C160.218 81.2872 159.929 82.1533 159.208 82.5141C159.015 82.6103 158.799 82.6585 158.558 82.6585Z" fill="black"/>
<path d="M166.029 117.667C165.555 117.883 165.102 118.098 164.67 118.314C150.559 125.175 136.772 131.325 121.043 131.389C105.379 131.389 91.5913 125.24 77.8687 118.767C77.4372 118.595 77.0057 118.379 76.5742 118.12C72.6904 112.683 72.1726 106.728 73.985 102.197C75.4738 98.4424 78.7749 95.4002 82.7881 94.6882C89.6494 93.4583 97.2874 99.2839 103.631 95.8533C109.197 92.8757 114.635 90.6749 121.108 90.7397C127.58 90.8691 133.082 92.6815 138.584 95.7885C144.798 99.2191 152.566 93.2641 159.492 94.4939C167.907 95.9827 173.02 107.051 166.029 117.667Z" fill="#A8E1FF"/>
<path d="M90.9029 65.9868C97.7155 65.9868 103.203 71.1652 103.203 77.5341C103.203 83.9029 97.7155 89.0813 90.9029 89.0813C84.1534 89.0813 78.6655 83.9029 78.6655 77.5341C78.6655 71.1652 84.1534 65.9868 90.9029 65.9868Z" fill="white"/>
<path fill-rule="evenodd" clip-rule="evenodd" d="M90.8792 89.148C87.3839 89.148 84.0827 88.5105 81.623 86.0508C79.0986 83.5263 77.6746 82.3903 77.6746 78.8302C77.6746 75.3348 79.0339 72.0336 81.5583 69.5092C84.018 66.9848 87.3191 65.6255 90.8792 65.6255C94.4393 65.6255 97.7405 66.9848 100.2 69.4445C102.725 71.9689 104.084 75.2701 104.149 78.7654C104.149 86.0798 98.2583 89.148 90.944 89.148C90.944 89.148 90.9224 89.148 90.8792 89.148ZM90.8792 66.9201C87.7075 66.9201 84.73 68.1499 82.4645 70.4154C80.199 72.6809 78.9691 75.6585 78.9691 78.8302C78.9691 82.0666 80.2637 82.879 82.5292 85.0798C84.73 87.3453 87.7075 87.8535 90.8792 87.8535C90.9224 87.8535 90.944 87.8535 90.944 87.8535C97.5463 87.8535 102.854 85.3678 102.854 78.7654C102.789 75.5937 101.559 72.6162 99.294 70.3507C97.0932 68.1499 94.0509 66.9201 90.8792 66.9201Z" fill="black"/>
<path d="M102.659 79.8028C102.659 84.9164 98.581 89.059 93.4674 89.059C88.3538 89.059 84.2112 84.9811 84.2112 79.8675C84.1465 74.754 88.2891 70.6113 93.4027 70.6113C96.1213 70.6113 98.5163 71.7117 100.199 73.5888C96.8981 75.4012 94.8268 77.9904 95.6035 79.4144C96.3802 80.7737 99.4225 80.5148 102.659 78.8966C102.659 79.1987 102.659 79.5008 102.659 79.8028Z" fill="black"/>
<path d="M98.3224 58.5069C98.3224 59.8014 92.7389 58.7696 92.7389 58.7696C92.7389 58.7696 86.9949 59.8662 86.9949 58.5069C86.9949 57.2123 89.5193 54.9468 92.6263 54.9468C95.798 54.9468 98.3224 57.2123 98.3224 58.5069Z" fill="#00B0DF"/>
<path d="M150.798 61.2627C150.798 62.5573 148.273 62.4926 145.102 62.4926C141.995 62.4926 139.47 62.6221 139.47 61.3275C139.47 59.9682 141.995 57.7026 145.102 57.7026C148.209 57.7026 150.798 59.9681 150.798 61.2627Z" fill="#00B0DF"/>
<path d="M103.307 97.7968C103.113 97.7968 102.918 97.6673 102.789 97.5378C102.595 97.2789 102.659 96.8258 102.918 96.6316C108.161 92.3595 114.764 90.0293 121.496 90.0293C121.539 90.0293 121.56 90.0293 121.56 90.0293C128.292 90.0293 134.894 92.3595 140.137 96.5669C140.461 96.7611 140.461 97.1495 140.267 97.4731C140.008 97.732 139.62 97.7967 139.361 97.5378C134.312 93.5246 128.033 91.3239 121.56 91.3239C121.56 91.3239 121.539 91.3239 121.496 91.3239C115.087 91.3239 108.744 93.5894 103.76 97.6026C103.63 97.732 103.479 97.7968 103.307 97.7968Z" fill="#00B0DF"/>
<path d="M120.265 108.8C102.594 108.8 92.1084 106.858 80.8456 96.5663C80.5866 96.3721 80.5866 95.9191 80.8456 95.6601C81.0397 95.4012 81.4929 95.4012 81.7518 95.6601C92.7557 105.758 103.177 107.57 120.977 107.506C140.784 107.441 152.565 103.687 159.167 95.3365C159.362 95.0776 159.75 95.0128 160.074 95.2717C160.333 95.4659 160.397 95.8543 160.138 96.178C151.4 107.247 134.635 108.735 120.977 108.8C120.762 108.8 120.524 108.8 120.265 108.8Z" fill="black"/>
<path d="M164.67 98.314C164.497 98.314 164.346 98.2708 164.217 98.1845C162.339 96.3721 157.226 94.495 152.824 95.7895C152.501 95.919 152.112 95.7248 151.983 95.3365C151.918 95.0128 152.112 94.6244 152.436 94.5597C157.355 93.071 162.987 95.1423 165.123 97.2136C165.382 97.4725 165.382 97.9256 165.123 98.1198C164.993 98.2493 164.799 98.314 164.67 98.314Z" fill="black"/>
<path d="M76.0559 99.8031C75.8833 99.8031 75.7323 99.7599 75.6028 99.6736C75.3439 99.4147 75.3439 99.0264 75.5381 98.7675C77.4152 96.6961 79.6807 95.2721 81.9462 94.7543C84.4059 94.107 86.9951 94.4306 89.5195 94.819C89.8431 94.8837 90.102 95.2074 90.0373 95.531C89.9726 95.9194 89.6489 96.1783 89.2606 96.1135C86.9303 95.7252 84.4706 95.4663 82.2699 95.9841C80.1985 96.5019 78.192 97.7965 76.509 99.6089C76.3796 99.7384 76.1854 99.8031 76.0559 99.8031Z" fill="black"/>
<path d="M120.978 126.536C117.872 126.536 114.829 126.018 111.916 124.918C111.593 124.788 111.399 124.4 111.528 124.076C111.658 123.753 112.046 123.558 112.37 123.688C118.13 125.889 124.733 125.759 130.429 123.364C130.753 123.235 131.141 123.429 131.27 123.753C131.4 124.076 131.206 124.465 130.882 124.594C127.775 125.889 124.344 126.536 120.978 126.536Z" fill="#00B0DF"/>
<path d="M140.914 106.34C131.011 111.712 130.622 118.25 120.978 118.703C111.398 119.091 108.679 111.583 99.4878 106.34C106.025 107.57 113.599 108.152 120.978 108.152C128.357 108.088 134.377 107.57 140.914 106.34Z" fill="#961662"/>
<path fill-rule="evenodd" clip-rule="evenodd" d="M120.265 119.35C114.374 119.35 111.009 116.373 107.19 112.942C104.924 111 102.464 108.799 99.1632 106.922C98.9043 106.728 98.7748 106.404 98.9043 106.081C98.969 105.822 99.2927 105.628 99.6163 105.692C105.766 106.858 113.145 107.505 120.977 107.505C128.55 107.44 134.44 106.922 140.784 105.692C141.043 105.628 141.366 105.757 141.496 106.081C141.625 106.404 141.496 106.728 141.172 106.858C137.224 109.058 134.829 111.389 132.693 113.46C129.651 116.502 126.997 119.091 121.042 119.35C120.783 119.35 120.524 119.35 120.265 119.35ZM102.529 107.505C104.665 108.994 106.413 110.547 108.031 111.971C111.98 115.531 115.086 118.315 120.977 118.056C126.414 117.797 128.68 115.596 131.787 112.554C133.405 111 135.152 109.253 137.612 107.57C132.434 108.411 127.256 108.735 120.977 108.799C114.374 108.799 108.096 108.346 102.529 107.505Z" fill="black"/>
<mask id="mask0_263_8324" style="mask-type:luminance" maskUnits="userSpaceOnUse" x="99" y="106" width="42" height="13">
<path d="M140.88 106.308C130.996 111.732 130.64 118.276 121.009 118.697C111.371 119.111 108.691 111.583 99.4863 106.334C106.037 107.596 113.61 108.146 120.983 108.126C128.349 108.107 134.362 107.596 140.88 106.308Z" fill="white"/>
</mask>
<g mask="url(#mask0_263_8324)">
<path d="M139.359 117.99C134.505 113.653 127.838 111.387 121.365 111.711C114.827 112.1 108.548 115.077 104.147 119.932C104.923 121.55 106.218 122.521 107.966 122.909C118.517 125.434 129.844 123.103 139.359 117.99Z" fill="#F037A5"/>
</g>
<path d="M137.095 25.2999C141.043 27.0476 144.733 29.3778 147.969 32.3553C149.458 33.7794 150.817 35.2681 152.241 36.6922C153.73 38.1809 154.831 40.2523 156.643 41.3527C157.614 41.9352 158.909 41.1585 158.844 40.0581C158.779 37.8573 157.29 35.9155 156.125 34.1678C154.766 32.0317 153.148 30.2193 151.206 28.6011C147.516 25.4294 143.374 22.9697 138.778 21.222C136.448 20.2511 134.765 24.2643 137.095 25.2999Z" fill="#A8E1FF"/>
<path d="M158.845 48.1507C159.751 50.2867 160.333 53.2643 162.275 54.753C162.793 55.1414 163.57 55.0767 163.829 54.2999C164.605 51.8402 163.052 48.9922 162.146 46.7267C161.175 44.3317 157.809 45.691 158.845 48.1507Z" fill="#A8E1FF"/>
<path d="M121.69 97.3418C123.632 97.4712 125.38 97.8596 127.192 98.3774C128.81 98.8305 130.429 99.8014 132.111 99.6073C133.212 99.4778 134.118 98.3774 133.406 97.3418C131.27 93.9759 125.25 93.7817 121.69 93.9111C119.489 94.0406 119.489 97.2123 121.69 97.3418Z" fill="#E0F5FF"/>
<path d="M219.818 196.895C213.993 201.426 209.656 178.189 172.372 173.658C166.547 171.781 164.411 162.33 165.123 152.103C165.446 147.054 166.158 141.423 167.388 135.986C168.035 132.943 168.812 130.031 169.783 127.247C170.884 124.14 172.502 122.651 173.602 123.622C189.655 132.102 219.689 167.12 222.796 186.345C223.508 190.94 222.731 194.695 219.818 196.895Z" fill="#00C4F6"/>
<path d="M190.82 153.01C193.927 155.47 196.71 158.124 199.299 161.036C200.464 162.396 201.5 163.884 202.73 165.308C203.895 166.668 205.125 168.545 206.678 169.451C207.649 169.969 209.073 169.322 209.009 168.092C208.879 166.215 207.714 164.726 206.808 163.108C205.772 161.23 204.348 159.548 202.924 157.929C200.076 154.822 196.904 152.104 193.538 149.579C191.532 148.091 188.878 151.456 190.82 153.01Z" fill="#A8E1FF"/>
<path d="M210.108 176.895C210.885 178.06 211.597 179.42 212.18 180.714C212.438 181.232 213.15 181.556 213.733 181.556C214.057 181.556 214.316 181.491 214.639 181.297C215.351 180.908 215.61 180.132 215.416 179.355C215.157 177.672 214.575 176.248 213.733 174.824C212.309 172.494 208.684 174.694 210.108 176.895Z" fill="#A8E1FF"/>
<path d="M219.818 196.896C213.993 201.427 209.656 178.189 172.372 173.658C166.547 171.781 164.411 162.33 165.123 152.103C165.187 150.55 165.123 149.773 166.352 142.523C170.689 166.861 186.354 166.861 197.034 173.787C205.708 179.354 217.035 192.17 220.919 190.941C222.278 190.552 222.472 187.769 222.796 186.345C223.508 190.941 222.731 194.695 219.818 196.896Z" fill="#08BAE8"/>
<path d="M169.007 264.669C165.511 269.265 161.433 273.278 156.967 276.708C143.827 286.677 127.062 291.272 110.233 289.201C92.3028 287 72.3016 281.951 49.9054 273.278C24.7259 263.439 51.5884 269.329 79.8102 263.115C85.7652 261.821 91.5908 260.332 97.6106 257.743C104.019 255.024 110.686 251.076 117.806 244.862C126.998 256.448 193.021 233.081 169.007 264.669Z" fill="#00C4F6"/>
<path d="M169.006 264.669C165.511 269.265 161.433 273.278 156.966 276.708C156.966 274.831 156.578 272.954 155.801 271.336C154.054 267.323 150.558 264.41 146.804 262.144C139.101 257.613 130.039 255.866 121.107 255.672C113.21 255.542 105.378 256.578 97.6101 257.743C104.018 255.024 110.685 251.076 117.806 244.862C126.997 256.448 193.02 233.081 169.006 264.669Z" fill="#08BAE8"/>
<path d="M217.294 190.554C222.731 190.554 227.133 194.955 227.133 200.393C227.133 205.765 222.731 210.167 217.294 210.167C211.857 210.167 207.455 205.765 207.455 200.393C207.455 194.955 211.857 190.554 217.294 190.554Z" fill="#B8E6FF"/>
<path fill-rule="evenodd" clip-rule="evenodd" d="M217.294 210.813C211.533 210.813 206.808 206.152 206.808 200.327C206.808 194.566 211.533 189.905 217.294 189.905C223.055 189.905 227.78 194.566 227.78 200.327C227.78 206.152 223.055 210.813 217.294 210.813ZM217.294 191.2C212.245 191.2 208.102 195.278 208.102 200.327C208.102 205.44 212.245 209.518 217.294 209.518C222.343 209.518 226.485 205.44 226.485 200.327C226.485 195.278 222.343 191.2 217.294 191.2Z" fill="#B8E6FF"/>
<path d="M231.793 263.827C229.527 266.092 225.838 266.092 223.572 263.827C221.307 261.561 221.307 257.872 223.572 255.606C225.838 253.341 229.527 253.341 231.793 255.606C234.058 257.872 234.058 261.561 231.793 263.827Z" fill="#B8E6FF"/>
<path d="M198.781 281.367C197.163 282.985 194.574 282.985 192.955 281.367C191.337 279.749 191.337 277.16 192.955 275.541C194.574 273.923 197.163 273.923 198.781 275.541C200.399 277.16 200.399 279.749 198.781 281.367Z" fill="#B8E6FF"/>
<path d="M235.354 222.463C235.354 224.729 233.477 226.541 231.211 226.541C228.946 226.541 227.133 224.729 227.133 222.463C227.133 220.198 228.946 218.321 231.211 218.321C233.477 218.321 235.354 220.198 235.354 222.463Z" fill="#B8E6FF"/>
<path fill-rule="evenodd" clip-rule="evenodd" d="M231.21 227.189C228.62 227.189 226.484 225.053 226.484 222.464C226.484 219.81 228.62 217.674 231.21 217.674C233.863 217.674 236 219.81 236 222.464C236 225.053 233.863 227.189 231.21 227.189ZM231.21 218.968C229.332 218.968 227.779 220.522 227.779 222.464C227.779 224.341 229.332 225.894 231.21 225.894C233.151 225.894 234.705 224.341 234.705 222.464C234.705 220.522 233.151 218.968 231.21 218.968Z" fill="#B8E6FF"/>
<path d="M31.0691 186.086C30.3571 177.542 30.7454 168.091 36.4416 161.683C41.0373 156.505 48.2869 154.433 55.2129 154.239C62.1389 153.98 69.0002 155.404 75.8614 155.922C94.8917 157.476 113.793 152.815 132.564 149.32C151.335 145.824 171.078 143.494 189.202 149.449C197.487 152.168 205.902 157.476 207.973 165.955C210.951 178.124 199.558 189.516 199.494 202.009C199.429 216.897 215.093 229.325 212.245 243.953C210.692 251.85 203.701 257.87 195.998 260.136C188.231 262.401 179.945 261.495 172.113 259.553C164.281 257.676 156.708 254.828 148.811 253.274C119.618 247.643 89.9076 260.071 60.1971 258.906C48.2869 258.517 35.0175 254.828 29.1919 244.471C24.0136 235.409 26.0202 224.017 29.0625 214.567C32.1694 204.792 31.9105 196.378 31.0691 186.086Z" fill="white"/>
<path d="M61.1787 173.337C60.6418 173.364 60.181 172.946 60.1546 172.409C60.129 171.888 60.5467 171.428 61.0836 171.401C61.6042 171.376 62.0651 171.793 62.0906 172.314C62.117 172.851 61.6993 173.312 61.1787 173.337ZM64.0909 173.194C63.5703 173.22 63.0932 172.803 63.0668 172.266C63.0412 171.745 63.4752 171.284 63.9958 171.258C64.5327 171.232 64.9935 171.649 65.0191 172.17C65.0455 172.707 64.6278 173.168 64.0909 173.194ZM67.5647 181.161L68.0202 181.139L68.0977 182.717L67.6422 182.74C66.666 182.787 65.8139 182.373 65.2736 181.665C64.7223 182.394 63.8971 182.858 62.7257 182.916C60.8873 183.006 59.3146 181.534 59.2218 179.647L59.1563 178.313C59.0604 176.361 60.4519 174.808 62.4204 174.711L66.0159 174.535L66.2845 180.001C66.3197 180.717 66.8488 181.197 67.5647 181.161ZM64.7307 180.241L64.5308 176.173L62.4972 176.273C61.4071 176.327 60.6801 177.129 60.7344 178.235L60.7999 179.569C60.8503 180.594 61.6891 181.401 62.6489 181.354C63.5112 181.312 64.29 180.898 64.7307 180.241ZM77.5514 180.671L78.6903 180.615L78.7678 182.193L68.0464 182.72L67.334 182.494L67.2821 181.436L67.9688 181.142L75.2412 180.784C74.9355 180.538 74.4971 179.581 73.9758 178.596C72.5789 176.055 70.9251 175.256 68.531 176.319L68.4607 174.888C71.2225 173.676 73.9026 174.783 75.6907 178.316C76.7982 180.61 77.1252 180.626 77.5514 180.671ZM86.297 173.718C88.9488 173.587 90.3727 175.018 90.5134 177.881C90.6141 179.931 89.037 181.688 86.9708 181.79L78.5913 182.185L78.5146 180.623L80.3693 180.532L80.0895 174.838L81.6514 174.761L81.7441 176.649C82.9606 175.186 84.5399 173.804 86.297 173.718ZM86.8119 180.216C88.0646 180.154 89.04 179.095 88.9777 177.826C88.881 175.858 87.7875 175.177 86.2257 175.254C84.6964 175.329 83.2011 176.43 81.8216 178.227L81.9311 180.456L86.8119 180.216ZM99.9295 173.831C99.3926 173.857 98.9318 173.439 98.9054 172.903C98.8798 172.382 99.2967 171.905 99.8336 171.878C100.354 171.853 100.816 172.287 100.841 172.807C100.868 173.344 100.45 173.805 99.9295 173.831ZM107.223 179.213L107.3 180.791L105.478 180.881C105.524 183.471 103.649 185.472 101.03 185.6L100.948 185.604C98.2801 185.735 96.1978 183.848 96.0667 181.18L95.906 177.91L97.4679 177.833L97.6285 181.103C97.7181 182.925 99.0494 184.132 100.872 184.043L100.953 184.039C102.759 183.95 103.982 182.618 103.892 180.795L103.518 173.181L105.096 173.104L105.401 179.303L107.223 179.213ZM112.334 172.259C114.287 172.163 115.84 173.571 115.936 175.523L116.001 176.857C116.094 178.745 114.657 180.364 112.819 180.455C111.761 180.507 110.75 180.181 110.001 179.533C109.595 180.238 108.852 180.715 107.925 180.76L107.209 180.796L106.513 180.569L106.461 179.511L107.131 179.218L107.847 179.182C108.563 179.147 109.026 178.619 108.991 177.903L108.891 175.869C108.795 173.917 110.203 172.364 112.155 172.268L112.334 172.259ZM114.423 176.935L114.358 175.601C114.303 174.494 113.501 173.767 112.411 173.821L112.232 173.83C111.142 173.883 110.415 174.685 110.469 175.792L110.577 177.988C111.08 178.599 111.88 178.935 112.742 178.893C113.702 178.846 114.474 177.96 114.423 176.935ZM127.784 178.203L129.557 178.116L129.635 179.694L121.288 180.104L121.211 178.526L126.206 178.28L126.053 175.173C125.995 174.002 125.142 173.228 123.987 173.285L121.758 173.394L121.681 171.832L123.91 171.723C125.927 171.624 127.531 173.062 127.631 175.095L127.784 178.203ZM132.414 172.952L136.252 172.747C137.798 172.672 139.112 173.863 139.188 175.408L139.238 176.433C139.314 177.963 138.123 179.293 136.578 179.369L129.533 179.715L128.837 179.488L128.784 178.415L129.455 178.137L136.337 177.799C137.102 177.761 137.69 177.113 137.652 176.348L137.617 175.632C137.58 174.884 136.932 174.296 136.167 174.334L130.408 174.617L130.212 173.957L133.043 168.176L134.305 168.636L132.414 172.952ZM143.223 165.604L143.267 166.499L139.981 166.661L139.937 165.766L140.555 165.735C140.283 165.504 140.103 165.154 140.08 164.699C140.036 163.804 140.545 163.208 141.456 163.163C142.319 163.121 142.946 163.612 143.096 164.681L142.267 164.722C142.162 164.254 141.891 164.039 141.516 164.057C141.126 164.077 140.908 164.283 140.93 164.738C140.946 165.064 141.113 165.463 141.596 165.684L143.223 165.604ZM143.722 177.42L144.682 177.373L144.76 178.951L143.312 179.022C142.287 179.072 141.451 178.33 141.401 177.306L140.933 167.788L142.511 167.71L142.953 176.691C142.978 177.212 143.348 177.438 143.722 177.42ZM146.248 169.843C145.711 169.869 145.25 169.451 145.223 168.915C145.198 168.394 145.615 167.917 146.152 167.89C146.672 167.865 147.134 168.299 147.16 168.819C147.186 169.356 146.768 169.817 146.248 169.843ZM149.16 169.7C148.639 169.725 148.162 169.308 148.136 168.771C148.11 168.251 148.543 167.773 149.064 167.747C149.601 167.721 150.062 168.155 150.088 168.676C150.114 169.212 149.697 169.673 149.16 169.7ZM150.078 177.108L151.786 177.024L151.864 178.602L149.944 178.696C149.196 178.733 148.527 178.391 148.029 177.877C147.632 178.435 147 178.841 146.023 178.889L144.624 178.957L143.928 178.731L143.876 177.673L144.547 177.379L145.962 177.31C146.873 177.265 147.186 176.663 147.166 175.93L146.914 171.131L148.492 171.053L148.727 175.82C148.763 176.569 149.151 177.153 150.078 177.108ZM152.863 167.202L154.441 167.124L154.908 176.642C154.959 177.667 154.2 178.487 153.191 178.537L151.727 178.608L151.031 178.382L150.979 177.324L151.65 177.047L151.649 177.03L152.626 176.982C152.983 176.965 153.329 176.703 153.304 176.183L152.863 167.202ZM158.846 178.259L157.268 178.336L156.712 167.013L158.29 166.935L158.846 178.259ZM170.729 176.093L172.502 176.006L172.58 177.584L164.233 177.994L164.156 176.416L169.151 176.17L168.998 173.063C168.94 171.892 168.087 171.118 166.932 171.175L164.703 171.284L164.626 169.723L166.855 169.613C168.872 169.514 170.476 170.952 170.576 172.986L170.729 176.093ZM180.404 175.618L182.535 175.513L182.613 177.091L179.522 177.243C178.757 177.28 177.995 177.041 177.426 176.4C176.759 177.101 175.959 177.418 175.276 177.451L172.428 177.591L172.428 177.575L171.765 177.363L171.713 176.306L172.353 176.046L172.351 176.013L174.824 175.892C175.149 175.876 176.036 175.669 176.364 175.376L173.25 171.403L173.191 170.199C174.561 169.544 175.881 169.202 177.183 169.138C179.363 169.031 180.854 169.839 180.927 171.319C180.94 171.596 180.893 171.957 180.797 172.32C180.421 173.627 179.707 174.38 178.855 175.286C179.291 175.526 179.835 175.646 180.404 175.618ZM177.517 174.602C178.149 173.869 178.721 173.221 179.028 172.163C179.112 171.897 179.137 171.733 179.127 171.538C179.096 170.903 178.491 170.542 177.206 170.605C176.458 170.642 175.62 170.846 174.886 171.192L174.891 171.289L177.517 174.602ZM182.29 177.107L182.212 175.529L183.823 175.45C184.181 175.432 184.543 175.17 184.518 174.649L184.254 169.28L185.816 169.203L186.106 175.109C186.156 176.134 185.414 176.953 184.389 177.004L182.29 177.107ZM184.834 180.749C184.297 180.776 183.836 180.358 183.809 179.821C183.784 179.3 184.202 178.84 184.738 178.813C185.259 178.788 185.72 179.205 185.746 179.726C185.772 180.263 185.354 180.724 184.834 180.749ZM76.5609 206.751L77.0327 206.728L77.1102 208.306L76.6384 208.329C75.7599 208.372 75.0078 208.001 74.5528 207.371C74.0396 208.212 73.1045 208.763 71.9819 208.819C70.6641 208.883 69.7029 208.572 68.9154 207.811C68.0726 207.918 67.6125 208.511 67.6516 209.309L67.8315 212.969L66.2696 213.046L66.0898 209.385C66.0155 207.872 66.9503 206.652 68.3538 206.339L68.2509 203.914C68.1534 201.929 69.5604 200.359 71.5615 200.261C73.5626 200.163 75.1159 201.57 75.2142 203.572L75.3141 205.605C75.3492 206.321 75.8613 206.785 76.5609 206.751ZM71.9044 207.241C73.0432 207.185 73.7858 206.365 73.7299 205.226L73.6523 203.648C73.5972 202.526 72.7771 201.767 71.6382 201.823C70.4994 201.879 69.7576 202.714 69.8128 203.837L69.9495 206.619C70.4143 207.118 70.9608 207.287 71.9044 207.241ZM78.6334 199.196C78.0966 199.222 77.6357 198.805 77.6093 198.268C77.5837 197.747 78.0006 197.27 78.5375 197.244C79.0581 197.218 79.5198 197.652 79.5454 198.173C79.5717 198.71 79.1541 199.17 78.6334 199.196ZM81.5456 199.053C81.025 199.078 80.5479 198.662 80.5215 198.125C80.4959 197.604 80.9291 197.126 81.4497 197.101C81.9866 197.074 82.4482 197.508 82.4738 198.029C82.5002 198.566 82.0825 199.027 81.5456 199.053ZM82.4641 206.461L84.1723 206.377L84.2499 207.955L82.3301 208.049C81.5817 208.086 80.9126 207.744 80.4144 207.23C80.0178 207.788 79.3854 208.194 78.4092 208.242L77.0101 208.311L76.314 208.084L76.262 207.026L76.9325 206.733L78.348 206.663C79.259 206.618 79.5719 206.016 79.5522 205.283L79.3001 200.484L80.8783 200.407L81.1125 205.174C81.1492 205.922 81.5367 206.506 82.4641 206.461ZM89.583 206.111L90.8683 206.048L90.9458 207.626L89.449 207.7C88.7169 207.735 88.0478 207.393 87.5496 206.88C87.1367 207.438 86.5043 207.844 85.5282 207.892L84.0802 207.963L83.3841 207.737L83.3321 206.679L84.0027 206.385L85.4669 206.313C86.4105 206.267 86.7063 205.649 86.6695 204.901L86.4353 200.134L88.0135 200.056L88.2197 204.254C88.2261 204.384 88.2325 204.514 88.2234 204.661L88.2314 204.824C88.2682 205.572 88.6557 206.157 89.583 206.111ZM85.9604 209.388C86.4973 209.361 86.9581 209.779 86.9837 210.3C87.0101 210.836 86.5924 211.297 86.0555 211.324C85.5349 211.349 85.0578 210.932 85.0314 210.395C85.0058 209.875 85.4398 209.413 85.9604 209.388ZM88.8726 209.245C89.4095 209.218 89.8703 209.636 89.8959 210.156C89.9223 210.693 89.5046 211.154 88.9677 211.181C88.4471 211.206 87.97 210.789 87.9436 210.252C87.918 209.732 88.352 209.27 88.8726 209.245ZM101.026 198.976L102.588 198.9L102.846 204.155C102.924 205.733 101.703 207.098 100.108 207.176C99.0833 207.226 98.3182 206.921 97.82 206.408C97.3289 207.035 96.4811 207.37 95.6513 207.411C94.7891 207.453 94.0418 207.18 93.5086 206.619C93.0632 207.179 92.3641 207.556 91.567 207.595L90.7698 207.635L90.6922 206.057L91.5382 206.015C92.2053 205.982 92.6694 205.47 92.6374 204.819L92.4512 201.029L94.013 200.952L94.1992 204.743C94.2344 205.458 94.7115 205.875 95.5909 205.848C96.4377 205.823 96.9839 205.323 96.9487 204.608L96.7625 200.817L98.3406 200.739L98.5269 204.53C98.5612 205.23 99.1034 205.643 100.031 205.598C100.763 205.562 101.32 204.947 101.285 204.231L101.026 198.976ZM90.7535 207.635L90.0574 207.409L90.0054 206.351L90.676 206.057L90.7535 207.635ZM109.022 205.988C109.09 204.712 109.499 203.078 109.708 202.366L110.717 202.317C110.605 203.023 110.3 204.457 110.24 205.895L110.205 206.5L108.968 206.561L109.022 205.988ZM116.818 198.217C116.281 198.243 115.82 197.826 115.794 197.289C115.768 196.768 116.185 196.291 116.722 196.265C117.243 196.239 117.704 196.673 117.73 197.194C117.756 197.731 117.339 198.191 116.818 198.217ZM119.73 198.074C119.21 198.099 118.733 197.683 118.706 197.146C118.681 196.625 119.114 196.147 119.634 196.122C120.171 196.095 120.633 196.529 120.658 197.05C120.685 197.587 120.267 198.047 119.73 198.074ZM112.432 200.569L113.994 200.492L114.121 203.079C114.174 204.153 114.976 204.863 116.049 204.811L121.955 204.521C122.882 204.475 123.211 203.855 123.174 203.107L122.92 197.933L124.482 197.857L124.767 203.665C124.831 204.966 123.904 206.007 122.602 206.071L116.127 206.389C114.175 206.485 112.655 205.108 112.56 203.156L112.432 200.569ZM126.401 194.533L127.979 194.456L128.42 203.436C128.446 203.957 128.815 204.184 129.19 204.165L130.15 204.118L130.227 205.696L128.779 205.767C127.754 205.818 126.919 205.076 126.868 204.051L126.401 194.533ZM135.202 197.167C137.154 197.071 138.708 198.479 138.803 200.431L138.869 201.765C138.962 203.652 137.525 205.272 135.686 205.363C134.629 205.415 133.618 205.089 132.868 204.441C132.463 205.146 131.72 205.623 130.792 205.668L130.076 205.703L129.38 205.477L129.328 204.419L129.999 204.125L130.715 204.09C131.431 204.055 131.894 203.527 131.859 202.811L131.759 200.777C131.663 198.825 133.071 197.272 135.023 197.176L135.202 197.167ZM137.291 201.843L137.225 200.509C137.171 199.402 136.369 198.675 135.279 198.729L135.1 198.738C134.01 198.791 133.283 199.593 133.337 200.7L133.445 202.896C133.948 203.507 134.747 203.843 135.609 203.801C136.569 203.754 137.341 202.868 137.291 201.843ZM148.714 203.206L148.792 204.784L147.864 204.83L147.9 205.562C148.012 207.839 146.087 209.157 142.259 208.579L142.187 207.114C145.384 207.447 146.393 206.745 146.321 205.28L146.302 204.89L144.154 204.996C142.315 205.07 140.759 203.597 140.666 201.71L140.6 200.359C140.503 198.391 141.894 196.838 143.863 196.741L144.042 196.733C145.994 196.637 147.531 198.045 147.628 200.014L147.787 203.251L148.714 203.206ZM144.093 203.417L146.224 203.312L146.066 200.091C146.012 198.984 145.209 198.257 144.119 198.311L143.94 198.32C142.85 198.373 142.123 199.175 142.178 200.282L142.244 201.632C142.294 202.657 143.149 203.463 144.093 203.417ZM153.273 202.982L153.826 202.955L153.903 204.533L153.139 204.57C152.39 204.607 151.721 204.265 151.239 203.75C150.826 204.309 150.178 204.716 149.218 204.763L148.681 204.789L148.68 204.773L148.001 204.562L147.949 203.504L148.605 203.244L148.603 203.211L149.156 203.184C150.084 203.139 150.396 202.52 150.359 201.771L149.947 193.377L151.525 193.299L151.909 201.125C151.916 201.255 151.922 201.385 151.913 201.532L151.921 201.695C151.958 202.443 152.345 203.028 153.273 202.982ZM161.772 202.564L163.904 202.46L163.981 204.038L160.89 204.19C160.125 204.227 159.363 203.987 158.794 203.347C158.127 204.048 157.327 204.365 156.644 204.398L153.797 204.538L153.796 204.522L153.133 204.31L153.081 203.252L153.721 202.993L153.719 202.96L156.192 202.839C156.518 202.823 157.404 202.616 157.732 202.322L154.618 198.349L154.559 197.146C155.929 196.491 157.25 196.149 158.551 196.085C160.731 195.978 162.222 196.785 162.295 198.266C162.309 198.542 162.261 198.904 162.165 199.267C161.789 200.574 161.076 201.327 160.223 202.233C160.659 202.472 161.203 202.592 161.772 202.564ZM158.885 201.548C159.518 200.816 160.089 200.168 160.396 199.109C160.481 198.844 160.505 198.68 160.496 198.485C160.465 197.85 159.86 197.489 158.574 197.552C157.826 197.588 156.988 197.793 156.255 198.139L156.26 198.236L158.885 201.548ZM173.912 201.968L174.449 201.942L174.526 203.52L173.989 203.546C173.013 203.594 172.176 203.146 171.748 202.417C171.23 203.143 170.39 203.658 169.414 203.706C168.357 203.758 167.346 203.432 166.597 202.784C166.191 203.489 165.432 203.966 164.504 204.012L163.87 204.043L163.19 203.816L163.138 202.758L163.792 202.465L164.427 202.434C165.159 202.398 165.622 201.87 165.587 201.154L165.487 199.12C165.391 197.168 166.799 195.615 168.751 195.519L168.93 195.51C170.882 195.414 172.436 196.822 172.532 198.774L172.631 200.808C172.667 201.524 173.18 202.004 173.912 201.968ZM169.338 202.144C170.297 202.097 171.069 201.211 171.019 200.186L170.953 198.852C170.899 197.745 170.097 197.018 169.007 197.072L168.828 197.081C167.738 197.134 167.011 197.936 167.065 199.043L167.173 201.239C167.676 201.85 168.475 202.186 169.338 202.144ZM175.476 192.122L177.054 192.045L177.522 201.562C177.572 202.587 176.813 203.407 175.804 203.457L174.34 203.529L173.644 203.302L173.592 202.245L174.263 201.967L174.263 201.951L175.239 201.903C175.597 201.885 175.943 201.624 175.917 201.103L175.476 192.122ZM181.459 203.179L179.881 203.257L179.325 191.933L180.903 191.856L181.459 203.179ZM89.6533 232.139L90.4993 232.097L90.5769 233.675L89.5356 233.727C88.7873 233.763 88.1181 233.421 87.6199 232.907C87.207 233.466 86.5746 233.872 85.5985 233.92L79.6928 234.21C77.7567 234.305 76.2205 232.913 76.1254 230.977L75.9975 228.374L77.5757 228.296L77.7035 230.899C77.7563 231.973 78.5415 232.685 79.6152 232.632L85.521 232.342C86.4646 232.296 86.7766 231.677 86.7399 230.928L86.3274 222.534L87.9055 222.456L88.29 230.282C88.2964 230.412 88.3028 230.542 88.2937 230.689L88.3017 230.852C88.3385 231.6 88.726 232.184 89.6533 232.139ZM83.5228 227.189L83.5667 228.084L80.2966 228.244L80.2527 227.349L80.8383 227.321C80.5823 227.089 80.4191 226.754 80.3967 226.299C80.3536 225.42 80.8609 224.792 81.7882 224.746C82.6179 224.705 83.3276 225.209 83.3951 226.249L82.5653 226.29C82.5429 225.834 82.1746 225.64 81.8492 225.656C81.5239 225.672 81.2398 225.866 81.2638 226.354C81.2798 226.679 81.412 227.048 81.8796 227.27L83.5228 227.189ZM90.2529 233.691L90.1753 232.113L91.786 232.034C92.1439 232.017 92.5061 231.754 92.4805 231.234L92.2168 225.865L93.7786 225.788L94.0688 231.694C94.1191 232.719 93.3766 233.538 92.3516 233.588L90.2529 233.691ZM92.7966 237.334C92.2597 237.36 91.7988 236.942 91.7724 236.405C91.7469 235.885 92.1646 235.424 92.7014 235.398C93.2221 235.372 93.6829 235.79 93.7085 236.31C93.7349 236.847 93.3172 237.308 92.7966 237.334ZM95.6862 222.074L97.2643 221.996L97.7055 230.977C97.7311 231.497 98.101 231.724 98.4752 231.706L99.4351 231.658L99.5126 233.236L98.0647 233.308C97.0397 233.358 96.2041 232.616 96.1538 231.591L95.6862 222.074ZM112.723 231.006L113.829 230.951L113.907 232.529L112.8 232.584C112.134 232.633 111.516 232.337 111.164 231.816C110.8 232.372 110.311 232.706 109.416 232.75L108.131 232.813C107.383 232.85 106.809 232.454 106.528 232.06C106.229 232.597 105.642 232.935 104.78 232.978L103.592 233.036C102.827 233.074 102.222 232.696 101.954 232.236C101.655 232.772 101.135 233.157 99.8989 233.217L99.3945 233.242L98.6984 233.016L98.6465 231.958L99.3178 231.68L99.317 231.664L99.6749 231.647C100.553 231.603 100.873 231.131 100.842 230.513L100.653 226.657L102.199 226.581L102.404 230.436C102.44 231.168 102.929 231.487 103.482 231.46L104.442 231.412C105.076 231.381 105.477 230.905 105.447 230.287L105.257 226.431L106.786 226.356L106.96 230.212C106.99 230.831 107.452 231.264 108.119 231.232L109.111 231.183C109.746 231.152 110.065 230.679 110.034 230.061L109.772 224.725L111.302 224.65L111.564 229.986C111.594 230.604 112.04 231.039 112.723 231.006ZM121.496 228.128C122.604 230.422 122.931 230.439 123.373 230.482L123.451 232.06L113.852 232.532L113.156 232.305L113.104 231.248L113.774 230.954L121.047 230.597C120.741 230.351 120.319 229.393 119.797 228.407C118.384 225.867 116.73 225.068 114.353 226.131L114.282 224.699C117.028 223.488 119.708 224.596 121.496 228.128ZM139.589 229.686L139.667 231.264L137.78 231.356C137.723 233.854 135.876 235.755 133.338 235.88L133.256 235.884C130.588 236.015 128.506 234.128 128.374 231.443L128.214 228.19L129.776 228.113L129.936 231.367C130.026 233.205 131.357 234.395 133.179 234.306L133.26 234.302C135.066 234.213 136.29 232.897 136.2 231.059L135.662 220.11L137.24 220.032L137.718 229.777L139.589 229.686ZM145.092 229.415L146.378 229.352L146.455 230.93L144.958 231.004C144.226 231.04 143.557 230.697 143.059 230.184C142.646 230.742 142.014 231.148 141.037 231.196L139.589 231.267L138.893 231.041L138.841 229.983L139.512 229.689L140.976 229.617C141.92 229.571 142.216 228.953 142.179 228.205L141.945 223.438L143.523 223.36L143.729 227.558C143.735 227.688 143.742 227.818 143.733 227.965L143.741 228.128C143.777 228.876 144.165 229.461 145.092 229.415ZM141.47 232.692C142.007 232.665 142.467 233.083 142.493 233.604C142.519 234.141 142.102 234.601 141.565 234.628C141.044 234.653 140.567 234.237 140.541 233.7C140.515 233.179 140.949 232.717 141.47 232.692ZM144.382 232.549C144.919 232.522 145.38 232.94 145.405 233.461C145.432 233.998 145.014 234.458 144.477 234.485C143.956 234.51 143.479 234.093 143.453 233.557C143.427 233.036 143.861 232.574 144.382 232.549ZM154.238 228.966L156.37 228.861L156.447 230.439L153.356 230.591C152.591 230.629 151.829 230.389 151.26 229.748C150.593 230.45 149.793 230.766 149.11 230.8L146.263 230.94L146.262 230.923L145.599 230.711L145.547 229.654L146.187 229.394L146.185 229.362L148.658 229.24C148.984 229.224 149.87 229.017 150.198 228.724L147.084 224.751L147.025 223.547C148.395 222.893 149.716 222.55 151.017 222.487C153.197 222.379 154.688 223.187 154.761 224.667C154.775 224.944 154.727 225.305 154.631 225.669C154.255 226.975 153.542 227.728 152.689 228.634C153.125 228.874 153.669 228.994 154.238 228.966ZM151.351 227.95C151.984 227.217 152.555 226.57 152.862 225.511C152.947 225.246 152.971 225.081 152.962 224.886C152.931 224.252 152.326 223.89 151.04 223.953C150.292 223.99 149.454 224.194 148.721 224.54L148.726 224.638L151.351 227.95ZM160.533 220.616C160.013 220.642 159.536 220.225 159.509 219.688C159.484 219.168 159.917 218.69 160.437 218.664C160.974 218.638 161.436 219.072 161.462 219.592C161.488 220.129 161.07 220.59 160.533 220.616ZM163.726 228.5L165.841 228.396L165.918 229.974L156.124 230.455L155.428 230.228L155.376 229.171L156.047 228.893L156.047 228.877L158.324 228.765C157.815 228.35 157.456 227.682 157.419 226.934L157.353 225.584C157.256 223.615 158.534 222.068 160.697 221.962C162.861 221.856 164.282 223.221 164.381 225.238L164.447 226.589C164.484 227.337 164.192 228.036 163.726 228.5ZM162.885 226.666L162.819 225.315C162.765 224.209 162.028 223.479 160.807 223.539C159.506 223.602 158.858 224.352 158.914 225.507L158.981 226.857C159.031 227.882 159.968 228.684 160.992 228.634C162.261 228.572 162.936 227.691 162.885 226.666ZM166.918 221.037C166.381 221.063 165.92 220.645 165.894 220.109C165.868 219.588 166.286 219.127 166.823 219.101C167.343 219.075 167.804 219.493 167.83 220.013C167.856 220.55 167.438 221.011 166.918 221.037ZM169.83 220.894C169.309 220.919 168.832 220.502 168.806 219.965C168.78 219.445 169.214 218.983 169.735 218.958C170.272 218.931 170.733 219.349 170.758 219.87C170.785 220.406 170.367 220.867 169.83 220.894ZM165.564 229.991L165.486 228.413L167.699 228.305C168.057 228.287 168.419 228.025 168.394 227.504L168.13 222.135L169.692 222.058L169.982 227.964C170.032 228.989 169.29 229.808 168.265 229.859L165.564 229.991Z" fill="#012246"/>
<path opacity="0.4" d="M212.246 243.953C210.692 251.85 203.702 257.87 195.999 260.136C188.232 262.401 179.946 261.495 172.114 259.553C164.282 257.676 156.709 254.828 148.812 253.274C119.619 247.643 89.9085 260.071 60.1979 258.906C48.2878 258.453 35.0184 254.828 29.1928 244.471C26.5389 239.875 25.8269 234.632 26.0858 229.454C26.28 233.144 27.1862 236.769 28.9986 240.07C34.63 249.973 47.3169 253.469 58.7092 253.922C87.0604 254.957 115.476 243.112 143.31 248.484C150.883 249.973 158.133 252.692 165.641 254.504C173.085 256.317 181.047 257.223 188.426 255.087C195.805 252.886 202.537 247.125 203.961 239.552C206.679 225.635 193.928 214.567 194.057 200.326C194.122 189.193 208.233 176.377 207.78 165.243C207.866 165.459 207.931 165.696 207.974 165.955C210.951 178.124 199.559 189.516 199.494 202.074C199.43 216.897 215.094 229.325 212.246 243.953Z" fill="#05BEED"/>
<path fill-rule="evenodd" clip-rule="evenodd" d="M186.225 262.142C181.953 262.142 177.292 261.495 171.985 260.2C168.683 259.424 165.382 258.388 162.21 257.482C157.809 256.187 153.213 254.828 148.682 253.922C132.112 250.685 115.023 253.404 98.5173 256.058C85.9599 258 73.0141 260.071 60.1978 259.553C51.33 259.23 35.4714 256.899 28.6101 244.73C24.338 237.286 24.338 227.383 28.4159 214.372C31.5876 204.404 31.1993 195.731 30.4225 186.151C29.7752 178.836 29.7105 168.286 35.9245 161.295C40.1319 156.57 46.9284 153.851 55.149 153.592C59.8094 153.463 64.4699 153.98 68.9362 154.563C71.2664 154.822 73.5967 155.081 75.9269 155.275C91.9797 156.634 108.227 153.398 123.891 150.356C126.739 149.795 129.587 149.234 132.435 148.673C151.142 145.177 171.014 142.782 189.397 148.802C195.481 150.809 206.097 155.728 208.621 165.761C210.304 172.752 207.456 179.484 204.673 186.086C202.472 191.264 200.206 196.572 200.142 202.074C200.142 208.806 203.443 215.149 206.744 221.363C210.498 228.548 214.447 235.992 212.893 244.018C211.404 251.656 204.867 258.194 196.193 260.783C193.086 261.689 189.785 262.142 186.225 262.142ZM132.37 251.138C137.937 251.138 143.439 251.592 148.876 252.627C153.537 253.533 158.133 254.893 162.534 256.252C165.706 257.158 169.007 258.129 172.243 258.906C181.823 261.236 189.267 261.43 195.805 259.553C204.025 257.093 210.239 250.944 211.599 243.824C213.087 236.251 209.463 229.26 205.579 221.946C202.278 215.602 198.847 209.065 198.847 202.009C198.912 196.313 201.242 190.876 203.443 185.568C206.291 178.901 208.945 172.622 207.326 166.085C204.932 156.246 193.669 151.586 189.008 150.032C170.884 144.077 151.207 146.472 132.694 149.967C129.846 150.485 126.998 151.025 124.15 151.585C108.356 154.692 92.0444 157.929 75.8622 156.57C73.4672 156.375 71.137 156.117 68.8067 155.858C64.3404 155.275 59.7447 154.757 55.2137 154.887C50.6827 155.016 42.2032 156.181 36.8954 162.136C31.0051 168.739 31.0698 178.966 31.6524 186.021C32.4938 195.731 32.8822 204.598 29.6458 214.761C25.6326 227.383 25.6973 236.963 29.7105 244.148C36.2481 255.669 51.6536 257.935 60.2625 258.259C72.9494 258.776 85.8304 256.705 98.3231 254.763C109.521 252.951 120.978 251.138 132.37 251.138Z" fill="#99E7FA"/>
<path d="M64.3401 243.954C65.0521 253.728 61.492 262.855 57.1552 266.997L49.7114 270.946C43.5622 271.399 38.9017 260.46 37.9955 247.255C37.0893 234.051 40.8436 221.946 48.6757 213.596C54.6955 218.127 63.4339 230.749 64.3401 243.954Z" fill="#00C4F6"/>
<path d="M46.7996 215.798C40.262 223.954 37.155 235.152 37.9965 247.256C38.1906 249.651 38.4496 251.981 38.8379 254.182C39.3558 254.398 39.8952 254.57 40.4561 254.7C42.1391 255.153 44.2104 255.153 45.4403 253.858C46.4112 252.758 46.5407 251.075 46.0876 249.716C45.6345 248.162 44.5341 247.062 44.1457 245.508C43.7573 244.084 43.5631 242.466 43.3689 240.977C42.9158 237.741 42.8511 234.44 43.0453 231.139C43.4337 225.896 44.7282 220.653 46.7996 215.798Z" fill="#08BAE8"/>
<path d="M33.4651 249.197C35.2775 249.542 37.0036 250.039 38.6434 250.686C41.4914 251.722 44.0159 253.081 46.2814 254.57L53.0131 270.558C49.0647 274.635 39.679 277.548 29.4519 275.412C16.5061 272.694 5.89057 265.832 0.000244141 256.058C6.02003 251.463 20.5193 246.478 33.4651 249.197Z" fill="#00C4F6"/>
<path d="M37.4777 254.827C33.2703 253.533 27.1858 250.814 22.9784 253.598C22.3311 254.051 22.4606 254.957 23.1726 255.216C25.1792 255.993 27.38 255.863 29.4513 256.122C31.911 256.316 34.4354 256.575 36.8951 256.963C38.2544 257.158 38.837 255.281 37.4777 254.827Z" fill="#A8E1FF"/>
<path d="M15.5998 253.987C14.9525 254.181 14.2405 254.246 13.5932 254.44C12.9459 254.57 12.2987 255.023 11.6514 255.282C10.1626 255.994 10.9393 258.324 12.4928 258.324C13.2049 258.324 13.9816 258.389 14.6936 258.259C15.3409 258.065 15.9882 257.935 16.6355 257.741C17.6712 257.482 18.2537 256.382 17.9948 255.346C17.6711 254.311 16.6355 253.793 15.5998 253.987Z" fill="#A8E1FF"/>
<path d="M0.000244141 256.059C5.89057 265.833 16.5061 272.694 29.4519 275.413C39.2907 277.484 48.3527 274.83 52.4953 271.011C52.2364 270.558 51.9128 270.234 51.5244 269.911C49.9709 268.81 47.8349 268.81 45.8283 268.875C39.8085 269.069 33.724 269.263 27.7042 268.487C21.7491 267.775 15.7293 265.898 10.8747 262.337C7.89716 260.072 5.30802 257.094 3.6898 253.729C2.26576 254.505 1.03591 255.282 0.000244141 256.059Z" fill="#08BAE8"/>
</svg>
